<svg width="302" height="160" viewBox="0 0 302 160" fill="none" xmlns="http://www.w3.org/2000/svg">
<g clip-path="url(#clip0_5545_10454)">
<g clip-path="url(#clip1_5545_10454)">
<path d="M188.47 109.633C173.39 109.633 158.689 104.908 146.432 96.1226C134.175 87.337 124.979 74.9321 120.135 60.6508L120.818 60.419C125.613 74.5575 134.718 86.8384 146.852 95.5361C158.986 104.234 173.541 108.911 188.47 108.911V109.633Z" fill="url(#paint0_linear_5545_10454)"/>
<path d="M120.709 118.337C99.2694 100.357 85.8506 74.5977 83.4041 46.7246C80.9575 18.8514 89.6838 -8.85196 107.663 -30.2912L108.471 -29.6133C90.672 -8.38844 82.033 19.0379 84.455 46.6324C86.8771 74.2268 100.162 99.7288 121.387 117.528L120.709 118.337Z" fill="url(#paint1_linear_5545_10454)"/>
<path d="M219.714 -63.2768C232.948 -59.1777 245.245 -52.5122 255.903 -43.6607C266.561 -34.8091 275.372 -23.945 281.831 -11.6886C288.291 0.567886 292.273 13.9766 293.551 27.772C294.828 41.5675 293.376 55.4795 289.277 68.7137C285.178 81.9478 278.512 94.2451 269.661 104.903C260.809 115.561 249.945 124.372 237.689 130.831C225.432 137.291 212.023 141.273 198.228 142.551C184.432 143.828 170.521 142.376 157.286 138.277L157.598 137.269C170.7 141.327 184.473 142.765 198.131 141.5C211.788 140.235 225.063 136.293 237.197 129.898C249.331 123.503 260.086 114.781 268.849 104.229C277.612 93.6776 284.211 81.5034 288.269 68.4015C292.327 55.2997 293.765 41.5268 292.5 27.8693C291.235 14.2118 287.293 0.937202 280.898 -11.1967C274.503 -23.3306 265.781 -34.086 255.229 -42.8491C244.678 -51.6121 232.503 -58.211 219.402 -62.269L219.714 -63.2768Z" fill="url(#paint2_linear_5545_10454)"/>
<path d="M328.878 37.4743C328.878 68.3323 318.713 98.3309 299.953 122.832C281.194 147.333 254.885 164.972 225.096 173.021C195.306 181.07 163.694 179.082 135.148 167.363C106.602 155.644 82.7113 134.848 67.17 108.189L68.383 107.482C83.7689 133.874 107.421 154.463 135.681 166.064C163.942 177.666 195.238 179.634 224.73 171.666C254.221 163.697 280.267 146.234 298.838 121.978C317.41 97.7223 327.474 68.0237 327.474 37.4743H328.878Z" fill="url(#paint3_linear_5545_10454)"/>
<path d="M57.7021 88.6026C45.5594 57.5457 44.8663 23.1809 55.7471 -8.34028C66.6279 -39.8615 88.3721 -66.4812 117.087 -83.4343C145.803 -100.387 179.614 -106.567 212.47 -100.867C245.325 -95.1674 275.08 -77.9601 296.407 -52.3255L295.328 -51.4275C274.214 -76.8057 244.757 -93.841 212.23 -99.4838C179.703 -105.127 146.229 -99.0088 117.801 -82.2252C89.3731 -65.4416 67.8463 -39.0881 57.0743 -7.88213C46.3024 23.3238 46.9885 57.345 59.0098 88.0913L57.7021 88.6026Z" fill="url(#paint4_linear_5545_10454)"/>
<path d="M260.629 37.4742C260.629 54.9036 254.32 71.7439 242.869 84.8835L241.781 83.9354C253.003 71.0585 259.186 54.555 259.186 37.4742H260.629Z" fill="url(#paint5_linear_5545_10454)"/>
<path d="M116.311 37.4742C116.311 26.9629 118.608 16.5786 123.04 7.04744C127.472 -2.48367 133.933 -10.9314 141.971 -17.7048L142.901 -16.6013C135.024 -9.96328 128.692 -1.68452 124.349 7.65598C120.005 16.9965 117.754 27.1731 117.754 37.4742H116.311Z" fill="white"/>
<path d="M185.223 -34.6335C201.252 -35.3529 217.063 -30.7105 230.159 -21.44C243.254 -12.1694 252.887 1.20061 257.534 16.5573L256.153 16.9755C251.598 1.92587 242.158 -11.1768 229.325 -20.2619C216.491 -29.347 200.996 -33.8965 185.288 -33.1915L185.223 -34.6335Z" fill="url(#paint6_linear_5545_10454)"/>
</g>
</g>
<defs>
<linearGradient id="paint0_linear_5545_10454" x1="553.416" y1="294.968" x2="314.051" y2="-358.72" gradientUnits="userSpaceOnUse">
<stop stop-color="#C507E4"/>
<stop offset="1" stop-color="#5C94FF"/>
</linearGradient>
<linearGradient id="paint1_linear_5545_10454" x1="276.417" y1="136.12" x2="224.607" y2="-88.5895" gradientUnits="userSpaceOnUse">
<stop stop-color="#204683"/>
<stop offset="0.338535" stop-color="#6170B5"/>
<stop offset="0.625005" stop-color="#A47DAA"/>
<stop offset="0.994812" stop-color="#F99B84"/>
</linearGradient>
<linearGradient id="paint2_linear_5545_10454" x1="83" y1="-68" x2="148.012" y2="181.101" gradientUnits="userSpaceOnUse">
<stop stop-color="#040E56"/>
<stop offset="0.447917" stop-color="#412EB7"/>
<stop offset="1" stop-color="#EC796B"/>
</linearGradient>
<linearGradient id="paint3_linear_5545_10454" x1="48.0625" y1="-102.934" x2="134.586" y2="228.59" gradientUnits="userSpaceOnUse">
<stop stop-color="#040E56"/>
<stop offset="0.447917" stop-color="#412EB7"/>
<stop offset="1" stop-color="#EC796B"/>
</linearGradient>
<linearGradient id="paint4_linear_5545_10454" x1="140" y1="323" x2="152.401" y2="-95.7317" gradientUnits="userSpaceOnUse">
<stop stop-color="#040E56"/>
<stop offset="0.447917" stop-color="#412EB7"/>
<stop offset="1" stop-color="#EC796B"/>
</linearGradient>
<linearGradient id="paint5_linear_5545_10454" x1="173.893" y1="194.985" x2="244.211" y2="0.74483" gradientUnits="userSpaceOnUse">
<stop stop-color="#204683"/>
<stop offset="0.484159" stop-color="#6170B5"/>
<stop offset="0.720445" stop-color="#A47DAA"/>
<stop offset="0.994812" stop-color="#F99B84"/>
</linearGradient>
<linearGradient id="paint6_linear_5545_10454" x1="240.406" y1="33.9675" x2="110.206" y2="-72.7466" gradientUnits="userSpaceOnUse">
<stop stop-color="#C1F3FC"/>
<stop offset="1" stop-color="#FBF2B1"/>
</linearGradient>
<clipPath id="clip0_5545_10454">
<rect width="302" height="160" fill="white"/>
</clipPath>
<clipPath id="clip1_5545_10454">
<rect width="302" height="160" fill="white"/>
</clipPath>
</defs>
</svg>
