<svg width="348" height="1059" viewBox="0 0 348 1059" fill="none" xmlns="http://www.w3.org/2000/svg">
<g clip-path="url(#clip0_6706_22821)">
<path opacity="0.2" d="M-112.838 739.577L-113.058 739.459L-113.06 739.458C-154.033 717.517 -202.895 716.924 -244.041 737.81L-449.25 841.918C-479.366 857.211 -511.644 824.432 -495.86 794.553L-388.738 590.935C-367.283 550.124 -367.122 501.197 -388.373 459.864L-112.838 739.577ZM-112.838 739.577H-112.838L91.7209 848.7L91.7231 848.696L91.7292 848.699C121.769 864.798 154.156 832.734 138.634 802.524L138.634 802.523L32.4 596.117C11.1489 554.783 11.2504 505.915 32.7052 465.105L139.887 261.426C155.611 231.596 123.331 198.83 93.217 214.122L-112.001 318.229C-153.087 339.056 -201.95 338.463 -242.985 316.581L-447.704 207.28L-447.705 207.28C-477.783 191.259 -510.205 223.167 -494.607 253.457C-494.607 253.457 -494.607 253.457 -494.607 253.457L-388.373 459.863L-112.838 739.577Z" stroke="url(#paint0_linear_6706_22821)" stroke-width="2"/>
<path opacity="0.2" d="M-90.5858 809.14V809.143L-92.056 808.357L-92.0575 808.356C-146.584 779.183 -211.625 778.4 -266.395 806.159L-266.847 805.267L-266.395 806.159L-539.051 944.323C-578.779 964.472 -621.36 921.285 -600.537 881.906L-90.5858 809.14ZM-90.5858 809.14L179.149 952.86L180.03 953.33C219.66 974.542 262.392 932.31 241.909 892.489L241.908 892.488L100.764 618.548C72.4808 563.608 72.6124 498.63 101.169 444.374L243.573 174.059C264.317 134.748 221.734 91.5731 182.007 111.721L-90.6484 249.895C-145.338 277.585 -210.38 276.792 -264.988 247.698L-537.004 102.645L-537.004 102.644C-576.676 81.5286 -619.451 123.566 -598.872 163.486C-598.872 163.486 -598.872 163.486 -598.872 163.486L-457.728 437.416L-90.5858 809.14ZM-458.213 611.67L-600.536 881.905L-457.728 437.416C-429.445 492.356 -429.656 557.413 -458.213 611.67Z" stroke="url(#paint1_linear_6706_22821)" stroke-width="2"/>
<path opacity="0.2" d="M-69.2587 874.125L-71.2827 873.046L-71.2842 873.045C-138.284 837.192 -218.192 836.218 -285.475 870.347L-285.927 869.455L-285.475 870.347L-620.145 1040C-668.71 1064.64 -720.767 1011.83 -695.306 963.677L-69.2587 874.125ZM-69.2587 874.125L262.686 1051.07C311.125 1077.01 363.363 1025.36 338.321 976.667L337.432 977.124L338.321 976.666L165.068 640.299C130.323 572.761 130.494 492.898 165.573 426.215L340.366 94.2949C365.729 46.2283 313.669 -6.56645 265.105 18.0658L-69.5745 187.713C-136.757 221.742 -216.676 220.779 -283.767 185.015L-617.637 6.9028L-617.638 6.90232C-666.157 -18.9181 -718.428 32.4889 -693.281 81.3047L-520.018 417.682C-520.017 417.682 -520.017 417.682 -520.017 417.682C-485.273 485.209 -485.534 565.172 -520.613 631.856L-695.306 963.675L-69.2587 874.125Z" stroke="url(#paint2_linear_6706_22821)" stroke-width="2"/>
</g>
<defs>
<linearGradient id="paint0_linear_6706_22821" x1="39.6385" y1="681.301" x2="-379.862" y2="396.908" gradientUnits="userSpaceOnUse">
<stop stop-color="#EC796B"/>
<stop offset="1" stop-color="#E175B1"/>
</linearGradient>
<linearGradient id="paint1_linear_6706_22821" x1="110.668" y1="731.456" x2="-446.31" y2="353.435" gradientUnits="userSpaceOnUse">
<stop stop-color="#EC796B"/>
<stop offset="1" stop-color="#E175B1"/>
</linearGradient>
<linearGradient id="paint2_linear_6706_22821" x1="177.438" y1="778.826" x2="-506.379" y2="314.903" gradientUnits="userSpaceOnUse">
<stop stop-color="#EC796B"/>
<stop offset="1" stop-color="#E175B1"/>
</linearGradient>
<clipPath id="clip0_6706_22821">
<rect width="348" height="1059" fill="white"/>
</clipPath>
</defs>
</svg>
