<svg width="260" height="260" viewBox="0 0 260 260" fill="none" xmlns="http://www.w3.org/2000/svg">
<path fill-rule="evenodd" clip-rule="evenodd" d="M64.1114 50.9324H37.5529V46.6831H64.1114V50.9324Z" fill="url(#paint0_linear_356_19)"/>
<path fill-rule="evenodd" clip-rule="evenodd" d="M223.462 50.9324H194.779V46.6831H223.462V50.9324Z" fill="url(#paint1_linear_356_19)"/>
<path fill-rule="evenodd" clip-rule="evenodd" d="M187.343 31.8104H71.5478V27.561H187.343V31.8104Z" fill="url(#paint2_linear_356_19)"/>
<path d="M29.9865 50.9324V122.058C29.9865 153.662 42.7768 182.97 64.1114 204.241V209.78C40.3592 187.594 26 156.115 26 122.058V50.9324H29.9865Z" fill="url(#paint3_linear_356_19)"/>
<path d="M87.6567 226.929L91.0304 224.23C97.6385 227.783 104.662 230.73 112.04 232.988L120.611 235.612C126.716 237.481 133.24 237.481 139.345 235.612L147.915 232.988C155.326 230.72 162.38 227.756 169.014 224.182L172.434 226.854C165.13 230.927 157.319 234.279 149.082 236.8L140.512 239.424C133.646 241.525 126.309 241.525 119.444 239.424L110.874 236.8C102.687 234.294 94.9216 230.968 87.6567 226.929Z" fill="url(#paint4_linear_356_19)"/>
<path d="M195.841 209.783C219.595 187.596 233.955 156.116 233.955 122.058V50.9324H229.969V122.058C229.969 153.664 217.178 182.972 195.841 204.243V209.783Z" fill="url(#paint5_linear_356_19)"/>
<path d="M191.592 37.1221H68.3607V41.1085H191.592V37.1221Z" fill="url(#paint6_linear_356_19)"/>
<path d="M195.841 41.1085H217.614C219.815 41.1085 221.6 42.8934 221.6 45.095V121.997C221.6 148.254 212.08 172.831 195.841 191.867V197.866C214.523 177.695 225.587 150.822 225.587 121.997V45.095C225.587 40.6917 222.017 37.1221 217.614 37.1221H195.841V41.1085Z" fill="url(#paint7_linear_356_19)"/>
<path d="M165.066 221.242L161.62 218.514C157.064 220.761 152.308 222.706 147.374 224.317L144.567 225.233C135.086 228.329 124.867 228.329 115.386 225.233L112.579 224.317C107.578 222.684 102.76 220.708 98.1468 218.422L94.7457 221.169C100.021 223.892 105.563 226.22 111.341 228.106L114.149 229.023C124.433 232.381 135.519 232.381 145.804 229.023L148.612 228.106C154.338 226.236 159.833 223.934 165.066 221.242Z" fill="url(#paint8_linear_356_19)"/>
<path d="M38.3524 121.997C38.3524 148.254 47.8725 172.831 64.1114 191.867V197.866C45.4299 177.695 34.3659 150.822 34.3659 121.997V45.0951C34.3659 40.6917 37.9356 37.1221 42.3389 37.1221H64.1114V41.1085H42.3389C40.1372 41.1085 38.3524 42.8934 38.3524 45.0951V121.997Z" fill="url(#paint9_linear_356_19)"/>
<path d="M78.9841 18C73.117 18 68.3607 22.7562 68.3607 28.6234V72.0568C69.7172 70.4566 71.1348 68.9099 72.6101 67.4204V28.6234C72.6101 25.1031 75.4638 22.2493 78.9841 22.2493H180.969C184.489 22.2493 187.343 25.1031 187.343 28.6234V67.4214C188.818 68.9109 190.236 70.4576 191.592 72.0579V28.6234C191.592 22.7562 186.836 18 180.969 18H78.9841Z" fill="url(#paint10_linear_356_19)"/>
<path d="M191.592 176.409C190.236 178.01 188.818 179.556 187.343 181.046V223.849C187.343 225.622 185.299 226.615 183.905 225.52L153.372 201.529C151.682 202.04 149.97 202.497 148.236 202.898L181.28 228.861C185.462 232.147 191.592 229.168 191.592 223.849V176.409Z" fill="url(#paint11_linear_356_19)"/>
<path d="M111.717 202.898C109.983 202.497 108.27 202.04 106.58 201.53L76.0474 225.52C74.6534 226.615 72.6101 225.622 72.6101 223.849V181.047C71.1348 179.557 69.7172 178.011 68.3607 176.41V223.849C68.3607 229.168 74.4906 232.147 78.6728 228.861L111.717 202.898Z" fill="url(#paint12_linear_356_19)"/>
<path d="M89.2054 193.936C90.532 194.714 91.8828 195.455 93.2564 196.157L71.7994 213.016L69.1741 209.675L89.2054 193.936Z" fill="url(#paint13_linear_356_19)"/>
<path d="M166.697 196.156C168.071 195.453 169.422 194.712 170.748 193.935L190.781 209.675L188.156 213.016L166.697 196.156Z" fill="url(#paint14_linear_356_19)"/>
<path fill-rule="evenodd" clip-rule="evenodd" d="M53.488 124.234C53.488 166.477 87.7321 200.722 129.975 200.722C172.218 200.722 206.465 166.477 206.465 124.234C206.465 81.9898 172.218 47.7454 129.975 47.7454C87.7321 47.7454 53.488 81.99 53.488 124.234ZM129.975 196.472C90.079 196.472 57.7374 164.13 57.7374 124.234C57.7374 84.3368 90.079 51.9948 129.975 51.9948C169.872 51.9948 202.215 84.3368 202.215 124.234C202.215 164.13 169.872 196.472 129.975 196.472Z" fill="url(#paint15_linear_356_19)"/>
<path d="M131.878 103.15C133.97 101.119 136.374 99.2367 139.041 97.6808C141.66 96.1532 144.652 95.0041 147.724 94.41L147.731 94.4087L147.737 94.4073C153.851 93.1996 160.04 94.6305 164.428 97.3722C166.833 98.8832 168.882 100.652 170.539 102.631C167.748 102.305 165.075 102.204 162.561 102.39C157.749 102.74 153.93 104.267 151.073 106.512C148.343 108.588 146.206 111.265 144.188 114.286L144.184 114.291C143.659 115.08 143.152 115.913 142.687 116.678L142.67 116.707L141.132 119.357L141.128 119.364C139.869 121.507 138.519 123.632 137.041 125.707L137.035 125.714C134.081 129.885 130.634 133.941 126.238 137.593C124.032 139.398 121.609 141.068 118.864 142.428L118.854 142.433L118.844 142.438C116.143 143.799 113.065 144.816 109.873 145.242L109.867 145.243C106.757 145.663 103.506 145.391 100.618 144.602C99.1945 144.197 97.8428 143.655 96.5694 143.029C95.3599 142.413 94.2295 141.668 93.0648 140.841C90.956 139.256 89.2279 137.389 87.727 135.34L87.7084 135.314L87.6892 135.289C87.5405 135.094 87.3953 134.895 87.2533 134.693C90.6227 135.227 94.707 135.361 100.395 133.862C105.782 132.443 109.998 129.361 113.465 125.873C116.484 122.837 119.082 119.331 121.394 116.212C121.701 115.797 122.004 115.389 122.301 114.99L122.305 114.985L126.368 109.586L128.937 106.311C129.933 105.18 130.868 104.136 131.878 103.15Z" fill="url(#paint16_linear_356_19)"/>
<path fill-rule="evenodd" clip-rule="evenodd" d="M129.977 185.423C96.1826 185.423 68.7873 158.028 68.7873 124.233C68.7873 90.4387 96.1826 63.0435 129.977 63.0435C163.772 63.0435 191.169 90.4387 191.169 124.233C191.169 158.028 163.772 185.423 129.977 185.423ZM106.154 106.502L103.979 113.222C103.678 114.152 102.36 114.142 102.074 113.207L99.9998 106.456C99.5779 105.084 98.5142 104.003 97.1499 103.561L90.427 101.385C89.4972 101.085 89.5073 99.7682 90.4421 99.4802L97.1954 97.4058C98.5673 96.9839 99.6461 95.9202 100.088 94.5559L102.264 87.8351C102.564 86.9054 103.883 86.9155 104.168 87.8478L106.243 94.6013C106.665 95.9733 107.728 97.0521 109.093 97.4943L115.816 99.6697C116.743 99.9703 116.735 101.289 115.8 101.575L109.047 103.652C107.675 104.071 106.596 105.135 106.154 106.502ZM177.213 107.241C175.161 102.065 171.349 97.7091 166.231 94.4945C161.145 91.3152 154.08 89.6927 147.079 91.0758C143.621 91.7446 140.27 93.0324 137.33 94.7473C134.403 96.4554 131.78 98.5115 129.509 100.717C128.375 101.824 127.346 102.978 126.324 104.139L123.675 107.517L119.583 112.955C119.277 113.365 118.969 113.779 118.66 114.197C113.695 120.892 108.208 128.292 99.5294 130.579C92.475 132.438 88.5344 131.564 84.5235 130.675C83.3887 130.424 82.2481 130.171 81.03 129.979C82.8586 135.052 85.6124 139.535 89.1479 143.633C92.7249 147.661 97.1914 151.331 102.929 153.745C108.584 156.212 115.691 157.098 122.336 155.762C128.998 154.479 134.845 151.396 139.571 147.831C144.309 144.229 148.142 140.126 151.374 135.86C152.266 134.682 152.738 134.022 153.383 133.101L155.167 130.458C155.79 129.637 156.385 128.758 156.978 127.882C157.566 127.014 158.153 126.148 158.764 125.342L159.136 124.816C161.416 121.6 163.685 118.4 166.299 115.439C167.687 113.856 169.149 112.341 170.877 110.886C171.738 110.175 172.669 109.48 173.7 108.854C174.746 108.178 175.852 107.649 177.213 107.241ZM162.932 159.112C157.653 159.112 153.372 154.83 153.372 149.551C153.372 144.272 157.653 139.99 162.932 139.99C168.21 139.99 172.486 144.272 172.486 149.551C172.486 154.83 168.21 159.112 162.932 159.112Z" fill="url(#paint17_linear_356_19)"/>
<defs>
<linearGradient id="paint0_linear_356_19" x1="-57.6031" y1="18" x2="329.418" y2="218.056" gradientUnits="userSpaceOnUse">
<stop stop-color="#81D2FF"/>
<stop offset="1" stop-color="#5B5F68"/>
</linearGradient>
<linearGradient id="paint1_linear_356_19" x1="-57.6031" y1="18" x2="329.418" y2="218.056" gradientUnits="userSpaceOnUse">
<stop stop-color="#81D2FF"/>
<stop offset="1" stop-color="#5B5F68"/>
</linearGradient>
<linearGradient id="paint2_linear_356_19" x1="-57.6031" y1="18" x2="329.418" y2="218.056" gradientUnits="userSpaceOnUse">
<stop stop-color="#81D2FF"/>
<stop offset="1" stop-color="#5B5F68"/>
</linearGradient>
<linearGradient id="paint3_linear_356_19" x1="-57.6031" y1="18" x2="329.418" y2="218.056" gradientUnits="userSpaceOnUse">
<stop stop-color="#81D2FF"/>
<stop offset="1" stop-color="#5B5F68"/>
</linearGradient>
<linearGradient id="paint4_linear_356_19" x1="-57.6031" y1="18" x2="329.418" y2="218.056" gradientUnits="userSpaceOnUse">
<stop stop-color="#81D2FF"/>
<stop offset="1" stop-color="#5B5F68"/>
</linearGradient>
<linearGradient id="paint5_linear_356_19" x1="-57.6031" y1="18" x2="329.418" y2="218.056" gradientUnits="userSpaceOnUse">
<stop stop-color="#81D2FF"/>
<stop offset="1" stop-color="#5B5F68"/>
</linearGradient>
<linearGradient id="paint6_linear_356_19" x1="-57.6031" y1="18" x2="329.418" y2="218.056" gradientUnits="userSpaceOnUse">
<stop stop-color="#81D2FF"/>
<stop offset="1" stop-color="#5B5F68"/>
</linearGradient>
<linearGradient id="paint7_linear_356_19" x1="-57.6031" y1="18" x2="329.418" y2="218.056" gradientUnits="userSpaceOnUse">
<stop stop-color="#81D2FF"/>
<stop offset="1" stop-color="#5B5F68"/>
</linearGradient>
<linearGradient id="paint8_linear_356_19" x1="-57.6031" y1="18" x2="329.418" y2="218.056" gradientUnits="userSpaceOnUse">
<stop stop-color="#81D2FF"/>
<stop offset="1" stop-color="#5B5F68"/>
</linearGradient>
<linearGradient id="paint9_linear_356_19" x1="-57.6031" y1="18" x2="329.418" y2="218.056" gradientUnits="userSpaceOnUse">
<stop stop-color="#81D2FF"/>
<stop offset="1" stop-color="#5B5F68"/>
</linearGradient>
<linearGradient id="paint10_linear_356_19" x1="-57.6031" y1="18" x2="329.418" y2="218.056" gradientUnits="userSpaceOnUse">
<stop stop-color="#81D2FF"/>
<stop offset="1" stop-color="#5B5F68"/>
</linearGradient>
<linearGradient id="paint11_linear_356_19" x1="-57.6031" y1="18" x2="329.418" y2="218.056" gradientUnits="userSpaceOnUse">
<stop stop-color="#81D2FF"/>
<stop offset="1" stop-color="#5B5F68"/>
</linearGradient>
<linearGradient id="paint12_linear_356_19" x1="-57.6031" y1="18" x2="329.418" y2="218.056" gradientUnits="userSpaceOnUse">
<stop stop-color="#81D2FF"/>
<stop offset="1" stop-color="#5B5F68"/>
</linearGradient>
<linearGradient id="paint13_linear_356_19" x1="-57.6031" y1="18" x2="329.418" y2="218.056" gradientUnits="userSpaceOnUse">
<stop stop-color="#81D2FF"/>
<stop offset="1" stop-color="#5B5F68"/>
</linearGradient>
<linearGradient id="paint14_linear_356_19" x1="-57.6031" y1="18" x2="329.418" y2="218.056" gradientUnits="userSpaceOnUse">
<stop stop-color="#81D2FF"/>
<stop offset="1" stop-color="#5B5F68"/>
</linearGradient>
<linearGradient id="paint15_linear_356_19" x1="-57.6031" y1="18" x2="329.418" y2="218.056" gradientUnits="userSpaceOnUse">
<stop stop-color="#81D2FF"/>
<stop offset="1" stop-color="#5B5F68"/>
</linearGradient>
<linearGradient id="paint16_linear_356_19" x1="-57.6031" y1="18" x2="329.418" y2="218.056" gradientUnits="userSpaceOnUse">
<stop stop-color="#81D2FF"/>
<stop offset="1" stop-color="#5B5F68"/>
</linearGradient>
<linearGradient id="paint17_linear_356_19" x1="-57.6031" y1="18" x2="329.418" y2="218.056" gradientUnits="userSpaceOnUse">
<stop stop-color="#81D2FF"/>
<stop offset="1" stop-color="#5B5F68"/>
</linearGradient>
</defs>
</svg>
