<svg xmlns="http://www.w3.org/2000/svg" xmlns:xlink="http://www.w3.org/1999/xlink" width="105px" height="105px" viewBox="0 0 105 105" version="1.1">
<defs>
<linearGradient id="linear0" gradientUnits="userSpaceOnUse" x1="-57.6031" y1="18" x2="329.418" y2="218.056" gradientTransform="matrix(0.403846,0,0,0.403846,0,0)">
<stop offset="0" stop-color="#E1B0A8"/>
<stop offset="1" stop-color="#D3A2E7"/>
</linearGradient>
<linearGradient id="linear1" gradientUnits="userSpaceOnUse" x1="-57.6031" y1="18" x2="329.418" y2="218.056" gradientTransform="matrix(0.403846,0,0,0.403846,0,0)">
<stop offset="0" stop-color="#E1B0A8"/>
<stop offset="1" stop-color="#D3A2E7"/>
</linearGradient>
<linearGradient id="linear2" gradientUnits="userSpaceOnUse" x1="-57.6031" y1="18" x2="329.418" y2="218.056" gradientTransform="matrix(0.403846,0,0,0.403846,0,0)">
<stop offset="0" stop-color="#E1B0A8"/>
<stop offset="1" stop-color="#D3A2E7"/>
</linearGradient>
<linearGradient id="linear3" gradientUnits="userSpaceOnUse" x1="-57.6031" y1="18" x2="329.418" y2="218.056" gradientTransform="matrix(0.403846,0,0,0.403846,0,0)">
<stop offset="0" stop-color="#E1B0A8"/>
<stop offset="1" stop-color="#D3A2E7"/>
</linearGradient>
<linearGradient id="linear4" gradientUnits="userSpaceOnUse" x1="-57.6031" y1="18" x2="329.418" y2="218.056" gradientTransform="matrix(0.403846,0,0,0.403846,0,0)">
<stop offset="0" stop-color="#E1B0A8"/>
<stop offset="1" stop-color="#D3A2E7"/>
</linearGradient>
<linearGradient id="linear5" gradientUnits="userSpaceOnUse" x1="-57.6031" y1="18" x2="329.418" y2="218.056" gradientTransform="matrix(0.403846,0,0,0.403846,0,0)">
<stop offset="0" stop-color="#E1B0A8"/>
<stop offset="1" stop-color="#D3A2E7"/>
</linearGradient>
<linearGradient id="linear6" gradientUnits="userSpaceOnUse" x1="-57.6031" y1="18" x2="329.418" y2="218.056" gradientTransform="matrix(0.403846,0,0,0.403846,0,0)">
<stop offset="0" stop-color="#E1B0A8"/>
<stop offset="1" stop-color="#D3A2E7"/>
</linearGradient>
<linearGradient id="linear7" gradientUnits="userSpaceOnUse" x1="-57.6031" y1="18" x2="329.418" y2="218.056" gradientTransform="matrix(0.403846,0,0,0.403846,0,0)">
<stop offset="0" stop-color="#E1B0A8"/>
<stop offset="1" stop-color="#D3A2E7"/>
</linearGradient>
<linearGradient id="linear8" gradientUnits="userSpaceOnUse" x1="-57.6031" y1="18" x2="329.418" y2="218.056" gradientTransform="matrix(0.403846,0,0,0.403846,0,0)">
<stop offset="0" stop-color="#E1B0A8"/>
<stop offset="1" stop-color="#D3A2E7"/>
</linearGradient>
<linearGradient id="linear9" gradientUnits="userSpaceOnUse" x1="-57.6031" y1="18" x2="329.418" y2="218.056" gradientTransform="matrix(0.403846,0,0,0.403846,0,0)">
<stop offset="0" stop-color="#E1B0A8"/>
<stop offset="1" stop-color="#D3A2E7"/>
</linearGradient>
<linearGradient id="linear10" gradientUnits="userSpaceOnUse" x1="-57.6031" y1="18" x2="329.418" y2="218.056" gradientTransform="matrix(0.403846,0,0,0.403846,0,0)">
<stop offset="0" stop-color="#E1B0A8"/>
<stop offset="1" stop-color="#D3A2E7"/>
</linearGradient>
<linearGradient id="linear11" gradientUnits="userSpaceOnUse" x1="-57.6031" y1="18" x2="329.418" y2="218.056" gradientTransform="matrix(0.403846,0,0,0.403846,0,0)">
<stop offset="0" stop-color="#E1B0A8"/>
<stop offset="1" stop-color="#D3A2E7"/>
</linearGradient>
<linearGradient id="linear12" gradientUnits="userSpaceOnUse" x1="-57.6031" y1="18" x2="329.418" y2="218.056" gradientTransform="matrix(0.403846,0,0,0.403846,0,0)">
<stop offset="0" stop-color="#E1B0A8"/>
<stop offset="1" stop-color="#D3A2E7"/>
</linearGradient>
<linearGradient id="linear13" gradientUnits="userSpaceOnUse" x1="-57.6031" y1="18" x2="329.418" y2="218.056" gradientTransform="matrix(0.403846,0,0,0.403846,0,0)">
<stop offset="0" stop-color="#E1B0A8"/>
<stop offset="1" stop-color="#D3A2E7"/>
</linearGradient>
<linearGradient id="linear14" gradientUnits="userSpaceOnUse" x1="-57.6031" y1="18" x2="329.418" y2="218.056" gradientTransform="matrix(0.403846,0,0,0.403846,0,0)">
<stop offset="0" stop-color="#E1B0A8"/>
<stop offset="1" stop-color="#D3A2E7"/>
</linearGradient>
<linearGradient id="linear15" gradientUnits="userSpaceOnUse" x1="-57.6031" y1="18" x2="329.418" y2="218.056" gradientTransform="matrix(0.403846,0,0,0.403846,0,0)">
<stop offset="0" stop-color="#E1B0A8"/>
<stop offset="1" stop-color="#D3A2E7"/>
</linearGradient>
<linearGradient id="linear16" gradientUnits="userSpaceOnUse" x1="-57.6031" y1="18" x2="329.418" y2="218.056" gradientTransform="matrix(0.403846,0,0,0.403846,0,0)">
<stop offset="0" stop-color="#E1B0A8"/>
<stop offset="1" stop-color="#D3A2E7"/>
</linearGradient>
<linearGradient id="linear17" gradientUnits="userSpaceOnUse" x1="-57.6031" y1="18" x2="329.418" y2="218.056" gradientTransform="matrix(0.403846,0,0,0.403846,0,0)">
<stop offset="0" stop-color="#E1B0A8"/>
<stop offset="1" stop-color="#D3A2E7"/>
</linearGradient>
</defs>
<g id="surface1">
<path style=" stroke:none;fill-rule:evenodd;fill:url(#linear0);" d="M 25.890625 20.570312 L 15.164062 20.570312 L 15.164062 18.851562 L 25.890625 18.851562 Z M 25.890625 20.570312 "/>
<path style=" stroke:none;fill-rule:evenodd;fill:url(#linear1);" d="M 90.246094 20.570312 L 78.660156 20.570312 L 78.660156 18.851562 L 90.246094 18.851562 Z M 90.246094 20.570312 "/>
<path style=" stroke:none;fill-rule:evenodd;fill:url(#linear2);" d="M 75.65625 12.847656 L 28.894531 12.847656 L 28.894531 11.128906 L 75.65625 11.128906 Z M 75.65625 12.847656 "/>
<path style=" stroke:none;fill-rule:nonzero;fill:url(#linear3);" d="M 12.109375 20.570312 L 12.109375 49.292969 C 12.109375 62.054688 17.273438 73.890625 25.890625 82.480469 L 25.890625 84.71875 C 16.300781 75.757812 10.5 63.046875 10.5 49.292969 L 10.5 20.570312 Z M 12.109375 20.570312 "/>
<path style=" stroke:none;fill-rule:nonzero;fill:url(#linear4);" d="M 35.398438 91.644531 L 36.761719 90.554688 C 39.429688 91.988281 42.265625 93.179688 45.246094 94.089844 L 48.707031 95.152344 C 51.171875 95.90625 53.808594 95.90625 56.273438 95.152344 L 59.734375 94.089844 C 62.726562 93.175781 65.578125 91.976562 68.253906 90.535156 L 69.636719 91.613281 C 66.6875 93.257812 63.53125 94.613281 60.207031 95.628906 L 56.746094 96.691406 C 53.972656 97.539062 51.007812 97.539062 48.238281 96.691406 L 44.777344 95.628906 C 41.46875 94.617188 38.332031 93.277344 35.398438 91.644531 Z M 35.398438 91.644531 "/>
<path style=" stroke:none;fill-rule:nonzero;fill:url(#linear5);" d="M 79.089844 84.71875 C 88.683594 75.761719 94.480469 63.046875 94.480469 49.292969 L 94.480469 20.570312 L 92.871094 20.570312 L 92.871094 49.292969 C 92.871094 62.054688 87.707031 73.890625 79.089844 82.484375 Z M 79.089844 84.71875 "/>
<path style=" stroke:none;fill-rule:nonzero;fill:url(#linear6);" d="M 77.375 14.992188 L 27.605469 14.992188 L 27.605469 16.601562 L 77.375 16.601562 Z M 77.375 14.992188 "/>
<path style=" stroke:none;fill-rule:nonzero;fill:url(#linear7);" d="M 79.089844 16.601562 L 87.882812 16.601562 C 88.769531 16.601562 89.492188 17.324219 89.492188 18.210938 L 89.492188 49.269531 C 89.492188 59.871094 85.648438 69.796875 79.089844 77.484375 L 79.089844 79.90625 C 86.632812 71.761719 91.101562 60.910156 91.101562 49.269531 L 91.101562 18.210938 C 91.101562 16.433594 89.660156 14.992188 87.882812 14.992188 L 79.089844 14.992188 Z M 79.089844 16.601562 "/>
<path style=" stroke:none;fill-rule:nonzero;fill:url(#linear8);" d="M 66.660156 89.347656 L 65.269531 88.246094 C 63.429688 89.152344 61.507812 89.9375 59.515625 90.589844 L 58.382812 90.960938 C 54.554688 92.210938 50.425781 92.210938 46.597656 90.960938 L 45.464844 90.589844 C 43.445312 89.929688 41.5 89.132812 39.636719 88.207031 L 38.261719 89.316406 C 40.394531 90.417969 42.632812 91.359375 44.964844 92.121094 L 46.097656 92.488281 C 50.25 93.847656 54.730469 93.847656 58.882812 92.488281 L 60.015625 92.121094 C 62.328125 91.363281 64.546875 90.433594 66.660156 89.347656 Z M 66.660156 89.347656 "/>
<path style=" stroke:none;fill-rule:nonzero;fill:url(#linear9);" d="M 15.488281 49.269531 C 15.488281 59.871094 19.332031 69.796875 25.890625 77.484375 L 25.890625 79.90625 C 18.347656 71.761719 13.878906 60.910156 13.878906 49.269531 L 13.878906 18.210938 C 13.878906 16.433594 15.320312 14.992188 17.097656 14.992188 L 25.890625 14.992188 L 25.890625 16.601562 L 17.097656 16.601562 C 16.210938 16.601562 15.488281 17.324219 15.488281 18.210938 Z M 15.488281 49.269531 "/>
<path style=" stroke:none;fill-rule:nonzero;fill:url(#linear10);" d="M 31.898438 7.269531 C 29.527344 7.269531 27.605469 9.191406 27.605469 11.558594 L 27.605469 29.101562 C 28.15625 28.453125 28.726562 27.828125 29.324219 27.226562 L 29.324219 11.558594 C 29.324219 10.136719 30.476562 8.984375 31.898438 8.984375 L 73.082031 8.984375 C 74.503906 8.984375 75.65625 10.136719 75.65625 11.558594 L 75.65625 27.226562 C 76.253906 27.828125 76.824219 28.453125 77.375 29.101562 L 77.375 11.558594 C 77.375 9.191406 75.453125 7.269531 73.082031 7.269531 Z M 31.898438 7.269531 "/>
<path style=" stroke:none;fill-rule:nonzero;fill:url(#linear11);" d="M 77.375 71.242188 C 76.824219 71.886719 76.253906 72.511719 75.65625 73.113281 L 75.65625 90.402344 C 75.65625 91.117188 74.832031 91.519531 74.269531 91.074219 L 61.9375 81.386719 C 61.257812 81.59375 60.566406 81.777344 59.863281 81.941406 L 73.210938 92.425781 C 74.898438 93.75 77.375 92.546875 77.375 90.402344 Z M 77.375 71.242188 "/>
<path style=" stroke:none;fill-rule:nonzero;fill:url(#linear12);" d="M 45.117188 81.941406 C 44.417969 81.777344 43.722656 81.59375 43.042969 81.386719 L 30.710938 91.074219 C 30.148438 91.519531 29.324219 91.117188 29.324219 90.402344 L 29.324219 73.113281 C 28.726562 72.511719 28.15625 71.890625 27.605469 71.242188 L 27.605469 90.402344 C 27.605469 92.546875 30.082031 93.75 31.773438 92.425781 Z M 45.117188 81.941406 "/>
<path style=" stroke:none;fill-rule:nonzero;fill:url(#linear13);" d="M 36.023438 78.320312 C 36.5625 78.632812 37.105469 78.933594 37.660156 79.21875 L 28.996094 86.027344 L 27.9375 84.675781 Z M 36.023438 78.320312 "/>
<path style=" stroke:none;fill-rule:nonzero;fill:url(#linear14);" d="M 67.320312 79.21875 C 67.875 78.933594 68.421875 78.632812 68.957031 78.320312 L 77.046875 84.675781 L 75.984375 86.027344 Z M 67.320312 79.21875 "/>
<path style=" stroke:none;fill-rule:evenodd;fill:url(#linear15);" d="M 21.601562 50.171875 C 21.601562 67.230469 35.429688 81.0625 52.488281 81.0625 C 69.550781 81.0625 83.378906 67.230469 83.378906 50.171875 C 83.378906 33.109375 69.550781 19.28125 52.488281 19.28125 C 35.429688 19.28125 21.601562 33.113281 21.601562 50.171875 Z M 52.488281 79.34375 C 36.378906 79.34375 23.316406 66.285156 23.316406 50.171875 C 23.316406 34.058594 36.378906 20.996094 52.488281 20.996094 C 68.601562 20.996094 81.664062 34.058594 81.664062 50.171875 C 81.664062 66.285156 68.601562 79.34375 52.488281 79.34375 Z M 52.488281 79.34375 "/>
<path style=" stroke:none;fill-rule:nonzero;fill:url(#linear16);" d="M 53.257812 41.65625 C 54.101562 40.835938 55.074219 40.078125 56.152344 39.449219 C 57.207031 38.832031 58.417969 38.367188 59.65625 38.128906 L 59.660156 38.125 L 59.664062 38.125 C 62.132812 37.636719 64.632812 38.214844 66.402344 39.324219 C 67.375 39.933594 68.203125 40.648438 68.871094 41.445312 C 67.746094 41.316406 66.664062 41.273438 65.648438 41.351562 C 63.707031 41.492188 62.164062 42.109375 61.011719 43.015625 C 59.90625 43.851562 59.042969 44.933594 58.230469 46.152344 L 58.226562 46.15625 C 58.015625 46.476562 57.8125 46.8125 57.625 47.121094 L 57.617188 47.132812 L 56.996094 48.203125 L 56.992188 48.203125 C 56.484375 49.070312 55.941406 49.929688 55.34375 50.765625 L 55.339844 50.769531 C 54.148438 52.453125 52.757812 54.089844 50.980469 55.566406 C 50.089844 56.296875 49.109375 56.96875 48.003906 57.519531 L 48 57.519531 L 47.996094 57.523438 C 46.902344 58.074219 45.660156 58.484375 44.371094 58.65625 C 43.113281 58.824219 41.800781 58.714844 40.632812 58.398438 C 40.058594 58.234375 39.511719 58.015625 39 57.761719 C 38.511719 57.511719 38.054688 57.210938 37.582031 56.878906 C 36.730469 56.238281 36.035156 55.484375 35.429688 54.65625 L 35.421875 54.644531 L 35.414062 54.636719 C 35.351562 54.558594 35.292969 54.476562 35.238281 54.394531 C 36.597656 54.609375 38.246094 54.664062 40.542969 54.058594 C 42.71875 53.488281 44.421875 52.242188 45.824219 50.832031 C 47.042969 49.605469 48.089844 48.191406 49.023438 46.933594 C 49.148438 46.765625 49.269531 46.597656 49.390625 46.4375 L 51.035156 44.257812 L 52.070312 42.933594 C 52.472656 42.476562 52.851562 42.054688 53.257812 41.65625 Z M 53.257812 41.65625 "/>
<path style=" stroke:none;fill-rule:evenodd;fill:url(#linear17);" d="M 52.492188 74.882812 C 38.84375 74.882812 27.78125 63.820312 27.78125 50.171875 C 27.78125 36.523438 38.84375 25.460938 52.492188 25.460938 C 66.140625 25.460938 77.203125 36.523438 77.203125 50.171875 C 77.203125 63.820312 66.140625 74.882812 52.492188 74.882812 Z M 42.871094 43.011719 L 41.992188 45.722656 C 41.871094 46.101562 41.335938 46.097656 41.222656 45.71875 L 40.382812 42.992188 C 40.214844 42.4375 39.785156 42 39.234375 41.824219 L 36.519531 40.945312 C 36.144531 40.824219 36.148438 40.289062 36.523438 40.175781 L 39.253906 39.335938 C 39.804688 39.167969 40.242188 38.738281 40.421875 38.1875 L 41.300781 35.472656 C 41.421875 35.097656 41.953125 35.101562 42.066406 35.476562 L 42.90625 38.203125 C 43.078125 38.757812 43.503906 39.195312 44.058594 39.371094 L 46.773438 40.25 C 47.144531 40.371094 47.144531 40.90625 46.765625 41.019531 L 44.039062 41.859375 C 43.484375 42.027344 43.046875 42.457031 42.871094 43.011719 Z M 71.566406 43.308594 C 70.738281 41.21875 69.199219 39.460938 67.132812 38.160156 C 65.078125 36.878906 62.226562 36.222656 59.398438 36.78125 C 58 37.050781 56.648438 37.570312 55.460938 38.261719 C 54.277344 38.953125 53.21875 39.785156 52.300781 40.675781 C 51.84375 41.121094 51.429688 41.585938 51.015625 42.054688 L 49.945312 43.421875 L 48.292969 45.617188 C 48.167969 45.78125 48.046875 45.949219 47.921875 46.117188 C 45.914062 48.820312 43.699219 51.808594 40.195312 52.734375 C 37.34375 53.484375 35.753906 53.132812 34.132812 52.773438 C 33.675781 52.671875 33.214844 52.570312 32.722656 52.492188 C 33.460938 54.539062 34.574219 56.351562 36.003906 58.003906 C 37.445312 59.632812 39.25 61.113281 41.566406 62.089844 C 43.851562 63.085938 46.722656 63.445312 49.40625 62.902344 C 52.09375 62.386719 54.457031 61.140625 56.363281 59.699219 C 58.277344 58.246094 59.828125 56.589844 61.132812 54.867188 C 61.492188 54.390625 61.683594 54.125 61.941406 53.753906 L 62.664062 52.683594 C 62.914062 52.351562 63.15625 52 63.394531 51.644531 C 63.632812 51.292969 63.871094 50.945312 64.117188 50.617188 L 64.265625 50.40625 C 65.1875 49.109375 66.105469 47.816406 67.160156 46.621094 C 67.71875 45.980469 68.308594 45.367188 69.007812 44.78125 C 69.355469 44.492188 69.730469 44.214844 70.148438 43.960938 C 70.570312 43.6875 71.015625 43.472656 71.566406 43.308594 Z M 65.800781 64.257812 C 63.667969 64.257812 61.9375 62.527344 61.9375 60.394531 C 61.9375 58.265625 63.667969 56.535156 65.800781 56.535156 C 67.929688 56.535156 69.65625 58.265625 69.65625 60.394531 C 69.65625 62.527344 67.929688 64.257812 65.800781 64.257812 Z M 65.800781 64.257812 "/>
</g>
</svg>
