<svg width="61" height="60" viewBox="0 0 61 60" fill="none" xmlns="http://www.w3.org/2000/svg">
<g id="basecamp">
<g id="Color">
<path fill-rule="evenodd" clip-rule="evenodd" d="M56.4101 9.01359C56.4101 6.2022 54.1308 3.9231 51.3196 3.9231C48.7679 3.9231 46.6547 5.80084 46.2858 8.25002H45.211V9.26812H46.2356C46.3678 11.9613 48.5934 14.1041 51.3196 14.1041C54.1308 14.1041 56.4101 11.825 56.4101 9.01359ZM51.3196 4.9412C53.5686 4.9412 55.392 6.76444 55.392 9.01359C55.392 11.2627 53.5686 13.086 51.3196 13.086C49.0707 13.086 47.2472 11.2627 47.2472 9.01359C47.2472 6.76444 49.0707 4.9412 51.3196 4.9412Z" fill="#E8E8F7"/>
<path d="M32.8949 32.4299C33.0157 32.0909 33.133 31.7514 33.2464 31.4118H38.574V32.4299H32.8949Z" fill="#E8E8F7"/>
<path fill-rule="evenodd" clip-rule="evenodd" d="M28.8782 41.4194C28.8026 41.563 28.7266 41.7056 28.6505 41.8473H30.036C30.375 43.1646 31.5706 44.138 32.9938 44.138C34.4171 44.138 35.6127 43.1646 35.9517 41.8473H38.9593V40.8292H36.0377C35.9085 39.2614 34.5951 38.0294 32.9938 38.0294C31.3926 38.0294 30.0792 39.2614 29.95 40.8292H29.1869C29.084 41.0276 28.9811 41.2244 28.8782 41.4194ZM35.03 41.0837C35.03 39.9592 34.1183 39.0475 32.9938 39.0475C31.8694 39.0475 30.9576 39.9592 30.9576 41.0837C30.9576 42.2083 31.8694 43.1199 32.9938 43.1199C34.1183 43.1199 35.03 42.2083 35.03 41.0837Z" fill="#E8E8F7"/>
<path d="M19.2495 55.8462C21.5198 55.8462 23.4039 54.1951 23.7678 52.0283H26.5581V51.0102H23.824C23.8126 50.7989 23.7867 50.5914 23.7474 50.3887L23.7276 50.2925C23.7156 50.2362 23.7022 50.1804 23.6883 50.1249C23.6754 50.0739 23.6614 50.0232 23.6465 49.9729C23.0336 50.8223 22.4679 51.5429 21.9861 52.0809C21.7257 52.3722 21.4498 52.6555 21.1748 52.8827C21.0391 52.995 20.8587 53.1317 20.6449 53.2498L20.5694 53.2904C20.366 53.3944 19.9882 53.5554 19.504 53.5554C18.9547 53.5554 18.5416 53.3475 18.3731 53.2561C18.1613 53.1409 17.9814 53.0075 17.8446 52.897C17.692 52.7734 17.5379 52.6325 17.3853 52.4823C17.262 52.3607 17.1397 52.233 17.0199 52.1032C16.4756 51.5124 15.8219 50.6989 15.111 49.7336L14.9917 49.5705C14.7829 50.0946 14.6681 50.6663 14.6681 51.2647C14.6681 53.7949 16.7192 55.8462 19.2495 55.8462Z" fill="#E8E8F7"/>
<path d="M38.0968 10.4052C39.005 9.69266 40.1489 9.26812 41.3932 9.26812H44.1929V8.25002H41.3932C39.9132 8.25002 38.5496 8.75602 37.4684 9.60417L38.0968 10.4052Z" fill="#E8E8F7"/>
<path d="M37.1851 11.3169C36.4727 12.2251 36.0481 13.3688 36.0481 14.6131C36.0481 15.8575 36.4727 17.0012 37.1851 17.9094L36.3842 18.5378C35.5361 17.4567 35.03 16.0933 35.03 14.6131C35.03 13.133 35.5361 11.7696 36.3842 10.6885L37.1851 11.3169Z" fill="#E8E8F7"/>
<path fill-rule="evenodd" clip-rule="evenodd" d="M41.3932 19.9582C40.1489 19.9582 39.005 19.5336 38.0968 18.8211L37.4684 19.6221C38.5496 20.4703 39.9132 20.9763 41.3932 20.9763H41.7441C42.0832 22.2936 43.2787 23.267 44.702 23.267C46.1252 23.267 47.3208 22.2936 47.6599 20.9763H49.4107C50.6252 20.9763 51.7417 21.3907 52.6286 22.0863L53.2569 21.2853C52.1976 20.4541 50.8613 19.9582 49.4107 19.9582H47.7459C47.6166 18.3904 46.3032 17.1584 44.702 17.1584C43.1008 17.1584 41.7874 18.3904 41.6581 19.9582H41.3932ZM44.702 18.1765C45.8265 18.1765 46.7382 19.0881 46.7382 20.2127C46.7382 21.3372 45.8265 22.2489 44.702 22.2489C43.5775 22.2489 42.6658 21.3372 42.6658 20.2127C42.6658 19.0881 43.5775 18.1765 44.702 18.1765Z" fill="#E8E8F7"/>
<path d="M54.3193 22.3479C55.1509 23.4074 55.6466 24.7435 55.6466 26.194C55.6466 27.6446 55.1509 28.9807 54.3193 30.0402L53.5184 29.4117C54.2139 28.5252 54.6285 27.4087 54.6285 26.194C54.6285 24.9793 54.2139 23.8628 53.5184 22.9763L54.3193 22.3479Z" fill="#E8E8F7"/>
<path fill-rule="evenodd" clip-rule="evenodd" d="M49.4107 32.4299C50.8613 32.4299 52.1976 31.9339 53.2569 31.1028L52.6286 30.3018C51.7417 30.9973 50.6252 31.4118 49.4107 31.4118H49.2412C48.9991 29.9673 47.7424 28.8665 46.2291 28.8665C44.7159 28.8665 43.4592 29.9673 43.2171 31.4118H39.6309V32.4299H43.2171C43.4592 33.8744 44.7159 34.9751 46.2291 34.9751C47.7424 34.9751 48.9991 33.8744 49.2412 32.4299H49.4107ZM46.2291 29.8846C47.3536 29.8846 48.2653 30.7963 48.2653 31.9208C48.2653 33.0454 47.3536 33.957 46.2291 33.957C45.1047 33.957 44.1929 33.0454 44.1929 31.9208C44.1929 30.7963 45.1047 29.8846 46.2291 29.8846Z" fill="#E8E8F7"/>
<path d="M40.041 40.8292H45.9905V41.8473H40.041V40.8292Z" fill="#E8E8F7"/>
<path d="M50.047 40.8292H47.0723V41.8473H50.047C51.1138 41.8473 52.0937 42.2112 52.8721 42.8219L53.5005 42.0209C52.5495 41.2745 51.3495 40.8292 50.047 40.8292Z" fill="#E8E8F7"/>
<path d="M54.455 42.9751C55.2011 43.9264 55.6466 45.1262 55.6466 46.4288C55.6466 47.7313 55.2011 48.9311 54.455 49.8824L53.6541 49.254C54.2646 48.4756 54.6285 47.4954 54.6285 46.4288C54.6285 45.3621 54.2646 44.3819 53.6541 43.6035L54.455 42.9751Z" fill="#E8E8F7"/>
<path d="M50.047 52.0283C51.3495 52.0283 52.5495 51.583 53.5005 50.8366L52.8721 50.0356C52.0937 50.6463 51.1138 51.0102 50.047 51.0102H47.2686V52.0283H50.047Z" fill="#E8E8F7"/>
<path d="M33.1251 52.0283H27.5688V51.0102H33.1251V52.0283Z" fill="#E8E8F7"/>
<path fill-rule="evenodd" clip-rule="evenodd" d="M37.1627 51.0102C37.5017 49.6929 38.6973 48.7195 40.1205 48.7195C41.5438 48.7195 42.7394 49.6929 43.0784 51.0102H46.2585V52.0283H43.1644C43.0352 53.5961 41.7218 54.8281 40.1205 54.8281C38.5193 54.8281 37.2059 53.5961 37.0767 52.0283H34.1352V51.0102H37.1627ZM40.1205 49.7376C41.245 49.7376 42.1567 50.6492 42.1567 51.7738C42.1567 52.8983 41.245 53.81 40.1205 53.81C38.9961 53.81 38.0843 52.8983 38.0843 51.7738C38.0843 50.6492 38.9961 49.7376 40.1205 49.7376Z" fill="#E8E8F7"/>
<path fill-rule="evenodd" clip-rule="evenodd" d="M19.2495 33.448C25.4347 33.448 30.4486 28.434 30.4486 22.2489C30.4486 16.0638 25.4347 11.0498 19.2495 11.0498C13.0644 11.0498 8.05041 16.0638 8.05041 22.2489C8.05041 28.434 13.0644 33.448 19.2495 33.448ZM17.5513 26.3686L23.8523 20.2528L22.789 19.157L17.5513 24.2403L15.1985 21.9568L14.1351 23.0526L17.5513 26.3686Z" fill="#E8E8F7"/>
<path fill-rule="evenodd" clip-rule="evenodd" d="M19.504 52.5373C19.8018 52.5373 20.0354 52.4233 20.1528 52.3585C20.291 52.2823 20.4172 52.1884 20.5256 52.0985C20.7443 51.9176 20.982 51.6765 21.2275 51.4021C21.7232 50.8479 22.3326 50.066 23.0077 49.1162C24.3614 47.2115 26.0277 44.5652 27.6483 41.5611C30.8627 35.602 34.0119 28.0277 34.0119 21.9944C34.0119 13.9337 26.9583 7.48644 18.995 7.48644C10.9824 7.48644 4.48706 13.9819 4.48706 21.9944C4.48706 28.0385 7.77252 35.6191 11.1137 41.5758C12.7984 44.5802 14.5289 47.2261 15.9307 49.13C16.6302 50.0796 17.259 50.8604 17.7686 51.4132C18.0211 51.687 18.2637 51.9265 18.4854 52.1057C18.5953 52.1946 18.7221 52.2869 18.8598 52.3617C18.9751 52.4246 19.2082 52.5373 19.504 52.5373ZM32.9938 21.9944C32.9938 33.517 20.8458 51.5192 19.504 51.5192C18.1623 51.5192 5.50516 33.517 5.50516 21.9944C5.50516 14.5442 11.5447 8.50454 18.995 8.50454C26.4453 8.50454 32.9938 14.5442 32.9938 21.9944Z" fill="#E8E8F7"/>
</g>
</g>
</svg>
