<svg width="192" height="240" viewBox="0 0 192 240" fill="none" xmlns="http://www.w3.org/2000/svg">
<path d="M191.637 146.694C190.84 170.605 181.192 193.367 164.563 210.568C147.934 227.768 125.51 238.179 101.639 239.783C77.769 241.386 54.1538 234.067 35.3738 219.246C16.5939 204.424 3.98761 183.157 0 159.567H25.3028C27.376 159.559 29.4029 160.18 31.1163 161.347C32.8297 162.515 34.1492 164.174 34.9009 166.106C38.6753 176.187 44.9187 185.16 53.0592 192.203C61.1996 199.246 70.977 204.134 81.496 206.42C92.015 208.706 102.939 208.316 113.269 205.286C123.598 202.256 133.002 196.683 140.619 189.078C148.237 181.472 153.825 172.077 156.871 161.753C159.917 151.428 160.325 140.505 158.056 129.982C155.787 119.459 150.914 109.674 143.884 101.523C136.854 93.3709 127.891 87.1132 117.816 83.3227C115.862 82.5677 114.184 81.2358 113.006 79.5043C111.827 77.7727 111.203 75.7233 111.217 73.6287V48.2659C134.265 52.1592 155.118 64.2807 169.906 82.3813C184.695 100.482 192.416 123.333 191.637 146.694V146.694Z" fill="black"/>
<path d="M95.1993 181.715C116.37 181.715 133.532 164.553 133.532 143.382C133.532 122.212 116.37 105.05 95.1993 105.05C74.0291 105.05 56.8672 122.212 56.8672 143.382C56.8672 164.553 74.0291 181.715 95.1993 181.715Z" fill="#574B90"/>
<path d="M0 125.866V21.6676C0.00317877 15.9219 2.28703 10.4126 6.34979 6.34979C10.4126 2.28703 15.9219 0.00317877 21.6676 0C24.3905 0.00632315 27.0002 1.08998 28.9267 3.01424C30.8533 4.93851 31.94 7.547 31.9495 10.2699V70.5216C45.3127 58.9034 61.6252 51.2018 79.0878 48.2661V73.5929C79.0717 75.7128 78.4113 77.7777 77.1941 79.5134C75.977 81.2491 74.2608 82.5735 72.2732 83.311C64.0068 86.4667 56.4789 91.2911 50.1585 97.4834C43.8382 103.676 38.8609 111.103 35.5367 119.304C34.7989 121.147 33.5502 122.741 31.9375 123.899C30.1982 125.178 28.0975 125.871 25.9387 125.878L0 125.866Z" fill="#574B90"/>
</svg>
