<svg width="130" height="130" viewBox="0 0 130 130" fill="none" xmlns="http://www.w3.org/2000/svg">
<path fill-rule="evenodd" clip-rule="evenodd" d="M61.1284 8.78166C64.0883 7.07278 67.735 7.07278 70.6949 8.78166L86.627 17.9801C88.91 19.2982 90.5169 21.4785 91.1324 23.9751C92.2285 24.1637 93.2993 24.5447 94.2927 25.1183L110.225 34.3167C113.185 36.0255 115.008 39.1837 115.008 42.6015V60.9983C115.008 62.3886 114.706 63.7359 114.149 64.9602C114.706 66.1845 115.008 67.5319 115.008 68.9222V87.319C115.008 90.7368 113.185 93.8949 110.225 95.6038L94.2927 104.802C93.0179 105.538 91.6157 105.957 90.1959 106.059C89.5601 108.508 87.9676 110.642 85.7193 111.94L69.7872 121.139C66.8273 122.848 63.1806 122.848 60.2208 121.139L44.2887 111.94C41.762 110.482 40.0635 107.967 39.6205 105.136C38.2663 105.011 36.9327 104.597 35.7153 103.895L19.7832 94.6962C16.8234 92.9873 15 89.8291 15 86.4114V68.0146C15 66.794 15.2325 65.6066 15.6663 64.5064C15.2325 63.4063 15 62.2188 15 60.9983V42.6015C15 39.1837 16.8234 36.0255 19.7832 34.3167L35.7153 25.1183C37.263 24.2247 38.9986 23.7984 40.7255 23.8393C41.3651 21.3995 42.9548 19.2742 45.1963 17.9801L61.1284 8.78166ZM85.4949 19.9409C87.0364 20.8309 88.1741 22.2359 88.7414 23.8674C87.3495 23.9794 85.9766 24.3964 84.7262 25.1183L73.8452 31.4004C72.3855 28.4309 69.3304 26.3871 65.798 26.3871C61.9822 26.3871 58.7234 28.772 57.4309 32.1325L45.2818 25.1183C44.5513 24.6965 43.779 24.3789 42.9854 24.1653C43.5133 22.4074 44.6938 20.8846 46.3284 19.9409L62.2605 10.7425C64.5198 9.43804 67.3035 9.43804 69.5628 10.7425L85.4949 19.9409ZM56.8829 34.4306L44.1497 27.0791C43.6785 26.807 43.1845 26.5917 42.6773 26.4332V43.0197C44.5768 43.521 46.2294 44.6303 47.4143 46.1268L58.1081 39.9528C57.3007 38.6072 56.8365 37.0321 56.8365 35.3486C56.8365 35.0387 56.8522 34.7324 56.8829 34.4306ZM59.5254 41.7489L48.5848 48.0655C49.0741 49.1724 49.3459 50.3971 49.3459 51.6852C49.3459 52.0267 49.3268 52.3637 49.2896 52.6953L59.1712 58.4004C60.443 57.345 62.0115 56.6345 63.7329 56.4125V44.071C62.1178 43.6901 60.6714 42.8722 59.5254 41.7489ZM71.3892 59.1295C70.057 57.7268 68.2754 56.755 66.2751 56.4448V44.2977C68.231 44.1951 70.0208 43.4653 71.4471 42.3058L81.2424 47.9611C80.7235 49.0952 80.4343 50.3565 80.4343 51.6852C80.4343 52.4019 80.5184 53.099 80.6774 53.767L71.3892 59.1295ZM73.008 69.1015C73.5494 67.9474 73.8519 66.659 73.8519 65.3C73.8519 63.731 73.4487 62.2562 72.7402 60.9735L81.4954 55.9188C82.8332 58.4102 85.3151 60.1957 88.2384 60.5727V69.1185C85.2467 69.5043 82.7172 71.3654 81.4033 73.9485L73.008 69.1015ZM66.2751 74.1552C68.323 73.8375 70.1417 72.8264 71.4836 71.3695L80.5439 76.6004C80.4717 77.0583 80.4343 77.5278 80.4343 78.006C80.4343 79.6865 80.8969 81.2589 81.7016 82.603L71.6188 88.4243C70.2651 86.8867 68.3926 85.8169 66.2751 85.4885V74.1552ZM58.3767 71.4547C59.7606 72.9189 61.6329 73.9166 63.7329 74.1874V85.4562C61.5625 85.7361 59.6354 86.7924 58.2392 88.3377L47.7113 82.2595C48.741 80.8003 49.3459 79.02 49.3459 77.0983C49.3459 76.9562 49.3426 76.8148 49.336 76.6743L58.3767 71.4547ZM57.5147 60.2085C56.5147 61.6544 55.9288 63.4088 55.9288 65.3C55.9288 66.6996 56.2497 68.0242 56.8218 69.2044L48.7457 73.8671C47.6095 70.9291 44.9694 68.7397 41.7696 68.2432V60.5403C44.9014 60.0544 47.4971 57.9467 48.6712 55.1027L57.5147 60.2085ZM73.0488 40.6161L82.438 46.0369C84.0322 44.0755 86.4393 42.8012 89.146 42.7271V26.2649C89.146 26.2131 89.1455 26.1615 89.1444 26.1099C88.0065 26.1668 86.8789 26.4898 85.8583 27.0791L74.5864 33.5869C74.7 34.1565 74.7595 34.7456 74.7595 35.3486C74.7595 37.3172 74.1248 39.1375 73.0488 40.6161ZM98.3573 51.6852C98.3573 47.4285 95.3895 43.865 91.4102 42.951V26.3523C92.015 26.5153 92.6037 26.7576 93.1606 27.0791L109.093 36.2775C111.352 37.5819 112.744 39.9926 112.744 42.6015V60.9983C112.744 61.5262 112.687 62.046 112.577 62.5502C111.909 61.8022 111.119 61.1537 110.225 60.6374L98.1391 53.6597C98.282 53.0245 98.3573 52.3636 98.3573 51.6852ZM90.5025 60.5791C93.487 60.2115 96.0173 58.3766 97.3494 55.8182L109.093 62.5982C110.114 63.1876 110.957 64.0029 111.576 64.9602C110.957 65.9176 110.114 66.7328 109.093 67.3222L97.4393 74.0503C96.1333 71.3996 93.5556 69.4881 90.5025 69.1121V60.5791ZM46.1406 83.967L56.9409 90.2026C56.2944 91.4412 55.9288 92.8497 55.9288 94.3437C55.9288 94.6032 55.9399 94.8602 55.9615 95.1142L44.1497 101.934C43.4012 102.366 42.5951 102.655 41.7696 102.801V85.9534C43.4182 85.6976 44.9183 84.9924 46.1406 83.967ZM45.2818 103.895L56.4752 97.432C57.7335 100.86 61.0264 103.305 64.8904 103.305C68.5141 103.305 71.6356 101.154 73.0476 98.0595L84.7262 104.802C85.715 105.373 86.7803 105.753 87.8711 105.943C87.3174 107.621 86.1634 109.07 84.5872 109.98L68.6551 119.178C66.3958 120.482 63.6122 120.482 61.3528 119.178L45.4208 109.98C43.5777 108.916 42.312 107.115 41.9081 105.072C43.0786 104.898 44.224 104.505 45.2818 103.895ZM85.8583 102.841L73.7279 95.8379C73.8094 95.352 73.8519 94.8528 73.8519 94.3437C73.8519 92.8903 73.5059 91.5177 72.8918 90.3038L83.1171 84.4002C84.4747 85.7334 86.2549 86.6377 88.2384 86.8934V103.656L88.2382 103.708C87.4128 103.562 86.6068 103.274 85.8583 102.841ZM90.5025 86.8998V103.656C90.5025 103.688 90.5024 103.72 90.5021 103.752C91.4245 103.626 92.3281 103.322 93.1606 102.841L109.093 93.643C111.352 92.3385 112.744 89.9279 112.744 87.319V68.9222C112.744 68.3943 112.687 67.8745 112.577 67.3703C111.909 68.1183 111.119 68.7668 110.225 69.283L98.1825 76.2356C98.2972 76.8079 98.3573 77.3999 98.3573 78.006C98.3573 82.5806 94.9297 86.3546 90.5025 86.8998ZM31.4228 77.0983C31.4228 81.7511 34.9686 85.5757 39.5055 86.0173V102.844C38.5832 102.718 37.6797 102.414 36.8474 101.934L20.9153 92.7353C18.656 91.4309 17.2642 89.0202 17.2642 86.4114V68.0146C17.2642 67.7501 17.2785 67.4877 17.3065 67.2283C17.9998 68.0363 18.8329 68.7344 19.7832 69.283L31.4848 76.0389C31.4439 76.3864 31.4228 76.7399 31.4228 77.0983ZM39.5055 68.1793C36.1193 68.509 33.2851 70.7232 32.0654 73.7597L20.9153 67.3222C19.7366 66.6417 18.7941 65.6601 18.162 64.5064C18.7941 63.3527 19.7366 62.3711 20.9153 61.6906L32.1421 55.2088C33.4011 58.15 36.1884 60.2813 39.5055 60.6042V68.1793ZM40.4131 42.7237V26.2649C40.4131 26.2102 40.4136 26.1557 40.4145 26.1012C39.1818 26.1154 37.952 26.4414 36.8474 27.0791L20.9153 36.2775C18.656 37.5819 17.2642 39.9926 17.2642 42.6015V60.9983C17.2642 61.2627 17.2785 61.5251 17.3065 61.7845C17.9998 60.9765 18.8329 60.2784 19.7832 59.7298L31.5125 52.9579C31.4534 52.5422 31.4228 52.1173 31.4228 51.6852C31.4228 46.7359 35.435 42.7237 40.3844 42.7237L40.4131 42.7237ZM33.687 51.6852C33.687 55.3841 36.6855 58.3826 40.3844 58.3826C44.0832 58.3826 47.0817 55.3841 47.0817 51.6852C47.0817 47.9864 44.0832 44.9878 40.3844 44.9878C36.6855 44.9878 33.687 47.9864 33.687 51.6852ZM40.3844 83.7957C36.6855 83.7957 33.687 80.7972 33.687 77.0983C33.687 73.3995 36.6855 70.4009 40.3844 70.4009C44.0832 70.4009 47.0817 73.3995 47.0817 77.0983C47.0817 80.7972 44.0832 83.7957 40.3844 83.7957ZM82.6984 78.006C82.6984 81.7048 85.697 84.7033 89.3958 84.7033C93.0947 84.7033 96.0932 81.7048 96.0932 78.006C96.0932 74.3071 93.0947 71.3086 89.3958 71.3086C85.697 71.3086 82.6984 74.3071 82.6984 78.006ZM89.3958 58.3826C85.697 58.3826 82.6984 55.3841 82.6984 51.6852C82.6984 47.9864 85.697 44.9878 89.3958 44.9878C93.0947 44.9878 96.0932 47.9864 96.0932 51.6852C96.0932 55.3841 93.0947 58.3826 89.3958 58.3826ZM59.1006 35.3486C59.1006 39.0475 62.0992 42.046 65.798 42.046C69.4969 42.046 72.4954 39.0475 72.4954 35.3486C72.4954 31.6498 69.4969 28.6512 65.798 28.6512C62.0992 28.6512 59.1006 31.6498 59.1006 35.3486ZM64.8904 101.041C61.1915 101.041 58.193 98.0425 58.193 94.3437C58.193 90.6448 61.1915 87.6463 64.8904 87.6463C68.5892 87.6463 71.5877 90.6448 71.5877 94.3437C71.5877 98.0425 68.5892 101.041 64.8904 101.041Z" fill="url(#paint0_linear_970_2)"/>
<defs>
<linearGradient id="paint0_linear_970_2" x1="78.3488" y1="138.892" x2="36.6131" y2="2.29553" gradientUnits="userSpaceOnUse">
<stop stop-color="#E1B0A8"/>
<stop offset="1" stop-color="#D3A2E7"/>
</linearGradient>
</defs>
</svg>
