<svg width="145" height="145" viewBox="0 0 145 145" fill="none" xmlns="http://www.w3.org/2000/svg">
<path fill-rule="evenodd" clip-rule="evenodd" d="M68.1817 9.7949C71.4831 7.88884 75.5506 7.88884 78.852 9.7949L96.6224 20.0547C99.1688 21.5248 100.961 23.9568 101.648 26.7415C102.87 26.9518 104.065 27.3768 105.173 28.0165L122.943 38.2762C126.244 40.1823 128.278 43.7049 128.278 47.517V68.0365C128.278 69.5872 127.942 71.09 127.32 72.4556C127.942 73.8212 128.278 75.324 128.278 76.8747V97.3942C128.278 101.206 126.244 104.729 122.943 106.635L105.173 116.895C103.751 117.716 102.187 118.183 100.603 118.297C99.8939 121.028 98.1177 123.409 95.61 124.857L77.8396 135.116C74.5382 137.022 70.4707 137.022 67.1693 135.116L49.3989 124.857C46.5807 123.229 44.6862 120.424 44.1921 117.267C42.6816 117.128 41.1942 116.666 39.8363 115.882L22.0659 105.623C18.7645 103.717 16.7308 100.194 16.7308 96.3819V75.8624C16.7308 74.501 16.9901 73.1765 17.474 71.9494C16.9901 70.7223 16.7308 69.3979 16.7308 68.0365V47.517C16.7308 43.7049 18.7645 40.1823 22.0659 38.2762L39.8363 28.0165C41.5626 27.0198 43.4984 26.5443 45.4246 26.59C46.138 23.8687 47.9111 21.4981 50.4113 20.0547L68.1817 9.7949ZM95.3597 22.2417C97.0791 23.2344 98.3481 24.8015 98.9808 26.6214C97.4283 26.7463 95.8969 27.2113 94.5023 28.0165L82.3658 35.0235C80.7376 31.7113 77.3301 29.4317 73.3901 29.4317C69.134 29.4317 65.4992 32.0918 64.0575 35.8401L50.5066 28.0165C49.6918 27.5461 48.8304 27.1918 47.9453 26.9536C48.5341 24.9928 49.8508 23.2943 51.674 22.2417L69.4444 11.982C71.9644 10.527 75.0692 10.527 77.5893 11.982L95.3597 22.2417ZM63.4463 38.4033L49.2439 30.2036C48.7183 29.9001 48.1674 29.66 47.6016 29.4831V47.9835C49.7203 48.5426 51.5636 49.7799 52.8852 51.4491L64.8129 44.5627C63.9123 43.0618 63.3945 41.305 63.3945 39.4273C63.3945 39.0816 63.4121 38.74 63.4463 38.4033ZM66.3937 46.566L54.1907 53.6115C54.7365 54.8462 55.0396 56.2121 55.0396 57.6489C55.0396 58.0297 55.0183 58.4057 54.9768 58.7755L65.9986 65.1389C67.4172 63.9617 69.1666 63.1692 71.0867 62.9216V49.1561C69.2853 48.7312 67.672 47.8189 66.3937 46.566ZM79.6264 65.9522C78.1405 64.3876 76.1533 63.3037 73.9222 62.9576V49.4089C76.1038 49.2945 78.1001 48.4805 79.691 47.1872L90.6165 53.495C90.0377 54.76 89.7152 56.1668 89.7152 57.6489C89.7152 58.4483 89.809 59.2257 89.9863 59.9709L79.6264 65.9522ZM81.432 77.0747C82.0358 75.7875 82.3733 74.3504 82.3733 72.8346C82.3733 71.0845 81.9235 69.4396 81.1333 68.0089L90.8987 62.3709C92.3909 65.1498 95.1592 67.1414 98.4197 67.5618V77.0937C95.0829 77.524 92.2615 79.5998 90.796 82.481L81.432 77.0747ZM73.9222 82.7115C76.2064 82.3572 78.235 81.2295 79.7317 79.6044L89.8374 85.4389C89.7569 85.9496 89.7152 86.4732 89.7152 87.0066C89.7152 88.881 90.2311 90.635 91.1287 92.1341L79.8825 98.6271C78.3726 96.9121 76.2841 95.7188 73.9222 95.3525V82.7115ZM65.1124 79.6995C66.6561 81.3326 68.7444 82.4454 71.0867 82.7475V95.3165C68.6659 95.6287 66.5164 96.8069 64.9591 98.5305L53.2165 91.7509C54.365 90.1234 55.0396 88.1376 55.0396 85.9942C55.0396 85.8357 55.0359 85.6781 55.0286 85.5214L65.1124 79.6995ZM64.151 67.1556C63.0356 68.7684 62.3822 70.7252 62.3822 72.8346C62.3822 74.3956 62.74 75.8731 63.3782 77.1895L54.3702 82.3902C53.1029 79.1132 50.1582 76.6712 46.5892 76.1174V67.5257C50.0824 66.9837 52.9775 64.6328 54.2871 61.4606L64.151 67.1556ZM81.4775 45.3025L91.9501 51.3489C93.7283 49.1611 96.413 47.7397 99.4321 47.6571V29.2954C99.4321 29.2377 99.4315 29.1801 99.4303 29.1225C98.1611 29.186 96.9034 29.5463 95.765 30.2036L83.1925 37.4623C83.3192 38.0976 83.3856 38.7547 83.3856 39.4273C83.3856 41.623 82.6776 43.6534 81.4775 45.3025ZM109.706 57.6489C109.706 52.901 106.396 48.9263 101.958 47.9068V29.3929C102.632 29.5747 103.289 29.845 103.91 30.2036L121.68 40.4633C124.2 41.9182 125.753 44.6071 125.753 47.517V68.0365C125.753 68.6253 125.689 69.2051 125.567 69.7675C124.822 68.9332 123.94 68.2098 122.943 67.634L109.463 59.8512C109.622 59.1426 109.706 58.4056 109.706 57.6489ZM100.945 67.5689C104.274 67.1589 107.096 65.1123 108.582 62.2588L121.68 69.8211C122.819 70.4785 123.76 71.3878 124.45 72.4556C123.76 73.5234 122.819 74.4327 121.68 75.0901L108.682 82.5946C107.226 79.638 104.35 77.506 100.945 77.0866V67.5689ZM51.4645 93.6555L63.511 100.611C62.7899 101.992 62.3822 103.563 62.3822 105.229C62.3822 105.519 62.3945 105.806 62.4186 106.089L49.2439 113.695C48.409 114.177 47.5099 114.5 46.5892 114.662V95.8711C48.428 95.5858 50.1011 94.7992 51.4645 93.6555ZM50.5066 115.882L62.9916 108.674C64.3951 112.497 68.0679 115.225 72.3777 115.225C76.4196 115.225 79.9012 112.826 81.4762 109.374L94.5023 116.895C95.6051 117.531 96.7934 117.955 98.0101 118.167C97.3925 120.039 96.1054 121.654 94.3473 122.67L76.5769 132.929C74.0569 134.384 70.9521 134.384 68.432 132.929L50.6616 122.67C48.6059 121.483 47.1941 119.475 46.7436 117.196C48.0492 117.001 49.3268 116.563 50.5066 115.882ZM95.765 114.708L82.2349 106.896C82.3259 106.354 82.3733 105.797 82.3733 105.229C82.3733 103.608 81.9873 102.077 81.3024 100.723L92.7075 94.1387C94.2217 95.6257 96.2074 96.6343 98.4197 96.9196V115.616L98.4195 115.675C97.4989 115.512 96.5999 115.19 95.765 114.708ZM100.945 96.9267V115.616C100.945 115.652 100.945 115.688 100.945 115.723C101.973 115.582 102.981 115.244 103.91 114.708L121.68 104.448C124.2 102.993 125.753 100.304 125.753 97.3942V76.8747C125.753 76.2859 125.689 75.7061 125.567 75.1437C124.822 75.978 123.94 76.7014 122.943 77.2772L109.511 85.032C109.639 85.6704 109.706 86.3307 109.706 87.0066C109.706 92.1091 105.883 96.3185 100.945 96.9267ZM35.0485 85.9942C35.0485 91.1839 39.0035 95.4498 44.0638 95.9423V114.711C43.0351 114.57 42.0274 114.231 41.099 113.695L23.3286 103.436C20.8086 101.981 19.2562 99.2917 19.2562 96.3819V75.8624C19.2562 75.5674 19.2721 75.2747 19.3034 74.9853C20.0767 75.8867 21.006 76.6652 22.0659 77.2772L35.1177 84.8126C35.072 85.2002 35.0485 85.5945 35.0485 85.9942ZM44.0638 76.0462C40.2869 76.4138 37.1257 78.8835 35.7652 82.2704L23.3286 75.0901C22.0139 74.3311 20.9626 73.2363 20.2577 71.9494C20.9626 70.6626 22.0139 69.5677 23.3286 68.8087L35.8508 61.579C37.2551 64.8596 40.364 67.2368 44.0638 67.5969V76.0462ZM45.0762 47.6534V29.2954C45.0762 29.2345 45.0767 29.1736 45.0777 29.1129C43.7028 29.1287 42.331 29.4922 41.099 30.2036L23.3286 40.4633C20.8086 41.9182 19.2562 44.6071 19.2562 47.517V68.0365C19.2562 68.3314 19.2721 68.6241 19.3034 68.9135C20.0767 68.0122 21.006 67.2336 22.0659 66.6216L35.1486 59.0684C35.0826 58.6047 35.0485 58.1308 35.0485 57.6489C35.0485 52.1285 39.5237 47.6533 45.0441 47.6533L45.0762 47.6534ZM37.5739 57.6489C37.5739 61.7745 40.9184 65.119 45.0441 65.119C49.1697 65.119 52.5142 61.7745 52.5142 57.6489C52.5142 53.5232 49.1697 50.1787 45.0441 50.1787C40.9184 50.1787 37.5739 53.5232 37.5739 57.6489ZM45.0441 93.4644C40.9184 93.4644 37.5739 90.1199 37.5739 85.9942C37.5739 81.8686 40.9184 78.5241 45.0441 78.5241C49.1697 78.5241 52.5142 81.8686 52.5142 85.9942C52.5142 90.1199 49.1697 93.4644 45.0441 93.4644ZM92.2406 87.0066C92.2406 91.1323 95.5851 94.4768 99.7107 94.4768C103.836 94.4768 107.181 91.1323 107.181 87.0066C107.181 82.881 103.836 79.5365 99.7107 79.5365C95.5851 79.5365 92.2406 82.881 92.2406 87.0066ZM99.7107 65.119C95.5851 65.119 92.2406 61.7745 92.2406 57.6489C92.2406 53.5232 95.5851 50.1787 99.7107 50.1787C103.836 50.1787 107.181 53.5232 107.181 57.6489C107.181 61.7745 103.836 65.119 99.7107 65.119ZM65.9199 39.4273C65.9199 43.5529 69.2644 46.8974 73.3901 46.8974C77.5157 46.8974 80.8602 43.5529 80.8602 39.4273C80.8602 35.3016 77.5157 31.9571 73.3901 31.9571C69.2644 31.9571 65.9199 35.3016 65.9199 39.4273ZM72.3777 112.7C68.2521 112.7 64.9076 109.355 64.9076 105.229C64.9076 101.104 68.2521 97.7593 72.3777 97.7593C76.5034 97.7593 79.8479 101.104 79.8479 105.229C79.8479 109.355 76.5034 112.7 72.3777 112.7Z" fill="url(#paint0_linear_970_2)"/>
<defs>
<linearGradient id="paint0_linear_970_2" x1="87.3891" y1="154.918" x2="40.8376" y2="2.56037" gradientUnits="userSpaceOnUse">
<stop stop-color="#E1B0A8"/>
<stop offset="1" stop-color="#D3A2E7"/>
</linearGradient>
</defs>
</svg>
