<svg width="260" height="260" viewBox="0 0 260 260" fill="none" xmlns="http://www.w3.org/2000/svg">
<path fill-rule="evenodd" clip-rule="evenodd" d="M122.257 17.5633C128.177 14.1456 135.47 14.1456 141.39 17.5633L173.254 35.9601C177.82 38.5963 181.034 42.957 182.265 47.9503C184.457 48.3274 186.599 49.0895 188.585 50.2365L220.45 68.6333C226.369 72.0511 230.016 78.3674 230.016 85.2029V121.997C230.016 124.777 229.413 127.472 228.298 129.92C229.413 132.369 230.016 135.064 230.016 137.844V174.638C230.016 181.474 226.369 187.79 220.45 191.208L188.585 209.604C186.036 211.076 183.231 211.914 180.392 212.118C179.12 217.016 175.935 221.285 171.439 223.881L139.574 242.278C133.655 245.695 126.361 245.695 120.442 242.278L88.5774 223.881C83.524 220.963 80.1271 215.934 79.2409 210.272C76.5326 210.022 73.8654 209.195 71.4306 207.789L39.5665 189.392C33.6467 185.975 30 179.658 30 172.823V136.029C30 133.588 30.4651 131.213 31.3327 129.013C30.4651 126.813 30 124.438 30 121.997V85.2029C30 78.3674 33.6467 72.0511 39.5665 68.6333L71.4306 50.2365C74.5261 48.4494 77.9971 47.5967 81.451 47.6786C82.7302 42.799 85.9096 38.5484 90.3927 35.9601L122.257 17.5633ZM170.99 39.8817C174.073 41.6618 176.348 44.4718 177.483 47.7349C174.699 47.9589 171.953 48.7927 169.452 50.2365L147.69 62.8009C144.771 56.8617 138.661 52.7742 131.596 52.7742C123.964 52.7742 117.447 57.544 114.862 64.2651L90.5635 50.2365C89.1026 49.393 87.5579 48.7577 85.9709 48.3306C87.0266 44.8147 89.3876 41.7692 92.6568 39.8817L124.521 21.4849C129.04 18.8761 134.607 18.8761 139.126 21.4849L170.99 39.8817ZM113.766 68.8612L88.2994 54.1581C87.357 53.6141 86.3691 53.1835 85.3545 52.8663V86.0394C89.1536 87.042 92.4588 89.2606 94.8286 92.2537L116.216 79.9055C114.601 77.2143 113.673 74.0642 113.673 70.6972C113.673 70.0774 113.704 69.4649 113.766 68.8612ZM119.051 83.4978L97.1695 96.131C98.1482 98.3449 98.6918 100.794 98.6918 103.37C98.6918 104.053 98.6536 104.727 98.5792 105.391L118.342 116.801C120.886 114.69 124.023 113.269 127.466 112.825V88.1421C124.236 87.3802 121.343 85.7443 119.051 83.4978ZM142.778 118.259C140.114 115.454 136.551 113.51 132.55 112.89V88.5953C136.462 88.3901 140.042 86.9306 142.894 84.6115L162.485 95.9221C161.447 98.1905 160.869 100.713 160.869 103.37C160.869 104.804 161.037 106.198 161.355 107.534L142.778 118.259ZM146.016 138.203C147.099 135.895 147.704 133.318 147.704 130.6C147.704 127.462 146.897 124.512 145.48 121.947L162.991 111.838C165.666 116.82 170.63 120.391 176.477 121.145V138.237C170.493 139.009 165.434 142.731 162.807 147.897L146.016 138.203ZM132.55 148.31C136.646 147.675 140.283 145.653 142.967 142.739L161.088 153.201C160.943 154.117 160.869 155.056 160.869 156.012C160.869 159.373 161.794 162.518 163.403 165.206L143.238 176.849C140.53 173.773 136.785 171.634 132.55 170.977V148.31ZM116.753 142.909C119.521 145.838 123.266 147.833 127.466 148.375V170.912C123.125 171.472 119.271 173.585 116.478 176.675L95.4227 164.519C97.4821 161.601 98.6918 158.04 98.6918 154.197C98.6918 153.912 98.6851 153.63 98.6721 153.349L116.753 142.909ZM115.029 120.417C113.029 123.309 111.858 126.818 111.858 130.6C111.858 133.399 112.499 136.048 113.644 138.409L97.4913 147.734C95.219 141.858 89.9389 137.479 83.5392 136.486V121.081C89.8029 120.109 94.9941 115.893 97.3424 110.205L115.029 120.417ZM146.098 81.2322L164.876 92.0739C168.064 88.1509 172.879 85.6023 178.292 85.4542V52.5297C178.292 52.4262 178.291 52.3229 178.289 52.2197C176.013 52.3335 173.758 52.9797 171.717 54.1581L149.173 67.1738C149.4 68.313 149.519 69.4912 149.519 70.6972C149.519 74.6344 148.25 78.275 146.098 81.2322ZM196.715 103.37C196.715 94.857 190.779 87.73 182.82 85.902V52.7046C184.03 53.0306 185.208 53.5151 186.321 54.1581L218.185 72.5549C222.704 75.1638 225.488 79.9852 225.488 85.2029V121.997C225.488 123.052 225.374 124.092 225.154 125.1C223.819 123.604 222.238 122.307 220.45 121.275L196.278 107.319C196.564 106.049 196.715 104.727 196.715 103.37ZM181.005 121.158C186.974 120.423 192.035 116.753 194.699 111.636L218.185 125.196C220.227 126.375 221.915 128.006 223.151 129.92C221.915 131.835 220.227 133.466 218.185 134.644L194.879 148.101C192.267 142.799 187.111 138.976 181.005 138.224V121.158ZM92.2811 167.934L113.882 180.405C112.589 182.882 111.858 185.699 111.858 188.687C111.858 189.206 111.88 189.72 111.923 190.228L88.2994 203.867C86.8023 204.732 85.1902 205.31 83.5392 205.601V171.907C86.8364 171.395 89.8365 169.985 92.2811 167.934ZM90.5635 207.789L112.95 194.864C115.467 201.719 122.053 206.61 129.781 206.61C137.028 206.61 143.271 202.309 146.095 196.119L169.452 209.604C171.43 210.746 173.561 211.506 175.742 211.885C174.635 215.242 172.327 218.139 169.174 219.959L137.31 238.356C132.792 240.965 127.224 240.965 122.706 238.356L90.8415 219.959C87.1555 217.831 84.624 214.231 83.8162 210.144C86.1571 209.795 88.4481 209.01 90.5635 207.789ZM171.717 205.683L147.456 191.676C147.619 190.704 147.704 189.706 147.704 188.687C147.704 185.781 147.012 183.035 145.784 180.608L166.234 168.8C168.949 171.467 172.51 173.275 176.477 173.787V207.311L176.476 207.417C174.826 207.125 173.214 206.547 171.717 205.683ZM181.005 173.8V207.311C181.005 207.376 181.005 207.44 181.004 207.504C182.849 207.251 184.656 206.644 186.321 205.683L218.185 187.286C222.704 184.677 225.488 179.856 225.488 174.638V137.844C225.488 136.789 225.374 135.749 225.154 134.741C223.819 136.237 222.238 137.534 220.45 138.566L196.365 152.471C196.594 153.616 196.715 154.8 196.715 156.012C196.715 165.161 189.859 172.709 181.005 173.8ZM62.8457 154.197C62.8457 163.502 69.9373 171.151 79.0109 172.035V205.689C77.1665 205.436 75.3595 204.829 73.6948 203.867L41.8306 185.471C37.3119 182.862 34.5283 178.04 34.5283 172.823V136.029C34.5283 135.5 34.5569 134.975 34.613 134.457C35.9995 136.073 37.6658 137.469 39.5665 138.566L62.9696 152.078C62.8877 152.773 62.8457 153.48 62.8457 154.197ZM79.0109 136.359C72.2385 137.018 66.5703 141.446 64.1308 147.519L41.8306 134.644C39.4733 133.283 37.5881 131.32 36.3241 129.013C37.5881 126.705 39.4733 124.742 41.8306 123.381L64.2842 110.418C66.8022 116.3 72.3768 120.563 79.0109 121.208V136.359ZM80.8262 85.4475V52.5297C80.8262 52.4205 80.8271 52.3114 80.829 52.2025C78.3637 52.2308 75.9039 52.8827 73.6948 54.1581L41.8306 72.5549C37.3119 75.1638 34.5283 79.9852 34.5283 85.2029V121.997C34.5283 122.525 34.5569 123.05 34.613 123.569C35.9995 121.953 37.6658 120.557 39.5665 119.46L63.025 105.916C62.9068 105.084 62.8457 104.235 62.8457 103.37C62.8457 93.4718 70.8701 85.4474 80.7687 85.4474L80.8262 85.4475ZM67.374 103.37C67.374 110.768 73.371 116.765 80.7687 116.765C88.1664 116.765 94.1635 110.768 94.1635 103.37C94.1635 95.9727 88.1664 89.9757 80.7687 89.9757C73.371 89.9757 67.374 95.9727 67.374 103.37ZM80.7687 167.591C73.371 167.591 67.374 161.594 67.374 154.197C67.374 146.799 73.371 140.802 80.7687 140.802C88.1664 140.802 94.1635 146.799 94.1635 154.197C94.1635 161.594 88.1664 167.591 80.7687 167.591ZM165.397 156.012C165.397 163.41 171.394 169.407 178.792 169.407C186.189 169.407 192.186 163.41 192.186 156.012C192.186 148.614 186.189 142.617 178.792 142.617C171.394 142.617 165.397 148.614 165.397 156.012ZM178.792 116.765C171.394 116.765 165.397 110.768 165.397 103.37C165.397 95.9727 171.394 89.9757 178.792 89.9757C186.189 89.9757 192.186 95.9727 192.186 103.37C192.186 110.768 186.189 116.765 178.792 116.765ZM118.201 70.6972C118.201 78.0949 124.198 84.092 131.596 84.092C138.994 84.092 144.991 78.0949 144.991 70.6972C144.991 63.2995 138.994 57.3025 131.596 57.3025C124.198 57.3025 118.201 63.2995 118.201 70.6972ZM129.781 202.082C122.383 202.082 116.386 196.085 116.386 188.687C116.386 181.29 122.383 175.293 129.781 175.293C137.178 175.293 143.175 181.29 143.175 188.687C143.175 196.085 137.178 202.082 129.781 202.082Z" fill="url(#paint0_linear_2_17)"/>
<defs>
<linearGradient id="paint0_linear_2_17" x1="156.698" y1="277.785" x2="73.2261" y2="4.59107" gradientUnits="userSpaceOnUse">
<stop stop-color="#E1B0A8"/>
<stop offset="1" stop-color="#D3A2E7"/>
</linearGradient>
</defs>
</svg>
