<svg width="100" height="100" viewBox="0 0 100 100" fill="none" xmlns="http://www.w3.org/2000/svg">
<path fill-rule="evenodd" clip-rule="evenodd" d="M47.0219 6.75518C49.2987 5.44066 52.1038 5.44066 54.3807 6.75518L66.6361 13.8309C68.3923 14.8448 69.6284 16.522 70.1018 18.4425C70.945 18.5875 71.7687 18.8806 72.5328 19.3218L84.7883 26.3975C87.0651 27.712 88.4677 30.1414 88.4677 32.7704V46.9218C88.4677 47.9913 88.2356 49.0277 87.807 49.9695C88.2356 50.9112 88.4677 51.9477 88.4677 53.0171V67.1685C88.4677 69.7976 87.0651 72.2269 84.7883 73.5414L72.5328 80.6171C71.5522 81.1833 70.4736 81.5056 69.3815 81.5841C68.8924 83.4679 67.6674 85.1096 65.9379 86.108L53.6825 93.1837C51.4057 94.4983 48.6005 94.4983 46.3237 93.1837L34.0682 86.108C32.1246 84.9859 30.8181 83.0514 30.4773 80.8738C29.4356 80.7779 28.4098 80.4596 27.4733 79.9189L15.2179 72.8432C12.941 71.5287 11.5385 69.0994 11.5385 66.4703V52.3189C11.5385 51.38 11.7173 50.4666 12.051 49.6204C11.7173 48.7741 11.5385 47.8607 11.5385 46.9218V32.7704C11.5385 30.1414 12.941 27.712 15.2179 26.3975L27.4733 19.3218C28.6639 18.6344 29.9989 18.3065 31.3273 18.338C31.8193 16.4612 33.0422 14.8264 34.7664 13.8309L47.0219 6.75518ZM65.7653 15.3392C66.9511 16.0238 67.8262 17.1046 68.2626 18.3596C67.1919 18.4458 66.1358 18.7665 65.174 19.3218L56.804 24.1542C55.6811 21.87 53.3311 20.2978 50.6139 20.2978C47.6786 20.2978 45.1718 22.1324 44.1776 24.7174L34.8321 19.3218C34.2702 18.9974 33.6761 18.753 33.0657 18.5887C33.4718 17.2365 34.3799 16.0651 35.6372 15.3392L47.8927 8.2635C49.6306 7.26009 51.7719 7.26009 53.5098 8.2635L65.7653 15.3392ZM43.7561 26.4851L33.9613 20.8301C33.5989 20.6209 33.2189 20.4552 32.8287 20.3333V33.0921C34.2898 33.4777 35.5611 34.331 36.4725 35.4822L44.6985 30.733C44.0775 29.6979 43.7204 28.4863 43.7204 27.1913C43.7204 26.9529 43.7325 26.7173 43.7561 26.4851ZM45.7888 32.1146L37.3729 36.9735C37.7493 37.825 37.9584 38.767 37.9584 39.7579C37.9584 40.0206 37.9437 40.2798 37.9151 40.5349L45.5163 44.9234C46.4946 44.1116 47.7011 43.565 49.0253 43.3943V33.9008C47.7829 33.6078 46.6703 32.9786 45.7888 32.1146ZM54.9148 45.4843C53.89 44.4053 52.5195 43.6578 50.9808 43.4191V34.0752C52.4854 33.9963 53.8621 33.4349 54.9593 32.5429L62.4941 36.8932C62.095 37.7656 61.8725 38.7358 61.8725 39.7579C61.8725 40.3092 61.9373 40.8454 62.0595 41.3593L54.9148 45.4843ZM56.16 53.155C56.5764 52.2673 56.8091 51.2762 56.8091 50.2308C56.8091 49.0239 56.499 47.8894 55.954 46.9028L62.6887 43.0145C63.7179 44.931 65.627 46.3045 67.8757 46.5944V53.1681C65.5744 53.4649 63.6287 54.8965 62.6179 56.8835L56.16 53.155ZM50.9808 57.0425C52.5562 56.7981 53.9552 56.0204 54.9874 54.8996L61.9568 58.9234C61.9013 59.2757 61.8725 59.6368 61.8725 60.0046C61.8725 61.2973 62.2284 62.5069 62.8474 63.5408L55.0914 68.0188C54.0501 66.836 52.6097 66.0131 50.9808 65.7604V57.0425ZM44.9051 54.9652C45.9697 56.0915 47.4099 56.859 49.0253 57.0673V65.7356C47.3558 65.9509 45.8734 66.7635 44.7994 67.9521L36.701 63.2766C37.4931 62.1542 37.9584 60.7846 37.9584 59.3064C37.9584 59.1971 37.9558 59.0884 37.9508 58.9803L44.9051 54.9652ZM44.2421 46.3143C43.4728 47.4265 43.0222 48.776 43.0222 50.2308C43.0222 51.3074 43.269 52.3264 43.7091 53.2342L37.4967 56.8209C36.6227 54.5609 34.5919 52.8768 32.1305 52.4948V46.5695C34.5396 46.1957 36.5362 44.5744 37.4394 42.3867L44.2421 46.3143ZM56.1914 31.2432L63.4138 35.4131C64.6402 33.9043 66.4918 32.924 68.5739 32.8671V20.2038C68.5739 20.164 68.5735 20.1242 68.5726 20.0846C67.6973 20.1283 66.8299 20.3768 66.0448 20.8301L57.3742 25.8361C57.4615 26.2743 57.5073 26.7274 57.5073 27.1913C57.5073 28.7056 57.0191 30.1058 56.1914 31.2432ZM75.6595 39.7579C75.6595 36.4835 73.3766 33.7424 70.3155 33.0393V20.2711C70.7808 20.3965 71.2337 20.5828 71.662 20.8301L83.9175 27.9058C85.6554 28.9092 86.726 30.7636 86.726 32.7704V46.9218C86.726 47.3279 86.6822 47.7278 86.5979 48.1156C86.0842 47.5402 85.4761 47.0413 84.7883 46.6442L75.4916 41.2768C75.6015 40.7881 75.6595 40.2798 75.6595 39.7579ZM69.6173 46.5993C71.9131 46.3166 73.8595 44.9051 74.8842 42.9372L83.9175 48.1525C84.7027 48.6059 85.3518 49.233 85.8274 49.9695C85.3518 50.7059 84.7027 51.333 83.9175 51.7864L74.9533 56.9618C73.9487 54.9229 71.9658 53.4525 69.6173 53.1632V46.5993ZM35.4927 64.59L43.8007 69.3866C43.3034 70.3394 43.0222 71.4229 43.0222 72.5721C43.0222 72.7718 43.0307 72.9694 43.0473 73.1648L33.9613 78.4106C33.3855 78.743 32.7655 78.9653 32.1305 79.0775V66.1181C33.3986 65.9213 34.5525 65.3788 35.4927 64.59ZM34.8321 79.9189L43.4425 74.9478C44.4104 77.5844 46.9434 79.4656 49.9157 79.4656C52.7032 79.4656 55.1043 77.8111 56.1905 75.4305L65.174 80.6171C65.9346 81.0562 66.7541 81.3487 67.5932 81.4944C67.1672 82.7856 66.2796 83.8997 65.0671 84.5997L52.8117 91.6754C51.0737 92.6788 48.9325 92.6788 47.1945 91.6754L34.939 84.5997C33.5213 83.7812 32.5477 82.3964 32.237 80.8246C33.1374 80.6906 34.0185 80.3887 34.8321 79.9189ZM66.0448 79.1088L56.7137 73.7215C56.7765 73.3477 56.8091 72.9637 56.8091 72.5721C56.8091 71.4541 56.543 70.3983 56.0706 69.4645L63.9362 64.9233C64.9805 65.9488 66.3499 66.6444 67.8757 66.8412V79.7351L67.8755 79.7757C67.2406 79.6635 66.6206 79.4412 66.0448 79.1088ZM69.6173 66.8461V79.7351C69.6173 79.7599 69.6172 79.7846 69.617 79.8093C70.3265 79.712 71.0216 79.4785 71.662 79.1088L83.9175 72.0331C85.6554 71.0297 86.726 69.1753 86.726 67.1685V53.0171C86.726 52.611 86.6822 52.2112 86.5979 51.8233C86.0842 52.3987 85.4761 52.8976 84.7883 53.2947L75.525 58.6429C75.6132 59.0831 75.6595 59.5385 75.6595 60.0046C75.6595 63.5236 73.0228 66.4266 69.6173 66.8461ZM24.1714 59.3064C24.1714 62.8855 26.899 65.8275 30.3888 66.1672V79.111C29.6794 79.0137 28.9844 78.7803 28.3442 78.4106L16.0887 71.3349C14.3507 70.3315 13.2801 68.4771 13.2801 66.4703V52.3189C13.2801 52.1155 13.2911 51.9137 13.3127 51.7141C13.846 52.3357 14.4869 52.8727 15.2179 53.2947L24.2191 58.4915C24.1876 58.7588 24.1714 59.0307 24.1714 59.3064ZM30.3888 52.4457C27.784 52.6993 25.604 54.4025 24.6657 56.7383L16.0887 51.7864C15.182 51.2629 14.457 50.5078 13.9708 49.6204C14.457 48.7329 15.182 47.9778 16.0887 47.4543L24.7247 42.4683C25.6932 44.7308 27.8372 46.3703 30.3888 46.6187V52.4457ZM31.087 32.8645V20.2038C31.087 20.1618 31.0874 20.1198 31.0881 20.0779C30.1399 20.0888 29.1938 20.3396 28.3442 20.8301L16.0887 27.9058C14.3507 28.9092 13.2801 30.7636 13.2801 32.7704V46.9218C13.2801 47.1252 13.2911 47.3271 13.3127 47.5266C13.846 46.905 14.4869 46.3681 15.2179 45.946L24.2404 40.7369C24.1949 40.4171 24.1714 40.0902 24.1714 39.7579C24.1714 35.9507 27.2577 32.8644 31.0649 32.8644L31.087 32.8645ZM25.9131 39.7579C25.9131 42.6032 28.2196 44.9097 31.0649 44.9097C33.9102 44.9097 36.2167 42.6032 36.2167 39.7579C36.2167 36.9126 33.9102 34.6061 31.0649 34.6061C28.2196 34.6061 25.9131 36.9126 25.9131 39.7579ZM31.0649 64.4583C28.2196 64.4583 25.9131 62.1517 25.9131 59.3064C25.9131 56.4612 28.2196 54.1546 31.0649 54.1546C33.9102 54.1546 36.2167 56.4612 36.2167 59.3064C36.2167 62.1517 33.9102 64.4583 31.0649 64.4583ZM63.6142 60.0046C63.6142 62.8499 65.9207 65.1565 68.766 65.1565C71.6113 65.1565 73.9178 62.8499 73.9178 60.0046C73.9178 57.1594 71.6113 54.8528 68.766 54.8528C65.9207 54.8528 63.6142 57.1594 63.6142 60.0046ZM68.766 44.9097C65.9207 44.9097 63.6142 42.6032 63.6142 39.7579C63.6142 36.9126 65.9207 34.6061 68.766 34.6061C71.6113 34.6061 73.9178 36.9126 73.9178 39.7579C73.9178 42.6032 71.6113 44.9097 68.766 44.9097ZM45.462 27.1913C45.462 30.0366 47.7686 32.3431 50.6139 32.3431C53.4591 32.3431 55.7657 30.0366 55.7657 27.1913C55.7657 24.346 53.4591 22.0395 50.6139 22.0395C47.7686 22.0395 45.462 24.346 45.462 27.1913ZM49.9157 77.7239C47.0704 77.7239 44.7638 75.4174 44.7638 72.5721C44.7638 69.7268 47.0704 67.4203 49.9157 67.4203C52.7609 67.4203 55.0675 69.7268 55.0675 72.5721C55.0675 75.4174 52.7609 77.7239 49.9157 77.7239Z" fill="url(#paint0_linear_970_2)"/>
<defs>
<linearGradient id="paint0_linear_970_2" x1="60.2683" y1="106.84" x2="28.1639" y2="1.76585" gradientUnits="userSpaceOnUse">
<stop stop-color="#E1B0A8"/>
<stop offset="1" stop-color="#D3A2E7"/>
</linearGradient>
</defs>
</svg>
