<svg width="60" height="60" viewBox="0 0 60 60" fill="none" xmlns="http://www.w3.org/2000/svg">
<g id="Blog &#38; Media">
<g id="Color">
<path d="M37.6154 7.38462H12.6923C12.1825 7.38462 11.7692 7.7979 11.7692 8.3077V29.5385H10.8462V8.3077C10.8462 7.2881 11.6727 6.46155 12.6923 6.46155H37.6154C38.635 6.46155 39.4615 7.2881 39.4615 8.3077V23.0769H38.5385V8.3077C38.5385 7.7979 38.1252 7.38462 37.6154 7.38462Z" fill="#E4442F"/>
<path d="M15.4615 27.6923H19.6154V26.7692H15.4615C15.2066 26.7692 15 26.9759 15 27.2308C15 27.4857 15.2066 27.6923 15.4615 27.6923Z" fill="#E4442F"/>
<path d="M19.6154 24.9231V24H15.4615C15.2066 24 15 24.2066 15 24.4615C15 24.7164 15.2066 24.9231 15.4615 24.9231H19.6154Z" fill="#E4442F"/>
<path d="M45.9231 15.5186V23.0769H45V15.5186C45 15.0567 44.5867 14.6824 44.0769 14.6824H43.6154V13.8462H44.0769C45.0965 13.8462 45.9231 14.5949 45.9231 15.5186Z" fill="#E4442F"/>
<path d="M42.6923 12V23.0769H41.7692V12C41.7692 11.4902 41.356 11.0769 40.8462 11.0769H40.3846V10.1539H40.8462C41.8658 10.1539 42.6923 10.9804 42.6923 12Z" fill="#E4442F"/>
<path fill-rule="evenodd" clip-rule="evenodd" d="M16.8462 10.6154C15.8266 10.6154 15 11.4419 15 12.4615V19.8462C15 20.8658 15.8266 21.6923 16.8462 21.6923H33.4615C34.4811 21.6923 35.3077 20.8658 35.3077 19.8462V12.4615C35.3077 11.4419 34.4811 10.6154 33.4615 10.6154H16.8462ZM25.1538 19.8462C23.1146 19.8462 21.4615 18.1931 21.4615 16.1539C21.4615 14.1146 23.1146 12.4615 25.1538 12.4615C27.1931 12.4615 28.8462 14.1146 28.8462 16.1539C28.8462 18.1931 27.1931 19.8462 25.1538 19.8462Z" fill="#E4442F"/>
<path d="M23.3077 27.6923C23.8175 27.6923 24.2308 27.279 24.2308 26.7692C24.2308 26.2594 23.8175 25.8462 23.3077 25.8462C22.7979 25.8462 22.3846 26.2594 22.3846 26.7692C22.3846 27.279 22.7979 27.6923 23.3077 27.6923Z" fill="#E4442F"/>
<path d="M27 26.7692C27 27.279 26.5867 27.6923 26.0769 27.6923C25.5671 27.6923 25.1538 27.279 25.1538 26.7692C25.1538 26.2594 25.5671 25.8462 26.0769 25.8462C26.5867 25.8462 27 26.2594 27 26.7692Z" fill="#E4442F"/>
<path d="M28.8462 27.6923C29.356 27.6923 29.7692 27.279 29.7692 26.7692C29.7692 26.2594 29.356 25.8462 28.8462 25.8462C28.3364 25.8462 27.9231 26.2594 27.9231 26.7692C27.9231 27.279 28.3364 27.6923 28.8462 27.6923Z" fill="#E4442F"/>
<path fill-rule="evenodd" clip-rule="evenodd" d="M20.5385 29.5385V25.8462C20.5385 24.8266 21.365 24 22.3846 24H51.9231C52.9427 24 53.7692 24.8266 53.7692 25.8462V51.6923C53.7692 52.7119 52.9427 53.5385 51.9231 53.5385H22.3846C21.365 53.5385 20.5385 52.7119 20.5385 51.6923H21.4615C21.4615 52.2021 21.8748 52.6154 22.3846 52.6154H51.9231C52.4329 52.6154 52.8462 52.2021 52.8462 51.6923V29.5385L20.5385 29.5385ZM51.9231 24.9231H22.3846C21.8748 24.9231 21.4615 25.3364 21.4615 25.8462L21.4615 28.6154L52.8462 28.6155V25.8462C52.8462 25.3364 52.4329 24.9231 51.9231 24.9231Z" fill="#E4442F"/>
<path d="M39.7969 41.139C40.1046 41.3166 40.1046 41.7607 39.7969 41.9384L35.643 44.3366C35.3353 44.5142 34.9507 44.2922 34.9507 43.9369V39.1404C34.9507 38.7852 35.3353 38.5631 35.643 38.7407L39.7969 41.139Z" fill="#E4442F"/>
<path fill-rule="evenodd" clip-rule="evenodd" d="M32.0769 46.9011V36.1759C33.4003 34.9225 35.1873 34.1539 37.1538 34.1539C41.2323 34.1539 44.5385 37.4601 44.5385 41.5385C44.5385 45.6169 41.2323 48.9231 37.1538 48.9231C35.1873 48.9231 33.4003 48.1544 32.0769 46.9011ZM36.1046 45.136L40.2584 42.7378C41.1815 42.2048 41.1815 40.8725 40.2584 40.3396L36.1046 37.9413C35.1815 37.4084 34.0276 38.0746 34.0276 39.1404V43.9369C34.0276 45.0028 35.1815 45.6689 36.1046 45.136Z" fill="#E4442F"/>
<path fill-rule="evenodd" clip-rule="evenodd" d="M14.3077 41.0769C15.9646 41.0769 17.3077 39.7338 17.3077 38.0769C17.3077 36.4201 15.9646 35.0769 14.3077 35.0769C12.6508 35.0769 11.3077 36.4201 11.3077 38.0769C11.3077 39.7338 12.6508 41.0769 14.3077 41.0769ZM16.3846 38.0769C16.3846 39.224 15.4547 40.1539 14.3077 40.1539C13.1606 40.1539 12.2308 39.224 12.2308 38.0769C12.2308 36.9299 13.1606 36 14.3077 36C15.4547 36 16.3846 36.9299 16.3846 38.0769Z" fill="#E4442F"/>
<path fill-rule="evenodd" clip-rule="evenodd" d="M8.53847 33.6923C8.53847 33.1825 8.95174 32.7692 9.46154 32.7692H27.9231C28.4329 32.7692 28.8462 33.1825 28.8462 33.6923V47.5385C28.8462 48.0483 28.4329 48.4615 27.9231 48.4615H9.46154C8.95174 48.4615 8.53847 48.0483 8.53847 47.5385V33.6923ZM9.46154 33.6923H27.9231V42.5397L22.7361 37.6749L15.9323 44.0562L13.4931 41.7686L9.46154 45.5498V33.6923ZM22.7361 38.9405L27.9231 43.8053V47.5385H9.46154V46.8153L13.4931 43.0341L15.9323 45.3217L22.7361 38.9405Z" fill="#E4442F"/>
<path fill-rule="evenodd" clip-rule="evenodd" d="M6.23077 32.3077C6.23077 31.2881 7.05733 30.4615 8.07693 30.4615H29.3077C30.3273 30.4615 31.1538 31.2881 31.1538 32.3077V48.9231C31.1538 49.9427 30.3273 50.7692 29.3077 50.7692H8.07693C7.05733 50.7692 6.23077 49.9427 6.23077 48.9231V32.3077ZM8.07693 31.3846H29.3077C29.8175 31.3846 30.2308 31.7979 30.2308 32.3077V48.9231C30.2308 49.4329 29.8175 49.8462 29.3077 49.8462H8.07693C7.56713 49.8462 7.15385 49.4329 7.15385 48.9231V32.3077C7.15385 31.7979 7.56713 31.3846 8.07693 31.3846Z" fill="#E4442F"/>
</g>
</g>
</svg>
