<svg width="61" height="60" viewBox="0 0 61 60" fill="none" xmlns="http://www.w3.org/2000/svg">
<g id="tools_resources">
<g id="Color">
<path fill-rule="evenodd" clip-rule="evenodd" d="M51.3848 51.0561C52.7027 49.7382 52.7027 47.6015 51.3848 46.2836C50.067 44.9657 47.9302 44.9657 46.6124 46.2836C45.2945 47.6015 45.2945 49.7382 46.6124 51.0561C47.9302 52.374 50.067 52.374 51.3848 51.0561ZM50.5894 47.079C51.468 47.9576 51.468 49.3821 50.5894 50.2607C49.7108 51.1393 48.2864 51.1393 47.4078 50.2607C46.5292 49.3821 46.5292 47.9576 47.4078 47.079C48.2864 46.2004 49.7108 46.2004 50.5894 47.079Z" fill="#4343D1"/>
<path fill-rule="evenodd" clip-rule="evenodd" d="M9.23258 24.0121C6.35431 21.1339 5.46114 17.0222 6.55307 13.3785C6.6714 12.9836 6.81304 12.5943 6.97799 12.2126L14.8005 20.0351C15.2398 20.4744 15.952 20.4744 16.3913 20.0351L20.3684 16.058C20.8077 15.6187 20.8077 14.9065 20.3684 14.4672L12.5459 6.64467C12.9276 6.47972 13.317 6.33809 13.7118 6.21976C17.3555 5.12783 21.4672 6.021 24.3455 8.89927C27.0595 11.6133 28.0085 15.424 27.1925 18.905L52.9804 44.6929C55.1769 46.8894 55.1769 50.4506 52.9804 52.6471C50.7839 54.8436 47.2227 54.8436 45.0262 52.6471L19.2383 26.8592C15.7573 27.6752 11.9466 26.7262 9.23258 24.0121ZM45.8217 51.8517L19.5911 25.6211L18.9816 25.764C15.8637 26.4949 12.4555 25.6442 10.028 23.2167C7.60938 20.7981 6.75622 17.4046 7.47255 14.298L14.0051 20.8305C14.8837 21.7091 16.3081 21.7091 17.1867 20.8305L21.1638 16.8534C22.0424 15.9748 22.0424 14.5503 21.1638 13.6718L14.6313 7.13924C17.7379 6.42291 21.1314 7.27606 23.55 9.69468C25.9775 12.1221 26.8282 15.5304 26.0973 18.6483L25.9544 19.2578L52.185 45.4883C53.9422 47.2455 53.9422 50.0945 52.185 51.8517C50.4278 53.6088 47.5788 53.6088 45.8217 51.8517Z" fill="#4343D1"/>
<path d="M48.2934 7.50751C47.8541 7.06822 47.1419 7.06822 46.7026 7.50752L32.0441 22.166L31.2487 21.3706L45.9072 6.7121C46.7858 5.83351 48.2102 5.83351 49.0888 6.7121L53.8613 11.4846C54.7399 12.3632 54.7399 13.7877 53.8613 14.6662L39.2029 29.3247L38.4074 28.5293L53.0659 13.8708C53.5052 13.4315 53.5052 12.7193 53.0659 12.28L48.2934 7.50751Z" fill="#4343D1"/>
<path d="M21.7037 30.9155L22.4992 31.711L11.4863 42.7238L7.98651 52.5869L17.8497 49.0871L28.8625 38.0743L29.6579 38.8697L18.4654 50.0622L7.24956 54.042C6.80331 54.2004 6.37306 53.7701 6.53141 53.3239L10.5112 42.1081L21.7037 30.9155Z" fill="#4343D1"/>
<path d="M47.4975 16.2571L36.8164 26.9382L36.021 26.1428L46.7021 15.4617C46.9217 15.2421 47.2778 15.2421 47.4975 15.4617C47.7171 15.6813 47.7171 16.0375 47.4975 16.2571Z" fill="#4343D1"/>
<path d="M27.2714 36.4832L26.476 35.6878L16.0786 46.0852C15.859 46.3048 15.859 46.6609 16.0786 46.8806C16.2983 47.1002 16.6544 47.1002 16.874 46.8806L27.2714 36.4832Z" fill="#4343D1"/>
<path d="M14.488 44.4946L24.8854 34.0972L24.09 33.3018L13.6926 43.6992C13.473 43.9188 13.473 44.275 13.6926 44.4946C13.9123 44.7142 14.2684 44.7142 14.488 44.4946Z" fill="#4343D1"/>
<path d="M33.635 23.7568L34.4304 24.5522L45.1115 13.8711C45.3312 13.6515 45.3312 13.2954 45.1115 13.0757C44.8919 12.8561 44.5357 12.8561 44.3161 13.0757L33.635 23.7568Z" fill="#4343D1"/>
</g>
</g>
</svg>
