<svg width="61" height="60" viewBox="0 0 61 60" fill="none" xmlns="http://www.w3.org/2000/svg">
<g id="read_the_docs">
<g id="Color">
<path fill-rule="evenodd" clip-rule="evenodd" d="M56.7853 41.0219V16.8684C56.7853 16.3384 56.5752 15.83 56.2011 15.4553L45.4024 4.63491C45.0283 4.26012 44.521 4.04956 43.992 4.04956H28.3633C27.2618 4.04956 26.3688 4.94432 26.3688 6.04807V28.0316H27.3661V6.04807C27.3661 5.49619 27.8126 5.04881 28.3633 5.04881H43.8209V10.5447H42.699V11.544H43.8209V13.999C43.1317 13.7051 42.3733 13.5425 41.5771 13.5425C38.4101 13.5425 35.8428 16.1149 35.8428 19.2882C35.8428 22.4614 38.4101 25.0339 41.5771 25.0339C44.744 25.0339 47.3113 22.4614 47.3113 19.2882C47.3113 18.5854 47.1854 17.9121 46.9549 17.2897H49.3059V18.164H50.3031V17.2897H55.7881V41.0219C55.7881 41.5738 55.3416 42.0212 54.7908 42.0212H45.7453V43.0204H54.7908C55.8923 43.0204 56.7853 42.1257 56.7853 41.0219ZM44.8182 14.7915V5.46272L55.496 16.1618C55.5359 16.2018 55.5721 16.2449 55.6043 16.2904H46.3141C45.4879 16.2904 44.8182 15.6193 44.8182 14.7915Z" fill="#3E8492"/>
<path d="M32.851 26.0331V24.909H33.8483V26.0331C33.8483 26.585 34.2948 27.0324 34.8455 27.0324H35.9675V28.0316H34.8455C33.744 28.0316 32.851 27.1369 32.851 26.0331Z" fill="#3E8492"/>
<path d="M38.2113 28.0316V27.0324H40.4551V28.0316H38.2113Z" fill="#3E8492"/>
<path d="M42.699 28.0316V27.0324H44.9428V28.0316H42.699Z" fill="#3E8492"/>
<path d="M47.1867 28.0316V27.0324H48.3086C48.8594 27.0324 49.3059 26.585 49.3059 26.0331V24.909H50.3031V26.0331C50.3031 27.1369 49.4101 28.0316 48.3086 28.0316H47.1867Z" fill="#3E8492"/>
<path d="M50.3031 22.6607H49.3059V20.4123H50.3031V22.6607Z" fill="#3E8492"/>
<path d="M40.4551 10.5447V11.544H38.2113V10.5447H40.4551Z" fill="#3E8492"/>
<path d="M35.9675 10.5447V11.544H34.8455C34.2948 11.544 33.8483 11.9913 33.8483 12.5432V13.6674H32.851V12.5432C32.851 11.4395 33.744 10.5447 34.8455 10.5447H35.9675Z" fill="#3E8492"/>
<path d="M32.851 15.9157H33.8483V18.164H32.851V15.9157Z" fill="#3E8492"/>
<path d="M32.851 20.4123H33.8483V22.6607H32.851V20.4123Z" fill="#3E8492"/>
<path d="M49.8045 32.5283H45.7453V31.529H49.8045C50.0799 31.529 50.3031 31.7527 50.3031 32.0287C50.3031 32.3046 50.0799 32.5283 49.8045 32.5283Z" fill="#3E8492"/>
<path d="M45.7453 35.526H47.3113C47.5867 35.526 47.81 35.3023 47.81 35.0264C47.81 34.7505 47.5867 34.5268 47.3113 34.5268H45.7453V35.526Z" fill="#3E8492"/>
<path d="M45.7453 38.5238H48.8072C49.0826 38.5238 49.3059 38.3001 49.3059 38.0242C49.3059 37.7482 49.0826 37.5245 48.8072 37.5245H45.7453V38.5238Z" fill="#3E8492"/>
<path fill-rule="evenodd" clip-rule="evenodd" d="M5.35615 29.7979C5.64952 29.6278 5.99012 29.5305 6.35341 29.5305H42.7535C43.8551 29.5305 44.7481 30.4253 44.7481 31.529V53.5126C44.7481 53.8766 44.6509 54.2179 44.4812 54.5118H44.7481C45.2988 54.5118 45.7453 54.0645 45.7453 53.5126V44.0197H46.7426V53.5126C46.7426 54.6163 45.8496 55.5111 44.7481 55.5111H6.35341C5.25187 55.5111 4.35889 54.6163 4.35889 53.5126V23.535C4.35889 22.4313 5.25187 21.5365 6.35341 21.5365H8.41806V19.7615C8.41806 18.6577 9.31104 17.7629 10.4126 17.7629H21.8811C22.9827 17.7629 23.8756 18.6577 23.8756 19.7615V21.5365H25.3715V22.5357H22.8784V19.7615C22.8784 19.2096 22.4319 18.7622 21.8811 18.7622H10.4126C9.86181 18.7622 9.41532 19.2096 9.41532 19.7615V22.5357H6.35341C5.80264 22.5357 5.35615 22.9831 5.35615 23.535V29.7979ZM5.35615 31.529V52.7632H43.7508V31.529C43.7508 30.9772 43.3043 30.5298 42.7535 30.5298H6.35341C5.80264 30.5298 5.35615 30.9772 5.35615 31.529ZM5.38757 53.7624C5.49828 54.1934 5.88873 54.5118 6.35341 54.5118H42.7535C43.2182 54.5118 43.6087 54.1934 43.7194 53.7624H5.38757Z" fill="#3E8492"/>
</g>
</g>
</svg>
