<svg width="252" height="206" viewBox="0 0 252 206" fill="none" xmlns="http://www.w3.org/2000/svg">
<path d="M68.7751 197.922C68.7751 196.811 69.6853 195.902 70.7979 195.902H159.801C160.913 195.902 161.824 196.811 161.824 197.922V203.98C161.824 205.091 160.913 206 159.801 206H70.7979C69.6853 206 68.7751 205.091 68.7751 203.98V197.922ZM160.994 111.058H221.678C222.791 111.058 223.701 110.149 223.701 109.039C223.701 107.928 222.791 107.019 221.678 107.019H160.994C159.882 107.019 158.972 107.928 158.972 109.039C158.972 110.149 159.882 111.058 160.994 111.058ZM160.994 119.137C159.882 119.137 158.972 120.045 158.972 121.156C158.972 122.267 159.882 123.176 160.994 123.176H205.496C206.608 123.176 207.519 122.267 207.519 121.156C207.519 120.045 206.608 119.137 205.496 119.137H160.994ZM160.994 135.294H215.61C216.722 135.294 217.633 134.385 217.633 133.274C217.633 132.163 216.722 131.254 215.61 131.254H160.994C159.882 131.254 158.972 132.163 158.972 133.274C158.972 134.385 159.882 135.294 160.994 135.294ZM252 47.9253V149.087C252 154.419 247.651 158.741 242.331 158.741H139.128C133.788 158.741 129.459 154.399 129.459 149.087V9.65373C129.459 4.32196 133.808 0 139.128 0H203.089L252 47.9455V47.9253ZM204.282 40.4527C204.282 43.8457 207.053 46.5924 210.432 46.5924H244.88L204.302 6.82627V40.4729L204.282 40.4527ZM247.954 149.087V50.6518H210.432C204.808 50.6518 200.237 46.0875 200.237 40.4729V4.03922H139.108C135.993 4.03922 133.484 6.56373 133.484 9.65373V149.108C133.484 152.218 136.013 154.722 139.108 154.722H242.311C245.426 154.722 247.934 152.198 247.934 149.108L247.954 149.087ZM238.144 161.003H242.189C242.189 166.335 237.84 170.657 232.52 170.657H230.579V177.948C230.579 184.491 225.137 189.823 218.442 189.823H12.1368C5.44132 189.823 0 184.491 0 177.948V40.1498C0 33.6063 5.44132 28.2745 12.1368 28.2745H120.195H123.391L123.694 161.023C123.694 164.134 126.223 166.658 129.317 166.658H232.52C235.636 166.658 238.144 164.134 238.144 161.044V161.003ZM119.385 48.4706H4.04559V159.549H119.648L119.385 48.4706ZM4.04559 40.1498V44.4314H119.385V32.3137H12.1368C7.6664 32.3137 4.04559 35.8278 4.04559 40.1498ZM226.553 170.697H129.338C124.887 170.697 121.186 167.668 120.053 163.608H4.04559V177.988C4.04559 182.31 7.6664 185.824 12.1368 185.824H218.462C222.932 185.824 226.553 182.31 226.553 177.988V170.697ZM161.338 96.8402L175.68 80.9661C176.368 80.1986 176.368 79.0474 175.68 78.28L161.581 62.3857C160.853 61.5576 159.558 61.4769 158.729 62.2039C157.9 62.9512 157.819 64.2235 158.547 65.0516L171.432 79.5927L158.304 94.1339C157.556 94.962 157.616 96.2343 158.446 96.9816C158.83 97.3249 159.315 97.5067 159.801 97.5067C160.347 97.5067 160.913 97.2845 161.298 96.8402H161.338ZM224.53 95.7294C224.53 94.6186 223.62 93.7098 222.508 93.7098H178.775C177.662 93.7098 176.752 94.6186 176.752 95.7294C176.752 96.8402 177.662 97.749 178.775 97.749H222.508C223.62 97.749 224.53 96.8402 224.53 95.7294Z" fill="url(#paint0_linear_931_2831)"/>
<path d="M66.3079 90.1164C62.618 90.1164 59.592 87.0952 59.592 83.4111C59.592 79.7271 62.618 76.7058 66.3079 76.7058C69.9978 76.7058 73.0238 79.7271 73.0238 83.4111C73.0238 87.0952 70.0711 90.1164 66.3079 90.1164ZM62.3979 71.6961C43.5781 71.6961 28.3014 86.9487 28.3014 105.739C28.3014 113.697 31.1055 121.065 35.6811 126.886C39.371 121.654 43.3562 116.718 48.3756 112.664C48.5224 112.517 48.8927 112.296 49.3348 112.001C51.4016 110.454 52.8779 108.169 53.2465 105.591V105.517C54.5009 97.1915 57.8956 94.3168 67.4156 94.3168C68.228 94.3168 69.1871 94.3168 70.0729 94.3901C74.9438 94.6116 77.7479 96.0106 78.0432 96.7484C78.2651 97.1165 78.1899 97.5596 78.1166 98.0009L77.7479 97.9276C74.7219 97.5596 70.1463 98.4439 69.4824 101.76C69.1137 103.602 69.5557 105.666 69.7043 107.508C69.9261 109.423 70.0729 111.413 70.0729 113.328C70.0729 113.475 69.9261 114.213 70.0729 114.286C64.9067 109.35 52.9513 115.539 49.188 118.265C49.5566 118.118 49.9253 117.97 50.369 117.824C53.9856 116.571 64.8333 113.328 69.0404 116.939C72.5835 121.286 69.409 129.319 66.7534 133.298C65.2037 135.656 63.2854 137.793 61.1452 139.635H62.3996C81.2194 139.635 96.4961 124.382 96.4961 105.592C96.4961 86.8021 81.2893 71.6961 62.3979 71.6961Z" fill="url(#paint1_linear_931_2831)"/>
<defs>
<linearGradient id="paint0_linear_931_2831" x1="159.626" y1="235.527" x2="104.062" y2="-20.1104" gradientUnits="userSpaceOnUse">
<stop stop-color="#E1B0A8"/>
<stop offset="1" stop-color="#D3A2E7"/>
</linearGradient>
<linearGradient id="paint1_linear_931_2831" x1="159.626" y1="235.527" x2="104.062" y2="-20.1104" gradientUnits="userSpaceOnUse">
<stop stop-color="#E1B0A8"/>
<stop offset="1" stop-color="#D3A2E7"/>
</linearGradient>
</defs>
</svg>
