<svg width="238" height="222" viewBox="0 0 238 222" fill="none" xmlns="http://www.w3.org/2000/svg">
<g clip-path="url(#clip0_931_2829)">
<path d="M86.8667 144.537H24.8192C23.6817 144.537 22.751 145.468 22.751 146.605C22.751 147.743 23.6817 148.674 24.8192 148.674H86.8667C88.0042 148.674 88.9349 147.743 88.9349 146.605C88.9349 145.468 88.0042 144.537 86.8667 144.537Z" fill="url(#paint0_linear_931_2829)"/>
<path d="M24.8192 161.083H70.3207C71.4582 161.083 72.3889 160.152 72.3889 159.015C72.3889 157.877 71.4582 156.947 70.3207 156.947H24.8192C23.6817 156.947 22.751 157.877 22.751 159.015C22.751 160.152 23.6817 161.083 24.8192 161.083Z" fill="url(#paint1_linear_931_2829)"/>
<path d="M80.6619 169.356H24.8192C23.6817 169.356 22.751 170.287 22.751 171.424C22.751 172.562 23.6817 173.493 24.8192 173.493H80.6619C81.7995 173.493 82.7302 172.562 82.7302 171.424C82.7302 170.287 81.7995 169.356 80.6619 169.356Z" fill="url(#paint2_linear_931_2829)"/>
<path d="M123.471 62.5928H166.808C167.603 62.5928 168.253 61.6621 168.253 60.5245C168.253 59.387 167.603 58.4563 166.808 58.4563H123.471C122.676 58.4563 122.026 59.387 122.026 60.5245C122.026 61.6621 122.676 62.5928 123.471 62.5928Z" fill="url(#paint3_linear_931_2829)"/>
<path d="M123.551 75.0026H157.096C157.934 75.0026 158.621 74.0718 158.621 72.9343C158.621 71.7968 157.934 70.8661 157.096 70.8661H123.551C122.713 70.8661 122.026 71.7968 122.026 72.9343C122.026 74.0718 122.713 75.0026 123.551 75.0026Z" fill="url(#paint4_linear_931_2829)"/>
<path d="M124.095 87.412H179.937C181.075 87.412 182.006 86.4813 182.006 85.3438C182.006 84.2063 181.075 83.2755 179.937 83.2755H124.095C122.957 83.2755 122.026 84.2063 122.026 85.3438C122.026 86.4813 122.957 87.412 124.095 87.412Z" fill="url(#paint5_linear_931_2829)"/>
<path d="M123.991 99.8215H179.979C181.116 99.8215 182.047 98.8908 182.047 97.7533C182.047 96.6157 181.116 95.685 179.979 95.685H123.991C122.854 95.685 121.923 96.6157 121.923 97.7533C121.923 98.8908 122.854 99.8215 123.991 99.8215Z" fill="url(#paint6_linear_931_2829)"/>
<path d="M24.6737 134.982H86.7212C87.8587 134.982 88.7894 134.051 88.7894 132.913C88.7894 131.776 87.8587 130.845 86.7212 130.845H24.6737C23.5362 130.845 22.6055 131.776 22.6055 132.913C22.6055 134.051 23.5362 134.982 24.6737 134.982Z" fill="url(#paint7_linear_931_2829)"/>
<path d="M126.722 137.381C125.956 136.533 124.653 136.45 123.805 137.195C122.957 137.96 122.875 139.263 123.619 140.111L136.794 155.002L123.371 169.894C122.606 170.742 122.668 172.045 123.516 172.81C123.909 173.162 124.405 173.348 124.901 173.348C125.46 173.348 126.039 173.12 126.432 172.665L141.096 156.409C141.799 155.623 141.799 154.444 141.096 153.658L126.68 137.381H126.722Z" fill="url(#paint8_linear_931_2829)"/>
<path d="M177.952 169.46H144.281C143.144 169.46 142.213 170.39 142.213 171.528C142.213 172.665 143.144 173.596 144.281 173.596H177.952C179.09 173.596 180.02 172.665 180.02 171.528C180.02 170.39 179.09 169.46 177.952 169.46Z" fill="url(#paint9_linear_931_2829)"/>
<path d="M37.8489 98.8287C38.2626 99.2837 38.821 99.5112 39.3794 99.5112C39.8758 99.5112 40.3722 99.3457 40.7652 98.9734C41.6132 98.2082 41.6752 96.9052 40.91 96.0572L27.487 81.1658L40.6618 66.2744C41.427 65.4265 41.3443 64.1028 40.4756 63.3582C39.6276 62.6136 38.304 62.6757 37.5594 63.5444L23.1437 79.8215C22.4405 80.6074 22.4612 81.807 23.1437 82.5722L37.8076 98.8287H37.8489Z" fill="url(#paint10_linear_931_2829)"/>
<path d="M45.9772 99.8007C46.2667 99.9248 46.5563 99.9869 46.8459 99.9869C47.6318 99.9869 48.3764 99.5526 48.728 98.7873L64.426 65.3024C64.9017 64.2682 64.4673 63.0273 63.4332 62.5516C62.3991 62.0552 61.1581 62.5102 60.6824 63.5444L44.9844 97.0293C44.5087 98.0634 44.9431 99.3044 45.9772 99.7801V99.8007Z" fill="url(#paint11_linear_931_2829)"/>
<path d="M69.2866 99.6561C69.6796 100.008 70.176 100.194 70.6724 100.194C71.2308 100.194 71.8099 99.9664 72.2029 99.5113L86.8667 83.2549C87.5699 82.469 87.5699 81.2901 86.8667 80.5041L72.451 64.227C71.7065 63.379 70.3828 63.2963 69.5348 64.0409C68.6868 64.8061 68.6041 66.1091 69.3487 66.9571L82.5234 81.8485L69.1005 96.7399C68.3352 97.5879 68.3973 98.8909 69.2453 99.6561H69.2866Z" fill="url(#paint12_linear_931_2829)"/>
<path fill-rule="evenodd" clip-rule="evenodd" d="M210.961 74.4238V212.789C210.961 215.064 209.121 216.926 206.825 216.926H8.27299C5.99792 216.926 4.1365 215.064 4.1365 212.789V46.3781C1.6546 47.8051 0 50.4732 0 53.5342V212.789C0 217.36 3.70216 221.062 8.27299 221.062H206.825C211.396 221.062 215.098 217.36 215.098 212.789V73.5425C213.745 73.9044 212.365 74.1995 210.961 74.4238Z" fill="url(#paint13_linear_931_2829)"/>
</g>
<path d="M208.176 18.2267C204.53 18.2267 201.541 15.2373 201.541 11.5919C201.541 7.94658 204.53 4.95712 208.176 4.95712C211.821 4.95712 214.81 7.94658 214.81 11.5919C214.81 15.2373 211.894 18.2267 208.176 18.2267ZM204.313 0C185.72 0 170.628 15.0923 170.628 33.6849C170.628 41.559 173.398 48.8497 177.919 54.6094C181.564 49.4331 185.501 44.5485 190.46 40.5372C190.605 40.3922 190.971 40.173 191.407 39.8813C193.449 38.3503 194.908 36.0893 195.272 33.5382V33.4657C196.511 25.2274 199.865 22.383 209.27 22.383C210.073 22.383 211.02 22.383 211.895 22.4555C216.707 22.6747 219.478 24.0589 219.769 24.789C219.989 25.1532 219.914 25.5916 219.842 26.0283L219.478 25.9558C216.488 25.5916 211.968 26.4667 211.312 29.7479C210.948 31.5706 211.384 33.6124 211.531 35.4351C211.75 37.3303 211.895 39.2996 211.895 41.1948C211.895 41.3398 211.75 42.0699 211.895 42.1424C206.791 37.2578 194.98 43.3817 191.262 46.0794C191.627 45.9344 191.991 45.7877 192.429 45.6428C196.002 44.4035 206.719 41.1948 210.875 44.7677C214.376 49.0689 211.239 57.0172 208.616 60.9542C207.085 63.2878 205.19 65.4022 203.075 67.2249H204.315C222.907 67.2249 237.999 52.1326 237.999 33.5399C237.999 14.9473 222.976 0 204.313 0Z" fill="url(#paint14_linear_931_2829)"/>
<path fill-rule="evenodd" clip-rule="evenodd" d="M163.641 26.6469H126.164C117.973 26.6469 110.9 31.4039 107.549 38.3118C104.199 31.4039 97.1254 26.6469 88.9351 26.6469H18.6147C12.9063 26.6469 8.27344 31.2798 8.27344 36.9881V204.516C8.27344 209.087 11.9756 212.789 16.5464 212.789H198.552C203.123 212.789 206.825 209.087 206.825 204.516V74.873C206.019 74.9199 205.206 74.9437 204.388 74.9437C203.819 74.9437 203.252 74.9322 202.689 74.9094V185.902C202.689 189.335 199.917 192.107 196.484 192.107H124.095C120.042 192.107 116.381 193.761 113.754 196.45C111.189 199.056 109.618 202.634 109.618 206.584V47.3294C109.618 38.1877 117.022 30.7834 126.164 30.7834H163.152C163.246 29.3843 163.411 28.0043 163.641 26.6469ZM198.552 208.653C200.827 208.653 202.689 206.791 202.689 204.516V202.448C200.951 203.751 198.821 204.516 196.484 204.516H118.925C116.422 204.516 114.333 206.295 113.857 208.653H198.552ZM118.925 200.38H196.484C199.917 200.38 202.689 197.608 202.689 194.175C200.951 195.478 198.821 196.243 196.484 196.243H124.095C120.393 196.243 117.146 198.187 115.326 201.104C116.443 200.649 117.642 200.38 118.925 200.38ZM18.6147 30.7834C15.1814 30.7834 12.4099 33.5548 12.4099 36.9881V185.902C12.4099 189.335 15.1814 192.107 18.6147 192.107H91.0034C95.0571 192.107 98.7179 193.761 101.345 196.45C103.909 199.056 105.481 202.634 105.481 206.584V47.3294C105.481 38.1877 98.0768 30.7834 88.9351 30.7834H18.6147ZM91.0034 196.243H18.6147C16.2776 196.243 14.1473 195.478 12.4099 194.175C12.4099 197.608 15.1814 200.38 18.6147 200.38H96.174C97.4563 200.38 98.6559 200.649 99.7727 201.104C97.9527 198.187 94.7055 196.243 91.0034 196.243ZM18.6147 204.516C16.2776 204.516 14.1473 203.751 12.4099 202.448V204.516C12.4099 206.791 14.2714 208.653 16.5464 208.653H101.241C100.765 206.295 98.6766 204.516 96.174 204.516H18.6147Z" fill="url(#paint15_linear_931_2829)"/>
<defs>
<linearGradient id="paint0_linear_931_2829" x1="134.043" y1="239.47" x2="77.27" y2="11.7142" gradientUnits="userSpaceOnUse">
<stop stop-color="#E1B0A8"/>
<stop offset="1" stop-color="#D3A2E7"/>
</linearGradient>
<linearGradient id="paint1_linear_931_2829" x1="134.043" y1="239.47" x2="77.27" y2="11.7142" gradientUnits="userSpaceOnUse">
<stop stop-color="#E1B0A8"/>
<stop offset="1" stop-color="#D3A2E7"/>
</linearGradient>
<linearGradient id="paint2_linear_931_2829" x1="134.043" y1="239.47" x2="77.27" y2="11.7141" gradientUnits="userSpaceOnUse">
<stop stop-color="#E1B0A8"/>
<stop offset="1" stop-color="#D3A2E7"/>
</linearGradient>
<linearGradient id="paint3_linear_931_2829" x1="130.419" y1="239.469" x2="53.8387" y2="24.8928" gradientUnits="userSpaceOnUse">
<stop stop-color="#E1B0A8"/>
<stop offset="1" stop-color="#D3A2E7"/>
</linearGradient>
<linearGradient id="paint4_linear_931_2829" x1="130.885" y1="239.47" x2="57.4823" y2="22.3814" gradientUnits="userSpaceOnUse">
<stop stop-color="#E1B0A8"/>
<stop offset="1" stop-color="#D3A2E7"/>
</linearGradient>
<linearGradient id="paint5_linear_931_2829" x1="134.043" y1="239.47" x2="77.2695" y2="11.7142" gradientUnits="userSpaceOnUse">
<stop stop-color="#E1B0A8"/>
<stop offset="1" stop-color="#D3A2E7"/>
</linearGradient>
<linearGradient id="paint6_linear_931_2829" x1="134.043" y1="239.47" x2="77.2694" y2="11.7142" gradientUnits="userSpaceOnUse">
<stop stop-color="#E1B0A8"/>
<stop offset="1" stop-color="#D3A2E7"/>
</linearGradient>
<linearGradient id="paint7_linear_931_2829" x1="134.043" y1="239.47" x2="77.2692" y2="11.7142" gradientUnits="userSpaceOnUse">
<stop stop-color="#E1B0A8"/>
<stop offset="1" stop-color="#D3A2E7"/>
</linearGradient>
<linearGradient id="paint8_linear_931_2829" x1="134.737" y1="178.603" x2="115.259" y2="141.064" gradientUnits="userSpaceOnUse">
<stop stop-color="#E1B0A8"/>
<stop offset="1" stop-color="#D3A2E7"/>
</linearGradient>
<linearGradient id="paint9_linear_931_2829" x1="166.162" y1="174.189" x2="166.005" y2="168.818" gradientUnits="userSpaceOnUse">
<stop stop-color="#E1B0A8"/>
<stop offset="1" stop-color="#D3A2E7"/>
</linearGradient>
<linearGradient id="paint10_linear_931_2829" x1="34.5459" y1="104.767" x2="15.0829" y2="67.1957" gradientUnits="userSpaceOnUse">
<stop stop-color="#E1B0A8"/>
<stop offset="1" stop-color="#D3A2E7"/>
</linearGradient>
<linearGradient id="paint11_linear_931_2829" x1="57.3508" y1="105.381" x2="37.6753" y2="66.4005" gradientUnits="userSpaceOnUse">
<stop stop-color="#E1B0A8"/>
<stop offset="1" stop-color="#D3A2E7"/>
</linearGradient>
<linearGradient id="paint12_linear_931_2829" x1="80.4922" y1="105.449" x2="61.0397" y2="67.8751" gradientUnits="userSpaceOnUse">
<stop stop-color="#E1B0A8"/>
<stop offset="1" stop-color="#D3A2E7"/>
</linearGradient>
<linearGradient id="paint13_linear_931_2829" x1="136.251" y1="246.1" x2="89.4141" y2="29.1973" gradientUnits="userSpaceOnUse">
<stop stop-color="#E1B0A8"/>
<stop offset="1" stop-color="#D3A2E7"/>
</linearGradient>
<linearGradient id="paint14_linear_931_2829" x1="213.304" y1="76.8604" x2="191.649" y2="-4.75868" gradientUnits="userSpaceOnUse">
<stop stop-color="#E1B0A8"/>
<stop offset="1" stop-color="#D3A2E7"/>
</linearGradient>
<linearGradient id="paint15_linear_931_2829" x1="134.044" y1="239.47" x2="77.2702" y2="11.7141" gradientUnits="userSpaceOnUse">
<stop stop-color="#E1B0A8"/>
<stop offset="1" stop-color="#D3A2E7"/>
</linearGradient>
<clipPath id="clip0_931_2829">
<rect width="215.098" height="194.415" fill="white" transform="translate(0 26.6469)"/>
</clipPath>
</defs>
</svg>
