<svg width="60" height="60" viewBox="0 0 60 60" fill="none" xmlns="http://www.w3.org/2000/svg">
<g id="community">
<g id="Color">
<path fill-rule="evenodd" clip-rule="evenodd" d="M21.6231 11.1518C21.6231 13.5024 22.5913 15.6268 24.1505 17.1481C25.6603 18.6212 27.7242 19.5288 30.0001 19.5288C32.276 19.5288 34.34 18.6212 35.8497 17.1481C37.409 15.6268 38.3771 13.5024 38.3771 11.1518C38.3771 6.52534 34.6266 2.77484 30.0001 2.77484C25.3736 2.77484 21.6231 6.52534 21.6231 11.1518ZM27.9059 14.8167C26.6431 14.8167 25.5108 15.3756 24.7429 16.2594C26.0747 17.6301 27.938 18.4816 30.0001 18.4816C32.0623 18.4816 33.9255 17.6301 35.2574 16.2594C34.4894 15.3756 33.3572 14.8167 32.0944 14.8167H27.9059ZM26.3352 10.1047C26.3352 12.1288 27.976 13.7696 30.0001 13.7696C32.0242 13.7696 33.665 12.1288 33.665 10.1047C33.665 8.0806 32.0242 6.43976 30.0001 6.43976C27.976 6.43976 26.3352 8.0806 26.3352 10.1047Z" fill="#E8E8F7"/>
<path fill-rule="evenodd" clip-rule="evenodd" d="M42.9986 35.9963C41.4393 34.475 40.4712 32.3505 40.4712 30C40.4712 25.3735 44.2217 21.623 48.8482 21.623C53.4747 21.623 57.2252 25.3735 57.2252 30C57.2252 32.3505 56.257 34.475 54.6978 35.9963C53.188 37.4693 51.1241 38.3769 48.8482 38.3769C46.5723 38.3769 44.5083 37.4693 42.9986 35.9963ZM43.5909 35.1076C44.3588 34.2237 45.4911 33.6649 46.7539 33.6649H50.9424C52.2052 33.6649 53.3375 34.2237 54.1054 35.1076C52.7736 36.4782 50.9103 37.3298 48.8482 37.3298C46.786 37.3298 44.9228 36.4782 43.5909 35.1076ZM48.8482 32.6178C46.8241 32.6178 45.1833 30.9769 45.1833 28.9528C45.1833 26.9288 46.8241 25.2879 48.8482 25.2879C50.8723 25.2879 52.5131 26.9288 52.5131 28.9528C52.5131 30.9769 50.8723 32.6178 48.8482 32.6178Z" fill="#E8E8F7"/>
<path fill-rule="evenodd" clip-rule="evenodd" d="M5.3023 35.9963C3.74303 34.475 2.7749 32.3505 2.7749 30C2.7749 25.3735 6.52541 21.623 11.1519 21.623C15.7784 21.623 19.5289 25.3735 19.5289 30C19.5289 32.3505 18.5607 34.475 17.0015 35.9963C15.4917 37.4693 13.4278 38.3769 11.1519 38.3769C8.87597 38.3769 6.81205 37.4693 5.3023 35.9963ZM5.89462 35.1076C6.66255 34.2237 7.79483 33.6649 9.05764 33.6649H13.2461C14.5089 33.6649 15.6412 34.2237 16.4092 35.1076C15.0773 36.4783 13.214 37.3298 11.1519 37.3298C9.08975 37.3298 7.2265 36.4783 5.89462 35.1076ZM11.1519 32.6178C9.1278 32.6178 7.48695 30.9769 7.48695 28.9529C7.48695 26.9288 9.1278 25.2879 11.1519 25.2879C13.176 25.2879 14.8168 26.9288 14.8168 28.9529C14.8168 30.9769 13.176 32.6178 11.1519 32.6178Z" fill="#E8E8F7"/>
<path fill-rule="evenodd" clip-rule="evenodd" d="M24.1505 54.8445C22.5913 53.3232 21.6231 51.1987 21.6231 48.8481C21.6231 44.2217 25.3736 40.4712 30.0001 40.4712C34.6266 40.4712 38.3771 44.2217 38.3771 48.8481C38.3771 51.1987 37.409 53.3232 35.8497 54.8445C34.34 56.3175 32.276 57.2251 30.0001 57.2251C27.7242 57.2251 25.6603 56.3175 24.1505 54.8445ZM24.7429 53.9558C25.5108 53.0719 26.6431 52.5131 27.9059 52.5131H32.0944C33.3572 52.5131 34.4894 53.0719 35.2574 53.9558C33.9255 55.3264 32.0623 56.178 30.0001 56.178C27.938 56.178 26.0747 55.3264 24.7429 53.9558ZM30.0001 51.4659C27.976 51.4659 26.3352 49.8251 26.3352 47.801C26.3352 45.7769 27.976 44.1361 30.0001 44.1361C32.0242 44.1361 33.665 45.7769 33.665 47.801C33.665 49.8251 32.0242 51.4659 30.0001 51.4659Z" fill="#E8E8F7"/>
<path d="M15.9229 38.129L21.8712 44.0772C22.0521 43.7695 22.2501 43.473 22.4637 43.189L16.8112 37.5364C16.5271 37.75 16.2306 37.948 15.9229 38.129Z" fill="#E8E8F7"/>
<path d="M43.7535 37.9295C43.4556 37.7377 43.1692 37.5296 42.8957 37.3064L37.3065 42.8956C37.5296 43.1692 37.7378 43.4555 37.9295 43.7534L43.7535 37.9295Z" fill="#E8E8F7"/>
<path d="M17.2831 22.843L22.843 17.2832C23.0704 17.5484 23.3124 17.8009 23.5676 18.0393L18.0393 23.5677C17.8008 23.3125 17.5484 23.0705 17.2831 22.843Z" fill="#E8E8F7"/>
<path d="M29.4765 20.5616V25.3167C27.2924 25.5582 25.5582 27.2923 25.3167 29.4764H20.5616C20.571 29.6497 20.5759 29.8243 20.5759 30C20.5759 30.1757 20.571 30.3502 20.5616 30.5235H25.3167C25.5582 32.7076 27.2924 34.4418 29.4765 34.6833V39.4384C29.6498 39.4289 29.8244 39.4241 30.0002 39.4241C30.1758 39.4241 30.3503 39.4289 30.5236 39.4384V34.6833C32.7077 34.4418 34.4419 32.7076 34.6833 30.5235H39.4384C39.4289 30.3502 39.4241 30.1757 39.4241 30C39.4241 29.8243 39.4289 29.6497 39.4384 29.4764H34.6833C34.4419 27.2923 32.7077 25.5581 30.5236 25.3167V20.5616C30.3503 20.5711 30.1759 20.5759 30.0002 20.5759C29.8245 20.5759 29.6499 20.5711 29.4765 20.5616Z" fill="#E8E8F7"/>
<path d="M41.8242 23.7165L36.2834 18.1757C36.5437 17.9428 36.7909 17.6956 37.0239 17.4353L42.5646 22.9761C42.3044 23.209 42.0572 23.4563 41.8242 23.7165Z" fill="#E8E8F7"/>
</g>
</g>
</svg>
