<svg width="56" height="57" viewBox="0 0 56 57" fill="none" xmlns="http://www.w3.org/2000/svg">
<g id="community">
<g id="Color">
<path fill-rule="evenodd" clip-rule="evenodd" d="M20.1815 11.3454C20.1815 13.5392 21.0851 15.522 22.5404 16.9419C23.9495 18.3168 25.8759 19.1639 28 19.1639C30.1242 19.1639 32.0506 18.3168 33.4597 16.9419C34.915 15.522 35.8186 13.5392 35.8186 11.3454C35.8186 7.02732 32.3181 3.52686 28 3.52686C23.682 3.52686 20.1815 7.02732 20.1815 11.3454ZM26.0454 14.7659C24.8668 14.7659 23.81 15.2875 23.0933 16.1125C24.3364 17.3918 26.0754 18.1865 28 18.1865C29.9247 18.1865 31.6637 17.3918 32.9068 16.1125C32.1901 15.2875 31.1333 14.7659 29.9547 14.7659H26.0454ZM24.5794 10.368C24.5794 12.2572 26.1109 13.7886 28 13.7886C29.8892 13.7886 31.4206 12.2572 31.4206 10.368C31.4206 8.4789 29.8892 6.94745 28 6.94745C26.1109 6.94745 24.5794 8.4789 24.5794 10.368Z" fill="#090949"/>
<path fill-rule="evenodd" clip-rule="evenodd" d="M40.132 34.5336C38.6766 33.1136 37.7731 31.1308 37.7731 28.937C37.7731 24.6189 41.2735 21.1185 45.5916 21.1185C49.9096 21.1185 53.4101 24.6189 53.4101 28.937C53.4101 31.1308 52.5065 33.1136 51.0512 34.5336C49.6421 35.9084 47.7158 36.7555 45.5916 36.7555C43.4674 36.7555 41.5411 35.9084 40.132 34.5336ZM40.6848 33.7041C41.4015 32.8792 42.4583 32.3576 43.6369 32.3576H47.5462C48.7248 32.3576 49.7816 32.8792 50.4984 33.7041C49.2553 34.9834 47.5162 35.7782 45.5916 35.7782C43.6669 35.7782 41.9279 34.9834 40.6848 33.7041ZM45.5916 31.3803C43.7024 31.3803 42.171 29.8488 42.171 27.9597C42.171 26.0705 43.7024 24.5391 45.5916 24.5391C47.4807 24.5391 49.0122 26.0705 49.0122 27.9597C49.0122 29.8488 47.4807 31.3803 45.5916 31.3803Z" fill="#090949"/>
<path fill-rule="evenodd" clip-rule="evenodd" d="M4.94875 34.5336C3.49343 33.1137 2.58984 31.1308 2.58984 28.937C2.58984 24.6189 6.09031 21.1185 10.4084 21.1185C14.7264 21.1185 18.2269 24.6189 18.2269 28.937C18.2269 31.1308 17.3233 33.1137 15.868 34.5336C14.4589 35.9084 12.5325 36.7555 10.4084 36.7555C8.28418 36.7555 6.35785 35.9084 4.94875 34.5336ZM5.50158 33.7041C6.21832 32.8792 7.27511 32.3576 8.45373 32.3576H12.363C13.5416 32.3576 14.5984 32.8792 15.3151 33.7041C14.0721 34.9834 12.333 35.7782 10.4084 35.7782C8.4837 35.7782 6.74467 34.9834 5.50158 33.7041ZM10.4084 31.3803C8.51921 31.3803 6.98776 29.8488 6.98776 27.9597C6.98776 26.0705 8.51921 24.5391 10.4084 24.5391C12.2975 24.5391 13.829 26.0705 13.829 27.9597C13.829 29.8488 12.2975 31.3803 10.4084 31.3803Z" fill="#090949"/>
<path fill-rule="evenodd" clip-rule="evenodd" d="M22.5404 52.1252C21.0851 50.7053 20.1815 48.7225 20.1815 46.5286C20.1815 42.2106 23.682 38.7101 28 38.7101C32.3181 38.7101 35.8186 42.2106 35.8186 46.5286C35.8186 48.7225 34.915 50.7053 33.4597 52.1252C32.0506 53.5 30.1242 54.3471 28 54.3471C25.8759 54.3471 23.9495 53.5 22.5404 52.1252ZM23.0933 51.2957C23.81 50.4708 24.8668 49.9492 26.0454 49.9492H29.9547C31.1333 49.9492 32.1901 50.4708 32.9068 51.2957C31.6637 52.575 29.9247 53.3698 28 53.3698C26.0754 53.3698 24.3364 52.575 23.0933 51.2957ZM28 48.9719C26.1109 48.9719 24.5794 47.4404 24.5794 45.5513C24.5794 43.6621 26.1109 42.1307 28 42.1307C29.8892 42.1307 31.4206 43.6621 31.4206 45.5513C31.4206 47.4404 29.8892 48.9719 28 48.9719Z" fill="#090949"/>
<path d="M14.8613 36.524L20.413 42.0758C20.5819 41.7886 20.7667 41.5118 20.9661 41.2467L15.6903 35.971C15.4252 36.1704 15.1485 36.3551 14.8613 36.524Z" fill="#090949"/>
<path d="M40.8365 36.3378C40.5585 36.1588 40.2912 35.9646 40.0359 35.7563L34.8193 40.9729C35.0276 41.2282 35.2218 41.4955 35.4008 41.7735L40.8365 36.3378Z" fill="#090949"/>
<path d="M16.1308 22.2571L21.32 17.0679C21.5323 17.3155 21.7582 17.5512 21.9964 17.7737L16.8366 22.9335C16.614 22.6953 16.3784 22.4695 16.1308 22.2571Z" fill="#090949"/>
<path d="M27.5113 20.1278V24.5659C25.4728 24.7913 23.8542 26.4099 23.6289 28.4483H19.1907C19.1996 28.6101 19.2041 28.773 19.2041 28.937C19.2041 29.101 19.1996 29.2639 19.1907 29.4256H23.6289C23.8542 31.4641 25.4728 33.0827 27.5113 33.3081V37.7462C27.6731 37.7373 27.8361 37.7328 28.0001 37.7328C28.164 37.7328 28.3269 37.7373 28.4886 37.7461V33.3081C30.5271 33.0827 32.1457 31.4641 32.371 29.4256H36.8091C36.8002 29.2639 36.7957 29.101 36.7957 28.937C36.7957 28.773 36.8002 28.6101 36.8091 28.4483H32.371C32.1457 26.4098 30.5271 24.7913 28.4886 24.5659V20.1278C28.3269 20.1367 28.1641 20.1412 28.0002 20.1412C27.8361 20.1412 27.6731 20.1367 27.5113 20.1278Z" fill="#090949"/>
<path d="M39.0359 23.0724L33.8645 17.901C34.1074 17.6836 34.3381 17.4529 34.5556 17.21L39.7269 22.3813C39.484 22.5988 39.2533 22.8295 39.0359 23.0724Z" fill="#090949"/>
</g>
</g>
</svg>
