<svg width="104" height="103" viewBox="0 0 104 103" fill="none" xmlns="http://www.w3.org/2000/svg">
<path fill-rule="evenodd" clip-rule="evenodd" d="M17 2H16C14.8954 2 14 2.89543 14 4V14C14 15.1046 14.8954 16 16 16H17C18.1046 16 19 15.1046 19 14V4C19 2.89543 18.1046 2 17 2ZM16 0C13.7909 0 12 1.79086 12 4V14C12 16.2091 13.7909 18 16 18H17C19.2091 18 21 16.2091 21 14V4C21 1.79086 19.2091 0 17 0H16ZM73 2H72C70.8954 2 70 2.89543 70 4V14C70 15.1046 70.8954 16 72 16H73C74.1046 16 75 15.1046 75 14V4C75 2.89543 74.1046 2 73 2ZM72 0C69.7909 0 68 1.79086 68 4V14C68 16.2091 69.7909 18 72 18H73C75.2091 18 77 16.2091 77 14V4C77 1.79086 75.2091 0 73 0H72ZM44 2H45C46.1046 2 47 2.89543 47 4V14C47 15.1046 46.1046 16 45 16H44C42.8954 16 42 15.1046 42 14V4C42 2.89543 42.8954 2 44 2ZM40 4C40 1.79086 41.7909 0 44 0H45C47.2091 0 49 1.79086 49 4V14C49 16.2091 47.2091 18 45 18H44C41.7909 18 40 16.2091 40 14V4ZM51 8H66V10H51V8ZM82 10H79V8H82C85.866 8 89 11.134 89 15V25V59.7905C88.3445 59.6138 87.6773 59.4654 87 59.3466V26L2 26V75C2 77.7614 4.23858 80 7 80H60.0858C60.029 80.6591 60 81.3262 60 82H7C3.13401 82 0 78.866 0 75V25V15C0 11.134 3.13401 8 7 8H10V10H7C4.23858 10 2 12.2386 2 15V24L87 24V15C87 12.2386 84.7614 10 82 10ZM38 8H23V10H38V8ZM20 49V57H12V49H20ZM10 49C10 47.8954 10.8954 47 12 47H20C21.1046 47 22 47.8954 22 49V57C22 58.1046 21.1046 59 20 59H12C10.8954 59 10 58.1046 10 57V49ZM39 49H31V57H39V49ZM31 47C29.8954 47 29 47.8954 29 49V57C29 58.1046 29.8954 59 31 59H39C40.1046 59 41 58.1046 41 57V49C41 47.8954 40.1046 47 39 47H31ZM50 49H58V57H50V49ZM48 49C48 47.8954 48.8954 47 50 47H58C59.1046 47 60 47.8954 60 49V57C60 58.1046 59.1046 59 58 59H50C48.8954 59 48 58.1046 48 57V49ZM58 33H50V41H58V33ZM50 31C48.8954 31 48 31.8954 48 33V41C48 42.1046 48.8954 43 50 43H58C59.1046 43 60 42.1046 60 41V33C60 31.8954 59.1046 31 58 31H50ZM77 49V57H69V49H77ZM67 49C67 47.8954 67.8954 47 69 47H77C78.1046 47 79 47.8954 79 49V57C79 58.1046 78.1046 59 77 59H69C67.8954 59 67 58.1046 67 57V49ZM69 33V41H77V33H69ZM69 31C67.8954 31 67 31.8954 67 33V41C67 42.1046 67.8954 43 69 43H77C78.1046 43 79 42.1046 79 41V33C79 31.8954 78.1046 31 77 31H69ZM20 65V73H12V65H20ZM10 65C10 63.8954 10.8954 63 12 63H20C21.1046 63 22 63.8954 22 65V73C22 74.1046 21.1046 75 20 75H12C10.8954 75 10 74.1046 10 73V65ZM39 65H31V73H39V65ZM31 63C29.8954 63 29 63.8954 29 65V73C29 74.1046 29.8954 75 31 75H39C40.1046 75 41 74.1046 41 73V65C41 63.8954 40.1046 63 39 63H31ZM50 65H58V73H50V65ZM48 65C48 63.8954 48.8954 63 50 63H58C59.1046 63 60 63.8954 60 65V73C60 74.1046 59.1046 75 58 75H50C48.8954 75 48 74.1046 48 73V65ZM104 82C104 93.598 94.598 103 83 103C71.402 103 62 93.598 62 82C62 70.402 71.402 61 83 61C94.598 61 104 70.402 104 82ZM91.6338 78.2551L79.8184 89.723L73.4121 83.5051L75.4066 81.4502L79.8184 85.7323L89.6394 76.2002L91.6338 78.2551Z" fill="url(#paint0_linear_1848_750808)"/>
<defs>
<linearGradient id="paint0_linear_1848_750808" x1="104" y1="-33.0377" x2="-48.4521" y2="4.53521" gradientUnits="userSpaceOnUse">
<stop stop-color="#81D2FF"/>
<stop offset="0.963542" stop-color="#5B5F68"/>
</linearGradient>
</defs>
</svg>
