<svg width="1512" height="2128" viewBox="0 0 1512 2128" fill="none" xmlns="http://www.w3.org/2000/svg">
<mask id="mask0_937_8657" style="mask-type:alpha" maskUnits="userSpaceOnUse" x="-593" y="359" width="2655" height="1769">
<rect x="-592.586" y="704.576" width="2477.79" height="1437.06" transform="rotate(-8 -592.586 704.576)" fill="#EC796B"/>
</mask>
<g mask="url(#mask0_937_8657)">
<path opacity="0.5" d="M1067.18 695.546L1067.18 695.546C1049.5 700.888 1035.6 714.437 1029.91 731.844L1029.43 731.689L1029.91 731.845L1001.63 818.205C997.572 830.614 979.771 830.481 975.915 818.002L948.952 731.253C943.517 713.781 929.812 700.007 912.231 694.375L824.839 666.421C812.283 662.408 812.424 644.831 825.042 640.987L825.043 640.987L912.83 614.332C912.83 614.332 912.83 614.332 912.83 614.332C930.509 608.957 944.408 595.408 950.104 578.033L978.381 491.674C982.44 479.265 1000.24 479.396 1004.1 491.843L1031.06 578.625C1036.5 596.097 1050.2 609.839 1067.78 615.471L1155.17 643.424L1155.17 643.424C1167.69 647.437 1167.59 665.047 1154.97 668.859L1067.18 695.546Z" stroke="#0C0C4F" stroke-opacity="0.44"/>
<path opacity="0.5" d="M996.944 669.842L996.944 669.841C997.908 666.903 1000.26 664.613 1003.26 663.71L1003.26 663.71L1018.77 659.007L996.944 669.842ZM996.944 669.842L991.947 685.061C991.105 687.628 987.418 687.602 986.618 685.019L981.853 669.732C981.853 669.731 981.853 669.731 981.853 669.731C980.933 666.782 978.612 664.454 975.631 663.502L960.187 658.576C957.581 657.745 957.614 654.101 960.228 653.307L960.229 653.306L975.743 648.609C975.743 648.609 975.743 648.609 975.743 648.609C978.741 647.7 981.094 645.41 982.058 642.477L987.056 627.258C987.897 624.692 991.583 624.716 992.384 627.294L997.149 642.588C997.149 642.588 997.149 642.588 997.149 642.588C998.069 645.537 1000.39 647.859 1003.37 648.811C1003.37 648.811 1003.37 648.811 1003.37 648.811L1018.82 653.738L1018.82 653.738M996.944 669.842L1018.82 653.738M1018.82 653.738C1021.41 654.567 1021.39 658.217 1018.77 659.007L1018.82 653.738Z" stroke="#0C0C4F" stroke-opacity="0.44"/>
<path opacity="0.5" d="M1009.58 693.745L1009.58 693.745C1012.38 685.171 1019.23 678.496 1027.94 675.864L1027.94 675.864L1071.58 662.598L1009.58 693.745ZM1009.58 693.745L995.521 736.674C993.427 743.076 984.247 743.008 982.258 736.57L968.854 693.448C966.176 684.842 959.425 678.056 950.763 675.281C950.763 675.281 950.762 675.281 950.762 675.281L907.317 661.385C900.84 659.315 900.914 650.244 907.422 648.262L907.422 648.262L951.063 635.012C951.063 635.012 951.064 635.012 951.064 635.012C959.775 632.364 966.622 625.689 969.428 617.13L983.485 574.202C985.579 567.801 994.758 567.867 996.748 574.29L1010.15 617.428C1012.83 626.034 1019.58 632.804 1028.24 635.579L1071.69 649.475L1071.69 649.475M1009.58 693.745L1071.69 649.475M1071.69 649.475C1078.15 651.544 1078.1 660.631 1071.58 662.598L1071.69 649.475Z" stroke="#0C0C4F" stroke-opacity="0.44"/>
<g opacity="0.5">
<path d="M-439.5 1803.44H-289.5C-206.657 1803.44 -139.5 1736.28 -139.5 1653.44V873.437C-139.5 674.615 21.6775 513.437 220.5 513.437C419.323 513.437 580.5 674.615 580.5 873.437V1171.44C580.5 1254.28 647.657 1321.44 730.5 1321.44H2724.5" stroke="#0C0C4F" stroke-opacity="0.44"/>
<path d="M-439.5 1853.44H-289.5C-179.043 1853.44 -89.5 1763.89 -89.5 1653.44V873.437C-89.5 702.229 49.2917 563.437 220.5 563.437C391.708 563.437 530.5 702.229 530.5 873.437V1171.44C530.5 1281.89 620.043 1371.44 730.5 1371.44H2722.5" stroke="#0C0C4F" stroke-opacity="0.44"/>
<path d="M-439.5 1903.44H-289.5C-151.429 1903.44 -39.5 1791.51 -39.5 1653.44V873.437C-39.5 729.843 76.906 613.437 220.5 613.437C364.094 613.437 480.5 729.843 480.5 873.437V1171.44C480.5 1309.51 592.429 1421.44 730.5 1421.44H2761.5" stroke="#0C0C4F" stroke-opacity="0.44"/>
<path d="M-439.5 1953.44H-289.5C-123.815 1953.44 10.5 1819.12 10.5 1653.44V873.437C10.5 757.457 104.52 663.437 220.5 663.437C336.48 663.437 430.5 757.457 430.5 873.437V1171.44C430.5 1337.12 564.815 1471.44 730.5 1471.44H2729.5" stroke="#0C0C4F" stroke-opacity="0.44"/>
<path d="M-439.5 2003.44H-279.5C-91.7232 2003.44 60.5 1851.21 60.5 1663.44V873.437C60.5 785.071 132.134 713.437 220.5 713.437C308.866 713.437 380.5 785.071 380.5 873.437V1171.44C380.5 1364.74 537.2 1521.44 730.5 1521.44H2741.5" stroke="#0C0C4F" stroke-opacity="0.44"/>
</g>
<g opacity="0.5">
<path d="M2305.5 33.4375H2155.5C2072.66 33.4375 2005.5 100.595 2005.5 183.438V963.437C2005.5 1162.26 1844.32 1323.44 1645.5 1323.44C1446.68 1323.44 1285.5 1162.26 1285.5 963.437V665.437C1285.5 582.595 1218.34 515.437 1135.5 515.437L-858.5 515.438" stroke="#0C0C4F" stroke-opacity="0.44"/>
<path d="M2305.5 -16.5625H2155.5C2045.04 -16.5625 1955.5 72.9806 1955.5 183.438V963.437C1955.5 1134.65 1816.71 1273.44 1645.5 1273.44C1474.29 1273.44 1335.5 1134.65 1335.5 963.437V665.438C1335.5 554.981 1245.96 465.437 1135.5 465.437L-856.5 465.438" stroke="#0C0C4F" stroke-opacity="0.44"/>
<path d="M2305.5 -66.5625H2155.5C2017.43 -66.5625 1905.5 45.3663 1905.5 183.438V963.437C1905.5 1107.03 1789.09 1223.44 1645.5 1223.44C1501.91 1223.44 1385.5 1107.03 1385.5 963.437V665.437C1385.5 527.366 1273.57 415.437 1135.5 415.437L-895.5 415.438" stroke="#0C0C4F" stroke-opacity="0.44"/>
<path d="M2305.5 -116.563H2155.5C1989.81 -116.563 1855.5 17.7521 1855.5 183.438V963.437C1855.5 1079.42 1761.48 1173.44 1645.5 1173.44C1529.52 1173.44 1435.5 1079.42 1435.5 963.437V665.437C1435.5 499.752 1301.19 365.437 1135.5 365.437L-863.5 365.438" stroke="#0C0C4F" stroke-opacity="0.44"/>
<path d="M2305.5 -166.563H2145.5C1957.72 -166.563 1805.5 -14.3393 1805.5 173.438V963.437C1805.5 1051.8 1733.87 1123.44 1645.5 1123.44C1557.13 1123.44 1485.5 1051.8 1485.5 963.437V665.438C1485.5 472.138 1328.8 315.437 1135.5 315.437L-875.5 315.438" stroke="#0C0C4F" stroke-opacity="0.44"/>
</g>
<g opacity="0.5">
<path d="M1817.5 1315.7H1592.5C1468.24 1315.7 1367.5 1416.43 1367.5 1540.7V2710.7C1367.5 3008.93 1125.73 3250.7 827.5 3250.7C529.266 3250.7 287.5 3008.93 287.5 2710.7V2263.7C287.5 2139.43 186.764 2038.7 62.5 2038.7L-2928.5 2038.7" stroke="#0C0C4F" stroke-opacity="0.44"/>
<path d="M1817.5 1240.7H1592.5C1426.81 1240.7 1292.5 1375.01 1292.5 1540.7V2710.7C1292.5 2967.51 1084.31 3175.7 827.5 3175.7C570.688 3175.7 362.5 2967.51 362.5 2710.7V2263.7C362.5 2098.01 228.185 1963.7 62.5 1963.7L-2925.5 1963.7" stroke="#0C0C4F" stroke-opacity="0.44"/>
<path d="M1817.5 1165.7H1592.5C1385.39 1165.7 1217.5 1333.59 1217.5 1540.7V2710.7C1217.5 2926.09 1042.89 3100.7 827.5 3100.7C612.109 3100.7 437.5 2926.09 437.5 2710.7V2263.7C437.5 2056.59 269.607 1888.7 62.5 1888.7L-2984 1888.7" stroke="#0C0C4F" stroke-opacity="0.44"/>
<path d="M1817.5 1090.7H1592.5C1343.97 1090.7 1142.5 1292.17 1142.5 1540.7V2710.7C1142.5 2884.67 1001.47 3025.7 827.5 3025.7C653.53 3025.7 512.5 2884.67 512.5 2710.7V2263.7C512.5 2015.17 311.028 1813.7 62.5 1813.7L-2936 1813.7" stroke="#0C0C4F" stroke-opacity="0.44"/>
<path d="M1817.5 1015.7H1577.5C1295.83 1015.7 1067.5 1244.03 1067.5 1525.7V2710.7C1067.5 2843.24 960.048 2950.7 827.5 2950.7C694.952 2950.7 587.5 2843.24 587.5 2710.7V2263.7C587.5 1973.75 352.45 1738.7 62.5 1738.7L-2954 1738.7" stroke="#0C0C4F" stroke-opacity="0.44"/>
</g>
</g>
</svg>
