<svg width="120" height="120" viewBox="0 0 120 120" fill="none" xmlns="http://www.w3.org/2000/svg">
<path d="M60 120C93.1371 120 120 93.1371 120 60C120 26.8629 93.1371 0 60 0C26.8629 0 0 26.8629 0 60C0 93.1371 26.8629 120 60 120Z" fill="url(#paint0_linear)"/>
<path d="M59.9912 21.3335C38.6536 21.3335 21.3335 38.6536 21.3335 59.9912C21.3335 81.3289 38.6536 98.6668 59.9912 98.6668C81.3289 98.6668 98.6668 81.3467 98.6668 59.9912C98.6668 38.6357 81.3467 21.3335 59.9912 21.3335ZM49.9384 81.1682C49.9384 81.3646 49.7777 81.5253 49.5813 81.5253H42.0462C41.8498 81.5253 41.6891 81.3646 41.6891 81.1682V51.9383C41.6891 51.7419 41.8498 51.5812 42.0462 51.5812H49.5813C49.7777 51.5812 49.9384 51.7419 49.9384 51.9383V81.1682ZM45.7959 47.5101C43.1711 47.5101 41.0998 45.5638 41.0998 42.9925C41.0998 40.4213 43.1711 38.475 45.7959 38.475C48.4921 38.475 50.5455 40.4213 50.5455 42.9925C50.5455 45.5638 48.4921 47.5101 45.7959 47.5101ZM64.2231 81.1503C64.2231 81.3467 64.0624 81.5074 63.8659 81.5074H56.3308C56.1344 81.5074 55.9737 81.3467 55.9737 81.1503V38.8321C55.9737 38.6357 56.1344 38.475 56.3308 38.475H63.8659C64.0624 38.475 64.2231 38.6357 64.2231 38.8321V81.1503ZM78.4898 81.1682C78.4898 81.3646 78.3291 81.5253 78.1327 81.5253H70.6154C70.419 81.5253 70.2583 81.3646 70.2583 81.1682V51.9383C70.2583 51.7419 70.419 51.5812 70.6154 51.5812H78.1506C78.347 51.5812 78.5077 51.7419 78.5077 51.9383V81.1682H78.4898ZM78.9005 47.1708C78.9005 47.3672 78.7398 47.5279 78.5434 47.5279H70.2226C70.0262 47.5279 69.8655 47.3672 69.8655 47.1708V38.8321C69.8655 38.6357 70.0262 38.475 70.2226 38.475H78.5434C78.7398 38.475 78.9005 38.6357 78.9005 38.8321V47.1708Z" fill="white"/>
<defs>
<linearGradient id="paint0_linear" x1="18.0754" y1="108.789" x2="94.4753" y2="19.872" gradientUnits="userSpaceOnUse">
<stop offset="0.4214" stop-color="#2C56DD"/>
<stop offset="1" stop-color="#849AE5"/>
</linearGradient>
</defs>
</svg>
