<svg width="164" height="164" viewBox="0 0 164 164" fill="none" xmlns="http://www.w3.org/2000/svg">
<circle cx="82" cy="82" r="82" fill="#F8545C"/>
<path fill-rule="evenodd" clip-rule="evenodd" d="M74.1211 126.808C101.272 130.579 125.965 114.327 129.274 90.5056C132.584 66.6848 113.256 44.3164 86.1049 40.5445C74.9975 39.0014 64.3014 40.8097 55.3125 45.1166C60.6975 43.5977 66.5324 42.9092 72.5916 43.2211C97.8678 44.5222 117.475 62.739 116.385 83.9095C115.295 105.08 93.9216 121.188 68.6454 119.886C59.433 119.412 50.9736 116.691 43.995 112.399C51.6587 119.846 62.1264 125.141 74.1211 126.808Z" fill="#102636"/>
<path fill-rule="evenodd" clip-rule="evenodd" d="M40.8293 57.0693C32.9283 62.6633 27.5681 81.94 34.0488 93.9756C38.3171 101.902 54.1632 106.259 68.7127 105.91C86.8921 105.91 99.5058 95.1614 99.5058 81.912C99.5058 69.2854 89.6587 55.5801 55.1487 55.5801C50.4974 55.5886 45.2644 56.1074 40.8293 57.0693ZM38.8115 78.5732C41.2117 75.7283 44.5444 74.1072 48.0435 74.4733C51.5426 74.8394 54.4677 77.1152 56.2271 80.3952C56.472 73.3758 53.3251 67.567 48.8154 67.0952C44.3057 66.6234 40.0247 71.6551 38.8115 78.5732ZM77.1363 78.5219C73.6372 78.1558 70.3045 79.7769 67.9043 82.6218C69.1172 75.703 73.3984 70.6706 77.9084 71.1424C82.4185 71.6143 85.5655 77.424 85.3201 84.4441C83.5607 81.1639 80.6355 78.888 77.1363 78.5219Z" fill="#102636"/>
</svg>
