<svg xmlns="http://www.w3.org/2000/svg" width="61" height="60" viewBox="0 0 61 60" fill="none">
<path fill-rule="evenodd" clip-rule="evenodd" d="M56.4103 9.01359C56.4103 6.2022 54.131 3.9231 51.3198 3.9231C48.7681 3.9231 46.6548 5.80084 46.2859 8.25002H45.2112V9.26812H46.2357C46.368 11.9613 48.5936 14.1041 51.3198 14.1041C54.131 14.1041 56.4103 11.825 56.4103 9.01359ZM51.3198 4.9412C53.5687 4.9412 55.3922 6.76444 55.3922 9.01359C55.3922 11.2627 53.5687 13.086 51.3198 13.086C49.0708 13.086 47.2474 11.2627 47.2474 9.01359C47.2474 6.76444 49.0708 4.9412 51.3198 4.9412Z" fill="#0C0C4F"/>
<path d="M32.895 32.4299C33.0158 32.0909 33.1332 31.7514 33.2465 31.4118H38.5741V32.4299H32.895Z" fill="#0C0C4F"/>
<path fill-rule="evenodd" clip-rule="evenodd" d="M28.8783 41.4194C28.8028 41.563 28.7267 41.7056 28.6506 41.8473H30.0361C30.3751 43.1646 31.5707 44.138 32.994 44.138C34.4172 44.138 35.6128 43.1646 35.9518 41.8473H38.9594V40.8292H36.0378C35.9086 39.2614 34.5952 38.0294 32.994 38.0294C31.3927 38.0294 30.0794 39.2614 29.9501 40.8292H29.187C29.0841 41.0276 28.9812 41.2244 28.8783 41.4194ZM35.0302 41.0837C35.0302 39.9592 34.1185 39.0475 32.994 39.0475C31.8695 39.0475 30.9578 39.9592 30.9578 41.0837C30.9578 42.2083 31.8695 43.1199 32.994 43.1199C34.1185 43.1199 35.0302 42.2083 35.0302 41.0837Z" fill="#0C0C4F"/>
<path d="M19.2496 55.8462C21.52 55.8462 23.404 54.1951 23.7679 52.0283H26.5583V51.0102H23.8241C23.8127 50.7989 23.7868 50.5914 23.7476 50.3887L23.7277 50.2925C23.7157 50.2362 23.7023 50.1804 23.6884 50.1249C23.6755 50.0739 23.6616 50.0232 23.6466 49.9729C23.0337 50.8223 22.468 51.5429 21.9863 52.0809C21.7258 52.3722 21.4499 52.6555 21.175 52.8827C21.0393 52.995 20.8588 53.1317 20.645 53.2498L20.5695 53.2904C20.3662 53.3944 19.9883 53.5554 19.5042 53.5554C18.9548 53.5554 18.5417 53.3475 18.3732 53.2561C18.1614 53.1409 17.9815 53.0075 17.8448 52.897C17.6922 52.7734 17.538 52.6325 17.3854 52.4823C17.2621 52.3607 17.1399 52.233 17.02 52.1032C16.4757 51.5124 15.822 50.6989 15.1111 49.7336L14.9918 49.5705C14.783 50.0946 14.6682 50.6663 14.6682 51.2647C14.6682 53.7949 16.7193 55.8462 19.2496 55.8462Z" fill="#0C0C4F"/>
<path d="M38.0969 10.4052C39.0051 9.69266 40.149 9.26812 41.3933 9.26812H44.1931V8.25002H41.3933C39.9134 8.25002 38.5498 8.75602 37.4685 9.60417L38.0969 10.4052Z" fill="#0C0C4F"/>
<path d="M37.1852 11.3169C36.4728 12.2251 36.0483 13.3688 36.0483 14.6131C36.0483 15.8575 36.4728 17.0012 37.1852 17.9094L36.3843 18.5378C35.5362 17.4567 35.0302 16.0933 35.0302 14.6131C35.0302 13.133 35.5362 11.7696 36.3843 10.6885L37.1852 11.3169Z" fill="#0C0C4F"/>
<path fill-rule="evenodd" clip-rule="evenodd" d="M41.3933 19.9582C40.149 19.9582 39.0051 19.5336 38.0969 18.8211L37.4685 19.6221C38.5498 20.4703 39.9134 20.9763 41.3933 20.9763H41.7443C42.0833 22.2936 43.2789 23.267 44.7021 23.267C46.1254 23.267 47.3209 22.2936 47.66 20.9763H49.4108C50.6253 20.9763 51.7418 21.3907 52.6287 22.0863L53.257 21.2853C52.1977 20.4541 50.8614 19.9582 49.4108 19.9582H47.746C47.6167 18.3904 46.3033 17.1584 44.7021 17.1584C43.1009 17.1584 41.7875 18.3904 41.6583 19.9582H41.3933ZM44.7021 18.1765C45.8266 18.1765 46.7383 19.0881 46.7383 20.2127C46.7383 21.3372 45.8266 22.2489 44.7021 22.2489C43.5776 22.2489 42.6659 21.3372 42.6659 20.2127C42.6659 19.0881 43.5776 18.1765 44.7021 18.1765Z" fill="#0C0C4F"/>
<path d="M54.3194 22.3479C55.1511 23.4074 55.6467 24.7435 55.6467 26.194C55.6467 27.6446 55.1511 28.9807 54.3194 30.0402L53.5185 29.4117C54.214 28.5252 54.6286 27.4087 54.6286 26.194C54.6286 24.9793 54.214 23.8628 53.5185 22.9763L54.3194 22.3479Z" fill="#0C0C4F"/>
<path fill-rule="evenodd" clip-rule="evenodd" d="M49.4108 32.4299C50.8614 32.4299 52.1977 31.9339 53.257 31.1028L52.6287 30.3018C51.7418 30.9973 50.6253 31.4118 49.4108 31.4118H49.2413C48.9992 29.9673 47.7425 28.8665 46.2293 28.8665C44.716 28.8665 43.4593 29.9673 43.2172 31.4118H39.631V32.4299H43.2172C43.4593 33.8744 44.716 34.9751 46.2293 34.9751C47.7425 34.9751 48.9992 33.8744 49.2413 32.4299H49.4108ZM46.2293 29.8846C47.3537 29.8846 48.2655 30.7963 48.2655 31.9208C48.2655 33.0454 47.3537 33.957 46.2293 33.957C45.1048 33.957 44.1931 33.0454 44.1931 31.9208C44.1931 30.7963 45.1048 29.8846 46.2293 29.8846Z" fill="#0C0C4F"/>
<path d="M40.0411 40.8292H45.9906V41.8473H40.0411V40.8292Z" fill="#0C0C4F"/>
<path d="M50.0471 40.8292H47.0724V41.8473H50.0471C51.114 41.8473 52.0938 42.2112 52.8723 42.8219L53.5006 42.0209C52.5496 41.2745 51.3496 40.8292 50.0471 40.8292Z" fill="#0C0C4F"/>
<path d="M54.4551 42.9751C55.2013 43.9264 55.6467 45.1262 55.6467 46.4288C55.6467 47.7313 55.2013 48.9311 54.4551 49.8824L53.6542 49.254C54.2647 48.4756 54.6286 47.4954 54.6286 46.4288C54.6286 45.3621 54.2647 44.3819 53.6542 43.6035L54.4551 42.9751Z" fill="#0C0C4F"/>
<path d="M50.0471 52.0283C51.3496 52.0283 52.5496 51.583 53.5006 50.8366L52.8723 50.0356C52.0938 50.6463 51.114 51.0102 50.0471 51.0102H47.2687V52.0283H50.0471Z" fill="#0C0C4F"/>
<path d="M33.1252 52.0283H27.5689V51.0102H33.1252V52.0283Z" fill="#0C0C4F"/>
<path fill-rule="evenodd" clip-rule="evenodd" d="M37.1628 51.0102C37.5018 49.6929 38.6974 48.7195 40.1207 48.7195C41.5439 48.7195 42.7395 49.6929 43.0785 51.0102H46.2586V52.0283H43.1645C43.0353 53.5961 41.7219 54.8281 40.1207 54.8281C38.5194 54.8281 37.2061 53.5961 37.0768 52.0283H34.1354V51.0102H37.1628ZM40.1207 49.7376C41.2451 49.7376 42.1569 50.6492 42.1569 51.7738C42.1569 52.8983 41.2451 53.81 40.1207 53.81C38.9962 53.81 38.0845 52.8983 38.0845 51.7738C38.0845 50.6492 38.9962 49.7376 40.1207 49.7376Z" fill="#0C0C4F"/>
<path fill-rule="evenodd" clip-rule="evenodd" d="M19.2496 33.448C25.4348 33.448 30.4487 28.434 30.4487 22.2489C30.4487 16.0638 25.4348 11.0498 19.2496 11.0498C13.0645 11.0498 8.05053 16.0638 8.05053 22.2489C8.05053 28.434 13.0645 33.448 19.2496 33.448ZM17.5515 26.3686L23.8525 20.2528L22.7891 19.157L17.5515 24.2403L15.1986 21.9568L14.1353 23.0526L17.5515 26.3686Z" fill="#0C0C4F"/>
<path fill-rule="evenodd" clip-rule="evenodd" d="M19.5042 52.5373C19.8019 52.5373 20.0356 52.4233 20.1529 52.3585C20.2911 52.2823 20.4174 52.1884 20.5257 52.0985C20.7445 51.9176 20.9821 51.6765 21.2277 51.4021C21.7233 50.8479 22.3328 50.066 23.0078 49.1162C24.3615 47.2115 26.0278 44.5652 27.6485 41.5611C30.8628 35.602 34.0121 28.0277 34.0121 21.9944C34.0121 13.9337 26.9584 7.48644 18.9951 7.48644C10.9825 7.48644 4.48718 13.9819 4.48718 21.9944C4.48718 28.0385 7.77264 35.6191 11.1138 41.5758C12.7985 44.5802 14.529 47.2261 15.9309 49.13C16.6303 50.0796 17.2592 50.8604 17.7687 51.4132C18.0212 51.687 18.2638 51.9265 18.4856 52.1057C18.5954 52.1946 18.7222 52.2869 18.8599 52.3617C18.9752 52.4246 19.2084 52.5373 19.5042 52.5373ZM32.994 21.9944C32.994 33.517 20.8459 51.5192 19.5042 51.5192C18.1624 51.5192 5.50528 33.517 5.50528 21.9944C5.50528 14.5442 11.5448 8.50454 18.9951 8.50454C26.4454 8.50454 32.994 14.5442 32.994 21.9944Z" fill="#0C0C4F"/>
</svg>