<svg xmlns="http://www.w3.org/2000/svg" width="60" height="60" viewBox="0 0 60 60" fill="none">
<path d="M5.39473 14.238C4.81759 14.238 4.34974 14.7059 4.34974 15.283C4.34974 15.8602 4.81759 16.328 5.39473 16.328H18.9796C19.5568 16.328 20.0246 15.8602 20.0246 15.283C20.0246 14.7059 19.5568 14.238 18.9796 14.238H5.39473Z" fill="#0C0C4F"/>
<path fill-rule="evenodd" clip-rule="evenodd" d="M29.1683 30.3281L33.8708 27.6132C34.9158 27.0098 34.9158 25.5015 33.8708 24.8982L29.1683 22.1832C28.1233 21.5799 26.8171 22.3341 26.8171 23.5407V28.9707C26.8171 30.1773 28.1233 30.9315 29.1683 30.3281ZM33.3483 25.8032C33.6966 26.0043 33.6966 26.5071 33.3483 26.7082L28.6458 29.4232C28.2975 29.6243 27.8621 29.3729 27.8621 28.9707V23.5407C27.8621 23.1385 28.2975 22.8871 28.6458 23.0882L33.3483 25.8032Z" fill="#0C0C4F"/>
<path fill-rule="evenodd" clip-rule="evenodd" d="M29.9521 36.7054C35.7234 36.7054 40.402 32.0268 40.402 26.2555C40.402 20.4841 35.7234 15.8055 29.9521 15.8055C24.1807 15.8055 19.5021 20.4841 19.5021 26.2555C19.5021 32.0268 24.1807 36.7054 29.9521 36.7054ZM29.9521 35.6604C35.1463 35.6604 39.357 31.4497 39.357 26.2555C39.357 21.0613 35.1463 16.8505 29.9521 16.8505C24.7579 16.8505 20.5471 21.0613 20.5471 26.2555C20.5471 31.4497 24.7579 35.6604 29.9521 35.6604Z" fill="#0C0C4F"/>
<path fill-rule="evenodd" clip-rule="evenodd" d="M13.726 26.2555C13.4661 23.9043 11.4727 22.0755 9.0522 22.0755C6.4551 22.0755 4.34974 24.1809 4.34974 26.778C4.34974 29.3751 6.4551 31.4804 9.0522 31.4804C11.4727 31.4804 13.4661 29.6517 13.726 27.3005H18.1959V26.2555H13.726ZM9.0522 30.4354C7.03223 30.4354 5.39473 28.7979 5.39473 26.778C5.39473 24.758 7.03223 23.1205 9.0522 23.1205C11.0722 23.1205 12.7097 24.758 12.7097 26.778C12.7097 28.7979 11.0722 30.4354 9.0522 30.4354Z" fill="#0C0C4F"/>
<path d="M46.1781 27.3005C46.4381 29.6517 48.4314 31.4804 50.8519 31.4804C53.449 31.4804 55.5544 29.3751 55.5544 26.778C55.5544 24.1809 53.449 22.0755 50.8519 22.0755C48.4314 22.0755 46.4381 23.9043 46.1781 26.2555H41.9695V27.3005H46.1781Z" fill="#0C0C4F"/>
<path fill-rule="evenodd" clip-rule="evenodd" d="M0.692261 9.53558C0.692261 8.09274 1.86191 6.9231 3.30474 6.9231H56.5994C58.0422 6.9231 59.2119 8.09274 59.2119 9.53558V46.1103C59.2119 47.5532 58.0422 48.7228 56.5994 48.7228H3.30474C1.86191 48.7228 0.692261 47.5532 0.692261 46.1103V9.53558ZM1.73725 12.1481V40.8854H58.1669L58.1669 12.1481H1.73725ZM58.1669 11.1031H1.73725V9.53558C1.73725 8.66988 2.43904 7.96809 3.30474 7.96809H56.5994C57.4651 7.96809 58.1669 8.66988 58.1669 9.53558V11.1031ZM1.73725 46.1103V41.9304H58.1669L58.1669 46.1103C58.1669 46.976 57.4651 47.6778 56.5994 47.6778H3.30474C2.43904 47.6778 1.73725 46.976 1.73725 46.1103Z" fill="#0C0C4F"/>
<path d="M17.9346 50.8128C17.9346 50.5242 18.1686 50.2903 18.4571 50.2903H41.447C41.7355 50.2903 41.9695 50.5242 41.9695 50.8128V52.3803C41.9695 52.6688 41.7355 52.9028 41.447 52.9028H18.4571C18.1686 52.9028 17.9346 52.6688 17.9346 52.3803V50.8128Z" fill="#0C0C4F"/>
</svg>