<svg xmlns="http://www.w3.org/2000/svg" width="61" height="60" viewBox="0 0 61 60" fill="none">
<path d="M26.7613 16.8161H27.7376V15.7169C27.7376 14.6376 26.8633 13.7627 25.7849 13.7627H24.6866V14.7398H25.7849C26.3241 14.7398 26.7613 15.1772 26.7613 15.7169V16.8161Z" fill="#0C0C4F"/>
<path d="M27.7376 21.213H26.7613V19.0145H27.7376V21.213Z" fill="#0C0C4F"/>
<path d="M26.7613 25.6099H27.7376V23.4114H26.7613V25.6099Z" fill="#0C0C4F"/>
<path d="M10.6518 27.8083V28.9075C10.6518 29.9868 11.5261 30.8617 12.6045 30.8617H13.7028V29.8846H12.6045C12.0653 29.8846 11.6281 29.4472 11.6281 28.9075V27.8083H10.6518Z" fill="#0C0C4F"/>
<path d="M11.14 34.7701C10.8701 34.7701 10.6518 34.9888 10.6518 35.2586C10.6518 35.5284 10.8701 35.7472 11.14 35.7472H25.7849C26.0548 35.7472 26.2731 35.5284 26.2731 35.2586C26.2731 34.9888 26.0548 34.7701 25.7849 34.7701H11.14Z" fill="#0C0C4F"/>
<path d="M10.6518 38.1899C10.6518 37.9201 10.8701 37.7013 11.14 37.7013H21.8796C22.1494 37.7013 22.3678 37.9201 22.3678 38.1899C22.3678 38.4597 22.1494 38.6784 21.8796 38.6784H11.14C10.8701 38.6784 10.6518 38.4597 10.6518 38.1899Z" fill="#0C0C4F"/>
<path d="M10.6518 41.1211C10.6518 40.8513 10.8701 40.6326 11.14 40.6326H24.3204C24.5903 40.6326 24.8086 40.8513 24.8086 41.1211C24.8086 41.3909 24.5903 41.6097 24.3204 41.6097H11.14C10.8701 41.6097 10.6518 41.3909 10.6518 41.1211Z" fill="#0C0C4F"/>
<path d="M15.8996 30.8617V29.8846H18.0963V30.8617H15.8996Z" fill="#0C0C4F"/>
<path d="M20.2931 29.8846V30.8617H22.4898V29.8846H20.2931Z" fill="#0C0C4F"/>
<path d="M24.6866 30.8617V29.8846H25.7849C26.3241 29.8846 26.7613 29.4472 26.7613 28.9075V27.8083H27.7376V28.9075C27.7376 29.9868 26.8633 30.8617 25.7849 30.8617H24.6866Z" fill="#0C0C4F"/>
<path d="M22.4898 13.7627V14.7398H20.2931V13.7627H22.4898Z" fill="#0C0C4F"/>
<path d="M18.0963 14.7398V13.7627H15.8996V14.7398H18.0963Z" fill="#0C0C4F"/>
<path d="M13.7028 13.7627V14.7398H12.6045C12.0653 14.7398 11.6281 15.1772 11.6281 15.7169V16.8161H10.6518V15.7169C10.6518 14.6376 11.5261 13.7627 12.6045 13.7627H13.7028Z" fill="#0C0C4F"/>
<path d="M11.6281 19.0145H10.6518V21.213H11.6281V19.0145Z" fill="#0C0C4F"/>
<path d="M10.6518 23.4114H11.6281V25.6099H10.6518V23.4114Z" fill="#0C0C4F"/>
<path fill-rule="evenodd" clip-rule="evenodd" d="M13.5808 22.3122C13.5808 25.4151 16.0941 27.9305 19.1947 27.9305C22.2953 27.9305 24.8086 25.4151 24.8086 22.3122C24.8086 19.2093 22.2953 16.694 19.1947 16.694C16.0941 16.694 13.5808 19.2093 13.5808 22.3122ZM19.1947 26.9534C16.6333 26.9534 14.5571 24.8755 14.5571 22.3122C14.5571 19.749 16.6333 17.6711 19.1947 17.6711C21.7561 17.6711 23.8323 19.749 23.8323 22.3122C23.8323 24.8755 21.7561 26.9534 19.1947 26.9534Z" fill="#0C0C4F"/>
<path d="M34.0838 14.7398C34.0838 14.47 34.3021 14.2512 34.5719 14.2512H49.2169C49.4867 14.2512 49.7051 14.47 49.7051 14.7398C49.7051 15.0096 49.4867 15.2283 49.2169 15.2283H34.5719C34.3021 15.2283 34.0838 15.0096 34.0838 14.7398Z" fill="#0C0C4F"/>
<path d="M34.5719 17.1825C34.3021 17.1825 34.0838 17.4013 34.0838 17.6711C34.0838 17.9408 34.3021 18.1596 34.5719 18.1596H45.3116C45.5814 18.1596 45.7997 17.9408 45.7997 17.6711C45.7997 17.4013 45.5814 17.1825 45.3116 17.1825H34.5719Z" fill="#0C0C4F"/>
<path d="M34.0838 20.6023C34.0838 20.3325 34.3021 20.1138 34.5719 20.1138H47.7524C48.0222 20.1138 48.2406 20.3325 48.2406 20.6023C48.2406 20.8721 48.0222 21.0909 47.7524 21.0909H34.5719C34.3021 21.0909 34.0838 20.8721 34.0838 20.6023Z" fill="#0C0C4F"/>
<path d="M33.5956 39.0448V40.144C33.5956 41.2233 34.4699 42.0982 35.5483 42.0982H36.6466V41.1211H35.5483C35.0091 41.1211 34.5719 40.6837 34.5719 40.144V39.0448H33.5956Z" fill="#0C0C4F"/>
<path d="M41.0401 42.0982H38.8434V41.1211H41.0401V42.0982Z" fill="#0C0C4F"/>
<path d="M43.2369 42.0982H45.4336V41.1211H43.2369V42.0982Z" fill="#0C0C4F"/>
<path d="M48.7287 42.0982H47.6304V41.1211H48.7287C49.2679 41.1211 49.7051 40.6837 49.7051 40.144V39.0448H50.6814V40.144C50.6814 41.2233 49.8071 42.0982 48.7287 42.0982Z" fill="#0C0C4F"/>
<path d="M49.7051 36.8464H50.6814V34.6479H49.7051V36.8464Z" fill="#0C0C4F"/>
<path d="M50.6814 32.4495H49.7051V30.251H50.6814V32.4495Z" fill="#0C0C4F"/>
<path d="M49.7051 28.0526H50.6814V26.9534C50.6814 25.8741 49.8071 24.9992 48.7287 24.9992H47.6304V25.9763H48.7287C49.2679 25.9763 49.7051 26.4137 49.7051 26.9534V28.0526Z" fill="#0C0C4F"/>
<path d="M45.4336 24.9992V25.9763H43.2369V24.9992H45.4336Z" fill="#0C0C4F"/>
<path d="M41.0401 25.9763V24.9992H38.8434V25.9763H41.0401Z" fill="#0C0C4F"/>
<path d="M36.6466 24.9992V25.9763H35.5483C35.0091 25.9763 34.5719 26.4137 34.5719 26.9534V28.0526H33.5956V26.9534C33.5956 25.8741 34.4699 24.9992 35.5483 24.9992H36.6466Z" fill="#0C0C4F"/>
<path d="M33.5956 30.251V32.4495H34.5719V30.251H33.5956Z" fill="#0C0C4F"/>
<path d="M36.5246 33.5487C36.5246 36.6516 39.0379 39.167 42.1385 39.167C45.2391 39.167 47.7524 36.6516 47.7524 33.5487C47.7524 30.4458 45.2391 27.9305 42.1385 27.9305C39.0379 27.9305 36.5246 30.4458 36.5246 33.5487Z" fill="#0C0C4F"/>
<path d="M34.5719 34.6479H33.5956V36.8464H34.5719V34.6479Z" fill="#0C0C4F"/>
<path fill-rule="evenodd" clip-rule="evenodd" d="M7.23465 48.9378C7.23465 50.0171 8.10896 50.892 9.18731 50.892H52.1459C53.2242 50.892 54.0986 50.0171 54.0986 48.9378V9.36581C54.0986 8.01671 53.0059 6.9231 51.6577 6.9231H35.0601C33.1279 6.9231 31.458 8.04659 30.6666 9.67646C29.8752 8.04659 28.2053 6.9231 26.2731 6.9231H9.67547C8.3273 6.9231 7.23465 8.01671 7.23465 9.36581V48.9378ZM27.9817 48.9378C28.5723 48.9378 29.0648 49.3574 29.1778 49.9149H9.18731C8.64813 49.9149 8.21098 49.4775 8.21098 48.9378V48.4495C8.61905 48.7561 9.12581 48.9378 9.67547 48.9378H27.9817ZM26.7613 46.9837C27.6342 46.9837 28.3998 47.4419 28.8312 48.1311C28.57 48.0214 28.283 47.9607 27.9817 47.9607H9.67547C8.86695 47.9607 8.21098 47.3047 8.21098 46.4953C8.61905 46.8019 9.12581 46.9837 9.67547 46.9837H26.7613ZM53.1222 46.4953C52.7141 46.8019 52.2074 46.9837 51.6577 46.9837H34.5719C33.699 46.9837 32.9334 47.4419 32.502 48.1311C32.7632 48.0214 33.0502 47.9607 33.3515 47.9607H51.6577C52.4662 47.9607 53.1222 47.3047 53.1222 46.4953ZM32.1554 49.9149C32.2684 49.3574 32.7608 48.9378 33.3515 48.9378H51.6577C52.2074 48.9378 52.7141 48.7561 53.1222 48.4495V48.9378C53.1222 49.4775 52.6851 49.9149 52.1459 49.9149H32.1554ZM8.21098 44.5409V9.36581C8.21098 8.55636 8.86647 7.90018 9.67547 7.90018H26.2731C28.4298 7.90018 30.1784 9.64998 30.1784 11.8085V49.4264C30.1784 48.4945 29.8061 47.6499 29.2021 47.033C28.5819 46.3996 27.7176 46.0066 26.7613 46.0066H9.67547C8.86647 46.0066 8.21098 45.3504 8.21098 44.5409ZM53.1222 44.5409V9.36581C53.1222 8.55636 52.4667 7.90018 51.6577 7.90018H35.0601C32.9034 7.90018 31.1548 9.64998 31.1548 11.8085V49.4264C31.1548 48.4945 31.5271 47.6499 32.1311 47.033C32.7513 46.3996 33.6156 46.0066 34.5719 46.0066H51.6577C52.4667 46.0066 53.1222 45.3504 53.1222 44.5409Z" fill="#0C0C4F"/>
<path d="M6.25831 11.5814C5.6748 11.9193 5.28198 12.5509 5.28198 13.2742V50.892C5.28198 51.9713 6.15629 52.8462 7.23465 52.8462H54.0986C55.1769 52.8462 56.0512 51.9713 56.0512 50.892V13.2742C56.0512 12.5509 55.6589 11.9193 55.0749 11.5814V50.892C55.0749 51.4317 54.6382 51.8691 54.0986 51.8691H7.23465C6.69547 51.8691 6.25831 51.4317 6.25831 50.892V11.5814Z" fill="#0C0C4F"/>
</svg>