<?xml version="1.0" encoding="UTF-8"?><svg id="a" xmlns="http://www.w3.org/2000/svg" xmlns:xlink="http://www.w3.org/1999/xlink" viewBox="0 0 889 299"><defs><style>.c{fill:none;}.d,.e{fill:#090e3c;}.e{fill-rule:evenodd;}.f{clip-path:url(#b);}</style><clipPath id="b"><rect class="c" y=".39" width="888.54" height="298.61"/></clipPath></defs><g class="f"><g><path class="d" d="M380.74,257.17v-30.51h69.86v14.95c2.64-.62,5.27-1.23,7.91-1.86,9.06-2.16,18.08-4.34,27.02-6.54v-6.54l-4.36-13.1,4.36-13.1v-30.57l-8.74-4.36h-131v96.07h13.46c7.12-1.45,14.27-2.91,21.47-4.42h.02Zm0-65.44h69.86v8.74h-69.86v-8.74Z"/><path class="d" d="M499.06,237.11v24.48h34.93v-33.48c-11.52,3.03-23.17,6.03-34.93,8.98v.02Z"/><path class="d" d="M533.99,220.82v-55.29h-34.93v64.31c11.76-2.95,23.41-5.97,34.93-9v-.02Z"/><path class="d" d="M582.47,207.55v-15.82h53.57c17.68-5.45,34.79-10.94,51.23-16.45v-5.37l-8.74-4.36h-131v51.68c11.82-3.19,23.45-6.4,34.93-9.65l.02-.02Z"/><path class="d" d="M652.33,194.05v67.54h34.93v-78.88c-11.34,3.79-23,7.57-34.93,11.34Z"/><path class="d" d="M547.54,224.52v37.07h34.93v-46.71c-11.48,3.25-23.13,6.46-34.93,9.63Z"/><path class="d" d="M700.8,178.13v79.1l8.74,4.36h122.26l8.74-4.36v-56.76h-87.33v26.21h52.4v8.74h-69.86v-43.67h69.86l8.74,4.36h26.21v-30.57h-104.28c-11.38,4.2-23.21,8.4-35.45,12.61l-.04-.02Z"/><path class="d" d="M548.09,85.4c-.44-2.3-.75-4.64-.95-7-6.6,1.29-13.24,2.6-19.92,3.95l1.41,6.92c6.52-1.33,13.02-2.62,19.49-3.87h-.02Z"/><path class="d" d="M888.18,66.94c-4.06-17.09-41.31-23.87-110.78-20.2-26.09,1.39-56.08,4.26-88.91,8.47,.56,2.28,.99,4.6,1.33,6.94,32.47-4.16,62.13-7,87.94-8.37,91.65-4.86,102.43,10.09,103.54,14.79,4.18,17.6-57.19,48.91-116.01,72.34-80.13,31.94-188.96,64.88-306.46,92.78-117.5,27.89-229.53,47.4-315.45,54.91-63.08,5.51-131.97,5.13-136.15-12.47-.89-3.73,.81-14.55,35.58-34.81l-3.55-6.11C10.32,252.1-2.41,266.02,.39,277.77c3.35,14.13,29.04,21.25,76.54,21.23,18.91,0,41.27-1.13,67.07-3.37,86.25-7.53,198.66-27.1,316.47-55.07,117.82-27.97,226.99-61.04,307.43-93.09,84.49-33.66,124.95-60.76,120.25-80.53h.02Z"/><path class="d" d="M618.7,144.08c-39.61,0-71.84-32.23-71.84-71.84S579.09,.39,618.7,.39s71.84,32.23,71.84,71.84-32.23,71.84-71.84,71.84Zm0-139.72c-37.43,0-67.88,30.45-67.88,67.88s30.45,67.88,67.88,67.88,67.88-30.45,67.88-67.88S656.13,4.35,618.7,4.35Z"/><path class="d" d="M590.71,101.26c-2.82,0-5.67-.38-8.42-1.13-1.82-.52-3.67-1.23-5.47-2.12-1.8-.91-3.39-1.98-4.68-2.91-2.66-1.98-4.98-4.38-7.16-7.33-1.6-2.1-2.99-4.6-4.24-7.61l-.44-1.07,1.15,.22c.99,.18,1.94,.4,2.91,.61l-.1,.61,.14-.61c4.62,1.03,9.38,2.08,17.68-.1,4.8-1.27,9.22-3.98,13.56-8.35,3.33-3.35,6.16-7.18,8.92-10.88l5.91-7.87,3.11-3.96c1.23-1.41,2.44-2.74,3.75-4.04,2.84-2.76,5.93-5.11,9.2-7.02,3.53-2.06,7.49-3.55,11.46-4.32,7.65-1.51,16.08,0,22.52,4.02,5.67,3.57,9.97,8.37,12.43,13.86l.5,1.13-1.21-.26c-6.18-1.31-11.32-1.78-15.76-1.47-4.58,.34-8.39,1.69-11.36,4.02-2.44,1.86-4.68,4.38-7.22,8.21-.58,.85-1.13,1.76-1.66,2.66l-1.8,3.09c-1.66,2.83-3.31,5.39-5,7.77-4.16,5.89-8.54,10.71-13.42,14.73-3.15,2.58-6.22,4.6-9.44,6.19-3.73,1.88-7.83,3.15-11.82,3.69-1.33,.18-2.7,.28-4.06,.28l.02-.02Zm-28.33-20.52c1.09,2.44,2.26,4.48,3.61,6.24,2.1,2.87,4.36,5.19,6.9,7.08,1.25,.89,2.78,1.92,4.5,2.82,1.72,.85,3.51,1.55,5.25,2.04,3.91,1.07,8.05,1.35,11.97,.83,3.86-.52,7.81-1.74,11.42-3.57,3.13-1.55,6.15-3.53,9.2-6.03,4.78-3.96,9.08-8.7,13.18-14.49,1.67-2.36,3.29-4.86,4.94-7.67l1.8-3.09c.57-.93,1.13-1.86,1.7-2.74,2.64-3.94,4.96-6.56,7.49-8.5,3.15-2.48,7.22-3.93,12.03-4.28,4.24-.32,9.12,.08,14.87,1.23-2.42-4.8-6.34-9-11.42-12.17-6.19-3.87-14.25-5.29-21.61-3.85-3.85,.75-7.67,2.18-11.08,4.16-3.19,1.86-6.18,4.16-8.96,6.84-1.29,1.25-2.48,2.58-3.67,3.95l-3.07,3.93-5.89,7.83c-2.8,3.77-5.67,7.65-9.06,11.06-4.5,4.52-9.12,7.35-14.14,8.68-8.6,2.26-13.52,1.17-18.28,.12h-.04c-.58-.14-1.13-.26-1.71-.38l.04-.04Z"/><path class="e" d="M587.36,55.5l1.74-5.41c.36-1.11,1.23-1.96,2.34-2.3l5.45-1.67c.75-.24,.75-1.29,0-1.53l-5.41-1.74c-1.09-.36-1.96-1.23-2.3-2.34l-1.67-5.45c-.24-.75-1.29-.75-1.53,0l-1.74,5.41c-.36,1.09-1.23,1.96-2.34,2.3l-5.45,1.67c-.75,.24-.75,1.29,0,1.53l5.41,1.74c1.09,.36,1.96,1.23,2.3,2.34l1.66,5.45c.24,.75,1.29,.75,1.53,0Z"/><path class="e" d="M646.66,102.9c0,4.46,3.63,8.09,8.09,8.09s8.09-3.63,8.09-8.09-3.63-8.09-8.09-8.09-8.09,3.63-8.09,8.09Z"/><path class="e" d="M672.25,52.09c-6.16-1.31-11.32-1.78-15.76-1.47-4.58,.34-8.39,1.69-11.36,4.02-2.44,1.86-4.68,4.38-7.22,8.21-.57,.85-1.13,1.76-1.66,2.68l-1.8,3.09c-1.66,2.83-3.29,5.37-5,7.77-4.16,5.89-8.54,10.71-13.42,14.75-3.13,2.58-6.22,4.6-9.44,6.19-3.73,1.88-7.81,3.15-11.82,3.69-1.33,.18-2.7,.28-4.06,.28-2.82,0-5.67-.38-8.43-1.13-1.82-.52-3.67-1.23-5.47-2.12-1.8-.91-3.39-1.98-4.68-2.91-2.66-1.98-4.98-4.38-7.16-7.33-1.61-2.1-2.99-4.6-4.24-7.61l-.2-.5c2.14,5.73,5.29,10.82,9.32,15.48,4.2,4.74,9.46,9.06,16.2,11.89,6.64,2.89,15.01,3.94,22.82,2.38,7.83-1.51,14.71-5.14,20.26-9.32,5.57-4.24,10.07-9.06,13.88-14.07,1.05-1.39,1.61-2.16,2.36-3.25l2.1-3.11c1.47-1.92,2.79-4.1,4.22-6.01,2.84-3.98,5.61-7.97,8.86-11.64,1.62-1.86,3.35-3.65,5.39-5.35,1.01-.83,2.1-1.65,3.31-2.4,1.23-.79,2.54-1.41,4.12-1.9l-1.17-.26,.04-.04Z"/><path class="d" d="M178.98,137.16l-8.74,4.36H39.26V45.45H170.26l8.74,4.36v87.33l-.02,.02Zm-34.93-21.85v-43.67H74.19v43.67h69.86Z"/><path class="d" d="M332.27,141.52H201.27l-8.74-4.36V49.81l8.74-4.36h131v30.57h-26.21l-8.74-4.36h-69.86v8.74h52.4v26.21h-52.4v8.74h69.86l8.74-4.36h26.21v30.53Z"/><path class="d" d="M485.53,76.02h-26.21l-8.74-4.36h-69.86v8.74h52.4v26.21h-52.4v34.93h-34.93V49.81l8.74-4.36h131v30.57Z"/><path class="d" d="M533.99,141.52h-34.93V45.45h34.93v96.07Z"/><path class="d" d="M178.98,257.23l-8.74,4.36H39.26v-30.57h26.21l8.74,4.36h69.86v-8.74H48l-8.74-4.36v-52.4l8.74-4.36H179v30.57h-26.21l-8.74-4.36H74.19v8.74h96.07l8.74,4.36v52.4h-.02Z"/><path class="d" d="M332.27,222.3l-8.74,4.36h-96.07v34.93h-34.93v-96.07h131l8.74,4.36v52.42Zm-34.93-21.85v-8.74h-69.86v8.74h69.86Z"/></g></g></svg>