<svg width="87" height="104" viewBox="0 0 87 104" fill="none" xmlns="http://www.w3.org/2000/svg">
<path fill-rule="evenodd" clip-rule="evenodd" d="M10 20C4.47715 20 0 15.5228 0 9.99999C0 4.47715 4.47715 0 10 0C15.1854 0 19.4489 3.94668 19.9506 9H35C39.9706 9 44 13.0294 44 18V25H42V18C42 14.134 38.866 11 35 11H19.9506C19.4489 16.0533 15.1853 20 10 20ZM12.7933 9.99956L8.14645 14.6464L8.85355 15.3536L14.2076 9.99956L8.85356 4.64557L8.14645 5.35268L12.7933 9.99956Z" fill="url(#paint0_linear_1670_736103)"/>
<path d="M43 62C48.5228 62 53 57.5228 53 52C53 46.4772 48.5228 42 43 42C37.4771 42 33 46.4772 33 52C33 57.5228 37.4771 62 43 62Z" fill="url(#paint1_linear_1670_736103)"/>
<path fill-rule="evenodd" clip-rule="evenodd" d="M63 27H23C19.6863 27 17 29.6863 17 33V71.0341C17 74.3478 19.6863 77.0341 23 77.0341H62.9999C66.3137 77.0341 68.9999 74.3478 68.9999 71.0341V71.0275L69 71.0001L68.9999 33C68.9999 29.6863 66.3137 27 63 27ZM66.9999 52.0002V48.3864C66.9999 47.0684 65.9315 46 64.6136 46H54.5326C54.1675 45.2982 53.7377 44.6285 53.247 44H64.6136C65.4936 44 66.3131 44.2592 66.9999 44.7053V39.3864C66.9999 38.0684 65.9315 37 64.6136 37H21.3864C20.0684 37 19 38.0684 19 39.3864V44.7053C19.6868 44.2592 20.5063 44 21.3864 44H32.753C32.2623 44.6285 31.8325 45.2982 31.4674 46H21.3864C20.0684 46 19 47.0684 19 48.3864V52L24.3354 52.0001C28.1755 52.0002 30.7351 55.1578 31.8737 57.8809C33.7057 62.2622 38.6103 64.9889 43 64.9889C47.4062 64.9889 52.4319 62.2464 54.3055 57.8614C55.4598 55.1598 58.019 52.0002 61.8579 52.0002H66.9999ZM21.5888 74.7439C22.0276 74.9094 22.5032 75 23 75H62.9999C65.2091 75 66.9999 73.2091 66.9999 71L67 54.0002H61.8579C59.222 54.0002 57.1804 56.2233 56.1447 58.6472C53.9067 63.8848 48.0727 66.9889 43 66.9889C37.929 66.9889 32.2173 63.8869 30.0285 58.6524C29.0117 56.2206 26.9712 54.0002 24.3353 54.0001L19 54L19.0001 71C19.0001 72.7124 20.076 74.1734 21.5888 74.7439ZM66.9999 35.7053V33C66.9999 30.7909 65.2091 29 63 29H23C20.7909 29 19 30.7909 19 33V35.7053C19.6868 35.2592 20.5063 35 21.3864 35H64.6136C65.4936 35 66.3131 35.2592 66.9999 35.7053Z" fill="url(#paint2_linear_1670_736103)"/>
<path fill-rule="evenodd" clip-rule="evenodd" d="M44 79V86C44 89.866 47.134 93 51 93H67.0494C67.5511 87.9467 71.8147 84 77 84C82.5228 84 87 88.4771 87 94C87 99.5228 82.5228 104 77 104C71.8147 104 67.5511 100.053 67.0494 95H51C46.0294 95 42 90.9706 42 86V79H44ZM75.1464 98.6464L79.7933 93.9995L75.1464 89.3526L75.8535 88.6455L81.2075 93.9995L75.8535 99.3535L75.1464 98.6464Z" fill="url(#paint3_linear_1670_736103)"/>
<defs>
<linearGradient id="paint0_linear_1670_736103" x1="87" y1="-33.3585" x2="-42.864" y2="-6.84171" gradientUnits="userSpaceOnUse">
<stop stop-color="#81D2FF"/>
<stop offset="0.963542" stop-color="#5B5F68"/>
</linearGradient>
<linearGradient id="paint1_linear_1670_736103" x1="87" y1="-33.3585" x2="-42.864" y2="-6.84171" gradientUnits="userSpaceOnUse">
<stop stop-color="#81D2FF"/>
<stop offset="0.963542" stop-color="#5B5F68"/>
</linearGradient>
<linearGradient id="paint2_linear_1670_736103" x1="87" y1="-33.3585" x2="-42.864" y2="-6.84171" gradientUnits="userSpaceOnUse">
<stop stop-color="#81D2FF"/>
<stop offset="0.963542" stop-color="#5B5F68"/>
</linearGradient>
<linearGradient id="paint3_linear_1670_736103" x1="87" y1="-33.3585" x2="-42.864" y2="-6.84171" gradientUnits="userSpaceOnUse">
<stop stop-color="#81D2FF"/>
<stop offset="0.963542" stop-color="#5B5F68"/>
</linearGradient>
</defs>
</svg>
