<svg width="260" height="260" viewBox="0 0 260 260" fill="none" xmlns="http://www.w3.org/2000/svg">
<path d="M80.7662 98.0917L57.2205 121.637L80.7662 145.183L77.5642 148.385L50.8165 121.637L77.5642 94.8897L80.7662 98.0917Z" fill="url(#paint0_linear_2_29)"/>
<path d="M200.492 121.637L176.946 98.0917L180.148 94.8897L206.896 121.637L180.148 148.385L176.946 145.183L200.492 121.637Z" fill="url(#paint1_linear_2_29)"/>
<path fill-rule="evenodd" clip-rule="evenodd" d="M129.868 166.679C154.252 166.679 174.019 146.912 174.019 122.529C174.019 98.1446 154.252 78.3776 129.868 78.3776C105.484 78.3776 85.7168 98.1446 85.7168 122.529C85.7168 146.912 105.484 166.679 129.868 166.679ZM102.331 124.971C96.9808 130.321 96.9808 138.996 102.331 144.346C107.681 149.696 116.356 149.696 121.706 144.346L124.492 141.56L121.29 138.358L118.504 141.144C114.922 144.726 109.115 144.726 105.533 141.144C101.951 137.562 101.951 131.755 105.533 128.173L119.803 113.903C123.385 110.321 129.192 110.321 132.774 113.903C136.355 117.485 136.355 123.292 132.774 126.874L127.813 131.834L131.015 135.036L135.976 130.076C141.326 124.726 141.326 116.051 135.976 110.701C130.626 105.351 121.951 105.351 116.601 110.701L102.331 124.971ZM158.807 104.992C164.157 110.342 164.157 119.016 158.807 124.366L144.537 138.636C139.187 143.987 130.512 143.987 125.162 138.636C119.812 133.286 119.812 124.612 125.162 119.262L130.123 114.301L133.325 117.503L128.364 122.464C124.782 126.045 124.782 131.853 128.364 135.434C131.946 139.016 137.753 139.016 141.335 135.434L155.605 121.164C159.187 117.583 159.187 111.775 155.605 108.194C152.023 104.612 146.216 104.612 142.634 108.194L139.848 110.98L136.646 107.778L139.432 104.992C144.782 99.6415 153.457 99.6415 158.807 104.992Z" fill="url(#paint2_linear_2_29)"/>
<path fill-rule="evenodd" clip-rule="evenodd" d="M26.8496 69.3208C26.8496 63.0685 31.9181 58 38.1704 58H221.567C227.819 58 232.887 63.0685 232.887 69.3208V182.528H248.736V191.585C248.736 197.837 243.667 202.906 237.415 202.906H22.3207C16.0685 202.906 11 197.837 11 191.585V182.528H26.8496V69.3208ZM228.359 69.3208V182.528H31.3779V69.3208C31.3779 65.5694 34.419 62.5283 38.1704 62.5283H221.567C225.318 62.5283 228.359 65.5694 228.359 69.3208ZM15.5283 187.057H244.208V191.585C244.208 195.336 241.166 198.377 237.415 198.377H22.3207C18.5694 198.377 15.5283 195.336 15.5283 191.585V187.057Z" fill="url(#paint3_linear_2_29)"/>
<defs>
<linearGradient id="paint0_linear_2_29" x1="161.591" y1="223.675" x2="131.852" y2="40.1781" gradientUnits="userSpaceOnUse">
<stop stop-color="#E1B0A8"/>
<stop offset="1" stop-color="#D3A2E7"/>
</linearGradient>
<linearGradient id="paint1_linear_2_29" x1="161.591" y1="223.675" x2="131.852" y2="40.1781" gradientUnits="userSpaceOnUse">
<stop stop-color="#E1B0A8"/>
<stop offset="1" stop-color="#D3A2E7"/>
</linearGradient>
<linearGradient id="paint2_linear_2_29" x1="161.591" y1="223.675" x2="131.852" y2="40.1781" gradientUnits="userSpaceOnUse">
<stop stop-color="#E1B0A8"/>
<stop offset="1" stop-color="#D3A2E7"/>
</linearGradient>
<linearGradient id="paint3_linear_2_29" x1="161.591" y1="223.675" x2="131.852" y2="40.1781" gradientUnits="userSpaceOnUse">
<stop stop-color="#E1B0A8"/>
<stop offset="1" stop-color="#D3A2E7"/>
</linearGradient>
</defs>
</svg>
