<svg width="115" height="149" viewBox="0 0 115 149" fill="none" xmlns="http://www.w3.org/2000/svg">
<g opacity="0.8">
<g clip-path="url(#clip0_2116_8411)">
<path d="M61.2832 42.0723H29.8117C29.2348 42.0723 28.7627 42.5465 28.7627 43.126C28.7627 43.7056 29.2348 44.1798 29.8117 44.1798H61.2832C61.8601 44.1798 62.3322 43.7056 62.3322 43.126C62.3322 42.5465 61.8601 42.0723 61.2832 42.0723Z" fill="url(#paint0_linear_2116_8411)"/>
<path d="M29.8117 50.5021H52.8908C53.4678 50.5021 53.9398 50.0279 53.9398 49.4483C53.9398 48.8687 53.4678 48.3945 52.8908 48.3945H29.8117C29.2348 48.3945 28.7627 48.8687 28.7627 49.4483C28.7627 50.0279 29.2348 50.5021 29.8117 50.5021Z" fill="url(#paint1_linear_2116_8411)"/>
<path d="M59.1851 55.7706C59.1851 55.191 58.713 54.7168 58.136 54.7168H29.8117C29.2348 54.7168 28.7627 55.191 28.7627 55.7706C28.7627 56.3501 29.2348 56.8243 29.8117 56.8243H58.136C58.713 56.8243 59.1851 56.3501 59.1851 55.7706Z" fill="url(#paint2_linear_2116_8411)"/>
<path d="M31.1336 76.814L37.816 69.227C38.2042 68.7949 38.1622 68.1205 37.7216 67.7411C37.2915 67.3618 36.6306 67.3934 36.2424 67.836L28.9306 76.1291C28.5739 76.5295 28.5844 77.1407 28.9306 77.5306L36.3683 85.8132C36.5781 86.045 36.8614 86.1609 37.1446 86.1609C37.3964 86.1609 37.6482 86.0766 37.8475 85.8869C38.2776 85.4971 38.3091 84.8332 37.9209 84.4011L31.1126 76.814H31.1336Z" fill="url(#paint3_linear_2116_8411)"/>
<path d="M53.9611 68.1722C53.5729 67.7402 52.912 67.698 52.4819 68.0774C52.0518 68.4673 52.0099 69.1311 52.3875 69.5632L59.0699 77.1503L52.2616 84.7374C51.8735 85.1694 51.9049 85.8333 52.3351 86.2232C52.5344 86.4023 52.7861 86.4972 53.0379 86.4972C53.3212 86.4972 53.6044 86.3813 53.8142 86.1494L61.252 77.8668C61.6086 77.4664 61.6086 76.8658 61.252 76.4653L53.9401 68.1722H53.9611Z" fill="url(#paint4_linear_2116_8411)"/>
<path d="M45.2016 67.6777C44.6246 67.6777 44.1525 68.1519 44.1525 68.7315L44.0791 85.5917C44.0791 86.1713 44.5407 86.6455 45.1281 86.6455C45.7051 86.6455 46.1772 86.1713 46.1772 85.5917L46.2506 68.7315C46.2506 68.1519 45.789 67.6777 45.2016 67.6777Z" fill="url(#paint5_linear_2116_8411)"/>
<path d="M114.197 72.3461C113.788 71.503 112.949 70.9762 112.005 70.9762H77.0297V30.7224C77.0297 27.8562 74.7113 25.5273 71.8579 25.5273H18.2096C15.3562 25.5273 13.0378 27.8562 13.0378 30.7224V64.5166H5.62102C2.76761 64.5166 0.449219 66.8454 0.449219 69.7116V118.332C0.449219 121.199 2.76761 123.527 5.62102 123.527H84.7822C87.6356 123.527 89.954 121.199 89.954 118.332L89.933 106.34L113.946 74.9278C114.512 74.1796 114.617 73.1891 114.197 72.3461ZM2.54731 78.8056L27.5986 90.397L2.54731 108.806V78.8056ZM5.62102 66.6241H13.0378V81.3452L2.54731 76.4873V69.7116C2.54731 68.0045 3.93206 66.6241 5.62102 66.6241ZM84.7822 121.42H5.62102C3.92157 121.42 2.54731 120.029 2.54731 118.332V111.42L29.7806 91.4086L39.0542 95.6974C41.1837 96.6774 43.4602 97.1727 45.7366 97.1727C48.013 97.1727 50.3209 96.6774 52.4505 95.6764L62.0808 91.4086L71.6691 86.8669C72.1936 86.614 72.4139 85.9923 72.1726 85.4654C71.9313 84.9385 71.3019 84.7067 70.7774 84.9596L61.2101 89.4908L51.5798 93.7585C47.8242 95.5183 43.6805 95.5183 39.9249 93.7796L15.1254 82.3041V30.7224C15.1254 29.0153 16.5101 27.6349 18.1991 27.6349H71.8474C73.5469 27.6349 74.9211 29.0258 74.9211 30.7224V70.9762H72.8335C71.8684 70.9762 71.0082 71.5241 70.6095 72.4198C70.2109 73.305 70.3577 74.3166 70.9872 75.0437L81.8238 87.5308C81.8238 87.5308 81.8868 87.6256 81.8973 87.6888L85.5375 105.392C85.7368 106.34 86.4397 107.068 87.3838 107.289C87.5307 107.32 87.667 107.331 87.8139 107.342L87.8349 118.332C87.8349 120.039 86.4501 121.42 84.7612 121.42H84.7822ZM112.278 73.6422L88.223 105.108C88.1076 105.255 87.9608 105.255 87.8768 105.234C87.7929 105.213 87.6565 105.16 87.6146 104.971L84.0688 87.7626L106.277 77.7413C106.802 77.499 107.043 76.8772 106.802 76.3504C106.56 75.8235 105.941 75.5811 105.417 75.8235L83.1561 85.8658L72.5712 73.6738C72.4454 73.5263 72.4873 73.3787 72.5188 73.305C72.5503 73.2312 72.6447 73.1048 72.8335 73.1048H112.005C112.194 73.1048 112.278 73.2207 112.309 73.2944C112.341 73.3682 112.383 73.5052 112.278 73.6527V73.6422Z" fill="url(#paint6_linear_2116_8411)"/>
<path d="M76.0221 89.1847L59.6255 97.109C59.101 97.3619 58.8807 97.9941 59.1325 98.5105C59.3108 98.8898 59.6885 99.1111 60.0766 99.1111C60.234 99.1111 60.3808 99.0795 60.5277 99.0058L76.9243 91.0815C77.4488 90.8286 77.6691 90.1963 77.4174 89.68C77.1656 89.1531 76.5362 88.9318 76.0221 89.1847Z" fill="url(#paint7_linear_2116_8411)"/>
<path d="M75.991 95.5283L66.3607 100.607C65.8467 100.881 65.6474 101.514 65.9201 102.03C66.109 102.388 66.4761 102.599 66.8538 102.599C67.0216 102.599 67.1895 102.557 67.3364 102.483L76.9666 97.404C77.4806 97.13 77.68 96.4978 77.4072 95.9814C77.1345 95.4651 76.505 95.2649 75.991 95.5389V95.5283Z" fill="url(#paint8_linear_2116_8411)"/>
</g>
</g>
<defs>
<linearGradient id="paint0_linear_2116_8411" x1="46.7224" y1="47.8574" x2="44.3526" y2="38.3996" gradientUnits="userSpaceOnUse">
<stop stop-color="#E1B0A8"/>
<stop offset="1" stop-color="#D3A2E7"/>
</linearGradient>
<linearGradient id="paint1_linear_2116_8411" x1="42.2744" y1="53.1892" x2="40.4019" y2="45.7008" gradientUnits="userSpaceOnUse">
<stop stop-color="#E1B0A8"/>
<stop offset="1" stop-color="#D3A2E7"/>
</linearGradient>
<linearGradient id="paint2_linear_2116_8411" x1="45.0544" y1="60.1331" x2="42.875" y2="51.4126" gradientUnits="userSpaceOnUse">
<stop stop-color="#E1B0A8"/>
<stop offset="1" stop-color="#D3A2E7"/>
</linearGradient>
<linearGradient id="paint3_linear_2116_8411" x1="36.767" y1="86.2979" x2="32.3448" y2="68.6251" gradientUnits="userSpaceOnUse">
<stop stop-color="#E1B0A8"/>
<stop offset="1" stop-color="#D3A2E7"/>
</linearGradient>
<linearGradient id="paint4_linear_2116_8411" x1="57.7691" y1="85.3486" x2="53.3575" y2="67.7389" gradientUnits="userSpaceOnUse">
<stop stop-color="#E1B0A8"/>
<stop offset="1" stop-color="#D3A2E7"/>
</linearGradient>
<linearGradient id="paint5_linear_2116_8411" x1="47.3836" y1="86.1081" x2="42.9085" y2="68.2246" gradientUnits="userSpaceOnUse">
<stop stop-color="#E1B0A8"/>
<stop offset="1" stop-color="#D3A2E7"/>
</linearGradient>
<linearGradient id="paint6_linear_2116_8411" x1="65.5112" y1="128.512" x2="38.4067" y2="20.3051" gradientUnits="userSpaceOnUse">
<stop stop-color="#E1B0A8"/>
<stop offset="1" stop-color="#D3A2E7"/>
</linearGradient>
<linearGradient id="paint7_linear_2116_8411" x1="68.983" y1="96.9088" x2="67.5654" y2="91.2741" gradientUnits="userSpaceOnUse">
<stop stop-color="#E1B0A8"/>
<stop offset="1" stop-color="#D3A2E7"/>
</linearGradient>
<linearGradient id="paint8_linear_2116_8411" x1="72.2249" y1="101.282" x2="71.0929" y2="96.7214" gradientUnits="userSpaceOnUse">
<stop stop-color="#E1B0A8"/>
<stop offset="1" stop-color="#D3A2E7"/>
</linearGradient>
<clipPath id="clip0_2116_8411">
<rect width="114" height="98" fill="white" transform="translate(0.449219 25.5273)"/>
</clipPath>
</defs>
</svg>
