<svg width="28" height="28" viewBox="0 0 28 28" fill="none" xmlns="http://www.w3.org/2000/svg">
    <path
        d="M22.3175 6.3589C20.7615 5.64428 19.1193 5.13453 17.4321 4.84241C17.4168 4.83984 17.4011 4.84206 17.3871 4.84878C17.3732 4.85549 17.3616 4.86637 17.3541 4.87991C17.1426 5.25491 16.9086 5.7454 16.7451 6.1294C14.9265 5.85364 13.0767 5.85364 11.2582 6.1294C11.0765 5.70128 10.8702 5.28408 10.6402 4.87991C10.6326 4.86637 10.6211 4.85549 10.6071 4.84878C10.5932 4.84206 10.5774 4.83984 10.5622 4.84241C8.87468 5.13341 7.2322 5.6434 5.67671 6.3589C5.66334 6.36386 5.65217 6.37344 5.64522 6.3859C2.53425 11.0343 1.68076 15.5688 2.09925 20.0463C2.10225 20.0683 2.11275 20.0868 2.13075 20.1018C3.94269 21.4431 5.96886 22.4676 8.12319 23.1317C8.1384 23.1365 8.15475 23.1363 8.16985 23.1312C8.18496 23.1261 8.19804 23.1163 8.20719 23.1032C8.67018 22.4732 9.07918 21.8087 9.43418 21.1097C9.44155 21.0953 9.44408 21.0789 9.44138 21.063C9.43867 21.0471 9.43089 21.0324 9.41918 21.0212L9.39218 21.0047C8.74622 20.7557 8.12038 20.4573 7.5202 20.1123C7.50344 20.1028 7.49098 20.0872 7.4854 20.0688C7.47981 20.0503 7.48153 20.0304 7.4902 20.0133L7.5127 19.9848C7.63969 19.8898 7.76369 19.7923 7.88469 19.6923C7.89529 19.6837 7.90801 19.6783 7.92149 19.6764C7.93496 19.6746 7.94869 19.6764 7.96119 19.6818C11.8896 21.4757 16.1421 21.4757 20.0226 19.6818C20.0355 19.6758 20.0498 19.6736 20.0638 19.6755C20.0779 19.6773 20.0912 19.6832 20.1021 19.6923C20.2231 19.7923 20.3471 19.8898 20.4741 19.9848C20.4846 19.992 20.4932 20.0018 20.4988 20.0132C20.5045 20.0247 20.5072 20.0374 20.5066 20.0502C20.506 20.063 20.5022 20.0754 20.4954 20.0862C20.4887 20.0971 20.4792 20.1061 20.4681 20.1123C19.8705 20.4628 19.2436 20.7609 18.5946 21.0032C18.5842 21.007 18.5748 21.013 18.5671 21.0207C18.5593 21.0285 18.5533 21.0379 18.5496 21.0482C18.5459 21.0582 18.5444 21.0689 18.5452 21.0795C18.546 21.0901 18.549 21.1004 18.5541 21.1097C18.9141 21.8072 19.3266 22.4732 19.7796 23.1032C19.7887 23.1163 19.8018 23.1261 19.8169 23.1312C19.832 23.1363 19.8484 23.1365 19.8636 23.1317C22.0221 22.4712 24.0519 21.4465 25.865 20.1018C25.874 20.0954 25.8815 20.0871 25.887 20.0775C25.8924 20.0679 25.8957 20.0572 25.8965 20.0463C26.3975 14.8698 25.058 10.3729 22.3475 6.3874C22.3452 6.38059 22.3412 6.37445 22.336 6.36949C22.3308 6.36453 22.3245 6.3609 22.3175 6.3589ZM10.0207 17.3193C8.83718 17.3193 7.86369 16.2333 7.86369 14.9013C7.86369 13.5693 8.81918 12.4818 10.0207 12.4818C11.2312 12.4818 12.1956 13.5768 12.1776 14.9013C12.1776 16.2333 11.2222 17.3193 10.0207 17.3193ZM17.9946 17.3193C16.8126 17.3193 15.8376 16.2333 15.8376 14.9013C15.8376 13.5693 16.7931 12.4818 17.9946 12.4818C19.2051 12.4818 20.1711 13.5768 20.1516 14.9013C20.1516 16.2333 19.2051 17.3193 17.9946 17.3193Z"
        fill="#CCCCCC" />
</svg>