<svg width="298" height="1137" viewBox="0 0 298 1137" fill="none" xmlns="http://www.w3.org/2000/svg">
<mask id="path-1-outside-1_6706_22305" maskUnits="userSpaceOnUse" x="1" y="-77" width="730" height="1214" fill="black">
<rect fill="white" x="1" y="-77" width="730" height="1214"/>
<path fill-rule="evenodd" clip-rule="evenodd" d="M365.714 772.084L9.15808 547.768L365.708 346.402L721.937 547.945L365.714 772.084ZM365.714 -67.0172L9.93537 543.872L365.71 342.943L721.731 544.37L365.714 -67.0172ZM727.376 548.08L365.714 775.641L4 548.08L365.714 -73L727.376 548.08ZM14.8267 620.617L365.714 840.996L716.596 620.583L365.714 1127.71L14.8267 620.617ZM365.714 1133L727.423 610.227L365.714 837.44L4 610.262L365.714 1133Z"/>
</mask>
<path d="M9.15808 547.768L8.17456 546.027L5.25502 547.676L8.09307 549.461L9.15808 547.768ZM365.714 772.084L364.649 773.776L365.714 774.447L366.779 773.776L365.714 772.084ZM365.708 346.402L366.693 344.661L365.709 344.104L364.725 344.66L365.708 346.402ZM721.937 547.945L723.002 549.638L725.837 547.854L722.921 546.205L721.937 547.945ZM9.93537 543.872L8.20711 542.865L4.49318 549.242L10.9189 545.613L9.93537 543.872ZM365.714 -67.0172L367.442 -68.0236L365.714 -70.9914L363.985 -68.0237L365.714 -67.0172ZM365.71 342.943L366.695 341.202L365.711 340.646L364.726 341.202L365.71 342.943ZM721.731 544.37L720.746 546.111L727.178 549.75L723.459 543.363L721.731 544.37ZM365.714 775.641L364.649 777.334L365.714 778.004L366.779 777.334L365.714 775.641ZM727.376 548.08L728.441 549.773L730.076 548.744L729.104 547.074L727.376 548.08ZM4 548.08L2.27174 547.074L1.29903 548.744L2.93499 549.773L4 548.08ZM365.714 -73L367.442 -74.0064L365.714 -76.9743L363.985 -74.0065L365.714 -73ZM365.714 840.996L364.65 842.69L365.714 843.358L366.778 842.689L365.714 840.996ZM14.8267 620.617L15.8904 618.924L13.182 621.755L14.8267 620.617ZM716.596 620.583L718.241 621.721L715.532 618.89L716.596 620.583ZM365.714 1127.71L364.069 1128.85L365.714 1131.22L367.358 1128.85L365.714 1127.71ZM727.423 610.227L729.068 611.365L726.359 608.533L727.423 610.227ZM365.714 1133L364.069 1134.14L365.714 1136.51L367.359 1134.14L365.714 1133ZM365.714 837.44L364.65 839.134L365.714 839.802L366.778 839.134L365.714 837.44ZM4 610.262L5.06372 608.568L2.35535 611.4L4 610.262ZM8.09307 549.461L364.649 773.776L366.779 770.391L10.2231 546.075L8.09307 549.461ZM364.725 344.66L8.17456 546.027L10.1416 549.51L366.692 348.143L364.725 344.66ZM722.921 546.205L366.693 344.661L364.723 348.142L720.952 549.686L722.921 546.205ZM366.779 773.776L723.002 549.638L720.871 546.253L364.648 770.391L366.779 773.776ZM11.6636 544.878L367.442 -66.0106L363.985 -68.0237L8.20711 542.865L11.6636 544.878ZM364.726 341.202L8.95186 542.13L10.9189 545.613L366.693 344.685L364.726 341.202ZM722.716 542.629L366.695 341.202L364.725 344.684L720.746 546.111L722.716 542.629ZM363.985 -66.0107L720.003 545.376L723.459 543.363L367.442 -68.0236L363.985 -66.0107ZM366.779 777.334L728.441 549.773L726.311 546.388L364.649 773.948L366.779 777.334ZM2.93499 549.773L364.649 777.334L366.779 773.948L5.06501 546.387L2.93499 549.773ZM363.985 -74.0065L2.27174 547.074L5.72826 549.087L367.442 -71.9935L363.985 -74.0065ZM729.104 547.074L367.442 -74.0064L363.985 -71.9936L725.647 549.087L729.104 547.074ZM366.778 839.302L15.8904 618.924L13.763 622.311L364.65 842.69L366.778 839.302ZM715.532 618.89L364.65 839.302L366.778 842.689L717.66 622.277L715.532 618.89ZM367.358 1128.85L718.241 621.721L714.951 619.445L364.069 1126.57L367.358 1128.85ZM13.182 621.755L364.069 1128.85L367.358 1126.57L16.4713 619.479L13.182 621.755ZM725.779 609.089L364.069 1131.86L367.359 1134.14L729.068 611.365L725.779 609.089ZM366.778 839.134L728.487 611.92L726.359 608.533L364.65 835.747L366.778 839.134ZM2.93628 611.956L364.65 839.134L366.777 835.747L5.06372 608.568L2.93628 611.956ZM367.358 1131.86L5.64465 609.124L2.35535 611.4L364.069 1134.14L367.358 1131.86Z" fill="url(#paint0_linear_6706_22305)" mask="url(#path-1-outside-1_6706_22305)"/>
<defs>
<linearGradient id="paint0_linear_6706_22305" x1="269.167" y1="1314.53" x2="820.464" y2="79.5728" gradientUnits="userSpaceOnUse">
<stop stop-color="#204683" stop-opacity="0.12"/>
<stop offset="0.338535" stop-color="#6170B5" stop-opacity="0"/>
<stop offset="0.625005" stop-color="#A47DAA" stop-opacity="0.6"/>
<stop offset="0.994812" stop-color="#F99B84" stop-opacity="0.09"/>
</linearGradient>
</defs>
</svg>
