<svg width="145" height="145" viewBox="0 0 145 145" fill="none" xmlns="http://www.w3.org/2000/svg">
<path fill-rule="evenodd" clip-rule="evenodd" d="M25.1519 46.9799C18.653 46.9799 13.3846 41.7065 13.3846 35.2015C13.3846 28.6965 18.653 23.4231 25.1519 23.4231C31.0802 23.4231 35.9847 27.8112 36.8001 33.5194H45.8119C49.379 33.5194 52.6808 35.4053 54.4954 38.4794L59.2138 46.4722L66.3481 42.3492C69.9824 40.2488 74.4601 40.2488 78.0944 42.3492L84.1231 45.8332L82.9827 47.7649L76.9737 44.2922C74.0329 42.5926 70.4096 42.5926 67.4687 44.2922L60.3541 48.4039L65.5871 57.2685C67.6312 56.4224 69.8717 55.9555 72.2212 55.9555C74.9153 55.9555 77.4662 56.5694 79.7418 57.6651L91.0676 38.4794C92.8823 35.4054 96.184 33.5194 99.7511 33.5194H107.642C108.458 27.8112 113.362 23.4231 119.29 23.4231C125.789 23.4231 131.058 28.6965 131.058 35.2015C131.058 41.7065 125.789 46.9799 119.29 46.9799C112.98 46.9799 107.829 42.0073 107.536 35.7631L99.7511 35.7631C96.9767 35.7631 94.4087 37.2299 92.9973 39.6208L81.695 58.7667C86.0073 61.5806 88.9938 66.2599 89.5117 71.6608H96.5197V73.9045H89.583C89.4098 79.3684 86.718 84.1961 82.6313 87.263L92.9972 104.823C94.4087 107.214 96.9767 108.68 99.7511 108.68H107.536C107.828 102.436 112.979 97.4624 119.29 97.4624C125.789 97.4624 131.058 102.736 131.058 109.241C131.058 115.746 125.789 121.019 119.29 121.019C113.362 121.019 108.458 116.632 107.642 110.924H99.7511C96.184 110.924 92.8822 109.038 91.0676 105.964L80.7531 88.4916C78.2331 89.9166 75.322 90.7299 72.2212 90.7299C69.4647 90.7299 66.8582 90.0873 64.543 88.9435L60.354 96.0396L67.4687 100.151C70.4096 101.851 74.0329 101.851 76.9737 100.151L82.9829 96.6786L84.1232 98.6102L78.0944 102.094C74.4601 104.195 69.9824 104.195 66.3481 102.094L59.2137 97.9713L54.4954 105.964C52.6808 109.038 49.379 110.924 45.8119 110.924H36.8C35.9841 116.632 31.0799 121.019 25.1519 121.019C18.653 121.019 13.3846 115.746 13.3846 109.241C13.3846 102.736 18.653 97.4624 25.1519 97.4624C31.4631 97.4624 36.6139 102.436 36.9061 108.68H45.8119C48.5863 108.68 51.1544 107.214 52.5658 104.823L57.2725 96.8495L49.313 92.2495C45.6787 90.1491 43.4398 86.2675 43.4398 82.0667V76.1481H45.6812V82.0667C45.6812 85.4659 47.4929 88.6069 50.4337 90.3065L58.4128 94.9178L62.6013 87.8225C58.0742 84.8031 55.0435 79.7133 54.8593 73.9045L36.8 73.9045C35.984 79.6121 31.0798 83.9996 25.1519 83.9996C18.653 83.9996 13.3846 78.7262 13.3846 72.2212C13.3846 65.7161 18.653 60.4428 25.1519 60.4428C31.4632 60.4428 36.6139 65.416 36.9061 71.6608L54.9306 71.6609C55.4808 65.9227 58.8174 60.9992 63.57 58.2618L58.4129 49.5258L50.4337 54.1371C47.4929 55.8367 45.6812 58.9777 45.6812 62.3769V69.4172H43.4398V62.3769C43.4398 58.1761 45.6787 54.2945 49.313 52.1941L57.2726 47.5941L52.5658 39.6208C51.1544 37.2298 48.5863 35.763 45.8119 35.763L36.9061 35.763C36.6133 42.0073 31.4628 46.9799 25.1519 46.9799ZM25.6227 28.6389C25.4019 28.297 24.9023 28.297 24.6815 28.6389L22.7776 31.5868C22.702 31.7039 22.5856 31.7886 22.451 31.8244L19.0618 32.7259C18.6688 32.8305 18.5144 33.3061 18.771 33.6219L20.9835 36.3454C21.0713 36.4535 21.1158 36.5905 21.1082 36.7297L20.9175 40.2349C20.8954 40.6413 21.2996 40.9352 21.6789 40.7886L24.9502 39.5239C25.0801 39.4736 25.2241 39.4736 25.354 39.5239L28.6253 40.7886C29.0046 40.9352 29.4088 40.6413 29.3867 40.2349L29.196 36.7297C29.1884 36.5905 29.2329 36.4535 29.3207 36.3454L31.5333 33.6219C31.7898 33.3061 31.6354 32.8305 31.2424 32.7259L27.8532 31.8244C27.7186 31.7886 27.6022 31.7039 27.5266 31.5868L25.6227 28.6389ZM20.6691 67.1736C20.3597 67.1736 20.1088 67.4247 20.1088 67.7345V76.709C20.1088 77.0188 20.3597 77.2699 20.6691 77.2699H29.6347C29.9442 77.2699 30.1951 77.0188 30.1951 76.709V67.7345C30.1951 67.4247 29.9442 67.1736 29.6347 67.1736H20.6691ZM27.0572 103.071C27.3667 103.071 27.6176 103.323 27.6176 103.632V106.773H30.7554C31.0649 106.773 31.3157 107.024 31.3157 107.334V111.148C31.3157 111.458 31.0649 111.709 30.7554 111.709H27.6176V114.85C27.6176 115.16 27.3667 115.411 27.0572 115.411H23.2468C22.9374 115.411 22.6865 115.16 22.6865 114.85V111.709H19.5484C19.239 111.709 18.9881 111.458 18.9881 111.148V107.334C18.9881 107.024 19.239 106.773 19.5484 106.773H22.6865V103.632C22.6865 103.323 22.9374 103.071 23.2468 103.071H27.0572ZM125.596 33.0707C125.815 32.8516 125.815 32.4965 125.596 32.2774L122.697 29.3757C122.479 29.1566 122.124 29.1566 121.905 29.3757L119.532 31.7506L117.16 29.376C116.941 29.157 116.587 29.157 116.368 29.376L113.469 32.2778C113.25 32.4969 113.25 32.852 113.469 33.071L115.841 35.4456L113.469 37.8199C113.25 38.039 113.25 38.3941 113.469 38.6132L116.368 41.5149C116.587 41.734 116.942 41.734 117.16 41.5149L119.532 39.1406L121.905 41.5153C122.124 41.7344 122.478 41.7344 122.697 41.5153L125.596 38.6135C125.815 38.3945 125.815 38.0394 125.596 37.8203L123.224 35.4456L125.596 33.0707ZM125.368 113.301L119.842 103.401C119.597 102.962 118.984 102.962 118.739 103.401L113.213 113.301C112.968 113.741 113.274 114.29 113.764 114.29H124.816C125.307 114.29 125.613 113.741 125.368 113.301Z" fill="url(#paint0_linear_971_5)"/>
<path fill-rule="evenodd" clip-rule="evenodd" d="M103.244 73.9045V71.6609H107.536C107.828 65.416 112.979 60.4428 119.29 60.4428C125.789 60.4428 131.058 65.7161 131.058 72.2212C131.058 78.7262 125.789 83.9996 119.29 83.9996C113.362 83.9996 108.458 79.6121 107.642 73.9045H103.244ZM119.687 65.4789L126.026 71.8248C126.245 72.0438 126.245 72.399 126.026 72.618L119.687 78.9639C119.468 79.183 119.113 79.183 118.894 78.9639L112.555 72.618C112.336 72.399 112.336 72.0438 112.555 71.8248L118.894 65.4789C119.113 65.2598 119.468 65.2598 119.687 65.4789Z" fill="url(#paint1_linear_971_5)"/>
<path d="M94.0088 54.1371L88.8063 51.1305L89.9467 49.1988L95.1295 52.1941C98.7638 54.2945 101.003 58.1761 101.003 62.3769V82.0667C101.003 86.2675 98.7638 90.1491 95.1295 92.2495L89.9468 95.2446L88.8065 93.313L94.0088 90.3065C96.9496 88.6069 98.7613 85.4659 98.7613 82.0667V62.3769C98.7613 58.9777 96.9496 55.8367 94.0088 54.1371Z" fill="url(#paint2_linear_971_5)"/>
<defs>
<linearGradient id="paint0_linear_971_5" x1="87.9231" y1="135.008" x2="61.25" y2="14.0558" gradientUnits="userSpaceOnUse">
<stop stop-color="#E1B0A8"/>
<stop offset="1" stop-color="#D3A2E7"/>
</linearGradient>
<linearGradient id="paint1_linear_971_5" x1="87.9231" y1="135.008" x2="61.25" y2="14.0558" gradientUnits="userSpaceOnUse">
<stop stop-color="#E1B0A8"/>
<stop offset="1" stop-color="#D3A2E7"/>
</linearGradient>
<linearGradient id="paint2_linear_971_5" x1="87.9231" y1="135.008" x2="61.25" y2="14.0558" gradientUnits="userSpaceOnUse">
<stop stop-color="#E1B0A8"/>
<stop offset="1" stop-color="#D3A2E7"/>
</linearGradient>
</defs>
</svg>
