<svg width="260" height="260" viewBox="0 0 260 260" fill="none" xmlns="http://www.w3.org/2000/svg">
<path fill-rule="evenodd" clip-rule="evenodd" d="M45.1 84.2398C33.4468 84.2398 24 74.7841 24 63.1199C24 51.4557 33.4468 42 45.1 42C55.7301 42 64.5242 49.8682 65.9865 60.1037H82.1455C88.5416 60.1037 94.4621 63.4854 97.716 68.9975L106.176 83.3294L118.969 75.9364C125.486 72.1702 133.515 72.1702 140.031 75.9364L150.841 82.1837L148.797 85.6474L138.022 79.4204C132.749 76.3729 126.252 76.3729 120.978 79.4204L108.221 86.7931L117.605 102.688C121.27 101.171 125.287 100.334 129.5 100.334C134.331 100.334 138.905 101.435 142.985 103.4L163.294 68.9976C166.548 63.4855 172.468 60.1038 178.864 60.1038H193.014C194.476 49.8683 203.27 42 213.9 42C225.553 42 235 51.4557 235 63.1199C235 74.7841 225.553 84.2398 213.9 84.2398C202.584 84.2398 193.349 75.3235 192.824 64.1268L178.864 64.1268C173.889 64.1268 169.285 66.7571 166.754 71.0442L146.488 105.375C154.22 110.42 159.575 118.811 160.504 128.495H173.07V132.518H160.632C160.321 142.316 155.494 150.972 148.167 156.471L166.754 187.958C169.284 192.245 173.889 194.875 178.864 194.875H192.823C193.347 183.678 202.583 174.76 213.9 174.76C225.553 174.76 235 184.216 235 195.88C235 207.544 225.553 217 213.9 217C203.271 217 194.477 209.133 193.014 198.898H178.864C172.468 198.898 166.547 195.517 163.294 190.004L144.799 158.675C140.28 161.23 135.06 162.688 129.5 162.688C124.557 162.688 119.884 161.536 115.732 159.485L108.221 172.209L120.978 179.582C126.252 182.629 132.749 182.629 138.022 179.582L148.797 173.355L150.842 176.818L140.031 183.066C133.515 186.832 125.486 186.832 118.969 183.066L106.176 175.673L97.716 190.004C94.4621 195.516 88.5416 198.898 82.1455 198.898H65.9862C64.5232 209.133 55.7295 217 45.1 217C33.4468 217 24 207.544 24 195.88C24 184.216 33.4468 174.76 45.1 174.76C56.4166 174.76 65.6525 183.678 66.1765 194.875H82.1455C87.1203 194.875 91.7251 192.245 94.2559 187.958L102.696 173.661L88.4234 165.413C81.9066 161.647 77.8921 154.686 77.8921 147.154V136.541H81.9112V147.154C81.9112 153.249 85.1596 158.881 90.4329 161.929L104.74 170.197L112.251 157.475C104.133 152.061 98.6986 142.934 98.3683 132.518L65.9862 132.518C64.523 142.753 55.7294 150.62 45.1 150.62C33.4468 150.62 24 141.164 24 129.5C24 117.836 33.4468 108.38 45.1 108.38C56.4167 108.38 65.6526 117.298 66.1765 128.495L98.4962 128.495C99.4829 118.206 105.466 109.378 113.988 104.469L104.74 88.8048L90.4329 97.0734C85.1596 100.121 81.9112 105.753 81.9112 111.848V124.472H77.8921V111.848C77.8921 104.316 81.9066 97.3555 88.4234 93.5894L102.696 85.3411L94.2559 71.0441C91.7251 66.7569 87.1203 64.1267 82.1455 64.1267L66.1764 64.1267C65.6515 75.3234 56.416 84.2398 45.1 84.2398ZM45.9441 51.3524C45.5482 50.7395 44.6524 50.7395 44.2566 51.3524L40.8427 56.6383C40.7071 56.8483 40.4983 57.0001 40.2569 57.0643L34.1798 58.6809C33.4751 58.8684 33.1982 59.7212 33.6583 60.2875L37.6255 65.1709C37.7831 65.3649 37.8629 65.6106 37.8493 65.8602L37.5073 72.1452C37.4676 72.874 38.1923 73.4011 38.8725 73.1381L44.7383 70.8704C44.9713 70.7803 45.2294 70.7803 45.4623 70.8704L51.3281 73.1381C52.0083 73.4011 52.7331 72.874 52.6934 72.1452L52.3514 65.8602C52.3378 65.6106 52.4176 65.3649 52.5751 65.1709L56.5424 60.2875C57.0024 59.7212 56.7256 58.8684 56.0209 58.6809L49.9437 57.0643C49.7024 57.0001 49.4936 56.8483 49.358 56.6383L45.9441 51.3524ZM37.0619 120.449C36.507 120.449 36.0571 120.899 36.0571 121.455V137.547C36.0571 138.103 36.507 138.553 37.0619 138.553H53.1381C53.693 138.553 54.1429 138.103 54.1429 137.547V121.455C54.1429 120.899 53.693 120.449 53.1381 120.449H37.0619ZM48.5164 184.818C49.0713 184.818 49.5212 185.268 49.5212 185.824V191.456H55.1476C55.7025 191.456 56.1524 191.906 56.1524 192.461V199.301C56.1524 199.856 55.7025 200.306 55.1476 200.306H49.5212V205.939C49.5212 206.494 49.0713 206.944 48.5164 206.944H41.684C41.1291 206.944 40.6792 206.494 40.6792 205.939V200.306H35.0524C34.4975 200.306 34.0476 199.856 34.0476 199.301V192.461C34.0476 191.906 34.4975 191.456 35.0524 191.456H40.6792V185.824C40.6792 185.268 41.1291 184.818 41.684 184.818H48.5164ZM225.207 59.2991C225.6 58.9063 225.6 58.2695 225.207 57.8767L220.009 52.6736C219.617 52.2808 218.981 52.2808 218.588 52.6736L214.334 56.932L210.08 52.6743C209.688 52.2815 209.052 52.2815 208.66 52.6743L203.462 57.8774C203.069 58.2702 203.069 58.907 203.462 59.2998L207.715 63.5575L203.462 67.815C203.069 68.2078 203.069 68.8446 203.462 69.2373L208.66 74.4405C209.052 74.8333 209.688 74.8333 210.081 74.4405L214.334 70.1831L218.588 74.4412C218.98 74.834 219.616 74.834 220.009 74.4412L225.207 69.238C225.599 68.8453 225.599 68.2085 225.207 67.8157L220.953 63.5575L225.207 59.2991ZM224.798 203.161L214.889 185.408C214.449 184.621 213.351 184.621 212.911 185.408L203.002 203.161C202.563 203.949 203.112 204.933 203.991 204.933H223.809C224.688 204.933 225.237 203.949 224.798 203.161Z" fill="url(#paint0_linear_105_27)"/>
<path fill-rule="evenodd" clip-rule="evenodd" d="M185.127 132.518V128.495H192.823C193.347 117.298 202.583 108.38 213.9 108.38C225.553 108.38 235 117.836 235 129.5C235 141.164 225.553 150.62 213.9 150.62C203.271 150.62 194.477 142.753 193.014 132.518H185.127ZM214.61 117.41L225.978 128.789C226.37 129.182 226.37 129.819 225.978 130.212L214.61 141.59C214.218 141.983 213.582 141.983 213.19 141.59L201.822 130.212C201.43 129.819 201.43 129.182 201.822 128.789L213.19 117.41C213.582 117.018 214.218 117.018 214.61 117.41Z" fill="url(#paint1_linear_105_27)"/>
<path d="M168.567 97.0734L159.239 91.6823L161.284 88.2186L170.577 93.5894C177.094 97.3555 181.108 104.316 181.108 111.848V147.154C181.108 154.686 177.094 161.647 170.577 165.413L161.284 170.783L159.239 167.32L168.567 161.929C173.841 158.881 177.089 153.249 177.089 147.154V111.848C177.089 105.753 173.841 100.121 168.567 97.0734Z" fill="url(#paint2_linear_105_27)"/>
<defs>
<linearGradient id="paint0_linear_105_27" x1="157.655" y1="242.083" x2="109.828" y2="25.2034" gradientUnits="userSpaceOnUse">
<stop stop-color="#E1B0A8"/>
<stop offset="1" stop-color="#D3A2E7"/>
</linearGradient>
<linearGradient id="paint1_linear_105_27" x1="157.655" y1="242.083" x2="109.828" y2="25.2034" gradientUnits="userSpaceOnUse">
<stop stop-color="#E1B0A8"/>
<stop offset="1" stop-color="#D3A2E7"/>
</linearGradient>
<linearGradient id="paint2_linear_105_27" x1="157.655" y1="242.083" x2="109.828" y2="25.2034" gradientUnits="userSpaceOnUse">
<stop stop-color="#E1B0A8"/>
<stop offset="1" stop-color="#D3A2E7"/>
</linearGradient>
</defs>
</svg>
