<svg width="260" height="260" viewBox="0 0 260 260" fill="none" xmlns="http://www.w3.org/2000/svg">
<path d="M164.039 185.323C171.531 177.125 176.101 166.212 176.101 154.232C176.101 128.771 155.461 108.131 130 108.131C104.539 108.131 83.8991 128.771 83.8991 154.232C83.8991 166.212 88.4692 177.125 95.9611 185.323H90.3435C83.6201 176.759 79.6107 165.964 79.6107 154.232C79.6107 126.402 102.171 103.842 130 103.842C157.829 103.842 180.389 126.402 180.389 154.232C180.389 165.964 176.38 176.759 169.657 185.323H164.039Z" fill="url(#paint0_linear_356_16)"/>
<path fill-rule="evenodd" clip-rule="evenodd" d="M146.898 185.323C157.908 179.326 165.38 167.651 165.38 154.232C165.38 134.692 149.54 118.852 130 118.852C110.46 118.852 94.6203 134.692 94.6203 154.232C94.6203 167.651 102.092 179.326 113.102 185.323H146.898ZM124.636 167.246L144.542 147.925L141.182 144.463L124.636 160.522L117.203 153.308L113.843 156.77L124.636 167.246Z" fill="url(#paint1_linear_356_16)"/>
<path fill-rule="evenodd" clip-rule="evenodd" d="M56.0241 71.6787L56.0241 168.169H53.8799C47.9588 168.169 43.1587 172.969 43.1587 178.89C43.1587 184.811 47.9588 189.611 53.8799 189.611H206.12C212.041 189.611 216.841 184.811 216.841 178.89C216.841 172.969 212.041 168.169 206.12 168.169H203.976V71.6787C203.976 66.9418 200.136 63.1017 195.399 63.1017H64.601C59.8641 63.1017 56.0241 66.9418 56.0241 71.6787ZM195.399 67.3902L64.601 67.3902C62.2326 67.3902 60.3126 69.3102 60.3126 71.6787V185.323H199.688V71.6787C199.688 69.3102 197.768 67.3902 195.399 67.3902Z" fill="url(#paint2_linear_356_16)"/>
<path d="M83.8991 26.6498L214.697 26.6498C217.066 26.6498 218.986 28.5698 218.986 30.9383V155.304C218.986 157.672 217.066 159.592 214.697 159.592H208.265V163.881H214.697C219.434 163.881 223.274 160.041 223.274 155.304V30.9383C223.274 26.2014 219.434 22.3614 214.697 22.3614H83.8991C79.1622 22.3614 75.3222 26.2014 75.3222 30.9383V58.8133H79.6107V30.9383C79.6107 28.5698 81.5307 26.6498 83.8991 26.6498Z" fill="url(#paint3_linear_356_16)"/>
<path d="M43.1587 234.64C43.1587 233.456 44.1187 232.496 45.303 232.496H214.697C215.881 232.496 216.841 233.456 216.841 234.64C216.841 235.824 215.881 236.784 214.697 236.784H45.303C44.1187 236.784 43.1587 235.824 43.1587 234.64Z" fill="url(#paint4_linear_356_16)"/>
<path fill-rule="evenodd" clip-rule="evenodd" d="M51.7357 129.573H43.1587C33.6849 129.573 26.0049 137.253 26.0049 146.727V228.208C26.0049 237.681 33.6849 245.361 43.1587 245.361H216.841C226.315 245.361 233.995 237.681 233.995 228.208V146.727C233.995 141.31 231.484 136.479 227.563 133.335V139.613C228.917 141.65 229.707 144.096 229.707 146.727V211.054C229.707 218.159 223.947 223.919 216.841 223.919H43.1587C36.0534 223.919 30.2933 218.159 30.2933 211.054V146.727C30.2933 139.621 36.0534 133.861 43.1587 133.861H51.7357V129.573ZM229.707 222.4V228.208C229.707 235.313 223.947 241.073 216.841 241.073H43.1587C36.0534 241.073 30.2933 235.313 30.2933 228.208V222.4C33.4365 225.961 38.0353 228.208 43.1587 228.208H216.841C221.965 228.208 226.564 225.961 229.707 222.4Z" fill="url(#paint5_linear_356_16)"/>
<defs>
<linearGradient id="paint0_linear_356_16" x1="-57.6122" y1="22.3614" x2="329.447" y2="222.471" gradientUnits="userSpaceOnUse">
<stop stop-color="#81D2FF"/>
<stop offset="1" stop-color="#5B5F68"/>
</linearGradient>
<linearGradient id="paint1_linear_356_16" x1="-57.6122" y1="22.3614" x2="329.447" y2="222.471" gradientUnits="userSpaceOnUse">
<stop stop-color="#81D2FF"/>
<stop offset="1" stop-color="#5B5F68"/>
</linearGradient>
<linearGradient id="paint2_linear_356_16" x1="-57.6122" y1="22.3614" x2="329.447" y2="222.471" gradientUnits="userSpaceOnUse">
<stop stop-color="#81D2FF"/>
<stop offset="1" stop-color="#5B5F68"/>
</linearGradient>
<linearGradient id="paint3_linear_356_16" x1="-57.6122" y1="22.3614" x2="329.447" y2="222.471" gradientUnits="userSpaceOnUse">
<stop stop-color="#81D2FF"/>
<stop offset="1" stop-color="#5B5F68"/>
</linearGradient>
<linearGradient id="paint4_linear_356_16" x1="-57.6122" y1="22.3614" x2="329.447" y2="222.471" gradientUnits="userSpaceOnUse">
<stop stop-color="#81D2FF"/>
<stop offset="1" stop-color="#5B5F68"/>
</linearGradient>
<linearGradient id="paint5_linear_356_16" x1="-57.6122" y1="22.3614" x2="329.447" y2="222.471" gradientUnits="userSpaceOnUse">
<stop stop-color="#81D2FF"/>
<stop offset="1" stop-color="#5B5F68"/>
</linearGradient>
</defs>
</svg>
