<svg xmlns="http://www.w3.org/2000/svg" xmlns:xlink="http://www.w3.org/1999/xlink" width="105px" height="105px" viewBox="0 0 105 105" version="1.1">
<defs>
<linearGradient id="linear0" gradientUnits="userSpaceOnUse" x1="-57.6122" y1="22.3614" x2="329.447" y2="222.471" gradientTransform="matrix(0.403846,0,0,0.403846,0,0)">
<stop offset="0" stop-color="#E1B0A8"/>
<stop offset="1" stop-color="#D3A2E7"/>
</linearGradient>
<linearGradient id="linear1" gradientUnits="userSpaceOnUse" x1="-57.6122" y1="22.3614" x2="329.447" y2="222.471" gradientTransform="matrix(0.403846,0,0,0.403846,0,0)">
<stop offset="0" stop-color="#E1B0A8"/>
<stop offset="1" stop-color="#D3A2E7"/>
</linearGradient>
<linearGradient id="linear2" gradientUnits="userSpaceOnUse" x1="-57.6122" y1="22.3614" x2="329.447" y2="222.471" gradientTransform="matrix(0.403846,0,0,0.403846,0,0)">
<stop offset="0" stop-color="#E1B0A8"/>
<stop offset="1" stop-color="#D3A2E7"/>
</linearGradient>
<linearGradient id="linear3" gradientUnits="userSpaceOnUse" x1="-57.6122" y1="22.3614" x2="329.447" y2="222.471" gradientTransform="matrix(0.403846,0,0,0.403846,0,0)">
<stop offset="0" stop-color="#E1B0A8"/>
<stop offset="1" stop-color="#D3A2E7"/>
</linearGradient>
<linearGradient id="linear4" gradientUnits="userSpaceOnUse" x1="-57.6122" y1="22.3614" x2="329.447" y2="222.471" gradientTransform="matrix(0.403846,0,0,0.403846,0,0)">
<stop offset="0" stop-color="#E1B0A8"/>
<stop offset="1" stop-color="#D3A2E7"/>
</linearGradient>
<linearGradient id="linear5" gradientUnits="userSpaceOnUse" x1="-57.6122" y1="22.3614" x2="329.447" y2="222.471" gradientTransform="matrix(0.403846,0,0,0.403846,0,0)">
<stop offset="0" stop-color="#E1B0A8"/>
<stop offset="1" stop-color="#D3A2E7"/>
</linearGradient>
</defs>
<g id="surface1">
<path style=" stroke:none;fill-rule:nonzero;fill:url(#linear0);" d="M 66.246094 74.84375 C 69.273438 71.53125 71.117188 67.125 71.117188 62.285156 C 71.117188 52.003906 62.78125 43.667969 52.5 43.667969 C 42.21875 43.667969 33.882812 52.003906 33.882812 62.285156 C 33.882812 67.125 35.726562 71.53125 38.753906 74.84375 L 36.484375 74.84375 C 33.769531 71.382812 32.152344 67.023438 32.152344 62.285156 C 32.152344 51.046875 41.261719 41.9375 52.5 41.9375 C 63.738281 41.9375 72.847656 51.046875 72.847656 62.285156 C 72.847656 67.023438 71.230469 71.382812 68.515625 74.84375 Z M 66.246094 74.84375 "/>
<path style=" stroke:none;fill-rule:evenodd;fill:url(#linear1);" d="M 59.324219 74.84375 C 63.769531 72.421875 66.789062 67.707031 66.789062 62.285156 C 66.789062 54.394531 60.390625 47.996094 52.5 47.996094 C 44.609375 47.996094 38.210938 54.394531 38.210938 62.285156 C 38.210938 67.707031 41.230469 72.421875 45.675781 74.84375 Z M 50.332031 67.542969 L 58.371094 59.738281 L 57.015625 58.339844 L 50.332031 64.828125 L 47.332031 61.914062 L 45.976562 63.3125 Z M 50.332031 67.542969 "/>
<path style=" stroke:none;fill-rule:evenodd;fill:url(#linear2);" d="M 22.625 28.945312 L 22.625 67.914062 L 21.757812 67.914062 C 19.367188 67.914062 17.429688 69.851562 17.429688 72.242188 C 17.429688 74.636719 19.367188 76.574219 21.757812 76.574219 L 83.242188 76.574219 C 85.632812 76.574219 87.570312 74.636719 87.570312 72.242188 C 87.570312 69.851562 85.632812 67.914062 83.242188 67.914062 L 82.375 67.914062 L 82.375 28.945312 C 82.375 27.035156 80.824219 25.484375 78.910156 25.484375 L 26.089844 25.484375 C 24.175781 25.484375 22.625 27.035156 22.625 28.945312 Z M 78.910156 27.214844 L 26.089844 27.214844 C 25.132812 27.214844 24.355469 27.992188 24.355469 28.945312 L 24.355469 74.84375 L 80.644531 74.84375 L 80.644531 28.945312 C 80.644531 27.992188 79.867188 27.214844 78.910156 27.214844 Z M 78.910156 27.214844 "/>
<path style=" stroke:none;fill-rule:nonzero;fill:url(#linear3);" d="M 33.882812 10.761719 L 86.703125 10.761719 C 87.660156 10.761719 88.4375 11.539062 88.4375 12.496094 L 88.4375 62.71875 C 88.4375 63.675781 87.660156 64.449219 86.703125 64.449219 L 84.105469 64.449219 L 84.105469 66.183594 L 86.703125 66.183594 C 88.617188 66.183594 90.167969 64.632812 90.167969 62.71875 L 90.167969 12.496094 C 90.167969 10.582031 88.617188 9.03125 86.703125 9.03125 L 33.882812 9.03125 C 31.96875 9.03125 30.417969 10.582031 30.417969 12.496094 L 30.417969 23.75 L 32.152344 23.75 L 32.152344 12.496094 C 32.152344 11.539062 32.925781 10.761719 33.882812 10.761719 Z M 33.882812 10.761719 "/>
<path style=" stroke:none;fill-rule:nonzero;fill:url(#linear4);" d="M 17.429688 94.757812 C 17.429688 94.28125 17.816406 93.894531 18.296875 93.894531 L 86.703125 93.894531 C 87.183594 93.894531 87.570312 94.28125 87.570312 94.757812 C 87.570312 95.238281 87.183594 95.625 86.703125 95.625 L 18.296875 95.625 C 17.816406 95.625 17.429688 95.238281 17.429688 94.757812 Z M 17.429688 94.757812 "/>
<path style=" stroke:none;fill-rule:evenodd;fill:url(#linear5);" d="M 20.894531 52.328125 L 17.429688 52.328125 C 13.605469 52.328125 10.503906 55.429688 10.503906 59.253906 L 10.503906 92.160156 C 10.503906 95.988281 13.605469 99.089844 17.429688 99.089844 L 87.570312 99.089844 C 91.394531 99.089844 94.496094 95.988281 94.496094 92.160156 L 94.496094 59.253906 C 94.496094 57.066406 93.484375 55.117188 91.902344 53.847656 L 91.902344 56.382812 C 92.445312 57.203125 92.765625 58.191406 92.765625 59.253906 L 92.765625 85.234375 C 92.765625 88.101562 90.441406 90.429688 87.570312 90.429688 L 17.429688 90.429688 C 14.558594 90.429688 12.234375 88.101562 12.234375 85.234375 L 12.234375 59.253906 C 12.234375 56.386719 14.558594 54.058594 17.429688 54.058594 L 20.894531 54.058594 Z M 92.765625 89.816406 L 92.765625 92.160156 C 92.765625 95.03125 90.441406 97.355469 87.570312 97.355469 L 17.429688 97.355469 C 14.558594 97.355469 12.234375 95.03125 12.234375 92.160156 L 12.234375 89.816406 C 13.503906 91.253906 15.359375 92.160156 17.429688 92.160156 L 87.570312 92.160156 C 89.640625 92.160156 91.496094 91.253906 92.765625 89.816406 Z M 92.765625 89.816406 "/>
</g>
</svg>
