<svg fill="none" height="480" viewBox="0 0 480 480" width="480" xmlns="http://www.w3.org/2000/svg" xmlns:xlink="http://www.w3.org/1999/xlink"><linearGradient id="a" gradientUnits="userSpaceOnUse" x1="460.5" x2="39.5613" y1=".000104" y2="-32.4937"><stop offset="0" stop-color="#f1fffd"/><stop offset="1" stop-color="#cedde3"/></linearGradient><linearGradient id="b" gradientUnits="userSpaceOnUse" x1="241.4" x2="238.98" y1="572.7" y2="283.26"><stop offset=".02" stop-color="#00beff"/><stop offset=".14" stop-color="#05bff9" stop-opacity=".98"/><stop offset=".34" stop-color="#14c2eb" stop-opacity=".91"/><stop offset=".59" stop-color="#2cc7d3" stop-opacity=".8"/><stop offset=".89" stop-color="#4ecfb2" stop-opacity=".66"/><stop offset="1" stop-color="#5bd2a6" stop-opacity=".6"/></linearGradient><linearGradient id="c" gradientUnits="userSpaceOnUse" x1="221.63" x2="263.45" y1="354.631" y2="440.681"><stop offset=".04" stop-color="#00beff"/><stop offset=".19" stop-color="#09c0f5"/><stop offset=".44" stop-color="#22c5dc"/><stop offset=".76" stop-color="#4bceb4"/><stop offset=".87" stop-color="#5bd2a6"/></linearGradient><linearGradient id="d" gradientUnits="userSpaceOnUse" x1="222.9" x2="278.08" y1="394.771" y2="349.531"><stop offset="0" stop-color="#1dc69e"/><stop offset=".24" stop-color="#22b6ab"/><stop offset=".69" stop-color="#308fce"/><stop offset="1" stop-color="#3b71e9"/></linearGradient><linearGradient id="e" gradientUnits="userSpaceOnUse" x1="190.43" x2="289.68" y1="355.691" y2="355.691"><stop offset="0" stop-color="#4663d3"/><stop offset=".21" stop-color="#435cc9"/><stop offset=".56" stop-color="#3e4ab0"/><stop offset="1" stop-color="#352d87"/></linearGradient><linearGradient id="f" gradientUnits="userSpaceOnUse" x1="228.71" x2="275.46" y1="298.46" y2="342.51"><stop offset=".24" stop-color="#46b0fb"/><stop offset=".39" stop-color="#44a6fb"/><stop offset=".63" stop-color="#3f8dfc"/><stop offset=".93" stop-color="#3664fe"/><stop offset="1" stop-color="#355aff"/></linearGradient><linearGradient id="g" gradientUnits="userSpaceOnUse" x1="214.7" x2="239.89" y1="349.611" y2="256.981"><stop offset="0" stop-color="#336af9"/><stop offset=".11" stop-color="#3673f9"/><stop offset=".28" stop-color="#3e8cfa"/><stop offset=".5" stop-color="#4db5fb"/><stop offset=".61" stop-color="#55cdfc"/></linearGradient><linearGradient id="h" gradientUnits="userSpaceOnUse" x1="-20.9801" x2="555.17" y1="121.91" y2="451.23"><stop offset=".03" stop-color="#00beff"/><stop offset=".21" stop-color="#09c0f5"/><stop offset=".5" stop-color="#22c5dc"/><stop offset=".88" stop-color="#4bceb4"/><stop offset="1" stop-color="#5bd2a6"/></linearGradient><linearGradient id="i" gradientUnits="userSpaceOnUse" x1="-37.1" x2="492.49" y1="429.68" y2="126.72"><stop offset=".07" stop-color="#336af9"/><stop offset=".22" stop-color="#3673f9"/><stop offset=".48" stop-color="#3e8cfa"/><stop offset=".8" stop-color="#4db5fb"/><stop offset=".96" stop-color="#55cdfc"/></linearGradient><linearGradient id="j" gradientUnits="userSpaceOnUse" x1="209.24" x2="208.85" y1="555.069" y2="323.419"><stop offset=".03" stop-color="#336af9" stop-opacity=".6"/><stop offset=".31" stop-color="#397df9" stop-opacity=".56"/><stop offset=".78" stop-color="#4bb0fb" stop-opacity=".46"/><stop offset=".99" stop-color="#55cdfc" stop-opacity=".4"/></linearGradient><linearGradient id="k"><stop offset="0" stop-color="#d0244c"/><stop offset=".74" stop-color="#c62149"/><stop offset="1" stop-color="#c22148"/></linearGradient><linearGradient id="l" gradientUnits="userSpaceOnUse" x1="240.02" x2="376.35" xlink:href="#k" y1="228.13" y2="228.13"/><linearGradient id="m"><stop offset="0" stop-color="#e65b5b"/><stop offset=".83" stop-color="#e6645f"/><stop offset="1" stop-color="#e66761"/></linearGradient><linearGradient id="n" gradientUnits="userSpaceOnUse" x1="103.78" x2="240.05" xlink:href="#m" y1="228.141" y2="228.141"/><linearGradient id="o"><stop offset="0" stop-color="#7d244c"/><stop offset=".78" stop-color="#732149"/><stop offset="1" stop-color="#702148"/></linearGradient><linearGradient id="p" gradientUnits="userSpaceOnUse" x1="178.04" x2="240.02" xlink:href="#o" y1="249.631" y2="249.631"/><linearGradient id="q" gradientUnits="userSpaceOnUse" x1="239.98" x2="301.97" xlink:href="#o" y1="285.4" y2="285.4"/><linearGradient id="r" gradientUnits="userSpaceOnUse" x1="240.05" x2="376.29" xlink:href="#o" y1="306.88" y2="306.88"/><linearGradient id="s" gradientUnits="userSpaceOnUse" x1="103.79" x2="240.05" xlink:href="#k" y1="306.88" y2="306.88"/><linearGradient id="t" gradientUnits="userSpaceOnUse" x1="240.02" x2="302.08" xlink:href="#o" y1="249.631" y2="249.631"/><linearGradient id="u" gradientUnits="userSpaceOnUse" x1="178.04" x2="-43.9999" xlink:href="#m" y1="285.36" y2="285.36"/><linearGradient id="v" gradientUnits="userSpaceOnUse" x1="103.79" x2="376.29" xlink:href="#m" y1="263.941" y2="263.941"/><linearGradient id="w"><stop offset="0" stop-color="#00f0e9"/><stop offset=".51" stop-color="#09f2e7"/><stop offset=".99" stop-color="#17f6e5"/></linearGradient><linearGradient id="x" gradientUnits="userSpaceOnUse" x1="178.04" x2="240.07" xlink:href="#w" y1="210.27" y2="210.27"/><linearGradient id="y" gradientUnits="userSpaceOnUse" x1="-45" x2="240.06" xlink:href="#w" y1="246.011" y2="246.011"/><linearGradient id="z" gradientUnits="userSpaceOnUse" x1="240.06" x2="302.02" y1="210.24" y2="210.24"><stop offset="0" stop-color="#00aeb2"/><stop offset=".32" stop-color="#00a4ab"/><stop offset=".85" stop-color="#008b9b"/><stop offset="1" stop-color="#008396"/></linearGradient><linearGradient id="A" gradientUnits="userSpaceOnUse" x1="210.93" x2="268.93" y1="241.08" y2="241.08"><stop offset="0" stop-color="#d7d350"/><stop offset=".74" stop-color="#e0d753"/><stop offset=".99" stop-color="#e5d955"/></linearGradient><linearGradient id="B" gradientUnits="userSpaceOnUse" x1="241" x2="301.92" xlink:href="#w" y1="246.36" y2="246.36"/><linearGradient id="C" gradientUnits="userSpaceOnUse" x1="178.15" x2="302.23" y1="192.349" y2="192.349"><stop offset=".22" stop-color="#00aeb2"/><stop offset=".47" stop-color="#00a4ab"/><stop offset=".88" stop-color="#008b9b"/><stop offset="1" stop-color="#008396"/></linearGradient><linearGradient id="D"><stop offset="0" stop-color="#00617f"/><stop offset=".18" stop-color="#01577a"/><stop offset=".49" stop-color="#053e6d"/><stop offset=".87" stop-color="#0c1558"/><stop offset="1" stop-color="#0f0651"/></linearGradient><linearGradient id="E" gradientUnits="userSpaceOnUse" x1="177.65" x2="302.73" xlink:href="#D" y1="245.6" y2="245.6"/><linearGradient id="F" gradientUnits="userSpaceOnUse" x1="174.19" x2="305.92" xlink:href="#D" y1="229.391" y2="229.391"/><linearGradient id="G" gradientUnits="userSpaceOnUse" x1="103.73" x2="376.35" xlink:href="#D" y1="190.39" y2="190.39"/><linearGradient id="H" gradientUnits="userSpaceOnUse" x1="106.6" x2="240.55" xlink:href="#D" y1="228.5" y2="228.5"/><linearGradient id="I"><stop offset="0" stop-color="#081d3e"/><stop offset=".27" stop-color="#081c3a" stop-opacity=".86"/><stop offset=".73" stop-color="#081a32" stop-opacity=".48"/><stop offset="1" stop-color="#09192c" stop-opacity=".2"/></linearGradient><linearGradient id="J" gradientUnits="userSpaceOnUse" x1="261.09" x2="278.84" xlink:href="#I" y1="314.791" y2="314.791"/><linearGradient id="K" gradientUnits="userSpaceOnUse" x1="256.62" x2="274.36" xlink:href="#I" y1="311.16" y2="311.16"/><linearGradient id="L" gradientUnits="userSpaceOnUse" x1="317.21" x2="334.96" xlink:href="#I" y1="272.821" y2="272.821"/><linearGradient id="M" gradientUnits="userSpaceOnUse" x1="312.27" x2="330.02" xlink:href="#I" y1="272.68" y2="272.68"/><linearGradient id="N" gradientUnits="userSpaceOnUse" x1="338.69" x2="356.44" xlink:href="#I" y1="261.09" y2="261.09"/><linearGradient id="O" gradientUnits="userSpaceOnUse" x1="307.57" x2="325.32" xlink:href="#I" y1="257.471" y2="257.471"/><linearGradient id="P" gradientUnits="userSpaceOnUse" x1="317.87" x2="335.62" xlink:href="#I" y1="247.51" y2="247.51"/><linearGradient id="Q" gradientUnits="userSpaceOnUse" x1="313.78" x2="331.53" xlink:href="#I" y1="239.371" y2="239.371"/><linearGradient id="R" gradientUnits="userSpaceOnUse" x1="311.23" x2="328.98" xlink:href="#I" y1="239.151" y2="239.151"/><linearGradient id="S" gradientUnits="userSpaceOnUse" x1="155.01" x2="172.76" xlink:href="#I" y1="245.26" y2="245.26"/><linearGradient id="T" gradientUnits="userSpaceOnUse" x1="151.14" x2="168.89" xlink:href="#I" y1="248.52" y2="248.52"/><linearGradient id="U" gradientUnits="userSpaceOnUse" x1="156.77" x2="174.52" xlink:href="#I" y1="264.85" y2="264.85"/><clipPath id="V"><rect height="480" rx="32" width="480"/></clipPath><clipPath id="W"><path d="m-45 31h570.11v533.47h-570.11z"/></clipPath><g clip-path="url(#V)"><rect fill="url(#a)" height="480" rx="32" width="480"/><rect height="463" rx="26.5" stroke="#150e1f" width="463" x="8.5" y="8.5"/><g clip-path="url(#W)"><path d="m302.08 528.59-62.03 35.88-62.01-35.88.11-215.14 61.9-35.88 62.18 35.73z" fill="url(#b)" opacity=".3"/><path clip-rule="evenodd" d="m239.99 327.051-49.56 28.72 49.68 78.6z" fill="url(#c)" fill-rule="evenodd"/><path clip-rule="evenodd" d="m240.12 327.051 49.56 28.72-49.69 78.6z" fill="url(#d)" fill-rule="evenodd"/><path clip-rule="evenodd" d="m190.43 355.771 49.56-28.72 49.69 28.72-49.57 28.55z" fill="url(#e)" fill-rule="evenodd"/><path clip-rule="evenodd" d="m240.05 362.75 49.57-28.72-49.69-78.61z" fill="url(#f)" fill-rule="evenodd"/><path clip-rule="evenodd" d="m239.87 362.551-49.56-28.73 49.68-78.6z" fill="url(#g)" fill-rule="evenodd"/><path d="m500.32 435.63-532.9001-307.62 24.75002-14.33 532.94008 307.64z" fill="url(#h)" opacity=".2"/><path d="m-20.22 435.62 526.67-304.08-24.71-14.27-526.74 304.04z" fill="url(#i)" opacity=".2"/><path d="m240.05 564.469-62.01-35.88.11-215.14 61.9 36.31z" fill="url(#j)"/><path d="m133.12 354.262-15 8.7c-1.24.72-2.77.72-4.01 0l-15.0799-8.71c-.67-.38-.67-1.35 0-1.73l15.0799-8.71c1.24-.72 2.77-.71 4.01 0l15 8.7c.66.39.66 1.34 0 1.73z" fill="#fff" opacity=".4"/><path d="m116.11 343.282c.69 0 1.39.18 2.01.54l15 8.7c.66.39.66 1.34 0 1.73l-15 8.7c-.62.36-1.31.54-2.01.54s-1.38-.18-2-.54l-15.08-8.71c-.67-.38-.67-1.35 0-1.73l15.08-8.71c.62-.36 1.31-.54 2-.54m0-.5c-.79 0-1.57.21-2.25.6l-15.08 8.71c-.47.27-.75.76-.75 1.3s.28 1.03.75 1.3l15.08 8.71c.68.39 1.46.6 2.25.6s1.57-.21 2.26-.61l15-8.7c.47-.27.75-.76.75-1.3s-.28-1.03-.75-1.3l-15-8.7c-.69-.4-1.47-.61-2.26-.61z" fill="#2d9fde"/><path d="m121.26 356.553-.14.07-.14.07-.14.07-.15.07-.15.06-.15.07-.15.06-.15.05-.16.06-.16.05-.15.05-.17.05-.16.04-.16.05-.17.04-.16.03-.17.04-.17.03-.17.03-.17.03-.18.02-.17.03-.17.02-.18.02-.17.01-.18.02-.17.01-.18.01h-.18l-.17.01h-.18-.17l-.18-.01h-.18l-.17-.01-.18-.01-.17-.02-.18-.01-.17-.02-.18-.02-.17-.03-.17-.02-.17-.03-.17-.03-.17-.03-.17-.04-.17-.03-.16-.04-.17-.05-.16-.04-.16-.05-.16-.05-.16-.05-.15-.06-.16-.05-.15-.06-.15-.07-.15-.06-.14-.07-.15-.07-.14-.07-.14-.07-.13-.08-.14-.08-.12-.08-.13-.08-.12-.08-.11-.09-.12-.08-.1-.09-.11-.09-.1-.08-.09-.09-.09-.1-.09-.09-.08-.09-.08-.09-.07-.1-.07-.09-.07-.1-.06-.1-.05-.1-.06-.09-.04-.1-.05-.1-.04-.1-.03-.1-.04-.1-.02-.1-.03-.1-.02-.11-.01-.1-.01-.1-.01-.1v-.1-.11l.01-.1.01-.1.01-.1.02-.1.03-.1.02-.1.04-.11.03-.1.04-.1.05-.09.04-.1.06-.1.05-.1.06-.1.07-.09.07-.1.07-.09.08-.1.08-.09.09-.09.09-.09.09-.09.1-.09.11-.09.1-.09.12-.08.11-.09.12-.08.13-.08.12-.08.14-.08.13-.08.14-.07.14-.07.15-.07.14-.07.15-.06.15-.06.15-.06.16-.06.15-.06.16-.05.16-.05.16-.04.16-.05.17-.04.16-.04.17-.04.17-.04.17-.03.17-.03.17-.03.17-.02.17-.03.18-.02.17-.01.18-.02.17-.01.18-.01.17-.01.18-.01h.18.17.18.17l.18.01.18.01.17.01.18.01.17.02.18.01.17.02.17.03.18.02.17.03.17.03.17.03.17.04.16.04.17.04.16.04.16.05.17.04.15.05.16.05.16.06.15.06.15.06.15.06.15.06.15.07.14.07.14.07.14.07.14.08.13.08.13.08.12.08.12.08.12.09.11.08.11.09.1.09.1.09.09.09.09.09.09.09.08.09.08.1.07.09.07.1.07.09.06.1.06.1.05.1.05.1.04.09.04.1.04.1.03.11.03.1.02.1.02.1.01.1.01.1.01.1v.11.1l-.01.1-.01.1-.01.1-.02.11-.02.1-.03.1-.03.1-.04.1-.04.1-.04.1-.05.1-.05.09-.06.1-.06.1-.07.1-.07.09-.07.1-.08.09-.08.09-.09.09-.09.1-.09.09-.1.08-.1.09-.11.09-.11.08-.12.09-.12.08-.12.08-.13.08-.13.08z" fill="#62e0db"/><path d="m158.02 432.91-15 8.7c-1.24.72-2.77.72-4.01 0l-15.08-8.71c-.67-.38-.67-1.35 0-1.73l15.08-8.71c1.24-.72 2.77-.71 4.01 0l15 8.7c.66.39.66 1.34 0 1.73z" fill="#fff" opacity=".4"/><path d="m141.01 421.94c.69 0 1.39.18 2.01.54l15 8.7c.66.39.66 1.34 0 1.73l-15 8.7c-.62.36-1.31.54-2.01.54s-1.38-.18-2-.54l-15.08-8.71c-.67-.38-.67-1.35 0-1.73l15.08-8.71c.62-.36 1.31-.54 2-.54m0-.5c-.79 0-1.57.21-2.25.6l-15.08 8.71c-.47.27-.75.76-.75 1.3s.28 1.03.75 1.3l15.08 8.71c.68.39 1.46.6 2.25.6s1.57-.21 2.26-.61l15-8.7c.47-.27.75-.76.75-1.3s-.28-1.03-.75-1.3l-15-8.7c-.69-.4-1.47-.61-2.26-.61z" fill="#2d9fde"/><path d="m146.15 435.199-.13.08-.15.07-.14.07-.15.06-.14.07-.15.06-.16.06-.15.06-.15.05-.16.05-.16.05-.16.05-.17.05-.16.04-.17.04-.16.04-.17.03-.17.03-.17.03-.17.03-.17.03-.18.02-.17.02-.17.02-.18.02-.17.01-.18.01-.18.01h-.17l-.18.01h-.18-.17l-.18-.01h-.17l-.18-.01-.18-.01-.17-.01-.18-.02-.17-.02-.18-.02-.17-.02-.17-.03-.17-.03-.17-.03-.17-.03-.17-.03-.17-.04-.16-.04-.17-.04-.16-.05-.16-.05-.16-.05-.16-.05-.15-.05-.16-.06-.15-.06-.15-.06-.15-.07-.14-.06-.14-.07-.15-.07-.13-.08-.14-.08-.13-.07-.13-.08-.13-.09-.12-.08-.11-.08-.11-.09-.11-.08-.1-.09-.1-.09-.1-.09-.09-.09-.08-.09-.09-.1-.07-.09-.08-.1-.07-.09-.06-.1-.06-.09-.06-.1-.05-.1-.05-.1-.05-.1-.04-.1-.03-.1-.03-.1-.03-.1-.02-.1-.02-.1-.02-.11-.01-.1v-.1l-.01-.1.01-.1v-.1l.01-.11.02-.1.02-.1.02-.1.03-.1.03-.1.03-.1.04-.1.05-.1.05-.1.05-.1.06-.1.06-.09.06-.1.07-.1.08-.09.07-.09.09-.1.08-.09.09-.09.1-.09.1-.09.1-.09.11-.08.11-.09.11-.08.12-.09.13-.08.13-.08.13-.08.14-.07.13-.08.14-.07.15-.07.14-.06.15-.07.15-.06.15-.06.16-.06.15-.05.16-.05.16-.05.16-.05.16-.05.17-.04.16-.04.17-.04.17-.03.17-.04.17-.03.17-.02.17-.03.17-.02.18-.02.17-.02.18-.02.17-.01.18-.01.18-.01.17-.01h.18.17.18.18l.17.01.18.01.18.01.17.01.18.02.17.02.17.02.18.02.17.03.17.02.17.03.17.04.17.03.16.04.17.04.16.04.17.05.16.05.16.05.16.05.15.05.15.06.16.06.15.06.15.07.14.06.14.07.15.07.13.08.14.07.13.08.13.08.13.08.12.09.11.08.11.09.11.08.1.09.1.09.1.09.09.09.08.09.09.1.07.09.08.09.07.1.06.1.06.09.06.1.05.1.05.1.05.1.04.1.03.1.03.1.03.1.02.1.02.1.02.1.01.11v.1l.01.1-.01.1v.1l-.01.1-.02.11-.02.1-.02.1-.03.1-.03.1-.03.1-.04.1-.05.1-.05.1-.05.1-.06.1-.06.09-.06.1-.07.09-.08.1-.07.09-.09.1-.08.09-.09.09-.1.09-.1.09-.1.09-.11.08-.11.09-.11.08-.12.08-.13.09-.13.08-.13.07z" fill="#2d9fde"/><path d="m411.96 429.371-15 8.7c-1.24.72-2.77.72-4.01 0l-15.08-8.71c-.67-.38-.67-1.35 0-1.73l15.08-8.71c1.24-.72 2.77-.71 4.01 0l15 8.7c.66.39.66 1.34 0 1.73z" fill="#fff" opacity=".4"/><path d="m394.95 418.401c.69 0 1.39.18 2.01.54l15 8.7c.66.39.66 1.34 0 1.73l-15 8.7c-.62.36-1.31.54-2.01.54s-1.38-.18-2-.54l-15.08-8.71c-.67-.38-.67-1.35 0-1.73l15.08-8.71c.62-.36 1.31-.54 2-.54m0-.5c-.79 0-1.57.21-2.25.6l-15.08 8.71c-.47.27-.75.76-.75 1.3s.28 1.03.75 1.3l15.08 8.71c.68.39 1.46.6 2.25.6s1.57-.21 2.26-.61l15-8.7c.47-.27.75-.76.75-1.3s-.28-1.03-.75-1.3l-15-8.7c-.69-.4-1.47-.61-2.26-.61z" fill="#2d9fde"/><path d="m400.09 431.66-.14.08-.14.07-.14.07-.15.07-.14.06-.15.06-.16.06-.15.06-.16.05-.15.06-.16.05-.16.04-.17.05-.16.04-.17.04-.16.04-.17.03-.17.04-.17.03-.17.02-.17.03-.18.02-.17.02-.18.02-.17.02-.18.01-.17.01-.18.01-.17.01h-.18-.18-.17-.18l-.18-.01-.17-.01-.18-.01-.17-.01-.18-.02-.17-.02-.18-.02-.17-.02-.17-.03-.17-.02-.17-.03-.17-.04-.17-.03-.17-.04-.16-.04-.17-.04-.16-.05-.16-.04-.16-.05-.16-.06-.15-.05-.16-.06-.15-.06-.15-.06-.15-.06-.14-.07-.15-.07-.14-.07-.14-.08-.13-.07-.13-.08-.13-.08-.13-.08-.12-.09-.11-.08-.11-.09-.11-.08-.11-.09-.09-.09-.1-.09-.09-.09-.09-.09-.08-.09-.08-.1-.07-.09-.07-.1-.06-.1-.07-.09-.05-.1-.05-.1-.05-.1-.05-.1-.04-.1-.03-.1-.03-.1-.03-.1-.03-.1-.01-.1-.02-.1-.01-.1-.01-.11v-.1-.1l.01-.1.01-.1.02-.11.01-.1.03-.1.03-.1.03-.1.03-.1.04-.1.05-.1.05-.1.05-.1.05-.09.07-.1.06-.1.07-.09.07-.1.08-.09.08-.09.09-.1.09-.09.1-.09.09-.09.11-.08.11-.09.11-.09.11-.08.12-.08.13-.08.13-.08.13-.08.13-.08.14-.07.14-.08.15-.07.14-.06.15-.07.15-.06.15-.06.16-.06.15-.05.16-.05.16-.05.16-.05.16-.04.17-.05.16-.04.17-.03.17-.04.17-.03.17-.03.17-.03.17-.03.17-.02.18-.02.17-.02.18-.01.17-.02.18-.01.17-.01h.18l.18-.01h.17.18l.18.01h.17l.18.01.17.01.18.02.17.01.18.02.17.02.18.02.17.03.17.03.17.03.17.03.17.04.16.03.17.04.16.05.17.04.16.05.16.05.15.05.16.05.15.06.16.06.15.06.14.07.15.06.14.07.14.08.14.07.14.08.13.08.13.08.12.08.12.08.12.08.11.09.11.09.1.08.1.09.1.09.09.09.08.1.08.09.08.09.08.1.07.09.06.1.06.1.06.09.05.1.05.1.04.1.04.1.04.1.03.1.03.1.02.1.02.1.02.11.01.1v.1.1.1.11l-.01.1-.02.1-.02.1-.02.1-.03.1-.03.1-.04.1-.04.1-.04.1-.05.1-.05.1-.06.1-.06.09-.06.1-.07.1-.08.09-.08.1-.08.09-.08.09-.09.09-.1.09-.1.09-.1.09-.11.08-.11.09-.12.08-.12.09-.12.08-.13.08-.13.08z" fill="#ff7269"/><path d="m301.57 143.191-15 8.7c-1.24.72-2.77.72-4.01 0l-15.08-8.71c-.67-.38-.67-1.35 0-1.73l15.08-8.71c1.24-.72 2.77-.71 4.01 0l15 8.7c.66.39.66 1.34 0 1.73z" fill="#fff" opacity=".4"/><path d="m284.56 132.221c.69 0 1.39.18 2.01.54l15 8.7c.66.39.66 1.34 0 1.73l-15 8.7c-.62.36-1.31.54-2.01.54s-1.38-.18-2-.54l-15.08-8.71c-.67-.38-.67-1.35 0-1.73l15.08-8.71c.62-.36 1.31-.54 2-.54m0-.5c-.79 0-1.57.21-2.25.6l-15.08 8.71c-.47.27-.75.76-.75 1.3s.28 1.03.75 1.3l15.08 8.71c.68.39 1.46.6 2.25.6s1.57-.21 2.26-.61l15-8.7c.47-.27.75-.76.75-1.3s-.28-1.03-.75-1.3l-15-8.7c-.69-.4-1.47-.61-2.26-.61z" fill="#2d9fde"/><path d="m289.71 145.48-.14.08-.14.07-.15.07-.14.07-.15.06-.15.06-.15.06-.16.06-.15.05-.16.06-.16.05-.16.04-.16.05-.17.04-.16.04-.17.04-.17.03-.17.04-.17.03-.17.02-.17.03-.17.02-.18.02-.17.02-.18.02-.17.01-.18.01-.17.01-.18.01h-.18-.17-.18-.17l-.18-.01-.18-.01-.17-.01-.18-.01-.17-.02-.18-.02-.17-.02-.17-.02-.18-.03-.17-.02-.17-.03-.17-.04-.17-.03-.16-.04-.17-.04-.16-.04-.16-.05-.17-.04-.15-.05-.16-.06-.16-.05-.15-.06-.15-.06-.15-.06-.15-.06-.15-.07-.14-.07-.14-.07-.14-.08-.14-.07-.13-.08-.13-.08-.12-.08-.12-.09-.12-.08-.11-.09-.11-.08-.1-.09-.1-.09-.09-.09-.09-.09-.09-.09-.08-.09-.08-.1-.07-.09-.07-.1-.07-.1-.06-.09-.06-.1-.05-.1-.05-.1-.04-.1-.04-.1-.04-.1-.03-.1-.03-.1-.02-.1-.02-.1-.01-.1-.01-.1-.01-.11v-.1-.1l.01-.1.01-.1.01-.11.02-.1.02-.1.03-.1.03-.1.04-.1.04-.1.04-.1.05-.1.05-.1.06-.09.06-.1.07-.1.07-.09.07-.1.08-.09.08-.09.09-.1.09-.09.09-.09.1-.09.1-.08.11-.09.11-.09.12-.08.12-.08.12-.09.13-.08.13-.07.14-.08.14-.07.14-.08.14-.07.15-.06.15-.07.15-.06.15-.06.15-.06.16-.05.16-.05.15-.05.17-.05.16-.04.16-.05.17-.04.16-.03.17-.04.17-.03.17-.03.17-.03.18-.03.17-.02.17-.02.18-.02.17-.01.18-.02.17-.01.18-.01h.17l.18-.01h.18.17l.18.01h.18l.17.01.18.01.17.02.18.01.17.02.18.02.17.02.17.03.17.03.17.03.17.03.17.04.17.03.16.04.17.05.16.04.16.05.16.05.16.05.15.05.16.06.15.06.15.06.15.07.14.06.15.07.14.08.14.07.13.08.14.07.12.08.13.09.12.08.11.08.12.09.1.09.11.08.1.09.09.09.09.09.09.1.08.09.08.09.07.1.07.09.07.1.06.1.05.09.06.1.04.1.05.1.04.1.03.1.04.1.02.1.03.1.02.1.01.11.01.1.01.1v.1.1l-.01.11-.01.1-.01.1-.02.1-.03.1-.02.1-.04.1-.03.1-.04.1-.05.1-.04.1-.06.1-.05.1-.06.09-.07.1-.07.1-.07.09-.08.1-.08.09-.09.09-.09.09-.09.09-.1.09-.11.09-.1.08-.12.09-.11.08-.12.09-.13.08-.12.08-.14.08z" fill="#ff7269"/><path d="m65.1501 300.641-15 8.7c-1.24.72-2.77.72-4.01 0l-15.08-8.71c-.67-.38-.67-1.35 0-1.73l15.08-8.71c1.24-.72 2.77-.71 4.01 0l15 8.7c.66.39.66 1.34 0 1.73z" fill="#fff" opacity=".4"/><path d="m48.1401 289.661c.69 0 1.39.18 2.01.54l15 8.7c.66.39.66 1.34 0 1.73l-15 8.7c-.62.36-1.31.54-2.01.54s-1.38-.18-2-.54l-15.08-8.71c-.67-.38-.67-1.35 0-1.73l15.08-8.71c.62-.36 1.31-.54 2-.54m0-.5c-.79 0-1.57.21-2.25.6l-15.08 8.71c-.47.27-.75.76-.75 1.3s.28 1.03.75 1.3l15.08 8.71c.68.39 1.46.6 2.25.6s1.57-.21 2.26-.61l15-8.7c.47-.27.75-.76.75-1.3s-.28-1.03-.75-1.3l-15-8.7c-.69-.4-1.47-.61-2.26-.61z" fill="#2d9fde"/><path d="m53.2801 302.932-.14.07-.14.08-.14.06-.15.07-.14.07-.15.06-.16.06-.15.05-.16.06-.15.05-.16.05-.16.05-.17.04-.16.05-.17.04-.16.03-.17.04-.17.03-.17.03-.17.03-.17.03-.18.02-.17.02-.17.02-.18.01-.17.02-.18.01-.18.01h-.17l-.18.01h-.18-.17l-.18-.01h-.18l-.17-.01-.18-.01-.17-.02-.18-.01-.17-.02-.18-.02-.17-.02-.17-.03-.17-.03-.17-.03-.17-.03-.17-.04-.17-.03-.16-.04-.17-.05-.16-.04-.16-.05-.16-.05-.16-.05-.15-.06-.16-.05-.15-.06-.15-.06-.15-.07-.14-.07-.15-.06-.14-.08-.14-.07-.13-.08-.13-.08-.13-.08-.13-.08-.12-.08-.11-.08-.11-.09-.11-.09-.1-.08-.1-.09-.1-.09-.09-.09-.09-.1-.08-.09-.08-.09-.07-.1-.07-.09-.06-.1-.06-.1-.06-.09-.05-.1-.05-.1-.05-.1-.04-.1-.03-.1-.03-.1-.03-.1-.02-.1-.02-.1-.02-.11-.01-.1-.01-.1v-.1-.1l.01-.11.01-.1.02-.1.02-.1.02-.1.03-.1.03-.1.03-.1.04-.1.05-.1.05-.1.05-.1.06-.1.06-.1.06-.09.07-.1.07-.09.08-.1.08-.09.09-.09.09-.09.1-.09.1-.09.1-.09.11-.09.11-.08.11-.08.12-.09.13-.08.13-.08.13-.08.13-.07.14-.08.14-.07.15-.07.14-.07.15-.06.15-.06.15-.06.16-.06.15-.05.16-.06.16-.05.16-.04.16-.05.17-.04.16-.04.17-.04.17-.03.17-.04.17-.03.17-.03.17-.02.17-.02.18-.02.17-.02.18-.02.17-.01.18-.01.17-.01.18-.01h.18.17.18.18l.17.01.18.01.18.01.17.01.18.02.17.02.17.02.18.02.17.02.17.03.17.03.17.04.17.03.16.04.17.04.16.04.17.05.16.04.16.05.15.06.16.05.15.06.16.06.15.06.14.06.15.07.14.07.14.07.14.08.14.07.13.08.13.08.12.08.12.09.12.08.11.08.11.09.1.09.1.09.1.09.09.09.08.09.08.09.08.1.08.09.07.1.06.09.06.1.06.1.05.1.05.1.04.1.04.1.04.1.03.1.03.1.02.1.02.1.02.1.01.1v.11l.01.1-.01.1v.1l-.01.1-.02.11-.02.1-.02.1-.03.1-.03.1-.04.1-.04.1-.04.1-.05.1-.05.1-.06.09-.06.1-.06.1-.07.09-.08.1-.08.09-.08.09-.08.1-.09.09-.1.09-.1.09-.1.08-.11.09-.11.09-.12.08-.12.08-.12.08-.13.08-.13.08z" fill="#ffcb95"/><path d="m418.15 339.951-15 8.7c-1.24.72-2.77.72-4.01 0l-15.08-8.71c-.67-.38-.67-1.35 0-1.73l15.08-8.71c1.24-.72 2.77-.71 4.01 0l15 8.7c.66.39.66 1.34 0 1.73z" fill="#fff" opacity=".4"/><path d="m401.14 328.971c.69 0 1.39.18 2.01.54l15 8.7c.66.39.66 1.34 0 1.73l-15 8.7c-.62.36-1.31.54-2.01.54s-1.38-.18-2-.54l-15.08-8.71c-.67-.38-.67-1.35 0-1.73l15.08-8.71c.62-.36 1.31-.54 2-.54m0-.5c-.79 0-1.57.21-2.25.6l-15.08 8.71c-.47.27-.75.76-.75 1.3s.28 1.03.75 1.3l15.08 8.71c.68.39 1.46.6 2.25.6s1.57-.21 2.26-.61l15-8.7c.47-.27.75-.76.75-1.3s-.28-1.03-.75-1.3l-15-8.7c-.69-.4-1.47-.61-2.26-.61z" fill="#2d9fde"/><path d="m406.29 342.242-.14.07-.14.08-.14.07-.15.06-.15.07-.15.06-.15.06-.15.06-.16.05-.16.05-.16.05-.16.05-.16.04-.16.05-.17.04-.17.04-.16.03-.17.03-.17.03-.18.03-.17.03-.17.02-.17.02-.18.02-.17.01-.18.02-.17.01-.18.01h-.18l-.17.01h-.18-.18l-.17-.01h-.18l-.18-.01-.17-.01-.18-.02-.17-.01-.18-.02-.17-.02-.17-.02-.17-.03-.18-.03-.17-.03-.17-.03-.16-.03-.17-.04-.17-.04-.16-.05-.16-.04-.16-.05-.16-.05-.16-.05-.16-.05-.15-.06-.15-.06-.15-.06-.15-.07-.15-.06-.14-.07-.14-.08-.14-.07-.14-.08-.13-.07-.13-.08-.12-.09-.12-.08-.12-.08-.11-.09-.11-.09-.1-.08-.1-.09-.09-.09-.09-.09-.09-.09-.08-.1-.08-.09-.07-.1-.07-.09-.07-.1-.06-.1-.06-.09-.05-.1-.05-.1-.04-.1-.04-.1-.04-.1-.03-.1-.03-.1-.02-.1-.02-.1-.01-.11-.01-.1-.01-.1v-.1-.1l.01-.11.01-.1.01-.1.02-.1.02-.1.03-.1.03-.1.04-.1.04-.1.04-.1.05-.1.05-.1.06-.1.06-.09.07-.1.07-.1.07-.09.08-.09.08-.1.09-.09.09-.09.09-.09.1-.09.1-.09.11-.08.11-.09.12-.08.12-.09.12-.08.13-.08.13-.08.14-.07.14-.08.14-.07.14-.07.15-.07.15-.06.15-.06.15-.06.15-.06.16-.05.16-.06.16-.05.16-.04.16-.05.16-.04.17-.04.17-.04.16-.03.17-.04.17-.03.18-.02.17-.03.17-.02.17-.02.18-.02.17-.02.18-.01.17-.01.18-.01.18-.01h.17.18.18.17l.18.01.18.01.17.01.18.01.17.02.18.02.17.02.17.02.17.03.18.02.17.03.17.04.16.03.17.04.17.04.16.04.16.05.16.04.16.05.16.06.16.05.15.06.15.06.15.06.15.06.15.07.14.07.14.07.14.08.14.07.13.08.13.08.12.08.12.09.12.08.11.09.11.08.1.09.1.09.09.09.09.09.09.09.08.1.08.09.07.09.07.1.07.1.06.09.06.1.05.1.05.1.04.1.04.1.04.1.03.1.03.1.02.1.02.1.01.1.01.1.01.11v.1.1l-.01.1-.01.1-.01.11-.02.1-.02.1-.03.1-.03.1-.04.1-.04.1-.04.1-.05.1-.05.1-.06.09-.06.1-.07.1-.07.09-.07.1-.08.09-.08.1-.09.09-.09.09-.09.09-.1.09-.1.09-.11.08-.11.09-.12.08-.12.08-.12.09-.13.08-.13.07z" fill="#ffcb95"/><path d="m411.96 128.842-15 8.7c-1.24.72-2.77.72-4.01 0l-15.08-8.71c-.67-.38-.67-1.35 0-1.73l15.08-8.71c1.24-.72 2.77-.71 4.01 0l15 8.7c.66.39.66 1.34 0 1.73z" fill="#fff" opacity=".4"/><path d="m394.95 117.862c.69 0 1.39.18 2.01.54l15 8.7c.66.39.66 1.34 0 1.73l-15 8.7c-.62.36-1.31.54-2.01.54s-1.38-.18-2-.54l-15.08-8.71c-.67-.38-.67-1.35 0-1.73l15.08-8.71c.62-.36 1.31-.54 2-.54m0-.5c-.79 0-1.57.21-2.25.6l-15.08 8.71c-.47.27-.75.76-.75 1.3s.28 1.03.75 1.3l15.08 8.71c.68.39 1.46.6 2.25.6s1.57-.21 2.26-.61l15-8.7c.47-.27.75-.76.75-1.3s-.28-1.03-.75-1.3l-15-8.7c-.69-.4-1.47-.61-2.26-.61z" fill="#2d9fde"/><path d="m400.09 131.133-.14.07-.14.08-.14.06-.15.07-.14.07-.15.06-.16.06-.15.05-.16.06-.15.05-.16.05-.16.05-.17.04-.16.05-.17.04-.16.03-.17.04-.17.03-.17.03-.17.03-.17.03-.18.02-.17.02-.18.02-.17.01-.18.02-.17.01-.18.01h-.17l-.18.01h-.18-.17l-.18-.01h-.18l-.17-.01-.18-.01-.17-.02-.18-.01-.17-.02-.18-.02-.17-.02-.17-.03-.17-.03-.17-.03-.17-.03-.17-.04-.17-.03-.16-.04-.17-.05-.16-.04-.16-.05-.16-.05-.16-.05-.15-.06-.16-.05-.15-.06-.15-.06-.15-.07-.14-.07-.15-.06-.14-.08-.14-.07-.13-.08-.13-.08-.13-.08-.13-.08-.12-.08-.11-.08-.11-.09-.11-.09-.11-.08-.09-.09-.1-.09-.09-.09-.09-.1-.08-.09-.08-.09-.07-.1-.07-.09-.06-.1-.07-.1-.05-.09-.05-.1-.05-.1-.05-.1-.04-.1-.03-.1-.03-.1-.03-.1-.03-.1-.01-.1-.02-.11-.01-.1-.01-.1v-.1-.1l.01-.11.01-.1.02-.1.01-.1.03-.1.03-.1.03-.1.03-.1.04-.1.05-.1.05-.1.05-.1.05-.1.07-.1.06-.09.07-.1.07-.09.08-.1.08-.09.09-.09.09-.09.1-.09.09-.09.11-.09.11-.09.11-.08.11-.08.12-.09.13-.08.13-.08.13-.08.13-.07.14-.08.14-.07.15-.07.14-.07.15-.06.15-.06.15-.06.16-.06.15-.05.16-.06.16-.05.16-.04.16-.05.17-.04.16-.04.17-.04.17-.03.17-.04.17-.03.17-.03.17-.02.17-.02.18-.02.17-.02.18-.02.17-.01.18-.01.17-.01.18-.01h.18.17.18.18l.17.01.18.01.17.01.18.01.17.02.18.02.17.02.18.02.17.02.17.03.17.03.17.04.17.03.16.04.17.04.16.04.17.05.16.04.16.05.15.06.16.05.15.06.16.06.15.06.14.06.15.07.14.07.14.07.14.08.14.07.13.08.13.08.12.08.12.09.12.08.11.08.11.09.1.09.1.09.1.09.09.09.08.09.08.09.08.1.08.09.07.1.06.09.06.1.06.1.05.1.05.1.04.1.04.1.04.1.03.1.03.1.02.1.02.1.02.1.01.1v.11.1.1.1l-.01.1-.02.11-.02.1-.02.1-.03.1-.03.1-.04.1-.04.1-.04.1-.05.1-.05.1-.06.09-.06.1-.06.1-.07.09-.08.1-.08.09-.08.09-.08.1-.09.09-.1.09-.1.09-.1.08-.11.09-.11.09-.12.08-.12.08-.12.08-.13.08-.13.08z" fill="#ffcb95"/><path d="m120.74 82.371-15 8.7c-1.24.72-2.77.72-4.01 0l-15.08-8.71c-.67-.38-.67-1.35 0-1.73l15.08-8.71c1.24-.72 2.77-.71 4.01 0l15 8.7c.66.39.66 1.34 0 1.73z" fill="#fff" opacity=".4"/><path d="m103.73 71.4009c.69 0 1.39.18 2.01.54l15 8.7c.66.39.66 1.34 0 1.73l-15 8.7c-.62.36-1.31.54-2.01.54s-1.38-.18-2-.54l-15.0801-8.71c-.67-.38-.67-1.35 0-1.73l15.0801-8.71c.62-.36 1.31-.54 2-.54m0-.5c-.79 0-1.57.21-2.25.6l-15.0801 8.71c-.47.27-.75.76-.75 1.3s.28 1.03.75 1.3l15.0801 8.71c.68.39 1.46.6 2.25.6s1.57-.21 2.26-.61l15-8.7c.47-.27.75-.76.75-1.3s-.28-1.03-.75-1.3l-15-8.7c-.69-.4-1.47-.61-2.26-.61z" fill="#2d9fde"/><path d="m108.87 84.6601-.13.08-.15.07-.14.07-.14.07-.15.06-.15.06-.15.06-.16.06-.15.05-.16.06-.16.05-.16.04-.17.05-.16.04-.17.04-.16.04-.17.03-.17.04-.17.03-.17.02-.17.03-.18.02-.17.02-.17.02-.18.02-.17.01-.18.01-.18.01-.17.01h-.18-.18-.17-.18l-.17-.01-.18-.01-.18-.01-.17-.01-.18-.02-.17-.02-.18-.02-.17-.02-.17-.03-.17-.02-.17-.03-.17-.04-.17-.03-.17-.04-.16-.04-.17-.04-.16-.05-.16-.04-.16-.05-.16-.06-.1501-.05-.16-.06-.15-.06-.15-.06-.15-.06-.14-.07-.14-.07-.15-.07-.13-.08-.14-.07-.13-.08-.13-.08-.13-.08-.12-.09-.11-.08-.11-.09-.11-.08-.1-.09-.1-.09-.1-.09-.09-.09-.08-.09-.09-.1-.07-.09-.08-.09-.07-.1-.06-.1-.06-.09-.06-.1-.05-.1-.05-.1-.05-.1-.04-.1-.03-.1-.03-.1-.03-.1-.02-.1-.02-.1-.02-.1-.01-.1v-.11l-.01-.1.01-.1v-.1l.01-.1.02-.11.02-.1.02-.1.03-.1.03-.1.03-.1.04-.1.05-.1.05-.1.05-.1.06-.09.06-.1.06-.1.07-.09.08-.1.07-.09.09-.09.08-.1.09-.09.1-.09.1-.09.1-.08.11-.09.11-.09.11-.08.12-.08.13-.09.13-.08.13-.07.14-.08.13-.07.15-.08.14-.07.14-.06.15-.07.15-.06.15-.06.16-.06.1501-.05.16-.05.16-.05.16-.05.16-.04.17-.05.16-.04.17-.04.17-.03.17-.03.17-.03.17-.03.17-.03.17-.02.18-.02.17-.02.18-.01.17-.02.18-.01.18-.01h.17l.18-.01h.17.18l.18.01h.17l.18.01.18.01.17.02.18.01.17.02.17.02.18.02.17.03.17.03.17.03.17.03.17.03.16.04.17.04.16.05.17.04.16.05.16.05.16.05.15.05.16.06.15.06.15.06.15.07.14.06.14.07.15.08.13.07.14.08.13.07.13.08.13.09.12.08.11.08.11.09.11.09.1.08.1.09.1.09.09.09.08.1.09.09.07.09.08.1.07.09.06.1.06.1.06.09.05.1.05.1.05.1.04.1.03.1.03.1.03.1.02.1.02.1.02.11.01.1v.1l.01.1-.01.1v.11l-.01.1-.02.1-.02.1-.02.1-.03.1-.03.1-.03.1-.04.1-.05.1-.05.1-.05.1-.06.1-.06.09-.06.1-.07.1-.08.09-.07.09-.09.1-.08.09-.09.09-.1.09-.1.09-.1.09-.11.08-.11.09-.11.08-.12.09-.13.08-.13.08-.13.08z" fill="#2d9fde"/><path d="m58.8701 161.031-15 8.7c-1.24.72-2.77.72-4.01 0l-15.08-8.71c-.67-.38-.67-1.35 0-1.73l15.08-8.71c1.24-.72 2.77-.71 4.01 0l15 8.7c.66.39.66 1.34 0 1.73z" fill="#fff" opacity=".4"/><path d="m41.86 150.061c.69 0 1.39.18 2.01.54l15 8.7c.66.39.66 1.34 0 1.73l-15 8.7c-.62.36-1.31.54-2.01.54s-1.38-.18-2-.54l-15.08-8.71c-.67-.38-.67-1.35 0-1.73l15.08-8.71c.62-.36 1.31-.54 2-.54m0-.5c-.79 0-1.57.21-2.25.6l-15.08 8.71c-.47.27-.75.76-.75 1.3s.28 1.03.75 1.3l15.08 8.71c.68.39 1.46.6 2.25.6s1.57-.21 2.26-.61l15-8.7c.47-.27.75-.76.75-1.3s-.28-1.03-.75-1.3l-15-8.7c-.69-.4-1.47-.61-2.26-.61z" fill="#2d9fde"/><path d="m47.0101 163.32-.14.08-.14.07-.15.07-.14.06-.15.07-.15.06-.15.06-.16.06-.15.05-.16.05-.16.05-.16.05-.16.05-.17.04-.16.04-.17.04-.17.03-.17.03-.17.04-.17.02-.17.03-.17.02-.18.02-.17.02-.18.02-.17.01-.18.01-.17.01-.18.01h-.18-.17-.18-.18l-.17-.01-.18-.01-.17-.01-.18-.01-.17-.02-.18-.02-.17-.02-.17-.02-.18-.03-.17-.02-.17-.04-.17-.03-.17-.03-.16-.04-.17-.04-.16-.04-.16-.05-.17-.05-.15-.05-.16-.05-.16-.05-.15-.06-.15-.06-.15-.06-.15-.07-.15-.06-.14-.07-.14-.07-.14-.08-.14-.07-.13-.08-.13-.08-.12-.08-.12-.09-.12-.08-.11-.09-.11-.08-.1-.09-.1-.09-.09-.09-.09-.09-.09-.09-.08-.1-.08-.09-.08-.1-.06-.09-.07-.1-.06-.09-.06-.1-.05-.1-.05-.1-.04-.1-.04-.1-.04-.1-.03-.1-.03-.1-.02-.1-.02-.1-.01-.1-.02-.11v-.1-.1-.1-.1l.02-.11.01-.1.02-.1.02-.1.03-.1.03-.1.04-.1.04-.1.04-.1.05-.1.05-.1.06-.1.06-.09.07-.1.06-.09.08-.1.08-.09.08-.1.09-.09.09-.09.09-.09.1-.09.1-.09.11-.08.11-.09.12-.08.12-.09.12-.08.13-.08.13-.08.14-.07.14-.08.14-.07.14-.07.15-.06.15-.07.15-.06.15-.06.15-.06.16-.05.15-.05.16-.05.17-.05.16-.05.16-.04.17-.04.16-.04.17-.03.17-.03.17-.03.17-.03.18-.03.17-.02.17-.02.18-.02.17-.02.18-.01.17-.01.18-.01.17-.01h.18.18.17.18l.18.01.17.01.18.01.17.01.18.02.17.02.18.02.17.02.17.03.17.03.17.03.17.03.17.03.17.04.16.04.17.04.16.05.16.05.16.05.16.05.15.05.16.06.15.06.15.06.15.07.14.06.15.07.14.07.14.08.13.07.14.08.12.08.13.08.12.09.11.08.12.09.1.08.11.09.1.09.09.09.09.09.09.09.08.1.08.09.07.1.07.09.07.1.06.09.05.1.06.1.04.1.05.1.04.1.03.1.04.1.02.1.03.1.02.1.01.1.01.11.01.1v.1.1l-.01.1-.01.11-.01.1-.02.1-.03.1-.02.1-.04.1-.03.1-.04.1-.05.1-.04.1-.06.1-.05.1-.06.09-.07.1-.07.09-.07.1-.08.09-.08.1-.09.09-.09.09-.09.09-.1.09-.11.09-.1.08-.12.09-.11.08-.12.09-.13.08-.12.08-.14.08z" fill="#2d9fde"/><path d="m257.16 82.4511-15 8.7c-1.24.72-2.77.72-4.01 0l-15.08-8.71c-.67-.38-.67-1.35 0-1.73l15.08-8.71c1.24-.72 2.77-.71 4.01 0l15 8.7c.66.39.66 1.34 0 1.73z" fill="#fff" opacity=".4"/><path d="m240.15 71.4712c.69 0 1.39.18 2.01.54l15 8.7c.66.39.66 1.34 0 1.73l-15 8.7c-.62.36-1.31.54-2.01.54s-1.38-.18-2-.54l-15.08-8.71c-.67-.38-.67-1.35 0-1.73l15.08-8.71c.62-.36 1.31-.54 2-.54m0-.5c-.79 0-1.57.21-2.25.6l-15.08 8.71c-.47.27-.75.76-.75 1.3s.28 1.03.75 1.3l15.08 8.71c.68.39 1.46.6 2.25.6s1.57-.21 2.26-.61l15-8.7c.47-.27.75-.76.75-1.3s-.28-1.03-.75-1.3l-15-8.7c-.69-.4-1.47-.61-2.26-.61z" fill="#2d9fde"/><path d="m245.3 84.7421-.14.07-.14.07-.15.07-.14.07-.15.06-.15.07-.15.06-.15.05-.16.06-.16.05-.16.05-.16.05-.16.04-.17.05-.16.04-.17.03-.17.04-.17.03-.17.03-.17.03-.17.02-.17.03-.18.02-.17.02-.17.01-.18.02-.18.01-.17.01h-.18l-.17.01h-.18-.18l-.17-.01h-.18l-.18-.01-.17-.01-.18-.02-.17-.01-.18-.02-.17-.02-.17-.03-.18-.02-.17-.03-.17-.03-.17-.03-.16-.04-.17-.03-.17-.04-.16-.05-.16-.04-.16-.05-.16-.05-.16-.05-.16-.06-.15-.05-.15-.06-.15-.07-.15-.06-.15-.07-.14-.07-.14-.07-.14-.07-.14-.08-.13-.08-.13-.08-.12-.08-.12-.08-.12-.09-.11-.08-.11-.09-.1-.09-.1-.08-.09-.09-.09-.1-.09-.09-.08-.09-.08-.09-.07-.1-.07-.09-.07-.1-.06-.1-.06-.1-.05-.09-.05-.1-.04-.1-.04-.1-.04-.1-.03-.1-.03-.1-.02-.1-.02-.11-.01-.1-.01-.1-.01-.1v-.1-.11l.01-.1.01-.1.01-.1.02-.1.02-.1.03-.1.03-.11.04-.1.04-.1.04-.09.05-.1.05-.1.06-.1.06-.1.07-.09.07-.1.07-.09.08-.1.08-.09.09-.09.09-.09.09-.09.1-.09.1-.09.11-.09.11-.08.12-.09.12-.08.12-.08.13-.08.13-.08.14-.08.14-.07.14-.07.14-.07.15-.07.15-.06.15-.06.15-.06.15-.06.16-.06.16-.05.16-.05.16-.04.16-.05.16-.04.17-.04.17-.04.16-.04.17-.03.17-.03.17-.03.18-.02.17-.03.17-.02.18-.01.17-.02.18-.01.17-.01.18-.01.18-.01h.17.18.18.17l.18.01.17.01.18.01.18.01.17.02.17.01.18.02.17.03.17.02.17.03.17.03.17.03.17.04.17.04.16.04.17.04.16.05.16.04.16.05.16.05.16.06.15.06.15.06.15.06.15.06.14.07.15.07.14.07.14.07.13.08.14.08.13.08.12.08.12.08.12.09.11.08.1.09.11.09.1.09.09.09.09.09.09.09.08.09.08.1.07.09.07.1.07.09.06.1.05.1.06.1.05.1.04.09.04.1.04.1.03.11.02.1.03.1.02.1.01.1.01.1.01.1v.11.1l-.01.1-.01.1-.01.1-.02.11-.03.1-.02.1-.03.1-.04.1-.04.1-.04.1-.05.1-.06.09-.05.1-.06.1-.07.1-.07.09-.07.1-.08.09-.08.09-.09.09-.09.1-.09.09-.1.08-.11.09-.1.09-.11.08-.12.09-.12.08-.12.08-.13.08-.14.08z" fill="#62e0db"/><g stroke="#2d9fde" stroke-miterlimit="10" stroke-width=".5"><path d="m150.55 426.851 93.17-53.7c2.67-1.54 2.67-5.39 0-6.93l-73.47-42.49c-2-1.16-2-4.04 0-5.2l12.67-7.32"/><path d="m106.48 347.762-24.1499-14.23 66.8499-38.6"/><path d="m57.6001 305.022 17.69 11.11 59.3799-34.28"/><path d="m52.03 165.772 35.9 21.45 65.45-37.79 49.44 28.6-43.37 25.05 40.29 23.26"/><path d="m114.64 85.9102 202.59 119.1498-30.65 17.7"/><path d="m404.8 133.611 42.88 24.76-77.43 44.78-49.7-28.7-59.51 34.44"/><path d="m273.68 136.731-17.79-10.71-152.2 87.8 60.09 34.7"/><path d="m391.69 333.101-30.58-17.45-34.38 19.86-51.76-29.95"/><path d="m386.43 422.341-94.08-52.83 21.98-12.54-88.93-51.41"/><path d="m249.02 88.6602 176.73 103.5998-97.04 56.26"/></g><path d="m376.29 271.08-136.27-78.75v-7.15l136.33 78.71z" fill="url(#l)"/><path d="m240.05 185.211v7.14l-136.27 78.73v-7.19z" fill="url(#n)"/><path d="m264.78 349.85 136.57-78.8-136.57-78.79-24.79.7-136.2 78.12 136.26 78.74z" fill="#09192c" opacity=".14"/><path d="m240.02 228.141v7.15l-61.98 35.83v-7.19z" fill="url(#p)"/><path d="m301.97 263.91v7.14l-61.99 35.84v-7.19z" fill="url(#q)"/><path d="m376.29 271.08-136.24 78.74v-7.22l136.24-78.67z" fill="url(#r)"/><path d="m240.05 349.82-136.26-78.74v-7.15l136.26 78.67v.07z" fill="url(#s)"/><path d="m302.02 271.121-62-35.83v-7.15l62.06 35.79z" fill="url(#t)"/><path d="m239.99 306.78-61.89-35.76-.06-7.09 62.01 35.78z" fill="url(#u)"/><path d="m240.05 299.711-62.02-35.78 61.99-35.79 61.95 35.77-61.91 35.8zm0-114.5-136.26 78.73 136.26 78.74 136.24-78.74z" fill="url(#v)" opacity=".82"/><path d="m240.06 228.16-62.02 35.77.06-71.55 61.97-35.78z" fill="url(#x)" opacity=".4"/><path d="m240.05 299.641-62.01-35.71.06-71.55 61.96 35.78z" fill="url(#y)" opacity=".4"/><path d="m302.02 263.87-61.96-35.71.01-71.56 61.95 35.78z" fill="url(#z)"/><path d="m239.93 270.08c16.016 0 29-12.984 29-29s-12.984-29-29-29-29 12.984-29 29 12.984 29 29 29z" fill="url(#A)"/><path d="m301.89 263.93-60.84 35.14-.05-70.36 60.92-35.06z" fill="url(#B)" opacity=".4"/><path d="m302.23 192.259-62.1 35.91-61.98-35.76 61.9-35.88z" fill="url(#C)" opacity=".6"/><path d="m302.73 193.13-1-1.73-61.69 35.58-61.39-35.43-1 1.73 61.4 35.44v71.08h2v-70.79l60.91 35.13.24-.42-60.94-35.14z" fill="url(#E)"/><path d="m240.08 159.151c2.76 0 5.53.71 8 2.14l45.85 26.47c4.95 2.86 8 8.14 8 13.86l-.03 62.3-61.85 35.71-61.85-35.71v-62.31c.01-5.72 3.06-11 8.01-13.85l45.87-26.48c2.48-1.43 5.24-2.14 8-2.14m0-4c-3.51 0-6.96.93-10 2.68l-45.87 26.48c-6.17 3.56-10 10.2-10 17.32v62.31c-.01 1.43.75 2.75 1.99 3.46l61.85 35.71c.62.36 1.31.54 2 .54s1.38-.18 2-.54l61.85-35.71c1.24-.71 2-2.03 2-3.46l.03-62.3c0-7.13-3.83-13.77-10-17.33l-45.85-26.47c-3.04-1.75-6.49-2.68-10-2.68z" fill="url(#F)"/><path d="m240.05 32c3.46 0 6.88.92 9.88 2.65l115.92 66.92c5.87 3.39 9.51 9.7 9.5 16.47l-.11 152.43-135.24 78.16-135.27-78.16v-152.38c0-6.76 3.65-13.07 9.5-16.45l115.93-66.99c3-1.73 6.42-2.65 9.89-2.65zm0-1c-3.59 0-7.17.93-10.39 2.79l-115.93 66.98c-6.18 3.57-9.99 10.17-9.99 17.32v152.96l136.27 78.74 136.24-78.74.11-153.01c0-7.15-3.81-13.76-10-17.34l-115.93-66.92c-3.21-1.85-6.8-2.78-10.38-2.78z" fill="url(#G)"/><path d="m106.85 108.33 123.2 71.1c6.19 3.57 10 10.18 10 17.32v152.35" stroke="url(#H)" stroke-miterlimit="10"/><path d="m273.4 313.481-.91.75.44.57.41-.19.11-.85 2.06-1.42.2-.11c.13-.08.23-.16.3-.24l.03-.02h-.02c.07-.07.11-.14.12-.2.71-.43 1.37-.93 1.72-1.14.81-.5 1.2-1.09.87-1.31s-1.26 0-2.08.51c-.46.29-1.61.87-2.4 1.43h-.01l-2.54 1.3-2.47 1.9.4-.16.62-.35s.89-.63 1.7-1.13c.11-.12.65-.4 1.21-.67l-2.6 1.83-1.33.49-1.7 1.08-1.39 1.22-4.19 2.18-.03-.02c-.08.02-.89.24-.77.34l-.05.27c.08-.05.14.12.22.1h.72c.26-.07.43-.12.42-.24l-.06-.15s-.08-.11-.17-.15l5.17-2.38.34-.21-1.02 1-3.24 2.21c-.11-.02-.21-.04-.2-.06l-.46.22c-.31.09-.3.38-.26.4l.54.08c.07.03.37.05.52 0l.39-.15c.28-.12.2-.17.08-.23l-.29-.15 4.49-2.64 1.39-1.01 1.61-1.44h.03l.56-.41 1.6-.85-.07.06z" fill="url(#J)" opacity=".4"/><path d="m268.92 309.85-.91.75.44.57.41-.19.11-.85 2.06-1.42.2-.11c.13-.08.23-.16.3-.24l.03-.02h-.02c.07-.07.11-.14.12-.2.71-.43 1.37-.93 1.72-1.14.81-.5 1.2-1.09.87-1.31s-1.26 0-2.08.51c-.46.29-1.61.87-2.4 1.43h-.01l-2.54 1.3-2.47 1.9.4-.16.62-.35s.89-.63 1.7-1.13c.11-.12.65-.4 1.21-.67l-2.6 1.83-1.33.49-1.7 1.08-1.39 1.22-4.19 2.18-.03-.02c-.08.02-.89.24-.77.34l-.05.27c.08-.05.14.12.22.1h.72c.26-.07.43-.12.42-.24l-.06-.15s-.08-.11-.17-.15l5.17-2.38.34-.21-1.02 1-3.24 2.21c-.11-.02-.21-.04-.2-.06l-.46.22c-.31.09-.3.38-.26.4l.54.08c.07.03.37.05.52 0l.39-.15c.28-.12.2-.17.08-.23l-.29-.15 4.49-2.64 1.39-1.01 1.61-1.44h.03l.56-.41 1.6-.85-.07.06z" fill="url(#K)" opacity=".4"/><path d="m329.52 271.511-.91.75.44.57.41-.19.11-.85 2.06-1.42.2-.11c.13-.08.23-.16.3-.24l.03-.02h-.02c.07-.07.11-.14.12-.2.71-.43 1.37-.93 1.72-1.14.81-.5 1.2-1.09.87-1.31s-1.26 0-2.08.51c-.46.29-1.61.87-2.4 1.43h-.01l-2.54 1.3-2.47 1.9.4-.16.62-.35s.89-.63 1.7-1.13c.11-.12.65-.4 1.21-.67l-2.6 1.83-1.33.49-1.7 1.08-1.39 1.22-4.19 2.18-.03-.02c-.08.02-.89.24-.77.34l-.05.27c.08-.05.14.12.22.1h.72c.26-.07.43-.12.42-.24l-.06-.15s-.08-.11-.17-.15l5.17-2.38.34-.21-1.02 1-3.24 2.21c-.11-.02-.21-.04-.2-.06l-.46.22c-.31.09-.3.38-.26.4l.54.08c.07.03.37.05.52 0l.39-.15c.28-.12.2-.17.08-.23l-.29-.15 4.49-2.64 1.39-1.01 1.61-1.44h.03l.56-.41 1.6-.85-.07.06z" fill="url(#L)" opacity=".4"/><path d="m324.58 271.37-.91.75.44.57.41-.19.11-.85 2.06-1.42.2-.11c.13-.08.23-.16.3-.24l.03-.02h-.02c.07-.07.11-.14.12-.2.71-.43 1.37-.93 1.72-1.14.81-.5 1.2-1.09.87-1.31s-1.26 0-2.08.51c-.46.29-1.61.87-2.4 1.43h-.01l-2.54 1.3-2.47 1.9.4-.16.62-.35s.89-.63 1.7-1.13c.11-.12.65-.4 1.21-.67l-2.6 1.83-1.33.49-1.7 1.08-1.39 1.22-4.19 2.18-.03-.02c-.08.02-.89.24-.77.34l-.05.27c.08-.05.14.12.22.1h.72c.26-.07.43-.12.42-.24l-.06-.15s-.08-.11-.17-.15l5.17-2.38.34-.21-1.02 1-3.24 2.21c-.11-.02-.21-.04-.2-.06l-.46.22c-.31.09-.3.38-.26.4l.54.08c.07.03.37.05.52 0l.39-.15c.28-.12.2-.17.08-.23l-.29-.15 4.49-2.64 1.39-1.01 1.61-1.44h.03l.56-.41 1.6-.85-.07.06z" fill="url(#M)" opacity=".4"/><path d="m351 259.78-.91.75.44.57.41-.19.11-.85 2.06-1.42.2-.11c.13-.08.23-.16.3-.24l.03-.02h-.02c.07-.07.11-.14.12-.2.71-.43 1.37-.93 1.72-1.14.81-.5 1.2-1.09.87-1.31s-1.26 0-2.08.51c-.46.29-1.61.87-2.4 1.43h-.01l-2.54 1.3-2.47 1.9.4-.16.62-.35s.89-.63 1.7-1.13c.11-.12.65-.4 1.21-.67l-2.6 1.83-1.33.49-1.7 1.08-1.39 1.22-4.19 2.18-.03-.02c-.08.02-.89.24-.77.34l-.05.27c.08-.05.14.12.22.1h.72c.26-.07.43-.12.42-.24l-.06-.15s-.08-.11-.17-.15l5.17-2.38.34-.21-1.02 1-3.24 2.21c-.11-.02-.21-.04-.2-.06l-.46.22c-.31.09-.3.38-.26.4l.54.08c.07.03.37.05.52 0l.39-.15c.28-.12.2-.17.08-.23l-.29-.15 4.49-2.64 1.39-1.01 1.61-1.44h.03l.56-.41 1.6-.85-.07.06z" fill="url(#N)" opacity=".4"/><path d="m319.87 256.161-.91.75.44.57.41-.19.11-.85 2.06-1.42.2-.11c.13-.08.23-.16.3-.24l.03-.02h-.02c.07-.07.11-.14.12-.2.71-.43 1.37-.93 1.72-1.14.81-.5 1.2-1.09.87-1.31s-1.26 0-2.08.51c-.46.29-1.61.87-2.4 1.43h-.01l-2.54 1.3-2.47 1.9.4-.16.62-.35s.89-.63 1.7-1.13c.11-.12.65-.4 1.21-.67l-2.6 1.83-1.33.49-1.7 1.08-1.39 1.22-4.19 2.18-.03-.02c-.08.02-.89.24-.77.34l-.05.27c.08-.05.14.12.22.1h.72c.26-.07.43-.12.42-.24l-.06-.15s-.08-.11-.17-.15l5.17-2.38.34-.21-1.02 1-3.24 2.21c-.11-.02-.21-.04-.2-.06l-.46.22c-.31.09-.3.38-.26.4l.54.08c.07.03.37.05.52 0l.39-.15c.28-.12.2-.17.08-.23l-.29-.15 4.49-2.64 1.39-1.01 1.61-1.44h.03l.56-.41 1.6-.85-.07.06z" fill="url(#O)" opacity=".4"/><path d="m330.17 246.2-.91.75.44.57.41-.19.11-.85 2.06-1.42.2-.11c.13-.08.23-.16.3-.24l.03-.02h-.02c.07-.07.11-.14.12-.2.71-.43 1.37-.93 1.72-1.14.81-.5 1.2-1.09.87-1.31s-1.26 0-2.08.51c-.46.29-1.61.87-2.4 1.43h-.01l-2.54 1.3-2.47 1.9.4-.16.62-.35s.89-.63 1.7-1.13c.11-.12.65-.4 1.21-.67l-2.6 1.83-1.33.49-1.7 1.08-1.39 1.22-4.19 2.18-.03-.02c-.08.02-.89.24-.77.34l-.05.27c.08-.05.14.12.22.1h.72c.26-.07.43-.12.42-.24l-.06-.15s-.08-.11-.17-.15l5.17-2.38.34-.21-1.02 1-3.24 2.21c-.11-.02-.21-.04-.2-.06l-.46.22c-.31.09-.3.38-.26.4l.54.08c.07.03.37.05.52 0l.39-.15c.28-.12.2-.17.08-.23l-.29-.15 4.49-2.64 1.39-1.01 1.61-1.44h.03l.56-.41 1.6-.85-.07.06z" fill="url(#P)" opacity=".4"/><path d="m326.08 238.061-.91.75.44.57.41-.19.11-.85 2.06-1.42.2-.11c.13-.08.23-.16.3-.24l.03-.02h-.02c.07-.07.11-.14.12-.2.71-.43 1.37-.93 1.72-1.14.81-.5 1.2-1.09.87-1.31s-1.26 0-2.08.51c-.46.29-1.61.87-2.4 1.43h-.01l-2.54 1.3-2.47 1.9.4-.16.62-.35s.89-.63 1.7-1.13c.11-.12.65-.4 1.21-.67l-2.6 1.83-1.33.49-1.7 1.08-1.39 1.22-4.19 2.18-.03-.02c-.08.02-.89.24-.77.34l-.05.27c.08-.05.14.12.22.1h.72c.26-.07.43-.12.42-.24l-.06-.15s-.08-.11-.17-.15l5.17-2.38.34-.21-1.02 1-3.24 2.21c-.11-.02-.21-.04-.2-.06l-.46.22c-.31.09-.3.38-.26.4l.54.08c.07.03.37.05.52 0l.39-.15c.28-.12.2-.17.08-.23l-.29-.15 4.49-2.64 1.39-1.01 1.61-1.44h.03l.56-.41 1.6-.85-.07.06z" fill="url(#Q)" opacity=".4"/><path d="m323.53 237.841-.91.75.44.57.41-.19.11-.85 2.06-1.42.2-.11c.13-.08.23-.16.3-.24l.03-.02h-.02c.07-.07.11-.14.12-.2.71-.43 1.37-.93 1.72-1.14.81-.5 1.2-1.09.87-1.31s-1.26 0-2.08.51c-.46.29-1.61.87-2.4 1.43h-.01l-2.54 1.3-2.47 1.9.4-.16.62-.35s.89-.63 1.7-1.13c.11-.12.65-.4 1.21-.67l-2.6 1.83-1.33.49-1.7 1.08-1.39 1.22-4.19 2.18-.03-.02c-.08.02-.89.24-.77.34l-.05.27c.08-.05.14.12.22.1h.72c.26-.07.43-.12.42-.24l-.06-.15s-.08-.11-.17-.15l5.17-2.38.34-.21-1.02 1-3.24 2.21c-.11-.02-.21-.04-.2-.06l-.46.22c-.31.09-.3.38-.26.4l.54.08c.07.03.37.05.52 0l.39-.15c.28-.12.2-.17.08-.23l-.29-.15 4.49-2.64 1.39-1.01 1.61-1.44h.03l.56-.41 1.6-.85-.07.06z" fill="url(#R)" opacity=".4"/><path d="m167.32 243.95-.91.75.44.57.41-.19.11-.85 2.06-1.42.2-.11c.13-.08.23-.16.3-.24l.03-.02h-.02c.07-.07.11-.14.12-.2.71-.43 1.37-.93 1.72-1.14.81-.5 1.2-1.09.87-1.31s-1.26 0-2.08.51c-.46.29-1.61.87-2.4 1.43h-.01l-2.54 1.3-2.47 1.9.4-.16.62-.35s.89-.63 1.7-1.13c.11-.12.65-.4 1.21-.67l-2.6 1.83-1.33.49-1.7 1.08-1.39 1.22-4.19 2.18-.03-.02c-.08.02-.89.24-.77.34l-.05.27c.08-.05.14.12.22.1h.72c.26-.07.43-.12.42-.24l-.06-.15s-.08-.11-.17-.15l5.17-2.38.34-.21-1.02 1-3.24 2.21c-.11-.02-.21-.04-.2-.06l-.46.22c-.31.09-.3.38-.26.4l.54.08c.07.03.37.05.52 0l.39-.15c.28-.12.2-.17.08-.23l-.29-.15 4.49-2.64 1.39-1.01 1.61-1.44h.03l.56-.41 1.6-.85-.07.06z" fill="url(#S)" opacity=".4"/><path d="m163.44 247.21-.91.75.44.57.41-.19.11-.85 2.06-1.42.2-.11c.13-.08.23-.16.3-.24l.03-.02h-.02c.07-.07.11-.14.12-.2.71-.43 1.37-.93 1.72-1.14.81-.5 1.2-1.09.87-1.31s-1.26 0-2.08.51c-.46.29-1.61.87-2.4 1.43h-.01l-2.54 1.3-2.47 1.9.4-.16.62-.35s.89-.63 1.7-1.13c.11-.12.65-.4 1.21-.67l-2.6 1.83-1.33.49-1.7 1.08-1.39 1.22-4.19 2.18-.03-.02c-.08.02-.89.24-.77.34l-.05.27c.08-.05.14.12.22.1h.72c.26-.07.43-.12.42-.24l-.06-.15s-.08-.11-.17-.15l5.17-2.38.34-.21-1.02 1-3.24 2.21c-.11-.02-.21-.04-.2-.06l-.46.22c-.31.09-.3.38-.26.4l.54.08c.07.03.37.05.52 0l.39-.15c.28-.12.2-.17.08-.23l-.29-.15 4.49-2.64 1.39-1.01 1.61-1.44h.03l.56-.41 1.6-.85-.07.06z" fill="url(#T)" opacity=".4"/><path d="m169.07 263.54-.91.75.44.57.41-.19.11-.85 2.06-1.42.2-.11c.13-.08.23-.16.3-.24l.03-.02h-.02c.07-.07.11-.14.12-.2.71-.43 1.37-.93 1.72-1.14.81-.5 1.2-1.09.87-1.31s-1.26 0-2.08.51c-.46.29-1.61.87-2.4 1.43h-.01l-2.54 1.3-2.47 1.9.4-.16.62-.35s.89-.63 1.7-1.13c.11-.12.65-.4 1.21-.67l-2.6 1.83-1.33.49-1.7 1.08-1.39 1.22-4.19 2.18-.03-.02c-.08.02-.89.24-.77.34l-.05.27c.08-.05.14.12.22.1h.72c.26-.07.43-.12.42-.24l-.06-.15s-.08-.11-.17-.15l5.17-2.38.34-.21-1.02 1-3.24 2.21c-.11-.02-.21-.04-.2-.06l-.46.22c-.31.09-.3.38-.26.4l.54.08c.07.03.37.05.52 0l.39-.15c.28-.12.2-.17.08-.23l-.29-.15 4.49-2.64 1.39-1.01 1.61-1.44h.03l.56-.41 1.6-.85-.07.06z" fill="url(#U)" opacity=".4"/><path d="m309.92 263.411.27-.03c.19-.04.12-.15 0-.31l-.38-.52s-.34-.28-.34-.35l-.31.09c-.23-.03-.15.41-.1.46l.45.4c.06.08.32.27.41.25z" fill="#0f0651"/><path d="m307.79 262.562-.26-.09c-.18-.09-.08-.18.08-.3l.5-.41s.4-.19.42-.25l.28.17c.23.03.04.44-.01.47l-.54.27c-.08.06-.37.19-.46.14z" fill="#0f0651"/><path d="m310.33 250.232c0 .62.62 2.68-.88 2.75-1.93.1-1.28-2.13-1.28-2.75s.48-1.13 1.08-1.13 1.08.51 1.08 1.13z" fill="#000"/><path d="m308.75 261.84.25-5.17c0-.08-.21-.28-.28-.31l-.15-.49c-.14-.07-.51.03-.51.19l.3 5.75c0 .15.39.11.39.03z" fill="#6c1e78"/><path d="m309.58 262.471.24-5.34c0-.1.02-.36-.07-.41l-.22-.04c-.18-.1-.4.03-.4.24l.03 5.6c.07.13.34.24.41-.05z" fill="#6c1e78"/><path d="m308.3 255.002-.77 1.98-.51 1.83 2.97 1.14.65-.19-.54-3.45-.26-1.2-.33.11z" fill="#2e63a5"/><path d="m308.29 254.65-.11.59.47.32.73.09.55-.11-.09-.43-.1-.31-.51.09-.51-.05z" fill="#2d9fde"/><path d="m308.55 251.591.56-.07.67.3c.21.12.45.13.45.37l-.41 2.92-.33.11-.75-.07-.46-.15-.52-2.96c0-.39.42-.64.77-.44z" fill="#0f0651"/><path d="m309.8 253.602-.29-1.77.64.17c.1.2.35.18.35.41l.49 5.23h-.22l-.38-.2s-.42-1.97-.59-3.84z" fill="#0f0651"/><path d="m308.55 251.591.56-.07.44.55c.21.12-.13 1.3-.13 1.3l-.66 1.78-.27-1.65s-.28-2.1.06-1.91z" fill="#ff7269"/><path d="m309.61 250.461-.1 1.37-.38.25-.47-.34.16-1.17z" fill="#af8281"/><path d="m309.61 250.462c0 .62-.18.81-.78.81s-.66-.42-.66-1.04.48-1.13 1.08-1.13.36.74.36 1.37z" fill="#cb9b92"/><path d="m307.08 253.862-1.71 1.06.36.23 2.02-.84.3-.61.19-.91.01-.49-.39-.55z" fill="#0f0651"/><path d="m310.49 249.951c0 .62-.47.17-1.07.17s-.33-.38-1.14-.38c-.62 0 .16-.71.76-.71s1.45.29 1.45.92z" fill="#2b82d1"/><path d="m157.22 241.221-.29-1.77.64.17c.1.2.35.18.35.41l.49 5.23h-.22l-.38-.2s-.42-1.97-.59-3.84z" fill="#0f0651"/><path d="m154.5 241.481-1.71 1.06.36.24 2.02-.85.3-.61.19-.91.01-.48-.39-.56z" fill="#0f0651"/><path d="m157.34 251.04.27-.03c.19-.04.12-.15 0-.31l-.38-.52s-.34-.28-.34-.35l-.31.09c-.23-.03-.15.41-.1.46l.45.4c.06.08.32.27.41.25z" fill="#0f0651"/><path d="m155.21 250.191-.26-.09c-.18-.09-.08-.18.08-.3l.5-.41s.4-.19.42-.25l.28.17c.23.03.04.44-.01.47l-.54.27c-.08.06-.37.19-.46.14z" fill="#0f0651"/><path d="m157.75 237.851c0 .62.62 2.68-.88 2.75-1.93.1-1.28-2.13-1.28-2.75s.48-1.13 1.08-1.13 1.08.51 1.08 1.13z" fill="#000"/><path d="m156.17 249.471.25-5.17c.51-.77.28-1.29.21-1.33h-.61c-.14-.07-.42-.27-.42-.11l.18 6.57c0 .15.39.11.39.03z" fill="#000"/><path d="m157 250.1.36-5.1c0-.1.09-1.79 0-1.84l-.72-.19c-.18-.1-.96.93-.08 1.57l.03 5.6c.07.13.34.24.41-.05z" fill="#000"/><path d="m155.71 242.281-.11.58.47.32.73.1.56-.11-.1-.43-.1-.32-.51.1-.5-.06z" fill="#2d9fde"/><path d="m155.97 239.22.56-.07.67.3c.21.12.45.13.45.37l-.41 2.92-.33.11-.75-.07-.46-.15-.52-2.96c0-.39.42-.64.77-.44z" fill="#ff0"/><path d="m155.97 239.22.56-.07.44.55c.21.12-.13 1.3-.13 1.3l-.66 1.78-.27-1.65s-.28-2.1.06-1.91z" fill="#ff7269"/><path d="m157.03 238.09-.1 1.36-.37.25-.48-.34.16-1.16z" fill="#8c6239"/><path d="m157.03 238.09c0 .62-.18.81-.78.81s-.66-.42-.66-1.04.48-1.13 1.08-1.13.36.74.36 1.37z" fill="#a67c52"/><path d="m157.92 237.57c-.17.28-1.24 1.09-2.71.34-.53-.27.2-.18.11-.62-.13-.61.57-1.31 1.16-1.31 1.19 0 1.76 1.05 1.44 1.59z" fill="#ff0"/><path d="m316.21 235.512-.29-1.77.64.17c.1.2.35.18.35.41l.49 5.23h-.22l-.38-.2s-.42-1.97-.59-3.84z" fill="#0f0651"/><path d="m313.49 235.772-1.71 1.07.36.23 2.02-.84.3-.62.19-.9.01-.49-.39-.55z" fill="#0f0651"/><path d="m316.34 245.331.27-.03c.19-.04.12-.15 0-.31l-.38-.52s-.34-.28-.34-.35l-.31.09c-.23-.03-.15.41-.1.46l.45.4c.06.08.32.27.41.25z" fill="#0f0651"/><path d="m314.2 244.482-.26-.09c-.18-.09-.08-.18.08-.3l.5-.41s.4-.19.42-.25l.28.17c.23.03.04.44-.01.47l-.54.27c-.08.06-.37.19-.46.14z" fill="#0f0651"/><path d="m316.74 232.151c0 .62.62 2.68-.88 2.75-1.93.1-1.28-2.13-1.28-2.75s.48-1.13 1.08-1.13 1.08.51 1.08 1.13z" fill="#000"/><path d="m315.16 243.76.25-5.17c.51-.77.28-1.29.21-1.33h-.61c-.14-.07-.42-.27-.42-.11l.18 6.57c0 .15.39.11.39.03z" fill="#000"/><path d="m315.99 244.391.36-5.1c0-.1.09-1.79 0-1.84l-.72-.19c-.18-.1-.96.93-.08 1.57l.03 5.6c.07.13.34.24.41-.05z" fill="#000"/><path d="m314.7 236.57-.11.59.47.32.73.09.56-.11-.1-.43-.1-.31-.51.09-.5-.05z" fill="#2d9fde"/><path d="m314.96 233.511.56-.07.67.3c.21.12.45.13.45.37l-.41 2.92-.33.11-.75-.07-.46-.15-.52-2.96c0-.39.42-.64.77-.44z" fill="#ff0"/><path d="m314.96 233.511.56-.07.44.55c.21.12-.13 1.3-.13 1.3l-.66 1.78-.27-1.65s-.28-2.1.06-1.91z" fill="#ff7269"/><path d="m316.02 232.381-.1 1.37-.37.25-.48-.34.16-1.17z" fill="#8c6239"/><path d="m316.02 232.381c0 .62-.18.81-.78.81s-.66-.42-.66-1.04.48-1.13 1.08-1.13.36.74.36 1.37z" fill="#a67c52"/><path d="m316.91 231.871c-.17.28-1.24 1.09-2.71.34-.53-.27.2-.18.11-.62-.13-.61.57-1.31 1.16-1.31 1.19 0 1.76 1.05 1.44 1.59z" fill="#ff0"/><path d="m319.87 267.909v-1.54l.46.15c.23.11.59.37.59.62l.05 2.69.46 2.84h-.23l-.4-.21s-.29-1.32-.61-2.68c-.13-.56-.27-1.3-.32-1.88z" fill="#ff5249"/><path d="m316.23 268.599-1.41 1.95.4.35 1.72-1.82 1.1-1.48.15-.49-.72-.15-.41-.59z" fill="#ff5249"/><path d="m319.69 278.44.29-.03c.2-.05.13-.16 0-.33l-.4-.55c-.04-.05-.36-.3-.36-.37l-.33.1c-.24-.03-.15.44-.11.49l.48.42c.07.08.33.29.44.26z" fill="#000"/><path d="m316.81 277.72-.27-.1c-.19-.09-.08-.19.08-.32l.52-.43s.43-.2.44-.27l.3.17c.24.03.04.46-.01.5l-.57.29c-.09.06-.39.2-.49.15z" fill="#000"/><path d="m317.88 276.779-.05-2.91.88-2.57c.54-.82.29-1.37.22-1.41h-.65c-.15-.08-.68-.35-.68-.18l-.78 3.72.43 3.5c0 .15.62-.08.62-.16z" fill="#0f0651"/><path d="m319.32 277.439.52-4.56c.02-2.51.38-3.43.13-3.27l-1.04.29c-.19-.1-1.43 1.2-.49 1.88l.44 5.72c.07.14.36.25.44-.05z" fill="#0f0651"/><path d="m317.96 269.16-.12.62.5.34.77.1.75.15.12-.76-.48-.3-.54.1-.54-.05z" fill="#2d9fde"/><path d="m318.84 266.1h.34l1.36.46c.22.12 0 .73 0 1.02l-.35 2.62-.84.5h-.65l-1.19-.51-.44-3.47c0-.66.48-.57 1.77-.62z" fill="#ff7269"/><path d="m318.44 265.961.6-.07.51.37c.22.12-.48.31-.48.31l-.46.06-.38-.33s-.15-.53.21-.33z" fill="#ff7269"/><path d="m319.36 264.721-.11 1.45-.39.26-.51-.36.17-1.23z" fill="#8c6239"/><path d="m319.86 264.53c0 .66-.7 1.04-1.33 1.04s-.7-.44-.7-1.1.51-1.2 1.14-1.2c.74 0 .89.6.89 1.26z" fill="#a67c52"/><path d="m320.12 264.35c.03.37-.26.54-.37.49-.59-.22-.64.24-.64-.42s-.76-1.08-.13-1.15c.73-.09 1.08.42 1.14 1.08z" fill="#42210b"/><path d="m338.95 256.319v-1.54l-.46.15c-.23.11-.59.37-.59.62l-.05 2.69-.46 2.84h.23l.4-.21s.29-1.32.61-2.68c.13-.56.27-1.3.32-1.88z" fill="#2d9fde"/><path d="m342.58 257.019 1.42 1.94-.4.35-1.73-1.82-1.1-1.47-.15-.5.73-.15.4-.59z" fill="#2d9fde"/><path d="m339.12 266.85-.29-.03c-.2-.05-.13-.16 0-.33l.4-.55c.04-.05.36-.3.36-.37l.33.1c.24-.03.15.44.11.49l-.48.42c-.07.08-.33.29-.44.26z" fill="#000"/><path d="m342 266.13.27-.1c.19-.09.08-.19-.08-.32l-.52-.43s-.43-.2-.44-.27l-.3.17c-.24.03-.04.46.01.5l.57.29c.09.06.39.2.49.15z" fill="#000"/><path d="m340.93 265.19.05-2.91-.88-2.57c-.54-.82-.29-1.37-.22-1.41h.65c.15-.08.68-.35.68-.18l.78 3.72-.43 3.5c0 .15-.62-.08-.62-.16z" fill="#0f0651"/><path d="m339.49 265.85-.52-4.56c-.02-2.51-.38-3.43-.13-3.27l1.04.29c.19-.1 1.43 1.2.49 1.88l-.44 5.72c-.07.14-.36.25-.44-.05z" fill="#0f0651"/><path d="m340.86 257.57.11.62-.5.34-.77.1-.75.15-.11-.76.48-.3.54.11.53-.06z" fill="#2d9fde"/><path d="m339.97 254.51h-.34l-1.36.46c-.22.12 0 .73 0 1.02l.35 2.62.84.5h.65l1.19-.51.44-3.47c0-.66-.48-.57-1.77-.62z" fill="#42ddf7"/><path d="m340.38 254.371-.6-.07-.51.37c-.22.12.48.31.48.31l.46.06.38-.33s.15-.53-.21-.33z" fill="#ff7269"/><path d="m339.46 253.131.1 1.45.4.26.5-.36-.17-1.23z" fill="#af8281"/><path d="m338.95 252.949c0 .66.7 1.04 1.33 1.04s.7-.44.7-1.1-.51-1.2-1.14-1.2c-.74 0-.89.6-.89 1.26z" fill="#cb9b92"/><path d="m338.7 252.76c-.03.37.26.54.37.49.59-.22.64.24.64-.42s.76-1.08.13-1.15c-.73-.09-1.08.42-1.14 1.08z" fill="#603813"/><path d="m310.19 234.54v-1.54l-.46.15c-.23.11-.59.37-.59.62l-.05 2.69-.46 2.84h.23l.4-.21s.29-1.32.61-2.68c.13-.56.27-1.3.32-1.88z" fill="#2d9fde"/><path d="m313.82 235.24 1.42 1.95-.4.34-1.73-1.81-1.1-1.48-.14-.49.72-.16.41-.58z" fill="#2d9fde"/><path d="m310.37 245.071-.29-.03c-.2-.05-.13-.16 0-.33l.4-.55c.04-.05.36-.3.36-.37l.33.1c.24-.03.15.44.11.49l-.48.42c-.07.08-.33.29-.44.26z" fill="#000"/><path d="m313.24 244.35.27-.1c.19-.09.08-.19-.08-.32l-.52-.43s-.43-.2-.44-.27l-.3.17c-.24.03-.04.46.01.5l.57.29c.09.06.39.2.49.15z" fill="#000"/><path d="m312.17 243.42.05-2.91-.88-2.57c-.54-.82-.29-1.37-.22-1.41h.65c.15-.08.68-.35.68-.18l.78 3.72-.43 3.5c0 .15-.62-.08-.62-.16z" fill="#0f0651"/><path d="m310.73 244.08-.52-4.56c-.02-2.51-.38-3.43-.13-3.27l1.04.29c.19-.1 1.43 1.2.49 1.88l-.44 5.72c-.07.14-.36.25-.44-.05z" fill="#0f0651"/><path d="m312.1 235.801.11.62-.5.33-.77.11-.75.15-.11-.77.48-.29.54.1.53-.06z" fill="#2d9fde"/><path d="m311.21 232.74h-.34l-1.36.46c-.22.12 0 .73 0 1.02l.35 2.62.84.5h.65l1.19-.51.44-3.47c0-.66-.48-.57-1.77-.62z" fill="#42ddf7"/><path d="m311.62 232.591-.6-.07-.51.37c-.22.12.48.31.48.31l.46.06.38-.33s.15-.53-.21-.33z" fill="#ff7269"/><path d="m310.7 231.361.1 1.44.4.27.51-.36-.18-1.24z" fill="#af8281"/><path d="m310.2 231.17c0 .66.7 1.04 1.33 1.04s.7-.44.7-1.1-.51-1.2-1.14-1.2c-.74 0-.89.6-.89 1.26z" fill="#cb9b92"/><path d="m309.94 230.991c-.03.37.26.54.37.49.59-.22.64.24.64-.42s.76-1.08.13-1.15c-.73-.09-1.08.42-1.14 1.08z" fill="#603813"/><path d="m153.44 253.451-.27.07c-.18.07-.09.17.05.31l.61.29s.33-.03.33.03l.33-.18c.23 0-.15-.47-.2-.51h-.25c-.08-.05-.5-.05-.6 0z" fill="#0f0651"/><path d="m150.74 253.52-.15-.23c-.09-.18.04-.19.24-.19l.64-.03c.06 0 .44.09.48.05l.13.3c.17.16-.23.37-.29.37l-.59-.1c-.1 0-.41-.07-.45-.16z" fill="#0f0651"/><path d="m151.86 253.32.12-2.62 1.15-1.98c0-.08-.47-.35-.54-.39l-.15-.49c-.14-.07-.33-.04-.33.12l-.78 2.8.13 2.53c0 .15.39.11.39.03z" fill="#ad89a3"/><path d="m154.27 253.63-.53-3.29-.05-2.16c0-.1.02-.36-.07-.41l-.22-.04c-.18-.1-.76-.05-.76.15l.25 2.71.96 3.02c.07.13.34.3.41.02z" fill="#ba809d"/><path d="m152.19 246.971-.78 1.97.86.56 1.43.22.57-.32-.28-1.12-.27-1.2-.33.11z" fill="#2e63a5"/><path d="m152.17 246.621-.11.59.47.32.73.09.55-.11-.09-.43-.1-.32-.51.1-.5-.05z" fill="#2d9fde"/><path d="m152.43 243.56.56-.07.67.3c.21.12.45.13.45.37l-.41 2.92-.33.11-.75-.07-.46-.15-.52-2.96c0-.39.42-.64.77-.44z" fill="#0f0651"/><path d="m153.89 245.071-.29-1.77.64.17c.1.2.35.18.35.41l.43 1.9-1.2 1.73-.12-.26.02-.17s.26-.7.41-1.24c.14-.23-.11-.44-.23-.77z" fill="#0f0651"/><path d="m151.27 245.901-.41 1.48.42.13.39-1.04.26-.81.19-.9.01-.49-.39-.55z" fill="#0f0651"/><path d="m154.21 242.191c0 .62.62 2.68-.88 2.75-1.93.1-1.28-2.13-1.28-2.75s.48-1.13 1.08-1.13 1.08.51 1.08 1.13z" fill="#e99a27"/><path d="m312.65 277.36.27.07c.18.07.09.17-.05.31l-.61.29s-.33-.03-.33.03l-.33-.18c-.23 0 .15-.47.2-.51h.25c.08-.05.5-.05.6 0z" fill="#0f0651"/><path d="m315.2 277.54.13-.24c.07-.18-.06-.18-.26-.17l-.64.03c-.06 0-.43.13-.48.1l-.09.31c-.15.18.27.35.33.34l.58-.16c.1-.01.4-.12.44-.21z" fill="#0f0651"/><path d="m314.22 277.23-.28-2.62-1-1.98c0-.08.47-.35.54-.39l.15-.49c.14-.07.33-.04.33.12l.63 2.8.03 2.54c0 .15-.39.11-.39.03z" fill="#7c5a3e"/><path d="m311.81 277.54.78-3.93-.2-1.52c0-.1-.02-.36.07-.41l.22-.04c.18-.1.76-.05.76.15v2.07l-1.21 3.65c-.07.13-.34.3-.41.02z" fill="#7c5a3e"/><path d="m313.9 270.881.96 3.11-.86.56-1.43.22-.56-.32.09-2.26.26-1.2.33.11z" fill="#ffcb95"/><path d="m313.92 270.531.1.59-.47.32-.73.09-.55-.11.09-.43.1-.31.51.09.51-.05z" fill="#2d9fde"/><path d="m313.65 267.47-.56-.07-.67.3c-.21.12-.45.13-.45.37l.41 2.92.33.11.75-.07.46-.15.52-2.96c0-.39-.42-.64-.77-.44z" fill="#0f0651"/><path d="m312.35 267.981.13-.77-.35.29c-.1.2-.35.18-.35.41l-.39 1.78.51 2.11.12-.26.05-.45s-.11-.73-.11-1.35c-.14-.23.28-1.44.4-1.77z" fill="#7c5a3e"/><path d="m314.59 269.721 1.09.56-.09.27-1.18-.17-.26-.8-.19-.91-.01-.49.39-.55z" fill="#7c5a3e"/><path d="m311.87 266.11c0 .62-.62 2.68.88 2.75 1.93.1 1.28-2.13 1.28-2.75s-.48-1.13-1.08-1.13-1.08.51-1.08 1.13z" fill="#1a1a1a"/><path d="m320.25 252.242-.27.07c-.18.07-.09.17.05.31l.61.29s.33-.03.33.03l.33-.18c.23 0-.15-.47-.2-.51h-.25c-.08-.05-.5-.05-.6 0z" fill="#0f0651"/><path d="m317.69 252.412-.13-.241c-.07-.18.06-.18.26-.17l.64.03c.06 0 .43.131.48.101l.09.31c.15.18-.27.349-.33.339l-.58-.16c-.1-.01-.4-.119-.44-.209z" fill="#0f0651"/><path d="m318.67 252.111.28-2.62 1-1.98c0-.08-.47-.35-.54-.39l-.15-.49c-.14-.07-.33-.04-.33.12l-.63 2.8-.03 2.54c0 .15.39.11.39.03z" fill="#7c5a3e"/><path d="m321.08 252.421-.78-3.93.2-1.52c0-.1.02-.36-.07-.41l-.22-.04c-.18-.1-.76-.05-.76.15v2.07l1.21 3.65c.07.13.34.3.41.02z" fill="#7c5a3e"/><path d="m319 245.762-.97 3.11.86.55 1.43.22.57-.31-.09-2.26-.27-1.2-.33.11z" fill="#ffcb95"/><path d="m318.98 245.412-.11.58.47.32.73.1.55-.11-.09-.43-.1-.32-.51.1-.5-.06z" fill="#2d9fde"/><path d="m319.24 242.351.56-.07.67.3c.21.12.45.13.45.37l-.41 2.92-.33.11-.75-.07-.46-.15-.52-2.96c0-.39.42-.64.77-.44z" fill="#0f0651"/><path d="m320.54 242.862-.13-.77.35.29c.1.2.35.18.35.41l.39 1.78-.51 2.11-.12-.26-.05-.45s.11-.73.11-1.35c.14-.23-.28-1.44-.4-1.77z" fill="#7c5a3e"/><path d="m318.31 244.602-1.1.55.09.28 1.18-.17.26-.81.19-.91.01-.48-.39-.56z" fill="#7c5a3e"/><path d="m321.02 240.982c0 .62.62 2.68-.88 2.75-1.93.1-1.28-2.13-1.28-2.75s.48-1.13 1.08-1.13 1.08.51 1.08 1.13z" fill="#1a1a1a"/><path d="m158.89 269.742-.27.07c-.18.07-.09.17.05.31l.61.29s.33-.03.33.03l.33-.18c.23 0-.15-.47-.2-.51h-.25c-.08-.05-.5-.05-.6 0z" fill="#0f0651"/><path d="m156.33 269.912-.13-.241c-.07-.18.06-.18.26-.17l.64.03c.06 0 .43.131.48.101l.09.31c.15.18-.27.349-.33.339l-.58-.16c-.1-.01-.4-.119-.44-.209z" fill="#0f0651"/><path d="m157.32 269.611.28-2.62 1-1.98c0-.08-.47-.35-.54-.39l-.15-.49c-.14-.07-.33-.04-.33.12l-.63 2.8-.03 2.54c0 .15.39.11.39.03z" fill="#7c5a3e"/><path d="m159.72 269.921-.78-3.93.2-1.52c0-.1.02-.36-.07-.41l-.22-.04c-.18-.1-.76-.05-.76.15v2.07l1.21 3.65c.07.13.34.3.41.02z" fill="#7c5a3e"/><path d="m157.64 263.262-.97 3.11.87.55 1.42.22.57-.31-.09-2.26-.27-1.2-.33.11z" fill="#ffcb95"/><path d="m157.62 262.912-.11.59.47.32.73.09.56-.11-.1-.43-.09-.32-.51.1-.51-.05z" fill="#2d9fde"/><path d="m157.89 259.851.56-.07.67.3c.21.12.45.13.45.37l-.41 2.92-.33.11-.75-.07-.46-.15-.52-2.96c0-.39.42-.64.77-.44z" fill="#0f0651"/><path d="m159.18 260.362-.13-.77.35.29c.1.2.35.18.35.41l.39 1.78-.51 2.11-.12-.26-.05-.45s.11-.73.11-1.35c.14-.23-.28-1.44-.4-1.77z" fill="#7c5a3e"/><path d="m156.95 262.102-1.09.55.09.28 1.17-.17.27-.81.19-.9v-.49l-.38-.56z" fill="#7c5a3e"/><path d="m159.66 258.482c0 .62.62 2.68-.88 2.75-1.93.1-1.28-2.13-1.28-2.75s.48-1.13 1.08-1.13 1.08.51 1.08 1.13z" fill="#1a1a1a"/><path d="m256.74 306.551.31-2.02-.46.15c-.23.11-.59.37-.59.62l-.05 2.69-.46 2.84h.23l.4-.21s.44-2.09.62-4.07z" fill="#0f0651"/><path d="m260.35 306.621 1.42 1.94-.4.35-1.73-1.81-.31-.65-.2-.96-.01-.52.41-.58z" fill="#0f0651"/><path d="m257.11 316.821-.29-.03c-.2-.05-.13-.16 0-.33l.4-.55c.04-.05.36-.3.36-.37l.33.1c.24-.03.15.44.11.49l-.48.42c-.07.08-.33.29-.44.26z" fill="#000"/><path d="m259.98 316.1.27-.1c.19-.09.08-.19-.08-.32l-.52-.43s-.43-.2-.44-.27l-.3.17c-.24.03-.04.46.01.5l.57.29c.09.06.39.2.49.15z" fill="#000"/><path d="m258.91 315.17.05-2.91-.88-2.57c-.54-.82-.29-1.37-.22-1.41h.65c.15-.08.68-.35.68-.18l.78 3.72-.43 3.5c0 .15-.62-.08-.62-.16z" fill="#0172ce"/><path d="m257.47 315.83-.52-4.56c-.46-2.14-.25-3.15 0-2.99h.91c.19-.1 1.43 1.21.49 1.88l-.44 5.72c-.07.14-.36.25-.44-.05z" fill="#0172ce"/><path d="m258.84 307.551.11.62-.5.33-.77.11-.75.15-.11-.77.48-.29.54.1.53-.06z" fill="#2d9fde"/><path d="m258.3 304.221h-.34l-1.36.46c-.22.12 0 .73 0 .98l.35 2.62.85.55h.65l.74-.72.45-3.42c0-.42-.67-.5-1.33-.46z" fill="#0f0651"/><path d="m258.36 304.341-.6-.07-.46.59c-.22.12.14 1.371.14 1.371l.7 1.889.29-1.75s.29-2.229-.07-2.019z" fill="#ff7269"/><path d="m256.7 303.11c0 .66.19.85.83.85s.7-.44.7-1.1-.51-1.2-1.14-1.2-.38.78-.38 1.45z" fill="#42210b"/><path d="m257.44 303.111.1 1.44.4.27.51-.36-.18-1.24z" fill="#8c6239"/><path d="m257.44 303.11c0 .66.19.85.83.85s.7-.44.7-1.1-.51-1.2-1.14-1.2-.38.78-.38 1.45z" fill="#a67c52"/><path d="m256.5 302.561c.18.3 1.31 1.16 2.87.36.56-.29-.21-.19-.11-.65.14-.65-.6-1.38-1.23-1.38-1.26 0-1.86 1.11-1.52 1.68z" fill="#ff0"/><path d="m262.01 319.332.27.07c.18.07.09.17-.05.31l-.61.29s-.33-.03-.33.03l-.33-.18c-.23 0 .15-.47.2-.51h.25c.08-.05.5-.05.6 0z" fill="#0f0651"/><path d="m264.57 319.501.13-.24c.07-.18-.06-.18-.26-.17l-.64.03c-.06 0-.43.13-.48.1l-.09.31c-.15.18.27.35.33.34l.58-.16c.1-.01.4-.12.44-.21z" fill="#0f0651"/><path d="m263.58 319.201-.28-2.62-1-1.98c0-.08.47-.35.54-.39l.15-.49c.14-.07.98.73.98.88l.2 1.16-.2 3.42c0 .15-.39.11-.39.03z" fill="#ea4244"/><path d="m261.18 319.511.78-3.93-.2-1.52c0-.1-.02-.36.07-.41l.22-.04c.18-.1.76-.05.76.15v2.07l-1.21 3.65c-.07.13-.34.3-.41.02z" fill="#ea4244"/><path d="m263.26 312.852.72 1.75-.62 1.91-.64-1.58-.22 1.71-.56.09-.64-1.64-.04-1.32.47-.81.33.11z" fill="#ea4244"/><path d="m263.28 312.502.11.58-.47.32-.73.1-.56-.12.1-.42.1-.32.5.1.51-.06z" fill="#0f0651"/><path d="m263.01 309.441-.56-.07-.67.3c-.21.12-.45.13-.45.37l.41 2.92.33.11.75-.07.46-.15.52-2.96c0-.39-.42-.64-.77-.44z" fill="#e49618"/><path d="m261.72 309.952.13-.77-.35.29c-.1.2-.35.18-.35.41l-.39 1.78.51 2.11.12-.26.05-.45s-.11-.73-.11-1.35c-.14-.23.28-1.44.4-1.77z" fill="#7c5a3e"/><path d="m263.95 311.692 1.09.55-.09.28-1.17-.17-.27-.81-.19-.91v-.49l.38-.55z" fill="#7c5a3e"/><path d="m261.24 308.071c0 .62-.62 2.68.88 2.75 1.93.1 1.28-2.13 1.28-2.75s-.48-1.13-1.08-1.13-1.08.51-1.08 1.13z" fill="#1a1a1a"/><path d="m263.43 204.9-.62.33-.63.32-.64.31-.65.3-.66.29-.68.28-.68.26-.69.26-.69.24-.71.24-.71.22-.73.21-.72.2-.74.19-.74.18-.75.17-.75.16-.76.15-.76.13-.77.13-.77.11-.77.1-.78.1-.78.08-.79.07-.78.06-.79.05-.79.04-.79.02-.79.02-.79.01-.8-.01-.79-.02-.79-.02-.79-.04-.78-.05-.79-.06-.78-.07-.79-.08-.77-.1-.78-.1-.77-.11-.77-.13-.76-.13-.76-.15-.75-.16-.75-.17-.74-.18-.74-.19-.72-.2-.72-.21-.72-.22-.71-.24-.69-.24-.69-.26-.68-.26-.68-.28-.66-.29-.65-.3-.64-.31-.63-.32-.62-.33-.61-.34-.59-.35-.58-.36-.55-.37-.54-.37-.52-.37-.5-.38-.48-.39-.46-.4-.44-.39-.43-.41-.4-.4-.39-.42-.36-.41-.35-.42-.33-.43-.31-.43-.29-.43-.28-.43-.25-.44-.24-.44-.21-.44-.2-.45-.18-.45-.16-.45-.14-.45-.12-.45-.11-.45-.08-.46-.07-.45-.05-.46-.02-.46-.01-.45.01-.46.02-.46.05-.45.07-.46.08-.45.11-.46.12-.45.14-.45.16-.45.18-.45.2-.44.21-.45.24-.44.25-.43.28-.44.29-.43.31-.43.33-.42.35-.42.36-.42.39-.41.4-.41.43-.4.44-.4.46-.39.48-.39.5-.38.52-.38.54-.37.55-.37.58-.35.59-.36.61-.34.62-.33.63-.32.64-.31.65-.3.66-.29.68-.27.68-.27.69-.26.69-.24.71-.23.71-.23.73-.21.72-.2.74-.19.74-.18.75-.17.75-.16.76-.14.76-.14.77-.12.77-.12.78-.1.77-.09.78-.09.79-.07.78-.06.79-.05.79-.03.79-.03.79-.02h.79.8l.79.02.79.03.79.03.79.05.78.06.79.07.78.09.77.09.78.1.77.12.77.12.76.14.76.14.75.16.75.17.74.18.74.19.72.2.73.21.71.23.71.23.69.24.69.26.68.27.68.27.66.29.65.3.64.31.63.32.62.33.61.35.59.35.58.35.55.37.54.37.52.38.5.38.48.39.46.39.44.4.43.4.4.41.39.41.36.42.35.42.33.42.31.43.29.43.28.44.25.43.24.44.21.45.2.44.18.45.16.45.14.45.12.45.11.46.08.45.07.46.05.45.02.46.01.46-.01.45-.02.46-.05.46-.07.45-.08.46-.11.45-.12.45-.14.45-.16.45-.18.45-.2.45-.21.44-.24.44-.25.44-.27.43-.3.43-.31.43-.33.43-.35.42-.36.41-.39.42-.4.4-.43.41-.44.39-.46.4-.48.39-.5.38-.52.37-.54.37-.55.37-.58.36-.59.35z" fill="#0f0651"/><path d="m242.53 182.24-.02.01-.02.01-.02.01h-.03l-.02.01-.03.01h-.03-.02l-.03.01h-.03-.03-.03l-.03-.01h-.03l-.03-.01-.03-.01-2.27-.69-.08-.03-.09-.02-.09-.02-.1-.01-.09-.01-.09-.01-.1-.01h-.09-.1l-.09.01h-.1l-.09.01-.09.02-.1.02-.09.02-.08.02-2.29.68h-.03l-.03.01h-.03l-.03.01h-.03-.03-.02-.03l-.03-.01h-.02l-.03-.01h-.02l-.03-.01-.02-.01-.02-.01-.02-.01-.02-.01-.02-.02-.01-.01-.02-.01-.01-.02-.01-.01-.01-.02v-.01l-.01-.02v-.02-.01-.02l.01-.02.01-.01.01-.02.01-.02 1.21-1.31.04-.05.04-.05.03-.05.02-.06.02-.05.02-.05.01-.06v-.05-.06l-.01-.05-.01-.06-.02-.05-.02-.06-.03-.05-.04-.05-.04-.05-1.17-1.32-.01-.02-.02-.02v-.01l-.01-.02v-.02-.01-.02-.02l.01-.01.01-.02.01-.01.01-.02.01-.01.02-.01.02-.01.01-.02.03-.01.02-.01.02-.01h.02l.03-.01.02-.01h.03.03l.03-.01h.03.02.03l.03.01h.03l.03.01.03.01 2.27.69.09.03.09.02.09.02.09.01.1.01.09.01.09.01h.1.09l.1-.01h.09l.1-.02.09-.01.09-.02.09-.02.09-.02 2.29-.68h.02l.03-.01.03-.01h.03.03.03.03.03l.02.01h.03l.03.01h.02l.02.01.03.01.02.01.02.01.02.01.01.02.02.01.01.01.02.02.01.01v.02l.01.01v.02l.01.02-.01.01v.02.02l-.01.01-.01.02-.02.02-1.2 1.31-.04.05-.04.05-.03.05-.03.06-.02.05-.01.05-.01.06-.01.05v.06l.01.05.02.06.02.05.02.06.03.05.04.05.04.05 1.17 1.32.01.02.01.02.01.01v.02l.01.02v.01.02l-.01.02v.01l-.01.02-.01.01-.01.01-.02.02-.01.01-.02.01z" fill="#fff"/><path d="m245.6 205.3-.09.04-.09.05-.09.04-.09.04-.09.04-.09.04-.1.04-.09.03-.1.04-.1.03-.1.03-.1.03-.1.03-.1.03-.1.02-.11.02-.1.03-.11.02-.1.01-.11.02-.11.02-.11.01-.1.02-.11.01-.11.01-.11.01h-.11l-.11.01h-.11-.11-.11-.11-.11-.11l-.11-.01h-.11l-.11-.01-.11-.01-.11-.01-.1-.02-.11-.01-.11-.02-.11-.01-.1-.02-.11-.02-.1-.03-.11-.02-.1-.02-.1-.03-.1-.03-.1-.03-.1-.03-.1-.03-.1-.04-.09-.03-.1-.04-.09-.04-.09-.04-.09-.04-.09-.04-.09-.05-.09-.04-.08-.05-.08-.05-.08-.05-.08-.05-.08-.05-.07-.05-.07-.06-.06-.05-.07-.05-.06-.06-.06-.06-.06-.05-.05-.06-.05-.06-.05-.06-.04-.06-.05-.06-.04-.06-.04-.06-.03-.06-.03-.06-.03-.06-.03-.06-.03-.06-.02-.07-.02-.06-.02-.06-.01-.06-.01-.07-.01-.06-.01-.06v-.07-.06-.07-.06l.01-.06.01-.07.01-.06.01-.06.02-.07.02-.06.02-.06.03-.06.03-.06.03-.07.03-.06.03-.06.04-.06.04-.06.05-.06.04-.06.05-.06.05-.05.05-.06.06-.06.06-.05.06-.06.07-.05.06-.06.07-.05.07-.05.08-.05.08-.06.08-.05.08-.04.08-.05.09-.05.09-.04.09-.05.09-.04.09-.04.09-.04.1-.03.09-.04.1-.03.1-.04.1-.03.1-.03.1-.02.1-.03.1-.02.11-.03.1-.02.11-.02.1-.02.11-.02.11-.01.11-.02.1-.01.11-.01.11-.01.11-.01.11-.01h.11l.11-.01h.11.11.11.11l.11.01h.11l.11.01.11.01.11.01.11.01.11.01.1.02.11.01.11.02.1.02.11.02.1.02.11.03.1.02.1.03.1.02.1.03.1.03.1.04.1.03.09.04.1.03.09.04.1.04.09.04.08.05.09.04.09.05.08.05.09.04.08.05.07.06.08.05.07.05.07.05.07.06.06.05.06.06.06.05.06.06.05.06.05.05.05.06.05.06.04.06.04.06.04.06.03.06.04.06.03.07.02.06.03.06.02.06.02.06.02.07.01.06.01.06.01.07.01.06v.06.07.06.06l-.01.07-.01.06-.01.06-.01.07-.02.06-.02.06-.02.07-.03.06-.02.06-.04.06-.03.06-.03.06-.04.06-.04.06-.05.06-.04.06-.05.06-.05.06-.05.06-.06.05-.06.06-.06.05-.07.06-.06.05-.07.06-.07.05-.08.05-.08.05-.08.05-.08.05z" fill="#ff7269"/><path d="m264.14 197.74-.21-.06-.21-.05-.21-.05-.2-.05-.21-.04-.2-.03-.21-.03-.22-.03-.44-.06-.44-.04-.43-.04-.43-.03-.43-.01-.43-.02h-.42l-.42-.01-.41.01h-.41l-.41.01-.42.02-.77.03-.76.05-.77.05-.76.06-.77.06-.77.07-.77.08-.77.07-.35.04-.39.03-.4.04-.4.04-.41.05-.41.05-.42.04-.41.04-.42.04-1.65.18-.22.02-.2.02-.21.02-.2.02-.22.02-.23.02-.25.02-.28.03-.53.04-.54.03-.55.04-.55.02-.55.03-.56.01-.56.02h-.56l-.57.01-.57-.01-.58-.01-.58-.02-.58-.02-.59-.03-.59-.03-.6-.05-.59-.05-.61-.06-.6-.07-.61-.08-.61-.09-.62-.1-.61-.11-.62-.12-.61-.13-.61-.14-.61-.15-.6-.17-.6-.18-.59-.19-.59-.2-.58-.22-.36-.14-.35-.15-.35-.15-.34-.16-.33-.17-.33-.16-.32-.17-.31-.18-.33-.2-.32-.2-.31-.2-.3-.21-.29-.21-.29-.21-.27-.22-.25-.22-.25-.22-.24-.23-.23-.22-.21-.23-.2-.23-.19-.23-.18-.24-.16-.23-.23-.34-.21-.34-.18-.34-.17-.34-.14-.34-.13-.33-.11-.34-.09-.33-.07-.34-.05-.33-.04-.32-.03-.33-.01-.33v-.32l.02-.32.02-.32.05-.31.06-.32.06-.31.08-.3.09-.31.1-.31.11-.3.13-.3.13-.3.15-.3.16-.3.18-.29.18-.29.2-.29.22-.29.22-.29-.22.3-.21.31-.2.31-.18.31-.16.32-.14.32-.11.33-.09.33-.08.33-.07.33-.04.34-.02.34v.35l.02.35.05.35.08.37.11.35.12.36.16.36.19.38.23.36.26.36.29.37.33.36.25.24.26.24.28.24.3.23.31.23.33.22.34.22.35.21.34.19.35.18.36.18.38.17.6.25.61.24.63.22.64.2.65.18.65.17.66.15.65.13.66.12.65.11.64.09.64.08.64.07.63.06.62.05.62.04.62.03.6.02.6.01.59.01h.59.58l.58-.01.57-.02.57-.02.56-.02.56-.03.55-.04.54-.04.54-.04.54-.05.53-.05 1.05-.11 1.04-.12 1.02-.14 1.01-.14 1.55-.24.35-.05.34-.05.34-.04.33-.04.66-.07.63-.06.62-.05.59-.03.58-.02h.57l.55.02.55.03.26.02.27.03.28.03.27.05.28.05.29.05.28.07.29.07.3.08.29.09.3.1.3.11.3.12.3.12.3.14.31.15.44.23.44.24.49.3.49.31.49.34.49.35.48.38.48.38.47.41.48.42z" fill="#ff7269"/><path d="m264.61 198.17-.47-.43-.07-.07-.48-.42-.47-.41-.48-.38-.48-.38-.49-.35-.49-.34-.49-.31-.49-.3-.44-.24-.44-.23-.31-.15-.3-.14-.3-.12-.3-.12-.3-.11-.3-.1-.29-.09-.3-.08-.29-.07-.28-.07-.29-.05-.28-.05-.27-.05-.28-.03-.27-.03-.27-.02-.54-.03-.55-.02h-.57l-.58.02-.59.03-.62.05-.63.06-.66.07-.33.04-.34.04-.34.05-.35.05-1.55.24-1.01.14-1.02.14-1.04.12-1.05.11-.53.05-.54.05-.54.04-.54.04-.55.04-.56.03-.56.02-.57.02-.57.02-.58.01h-.58-.59l-.59-.01-.6-.01-.6-.02-.62-.03-.62-.04-.62-.05-.63-.06-.64-.07-.64-.08-.64-.09-.65-.11-.66-.12-.65-.13-.66-.15-.65-.17-.65-.18-.64-.2-.63-.22-.61-.24-.6-.25-.38-.17-.36-.18-.35-.18-.34-.19-.35-.21-.34-.22-.33-.22-.31-.23-.3-.23-.28-.24-.26-.24-.25-.24-.33-.36-.29-.37-.26-.36-.23-.37-.19-.37-.16-.36-.12-.36-.12-.36-.07-.36-.05-.35-.02-.35v-.35l.02-.34.04-.34.07-.33.08-.33.09-.33.11-.33.14-.32.16-.32.18-.31.2-.31.21-.31.22-.3.38-.49.54.43.3.24.27.24.27.23.25.23.25.22.24.22.26.22.26.21.28.22.31.21.32.22.36.22.3.16.33.17.35.17.37.17.41.17.44.18.47.17.51.18.39.12.4.12.4.1.4.1.41.08.42.08.41.06.42.06.43.05.42.04.43.04.43.02.44.02.44.02h.43l.44.01.79-.01.78-.03.79-.03.78-.05.79-.05.78-.06.77-.07.78-.06.41-.04.4-.03 3.58-.3 2.3-.15.61-.03.63-.01.63-.02h.65l.64.01.66.03.66.03.66.04.67.06.67.07.66.08.67.09.68.12.67.12.67.15.66.16.65.18.64.19.62.22.61.22.58.24.56.25.54.27.5.28.37.22.36.23.34.24.32.24.31.24.29.25.27.25.26.26.24.26.22.26.21.26.18.26.17.27.15.26.13.27.12.26.13.35.1.35.08.35.06.34.04.34.02.35-.01.34-.03.33-.06.34-.07.33-.1.33-.13.32-.14.32-.17.32-.2.31-.21.31z" fill="#fff"/></g><g stroke="#150e1f"><circle cx="47" cy="47" r="46.6867" stroke-width=".626667" transform="matrix(-1 0 0 1 556 237)"/><circle cx="236" cy="236" r="235.687" stroke-width=".626667" transform="matrix(-1 0 0 1 745 48)"/><path d="m-93 618h75c41.4214 0 75-33.579 75-75v-390c0-99.4113 80.589-180 180-180s180 80.5887 180 180v149c0 41.421 33.579 75 75 75h997"/><path d="m-93 643h75c55.2285 0 100-44.772 100-100v-390c0-85.6041 69.396-155 155-155s155 69.3959 155 155v149c0 55.228 44.772 100 100 100h996"/><path d="m-93 668h75c69.0356 0 125-55.964 125-125v-390c0-71.797 58.203-130 130-130s130 58.203 130 130v149c0 69.036 55.964 125 125 125h1015.5"/><path d="m-93 693h75c82.8427 0 150-67.157 150-150v-390c0-57.9899 47.01-105 105-105s105 47.0101 105 105v149c0 82.843 67.157 150 150 150h999.5"/><path d="m-93 718h80c93.8884 0 170-76.112 170-170v-395c0-44.183 35.817-80 80-80s80 35.817 80 80v149c0 96.65 78.35 175 175 175h1005.5"/></g></g></svg>