<svg width="1440" height="1335" viewBox="0 0 1440 1335" fill="none" xmlns="http://www.w3.org/2000/svg">
<g opacity="0.4">
<mask id="mask0_6570_13142" style="mask-type:alpha" maskUnits="userSpaceOnUse" x="-174" y="0" width="1771" height="1337">
<path d="M-174 226.93L1440.06 0.0888672L1596.06 1110.12L-17.9946 1336.96L-174 226.93Z" fill="black"/>
</mask>
<g mask="url(#mask0_6570_13142)">
<path d="M-207.546 1104.01L-207.548 1104.01C-275.576 1067.84 -356.942 1067.26 -425.645 1102.38L-764.922 1275.73C-812.718 1300.17 -863.56 1248.54 -838.335 1201.14L-659.978 864.562C-623.899 796.435 -623.228 714.971 -658.25 646.366L-831.695 306.993C-856.135 259.193 -804.602 208.456 -757.105 233.579L-757.572 234.463L-757.104 233.579L-420.429 412.034C-352.303 448.112 -270.936 448.688 -202.33 413.665L136.946 240.318C184.74 215.881 235.584 267.501 210.457 314.812C210.457 314.812 210.457 314.812 210.457 314.813L32.0025 651.487C-4.07548 719.613 -4.65119 800.98 30.3712 869.585L203.816 1208.96L203.816 1208.96C228.154 1256.65 176.634 1307.6 129.223 1282.37L-207.546 1104.01Z" stroke="url(#paint0_linear_6570_13142)" stroke-width="2"/>
<path d="M-227.303 1040.42L-227.301 1040.42L44.908 1185.34L-227.303 1040.42ZM-227.303 1040.42C-282.237 1011.06 -347.807 1010.35 -403.059 1038.43L-403.512 1037.54M-227.303 1040.42L-403.512 1037.54M-403.512 1037.54L-403.059 1038.43L-676.202 1177.22C-714.849 1196.87 -756.195 1154.89 -735.907 1116.56C-735.907 1116.56 -735.906 1116.56 -735.906 1116.56L-593.075 845.61C-564.214 790.825 -563.923 725.181 -592.359 669.785L-733.319 395.491C-753.269 356.688 -711.668 315.737 -673.111 336.237L-673.58 337.12L-673.11 336.237L-400.976 481.231C-345.963 510.517 -280.392 511.231 -225.218 483.222L47.9245 344.44C86.5703 324.79 127.919 366.763 107.706 405.017L-35.2028 676.045C-35.2028 676.046 -35.2028 676.046 -35.2029 676.046C-64.0635 730.83 -64.2775 796.396 -35.8412 851.793L105.119 1126.09L105.12 1126.09M-403.512 1037.54L105.12 1126.09M105.12 1126.09C124.986 1164.8 83.3985 1205.92 44.9097 1185.34L105.12 1126.09Z" stroke="url(#paint1_linear_6570_13142)" stroke-width="2"/>
<path opacity="0.2" d="M-248.615 971.629L-248.613 971.63L-43.531 1081L-248.615 971.629ZM-248.615 971.629C-289.933 949.508 -339.215 948.909 -380.713 969.965L-381.166 969.074M-248.615 971.629L-381.166 969.074M-381.166 969.074L-380.713 969.965L-586.228 1074.19C-615.522 1089.06 -646.918 1057.19 -631.566 1028.13L-524.288 824.275C-502.649 783.128 -502.492 733.79 -523.918 692.127L-630.308 485.478C-645.476 456.029 -613.958 425.007 -584.696 440.591L-584.695 440.591M-381.166 969.074L-584.695 440.591M2.08325 1036.11L2.08298 1036.11L-104.307 829.461C-104.307 829.461 -104.307 829.461 -104.307 829.461C-125.733 787.796 -125.634 738.517 -103.995 697.371C-103.995 697.371 -103.995 697.371 -103.995 697.371L3.34121 493.453L2.08325 1036.11ZM2.08325 1036.11C17.1871 1065.49 -14.3171 1096.64 -43.5293 1081L2.08325 1036.11ZM-584.695 440.591L-379.67 550.016C-338.293 572.08 -289.009 572.678 -247.569 551.68L-42.0547 447.453C-12.7635 432.588 18.6348 464.455 3.3416 493.452L-584.695 440.591Z" stroke="url(#paint2_linear_6570_13142)" stroke-width="2"/>
<path fill-rule="evenodd" clip-rule="evenodd" d="M1572.03 670.581L1227.62 453.912L1228.15 453.617L1230.49 452.292L1572.03 667.155L1913.24 452.462L1915.69 453.849L1916.1 454.084L1572.03 670.581ZM1223.6 451.382L1225.13 452.343L1224.1 450.523L1223.6 451.382ZM1570.87 -144.891L1226.31 446.729L1231.31 443.905L1570.87 -139.128L1572.03 -141.115L1573.18 -139.128L1912.97 444.381L1917.97 447.213L1573.18 -144.891L1572.03 -146.878L1570.87 -144.891ZM1572.02 253.782L1232.77 445.38L1230.22 449.756L1230.55 449.963L1572.02 257.114L1913.18 450.133L1913.78 449.756L1911.51 445.855L1572.02 253.782ZM1571.04 252.041L1234.76 441.957L1572.02 -137.141L1909.51 442.428L1573.01 252.041L1572.02 251.485L1571.04 252.041ZM1227.52 450.419L1228.57 451.081L1227.16 451.876L1226.72 451.092L1226.18 450.134L1225.74 449.351L1227.48 448.367L1229.32 447.328L1227.52 450.419ZM1572.02 259.411L1232.47 451.174L1572.03 664.792L1911.26 451.343L1572.02 259.411ZM1916.48 450.419L1915.16 451.252L1916.67 452.108L1917.12 451.324L1917.66 450.367L1918.1 449.584L1916.36 448.599L1914.96 447.808L1916.48 450.419ZM1920.4 451.382L1919.88 450.495L1919.84 450.568L1918.82 452.377L1920.4 451.382L1920.4 451.382ZM1572.03 672.944L1570.96 672.274L1222.54 453.075L1220.9 452.045L1221.87 450.375L1570.3 -147.885L1572.03 -150.853L1573.75 -147.885L1922.13 450.375L1923.1 452.045L1921.46 453.075L1573.09 672.274L1572.03 672.944ZM1570.96 735.228L1572.03 735.896L1573.09 735.228L1902.82 528.101L1572.03 1006.2L1241.22 528.132L1570.96 735.228ZM1910.02 521.221L1905.71 523.923L1572.03 733.535L1238.33 523.955L1234.03 521.253L1236.92 525.43L1570.81 1007.96L1572.03 1009.71L1573.24 1007.96L1907.12 525.398L1910.02 521.221ZM1572.03 730.11L1227.9 513.98L1223.6 511.279L1226.49 515.456L1570.81 1013.05L1572.03 1014.81L1573.24 1013.05L1917.55 515.422L1920.44 511.245L1916.14 513.947L1572.03 730.11ZM1919.38 509.551L1572.03 727.748L1224.67 509.585L1221.96 512.417L1570.38 1015.95L1572.03 1018.32L1573.67 1015.95L1922.09 512.383L1919.38 509.551Z" fill="url(#paint3_linear_6570_13142)"/>
</g>
</g>
<defs>
<linearGradient id="paint0_linear_6570_13142" x1="-841.91" y1="1558.43" x2="14.7709" y2="75.2023" gradientUnits="userSpaceOnUse">
<stop stop-color="#204683" stop-opacity="0.12"/>
<stop offset="0.338535" stop-color="#6170B5" stop-opacity="0"/>
<stop offset="0.625005" stop-color="#A47DAA" stop-opacity="0.6"/>
<stop offset="0.994812" stop-color="#F99B84" stop-opacity="0.09"/>
</linearGradient>
<linearGradient id="paint1_linear_6570_13142" x1="-737.513" y1="1404.85" x2="-46.4887" y2="213.692" gradientUnits="userSpaceOnUse">
<stop stop-color="#204683" stop-opacity="0.12"/>
<stop offset="0.338535" stop-color="#6170B5" stop-opacity="0"/>
<stop offset="0.625005" stop-color="#A47DAA" stop-opacity="0.6"/>
<stop offset="0.994812" stop-color="#F99B84" stop-opacity="0.09"/>
</linearGradient>
<linearGradient id="paint2_linear_6570_13142" x1="45.4197" y1="1008.79" x2="-643.221" y2="537.574" gradientUnits="userSpaceOnUse">
<stop stop-color="#EC796B"/>
<stop offset="1" stop-color="#E175B1"/>
</linearGradient>
<linearGradient id="paint3_linear_6570_13142" x1="1665.71" y1="1194.32" x2="1131.69" y2="-3.42746" gradientUnits="userSpaceOnUse">
<stop stop-color="#204683" stop-opacity="0.12"/>
<stop offset="0.338535" stop-color="#6170B5" stop-opacity="0"/>
<stop offset="0.625005" stop-color="#A47DAA" stop-opacity="0.6"/>
<stop offset="0.994812" stop-color="#F99B84" stop-opacity="0.09"/>
</linearGradient>
</defs>
</svg>
