<svg width="28" height="28" viewBox="0 0 28 28" fill="none" xmlns="http://www.w3.org/2000/svg">
    <path
        d="M24.0625 3.0625H3.9375C3.45352 3.0625 3.0625 3.45352 3.0625 3.9375V24.0625C3.0625 24.5465 3.45352 24.9375 3.9375 24.9375H24.0625C24.5465 24.9375 24.9375 24.5465 24.9375 24.0625V3.9375C24.9375 3.45352 24.5465 3.0625 24.0625 3.0625ZM9.55117 21.7027H6.30547V11.2629H9.55117V21.7027ZM7.92969 9.83555C7.55761 9.83555 7.19389 9.72521 6.88452 9.5185C6.57515 9.31178 6.33403 9.01797 6.19164 8.67422C6.04925 8.33047 6.012 7.95221 6.08459 7.58728C6.15717 7.22236 6.33635 6.88715 6.59944 6.62405C6.86254 6.36095 7.19775 6.18178 7.56267 6.10919C7.9276 6.03661 8.30586 6.07386 8.64961 6.21625C8.99336 6.35864 9.28718 6.59976 9.49389 6.90913C9.7006 7.2185 9.81094 7.58222 9.81094 7.9543C9.8082 8.99336 8.96602 9.83555 7.92969 9.83555ZM21.7027 21.7027H18.4598V16.625C18.4598 15.4137 18.4379 13.8578 16.7727 13.8578C15.0855 13.8578 14.8258 15.1758 14.8258 16.5375V21.7027H11.5855V11.2629H14.6973V12.6902H14.741C15.173 11.8699 16.2313 11.0031 17.8117 11.0031C21.0984 11.0031 21.7027 13.166 21.7027 15.977V21.7027Z"
        fill="#CCCCCC" />
</svg>