<svg width="104" height="83" viewBox="0 0 104 83" fill="none" xmlns="http://www.w3.org/2000/svg">
<path fill-rule="evenodd" clip-rule="evenodd" d="M26 2C26 2.74028 25.5978 3.38663 25 3.73244V13C25 14.6569 26.3431 16 28 16H48C49.1256 16 50.1643 16.3719 51 16.9996V13C51 10.2386 53.2386 8 56 8H80C81.6569 8 83 6.65685 83 5V3.73244C82.4022 3.38663 82 2.74028 82 2C82 0.895431 82.8954 0 84 0C85.1046 0 86 0.895431 86 2C86 2.74028 85.5978 3.38663 85 3.73244V5C85 7.76142 82.7614 10 80 10H56C54.3431 10 53 11.3431 53 13V21V22V24V30H51V24V22V21C51 19.3431 49.6569 18 48 18H28C25.2386 18 23 15.7614 23 13V3.73244C22.4022 3.38663 22 2.74028 22 2C22 0.895431 22.8954 0 24 0C25.1046 0 26 0.895431 26 2ZM30 51H28C26.3431 51 25 49.6569 25 48V37C25 34.2386 22.7614 32 20 32H14H12H3.73244C3.38663 31.4022 2.74028 31 2 31C0.895431 31 0 31.8954 0 33C0 34.1046 0.895431 35 2 35C2.74028 35 3.38663 34.5978 3.73244 34H12H14H20C21.6569 34 23 35.3431 23 37V48C23 50.7614 25.2386 53 28 53H30V51ZM6 78V79C6 80.1046 6.89543 81 8 81H96C97.1046 81 98 80.1046 98 79V78H92H12H6ZM12 76H6H4V78V79C4 81.2091 5.79086 83 8 83H96C98.2091 83 100 81.2091 100 79V78V76H98H92V26C92 23.7909 90.2091 22 88 22V24C89.1046 24 90 24.8954 90 26V76H14V36H12V76ZM104 13C104 14.1046 103.105 15 102 15C101.26 15 100.613 14.5978 100.268 14H89C87.3431 14 86 15.3431 86 17V22V24V48C86 50.7614 83.7614 53 81 53H74V51H81C82.6569 51 84 49.6569 84 48V24V22V17C84 14.2386 86.2386 12 89 12H100.268C100.613 11.4022 101.26 11 102 11C103.105 11 104 11.8954 104 13ZM50.5606 32C48.9913 32 47.5981 33.0042 47.1019 34.4929L46.3917 36.6236C46.0022 36.8915 45.5605 37.0746 45.0958 37.161L43.0836 36.1549C41.68 35.4531 39.9848 35.7282 38.8751 36.8379L36.8405 38.8726C35.7308 39.9822 35.4557 41.6774 36.1575 43.081L37.162 45.0901C37.0765 45.555 36.8941 45.9969 36.627 46.3867L34.4929 47.0981C33.0042 47.5943 32 48.9875 32 50.5568V53.4343C32 55.0036 33.0042 56.3968 34.4929 56.893L36.619 57.6017C36.8904 57.9942 37.0754 58.4399 37.1619 58.9091L36.1583 60.9163C35.4565 62.3199 35.7316 64.0151 36.8413 65.1247L38.876 67.1594C39.9856 68.2691 41.6808 68.5442 43.0844 67.8424L45.0924 66.8384C45.5584 66.9245 46.0012 67.1079 46.3917 67.3764L47.1019 69.5071C47.5981 70.9958 48.9913 72 50.5606 72H53.4381C55.0074 72 56.4006 70.9958 56.8969 69.5071L57.6067 67.3776C57.9987 67.1076 58.4437 66.9235 58.9119 66.8376L60.9163 67.8398C62.3199 68.5416 64.0151 68.2665 65.1247 67.1568L67.1594 65.1221C68.2691 64.0125 68.5442 62.3173 67.8424 60.9137L66.8386 58.9062C66.9253 58.4381 67.1102 57.9934 67.381 57.6018L69.5071 56.8931C70.9958 56.3968 72 55.0036 72 53.4343V50.5568C72 48.9875 70.9958 47.5943 69.5071 47.0981L67.373 46.3867C67.1064 45.9977 66.9243 45.5568 66.8385 45.093L67.8432 43.0836C68.545 41.68 68.2699 39.9848 67.1602 38.8751L65.1255 36.8404C64.0159 35.7308 62.3207 35.4557 60.9171 36.1575L58.9085 37.1618C58.4415 37.0756 57.9978 36.8918 57.6067 36.6224L56.8969 34.4929C56.4006 33.0042 55.0074 32 53.4381 32H50.5606ZM53.4381 34C54.1465 34 54.7755 34.4533 54.9995 35.1254L55.8943 37.8099C56.8235 38.6595 58.0218 39.1559 59.2795 39.2123L61.8115 37.9464C62.4451 37.6295 63.2104 37.7537 63.7113 38.2547L65.746 40.2894C66.2469 40.7903 66.3711 41.5555 66.0543 42.1892L64.7877 44.7223C64.8444 45.9761 65.3383 47.1707 66.1835 48.0984L68.8746 48.9954C69.5467 49.2195 70 49.8484 70 50.5568V53.4343C70 54.1427 69.5467 54.7717 68.8746 54.9957L66.1951 55.8888C65.3431 56.8181 64.8449 58.0175 64.7878 59.2767L66.0535 61.8081C66.3703 62.4417 66.2461 63.207 65.7452 63.7079L63.7105 65.7426C63.2096 66.2435 62.4443 66.3677 61.8107 66.0509L59.2838 64.7875C58.0245 64.843 56.8245 65.3396 55.8943 66.1901L54.9995 68.8746C54.7755 69.5467 54.1465 70 53.4381 70H50.5606C49.8522 70 49.2233 69.5467 48.9992 68.8746L48.1038 66.1884C47.1752 65.3401 45.9781 64.8443 44.7216 64.7877L42.19 66.0535C41.5564 66.3703 40.7911 66.2461 40.2902 65.7452L38.2555 63.7105C37.7546 63.2096 37.6304 62.4443 37.9472 61.8107L39.2124 59.2803C39.156 58.0198 38.6577 56.819 37.8049 55.8888L35.1254 54.9957C34.4533 54.7717 34 54.1427 34 53.4343V50.5568C34 49.8484 34.4533 49.2195 35.1254 48.9954L37.8166 48.0984C38.6625 47.1698 39.1565 45.9738 39.2124 44.7187L37.9464 42.1866C37.6296 41.553 37.7537 40.7877 38.2547 40.2868L40.2894 38.2521C40.7903 37.7512 41.5556 37.627 42.1892 37.9438L44.7258 39.2121C45.9808 39.1546 47.1763 38.6589 48.1038 37.8116L48.9992 35.1254C49.2233 34.4533 49.8522 34 50.5606 34H53.4381ZM62 52C62 57.5228 57.5228 62 52 62C46.4772 62 42 57.5228 42 52C42 46.4772 46.4772 42 52 42C57.5228 42 62 46.4772 62 52ZM49 22H16C13.7909 22 12 23.7909 12 26V30H14V26C14 24.8954 14.8954 24 16 24H49V22ZM55 22H82V24H55V22Z" fill="url(#paint0_linear_1848_751132)"/>
<defs>
<linearGradient id="paint0_linear_1848_751132" x1="104" y1="-26.6226" x2="-43.8794" y2="18.6055" gradientUnits="userSpaceOnUse">
<stop stop-color="#81D2FF"/>
<stop offset="0.963542" stop-color="#5B5F68"/>
</linearGradient>
</defs>
</svg>
