<svg width="56" height="57" viewBox="0 0 56 57" fill="none" xmlns="http://www.w3.org/2000/svg">
<g id="online_communities">
<g id="Color">
<path d="M50.04 33.8187V29.6263H52.2831C52.8337 29.6263 53.28 29.18 53.28 28.6294V10.6848C53.28 10.1342 52.8337 9.68784 52.2831 9.68784H24.3692C23.8187 9.68784 23.3723 10.1342 23.3723 10.6848V13.6755H24.8677V14.6725H31.8462C32.9473 14.6725 33.84 15.5651 33.84 16.6663V21.1525H32.8431V16.6663C32.8431 16.1157 32.3968 15.6694 31.8462 15.6694H3.93232C3.38174 15.6694 2.9354 16.1157 2.9354 16.6663V34.6109C2.9354 35.1615 3.38174 35.6078 3.93232 35.6078H6.1754V39.8003L11.0257 36.0278C11.145 35.935 11.2738 35.8566 11.4092 35.7937V36.9925L5.17848 41.8386V36.6048H3.93232C2.83115 36.6048 1.93848 35.7121 1.93848 34.6109V16.6663C1.93848 15.5651 2.83115 14.6725 3.93232 14.6725H19.8831V13.6755H22.3754V10.6848C22.3754 9.58359 23.2681 8.69092 24.3692 8.69092H52.2831C53.3843 8.69092 54.2769 9.58359 54.2769 10.6848V28.6294C54.2769 29.7306 53.3843 30.6232 52.2831 30.6232H51.0369V35.8571L45.3046 31.3986V30.1357L50.04 33.8187Z" fill="#EC796B"/>
<path d="M22.3754 16.6663H23.3723V28.6294C23.3723 29.18 23.8187 29.6263 24.3692 29.6263H31.8462V30.6232H24.3692C23.2681 30.6232 22.3754 29.7306 22.3754 28.6294V16.6663Z" fill="#EC796B"/>
<path d="M21.3785 22.1494H14.4C13.2988 22.1494 12.4062 23.0421 12.4062 24.1432V42.0878C12.4062 43.189 13.2988 44.0817 14.4 44.0817H15.6462V49.3155L22.1054 44.2917C22.2804 44.1556 22.4958 44.0817 22.7175 44.0817H42.3139C43.415 44.0817 44.3077 43.189 44.3077 42.0878V24.1432C44.3077 23.0421 43.415 22.1494 42.3139 22.1494H24.3692V23.1463H42.3139C42.8644 23.1463 43.3108 23.5926 43.3108 24.1432V42.0878C43.3108 42.6384 42.8644 43.0848 42.3139 43.0848H22.7175C22.2741 43.0848 21.8433 43.2326 21.4934 43.5048L16.6431 47.2772V43.0848H14.4C13.8494 43.0848 13.4031 42.6384 13.4031 42.0878V24.1432C13.4031 23.5926 13.8494 23.1463 14.4 23.1463H21.3785V22.1494Z" fill="#EC796B"/>
<path d="M33.84 24.1432V34.6109C33.84 35.7121 32.9473 36.6048 31.8462 36.6048H14.4V35.6078H31.8462C32.3968 35.6078 32.8431 35.1615 32.8431 34.6109V24.1432H33.84Z" fill="#EC796B"/>
<path d="M42.3139 30.6232V29.6263H34.8369V30.6232H42.3139Z" fill="#EC796B"/>
</g>
</g>
</svg>
