<svg width="111" height="111" viewBox="0 0 111 111" fill="none" xmlns="http://www.w3.org/2000/svg">
<path d="M83.6783 78.586C84.4224 77.2972 86.2826 77.2972 87.0267 78.586L94.5608 91.6354C95.3049 92.9242 94.3748 94.5352 92.8865 94.5352L77.8185 94.5352C76.3303 94.5352 75.4001 92.9242 76.1442 91.6354L83.6783 78.586Z" fill="url(#paint0_linear_976_10)"/>
<path d="M68.9198 86.319H77.1361L77.1361 84.3857H68.9198L68.9198 86.319Z" fill="url(#paint1_linear_976_10)"/>
<path d="M84.3857 68.9199L84.3857 75.6862H86.319L86.319 68.9199H84.3857Z" fill="url(#paint2_linear_976_10)"/>
<path fill-rule="evenodd" clip-rule="evenodd" d="M105.651 69.8865C105.651 67.2172 103.487 65.0534 100.818 65.0534L69.8865 65.0534C67.2172 65.0534 65.0534 67.2172 65.0534 69.8865L65.0534 100.818C65.0534 103.488 67.2172 105.651 69.8865 105.651L100.818 105.651C103.487 105.651 105.651 103.487 105.651 100.818L105.651 69.8865ZM100.818 66.9866C102.42 66.9866 103.718 68.2849 103.718 69.8865L103.718 100.818C103.718 102.42 102.42 103.718 100.818 103.718L69.8865 103.718C68.2849 103.718 66.9866 102.42 66.9866 100.818L66.9866 69.8865C66.9866 68.2849 68.2849 66.9866 69.8865 66.9866L100.818 66.9866Z" fill="url(#paint3_linear_976_10)"/>
<path d="M56.8928 28.8874C56.9574 28.7283 56.9897 28.5568 56.9897 28.3729C56.9897 28.1641 56.9574 27.9801 56.8928 27.821C56.8331 27.657 56.7362 27.5078 56.602 27.3736C56.4628 27.2394 56.2813 27.1176 56.0576 27.0082C55.8389 26.8939 55.5729 26.782 55.2597 26.6727C54.7576 26.4937 54.3002 26.3048 53.8876 26.1059C53.475 25.9071 53.1245 25.6759 52.8362 25.4124C52.5429 25.1489 52.3167 24.8432 52.1576 24.4952C51.9985 24.1422 51.919 23.7246 51.919 23.2424C51.919 22.8199 51.991 22.4346 52.1352 22.0866C52.2794 21.7336 52.4832 21.4279 52.7467 21.1694C53.0102 20.9109 53.3283 20.7021 53.7012 20.543C54.074 20.3839 54.4891 20.282 54.9465 20.2372L54.9465 18.634H56.1396L56.1396 20.2522C56.5871 20.3118 56.9897 20.4336 57.3477 20.6176C57.7056 20.8015 58.0113 21.0401 58.2649 21.3334C58.5134 21.6317 58.7048 21.9822 58.8391 22.3849C58.9783 22.7826 59.0479 23.23 59.0479 23.7271H56.9748C56.9748 23.409 56.935 23.1306 56.8555 22.8919C56.776 22.6533 56.6641 22.457 56.5199 22.3028C56.3907 22.1686 56.2341 22.0667 56.0501 21.9971C55.8712 21.9275 55.6723 21.8927 55.4536 21.8927C55.2 21.8927 54.9788 21.9275 54.7899 21.9971C54.606 22.0617 54.4543 22.1537 54.335 22.273C54.2157 22.3973 54.1262 22.5415 54.0666 22.7055C54.0119 22.8696 53.9846 23.0485 53.9846 23.2424C53.9846 23.4363 54.0119 23.6103 54.0666 23.7644C54.1262 23.9136 54.2257 24.0528 54.3649 24.182C54.4991 24.3113 54.6781 24.4355 54.9018 24.5549C55.1255 24.6692 55.4039 24.786 55.737 24.9053C56.2391 25.0943 56.6939 25.2906 57.1016 25.4944C57.5092 25.6933 57.8597 25.9245 58.153 26.1879C58.4414 26.4564 58.6626 26.7671 58.8167 27.1201C58.9758 27.4681 59.0553 27.8807 59.0553 28.3579C59.0553 28.7954 58.9832 29.1906 58.8391 29.5436C58.6949 29.8916 58.4886 30.1924 58.2201 30.4459C57.9517 30.6994 57.6285 30.9033 57.2507 31.0574C56.8729 31.2065 56.4503 31.3035 55.983 31.3482L55.983 32.8098H54.7974L54.7974 31.3482C54.3748 31.3084 53.9647 31.2165 53.567 31.0723C53.1693 30.9231 52.8188 30.7094 52.5155 30.431C52.2073 30.1526 51.9612 29.8021 51.7773 29.3795C51.5933 28.952 51.5014 28.44 51.5014 27.8434H53.5819C53.5819 28.2013 53.6341 28.5021 53.7385 28.7457C53.8429 28.9843 53.9796 29.1732 54.1486 29.3124C54.3127 29.4566 54.5016 29.5585 54.7153 29.6182C54.9291 29.6778 55.1478 29.7077 55.3716 29.7077C55.6549 29.7077 55.901 29.6729 56.1098 29.6033C56.3186 29.5287 56.4901 29.4268 56.6243 29.2975C56.7436 29.1832 56.8331 29.0465 56.8928 28.8874Z" fill="url(#paint4_linear_976_10)"/>
<path fill-rule="evenodd" clip-rule="evenodd" d="M55.3872 14.7892C49.5149 14.7892 44.7544 19.5497 44.7544 25.422C44.7544 31.2944 49.5149 36.0548 55.3872 36.0548C61.2595 36.0548 66.02 31.2944 66.02 25.422C66.02 19.5497 61.2595 14.7892 55.3872 14.7892ZM46.6876 25.422C46.6876 20.6174 50.5826 16.7225 55.3872 16.7225C60.1918 16.7225 64.0868 20.6174 64.0868 25.422C64.0868 30.2267 60.1918 34.1216 55.3872 34.1216C50.5826 34.1216 46.6876 30.2267 46.6876 25.422Z" fill="url(#paint5_linear_976_10)"/>
<path d="M38.9547 26.3886H43.3045L43.3045 24.4554H38.9547L38.9547 26.3886Z" fill="url(#paint6_linear_976_10)"/>
<path d="M67.9532 26.3886H72.303L72.303 24.4554H67.9532L67.9532 26.3886Z" fill="url(#paint7_linear_976_10)"/>
<path fill-rule="evenodd" clip-rule="evenodd" d="M39.9213 5.12305C37.2521 5.12305 35.0882 7.2869 35.0882 9.95614L35.0882 40.8879C35.0882 43.5572 37.2521 45.721 39.9213 45.721L70.8531 45.721C73.5223 45.721 75.6862 43.5572 75.6862 40.8879L75.6862 9.95614C75.6862 7.2869 73.5223 5.12305 70.8531 5.12305L39.9213 5.12305ZM37.0215 9.95614C37.0215 8.35459 38.3198 7.05628 39.9213 7.05628L70.8531 7.05628C72.4546 7.05628 73.7529 8.35459 73.7529 9.95614L73.7529 40.8879C73.7529 42.4895 72.4546 43.7878 70.8531 43.7878L39.9213 43.7878C38.3198 43.7878 37.0215 42.4895 37.0215 40.8879L37.0215 9.95614Z" fill="url(#paint8_linear_976_10)"/>
<path d="M25.422 76.6528C30.2267 76.6528 34.1216 80.5477 34.1216 85.3524C34.1216 90.157 30.2267 94.0519 25.422 94.0519C20.6174 94.0519 16.7225 90.157 16.7225 85.3524C16.7225 80.5477 20.6174 76.6528 25.422 76.6528Z" fill="url(#paint9_linear_976_10)"/>
<path d="M41.3712 86.319H36.0548L36.0548 84.3857H41.3712L41.3712 86.319Z" fill="url(#paint10_linear_976_10)"/>
<path d="M24.4554 75.6862L24.4554 68.9199H26.3886L26.3886 75.6862H24.4554Z" fill="url(#paint11_linear_976_10)"/>
<path fill-rule="evenodd" clip-rule="evenodd" d="M5.12305 69.8865C5.12305 67.2172 7.2869 65.0534 9.95614 65.0534H40.8879C43.5572 65.0534 45.721 67.2172 45.721 69.8865L45.721 100.818C45.721 103.488 43.5572 105.651 40.8879 105.651H9.95614C7.2869 105.651 5.12305 103.488 5.12305 100.818L5.12305 69.8865ZM9.95614 66.9866C8.3546 66.9866 7.05628 68.2849 7.05628 69.8865L7.05628 100.818C7.05628 102.42 8.35459 103.718 9.95614 103.718H40.8879C42.4895 103.718 43.7878 102.42 43.7878 100.818L43.7878 69.8865C43.7878 68.2849 42.4895 66.9866 40.8879 66.9866H9.95614Z" fill="url(#paint12_linear_976_10)"/>
<path d="M26.3887 33.155C26.3887 29.418 29.418 26.3886 33.155 26.3886L33.155 24.4554C28.3503 24.4554 24.4554 28.3503 24.4554 33.155L24.4554 63.1201H26.3886L26.3887 33.155Z" fill="url(#paint13_linear_976_10)"/>
<path d="M77.6194 26.3886C81.3563 26.3886 84.3857 29.418 84.3857 33.155L84.3857 63.1201H86.319L86.319 33.155C86.319 28.3503 82.424 24.4554 77.6194 24.4554L77.6194 26.3886Z" fill="url(#paint14_linear_976_10)"/>
<path d="M60.2203 86.319L47.6542 86.319L47.6542 84.3857L60.2203 84.3857L60.2203 86.319Z" fill="url(#paint15_linear_976_10)"/>
<defs>
<linearGradient id="paint0_linear_976_10" x1="68.8014" y1="120.06" x2="36.3577" y2="-1.95805" gradientUnits="userSpaceOnUse">
<stop stop-color="#E1B0A8"/>
<stop offset="1" stop-color="#D3A2E7"/>
</linearGradient>
<linearGradient id="paint1_linear_976_10" x1="68.8014" y1="120.06" x2="36.3577" y2="-1.95805" gradientUnits="userSpaceOnUse">
<stop stop-color="#E1B0A8"/>
<stop offset="1" stop-color="#D3A2E7"/>
</linearGradient>
<linearGradient id="paint2_linear_976_10" x1="68.8014" y1="120.06" x2="36.3577" y2="-1.95805" gradientUnits="userSpaceOnUse">
<stop stop-color="#E1B0A8"/>
<stop offset="1" stop-color="#D3A2E7"/>
</linearGradient>
<linearGradient id="paint3_linear_976_10" x1="68.8014" y1="120.06" x2="36.3577" y2="-1.95805" gradientUnits="userSpaceOnUse">
<stop stop-color="#E1B0A8"/>
<stop offset="1" stop-color="#D3A2E7"/>
</linearGradient>
<linearGradient id="paint4_linear_976_10" x1="68.8014" y1="120.06" x2="36.3577" y2="-1.95805" gradientUnits="userSpaceOnUse">
<stop stop-color="#E1B0A8"/>
<stop offset="1" stop-color="#D3A2E7"/>
</linearGradient>
<linearGradient id="paint5_linear_976_10" x1="68.8014" y1="120.06" x2="36.3577" y2="-1.95805" gradientUnits="userSpaceOnUse">
<stop stop-color="#E1B0A8"/>
<stop offset="1" stop-color="#D3A2E7"/>
</linearGradient>
<linearGradient id="paint6_linear_976_10" x1="68.8014" y1="120.06" x2="36.3577" y2="-1.95805" gradientUnits="userSpaceOnUse">
<stop stop-color="#E1B0A8"/>
<stop offset="1" stop-color="#D3A2E7"/>
</linearGradient>
<linearGradient id="paint7_linear_976_10" x1="68.8014" y1="120.06" x2="36.3577" y2="-1.95805" gradientUnits="userSpaceOnUse">
<stop stop-color="#E1B0A8"/>
<stop offset="1" stop-color="#D3A2E7"/>
</linearGradient>
<linearGradient id="paint8_linear_976_10" x1="68.8014" y1="120.06" x2="36.3577" y2="-1.95805" gradientUnits="userSpaceOnUse">
<stop stop-color="#E1B0A8"/>
<stop offset="1" stop-color="#D3A2E7"/>
</linearGradient>
<linearGradient id="paint9_linear_976_10" x1="68.8014" y1="120.06" x2="36.3577" y2="-1.95805" gradientUnits="userSpaceOnUse">
<stop stop-color="#E1B0A8"/>
<stop offset="1" stop-color="#D3A2E7"/>
</linearGradient>
<linearGradient id="paint10_linear_976_10" x1="68.8014" y1="120.06" x2="36.3577" y2="-1.95805" gradientUnits="userSpaceOnUse">
<stop stop-color="#E1B0A8"/>
<stop offset="1" stop-color="#D3A2E7"/>
</linearGradient>
<linearGradient id="paint11_linear_976_10" x1="68.8014" y1="120.06" x2="36.3577" y2="-1.95805" gradientUnits="userSpaceOnUse">
<stop stop-color="#E1B0A8"/>
<stop offset="1" stop-color="#D3A2E7"/>
</linearGradient>
<linearGradient id="paint12_linear_976_10" x1="68.8014" y1="120.06" x2="36.3577" y2="-1.95805" gradientUnits="userSpaceOnUse">
<stop stop-color="#E1B0A8"/>
<stop offset="1" stop-color="#D3A2E7"/>
</linearGradient>
<linearGradient id="paint13_linear_976_10" x1="68.8014" y1="120.06" x2="36.3577" y2="-1.95805" gradientUnits="userSpaceOnUse">
<stop stop-color="#E1B0A8"/>
<stop offset="1" stop-color="#D3A2E7"/>
</linearGradient>
<linearGradient id="paint14_linear_976_10" x1="68.8014" y1="120.06" x2="36.3577" y2="-1.95805" gradientUnits="userSpaceOnUse">
<stop stop-color="#E1B0A8"/>
<stop offset="1" stop-color="#D3A2E7"/>
</linearGradient>
<linearGradient id="paint15_linear_976_10" x1="68.8014" y1="120.06" x2="36.3577" y2="-1.95805" gradientUnits="userSpaceOnUse">
<stop stop-color="#E1B0A8"/>
<stop offset="1" stop-color="#D3A2E7"/>
</linearGradient>
</defs>
</svg>
