<svg width="105" height="104" viewBox="0 0 105 104" fill="none" xmlns="http://www.w3.org/2000/svg">
<path fill-rule="evenodd" clip-rule="evenodd" d="M9.70109 0.0146395C4.29359 0.292803 0 4.50011 0 9.64948V17.1546C0 20.1153 2.5549 22.5155 5.70652 22.5155H15.9783V20.3711H5.70652C3.81555 20.3711 2.28261 18.9311 2.28261 17.1546V9.64948C2.28261 5.5045 5.85946 2.14433 10.2717 2.14433C14.684 2.14433 18.2609 5.5045 18.2609 9.64948V94.3505C18.2609 99.4999 22.5545 103.707 27.962 103.985V104H94.7283C100.401 104 105 99.6798 105 94.3505V85.7732C105 82.8125 102.445 80.4124 99.2935 80.4124H42.2283C39.0766 80.4124 36.5217 82.8125 36.5217 85.7732V94.3505C36.5217 98.4955 32.9449 101.856 28.5326 101.856C24.1203 101.856 20.5435 98.4955 20.5435 94.3505V9.64948C20.5435 6.61819 19.0556 3.91335 16.7285 2.14433H83.3152C87.7275 2.14433 91.3043 5.5045 91.3043 9.64948V78.268H93.587V9.64948C93.587 4.32022 88.9881 0 83.3152 0H9.70109V0.0146395ZM34.9894 101.856H94.7283C99.1405 101.856 102.717 98.4955 102.717 94.3505V85.7732C102.717 83.9968 101.184 82.5567 99.2935 82.5567H42.2283C40.3373 82.5567 38.8043 83.9968 38.8043 85.7732V94.3505C38.8043 97.3818 37.3165 100.087 34.9894 101.856Z" fill="url(#paint0_linear_1850_750578)"/>
<path d="M29.6739 53.6082C29.6739 52.424 30.6959 51.4639 31.9565 51.4639H79.8913C81.152 51.4639 82.1739 52.424 82.1739 53.6082C82.1739 54.7925 81.152 55.7526 79.8913 55.7526H31.9565C30.6959 55.7526 29.6739 54.7925 29.6739 53.6082Z" fill="url(#paint1_linear_1850_750578)"/>
<path d="M41.087 60.0412C39.8263 60.0412 38.8043 61.0013 38.8043 62.1856C38.8043 63.3698 39.8263 64.3299 41.087 64.3299H70.7609C72.0215 64.3299 73.0435 63.3698 73.0435 62.1856C73.0435 61.0013 72.0215 60.0412 70.7609 60.0412H41.087Z" fill="url(#paint2_linear_1850_750578)"/>
<path d="M34.2391 70.7629C34.2391 69.5786 35.2611 68.6186 36.5217 68.6186H75.3261C76.5867 68.6186 77.6087 69.5786 77.6087 70.7629C77.6087 71.9472 76.5867 72.9072 75.3261 72.9072H36.5217C35.2611 72.9072 34.2391 71.9472 34.2391 70.7629Z" fill="url(#paint3_linear_1850_750578)"/>
<path fill-rule="evenodd" clip-rule="evenodd" d="M55.9239 12.866C47.0994 12.866 39.9457 19.5863 39.9457 27.8763C39.9457 36.1663 47.0994 42.8866 55.9239 42.8866C64.7485 42.8866 71.9022 36.1663 71.9022 27.8763C71.9022 19.5863 64.7485 12.866 55.9239 12.866ZM63.8439 22.4505L66.265 24.725L54.7827 35.5116L48.4363 29.5497L50.8574 27.2753L54.7827 30.9628L63.8439 22.4505Z" fill="url(#paint4_linear_1850_750578)"/>
<defs>
<linearGradient id="paint0_linear_1850_750578" x1="105" y1="-36.5" x2="24.5797" y2="149.849" gradientUnits="userSpaceOnUse">
<stop stop-color="#B57753"/>
<stop offset="0.972669" stop-color="#F9ABAE"/>
</linearGradient>
<linearGradient id="paint1_linear_1850_750578" x1="105" y1="-36.5" x2="24.5797" y2="149.849" gradientUnits="userSpaceOnUse">
<stop stop-color="#B57753"/>
<stop offset="0.972669" stop-color="#F9ABAE"/>
</linearGradient>
<linearGradient id="paint2_linear_1850_750578" x1="105" y1="-36.5" x2="24.5797" y2="149.849" gradientUnits="userSpaceOnUse">
<stop stop-color="#B57753"/>
<stop offset="0.972669" stop-color="#F9ABAE"/>
</linearGradient>
<linearGradient id="paint3_linear_1850_750578" x1="105" y1="-36.5" x2="24.5797" y2="149.849" gradientUnits="userSpaceOnUse">
<stop stop-color="#B57753"/>
<stop offset="0.972669" stop-color="#F9ABAE"/>
</linearGradient>
<linearGradient id="paint4_linear_1850_750578" x1="105" y1="-36.5" x2="24.5797" y2="149.849" gradientUnits="userSpaceOnUse">
<stop stop-color="#B57753"/>
<stop offset="0.972669" stop-color="#F9ABAE"/>
</linearGradient>
</defs>
</svg>
