<svg width="1440" height="1335" viewBox="0 0 1440 1335" fill="none" xmlns="http://www.w3.org/2000/svg">
<g opacity="0.05">
<mask id="mask0_5021_14429" style="mask-type:alpha" maskUnits="userSpaceOnUse" x="-174" y="0" width="1771" height="1337">
<path d="M-174 226.93L1440.06 0.0888672L1596.06 1110.12L-17.9944 1336.96L-174 226.93Z" fill="black"/>
</mask>
<g mask="url(#mask0_5021_14429)">
<path d="M502.867 36.7501C499.137 -3.29913 454.846 -34.2363 412.66 -12.6667L28.9626 183.377C-17.9869 207.344 -70.2185 216.578 -121.223 211.101C-123.282 210.067 -125.332 209.01 -127.374 207.929L-576.036 -29.8853L-576.037 -29.8857C-607.264 -46.4028 -639.806 -38.2025 -660.742 -18.0093C-685.509 -2.09656 -698.983 30.8077 -682.747 62.5627L-486.593 446.369C-446.967 523.994 -447.726 616.169 -488.548 693.253L-690.258 1073.9L502.867 36.7501ZM502.867 36.7501L615.706 -20.903C679.109 -53.3207 746.556 15.1588 713.223 77.9181L475.41 526.58C427.281 617.463 426.513 726.009 473.234 817.531L704.371 1269.79L703.48 1270.24L704.371 1269.79C736.658 1333.06 668.311 1400.64 605.421 1367.18C605.42 1367.18 605.42 1367.18 605.419 1367.18L156.63 1129.49L156.629 1129.49C65.876 1081.23 -42.6695 1080.47 -134.321 1127.32L-134.776 1126.43L-134.321 1127.32L-586.45 1358.32C-649.854 1390.74 -717.298 1322.26 -683.839 1259.37L502.867 36.7501ZM-633.894 1165.12L-683.838 1259.37L-690.258 1073.9C-714.043 1118.6 -677.893 1166.63 -633.894 1165.12ZM1567.56 378.425L1568.03 377.542L1567.56 378.426L2016.35 616.111C2079.24 649.575 2147.59 581.996 2115.3 518.723L1884.17 66.4653C1837.45 -25.0569 1838.21 -133.603 1886.34 -224.486L2124.16 -673.148C2157.49 -735.907 2090.04 -804.387 2026.64 -771.969L1574.51 -540.961C1482.99 -494.24 1374.44 -495.008 1283.56 -543.137L834.897 -780.951L834.897 -780.952C771.886 -814.28 703.527 -746.971 735.948 -683.562L967.084 -231.305C1013.81 -139.784 1012.91 -31.1082 964.78 59.775L727.096 508.307C693.634 571.193 761.079 639.677 824.484 607.258L1276.61 376.25C1368.26 329.401 1476.81 330.169 1567.56 378.425Z" stroke="url(#paint0_linear_5021_14429)" stroke-width="2"/>
</g>
</g>
<defs>
<linearGradient id="paint0_linear_5021_14429" x1="1641.37" y1="766.934" x2="1648.87" y2="-512.566" gradientUnits="userSpaceOnUse">
<stop stop-color="#204683"/>
<stop offset="0.338535" stop-color="#6170B5" stop-opacity="0.35"/>
<stop offset="0.625005" stop-color="#A47DAA" stop-opacity="0.27"/>
<stop offset="0.89486" stop-color="#F99B84"/>
</linearGradient>
</defs>
</svg>
