<svg width="1512" height="1487" viewBox="0 0 1512 1487" fill="none" xmlns="http://www.w3.org/2000/svg">
<mask id="mask0_663_74404" style="mask-type:alpha" maskUnits="userSpaceOnUse" x="-524" y="0" width="2615" height="1487">
<rect opacity="0.2" x="-523.74" y="345.122" width="2477.79" height="1152.4" transform="rotate(-8 -523.74 345.122)" fill="#8DBABB"/>
</mask>
<g mask="url(#mask0_663_74404)">
<path d="M138.132 993.75L138.131 993.749C61.1576 952.82 -30.9067 952.168 -108.642 991.904L-492.34 1187.95C-546.28 1215.53 -603.657 1157.27 -575.19 1103.77L-373.48 723.124C-332.658 646.04 -331.899 553.865 -371.526 476.239L-567.679 92.433C-595.26 38.4891 -537.105 -18.771 -483.501 9.58143L-483.969 10.4654L-483.5 9.58187L-102.745 211.402C-25.6617 252.223 66.4041 252.875 144.03 213.247L527.727 17.2036C581.665 -10.3746 639.044 47.8813 610.687 101.273C610.687 101.274 610.687 101.274 610.687 101.274L408.868 482.029C368.046 559.112 367.395 651.177 407.022 728.803L603.175 1112.61L603.176 1112.61C630.643 1166.44 572.499 1223.93 518.995 1195.46L138.132 993.75Z" stroke="url(#paint0_linear_663_74404)" stroke-width="2"/>
<path d="M271.698 1159.36L271.696 1159.36C180.943 1111.1 72.3979 1110.34 -19.2532 1157.19L-471.383 1388.19C-534.787 1420.61 -602.232 1352.13 -568.771 1289.24L-331.086 840.711C-282.956 749.828 -282.061 641.153 -328.782 549.631L-559.919 97.3737C-592.339 33.9648 -523.98 -33.3433 -460.97 -0.0154445L-461.437 0.868525L-460.969 -0.0150129L-12.3067 237.799C78.5757 285.928 187.123 286.696 278.645 239.975L730.774 8.96727C794.177 -23.4502 861.623 45.0286 828.291 107.788C828.29 107.789 828.29 107.789 828.29 107.789L590.477 556.451C542.348 647.333 541.58 755.879 588.301 847.402L819.438 1299.66L819.438 1299.66C851.725 1362.93 783.378 1430.51 720.486 1397.05L271.698 1159.36Z" stroke="url(#paint1_linear_663_74404)" stroke-width="2"/>
<path d="M1682.63 408.297L1682.63 408.296C1591.88 360.04 1483.33 359.271 1391.68 406.121L939.551 637.129C876.146 669.548 808.702 601.064 842.163 538.177L1079.85 89.6458C1127.98 -1.23735 1128.87 -109.913 1082.15 -201.434L851.015 -653.692C818.594 -717.101 886.954 -784.409 949.964 -751.081L949.496 -750.197L949.965 -751.08L1398.63 -513.267C1489.51 -465.137 1598.06 -464.369 1689.58 -511.09L2141.71 -742.098C2205.11 -774.516 2272.56 -706.037 2239.22 -643.277C2239.22 -643.277 2239.22 -643.276 2239.22 -643.276L2001.41 -194.615C1953.28 -103.733 1952.51 4.81389 1999.23 96.3361L2230.37 548.594L2230.37 548.594C2262.66 611.866 2194.31 679.446 2131.42 645.982L1682.63 408.297Z" stroke="url(#paint2_linear_663_74404)" stroke-width="2"/>
</g>
<defs>
<linearGradient id="paint0_linear_663_74404" x1="200.837" y1="1323.32" x2="207.202" y2="237.48" gradientUnits="userSpaceOnUse">
<stop stop-color="#204683"/>
<stop offset="0.338535" stop-color="#6170B5" stop-opacity="0.35"/>
<stop offset="0.625005" stop-color="#A47DAA" stop-opacity="0.27"/>
<stop offset="0.89486" stop-color="#F99B84"/>
</linearGradient>
<linearGradient id="paint1_linear_663_74404" x1="345.502" y1="1547.87" x2="353.002" y2="268.371" gradientUnits="userSpaceOnUse">
<stop stop-color="#204683"/>
<stop offset="0.338535" stop-color="#6170B5" stop-opacity="0.35"/>
<stop offset="0.625005" stop-color="#A47DAA" stop-opacity="0.27"/>
<stop offset="0.89486" stop-color="#F99B84"/>
</linearGradient>
<linearGradient id="paint2_linear_663_74404" x1="1756.44" y1="796.805" x2="1763.94" y2="-482.695" gradientUnits="userSpaceOnUse">
<stop stop-color="#204683"/>
<stop offset="0.338535" stop-color="#6170B5" stop-opacity="0.35"/>
<stop offset="0.625005" stop-color="#A47DAA" stop-opacity="0.27"/>
<stop offset="0.89486" stop-color="#F99B84"/>
</linearGradient>
</defs>
</svg>
