<svg width="1440" height="1335" viewBox="0 0 1440 1335" fill="none" xmlns="http://www.w3.org/2000/svg">
<mask id="mask0_6706_15704" style="mask-type:alpha" maskUnits="userSpaceOnUse" x="-175" y="0" width="1772" height="1337">
<path d="M-174.004 226.93L1440.05 0.0888672L1596.06 1110.12L-17.9985 1336.96L-174.004 226.93Z" fill="black"/>
</mask>
<g mask="url(#mask0_6706_15704)">
<g opacity="0.5">
<path fill-rule="evenodd" clip-rule="evenodd" d="M1081.15 340.979L1109.42 254.619C1115.17 237.055 1129.2 223.387 1147.03 217.997L1234.82 191.31C1246.97 187.642 1247.07 170.694 1235.01 166.831L1147.62 138.877C1129.88 133.196 1116.06 119.333 1110.57 101.704L1083.61 14.9215C1079.9 2.94151 1062.76 2.81164 1058.85 14.7592L1030.57 101.119C1024.82 118.651 1010.8 132.319 992.966 137.741L905.179 164.396C893.027 168.097 892.896 185.012 904.982 188.875L992.375 216.829C1010.11 222.51 1023.94 236.406 1029.42 254.035L1056.38 340.784C1060.1 352.797 1077.24 352.927 1081.15 340.979Z" stroke="#EBEBFF" stroke-opacity="0.44"/>
<path fill-rule="evenodd" clip-rule="evenodd" d="M1071.46 207.836L1076.46 192.616C1077.48 189.521 1079.95 187.112 1083.11 186.162L1098.62 181.459C1100.77 180.812 1100.78 177.826 1098.65 177.145L1083.21 172.218C1080.08 171.217 1077.63 168.774 1076.66 165.667L1071.9 150.373C1071.24 148.262 1068.21 148.239 1067.52 150.344L1062.52 165.564C1061.51 168.654 1059.03 171.063 1055.88 172.018L1040.36 176.716C1038.22 177.368 1038.19 180.349 1040.33 181.03L1055.77 185.956C1058.91 186.958 1061.35 189.406 1062.32 192.513L1067.09 207.802C1067.74 209.919 1070.77 209.942 1071.46 207.836Z" stroke="#EBEBFF" stroke-opacity="0.44"/>
<path fill-rule="evenodd" clip-rule="evenodd" d="M1075.04 259.449L1089.09 216.52C1091.95 207.789 1098.92 200.995 1107.79 198.316L1151.43 185.05C1157.47 183.226 1157.52 174.802 1151.53 172.881L1108.08 158.986C1099.27 156.161 1092.39 149.27 1089.67 140.507L1076.26 97.368C1074.42 91.4128 1065.89 91.3483 1063.95 97.2873L1049.89 140.216C1047.04 148.931 1040.07 155.726 1031.2 158.421L987.559 171.671C981.518 173.51 981.452 181.919 987.461 183.839L1030.91 197.735C1039.72 200.559 1046.6 207.466 1049.32 216.23L1062.73 259.352C1064.57 265.323 1073.09 265.388 1075.04 259.449Z" stroke="#EBEBFF" stroke-opacity="0.44"/>
</g>
<path opacity="0.5" fill-rule="evenodd" clip-rule="evenodd" d="M2225.49 -643.133C2037.99 -643.133 1885.99 -491.134 1885.99 -303.633V486.367C1885.99 504.478 1882.99 521.889 1877.46 538.129H1897.5V539.129H1877.12C1866.84 568.677 1848.16 594.295 1823.95 613.129H1892.3C1919.09 577.935 1934.99 534.008 1934.99 486.367V-293.633C1934.99 -459.594 2069.53 -594.133 2235.49 -594.133H2385.49V-593.133H2235.49C2070.08 -593.133 1935.99 -459.042 1935.99 -293.633V486.367C1935.99 533.963 1920.2 577.869 1893.56 613.129H1897.5V614.129H1892.8C1866.13 648.995 1828.82 675.282 1785.71 688.129H1888.7C1947.44 640.554 1984.99 567.846 1984.99 486.367V-293.633C1984.99 -431.98 2097.14 -544.133 2235.49 -544.133H2385.49V-543.133H2235.49C2097.7 -543.133 1985.99 -431.428 1985.99 -293.633V486.367C1985.99 567.717 1948.7 640.358 1890.28 688.129H1897.5V689.129H1889.05C1844.34 725.242 1787.44 746.867 1725.49 746.867C1670.76 746.867 1619.96 729.986 1578.03 701.145C1558.99 706.095 1540.53 712.507 1522.78 720.254C1546.83 741.108 1574.11 758.317 1603.79 771.021C1625.86 765.859 1648.86 763.129 1672.5 763.129H1864.18C1965.48 712.269 2034.99 607.436 2034.99 486.367V-293.633C2034.99 -404.366 2124.76 -494.133 2235.49 -494.133H2385.49V-493.133H2235.49C2125.31 -493.133 2035.99 -403.814 2035.99 -293.633V486.367C2035.99 607.122 1967.06 711.777 1866.4 763.129H1897.5V764.129H1864.42C1822.62 785.077 1775.43 796.867 1725.49 796.867C1682.26 796.867 1641.09 788.032 1603.7 772.07C1581.6 777.265 1560.44 784.908 1540.53 794.698C1575.13 815.5 1613.52 830.642 1654.42 838.843C1660.39 838.37 1666.41 838.129 1672.5 838.129H1800.04C1962.81 803.806 2084.99 659.355 2084.99 486.367V-293.633C2084.99 -376.752 2152.37 -444.133 2235.49 -444.133H2385.49V-443.133H2235.49C2152.93 -443.133 2085.99 -376.199 2085.99 -293.633V486.367C2085.99 658.24 1965.71 802.02 1804.74 838.129H1897.5V839.129H1800.14C1790.96 841.063 1781.64 842.647 1772.21 843.867H2804.49V844.867H1763.69C1751.14 846.189 1738.4 846.867 1725.49 846.867C1712.59 846.867 1699.84 846.189 1687.29 844.867H1621.85C1585.62 853.221 1552.75 870.338 1525.59 893.867H2802.49V894.867H1524.44C1508.26 909.078 1494.13 925.58 1482.58 943.867H2841.49V944.867H1481.95C1472.45 960.077 1464.72 976.507 1459.05 993.867H2809.49V994.867H1458.73C1453.7 1010.52 1450.34 1026.92 1448.86 1043.87H2821.49V1044.87H1448.77C1448.26 1051.05 1448 1057.31 1448 1063.63V2233.63C1448 2532.14 1206.01 2774.13 907.5 2774.13C608.99 2774.13 367 2532.14 367 2233.63V1786.63C367 1662.64 266.489 1562.13 142.5 1562.13H-2848.5V1561.13H142.5C267.041 1561.13 368 1662.09 368 1786.63V2233.63C368 2531.59 609.543 2773.13 907.5 2773.13C1205.46 2773.13 1447 2531.59 1447 2233.63V1063.63C1447 1057.31 1447.26 1051.05 1447.77 1044.87H1373.58C1373.19 1051.07 1373 1057.33 1373 1063.63V2233.63C1373 2490.72 1164.59 2699.13 907.5 2699.13C650.412 2699.13 442 2490.72 442 2233.63V1786.63C442 1621.22 307.91 1487.13 142.5 1487.13H-39.7314C-87.3782 1512.49 -141.765 1526.87 -199.508 1526.87H-359.508V1525.87H-199.508C-142.608 1525.87 -88.9768 1511.87 -41.8711 1487.13H-2845.5V1486.13H-39.9817C-4.38281 1467.14 27.4365 1442 54.0549 1412.13H-23.1648C-74.3818 1452.67 -139.119 1476.87 -209.508 1476.87H-359.508V1475.87H-209.508C-139.808 1475.87 -75.6689 1452.06 -24.7803 1412.13H-124.65C-151.15 1421.67 -179.722 1426.87 -209.508 1426.87H-359.508V1425.87H-209.508C-180.836 1425.87 -153.293 1421.03 -127.651 1412.13H-2904V1411.13H-124.826C-83.186 1396.11 -46.6907 1370.32 -18.6978 1337.13H-89.6716C-123.102 1362.09 -164.579 1376.87 -209.508 1376.87H-359.508V1375.87H-209.508C-165.287 1375.87 -124.426 1361.48 -91.3508 1337.13H-2856V1336.13H-90.0044C-64.2505 1316.83 -43.3159 1291.46 -29.3313 1262.13H-85.8184C-112.997 1301.25 -158.261 1326.87 -209.508 1326.87H-359.508V1325.87H-209.508C-158.851 1325.87 -114.078 1300.67 -87.0378 1262.13H-2874V1261.13H-86.3423C-69.7332 1237.04 -60.0083 1207.84 -60.0083 1176.37V396.367C-60.0083 213.102 76.7429 61.7765 253.769 38.8672H-778.508V37.8672H262.291C274.844 36.5451 287.589 35.8672 300.492 35.8672C313.395 35.8672 326.14 36.5451 338.692 37.8672H1215.49C1298.61 37.8672 1365.99 105.248 1365.99 188.367V486.367C1365.99 531.367 1374.26 574.436 1389.36 614.137C1403.39 605.462 1417.87 597.447 1432.75 590.135C1421.25 557.687 1414.99 522.758 1414.99 486.367V188.367C1414.99 78.1864 1325.67 -11.1328 1215.49 -11.1328H-776.508V-12.1328H1215.49C1326.23 -12.1328 1415.99 77.6342 1415.99 188.367V486.367C1415.99 522.6 1422.22 557.379 1433.66 589.692C1448.33 582.525 1463.39 576.04 1478.8 570.279C1469.85 543.949 1464.99 515.725 1464.99 486.367V188.367C1464.99 50.5721 1353.29 -61.1328 1215.49 -61.1328H-815.508V-62.1328H1215.49C1353.84 -62.1328 1465.99 50.0199 1465.99 188.367V486.367C1465.99 515.603 1470.83 543.709 1479.74 569.93C1494.99 564.266 1510.58 559.31 1526.47 555.101C1519.03 533.561 1514.99 510.436 1514.99 486.367V188.367C1514.99 22.9579 1380.9 -111.133 1215.49 -111.133H-783.508V-112.133H1215.49C1381.45 -112.133 1515.99 22.4056 1515.99 188.367V486.367C1515.99 510.348 1520.02 533.387 1527.44 554.845C1543.3 550.679 1559.46 547.256 1575.89 544.617C1568.85 526.56 1564.99 506.914 1564.99 486.367V188.367C1564.99 -4.65637 1408.52 -161.133 1215.49 -161.133H-795.508V-162.133H1215.49C1409.07 -162.133 1565.99 -5.20862 1565.99 188.367V486.367C1565.99 506.863 1569.86 526.455 1576.9 544.456C1603.15 540.292 1630.07 538.129 1657.5 538.129H1876.4C1881.97 521.898 1884.99 504.485 1884.99 486.367V-303.633C1884.99 -491.686 2037.44 -644.133 2225.49 -644.133H2385.49V-643.133H2225.49ZM1876.06 539.129C1865.67 568.769 1846.78 594.411 1822.31 613.129H1672.5C1658.57 613.129 1644.78 613.762 1631.17 615C1607.26 597.438 1588.42 573.372 1577.28 545.409C1603.41 541.275 1630.2 539.129 1657.5 539.129H1876.06ZM1576.26 545.57C1587.33 573.444 1605.98 597.482 1629.67 615.138C1608.86 617.101 1588.46 620.479 1568.57 625.176C1550.81 605.107 1536.83 581.606 1527.77 555.793C1543.64 551.625 1559.82 548.204 1576.26 545.57ZM1526.8 556.049C1535.84 581.843 1549.77 605.342 1567.47 625.438C1550.2 629.562 1533.31 634.682 1516.88 640.732C1501.26 619.667 1488.77 596.155 1480.06 570.877C1495.31 565.212 1510.9 560.256 1526.8 556.049ZM1479.13 571.226C1487.83 596.5 1500.31 620.014 1515.9 641.093C1500.17 646.927 1484.85 653.614 1470 661.099C1455.15 639.436 1442.99 615.79 1434 590.64C1448.66 583.472 1463.71 576.987 1479.13 571.226ZM1433.09 591.083C1442.1 616.233 1454.26 639.881 1469.1 661.554C1454.44 668.985 1440.24 677.194 1426.55 686.127C1411.77 664.053 1399.38 640.251 1389.72 615.089C1403.74 606.411 1418.21 598.395 1433.09 591.083ZM1388.86 615.625C1398.53 640.789 1410.93 664.594 1425.72 686.674C1365.11 726.432 1314.67 780.411 1279.15 843.867H1190.82C1232.39 749.263 1301.88 669.705 1388.86 615.625ZM1190.38 844.867H1278.59C1269.81 860.642 1261.95 877 1255.08 893.867H1171.93C1177.26 877.143 1183.42 860.793 1190.38 844.867ZM1170.88 893.867C1176.19 877.144 1182.35 860.794 1189.29 844.867H810.492C727.373 844.867 659.992 777.486 659.992 694.367V396.367C659.992 210.706 519.251 57.9168 338.639 38.8672H262.344C81.7319 57.9168 -59.0083 210.706 -59.0083 396.367V1176.37C-59.0083 1207.8 -68.6467 1236.99 -85.1296 1261.13H-28.8579C-16.7664 1235.4 -10.0083 1206.67 -10.0083 1176.37V396.367C-10.0083 224.883 129.007 85.8672 300.492 85.8672C471.976 85.8672 610.992 224.883 610.992 396.367V694.367C610.992 804.548 700.311 893.867 810.492 893.867H1170.88ZM1171.61 894.867H1254.68C1248.25 910.77 1242.7 927.123 1238.09 943.867H1158.78C1162.26 927.221 1166.55 910.873 1171.61 894.867ZM1157.76 943.867C1161.23 927.222 1165.51 910.874 1170.56 894.867H810.492C699.759 894.867 609.992 805.1 609.992 694.367V396.367C609.992 225.435 471.424 86.8672 300.492 86.8672C129.56 86.8672 -9.0083 225.435 -9.0083 396.367V1176.37C-9.0083 1206.66 -15.7263 1235.38 -27.7534 1261.13H25.2249C34.782 1234.67 39.9917 1206.13 39.9917 1176.37V396.367C39.9917 252.497 156.622 135.867 300.492 135.867C444.362 135.867 560.992 252.497 560.992 396.367V694.367C560.992 832.162 672.697 943.867 810.492 943.867H1157.76ZM1158.57 944.867H1237.82C1233.46 960.864 1229.96 977.215 1227.37 993.867H1150.91C1152.68 977.283 1155.25 960.937 1158.57 944.867ZM1149.9 993.867C1151.67 977.284 1154.23 960.937 1157.55 944.867H810.492C672.144 944.867 559.992 832.714 559.992 694.367V396.367C559.992 253.049 443.81 136.867 300.492 136.867C157.174 136.867 40.9917 253.049 40.9917 396.367V1176.37C40.9917 1206.12 35.8057 1234.66 26.2881 1261.13H77.8289C85.7444 1234.25 89.9917 1205.81 89.9917 1176.37V396.367C89.9917 280.111 184.236 185.867 300.492 185.867C416.748 185.867 510.992 280.111 510.992 396.367V694.367C510.992 859.776 645.083 993.867 810.492 993.867H1149.9ZM1150.8 994.867H1227.21C1224.75 1010.94 1223.14 1027.29 1222.43 1043.87H1148.02C1148.17 1027.33 1149.11 1010.99 1150.8 994.867ZM1147.02 1043.87C1147.17 1027.33 1148.11 1010.99 1149.8 994.867H810.492C644.53 994.867 509.992 860.329 509.992 694.367V396.367C509.992 280.664 416.195 186.867 300.492 186.867C184.788 186.867 90.9917 280.664 90.9917 396.367V1176.37C90.9917 1205.8 86.7598 1234.25 78.8713 1261.13H131.733C137.139 1237.07 139.992 1212.05 139.992 1186.37V396.367C139.992 307.725 211.85 235.867 300.492 235.867C389.133 235.867 460.992 307.725 460.992 396.367V694.367C460.992 887.391 617.468 1043.87 810.492 1043.87H1147.02ZM1148.01 1044.87H1222.38C1222.13 1051.09 1222 1057.34 1222 1063.63V2233.63C1222 2407.32 1081.19 2548.13 907.5 2548.13C733.807 2548.13 593 2407.32 593 2233.63V1786.63C593 1537.82 391.305 1336.13 142.5 1336.13H106.374C117.801 1312.83 126.645 1288.04 132.533 1262.13H142.5C432.174 1262.13 667 1496.96 667 1786.63V2233.63C667 2366.45 774.676 2474.13 907.5 2474.13C1040.32 2474.13 1148 2366.45 1148 2233.63V1048.63C1148 1047.37 1148.01 1046.12 1148.01 1044.87ZM132.758 1261.13H142.5C432.726 1261.13 668 1496.4 668 1786.63V2233.63C668 2365.9 775.228 2473.13 907.5 2473.13C1039.77 2473.13 1147 2365.9 1147 2233.63V1048.63C1147 1047.37 1147.01 1046.12 1147.01 1044.87H810.492C616.916 1044.87 459.992 887.943 459.992 694.367V396.367C459.992 308.278 388.581 236.867 300.492 236.867C212.402 236.867 140.992 308.278 140.992 396.367V1186.37C140.992 1212.05 138.148 1237.07 132.758 1261.13ZM131.507 1262.13C125.599 1288.05 116.724 1312.84 105.259 1336.13H45.0505C59.3826 1313.34 70.7393 1288.49 78.5759 1262.13H131.507ZM77.5322 1262.13C69.6636 1288.5 58.2588 1313.35 43.8682 1336.13H-16.5581C1.55371 1314.28 16.0251 1289.3 25.926 1262.13H77.5322ZM24.8611 1262.13C14.9062 1289.33 0.352539 1314.31 -17.8586 1336.13H-88.3438C-62.8218 1316.74 -42.0869 1291.38 -28.2239 1262.13H24.8611ZM-17.3914 1337.13H43.2336C25.2349 1365.37 2.63379 1390.39 -23.5129 1411.13H-121.923C-80.9138 1395.82 -44.9929 1370.08 -17.3914 1337.13ZM-21.9082 1411.13C4.07422 1390.34 26.5303 1365.33 44.4189 1337.13H104.765C91.4207 1364.01 74.6194 1388.87 54.9424 1411.13H-21.9082ZM56.2756 1411.13C75.8672 1388.85 92.5942 1363.99 105.881 1337.13H142.5C390.752 1337.13 592 1538.38 592 1786.63V2233.63C592 2407.87 733.255 2549.13 907.5 2549.13C1081.75 2549.13 1223 2407.87 1223 2233.63V1063.63C1223 1057.34 1223.13 1051.09 1223.38 1044.87H1297.46C1297.16 1051.08 1297 1057.34 1297 1063.63V2233.63C1297 2448.74 1122.62 2623.13 907.5 2623.13C692.385 2623.13 518 2448.74 518 2233.63V1786.63C518 1579.25 349.883 1411.13 142.5 1411.13H56.2756ZM1297.51 1043.87H1223.43C1224.14 1027.29 1225.76 1010.94 1228.23 994.867H1303.28C1300.32 1010.87 1298.37 1027.22 1297.51 1043.87ZM1304.3 994.867C1301.33 1010.87 1299.38 1027.22 1298.51 1043.87H1372.64C1373.73 1027.12 1376.19 1010.75 1379.9 994.867H1304.3ZM1303.47 993.867H1228.38C1230.98 977.214 1234.49 960.863 1238.86 944.867H1316.17C1310.88 960.755 1306.62 977.115 1303.47 993.867ZM1317.22 944.867C1311.92 960.753 1307.64 977.113 1304.49 993.867H1380.14C1384.17 976.934 1389.62 960.555 1396.38 944.867H1317.22ZM1316.5 943.867H1239.13C1243.75 927.122 1249.31 910.768 1255.76 894.867H1336.97C1329.04 910.599 1322.19 926.964 1316.5 943.867ZM1338.09 894.867C1330.14 910.596 1323.26 926.961 1317.56 943.867H1396.81C1404.31 926.634 1413.38 910.241 1423.83 894.867H1338.09ZM1337.48 893.867H1256.16C1263.05 876.997 1270.93 860.64 1279.73 844.867H1367.27C1356.15 860.36 1346.17 876.735 1337.48 893.867ZM1368.5 844.867C1357.34 860.355 1347.33 876.73 1338.6 893.867H1424.51C1436.73 876.057 1450.81 859.63 1466.48 844.867H1368.5ZM1367.99 843.867H1280.29C1315.73 780.759 1365.96 727.073 1426.28 687.505C1440.23 708.218 1456.27 727.404 1474.11 744.758C1432.63 770.622 1396.56 804.354 1367.99 843.867ZM1474.85 745.476C1433.59 771.16 1397.7 804.645 1369.23 843.867H1467.55C1488.59 824.238 1512.44 807.594 1538.45 794.611C1515.43 780.612 1494.1 764.108 1474.85 745.476ZM1474.98 744.214C1457.13 726.865 1441.07 707.678 1427.11 686.957C1440.8 678.023 1455 669.814 1469.67 662.385C1484.33 683.65 1501.57 702.996 1520.94 719.972C1505.01 727.008 1489.66 735.12 1474.98 744.214ZM1521.77 720.698C1505.81 727.725 1490.43 735.834 1475.72 744.932C1495.03 763.587 1516.42 780.098 1539.51 794.084C1559.26 784.32 1580.24 776.663 1602.16 771.407C1572.72 758.652 1545.64 741.469 1521.77 720.698ZM1521.95 719.527C1502.53 702.562 1485.25 683.211 1470.57 661.93C1485.43 654.444 1500.77 647.758 1516.52 641.93C1533.37 664.522 1553.79 684.29 1576.95 700.394C1557.99 705.368 1539.61 711.788 1521.95 719.527ZM1578.23 700.062C1554.94 683.987 1534.42 664.205 1517.5 641.569C1533.98 635.516 1550.9 630.4 1568.22 626.287C1593.93 655.157 1627.46 676.904 1665.49 688.193C1635.41 688.744 1606.19 692.833 1578.23 700.062ZM1668.94 688.145C1629.96 677.244 1595.58 655.354 1569.33 626.025C1589.36 621.32 1609.91 617.955 1630.88 616.03C1657.41 635.421 1690.11 646.867 1725.49 646.867C1762.01 646.867 1795.68 634.671 1822.65 614.129H1891.54C1864.35 649.416 1826.16 675.793 1782.1 688.129H1672.5C1671.31 688.129 1670.12 688.134 1668.94 688.145ZM1778.4 689.129H1672.58C1689.48 693.527 1707.21 695.867 1725.49 695.867C1743.77 695.867 1761.5 693.527 1778.4 689.129ZM1782.24 689.129C1764.19 694.171 1745.15 696.867 1725.49 696.867C1705.85 696.867 1686.84 694.178 1668.81 689.147C1637.94 689.445 1607.97 693.477 1579.32 700.813C1620.95 729.243 1671.28 745.867 1725.49 745.867C1786.76 745.867 1843.07 724.636 1887.46 689.129H1782.24ZM1820.99 614.129C1794.37 634.061 1761.31 645.867 1725.49 645.867C1690.74 645.867 1658.59 634.756 1632.4 615.894C1645.61 614.725 1658.98 614.129 1672.5 614.129H1820.99ZM1539.46 795.224C1573.38 815.693 1610.93 830.736 1650.93 839.147C1641 840.09 1631.25 841.677 1621.73 843.867H1469.02C1489.94 824.479 1513.65 808.044 1539.46 795.224ZM1467.94 844.867H1617.57C1582.4 853.67 1550.51 870.73 1524.07 893.867H1425.73C1438.01 876.041 1452.18 859.612 1467.94 844.867ZM1425.04 894.867H1522.93C1506.87 909.109 1492.86 925.608 1481.4 943.867H1397.9C1405.43 926.627 1414.54 910.233 1425.04 894.867ZM1397.47 944.867H1480.77C1471.32 960.088 1463.64 976.516 1458 993.867H1381.17C1385.21 976.93 1390.69 960.551 1397.47 944.867ZM1380.93 994.867H1457.68C1452.67 1010.53 1449.33 1026.93 1447.85 1043.87H1373.64C1374.73 1027.12 1377.2 1010.75 1380.93 994.867ZM1626.4 843.867C1635.53 841.962 1644.86 840.611 1654.36 839.851C1662.4 841.461 1670.54 842.803 1678.77 843.867H1626.4ZM1658.19 839.578C1662.92 839.28 1667.69 839.129 1672.5 839.129H1795.12C1784.78 841.159 1774.28 842.745 1763.64 843.867H1687.34C1677.5 842.829 1667.78 841.394 1658.19 839.578ZM1372.58 1044.87H1298.46C1298.16 1051.08 1298 1057.34 1298 1063.63V2233.63C1298 2449.3 1123.17 2624.13 907.5 2624.13C691.833 2624.13 517 2449.3 517 2233.63V1786.63C517 1579.8 349.331 1412.13 142.5 1412.13H55.3928C28.9858 1441.92 -2.5647 1467.05 -37.8669 1486.13H142.5C308.462 1486.13 443 1620.67 443 1786.63V2233.63C443 2490.17 650.964 2698.13 907.5 2698.13C1164.04 2698.13 1372 2490.17 1372 2233.63V1063.63C1372 1057.33 1372.19 1051.07 1372.58 1044.87ZM1189.72 843.867C1231.38 748.841 1301.14 668.938 1388.49 614.674C1373.31 574.812 1364.99 531.561 1364.99 486.367V188.367C1364.99 105.801 1298.06 38.8672 1215.49 38.8672H347.214C524.24 61.7765 660.992 213.102 660.992 396.367V694.367C660.992 776.934 727.925 843.867 810.492 843.867H1189.72ZM1605.35 771.685C1626.94 766.741 1649.41 764.129 1672.5 764.129H1862.17C1820.95 784.451 1774.56 795.867 1725.49 795.867C1682.89 795.867 1642.29 787.258 1605.35 771.685ZM1725.49 845.867C1734.58 845.867 1743.59 845.53 1752.51 844.867H1698.47C1707.39 845.53 1716.4 845.867 1725.49 845.867ZM300.492 36.8672C291.403 36.8672 282.393 37.2045 273.474 37.8672H327.51C318.59 37.2045 309.581 36.8672 300.492 36.8672Z" fill="#EBEBFF" fill-opacity="0.44"/>
</g>
</svg>
