<svg width="1440" height="497" viewBox="0 0 1440 497" fill="none" xmlns="http://www.w3.org/2000/svg">
<g clip-path="url(#clip0_6069_1900)">
<path d="M1881.83 -62.3936L-236.813 236.317L-196.371 524.999L1922.28 226.288L1881.83 -62.3936Z" fill="url(#paint0_linear_6069_1900)"/>
<path opacity="0.2" d="M1881.83 -62.3936L-236.813 236.317L-196.371 524.999L1922.28 226.288L1881.83 -62.3936Z" fill="url(#paint1_linear_6069_1900)"/>
<mask id="mask0_6069_1900" style="mask-type:alpha" maskUnits="userSpaceOnUse" x="-237" y="-63" width="2160" height="589">
<path d="M1881.83 -62.3951L-236.813 236.317L-196.371 525L1922.28 226.288L1881.83 -62.3951Z" fill="url(#paint2_linear_6069_1900)"/>
</mask>
<g mask="url(#mask0_6069_1900)">
<path opacity="0.6" d="M180.409 251.003L180.409 515.801C34.9421 515.801 -82.9997 418.513 -82.9998 251.609L180.409 251.003Z" fill="#85B6FF"/>
<g style="mix-blend-mode:soft-light">
<path d="M844 285.112C844 226.579 821.745 168.029 777.218 123.375C688.179 34.0489 543.821 34.0489 454.783 123.375C410.256 168.046 388 226.579 388 285.112L844 285.112Z" fill="#EC796B"/>
</g>
<g style="mix-blend-mode:soft-light" opacity="0.5">
<path d="M-11.3562 199.338L-11.3562 273.345C-11.3562 366.691 64.7932 443.062 157.868 443.062L286.474 443.062C379.549 443.062 455.699 371.27 455.699 283.533C455.699 195.796 527.788 124.004 615.89 124.004C703.991 124.004 776.081 195.796 776.081 283.533C776.081 371.27 852.23 443.062 945.305 443.062L1148.97 443.062" stroke="white" stroke-width="0.89579" stroke-linejoin="round"/>
<path d="M1149 477.012L945.337 477.012C833.364 477.012 742.261 390.224 742.261 283.533C742.261 214.276 685.582 157.938 615.906 157.938C546.23 157.938 489.55 214.276 489.55 283.533C489.55 390.224 398.448 477.012 286.474 477.012L157.868 477.012C45.8943 477.012 -45.2078 385.645 -45.2078 273.345L-45.2078 157.938L22.4788 157.938L22.4788 273.345C22.4788 348.212 83.2026 409.112 157.852 409.112L286.458 409.112C361.107 409.112 421.831 352.774 421.831 283.517C421.831 176.826 508.873 90.0376 615.873 90.0376C722.874 90.0376 809.915 176.826 809.915 283.517C809.915 352.774 870.639 409.112 945.288 409.112L1148.95 409.112L1148.95 476.996L1149 477.012Z" stroke="white" stroke-width="0.89579"/>
<path d="M1149 510.946L945.338 510.946C814.71 510.946 708.427 408.932 708.427 283.517C708.427 232.984 666.928 191.871 615.922 191.871C564.917 191.871 523.418 232.984 523.418 283.517C523.418 408.916 417.135 510.946 286.507 510.946L157.901 510.946C27.2403 510.946 -79.0427 404.353 -79.0427 273.345L-79.0427 172.753L56.3304 172.753L56.3304 273.345C56.3304 329.487 101.873 375.179 157.868 375.179L286.474 375.179C314.195 375.179 340.17 365.072 359.623 346.74C377.919 329.487 388.012 307.033 388.012 283.533C388.012 158.134 490.235 56.104 615.906 56.104C741.577 56.104 843.8 158.118 843.8 283.533C843.8 307.033 853.877 329.487 872.189 346.74C891.642 365.089 917.617 375.179 945.338 375.179L1149 375.179L1149 510.946Z" stroke="white" stroke-width="0.89579" stroke-linejoin="round"/>
<path d="M141.955 374.808H131.433V213.129H141.955V374.808ZM132.46 373.777H140.92V214.168H132.46V373.777Z" fill="white" stroke="white" stroke-width="0.260956" stroke-miterlimit="10"/>
<path d="M308.496 374.808H297.974V213.129H308.496V374.808ZM299.001 373.777H307.461V214.168H299.001V373.777Z" fill="white" stroke="white" stroke-width="0.260956" stroke-miterlimit="10"/>
<path d="M378.592 285.003C339.373 285.003 307.469 252.997 307.469 213.652H308.496C308.496 252.423 339.937 283.973 378.592 283.973C381.732 283.973 384.872 283.762 387.97 283.348V284.387C384.872 284.792 381.732 285.003 378.592 285.003Z" fill="white" stroke="white" stroke-width="0.260956" stroke-miterlimit="10"/>
<path d="M61.3371 285.004C58.8959 285.004 56.4295 284.877 54.0051 284.632L54.1061 283.602C56.4968 283.847 58.9296 283.974 61.3371 283.974C80.1007 283.974 97.7026 276.762 110.902 263.672C124.101 250.591 131.383 233.101 131.433 214.421V214.362C131.433 214.362 131.433 214.353 131.433 214.345V214.244C131.475 213.779 131.762 213.703 131.947 213.703L132.46 214.244V214.421C132.46 214.894 132.46 215.249 132.452 215.51C132.452 215.578 132.452 215.645 132.452 215.721L132.46 215.73H132.452C132.073 234.191 124.716 251.427 111.634 264.398C98.2414 277.682 80.3785 284.995 61.3456 284.995L61.3371 285.004Z" fill="white" stroke="white" stroke-width="0.260956" stroke-miterlimit="10"/>
<path d="M220.361 285.004C179.626 285.004 144.734 253.681 140.929 213.695L141.956 213.593C145.71 253.057 180.148 283.965 220.361 283.965C239.798 283.965 258.393 276.728 272.72 263.579C286.963 250.515 295.802 232.755 297.62 213.568L298.647 213.669C296.804 233.118 287.847 251.114 273.419 264.347C258.898 277.665 240.059 285.004 220.361 285.004Z" fill="white" stroke="white" stroke-width="0.260956" stroke-miterlimit="10"/>
<path d="M388.492 314.248H59.8308L56.6067 305.001H388.593L388.492 314.248ZM60.8577 313.218H387.465L387.381 306.031H58.2566L60.8577 313.218Z" fill="white" stroke="white" stroke-width="0.260956" stroke-miterlimit="10"/>
<path d="M59.2831 284.488H58.2561V305.525H59.2831V284.488Z" fill="white" stroke="white" stroke-width="0.260956" stroke-miterlimit="10"/>
<path d="M67.3388 284.488H66.3118V305.525H67.3388V284.488Z" fill="white" stroke="white" stroke-width="0.260956" stroke-miterlimit="10"/>
<path d="M75.4032 283.197H74.3762V305.517H75.4032V283.197Z" fill="white" stroke="white" stroke-width="0.260956" stroke-miterlimit="10"/>
<path d="M83.4599 281.161H82.4329V305.516H83.4599V281.161Z" fill="white" stroke="white" stroke-width="0.260956" stroke-miterlimit="10"/>
<path d="M91.5155 278.054H90.4885V305.525H91.5155V278.054Z" fill="white" stroke="white" stroke-width="0.260956" stroke-miterlimit="10"/>
<path d="M99.58 273.705H98.553V305.517H99.58V273.705Z" fill="white" stroke="white" stroke-width="0.260956" stroke-miterlimit="10"/>
<path d="M107.636 267.388H106.609V305.525H107.636V267.388Z" fill="white" stroke="white" stroke-width="0.260956" stroke-miterlimit="10"/>
<path d="M115.7 259.88H114.673V305.516H115.7V259.88Z" fill="white" stroke="white" stroke-width="0.260956" stroke-miterlimit="10"/>
<path d="M123.756 248.201H122.729V305.526H123.756V248.201Z" fill="white" stroke="white" stroke-width="0.260956" stroke-miterlimit="10"/>
<path d="M222.06 284.488H221.033V305.525H222.06V284.488Z" fill="white" stroke="white" stroke-width="0.260956" stroke-miterlimit="10"/>
<path d="M230.117 283.939H229.09V305.516H230.117V283.939Z" fill="white" stroke="white" stroke-width="0.260956" stroke-miterlimit="10"/>
<path d="M238.182 282.555H237.155V305.517H238.182V282.555Z" fill="white" stroke="white" stroke-width="0.260956" stroke-miterlimit="10"/>
<path d="M246.237 280.258H245.21V305.517H246.237V280.258Z" fill="white" stroke="white" stroke-width="0.260956" stroke-miterlimit="10"/>
<path d="M254.302 277.049H253.275V305.517H254.302V277.049Z" fill="white" stroke="white" stroke-width="0.260956" stroke-miterlimit="10"/>
<path d="M262.357 272.531H261.33V305.517H262.357V272.531Z" fill="white" stroke="white" stroke-width="0.260956" stroke-miterlimit="10"/>
<path d="M270.422 266.711H269.395V305.516H270.422V266.711Z" fill="white" stroke="white" stroke-width="0.260956" stroke-miterlimit="10"/>
<path d="M278.477 259.052H277.45V305.516H278.477V259.052Z" fill="white" stroke="white" stroke-width="0.260956" stroke-miterlimit="10"/>
<path d="M286.542 248.589H285.515V305.516H286.542V248.589Z" fill="white" stroke="white" stroke-width="0.260956" stroke-miterlimit="10"/>
<path d="M217.263 284.488H216.236V305.525H217.263V284.488Z" fill="white" stroke="white" stroke-width="0.260956" stroke-miterlimit="10"/>
<path d="M209.207 283.619H208.18V305.517H209.207V283.619Z" fill="white" stroke="white" stroke-width="0.260956" stroke-miterlimit="10"/>
<path d="M201.142 281.989H200.115V305.516H201.142V281.989Z" fill="white" stroke="white" stroke-width="0.260956" stroke-miterlimit="10"/>
<path d="M193.086 279.448H192.059V305.517H193.086V279.448Z" fill="white" stroke="white" stroke-width="0.260956" stroke-miterlimit="10"/>
<path d="M185.021 275.9H183.994V305.516H185.021V275.9Z" fill="white" stroke="white" stroke-width="0.260956" stroke-miterlimit="10"/>
<path d="M176.966 271.213H175.939V305.517H176.966V271.213Z" fill="white" stroke="white" stroke-width="0.260956" stroke-miterlimit="10"/>
<path d="M168.901 265.116H167.874V305.516H168.901V265.116Z" fill="white" stroke="white" stroke-width="0.260956" stroke-miterlimit="10"/>
<path d="M160.846 257.127H159.819V305.517H160.846V257.127Z" fill="white" stroke="white" stroke-width="0.260956" stroke-miterlimit="10"/>
<path d="M152.781 246.132H151.754V305.517H152.781V246.132Z" fill="white" stroke="white" stroke-width="0.260956" stroke-miterlimit="10"/>
<path d="M382.516 284.488H381.489V305.525H382.516V284.488Z" fill="white" stroke="white" stroke-width="0.260956" stroke-miterlimit="10"/>
<path d="M374.451 284.328H373.424V305.516H374.451V284.328Z" fill="white" stroke="white" stroke-width="0.260956" stroke-miterlimit="10"/>
<path d="M366.394 283.704H365.367V305.525H366.394V283.704Z" fill="white" stroke="white" stroke-width="0.260956" stroke-miterlimit="10"/>
<path d="M358.33 281.702H357.303V305.517H358.33V281.702Z" fill="white" stroke="white" stroke-width="0.260956" stroke-miterlimit="10"/>
<path d="M350.274 278.662H349.247V305.517H350.274V278.662Z" fill="white" stroke="white" stroke-width="0.260956" stroke-miterlimit="10"/>
<path d="M342.21 274.423H341.183V305.526H342.21V274.423Z" fill="white" stroke="white" stroke-width="0.260956" stroke-miterlimit="10"/>
<path d="M334.154 268.241H333.127V305.525H334.154V268.241Z" fill="white" stroke="white" stroke-width="0.260956" stroke-miterlimit="10"/>
<path d="M326.09 260.446H325.063V305.525H326.09V260.446Z" fill="white" stroke="white" stroke-width="0.260956" stroke-miterlimit="10"/>
<path d="M318.034 249.062H317.007V305.517H318.034V249.062Z" fill="white" stroke="white" stroke-width="0.260956" stroke-miterlimit="10"/>
<path d="M316.459 214.269H290.01V206.863H316.459V214.269ZM291.037 213.239H315.424V207.893H291.037V213.239Z" fill="white" stroke="white" stroke-width="0.260956" stroke-miterlimit="10"/>
<path d="M149.919 214.269H123.47V206.863H149.919V214.269ZM124.497 213.239H148.884V207.893H124.497V213.239Z" fill="white" stroke="white" stroke-width="0.260956" stroke-miterlimit="10"/>
<g opacity="0.5">
<path d="M1280.69 -128.435V-54.4287C1280.69 38.9176 1356.84 115.289 1449.91 115.289L1578.52 115.289C1671.59 115.289 1747.74 43.4966 1747.74 -44.2404C1747.74 -131.977 1819.83 -203.77 1907.93 -203.77C1996.03 -203.77 2068.12 -131.977 2068.12 -44.2404C2068.12 43.4966 2144.27 115.289 2237.35 115.289L2441.01 115.289" stroke="white" stroke-width="0.89579" stroke-linejoin="round"/>
<path d="M2441.04 149.239L2237.38 149.239C2125.41 149.239 2034.3 62.4509 2034.3 -44.2398C2034.3 -113.497 1977.62 -169.835 1907.95 -169.835C1838.27 -169.835 1781.59 -113.497 1781.59 -44.2398C1781.59 62.4509 1690.49 149.239 1578.52 149.239L1449.91 149.239C1337.94 149.239 1246.84 57.8719 1246.84 -54.4281L1246.84 -169.835L1314.52 -169.835L1314.52 -54.4281C1314.52 20.4386 1375.25 81.3393 1449.89 81.3393L1578.5 81.3393C1653.15 81.3393 1713.87 25.0012 1713.87 -44.2562C1713.87 -150.947 1800.92 -237.735 1907.92 -237.735C2014.92 -237.735 2101.96 -150.947 2101.96 -44.2562C2101.96 25.0012 2162.68 81.3393 2237.33 81.3393L2440.99 81.3393L2440.99 149.223L2441.04 149.239Z" stroke="white" stroke-width="0.89579"/>
<path d="M2441.04 183.173L2237.38 183.173C2106.75 183.173 2000.47 81.159 2000.47 -44.2566C2000.47 -94.7892 1958.97 -135.902 1907.97 -135.902C1856.96 -135.902 1815.46 -94.7891 1815.46 -44.2566C1815.46 81.1427 1709.18 183.173 1578.55 183.173L1449.94 183.173C1319.28 183.173 1213 76.58 1213 -54.4285L1213 -155.02L1348.37 -155.02L1348.37 -54.4285C1348.37 1.71335 1393.92 47.4053 1449.91 47.4053L1578.52 47.4053C1606.24 47.4053 1632.21 37.2987 1651.67 18.9664C1669.96 1.71335 1680.06 -20.7401 1680.06 -44.2402C1680.06 -169.639 1782.28 -271.669 1907.95 -271.669C2033.62 -271.669 2135.84 -169.656 2135.84 -44.2402C2135.84 -20.7401 2145.92 1.71333 2164.23 18.9664C2183.68 37.3151 2209.66 47.4052 2237.38 47.4052L2441.04 47.4052L2441.04 183.173Z" stroke="white" stroke-width="0.89579" stroke-linejoin="round"/>
</g>
</g>
</g>
</g>
<defs>
<linearGradient id="paint0_linear_6069_1900" x1="-703.538" y1="584.313" x2="1590.32" y2="214.966" gradientUnits="userSpaceOnUse">
<stop offset="0.241335" stop-color="#204683"/>
<stop offset="0.342977" stop-color="#6170B5"/>
<stop offset="0.524753" stop-color="#A47DAA"/>
<stop offset="0.75699" stop-color="#F99B84"/>
<stop offset="0.97501" stop-color="#F99B84"/>
</linearGradient>
<linearGradient id="paint1_linear_6069_1900" x1="845.657" y1="252.186" x2="866.179" y2="397.737" gradientUnits="userSpaceOnUse">
<stop offset="0.045267" stop-color="#0C0C4F"/>
<stop offset="0.359151" stop-color="#0C0C4F"/>
<stop offset="0.764814" stop-color="#6170B5"/>
<stop offset="0.816251" stop-color="#A47DAA"/>
<stop offset="0.882906" stop-color="#F99B84"/>
</linearGradient>
<linearGradient id="paint2_linear_6069_1900" x1="-236.813" y1="236.317" x2="-172.636" y2="598.004" gradientUnits="userSpaceOnUse">
<stop stop-color="#040E56"/>
<stop offset="0.479166" stop-color="#6B2EB7"/>
<stop offset="1" stop-color="#FA63F8"/>
</linearGradient>
<clipPath id="clip0_6069_1900">
<rect width="1512" height="515" fill="white" transform="translate(-35.9998 -13)"/>
</clipPath>
</defs>
</svg>
