<svg width="131" height="107" viewBox="0 0 131 107" fill="none" xmlns="http://www.w3.org/2000/svg">
<path d="M35.7521 102.804C35.7521 102.227 36.2253 101.755 36.8037 101.755H83.0711C83.6495 101.755 84.1227 102.227 84.1227 102.804V105.951C84.1227 106.528 83.6495 107 83.0711 107H36.8037C36.2253 107 35.7521 106.528 35.7521 105.951V102.804ZM83.6915 57.6856H115.238C115.816 57.6856 116.289 57.2135 116.289 56.6366C116.289 56.0596 115.816 55.5875 115.238 55.5875H83.6915C83.1132 55.5875 82.64 56.0596 82.64 56.6366C82.64 57.2135 83.1132 57.6856 83.6915 57.6856ZM83.6915 61.8817C83.1132 61.8817 82.64 62.3537 82.64 62.9307C82.64 63.5076 83.1132 63.9797 83.6915 63.9797H106.825C107.404 63.9797 107.877 63.5076 107.877 62.9307C107.877 62.3537 107.404 61.8817 106.825 61.8817H83.6915ZM83.6915 70.2738H112.083C112.661 70.2738 113.134 69.8018 113.134 69.2248C113.134 68.6478 112.661 68.1758 112.083 68.1758H83.6915C83.1132 68.1758 82.64 68.6478 82.64 69.2248C82.64 69.8018 83.1132 70.2738 83.6915 70.2738ZM131 24.8932V77.4386C131 80.208 128.739 82.4529 125.974 82.4529H72.3244C69.5484 82.4529 67.2981 80.1975 67.2981 77.4386V5.01431C67.2981 2.2449 69.5589 0 72.3244 0H105.574L131 24.9037V24.8932ZM106.194 21.0119C106.194 22.7742 107.635 24.2009 109.391 24.2009H127.299L106.205 3.54569V21.0224L106.194 21.0119ZM128.897 77.4386V26.3094H109.391C106.468 26.3094 104.091 23.9386 104.091 21.0224V2.09804H72.3139C70.6946 2.09804 69.3907 3.40931 69.3907 5.01431V77.4491C69.3907 79.0646 70.7051 80.3654 72.3139 80.3654H125.963C127.583 80.3654 128.886 79.0541 128.886 77.4491L128.897 77.4386ZM123.797 83.6278H125.9C125.9 86.3973 123.639 88.6422 120.874 88.6422H119.864V92.4291C119.864 95.8279 117.036 98.5974 113.555 98.5974H6.3092C2.82862 98.5974 0 95.8279 0 92.4291V20.8545C0 17.4557 2.82862 14.6863 6.3092 14.6863H62.4821H64.1435L64.3013 83.6383C64.3013 85.2538 65.6157 86.5651 67.2245 86.5651H120.874C122.493 86.5651 123.797 85.2538 123.797 83.6488V83.6278ZM62.0615 25.1765H2.10307V82.8725H62.1982L62.0615 25.1765ZM2.10307 20.8545V23.0784H62.0615V16.7843H6.3092C3.98531 16.7843 2.10307 18.6096 2.10307 20.8545ZM117.772 88.6631H67.235C64.9217 88.6631 62.9973 87.0896 62.4085 84.9811H2.10307V92.4501C2.10307 94.695 3.98531 96.5203 6.3092 96.5203H113.566C115.889 96.5203 117.772 94.695 117.772 92.4501V88.6631ZM83.8703 50.3005L91.3256 42.0552C91.6832 41.6566 91.6832 41.0586 91.3256 40.66L83.9965 32.4042C83.6179 31.9741 82.9449 31.9322 82.5138 32.3098C82.0827 32.6979 82.0406 33.3588 82.4192 33.7889L89.1174 41.3419L82.293 48.8948C81.9039 49.3249 81.9355 49.9858 82.3666 50.3739C82.5664 50.5523 82.8187 50.6467 83.0711 50.6467C83.355 50.6467 83.6495 50.5313 83.8493 50.3005H83.8703ZM116.72 49.7235C116.72 49.1466 116.247 48.6745 115.669 48.6745H92.9345C92.3561 48.6745 91.883 49.1466 91.883 49.7235C91.883 50.3005 92.3561 50.7725 92.9345 50.7725H115.669C116.247 50.7725 116.72 50.3005 116.72 49.7235Z" fill="url(#paint0_linear_2120_11951)"/>
<path fill-rule="evenodd" clip-rule="evenodd" d="M32.308 71.5375C23.1114 71.5375 15.6562 64.1 15.6562 54.9252C15.6562 45.7504 23.1114 38.3129 32.308 38.3129C41.5047 38.3129 48.9604 45.7504 48.9604 54.9252C48.9604 64.1 41.5047 71.5375 32.308 71.5375ZM32.308 72.4235C22.6209 72.4235 14.7681 64.5893 14.7681 54.9252C14.7681 45.2611 22.6209 37.4269 32.308 37.4269C41.9952 37.4269 49.8485 45.2611 49.8485 54.9252C49.8485 64.5893 41.9952 72.4235 32.308 72.4235Z" fill="url(#paint1_linear_2120_11951)"/>
<path fill-rule="evenodd" clip-rule="evenodd" d="M24.5715 50.8028L25.0045 49.4683C25.0925 49.1969 25.3072 48.9857 25.5803 48.9024L26.9245 48.49C27.1106 48.4333 27.1121 48.1714 26.9276 48.1117L25.5894 47.6798C25.3178 47.592 25.1061 47.3778 25.0221 47.1053L24.6092 45.7643C24.5524 45.5792 24.2899 45.5772 24.2301 45.7618L23.7971 47.0963C23.7091 47.3672 23.4943 47.5784 23.2213 47.6622L21.8771 48.0741C21.691 48.1313 21.689 48.3927 21.874 48.4524L23.2122 48.8843C23.4838 48.9721 23.6955 49.1869 23.7795 49.4593L24.1923 50.7998C24.2492 50.9854 24.5117 50.9874 24.5715 50.8028Z" fill="url(#paint2_linear_2120_11951)"/>
<path fill-rule="evenodd" clip-rule="evenodd" d="M39.2091 62.478C39.2091 63.5787 40.104 64.4715 41.2074 64.4715C42.3107 64.4715 43.2046 63.5787 43.2046 62.478C43.2046 61.3773 42.3107 60.4845 41.2074 60.4845C40.104 60.4845 39.2091 61.3773 39.2091 62.478Z" fill="url(#paint3_linear_2120_11951)"/>
<path fill-rule="evenodd" clip-rule="evenodd" d="M45.8181 50.026C45.4231 50.1444 45.1025 50.2977 44.7987 50.4933C44.4995 50.6747 44.2293 50.876 43.9792 51.0818C43.4777 51.5033 43.0532 51.9419 42.6504 52.4004C41.8915 53.2577 41.233 54.1844 40.5713 55.1157L40.463 55.2681C40.2857 55.5015 40.1155 55.7522 39.9449 56.0036C39.7727 56.2574 39.6 56.5118 39.4191 56.7496L38.9012 57.515C38.7138 57.7818 38.5769 57.9728 38.3179 58.3141C37.3798 59.5493 36.2671 60.7375 34.8918 61.7806C33.52 62.8131 31.8228 63.7059 29.8889 64.0773C27.96 64.4642 25.8971 64.2077 24.2556 63.4932C22.5901 62.7942 21.2935 61.7313 20.2552 60.5651C19.2289 59.3783 18.4296 58.0801 17.8988 56.6109C18.0862 56.6404 18.2672 56.6748 18.445 56.7114C18.6028 56.744 18.758 56.7783 18.9129 56.8125C20.0771 57.0699 21.221 57.3228 23.2687 56.7845C25.7878 56.1222 27.3806 53.9795 28.8219 52.0405C28.9115 51.9198 29.001 51.7994 29.0897 51.6808L30.2776 50.1062L31.0466 49.128C31.3433 48.7918 31.642 48.4575 31.9711 48.137C32.6302 47.4983 33.3916 46.9028 34.2412 46.4082C35.0948 45.9116 36.0674 45.5387 37.0713 45.345C39.1034 44.9444 41.1542 45.4143 42.6307 46.335C43.9373 47.1538 44.9509 48.2284 45.5812 49.4952C45.6675 49.6686 45.7464 49.8456 45.8181 50.026ZM29.1104 60.6776C29.9505 60.2624 30.6866 59.7548 31.35 59.2132C32.67 58.1194 33.7007 56.9079 34.5771 55.6736L34.5779 55.6726C35.0177 55.0569 35.418 54.4281 35.7896 53.7967L35.7902 53.7957L36.2354 53.0304L36.2378 53.0264C36.3732 52.804 36.5153 52.5715 36.6609 52.3532C37.2346 51.4967 37.8187 50.7738 38.5463 50.2226C39.2868 49.6412 40.2957 49.23 41.6034 49.1351C42.6305 49.0594 43.7692 49.1565 44.9875 49.3786C44.3938 48.3362 43.5077 47.4378 42.3814 46.7319C41.0015 45.8716 39.0718 45.4281 37.1623 45.8045L37.1605 45.8048C36.2099 45.9882 35.287 46.342 34.4779 46.8128C33.6643 47.2864 32.933 47.8579 32.2986 48.4726C31.9868 48.7763 31.7012 49.0952 31.4078 49.4275L30.6499 50.3916L29.4661 51.9608C29.3788 52.0776 29.29 52.1971 29.2009 52.3171L29.1998 52.3186C28.5262 53.2249 27.7958 54.2079 26.9479 55.0588C25.9806 56.0294 24.8339 56.8574 23.3884 57.2374C21.2222 57.8069 19.9594 57.5265 18.7804 57.2647L18.6837 57.2432C18.894 57.6766 19.1355 58.0865 19.421 58.4606L19.4237 58.4641L19.4262 58.4676C19.8868 59.095 20.4246 59.6763 21.0876 60.1723C21.4366 60.4199 21.7911 60.654 22.1784 60.8505C22.5737 61.0447 22.9969 61.2143 23.4461 61.3416C24.3472 61.5877 25.3616 61.6733 26.3388 61.5415C27.3273 61.4099 28.2769 61.0964 29.1076 60.679L29.109 60.6783L29.1104 60.6776Z" fill="url(#paint4_linear_2120_11951)"/>
<defs>
<linearGradient id="paint0_linear_2120_11951" x1="77.824" y1="108.332" x2="51.6748" y2="3.2016" gradientUnits="userSpaceOnUse">
<stop stop-color="#E1B0A8"/>
<stop offset="1" stop-color="#D3A2E7"/>
</linearGradient>
<linearGradient id="paint1_linear_2120_11951" x1="77.824" y1="108.332" x2="51.6748" y2="3.2016" gradientUnits="userSpaceOnUse">
<stop stop-color="#E1B0A8"/>
<stop offset="1" stop-color="#D3A2E7"/>
</linearGradient>
<linearGradient id="paint2_linear_2120_11951" x1="77.824" y1="108.332" x2="51.6748" y2="3.2016" gradientUnits="userSpaceOnUse">
<stop stop-color="#E1B0A8"/>
<stop offset="1" stop-color="#D3A2E7"/>
</linearGradient>
<linearGradient id="paint3_linear_2120_11951" x1="77.824" y1="108.332" x2="51.6748" y2="3.2016" gradientUnits="userSpaceOnUse">
<stop stop-color="#E1B0A8"/>
<stop offset="1" stop-color="#D3A2E7"/>
</linearGradient>
<linearGradient id="paint4_linear_2120_11951" x1="77.824" y1="108.332" x2="51.6748" y2="3.2016" gradientUnits="userSpaceOnUse">
<stop stop-color="#E1B0A8"/>
<stop offset="1" stop-color="#D3A2E7"/>
</linearGradient>
</defs>
</svg>
