<svg width="115" height="108" viewBox="0 0 115 108" fill="none" xmlns="http://www.w3.org/2000/svg">
<g clip-path="url(#clip0_2120_11929)">
<path d="M41.7788 70.418H11.9371C11.39 70.418 10.9424 70.8656 10.9424 71.4127C10.9424 71.9598 11.39 72.4074 11.9371 72.4074H41.7788C42.3259 72.4074 42.7735 71.9598 42.7735 71.4127C42.7735 70.8656 42.3259 70.418 41.7788 70.418Z" fill="url(#paint0_linear_2120_11929)"/>
<path d="M11.9371 78.3762H33.821C34.3681 78.3762 34.8157 77.9285 34.8157 77.3814C34.8157 76.8343 34.3681 76.3867 33.821 76.3867H11.9371C11.39 76.3867 10.9424 76.8343 10.9424 77.3814C10.9424 77.9285 11.39 78.3762 11.9371 78.3762Z" fill="url(#paint1_linear_2120_11929)"/>
<path d="M38.7946 82.3555H11.9371C11.39 82.3555 10.9424 82.8031 10.9424 83.3502C10.9424 83.8973 11.39 84.3449 11.9371 84.3449H38.7946C39.3417 84.3449 39.7893 83.8973 39.7893 83.3502C39.7893 82.8031 39.3417 82.3555 38.7946 82.3555Z" fill="url(#paint2_linear_2120_11929)"/>
<path d="M59.3832 31.007H80.2263C80.6085 31.007 80.9211 30.5594 80.9211 30.0123C80.9211 29.4652 80.6085 29.0176 80.2263 29.0176H59.3832C59.0011 29.0176 58.6885 29.4652 58.6885 30.0123C58.6885 30.5594 59.0011 31.007 59.3832 31.007Z" fill="url(#paint3_linear_2120_11929)"/>
<path d="M59.4218 36.9758H75.5551C75.9585 36.9758 76.2885 36.5281 76.2885 35.9811C76.2885 35.434 75.9585 34.9863 75.5551 34.9863H59.4218C59.0185 34.9863 58.6885 35.434 58.6885 35.9811C58.6885 36.5281 59.0185 36.9758 59.4218 36.9758Z" fill="url(#paint4_linear_2120_11929)"/>
<path d="M59.6832 42.9445H86.5407C87.0878 42.9445 87.5354 42.4969 87.5354 41.9498C87.5354 41.4027 87.0878 40.9551 86.5407 40.9551H59.6832C59.1361 40.9551 58.6885 41.4027 58.6885 41.9498C58.6885 42.4969 59.1361 42.9445 59.6832 42.9445Z" fill="url(#paint5_linear_2120_11929)"/>
<path d="M59.6334 48.9113H86.5605C87.1076 48.9113 87.5552 48.4637 87.5552 47.9166C87.5552 47.3695 87.1076 46.9219 86.5605 46.9219H59.6334C59.0863 46.9219 58.6387 47.3695 58.6387 47.9166C58.6387 48.4637 59.0863 48.9113 59.6334 48.9113Z" fill="url(#paint6_linear_2120_11929)"/>
<path d="M11.8668 65.8215H41.7085C42.2556 65.8215 42.7032 65.3739 42.7032 64.8268C42.7032 64.2797 42.2556 63.832 41.7085 63.832H11.8668C11.3197 63.832 10.8721 64.2797 10.8721 64.8268C10.8721 65.3739 11.3197 65.8215 11.8668 65.8215Z" fill="url(#paint7_linear_2120_11929)"/>
<path d="M60.9469 66.9766C60.5789 66.5688 59.9522 66.529 59.5444 66.8871C59.1365 67.2551 59.0967 67.8818 59.4548 68.2896L65.7912 75.4516L59.3355 82.6136C58.9674 83.0215 58.9973 83.6482 59.4051 84.0162C59.5941 84.1853 59.8328 84.2748 60.0716 84.2748C60.3401 84.2748 60.6187 84.1654 60.8076 83.9466L67.8602 76.1281C68.1984 75.7501 68.1984 75.1831 67.8602 74.8051L60.927 66.9766H60.9469Z" fill="url(#paint8_linear_2120_11929)"/>
<path d="M85.5863 82.4043H69.3922C68.8451 82.4043 68.3975 82.8519 68.3975 83.399C68.3975 83.9461 68.8451 84.3937 69.3922 84.3937H85.5863C86.1334 84.3937 86.581 83.9461 86.581 83.399C86.581 82.8519 86.1334 82.4043 85.5863 82.4043Z" fill="url(#paint9_linear_2120_11929)"/>
<path d="M18.2033 48.4344C18.4022 48.6532 18.6708 48.7626 18.9394 48.7626C19.1781 48.7626 19.4168 48.683 19.6058 48.504C20.0137 48.1359 20.0435 47.5093 19.6755 47.1014L13.2197 39.9394L19.5561 32.7774C19.9241 32.3696 19.8844 31.733 19.4666 31.3749C19.0587 31.0168 18.4221 31.0466 18.064 31.4644L11.1308 39.2929C10.7926 39.6709 10.8025 40.2478 11.1308 40.6158L18.1834 48.4344H18.2033Z" fill="url(#paint10_linear_2120_11929)"/>
<path d="M22.113 48.9024C22.2523 48.9621 22.3915 48.992 22.5308 48.992C22.9088 48.992 23.2669 48.7831 23.436 48.415L30.9859 32.3105C31.2147 31.8131 31.0058 31.2163 30.5084 30.9875C30.0111 30.7488 29.4143 30.9676 29.1855 31.465L21.6355 47.5695C21.4067 48.0669 21.6156 48.6637 22.113 48.8925V48.9024Z" fill="url(#paint11_linear_2120_11929)"/>
<path d="M33.3234 48.8326C33.5124 49.0017 33.7512 49.0912 33.9899 49.0912C34.2585 49.0912 34.537 48.9818 34.726 48.763L41.7786 40.9445C42.1168 40.5665 42.1168 39.9995 41.7786 39.6215L34.8453 31.793C34.4872 31.3852 33.8506 31.3454 33.4428 31.7035C33.035 32.0715 32.9952 32.6982 33.3533 33.1061L39.6896 40.2681L33.2339 47.4301C32.8659 47.8379 32.8957 48.4646 33.3035 48.8326H33.3234Z" fill="url(#paint12_linear_2120_11929)"/>
<path fill-rule="evenodd" clip-rule="evenodd" d="M101.462 36.6976V103.244C101.462 104.339 100.576 105.234 99.4722 105.234H3.97889C2.88469 105.234 1.98944 104.339 1.98944 103.244V23.209C0.795778 23.8953 0 25.1785 0 26.6507V103.244C0 105.443 1.78055 107.223 3.97889 107.223H99.4722C101.671 107.223 103.451 105.443 103.451 103.244V36.2737C102.801 36.4478 102.137 36.5897 101.462 36.6976Z" fill="url(#paint13_linear_2120_11929)"/>
</g>
<path fill-rule="evenodd" clip-rule="evenodd" d="M98.4078 32.345C89.708 32.345 82.6556 25.2925 82.6556 16.5926C82.6556 7.89265 89.708 0.840139 98.4078 0.840139C107.108 0.840139 114.16 7.89268 114.16 16.5926C114.16 25.2925 107.108 32.345 98.4078 32.345ZM98.4078 33.1851C89.244 33.1851 81.8154 25.7565 81.8154 16.5926C81.8154 7.42865 89.244 0 98.4078 0C107.572 0 115.001 7.42865 115.001 16.5926C115.001 25.7565 107.572 33.1851 98.4078 33.1851Z" fill="url(#paint14_linear_2120_11929)"/>
<path fill-rule="evenodd" clip-rule="evenodd" d="M91.0892 12.6835L91.4988 11.4181C91.5821 11.1608 91.7852 10.9605 92.0435 10.8815L93.3151 10.4905C93.4911 10.4367 93.4926 10.1884 93.318 10.1318L92.0521 9.72215C91.7952 9.6389 91.5949 9.43577 91.5155 9.17745L91.1249 7.90584C91.0712 7.7303 90.8228 7.72839 90.7662 7.90346L90.3566 9.16888C90.2734 9.42577 90.0702 9.62606 89.8119 9.7055L88.5403 10.0961C88.3643 10.1503 88.3624 10.3982 88.5375 10.4548L89.8034 10.8644C90.0603 10.9476 90.2605 11.1512 90.34 11.4096L90.7305 12.6807C90.7843 12.8567 91.0326 12.8586 91.0892 12.6835Z" fill="url(#paint15_linear_2120_11929)"/>
<path fill-rule="evenodd" clip-rule="evenodd" d="M104.936 23.7544C104.936 24.7982 105.783 25.6447 106.826 25.6447C107.87 25.6447 108.716 24.7982 108.716 23.7544C108.716 22.7107 107.87 21.8641 106.826 21.8641C105.783 21.8641 104.936 22.7107 104.936 23.7544Z" fill="url(#paint16_linear_2120_11929)"/>
<path fill-rule="evenodd" clip-rule="evenodd" d="M111.188 11.947C110.814 12.0592 110.511 12.2046 110.224 12.3901C109.941 12.5621 109.685 12.753 109.448 12.9481C108.974 13.3477 108.572 13.7636 108.191 14.1984C107.473 15.0113 106.851 15.8901 106.225 16.7732L106.122 16.9177C105.954 17.139 105.793 17.3768 105.632 17.6151C105.469 17.8558 105.306 18.097 105.135 18.3226L104.645 19.0483C104.467 19.3013 104.338 19.4824 104.093 19.806C103.206 20.9774 102.153 22.104 100.852 23.0931C99.5542 24.0722 97.9488 24.9188 96.1193 25.2709C94.2947 25.6378 92.3432 25.3946 90.7904 24.7171C89.2148 24.0542 87.9883 23.0463 87.0061 21.9405C86.0353 20.8152 85.2791 19.5841 84.777 18.191C84.9543 18.219 85.1255 18.2516 85.2937 18.2863C85.443 18.3172 85.5898 18.3497 85.7363 18.3822C86.8376 18.6263 87.9197 18.8661 89.8568 18.3556C92.2398 17.7276 93.7465 15.6958 95.11 13.8571C95.1948 13.7428 95.2794 13.6286 95.3633 13.5161L96.487 12.023L97.2145 11.0954C97.4952 10.7766 97.7777 10.4596 98.089 10.1557C98.7125 9.55003 99.4328 8.98542 100.237 8.51638C101.044 8.04547 101.964 7.69186 102.914 7.50819C104.836 7.12839 106.776 7.57393 108.173 8.44696C109.409 9.22339 110.368 10.2424 110.964 11.4436C111.045 11.6081 111.12 11.7758 111.188 11.947ZM95.3829 22.0472C96.1776 21.6535 96.874 21.1721 97.5015 20.6586C98.7502 19.6214 99.7252 18.4727 100.554 17.3023L100.555 17.3012C100.971 16.7175 101.35 16.1212 101.701 15.5225L101.702 15.5216L102.123 14.7958L102.125 14.7921C102.253 14.5811 102.388 14.3607 102.525 14.1537C103.068 13.3415 103.621 12.656 104.309 12.1334C105.009 11.5821 105.964 11.1921 107.201 11.1021C108.173 11.0304 109.25 11.1225 110.402 11.333C109.841 10.3446 109.002 9.49272 107.937 8.82337C106.632 8.00756 104.806 7.58705 103 7.94393L102.998 7.94427C102.099 8.11817 101.226 8.45359 100.46 8.90001C99.6907 9.34915 98.999 9.89104 98.3989 10.474C98.1039 10.7619 97.8338 11.0643 97.5562 11.3795L96.8392 12.2936L95.7194 13.7816C95.6368 13.8923 95.5528 14.0056 95.4685 14.1194L95.4674 14.1208C94.8303 14.9803 94.1393 15.9123 93.3372 16.7192C92.4222 17.6396 91.3374 18.4248 89.97 18.7851C87.9209 19.3251 86.7262 19.0592 85.611 18.8109L85.5195 18.7906C85.7184 19.2015 85.9469 19.5902 86.217 19.945L86.2195 19.9483L86.2219 19.9516C86.6576 20.5465 87.1663 21.0977 87.7936 21.5681C88.1237 21.8028 88.4591 22.0248 88.8254 22.2111C89.1993 22.3953 89.5997 22.5561 90.0246 22.6768C90.877 22.9102 91.8366 22.9914 92.761 22.8664C93.6961 22.7416 94.5944 22.4444 95.3802 22.0485L95.3815 22.0478L95.3829 22.0472Z" fill="url(#paint17_linear_2120_11929)"/>
<path fill-rule="evenodd" clip-rule="evenodd" d="M78.7025 13.7207H60.6777C56.7386 13.7207 53.3366 16.0086 51.7252 19.3309C50.1137 16.0086 46.7118 13.7207 42.7727 13.7207H8.95213C6.20669 13.7207 3.97852 15.9489 3.97852 18.6943V99.2668C3.97852 101.465 5.75907 103.246 7.9574 103.246H95.493C97.6913 103.246 99.4719 101.465 99.4719 99.2668V36.9148C99.084 36.9373 98.6931 36.9488 98.2996 36.9488C98.0259 36.9488 97.7534 36.9432 97.4824 36.9323V90.3143C97.4824 91.9656 96.1495 93.2985 94.4982 93.2985H59.683C57.7333 93.2985 55.9727 94.0943 54.7094 95.3874C53.4759 96.6408 52.7199 98.3616 52.7199 100.262V23.6679C52.7199 19.2713 56.281 15.7101 60.6777 15.7101H78.4672C78.5127 15.0373 78.5917 14.3736 78.7025 13.7207ZM95.493 101.256C96.5872 101.256 97.4824 100.361 97.4824 99.2668V98.2721C96.6468 98.8988 95.6223 99.2668 94.4982 99.2668H57.1962C55.9925 99.2668 54.9879 100.122 54.7591 101.256H95.493ZM57.1962 97.2774H94.4982C96.1495 97.2774 97.4824 95.9445 97.4824 94.2932C96.6468 94.9199 95.6223 95.2879 94.4982 95.2879H59.683C57.9024 95.2879 56.3407 96.223 55.4653 97.6255C56.0025 97.4067 56.5794 97.2774 57.1962 97.2774ZM8.95213 15.7101C7.30089 15.7101 5.96796 17.0431 5.96796 18.6943V90.3143C5.96796 91.9656 7.30089 93.2985 8.95213 93.2985H43.7674C45.7171 93.2985 47.4777 94.0943 48.741 95.3874C49.9745 96.6408 50.7305 98.3616 50.7305 100.262V23.6679C50.7305 19.2713 47.1694 15.7101 42.7727 15.7101H8.95213ZM43.7674 95.2879H8.95213C7.82809 95.2879 6.80353 94.9199 5.96796 94.2932C5.96796 95.9445 7.30089 97.2774 8.95213 97.2774H46.2542C46.8709 97.2774 47.4479 97.4067 47.985 97.6255C47.1097 96.223 45.548 95.2879 43.7674 95.2879ZM8.95213 99.2668C7.82809 99.2668 6.80353 98.8988 5.96796 98.2721V99.2668C5.96796 100.361 6.86321 101.256 7.9574 101.256H48.6913C48.4625 100.122 47.4578 99.2668 46.2542 99.2668H8.95213Z" fill="url(#paint18_linear_2120_11929)"/>
<defs>
<linearGradient id="paint0_linear_2120_11929" x1="64.4684" y1="116.076" x2="37.1633" y2="6.5369" gradientUnits="userSpaceOnUse">
<stop stop-color="#E1B0A8"/>
<stop offset="1" stop-color="#D3A2E7"/>
</linearGradient>
<linearGradient id="paint1_linear_2120_11929" x1="64.4684" y1="116.076" x2="37.1633" y2="6.53732" gradientUnits="userSpaceOnUse">
<stop stop-color="#E1B0A8"/>
<stop offset="1" stop-color="#D3A2E7"/>
</linearGradient>
<linearGradient id="paint2_linear_2120_11929" x1="64.4684" y1="116.077" x2="37.1633" y2="6.53774" gradientUnits="userSpaceOnUse">
<stop stop-color="#E1B0A8"/>
<stop offset="1" stop-color="#D3A2E7"/>
</linearGradient>
<linearGradient id="paint3_linear_2120_11929" x1="62.7251" y1="116.076" x2="25.8937" y2="12.8753" gradientUnits="userSpaceOnUse">
<stop stop-color="#E1B0A8"/>
<stop offset="1" stop-color="#D3A2E7"/>
</linearGradient>
<linearGradient id="paint4_linear_2120_11929" x1="62.9491" y1="116.076" x2="27.6461" y2="11.6677" gradientUnits="userSpaceOnUse">
<stop stop-color="#E1B0A8"/>
<stop offset="1" stop-color="#D3A2E7"/>
</linearGradient>
<linearGradient id="paint5_linear_2120_11929" x1="64.4678" y1="116.077" x2="37.1627" y2="6.53769" gradientUnits="userSpaceOnUse">
<stop stop-color="#E1B0A8"/>
<stop offset="1" stop-color="#D3A2E7"/>
</linearGradient>
<linearGradient id="paint6_linear_2120_11929" x1="64.4677" y1="116.075" x2="37.1626" y2="6.53615" gradientUnits="userSpaceOnUse">
<stop stop-color="#E1B0A8"/>
<stop offset="1" stop-color="#D3A2E7"/>
</linearGradient>
<linearGradient id="paint7_linear_2120_11929" x1="64.4677" y1="116.075" x2="37.1626" y2="6.53603" gradientUnits="userSpaceOnUse">
<stop stop-color="#E1B0A8"/>
<stop offset="1" stop-color="#D3A2E7"/>
</linearGradient>
<linearGradient id="paint8_linear_2120_11929" x1="64.4682" y1="116.076" x2="37.1631" y2="6.53729" gradientUnits="userSpaceOnUse">
<stop stop-color="#E1B0A8"/>
<stop offset="1" stop-color="#D3A2E7"/>
</linearGradient>
<linearGradient id="paint9_linear_2120_11929" x1="64.4683" y1="116.076" x2="37.1632" y2="6.53683" gradientUnits="userSpaceOnUse">
<stop stop-color="#E1B0A8"/>
<stop offset="1" stop-color="#D3A2E7"/>
</linearGradient>
<linearGradient id="paint10_linear_2120_11929" x1="64.4678" y1="116.075" x2="37.1627" y2="6.53666" gradientUnits="userSpaceOnUse">
<stop stop-color="#E1B0A8"/>
<stop offset="1" stop-color="#D3A2E7"/>
</linearGradient>
<linearGradient id="paint11_linear_2120_11929" x1="64.4683" y1="116.076" x2="37.1631" y2="6.53722" gradientUnits="userSpaceOnUse">
<stop stop-color="#E1B0A8"/>
<stop offset="1" stop-color="#D3A2E7"/>
</linearGradient>
<linearGradient id="paint12_linear_2120_11929" x1="64.4682" y1="116.076" x2="37.163" y2="6.53702" gradientUnits="userSpaceOnUse">
<stop stop-color="#E1B0A8"/>
<stop offset="1" stop-color="#D3A2E7"/>
</linearGradient>
<linearGradient id="paint13_linear_2120_11929" x1="64.468" y1="116.076" x2="37.1628" y2="6.53744" gradientUnits="userSpaceOnUse">
<stop stop-color="#E1B0A8"/>
<stop offset="1" stop-color="#D3A2E7"/>
</linearGradient>
<linearGradient id="paint14_linear_2120_11929" x1="141.465" y1="67.235" x2="116.617" y2="-32.4262" gradientUnits="userSpaceOnUse">
<stop stop-color="#E1B0A8"/>
<stop offset="1" stop-color="#D3A2E7"/>
</linearGradient>
<linearGradient id="paint15_linear_2120_11929" x1="141.465" y1="67.235" x2="116.617" y2="-32.4262" gradientUnits="userSpaceOnUse">
<stop stop-color="#E1B0A8"/>
<stop offset="1" stop-color="#D3A2E7"/>
</linearGradient>
<linearGradient id="paint16_linear_2120_11929" x1="141.465" y1="67.235" x2="116.617" y2="-32.4262" gradientUnits="userSpaceOnUse">
<stop stop-color="#E1B0A8"/>
<stop offset="1" stop-color="#D3A2E7"/>
</linearGradient>
<linearGradient id="paint17_linear_2120_11929" x1="141.465" y1="67.235" x2="116.617" y2="-32.4262" gradientUnits="userSpaceOnUse">
<stop stop-color="#E1B0A8"/>
<stop offset="1" stop-color="#D3A2E7"/>
</linearGradient>
<linearGradient id="paint18_linear_2120_11929" x1="64.4676" y1="116.078" x2="37.1624" y2="6.53881" gradientUnits="userSpaceOnUse">
<stop stop-color="#E1B0A8"/>
<stop offset="1" stop-color="#D3A2E7"/>
</linearGradient>
<clipPath id="clip0_2120_11929">
<rect width="103.451" height="93.5039" fill="white" transform="translate(0 13.7188)"/>
</clipPath>
</defs>
</svg>
