<svg width="125" height="149" viewBox="0 0 125 149" fill="none" xmlns="http://www.w3.org/2000/svg">
<g opacity="0.8">
<path fill-rule="evenodd" clip-rule="evenodd" d="M41.2051 37.4301H64.7413V39.6784H41.2051V37.4301ZM75.9489 37.4301H88.2774C98.8001 37.4301 107.33 45.9864 107.33 56.5411C107.33 67.0958 98.8001 75.6521 88.2774 75.6521H87.1566V73.4037H88.2774C97.5622 73.4037 105.089 65.854 105.089 56.5411C105.089 47.2281 97.5622 39.6784 88.2774 39.6784H75.9489V37.4301ZM36.722 75.6521C27.4373 75.6521 19.9105 83.2017 19.9105 92.5147C19.9105 101.828 27.4373 109.377 36.722 109.377H48.4901V111.626H36.722C26.1993 111.626 17.6689 103.069 17.6689 92.5147C17.6689 81.96 26.1993 73.4037 36.722 73.4037H40.6447V75.6521H36.722ZM75.9489 75.6521H51.292V73.4037H75.9489V75.6521ZM59.6978 109.377H85.4755V111.626H59.6978V109.377Z" fill="url(#paint0_linear_2116_6396)"/>
<path fill-rule="evenodd" clip-rule="evenodd" d="M40.0843 39.6784C40.0843 34.0906 35.5683 29.5609 29.9974 29.5609C24.4266 29.5609 19.9105 34.0906 19.9105 39.6784C19.9105 45.2662 24.4266 49.796 29.9974 49.796C35.5683 49.796 40.0843 45.2662 40.0843 39.6784ZM29.9974 27.3125C36.8062 27.3125 42.3259 32.8489 42.3259 39.6784C42.3259 46.5079 36.8062 52.0443 29.9974 52.0443C23.1886 52.0443 17.6689 46.5079 17.6689 39.6784C17.6689 32.8489 23.1886 27.3125 29.9974 27.3125Z" fill="url(#paint1_linear_2116_6396)"/>
<path fill-rule="evenodd" clip-rule="evenodd" d="M35.0409 42.5991L29.9974 45.5198C27.7559 46.8179 24.9539 45.1953 24.9539 42.5991L24.9539 36.7577C24.9539 34.1616 27.7559 32.539 29.9974 33.837L35.0409 36.7577C37.2824 38.0558 37.2824 41.301 35.0409 42.5991ZM33.9201 40.652C34.6673 40.2193 34.6673 39.1376 33.9201 38.7049L28.8766 35.7842C28.1295 35.3515 27.1955 35.8923 27.1955 36.7577V42.5991C27.1955 43.4645 28.1295 44.0054 28.8766 43.5727L33.9201 40.652Z" fill="url(#paint2_linear_2116_6396)"/>
<path fill-rule="evenodd" clip-rule="evenodd" d="M58.0166 110.502C58.0166 108.018 56.0095 106.005 53.5336 106.005C51.0576 106.005 49.0505 108.018 49.0505 110.502C49.0505 112.985 51.0576 114.998 53.5336 114.998C56.0095 114.998 58.0166 112.985 58.0166 110.502ZM53.5336 103.756C57.2475 103.756 60.2582 106.776 60.2582 110.502C60.2582 114.227 57.2475 117.247 53.5336 117.247C49.8197 117.247 46.8089 114.227 46.8089 110.502C46.8089 106.776 49.8197 103.756 53.5336 103.756Z" fill="url(#paint3_linear_2116_6396)"/>
<path fill-rule="evenodd" clip-rule="evenodd" d="M50.1713 74.5279C50.1713 72.0444 48.1641 70.0312 45.6882 70.0312C43.2122 70.0312 41.2051 72.0444 41.2051 74.5279C41.2051 77.0113 43.2122 79.0246 45.6882 79.0246C48.1641 79.0246 50.1713 77.0113 50.1713 74.5279ZM45.6882 67.7828C49.4021 67.7828 52.4128 70.8027 52.4128 74.5279C52.4128 78.2531 49.4021 81.2729 45.6882 81.2729C41.9743 81.2729 38.9636 78.2531 38.9636 74.5279C38.9636 70.8027 41.9743 67.7828 45.6882 67.7828Z" fill="url(#paint4_linear_2116_6396)"/>
<path fill-rule="evenodd" clip-rule="evenodd" d="M74.8282 38.5543C74.8282 36.0708 72.821 34.0576 70.3451 34.0576C67.8692 34.0576 65.862 36.0708 65.862 38.5543C65.862 41.0377 67.8692 43.051 70.3451 43.051C72.821 43.051 74.8282 41.0377 74.8282 38.5543ZM70.3451 31.8092C74.059 31.8092 77.0697 34.8291 77.0697 38.5543C77.0697 42.2794 74.059 45.2993 70.3451 45.2993C66.6312 45.2993 63.6205 42.2794 63.6205 38.5543C63.6205 34.8291 66.6312 31.8092 70.3451 31.8092Z" fill="url(#paint5_linear_2116_6396)"/>
<path fill-rule="evenodd" clip-rule="evenodd" d="M86.0359 74.5279C86.0359 72.0444 84.0287 70.0312 81.5528 70.0312C79.0769 70.0312 77.0697 72.0444 77.0697 74.5279C77.0697 77.0113 79.0769 79.0246 81.5528 79.0246C84.0287 79.0246 86.0359 77.0113 86.0359 74.5279ZM81.5528 67.7828C85.2667 67.7828 88.2774 70.8027 88.2774 74.5279C88.2774 78.2531 85.2667 81.2729 81.5528 81.2729C77.8389 81.2729 74.8282 78.2531 74.8282 74.5279C74.8282 70.8027 77.8389 67.7828 81.5528 67.7828Z" fill="url(#paint6_linear_2116_6396)"/>
<path fill-rule="evenodd" clip-rule="evenodd" d="M96.1228 121.743C102.313 121.743 107.33 116.71 107.33 110.502C107.33 104.293 102.313 99.2598 96.1228 99.2598C89.933 99.2598 84.9151 104.293 84.9151 110.502C84.9151 116.71 89.933 121.743 96.1228 121.743ZM94.424 114.636L100.73 108.497L99.6654 107.397L94.424 112.5L92.0693 110.207L91.0049 111.307L94.424 114.636Z" fill="url(#paint7_linear_2116_6396)"/>
</g>
<defs>
<linearGradient id="paint0_linear_2116_6396" x1="74.4639" y1="135.278" x2="42.5969" y2="21.4815" gradientUnits="userSpaceOnUse">
<stop stop-color="#E1B0A8"/>
<stop offset="1" stop-color="#D3A2E7"/>
</linearGradient>
<linearGradient id="paint1_linear_2116_6396" x1="74.4639" y1="135.278" x2="42.5969" y2="21.4815" gradientUnits="userSpaceOnUse">
<stop stop-color="#E1B0A8"/>
<stop offset="1" stop-color="#D3A2E7"/>
</linearGradient>
<linearGradient id="paint2_linear_2116_6396" x1="74.4639" y1="135.278" x2="42.5969" y2="21.4815" gradientUnits="userSpaceOnUse">
<stop stop-color="#E1B0A8"/>
<stop offset="1" stop-color="#D3A2E7"/>
</linearGradient>
<linearGradient id="paint3_linear_2116_6396" x1="74.4639" y1="135.278" x2="42.5969" y2="21.4815" gradientUnits="userSpaceOnUse">
<stop stop-color="#E1B0A8"/>
<stop offset="1" stop-color="#D3A2E7"/>
</linearGradient>
<linearGradient id="paint4_linear_2116_6396" x1="74.4639" y1="135.278" x2="42.5969" y2="21.4815" gradientUnits="userSpaceOnUse">
<stop stop-color="#E1B0A8"/>
<stop offset="1" stop-color="#D3A2E7"/>
</linearGradient>
<linearGradient id="paint5_linear_2116_6396" x1="74.4639" y1="135.278" x2="42.5969" y2="21.4815" gradientUnits="userSpaceOnUse">
<stop stop-color="#E1B0A8"/>
<stop offset="1" stop-color="#D3A2E7"/>
</linearGradient>
<linearGradient id="paint6_linear_2116_6396" x1="74.4639" y1="135.278" x2="42.5969" y2="21.4815" gradientUnits="userSpaceOnUse">
<stop stop-color="#E1B0A8"/>
<stop offset="1" stop-color="#D3A2E7"/>
</linearGradient>
<linearGradient id="paint7_linear_2116_6396" x1="74.4639" y1="135.278" x2="42.5969" y2="21.4815" gradientUnits="userSpaceOnUse">
<stop stop-color="#E1B0A8"/>
<stop offset="1" stop-color="#D3A2E7"/>
</linearGradient>
</defs>
</svg>
