<svg width="336" height="195" viewBox="0 0 336 195" fill="none" xmlns="http://www.w3.org/2000/svg">
<g style="mix-blend-mode:soft-light" clip-path="url(#clip0_4858_14968)">
<path d="M-579.305 150.362H231.787C243.564 150.362 253.11 140.816 253.11 129.039V86.6945C253.11 58.4424 276.023 35.5312 304.274 35.5312C332.524 35.5312 355.437 58.4441 355.437 86.6945V120.488C355.437 132.265 364.983 141.812 376.76 141.812H604.848" stroke="#FBFBFB4D" stroke-width="0.3375"/>
<path d="M-579.305 157.46H231.821C247.518 157.46 260.242 144.737 260.242 129.039V86.695C260.242 62.363 279.96 42.6445 304.292 42.6445C328.624 42.6445 348.343 62.363 348.343 86.695V120.826C348.343 136.524 361.067 149.247 376.764 149.247H604.851" stroke="#FBFBFB4D" stroke-width="0.3375"/>
<path d="M-579.305 164.573H231.787C251.421 164.573 267.321 148.657 267.321 129.039V86.6951C267.321 66.2831 283.863 49.7422 304.274 49.7422C324.684 49.7422 341.228 66.2847 341.228 86.6951V121.166C341.228 140.8 357.145 156.699 376.762 156.699H604.85" stroke="#FBFBFB4D" stroke-width="0.3375"/>
<path d="M-579.305 171.671H231.821C255.358 171.671 274.452 152.594 274.452 129.04V86.6955C274.452 70.2205 287.817 56.8555 304.292 56.8555C320.767 56.8555 334.132 70.2205 334.132 86.6955V121.504C334.132 145.041 353.21 164.135 376.764 164.135H604.851" stroke="#FBFBFB4D" stroke-width="0.3375"/>
<path d="M-579.305 178.782H231.787C259.261 178.782 281.531 156.512 281.531 129.038V86.6933C281.531 74.1215 291.72 63.9492 304.275 63.9492C316.83 63.9492 327.02 74.1383 327.02 86.6933V123.935C327.02 150.633 348.665 172.26 375.344 172.26H604.853" stroke="#FBFBFB4D" stroke-width="0.3375"/>
<path d="M172.871 150.425H169.491V98.6641H172.871V150.425ZM169.822 150.094H172.54V98.9948H169.822V150.094Z" fill="#FBFBFB4D" stroke="#FBFBFB4D" stroke-width="0.027" stroke-miterlimit="10"/>
<path d="M226.36 150.425H222.98V98.6641H226.36V150.425ZM223.311 150.094H226.029V98.9948H223.311V150.094Z" fill="#FBFBFB4D" stroke="#FBFBFB4D" stroke-width="0.027" stroke-miterlimit="10"/>
<path d="M248.872 121.672C236.277 121.672 226.029 111.424 226.029 98.8281H226.359C226.359 111.241 236.459 121.341 248.872 121.341C250.259 121.341 251.648 121.214 253 120.963L253.061 121.289C251.689 121.544 250.28 121.672 248.872 121.672Z" fill="#FBFBFB4D" stroke="#FBFBFB4D" stroke-width="0.027" stroke-miterlimit="10"/>
<path d="M146.978 121.671C146.194 121.671 145.4 121.631 144.623 121.551L144.656 121.222C145.424 121.3 146.204 121.34 146.978 121.34C153.004 121.34 158.658 119.032 162.898 114.842C167.137 110.653 169.476 105.054 169.491 99.0755V99.0198C169.505 98.8713 169.598 98.8477 169.655 98.8477L169.82 99.0198V99.0772C169.82 99.229 169.82 99.3438 169.817 99.4265C169.817 99.4484 169.817 99.4703 169.817 99.4923V99.4957C169.697 105.407 167.333 110.925 163.131 115.078C158.828 119.331 153.092 121.673 146.978 121.673V121.671Z" fill="#FBFBFB4D"/>
<path d="M169.817 99.4923C169.817 99.4703 169.817 99.4484 169.817 99.4265C169.82 99.3438 169.82 99.229 169.82 99.0772V99.0198L169.655 98.8477C169.598 98.8477 169.505 98.8713 169.491 99.0198V99.0755C169.476 105.054 167.137 110.653 162.898 114.842C158.658 119.032 153.004 121.34 146.978 121.34C146.204 121.34 145.424 121.3 144.656 121.222L144.623 121.551C145.4 121.631 146.194 121.671 146.978 121.671V121.673C153.092 121.673 158.828 119.331 163.131 115.078C167.333 110.925 169.697 105.407 169.817 99.4957M169.817 99.4923H169.815M169.817 99.4923V99.4957M169.817 99.4957H169.82" stroke="#FBFBFB4D" stroke-width="0.027" stroke-miterlimit="10"/>
<path d="M198.052 121.671C184.969 121.671 173.762 111.644 172.54 98.843L172.869 98.8109C174.076 111.444 185.136 121.341 198.052 121.341C204.294 121.341 210.266 119.022 214.869 114.813C219.442 110.632 222.282 104.945 222.866 98.8008L223.195 98.8328C222.605 105.058 219.726 110.821 215.092 115.058C210.428 119.322 204.376 121.671 198.052 121.671Z" fill="#FBFBFB4D" stroke="#FBFBFB4D" stroke-width="0.027" stroke-miterlimit="10"/>
<path d="M253.198 131.036H144.476L144.462 128.074H253.198V131.036ZM144.805 130.705H252.867V128.405H144.795L144.805 130.705Z" fill="#FBFBFB4D" stroke="#FBFBFB4D" stroke-width="0.027" stroke-miterlimit="10"/>
<path d="M146.316 121.508H145.986V128.241H146.316V121.508Z" fill="#FBFBFB4D" stroke="#FBFBFB4D" stroke-width="0.027" stroke-miterlimit="10"/>
<path d="M148.905 121.508H148.574V128.241H148.905V121.508Z" fill="#FBFBFB4D" stroke="#FBFBFB4D" stroke-width="0.027" stroke-miterlimit="10"/>
<path d="M151.495 121.094H151.165V128.239H151.495V121.094Z" fill="#FBFBFB4D" stroke="#FBFBFB4D" stroke-width="0.027" stroke-miterlimit="10"/>
<path d="M154.082 120.441H153.752V128.239H154.082V120.441Z" fill="#FBFBFB4D" stroke="#FBFBFB4D" stroke-width="0.027" stroke-miterlimit="10"/>
<path d="M156.673 119.445H156.342V128.239H156.673V119.445Z" fill="#FBFBFB4D" stroke="#FBFBFB4D" stroke-width="0.027" stroke-miterlimit="10"/>
<path d="M159.262 118.055H158.931V128.239H159.262V118.055Z" fill="#FBFBFB4D" stroke="#FBFBFB4D" stroke-width="0.027" stroke-miterlimit="10"/>
<path d="M161.851 116.031H161.52V128.24H161.851V116.031Z" fill="#FBFBFB4D" stroke="#FBFBFB4D" stroke-width="0.027" stroke-miterlimit="10"/>
<path d="M164.439 113.629H164.108V128.239H164.439V113.629Z" fill="#FBFBFB4D" stroke="#FBFBFB4D" stroke-width="0.027" stroke-miterlimit="10"/>
<path d="M167.027 109.887H166.696V128.238H167.027V109.887Z" fill="#FBFBFB4D" stroke="#FBFBFB4D" stroke-width="0.027" stroke-miterlimit="10"/>
<path d="M198.599 121.508H198.268V128.241H198.599V121.508Z" fill="#FBFBFB4D" stroke="#FBFBFB4D" stroke-width="0.027" stroke-miterlimit="10"/>
<path d="M201.187 121.332H200.856V128.241H201.187V121.332Z" fill="#FBFBFB4D" stroke="#FBFBFB4D" stroke-width="0.027" stroke-miterlimit="10"/>
<path d="M203.776 120.891H203.445V128.243H203.776V120.891Z" fill="#FBFBFB4D" stroke="#FBFBFB4D" stroke-width="0.027" stroke-miterlimit="10"/>
<path d="M206.364 120.152H206.034V128.239H206.364V120.152Z" fill="#FBFBFB4D" stroke="#FBFBFB4D" stroke-width="0.027" stroke-miterlimit="10"/>
<path d="M208.953 119.129H208.622V128.241H208.953V119.129Z" fill="#FBFBFB4D" stroke="#FBFBFB4D" stroke-width="0.027" stroke-miterlimit="10"/>
<path d="M211.542 117.68H211.211V128.24H211.542V117.68Z" fill="#FBFBFB4D" stroke="#FBFBFB4D" stroke-width="0.027" stroke-miterlimit="10"/>
<path d="M214.13 115.816H213.799V128.241H214.13V115.816Z" fill="#FBFBFB4D" stroke="#FBFBFB4D" stroke-width="0.027" stroke-miterlimit="10"/>
<path d="M216.719 113.363H216.388V128.239H216.719V113.363Z" fill="#FBFBFB4D" stroke="#FBFBFB4D" stroke-width="0.027" stroke-miterlimit="10"/>
<path d="M219.308 110.012H218.977V128.238H219.308V110.012Z" fill="#FBFBFB4D" stroke="#FBFBFB4D" stroke-width="0.027" stroke-miterlimit="10"/>
<path d="M197.058 121.508H196.727V128.241H197.058V121.508Z" fill="#FBFBFB4D" stroke="#FBFBFB4D" stroke-width="0.027" stroke-miterlimit="10"/>
<path d="M194.47 121.23H194.139V128.24H194.47V121.23Z" fill="#FBFBFB4D" stroke="#FBFBFB4D" stroke-width="0.027" stroke-miterlimit="10"/>
<path d="M191.881 120.707H191.55V128.24H191.881V120.707Z" fill="#FBFBFB4D" stroke="#FBFBFB4D" stroke-width="0.027" stroke-miterlimit="10"/>
<path d="M189.292 119.895H188.961V128.243H189.292V119.895Z" fill="#FBFBFB4D" stroke="#FBFBFB4D" stroke-width="0.027" stroke-miterlimit="10"/>
<path d="M186.703 118.758H186.372V128.238H186.703V118.758Z" fill="#FBFBFB4D" stroke="#FBFBFB4D" stroke-width="0.027" stroke-miterlimit="10"/>
<path d="M184.114 117.258H183.784V128.24H184.114V117.258Z" fill="#FBFBFB4D" stroke="#FBFBFB4D" stroke-width="0.027" stroke-miterlimit="10"/>
<path d="M181.526 115.305H181.195V128.239H181.526V115.305Z" fill="#FBFBFB4D" stroke="#FBFBFB4D" stroke-width="0.027" stroke-miterlimit="10"/>
<path d="M178.937 112.746H178.607V128.239H178.937V112.746Z" fill="#FBFBFB4D" stroke="#FBFBFB4D" stroke-width="0.027" stroke-miterlimit="10"/>
<path d="M176.349 109.227H176.019V128.238H176.349V109.227Z" fill="#FBFBFB4D" stroke="#FBFBFB4D" stroke-width="0.027" stroke-miterlimit="10"/>
<path d="M250.134 121.508H249.803V128.241H250.134V121.508Z" fill="#FBFBFB4D" stroke="#FBFBFB4D" stroke-width="0.027" stroke-miterlimit="10"/>
<path d="M247.545 121.457H247.214V128.239H247.545V121.457Z" fill="#FBFBFB4D" stroke="#FBFBFB4D" stroke-width="0.027" stroke-miterlimit="10"/>
<path d="M244.956 121.254H244.625V128.238H244.956V121.254Z" fill="#FBFBFB4D" stroke="#FBFBFB4D" stroke-width="0.027" stroke-miterlimit="10"/>
<path d="M242.367 120.617H242.036V128.241H242.367V120.617Z" fill="#FBFBFB4D" stroke="#FBFBFB4D" stroke-width="0.027" stroke-miterlimit="10"/>
<path d="M239.779 119.641H239.448V128.238H239.779V119.641Z" fill="#FBFBFB4D" stroke="#FBFBFB4D" stroke-width="0.027" stroke-miterlimit="10"/>
<path d="M237.19 118.281H236.86V128.237H237.19V118.281Z" fill="#FBFBFB4D" stroke="#FBFBFB4D" stroke-width="0.027" stroke-miterlimit="10"/>
<path d="M234.602 116.305H234.271V128.24H234.602V116.305Z" fill="#FBFBFB4D" stroke="#FBFBFB4D" stroke-width="0.027" stroke-miterlimit="10"/>
<path d="M232.012 113.809H231.682V128.24H232.012V113.809Z" fill="#FBFBFB4D" stroke="#FBFBFB4D" stroke-width="0.027" stroke-miterlimit="10"/>
<path d="M229.424 110.168H229.093V128.241H229.424V110.168Z" fill="#FBFBFB4D" stroke="#FBFBFB4D" stroke-width="0.027" stroke-miterlimit="10"/>
<path d="M228.918 99.025H220.423V96.6523H228.918V99.025ZM220.754 98.6942H228.587V96.9848H220.754V98.6942Z" fill="#FBFBFB4D" stroke="#FBFBFB4D" stroke-width="0.027" stroke-miterlimit="10"/>
<path d="M175.43 99.025H166.935V96.6523H175.43V99.025ZM167.266 98.6942H175.099V96.9848H167.266V98.6942Z" fill="#FBFBFB4D" stroke="#FBFBFB4D" stroke-width="0.027" stroke-miterlimit="10"/>
<path d="M144.67 150.422H123.978V98H144.67V150.422ZM124.259 150.14H144.39V98.2818H124.259V150.14Z" fill="#FBFBFB4D" stroke="#FBFBFB4D" stroke-width="0.027" stroke-miterlimit="10"/>
<path d="M139.621 98.2836H129.028V89.625H139.621V98.2836ZM129.31 98.0017H139.339V89.9068H129.31V98.0017Z" fill="#FBFBFB4D" stroke="#FBFBFB4D" stroke-width="0.027" stroke-miterlimit="10"/>
<path d="M136.436 89.9047H132.213V78.9258H136.436V89.9047ZM132.494 89.6228H136.155V79.2076H132.494V89.6228Z" fill="#FBFBFB4D" stroke="#FBFBFB4D" stroke-width="0.027" stroke-miterlimit="10"/>
<path d="M127.44 104.068H127.224C127.056 104.068 126.919 103.931 126.919 103.762V101.887C126.919 101.719 127.056 101.582 127.224 101.582H127.44C127.609 101.582 127.746 101.719 127.746 101.887V103.762C127.746 103.931 127.609 104.068 127.44 104.068ZM127.224 101.866C127.213 101.866 127.201 101.877 127.201 101.889V103.764C127.201 103.776 127.213 103.788 127.224 103.788H127.44C127.452 103.788 127.464 103.776 127.464 103.764V101.889C127.464 101.877 127.452 101.866 127.44 101.866H127.224Z" fill="#FBFBFB4D" stroke="#FBFBFB4D" stroke-width="0.027" stroke-miterlimit="10"/>
<path d="M130.936 104.068H130.72C130.552 104.068 130.415 103.931 130.415 103.762V101.887C130.415 101.719 130.552 101.582 130.72 101.582H130.936C131.105 101.582 131.242 101.719 131.242 101.887V103.762C131.242 103.931 131.105 104.068 130.936 104.068ZM130.72 101.866C130.709 101.866 130.697 101.877 130.697 101.889V103.764C130.697 103.776 130.709 103.788 130.72 103.788H130.936C130.948 103.788 130.96 103.776 130.96 103.764V101.889C130.96 101.877 130.948 101.866 130.936 101.866H130.72Z" fill="#FBFBFB4D" stroke="#FBFBFB4D" stroke-width="0.027" stroke-miterlimit="10"/>
<path d="M134.431 104.068H134.215C134.047 104.068 133.91 103.931 133.91 103.762V101.887C133.91 101.719 134.047 101.582 134.215 101.582H134.431C134.6 101.582 134.737 101.719 134.737 101.887V103.762C134.737 103.931 134.6 104.068 134.431 104.068ZM134.215 101.866C134.204 101.866 134.192 101.877 134.192 101.889V103.764C134.192 103.776 134.204 103.788 134.215 103.788H134.431C134.443 103.788 134.455 103.776 134.455 103.764V101.889C134.455 101.877 134.445 101.866 134.431 101.866H134.215Z" fill="#FBFBFB4D" stroke="#FBFBFB4D" stroke-width="0.027" stroke-miterlimit="10"/>
<path d="M137.928 104.068H137.712C137.543 104.068 137.406 103.931 137.406 103.762V101.887C137.406 101.719 137.543 101.582 137.712 101.582H137.928C138.097 101.582 138.233 101.719 138.233 101.887V103.762C138.233 103.931 138.097 104.068 137.928 104.068ZM137.712 101.866C137.7 101.866 137.688 101.877 137.688 101.889V103.764C137.688 103.776 137.698 103.788 137.712 103.788H137.928C137.94 103.788 137.952 103.776 137.952 103.764V101.889C137.952 101.877 137.941 101.866 137.928 101.866H137.712Z" fill="#FBFBFB4D" stroke="#FBFBFB4D" stroke-width="0.027" stroke-miterlimit="10"/>
<path d="M141.425 104.068H141.209C141.04 104.068 140.903 103.931 140.903 103.762V101.887C140.903 101.719 141.04 101.582 141.209 101.582H141.425C141.594 101.582 141.73 101.719 141.73 101.887V103.762C141.73 103.931 141.594 104.068 141.425 104.068ZM141.209 101.866C141.195 101.866 141.185 101.876 141.185 101.889V103.764C141.185 103.777 141.195 103.788 141.209 103.788H141.425C141.437 103.788 141.448 103.776 141.448 103.764V101.889C141.448 101.877 141.437 101.866 141.425 101.866H141.209Z" fill="#FBFBFB4D" stroke="#FBFBFB4D" stroke-width="0.027" stroke-miterlimit="10"/>
<path d="M127.44 108.365H127.224C127.056 108.365 126.919 108.228 126.919 108.059V106.184C126.919 106.016 127.056 105.879 127.224 105.879H127.44C127.609 105.879 127.746 106.016 127.746 106.184V108.059C127.746 108.228 127.609 108.365 127.44 108.365ZM127.224 106.162C127.211 106.162 127.201 106.173 127.201 106.186V108.061C127.201 108.073 127.213 108.084 127.224 108.084H127.44C127.452 108.084 127.464 108.074 127.464 108.061V106.186C127.464 106.173 127.454 106.162 127.44 106.162H127.224Z" fill="#FBFBFB4D" stroke="#FBFBFB4D" stroke-width="0.027" stroke-miterlimit="10"/>
<path d="M130.936 108.365H130.72C130.552 108.365 130.415 108.228 130.415 108.059V106.184C130.415 106.016 130.552 105.879 130.72 105.879H130.936C131.105 105.879 131.242 106.016 131.242 106.184V108.059C131.242 108.228 131.105 108.365 130.936 108.365ZM130.72 106.162C130.707 106.162 130.697 106.173 130.697 106.186V108.061C130.697 108.073 130.709 108.084 130.72 108.084H130.936C130.948 108.084 130.96 108.074 130.96 108.061V106.186C130.96 106.173 130.95 106.162 130.936 106.162H130.72Z" fill="#FBFBFB4D" stroke="#FBFBFB4D" stroke-width="0.027" stroke-miterlimit="10"/>
<path d="M134.431 108.365H134.215C134.047 108.365 133.91 108.228 133.91 108.059V106.184C133.91 106.016 134.047 105.879 134.215 105.879H134.431C134.6 105.879 134.737 106.016 134.737 106.184V108.059C134.737 108.228 134.6 108.365 134.431 108.365ZM134.215 106.162C134.202 106.162 134.192 106.173 134.192 106.186V108.061C134.192 108.073 134.204 108.084 134.215 108.084H134.431C134.443 108.084 134.455 108.074 134.455 108.061V106.186C134.455 106.173 134.445 106.162 134.431 106.162H134.215Z" fill="#FBFBFB4D" stroke="#FBFBFB4D" stroke-width="0.027" stroke-miterlimit="10"/>
<path d="M137.928 108.365H137.712C137.543 108.365 137.406 108.228 137.406 108.059V106.184C137.406 106.016 137.543 105.879 137.712 105.879H137.928C138.097 105.879 138.233 106.016 138.233 106.184V108.059C138.233 108.228 138.097 108.365 137.928 108.365ZM137.712 106.162C137.7 106.162 137.688 106.173 137.688 106.186V108.061C137.688 108.074 137.698 108.084 137.712 108.084H137.928C137.94 108.084 137.952 108.074 137.952 108.061V106.186C137.952 106.173 137.941 106.162 137.928 106.162H137.712Z" fill="#FBFBFB4D" stroke="#FBFBFB4D" stroke-width="0.027" stroke-miterlimit="10"/>
<path d="M141.425 108.365H141.209C141.04 108.365 140.903 108.228 140.903 108.059V106.184C140.903 106.016 141.04 105.879 141.209 105.879H141.425C141.594 105.879 141.73 106.016 141.73 106.184V108.059C141.73 108.228 141.594 108.365 141.425 108.365ZM141.209 106.162C141.195 106.162 141.185 106.173 141.185 106.186V108.061C141.185 108.074 141.195 108.084 141.209 108.084H141.425C141.437 108.084 141.448 108.074 141.448 108.061V106.186C141.448 106.173 141.438 106.162 141.425 106.162H141.209Z" fill="#FBFBFB4D" stroke="#FBFBFB4D" stroke-width="0.027" stroke-miterlimit="10"/>
<path d="M127.414 112.478H127.198C127.029 112.478 126.892 112.341 126.892 112.172V110.298C126.892 110.129 127.029 109.992 127.198 109.992H127.414C127.582 109.992 127.719 110.129 127.719 110.298V112.172C127.719 112.341 127.582 112.478 127.414 112.478ZM127.198 110.276C127.186 110.276 127.174 110.286 127.174 110.299V112.174C127.174 112.188 127.184 112.198 127.198 112.198H127.414C127.427 112.198 127.437 112.188 127.437 112.174V110.299C127.437 110.287 127.425 110.276 127.414 110.276H127.198Z" fill="#FBFBFB4D" stroke="#FBFBFB4D" stroke-width="0.027" stroke-miterlimit="10"/>
<path d="M130.907 112.478H130.691C130.523 112.478 130.386 112.341 130.386 112.172V110.298C130.386 110.129 130.523 109.992 130.691 109.992H130.907C131.076 109.992 131.213 110.129 131.213 110.298V112.172C131.213 112.341 131.076 112.478 130.907 112.478ZM130.691 110.276C130.68 110.276 130.668 110.286 130.668 110.299V112.174C130.668 112.188 130.678 112.198 130.691 112.198H130.907C130.921 112.198 130.931 112.188 130.931 112.174V110.299C130.931 110.287 130.919 110.276 130.907 110.276H130.691Z" fill="#FBFBFB4D" stroke="#FBFBFB4D" stroke-width="0.027" stroke-miterlimit="10"/>
<path d="M134.404 112.478H134.188C134.019 112.478 133.883 112.341 133.883 112.172V110.298C133.883 110.129 134.019 109.992 134.188 109.992H134.404C134.573 109.992 134.71 110.129 134.71 110.298V112.172C134.71 112.341 134.573 112.478 134.404 112.478ZM134.188 110.276C134.176 110.276 134.165 110.286 134.165 110.299V112.174C134.165 112.188 134.175 112.198 134.188 112.198H134.404C134.418 112.198 134.428 112.188 134.428 112.174V110.299C134.428 110.287 134.416 110.276 134.404 110.276H134.188Z" fill="#FBFBFB4D" stroke="#FBFBFB4D" stroke-width="0.027" stroke-miterlimit="10"/>
<path d="M137.901 112.478H137.685C137.516 112.478 137.379 112.341 137.379 112.172V110.298C137.379 110.129 137.516 109.992 137.685 109.992H137.901C138.07 109.992 138.206 110.129 138.206 110.298V112.172C138.206 112.341 138.07 112.478 137.901 112.478ZM137.685 110.276C137.673 110.276 137.661 110.286 137.661 110.299V112.174C137.661 112.188 137.671 112.198 137.685 112.198H137.901C137.914 112.198 137.924 112.188 137.924 112.174V110.299C137.924 110.287 137.914 110.276 137.901 110.276H137.685Z" fill="#FBFBFB4D" stroke="#FBFBFB4D" stroke-width="0.027" stroke-miterlimit="10"/>
<path d="M141.398 112.478H141.182C141.013 112.478 140.876 112.341 140.876 112.172V110.298C140.876 110.129 141.013 109.992 141.182 109.992H141.398C141.566 109.992 141.703 110.129 141.703 110.298V112.172C141.703 112.341 141.566 112.478 141.398 112.478ZM141.182 110.276C141.168 110.276 141.158 110.286 141.158 110.299V112.174C141.158 112.188 141.168 112.198 141.182 112.198H141.398C141.409 112.198 141.421 112.188 141.421 112.174V110.299C141.421 110.287 141.411 110.276 141.398 110.276H141.182Z" fill="#FBFBFB4D" stroke="#FBFBFB4D" stroke-width="0.027" stroke-miterlimit="10"/>
<path d="M127.414 116.775H127.198C127.029 116.775 126.892 116.638 126.892 116.469V114.594C126.892 114.426 127.029 114.289 127.198 114.289H127.414C127.582 114.289 127.719 114.426 127.719 114.594V116.469C127.719 116.638 127.582 116.775 127.414 116.775ZM127.198 114.573C127.186 114.573 127.174 114.583 127.174 114.596V116.471C127.174 116.483 127.184 116.495 127.198 116.495H127.414C127.425 116.495 127.437 116.483 127.437 116.471V114.596C127.437 114.584 127.427 114.573 127.414 114.573H127.198Z" fill="#FBFBFB4D" stroke="#FBFBFB4D" stroke-width="0.027" stroke-miterlimit="10"/>
<path d="M130.907 116.775H130.691C130.523 116.775 130.386 116.638 130.386 116.469V114.594C130.386 114.426 130.523 114.289 130.691 114.289H130.907C131.076 114.289 131.213 114.426 131.213 114.594V116.469C131.213 116.638 131.076 116.775 130.907 116.775ZM130.691 114.573C130.678 114.573 130.668 114.583 130.668 114.596V116.471C130.668 116.483 130.68 116.495 130.691 116.495H130.907C130.919 116.495 130.931 116.483 130.931 116.471V114.596C130.931 114.584 130.921 114.573 130.907 114.573H130.691Z" fill="#FBFBFB4D" stroke="#FBFBFB4D" stroke-width="0.027" stroke-miterlimit="10"/>
<path d="M134.404 116.775H134.188C134.019 116.775 133.883 116.638 133.883 116.469V114.594C133.883 114.426 134.019 114.289 134.188 114.289H134.404C134.573 114.289 134.71 114.426 134.71 114.594V116.469C134.71 116.638 134.573 116.775 134.404 116.775ZM134.188 114.573C134.175 114.573 134.165 114.583 134.165 114.596V116.471C134.165 116.483 134.176 116.495 134.188 116.495H134.404C134.416 116.495 134.428 116.483 134.428 116.471V114.596C134.428 114.584 134.418 114.573 134.404 114.573H134.188Z" fill="#FBFBFB4D" stroke="#FBFBFB4D" stroke-width="0.027" stroke-miterlimit="10"/>
<path d="M137.901 116.775H137.685C137.516 116.775 137.379 116.638 137.379 116.469V114.594C137.379 114.426 137.516 114.289 137.685 114.289H137.901C138.07 114.289 138.206 114.426 138.206 114.594V116.469C138.206 116.638 138.07 116.775 137.901 116.775ZM137.685 114.573C137.671 114.573 137.661 114.583 137.661 114.596V116.471C137.661 116.483 137.673 116.495 137.685 116.495H137.901C137.913 116.495 137.924 116.483 137.924 116.471V114.596C137.924 114.584 137.914 114.573 137.901 114.573H137.685Z" fill="#FBFBFB4D" stroke="#FBFBFB4D" stroke-width="0.027" stroke-miterlimit="10"/>
<path d="M141.398 116.775H141.182C141.013 116.775 140.876 116.638 140.876 116.469V114.594C140.876 114.426 141.013 114.289 141.182 114.289H141.398C141.566 114.289 141.703 114.426 141.703 114.594V116.469C141.703 116.638 141.566 116.775 141.398 116.775ZM141.182 114.573C141.168 114.573 141.158 114.583 141.158 114.596V116.471C141.158 116.483 141.168 116.495 141.182 116.495H141.398C141.409 116.495 141.421 116.483 141.421 116.471V114.596C141.421 114.584 141.411 114.573 141.398 114.573H141.182Z" fill="#FBFBFB4D" stroke="#FBFBFB4D" stroke-width="0.027" stroke-miterlimit="10"/>
<path d="M127.414 121.14H127.198C127.029 121.14 126.892 121.004 126.892 120.835V118.962C126.892 118.793 127.029 118.656 127.198 118.656H127.414C127.582 118.656 127.719 118.793 127.719 118.962V120.835C127.719 121.004 127.582 121.14 127.414 121.14ZM127.198 118.938C127.186 118.938 127.174 118.948 127.174 118.962V120.835C127.174 120.848 127.184 120.858 127.198 120.858H127.414C127.425 120.858 127.437 120.847 127.437 120.835V118.962C127.437 118.95 127.425 118.938 127.414 118.938H127.198Z" fill="#FBFBFB4D" stroke="#FBFBFB4D" stroke-width="0.027" stroke-miterlimit="10"/>
<path d="M130.907 121.14H130.691C130.523 121.14 130.386 121.004 130.386 120.835V118.962C130.386 118.793 130.523 118.656 130.691 118.656H130.907C131.076 118.656 131.213 118.793 131.213 118.962V120.835C131.213 121.004 131.076 121.14 130.907 121.14ZM130.691 118.938C130.68 118.938 130.668 118.95 130.668 118.962V120.835C130.668 120.847 130.68 120.858 130.691 120.858H130.907C130.919 120.858 130.931 120.847 130.931 120.835V118.962C130.931 118.95 130.919 118.938 130.907 118.938H130.691Z" fill="#FBFBFB4D" stroke="#FBFBFB4D" stroke-width="0.027" stroke-miterlimit="10"/>
<path d="M134.404 121.14H134.188C134.019 121.14 133.883 121.004 133.883 120.835V118.962C133.883 118.793 134.019 118.656 134.188 118.656H134.404C134.573 118.656 134.71 118.793 134.71 118.962V120.835C134.71 121.004 134.573 121.14 134.404 121.14ZM134.188 118.938C134.176 118.938 134.165 118.95 134.165 118.962V120.835C134.165 120.847 134.176 120.858 134.188 120.858H134.404C134.416 120.858 134.428 120.847 134.428 120.835V118.962C134.428 118.95 134.416 118.938 134.404 118.938H134.188Z" fill="#FBFBFB4D" stroke="#FBFBFB4D" stroke-width="0.027" stroke-miterlimit="10"/>
<path d="M137.901 121.14H137.685C137.516 121.14 137.379 121.004 137.379 120.835V118.962C137.379 118.793 137.516 118.656 137.685 118.656H137.901C138.07 118.656 138.206 118.793 138.206 118.962V120.835C138.206 121.004 138.07 121.14 137.901 121.14ZM137.685 118.938C137.673 118.938 137.661 118.95 137.661 118.962V120.835C137.661 120.847 137.673 120.858 137.685 120.858H137.901C137.914 120.858 137.924 120.848 137.924 120.835V118.962C137.924 118.948 137.914 118.938 137.901 118.938H137.685Z" fill="#FBFBFB4D" stroke="#FBFBFB4D" stroke-width="0.027" stroke-miterlimit="10"/>
<path d="M141.398 121.14H141.182C141.013 121.14 140.876 121.004 140.876 120.835V118.962C140.876 118.793 141.013 118.656 141.182 118.656H141.398C141.566 118.656 141.703 118.793 141.703 118.962V120.835C141.703 121.004 141.566 121.14 141.398 121.14ZM141.182 118.938C141.168 118.938 141.158 118.948 141.158 118.962V120.835C141.158 120.848 141.168 120.858 141.182 120.858H141.398C141.409 120.858 141.421 120.848 141.421 120.835V118.962C141.421 118.948 141.411 118.938 141.398 118.938H141.182Z" fill="#FBFBFB4D" stroke="#FBFBFB4D" stroke-width="0.027" stroke-miterlimit="10"/>
<path d="M127.414 125.435H127.198C127.029 125.435 126.892 125.298 126.892 125.129V123.255C126.892 123.086 127.029 122.949 127.198 122.949H127.414C127.582 122.949 127.719 123.086 127.719 123.255V125.129C127.719 125.298 127.582 125.435 127.414 125.435ZM127.184 123.265C127.172 123.265 127.162 123.275 127.162 123.287V125.02C127.162 125.032 127.172 125.042 127.184 125.042H127.385C127.397 125.042 127.407 125.032 127.407 125.02V123.287C127.407 123.275 127.397 123.265 127.385 123.265H127.184Z" fill="#FBFBFB4D" stroke="#FBFBFB4D" stroke-width="0.027" stroke-miterlimit="10"/>
<path d="M130.907 125.435H130.691C130.523 125.435 130.386 125.298 130.386 125.129V123.255C130.386 123.086 130.523 122.949 130.691 122.949H130.907C131.076 122.949 131.213 123.086 131.213 123.255V125.129C131.213 125.298 131.076 125.435 130.907 125.435ZM130.691 123.233C130.68 123.233 130.668 123.245 130.668 123.256V125.131C130.668 125.145 130.678 125.155 130.691 125.155H130.907C130.921 125.155 130.931 125.145 130.931 125.131V123.256C130.931 123.245 130.919 123.233 130.907 123.233H130.691Z" fill="#FBFBFB4D" stroke="#FBFBFB4D" stroke-width="0.027" stroke-miterlimit="10"/>
<path d="M134.404 125.435H134.188C134.019 125.435 133.883 125.298 133.883 125.129V123.255C133.883 123.086 134.019 122.949 134.188 122.949H134.404C134.573 122.949 134.71 123.086 134.71 123.255V125.129C134.71 125.298 134.573 125.435 134.404 125.435ZM134.188 123.233C134.176 123.233 134.165 123.245 134.165 123.256V125.131C134.165 125.145 134.175 125.155 134.188 125.155H134.404C134.418 125.155 134.428 125.145 134.428 125.131V123.256C134.428 123.245 134.416 123.233 134.404 123.233H134.188Z" fill="#FBFBFB4D" stroke="#FBFBFB4D" stroke-width="0.027" stroke-miterlimit="10"/>
<path d="M137.901 125.435H137.685C137.516 125.435 137.379 125.298 137.379 125.129V123.255C137.379 123.086 137.516 122.949 137.685 122.949H137.901C138.07 122.949 138.206 123.086 138.206 123.255V125.129C138.206 125.298 138.07 125.435 137.901 125.435ZM137.685 123.233C137.673 123.233 137.661 123.245 137.661 123.256V125.131C137.661 125.145 137.671 125.155 137.685 125.155H137.901C137.914 125.155 137.924 125.145 137.924 125.131V123.256C137.924 123.245 137.914 123.233 137.901 123.233H137.685Z" fill="#FBFBFB4D" stroke="#FBFBFB4D" stroke-width="0.027" stroke-miterlimit="10"/>
<path d="M141.398 125.435H141.182C141.013 125.435 140.876 125.298 140.876 125.129V123.255C140.876 123.086 141.013 122.949 141.182 122.949H141.398C141.566 122.949 141.703 123.086 141.703 123.255V125.129C141.703 125.298 141.566 125.435 141.398 125.435ZM141.182 123.233C141.17 123.233 141.158 123.245 141.158 123.256V125.131C141.158 125.145 141.168 125.155 141.182 125.155H141.398C141.409 125.155 141.421 125.145 141.421 125.131V123.256C141.421 123.245 141.411 123.233 141.398 123.233H141.182Z" fill="#FBFBFB4D" stroke="#FBFBFB4D" stroke-width="0.027" stroke-miterlimit="10"/>
<path d="M127.414 129.55H127.198C127.029 129.55 126.892 129.414 126.892 129.245V127.372C126.892 127.203 127.029 127.066 127.198 127.066H127.414C127.582 127.066 127.719 127.203 127.719 127.372V129.245C127.719 129.414 127.582 129.55 127.414 129.55ZM127.198 127.348C127.186 127.348 127.174 127.358 127.174 127.372V129.245C127.174 129.258 127.184 129.269 127.198 129.269H127.414C127.425 129.269 127.437 129.257 127.437 129.245V127.372C127.437 127.36 127.425 127.348 127.414 127.348H127.198Z" fill="#FBFBFB4D" stroke="#FBFBFB4D" stroke-width="0.027" stroke-miterlimit="10"/>
<path d="M130.907 129.55H130.691C130.523 129.55 130.386 129.414 130.386 129.245V127.372C130.386 127.203 130.523 127.066 130.691 127.066H130.907C131.076 127.066 131.213 127.203 131.213 127.372V129.245C131.213 129.414 131.076 129.55 130.907 129.55ZM130.691 127.348C130.68 127.348 130.668 127.36 130.668 127.372V129.245C130.668 129.258 130.68 129.269 130.691 129.269H130.907C130.919 129.269 130.931 129.257 130.931 129.245V127.372C130.931 127.36 130.919 127.348 130.907 127.348H130.691Z" fill="#FBFBFB4D" stroke="#FBFBFB4D" stroke-width="0.027" stroke-miterlimit="10"/>
<path d="M134.404 129.55H134.188C134.019 129.55 133.883 129.414 133.883 129.245V127.372C133.883 127.203 134.019 127.066 134.188 127.066H134.404C134.573 127.066 134.71 127.203 134.71 127.372V129.245C134.71 129.414 134.573 129.55 134.404 129.55ZM134.188 127.348C134.176 127.348 134.165 127.36 134.165 127.372V129.245C134.165 129.258 134.176 129.269 134.188 129.269H134.404C134.416 129.269 134.428 129.257 134.428 129.245V127.372C134.428 127.36 134.416 127.348 134.404 127.348H134.188Z" fill="#FBFBFB4D" stroke="#FBFBFB4D" stroke-width="0.027" stroke-miterlimit="10"/>
<path d="M137.901 129.55H137.685C137.516 129.55 137.379 129.414 137.379 129.245V127.372C137.379 127.203 137.516 127.066 137.685 127.066H137.901C138.07 127.066 138.206 127.203 138.206 127.372V129.245C138.206 129.414 138.07 129.55 137.901 129.55ZM137.685 127.348C137.673 127.348 137.661 127.36 137.661 127.372V129.245C137.661 129.258 137.673 129.269 137.685 129.269H137.901C137.914 129.269 137.924 129.258 137.924 129.245V127.372C137.924 127.358 137.914 127.348 137.901 127.348H137.685Z" fill="#FBFBFB4D" stroke="#FBFBFB4D" stroke-width="0.027" stroke-miterlimit="10"/>
<path d="M141.398 129.55H141.182C141.013 129.55 140.876 129.414 140.876 129.245V127.372C140.876 127.203 141.013 127.066 141.182 127.066H141.398C141.566 127.066 141.703 127.203 141.703 127.372V129.245C141.703 129.414 141.566 129.55 141.398 129.55ZM141.182 127.348C141.168 127.348 141.158 127.358 141.158 127.372V129.245C141.158 129.258 141.168 129.269 141.182 129.269H141.398C141.409 129.269 141.421 129.258 141.421 129.245V127.372C141.421 127.358 141.411 127.348 141.398 127.348H141.182Z" fill="#FBFBFB4D" stroke="#FBFBFB4D" stroke-width="0.027" stroke-miterlimit="10"/>
<path d="M127.414 133.843H127.198C127.029 133.843 126.892 133.707 126.892 133.538V131.665C126.892 131.496 127.029 131.359 127.198 131.359H127.414C127.582 131.359 127.719 131.496 127.719 131.665V133.538C127.719 133.707 127.582 133.843 127.414 133.843ZM127.198 131.641C127.186 131.641 127.174 131.651 127.174 131.665V133.538C127.174 133.551 127.184 133.562 127.198 133.562H127.414C127.425 133.562 127.437 133.55 127.437 133.538V131.665C127.437 131.653 127.425 131.641 127.414 131.641H127.198Z" fill="#FBFBFB4D" stroke="#FBFBFB4D" stroke-width="0.027" stroke-miterlimit="10"/>
<path d="M130.907 133.843H130.691C130.523 133.843 130.386 133.707 130.386 133.538V131.665C130.386 131.496 130.523 131.359 130.691 131.359H130.907C131.076 131.359 131.213 131.496 131.213 131.665V133.538C131.213 133.707 131.076 133.843 130.907 133.843ZM130.691 131.641C130.68 131.641 130.668 131.653 130.668 131.665V133.538C130.668 133.55 130.68 133.562 130.691 133.562H130.907C130.919 133.562 130.931 133.55 130.931 133.538V131.665C130.931 131.653 130.919 131.641 130.907 131.641H130.691Z" fill="#FBFBFB4D" stroke="#FBFBFB4D" stroke-width="0.027" stroke-miterlimit="10"/>
<path d="M134.404 133.843H134.188C134.019 133.843 133.883 133.707 133.883 133.538V131.665C133.883 131.496 134.019 131.359 134.188 131.359H134.404C134.573 131.359 134.71 131.496 134.71 131.665V133.538C134.71 133.707 134.573 133.843 134.404 133.843ZM134.188 131.641C134.176 131.641 134.165 131.653 134.165 131.665V133.538C134.165 133.55 134.176 133.562 134.188 133.562H134.404C134.416 133.562 134.428 133.55 134.428 133.538V131.665C134.428 131.653 134.416 131.641 134.404 131.641H134.188Z" fill="#FBFBFB4D" stroke="#FBFBFB4D" stroke-width="0.027" stroke-miterlimit="10"/>
<path d="M137.901 133.843H137.685C137.516 133.843 137.379 133.707 137.379 133.538V131.665C137.379 131.496 137.516 131.359 137.685 131.359H137.901C138.07 131.359 138.206 131.496 138.206 131.665V133.538C138.206 133.707 138.07 133.843 137.901 133.843ZM137.685 131.641C137.673 131.641 137.661 131.653 137.661 131.665V133.538C137.661 133.55 137.673 133.562 137.685 133.562H137.901C137.914 133.562 137.924 133.551 137.924 133.538V131.665C137.924 131.651 137.914 131.641 137.901 131.641H137.685Z" fill="#FBFBFB4D" stroke="#FBFBFB4D" stroke-width="0.027" stroke-miterlimit="10"/>
<path d="M141.398 133.843H141.182C141.013 133.843 140.876 133.707 140.876 133.538V131.665C140.876 131.496 141.013 131.359 141.182 131.359H141.398C141.566 131.359 141.703 131.496 141.703 131.665V133.538C141.703 133.707 141.566 133.843 141.398 133.843ZM141.182 131.641C141.168 131.641 141.158 131.651 141.158 131.665V133.538C141.158 133.551 141.168 133.562 141.182 133.562H141.398C141.409 133.562 141.421 133.551 141.421 133.538V131.665C141.421 131.651 141.411 131.641 141.398 131.641H141.182Z" fill="#FBFBFB4D" stroke="#FBFBFB4D" stroke-width="0.027" stroke-miterlimit="10"/>
<path d="M127.414 138.047H127.198C127.029 138.047 126.892 137.91 126.892 137.741V135.868C126.892 135.699 127.029 135.562 127.198 135.562H127.414C127.582 135.562 127.719 135.699 127.719 135.868V137.741C127.719 137.91 127.582 138.047 127.414 138.047ZM127.198 135.844C127.186 135.844 127.174 135.854 127.174 135.868V137.741C127.174 137.755 127.184 137.765 127.198 137.765H127.414C127.425 137.765 127.437 137.753 127.437 137.741V135.868C127.437 135.856 127.425 135.844 127.414 135.844H127.198Z" fill="#FBFBFB4D" stroke="#FBFBFB4D" stroke-width="0.027" stroke-miterlimit="10"/>
<path d="M130.907 138.047H130.691C130.523 138.047 130.386 137.91 130.386 137.741V135.868C130.386 135.699 130.523 135.562 130.691 135.562H130.907C131.076 135.562 131.213 135.699 131.213 135.868V137.741C131.213 137.91 131.076 138.047 130.907 138.047ZM130.691 135.844C130.68 135.844 130.668 135.856 130.668 135.868V137.741C130.668 137.753 130.68 137.765 130.691 137.765H130.907C130.919 137.765 130.931 137.753 130.931 137.741V135.868C130.931 135.856 130.919 135.844 130.907 135.844H130.691Z" fill="#FBFBFB4D" stroke="#FBFBFB4D" stroke-width="0.027" stroke-miterlimit="10"/>
<path d="M134.404 138.047H134.188C134.019 138.047 133.883 137.91 133.883 137.741V135.868C133.883 135.699 134.019 135.562 134.188 135.562H134.404C134.573 135.562 134.71 135.699 134.71 135.868V137.741C134.71 137.91 134.573 138.047 134.404 138.047ZM134.188 135.844C134.176 135.844 134.165 135.856 134.165 135.868V137.741C134.165 137.753 134.176 137.765 134.188 137.765H134.404C134.416 137.765 134.428 137.753 134.428 137.741V135.868C134.428 135.856 134.416 135.844 134.404 135.844H134.188Z" fill="#FBFBFB4D" stroke="#FBFBFB4D" stroke-width="0.027" stroke-miterlimit="10"/>
<path d="M137.901 138.047H137.685C137.516 138.047 137.379 137.91 137.379 137.741V135.868C137.379 135.699 137.516 135.562 137.685 135.562H137.901C138.07 135.562 138.206 135.699 138.206 135.868V137.741C138.206 137.91 138.07 138.047 137.901 138.047ZM137.685 135.844C137.673 135.844 137.661 135.856 137.661 135.868V137.741C137.661 137.753 137.673 137.765 137.685 137.765H137.901C137.914 137.765 137.924 137.755 137.924 137.741V135.868C137.924 135.854 137.914 135.844 137.901 135.844H137.685Z" fill="#FBFBFB4D" stroke="#FBFBFB4D" stroke-width="0.027" stroke-miterlimit="10"/>
<path d="M141.398 138.047H141.182C141.013 138.047 140.876 137.91 140.876 137.741V135.868C140.876 135.699 141.013 135.562 141.182 135.562H141.398C141.566 135.562 141.703 135.699 141.703 135.868V137.741C141.703 137.91 141.566 138.047 141.398 138.047ZM141.182 135.844C141.168 135.844 141.158 135.854 141.158 135.868V137.741C141.158 137.755 141.168 137.765 141.182 137.765H141.398C141.409 137.765 141.421 137.755 141.421 137.741V135.868C141.421 135.854 141.411 135.844 141.398 135.844H141.182Z" fill="#FBFBFB4D" stroke="#FBFBFB4D" stroke-width="0.027" stroke-miterlimit="10"/>
<path d="M127.414 142.161H127.198C127.029 142.161 126.892 142.025 126.892 141.856V139.981C126.892 139.812 127.029 139.676 127.198 139.676H127.414C127.582 139.676 127.719 139.812 127.719 139.981V141.856C127.719 142.025 127.582 142.161 127.414 142.161ZM127.198 139.959C127.186 139.959 127.174 139.971 127.174 139.983V141.858C127.174 141.87 127.184 141.881 127.198 141.881H127.414C127.425 141.881 127.437 141.87 127.437 141.858V139.983C127.437 139.971 127.425 139.959 127.414 139.959H127.198Z" fill="#FBFBFB4D" stroke="#FBFBFB4D" stroke-width="0.027" stroke-miterlimit="10"/>
<path d="M130.907 142.161H130.691C130.523 142.161 130.386 142.025 130.386 141.856V139.981C130.386 139.812 130.523 139.676 130.691 139.676H130.907C131.076 139.676 131.213 139.812 131.213 139.981V141.856C131.213 142.025 131.076 142.161 130.907 142.161ZM130.691 139.959C130.68 139.959 130.668 139.971 130.668 139.983V141.858C130.668 141.87 130.68 141.881 130.691 141.881H130.907C130.919 141.881 130.931 141.87 130.931 141.858V139.983C130.931 139.971 130.919 139.959 130.907 139.959H130.691Z" fill="#FBFBFB4D" stroke="#FBFBFB4D" stroke-width="0.027" stroke-miterlimit="10"/>
<path d="M134.404 142.161H134.188C134.019 142.161 133.883 142.025 133.883 141.856V139.981C133.883 139.812 134.019 139.676 134.188 139.676H134.404C134.573 139.676 134.71 139.812 134.71 139.981V141.856C134.71 142.025 134.573 142.161 134.404 142.161ZM134.188 139.959C134.176 139.959 134.165 139.971 134.165 139.983V141.858C134.165 141.87 134.176 141.881 134.188 141.881H134.404C134.416 141.881 134.428 141.87 134.428 141.858V139.983C134.428 139.971 134.416 139.959 134.404 139.959H134.188Z" fill="#FBFBFB4D" stroke="#FBFBFB4D" stroke-width="0.027" stroke-miterlimit="10"/>
<path d="M137.901 142.161H137.685C137.516 142.161 137.379 142.025 137.379 141.856V139.981C137.379 139.812 137.516 139.676 137.685 139.676H137.901C138.07 139.676 138.206 139.812 138.206 139.981V141.856C138.206 142.025 138.07 142.161 137.901 142.161ZM137.685 139.959C137.673 139.959 137.661 139.971 137.661 139.983V141.858C137.661 141.87 137.673 141.881 137.685 141.881H137.901C137.913 141.881 137.924 141.87 137.924 141.858V139.983C137.924 139.971 137.914 139.959 137.901 139.959H137.685Z" fill="#FBFBFB4D" stroke="#FBFBFB4D" stroke-width="0.027" stroke-miterlimit="10"/>
<path d="M141.398 142.161H141.182C141.013 142.161 140.876 142.025 140.876 141.856V139.981C140.876 139.812 141.013 139.676 141.182 139.676H141.398C141.566 139.676 141.703 139.812 141.703 139.981V141.856C141.703 142.025 141.566 142.161 141.398 142.161ZM141.182 139.959C141.17 139.959 141.158 139.971 141.158 139.983V141.858C141.158 141.87 141.168 141.881 141.182 141.881H141.398C141.409 141.881 141.421 141.87 141.421 141.858V139.983C141.421 139.971 141.411 139.959 141.398 139.959H141.182Z" fill="#FBFBFB4D" stroke="#FBFBFB4D" stroke-width="0.027" stroke-miterlimit="10"/>
<path d="M127.414 146.454H127.198C127.029 146.454 126.892 146.318 126.892 146.149V144.274C126.892 144.105 127.029 143.969 127.198 143.969H127.414C127.582 143.969 127.719 144.105 127.719 144.274V146.149C127.719 146.318 127.582 146.454 127.414 146.454ZM127.198 144.252C127.186 144.252 127.174 144.262 127.174 144.276V146.151C127.174 146.162 127.184 146.174 127.198 146.174H127.414C127.425 146.174 127.437 146.162 127.437 146.151V144.276C127.437 144.264 127.427 144.252 127.414 144.252H127.198Z" fill="#FBFBFB4D" stroke="#FBFBFB4D" stroke-width="0.027" stroke-miterlimit="10"/>
<path d="M130.907 146.454H130.691C130.523 146.454 130.386 146.318 130.386 146.149V144.274C130.386 144.105 130.523 143.969 130.691 143.969H130.907C131.076 143.969 131.213 144.105 131.213 144.274V146.149C131.213 146.318 131.076 146.454 130.907 146.454ZM130.691 144.252C130.678 144.252 130.668 144.262 130.668 144.276V146.151C130.668 146.162 130.68 146.174 130.691 146.174H130.907C130.919 146.174 130.931 146.162 130.931 146.151V144.276C130.931 144.264 130.921 144.252 130.907 144.252H130.691Z" fill="#FBFBFB4D" stroke="#FBFBFB4D" stroke-width="0.027" stroke-miterlimit="10"/>
<path d="M134.404 146.454H134.188C134.019 146.454 133.883 146.318 133.883 146.149V144.274C133.883 144.105 134.019 143.969 134.188 143.969H134.404C134.573 143.969 134.71 144.105 134.71 144.274V146.149C134.71 146.318 134.573 146.454 134.404 146.454ZM134.188 144.252C134.175 144.252 134.165 144.262 134.165 144.276V146.151C134.165 146.162 134.176 146.174 134.188 146.174H134.404C134.416 146.174 134.428 146.162 134.428 146.151V144.276C134.428 144.264 134.418 144.252 134.404 144.252H134.188Z" fill="#FBFBFB4D" stroke="#FBFBFB4D" stroke-width="0.027" stroke-miterlimit="10"/>
<path d="M137.901 146.454H137.685C137.516 146.454 137.379 146.318 137.379 146.149V144.274C137.379 144.105 137.516 143.969 137.685 143.969H137.901C138.07 143.969 138.206 144.105 138.206 144.274V146.149C138.206 146.318 138.07 146.454 137.901 146.454ZM137.685 144.252C137.671 144.252 137.661 144.262 137.661 144.276V146.151C137.661 146.162 137.673 146.174 137.685 146.174H137.901C137.913 146.174 137.924 146.162 137.924 146.151V144.276C137.924 144.264 137.914 144.252 137.901 144.252H137.685Z" fill="#FBFBFB4D" stroke="#FBFBFB4D" stroke-width="0.027" stroke-miterlimit="10"/>
<path d="M141.398 146.454H141.182C141.013 146.454 140.876 146.318 140.876 146.149V144.274C140.876 144.105 141.013 143.969 141.182 143.969H141.398C141.566 143.969 141.703 144.105 141.703 144.274V146.149C141.703 146.318 141.566 146.454 141.398 146.454ZM141.182 144.252C141.168 144.252 141.158 144.262 141.158 144.276V146.151C141.158 146.162 141.168 146.174 141.182 146.174H141.398C141.409 146.174 141.421 146.162 141.421 146.151V144.276C141.421 144.264 141.411 144.252 141.398 144.252H141.182Z" fill="#FBFBFB4D" stroke="#FBFBFB4D" stroke-width="0.027" stroke-miterlimit="10"/>
<path d="M130.694 91.0742H130.554V97.0733H130.694V91.0742Z" fill="#FBFBFB4D" stroke="#FBFBFB4D" stroke-width="0.027" stroke-miterlimit="10"/>
<path d="M132.543 91.0742H132.403V97.0733H132.543V91.0742Z" fill="#FBFBFB4D" stroke="#FBFBFB4D" stroke-width="0.027" stroke-miterlimit="10"/>
<path d="M134.393 91.0742H134.253V97.0733H134.393V91.0742Z" fill="#FBFBFB4D" stroke="#FBFBFB4D" stroke-width="0.027" stroke-miterlimit="10"/>
<path d="M136.244 91.0742H136.104V97.0733H136.244V91.0742Z" fill="#FBFBFB4D" stroke="#FBFBFB4D" stroke-width="0.027" stroke-miterlimit="10"/>
<path d="M138.093 91.0742H137.953V97.0733H138.093V91.0742Z" fill="#FBFBFB4D" stroke="#FBFBFB4D" stroke-width="0.027" stroke-miterlimit="10"/>
<path d="M146.087 98.423H122.56C122.405 98.423 122.278 98.2964 122.278 98.1412C122.278 97.9859 122.405 97.8594 122.56 97.8594H146.087C146.242 97.8594 146.369 97.9859 146.369 98.1412C146.369 98.2964 146.242 98.423 146.087 98.423Z" fill="#FBFBFB4D" stroke="#FBFBFB4D" stroke-width="0.027" stroke-miterlimit="10"/>
<path d="M141.288 90.048H127.359C127.204 90.048 127.077 89.9214 127.077 89.7662C127.077 89.6109 127.204 89.4844 127.359 89.4844H141.288C141.443 89.4844 141.57 89.6109 141.57 89.7662C141.57 89.9214 141.443 90.048 141.288 90.048Z" fill="#FBFBFB4D" stroke="#FBFBFB4D" stroke-width="0.027" stroke-miterlimit="10"/>
<path d="M137.705 79.3488H130.943C130.788 79.3488 130.661 79.2222 130.661 79.067C130.661 78.9117 130.788 78.7852 130.943 78.7852H137.705C137.86 78.7852 137.987 78.9117 137.987 79.067C137.987 79.2222 137.86 79.3488 137.705 79.3488Z" fill="#FBFBFB4D" stroke="#FBFBFB4D" stroke-width="0.027" stroke-miterlimit="10"/>
<path d="M124.259 150.423H114.694C111.363 150.423 108.662 147.723 108.662 144.39V105.812H124.259V150.422V150.423ZM114.975 150.141H123.977V106.096H108.943V144.11C108.943 147.441 111.643 150.143 114.976 150.143L114.975 150.141Z" fill="#FBFBFB4D" stroke="#FBFBFB4D" stroke-width="0.027" stroke-miterlimit="10"/>
<path d="M115.813 107.75H110.088V108.032H115.813V107.75Z" fill="#FBFBFB4D" stroke="#FBFBFB4D" stroke-width="0.027" stroke-miterlimit="10"/>
<path d="M115.813 111.418H110.088V111.7H115.813V111.418Z" fill="#FBFBFB4D" stroke="#FBFBFB4D" stroke-width="0.027" stroke-miterlimit="10"/>
<path d="M115.813 115.086H110.088V115.368H115.813V115.086Z" fill="#FBFBFB4D" stroke="#FBFBFB4D" stroke-width="0.027" stroke-miterlimit="10"/>
<path d="M115.813 118.758H110.088V119.04H115.813V118.758Z" fill="#FBFBFB4D" stroke="#FBFBFB4D" stroke-width="0.027" stroke-miterlimit="10"/>
<path d="M115.813 122.426H110.088V122.708H115.813V122.426Z" fill="#FBFBFB4D" stroke="#FBFBFB4D" stroke-width="0.027" stroke-miterlimit="10"/>
<path d="M115.813 126.098H110.088V126.379H115.813V126.098Z" fill="#FBFBFB4D" stroke="#FBFBFB4D" stroke-width="0.027" stroke-miterlimit="10"/>
<path d="M115.813 129.766H110.088V130.047H115.813V129.766Z" fill="#FBFBFB4D" stroke="#FBFBFB4D" stroke-width="0.027" stroke-miterlimit="10"/>
<path d="M115.813 133.438H110.088V133.719H115.813V133.438Z" fill="#FBFBFB4D" stroke="#FBFBFB4D" stroke-width="0.027" stroke-miterlimit="10"/>
<path d="M115.813 137.105H110.088V137.387H115.813V137.105Z" fill="#FBFBFB4D" stroke="#FBFBFB4D" stroke-width="0.027" stroke-miterlimit="10"/>
<path d="M115.813 140.777H110.088V141.059H115.813V140.777Z" fill="#FBFBFB4D" stroke="#FBFBFB4D" stroke-width="0.027" stroke-miterlimit="10"/>
<path d="M115.813 144.445H110.088V144.727H115.813V144.445Z" fill="#FBFBFB4D" stroke="#FBFBFB4D" stroke-width="0.027" stroke-miterlimit="10"/>
<path d="M115.813 148.113H110.088V148.395H115.813V148.113Z" fill="#FBFBFB4D" stroke="#FBFBFB4D" stroke-width="0.027" stroke-miterlimit="10"/>
<path d="M121.681 148.396H117.543V107.746H121.681V148.396Z" stroke="#FBFBFB4D" stroke-width="0.50625" stroke-miterlimit="10"/>
<path d="M124.259 106.096H105.857V103.941H124.259V106.096ZM106.139 105.815H123.978V104.223H106.139V105.815Z" fill="#FBFBFB4D" stroke="#FBFBFB4D" stroke-width="0.027" stroke-miterlimit="10"/>
<path d="M124.259 104.222H108.662V102.676H124.259V104.222ZM108.943 103.94H123.977V102.958H108.943V103.94Z" fill="#FBFBFB4D" stroke="#FBFBFB4D" stroke-width="0.027" stroke-miterlimit="10"/>
<path d="M124.26 102.956H110.416V101.488H124.26V102.956ZM110.697 102.675H123.98V101.77H110.697V102.675Z" fill="#FBFBFB4D" stroke="#FBFBFB4D" stroke-width="0.027" stroke-miterlimit="10"/>
</g>
<defs>
<clipPath id="clip0_4858_14968">
<rect width="900.831" height="193.846" fill="#FBFBFB4D" transform="translate(-295.98 0.257812)"/>
</clipPath>
</defs>
</svg>
