<svg width="100" height="148" viewBox="0 0 100 148" fill="none" xmlns="http://www.w3.org/2000/svg">
<g opacity="0.8">
<g clip-path="url(#clip0_2116_6275)">
<path fill-rule="evenodd" clip-rule="evenodd" d="M99.9362 34.4415C99.9362 29.0853 95.5891 24.7383 90.2329 24.7383C85.3716 24.7383 81.3447 28.3188 80.6364 32.9861H78.589V34.9267H80.5394C80.7916 40.0597 85.032 44.1448 90.2329 44.1448C95.4339 44.1448 99.9362 39.7977 99.9362 34.4415ZM90.2329 26.6789C94.5218 26.6789 97.9955 30.1527 97.9955 34.4415C97.9955 38.7304 94.5218 42.2042 90.2329 42.2042C85.9441 42.2042 82.4703 38.7304 82.4703 34.4415C82.4703 30.1527 85.9441 26.6789 90.2329 26.6789Z" fill="url(#paint0_linear_2116_6275)"/>
<path d="M55.1168 79.0766C55.3497 78.4264 55.5729 77.786 55.7863 77.1359H65.9457V79.0766H55.1168Z" fill="url(#paint1_linear_2116_6275)"/>
<path fill-rule="evenodd" clip-rule="evenodd" d="M47.0243 97.0276C47.3639 96.3872 47.7035 95.7468 48.0431 95.0869H49.4986C49.7412 92.0983 52.2446 89.7502 55.3012 89.7502C58.3577 89.7502 60.8611 92.0983 61.1037 95.0869H66.6734V97.0276H60.9388C60.2887 99.5407 58.0084 101.394 55.3012 101.394C52.594 101.394 50.3137 99.5407 49.6636 97.0276H47.0243ZM55.3012 91.6908C57.4456 91.6908 59.1825 93.4277 59.1825 95.5721C59.1825 97.7165 57.4456 99.4534 55.3012 99.4534C53.1567 99.4534 51.4199 97.7165 51.4199 95.5721C51.4199 93.4277 53.1567 91.6908 55.3012 91.6908Z" fill="url(#paint2_linear_2116_6275)"/>
<path d="M29.1024 123.712C33.43 123.712 37.0202 120.568 37.7189 116.434H43.0362V114.493H37.8256C37.7868 113.814 37.6703 113.145 37.486 112.514C36.3216 114.134 35.2348 115.503 34.3227 116.531C33.8278 117.084 33.3039 117.628 32.7799 118.064C32.5179 118.278 32.1783 118.54 31.7708 118.763C31.4408 118.947 30.6549 119.345 29.5972 119.345C28.5396 119.345 27.7633 118.947 27.4431 118.773C27.0356 118.549 26.6959 118.297 26.434 118.084C25.91 117.657 25.3763 117.123 24.862 116.57C23.8238 115.444 22.5818 113.892 21.2233 112.058C21.1457 111.951 21.0681 111.854 21.0001 111.747C20.6023 112.747 20.3791 113.834 20.3791 114.979C20.3791 119.801 24.2895 123.712 29.1121 123.712H29.1024Z" fill="url(#paint3_linear_2116_6275)"/>
<path d="M71.3116 34.9267C68.944 34.9267 66.7607 35.7321 65.0238 37.0905L63.8303 35.5671C65.8874 33.9467 68.4879 32.9861 71.3116 32.9861H76.6484V34.9267H71.3116Z" fill="url(#paint4_linear_2116_6275)"/>
<path d="M63.287 38.8274C61.9285 40.5546 61.1231 42.7378 61.1231 45.1151C61.1231 47.4924 61.9285 49.666 63.287 51.4029L61.7635 52.5964C60.1431 50.5393 59.1825 47.9388 59.1825 45.1151C59.1825 42.2915 60.1431 39.691 61.7635 37.6339L63.287 38.8274Z" fill="url(#paint5_linear_2116_6275)"/>
<path fill-rule="evenodd" clip-rule="evenodd" d="M65.0238 53.1397C66.751 54.4982 68.9343 55.3036 71.3116 55.3036H71.8161C72.0587 52.315 74.5621 49.9668 77.6187 49.9668C80.6752 49.9668 83.1786 52.315 83.4212 55.3036H86.5942C89.3596 55.3036 91.9019 56.2448 93.9299 57.8361L92.7364 59.3595C91.048 58.0302 88.923 57.2442 86.6039 57.2442H83.266C82.6159 59.7574 80.3356 61.6107 77.6284 61.6107C74.9212 61.6107 72.6409 59.7574 71.9908 57.2442H71.3213C68.4976 57.2442 65.8971 56.2836 63.84 54.6631L65.0335 53.1397H65.0238ZM81.5 55.7887C81.5 53.6443 79.7631 51.9074 77.6187 51.9074C75.4743 51.9074 73.7374 53.6443 73.7374 55.7887C73.7374 57.9331 75.4743 59.67 77.6187 59.67C79.7631 59.67 81.5 57.9331 81.5 55.7887Z" fill="url(#paint6_linear_2116_6275)"/>
<path d="M95.9481 59.8544C97.5298 61.8727 98.4807 64.4246 98.4807 67.1901C98.4807 69.9555 97.5395 72.4977 95.9481 74.5257L94.4247 73.3322C95.7541 71.6439 96.54 69.5188 96.54 67.1998C96.54 64.8807 95.7541 62.7557 94.4247 61.0673L95.9481 59.8738V59.8544Z" fill="url(#paint7_linear_2116_6275)"/>
<path fill-rule="evenodd" clip-rule="evenodd" d="M93.9299 76.544C91.9116 78.1256 89.3596 79.0766 86.5942 79.0766H86.274C85.8082 81.8323 83.4212 83.9282 80.5297 83.9282C77.6381 83.9282 75.2511 81.8323 74.7853 79.0766H67.9542V77.1359H74.7853C75.2511 74.3802 77.6381 72.2843 80.5297 72.2843C83.4212 72.2843 85.8082 74.3802 86.274 77.1359H86.5942C88.9133 77.1359 91.0383 76.3499 92.7267 75.0206L93.9202 76.544H93.9299ZM84.411 78.1062C84.411 75.9618 82.6741 74.2249 80.5297 74.2249C78.3852 74.2249 76.6484 75.9618 76.6484 78.1062C76.6484 80.2507 78.3852 81.9875 80.5297 81.9875C82.6741 81.9875 84.411 80.2507 84.411 78.1062Z" fill="url(#paint8_linear_2116_6275)"/>
<path d="M68.7305 95.0869H80.0736V97.0276H68.7305V95.0869Z" fill="url(#paint9_linear_2116_6275)"/>
<path d="M82.1404 95.0869H87.8071C90.2911 95.0869 92.5811 95.9311 94.3859 97.3575L93.1924 98.8809C91.7078 97.7165 89.8448 97.0276 87.8071 97.0276H82.1404V95.0869Z" fill="url(#paint10_linear_2116_6275)"/>
<path d="M96.2101 99.1817C97.6365 100.996 98.4807 103.286 98.4807 105.761C98.4807 108.235 97.6268 110.535 96.2101 112.339L94.6867 111.146C95.8511 109.661 96.54 107.798 96.54 105.761C96.54 103.723 95.8511 101.86 94.6867 100.375L96.2101 99.1817Z" fill="url(#paint11_linear_2116_6275)"/>
<path d="M94.3859 114.164C92.5714 115.59 90.2814 116.434 87.8071 116.434H82.5091V114.493H87.8071C89.8448 114.493 91.7078 113.805 93.1924 112.64L94.3859 114.164Z" fill="url(#paint12_linear_2116_6275)"/>
<path d="M55.5535 116.434H44.9575V114.493H55.5535V116.434Z" fill="url(#paint13_linear_2116_6275)"/>
<path fill-rule="evenodd" clip-rule="evenodd" d="M68.8857 110.127C66.1688 110.127 63.8983 111.98 63.2481 114.493H57.4747V116.434H63.0832C63.3258 119.423 65.8292 121.771 68.8857 121.771C71.9423 121.771 74.4457 119.423 74.6883 116.434H80.5879V114.493H74.5233C73.8732 111.98 71.5929 110.127 68.8857 110.127ZM72.767 115.949C72.767 113.805 71.0302 112.068 68.8857 112.068C66.7413 112.068 65.0044 113.805 65.0044 115.949C65.0044 118.093 66.7413 119.83 68.8857 119.83C71.0302 119.83 72.767 118.093 72.767 115.949Z" fill="url(#paint14_linear_2116_6275)"/>
<path fill-rule="evenodd" clip-rule="evenodd" d="M29.1024 81.0172C40.8918 81.0172 50.4495 71.4595 50.4495 59.67C50.4495 47.8806 40.8918 38.3229 29.1024 38.3229C17.3129 38.3229 7.75518 47.8806 7.75518 59.67C7.75518 71.4595 17.3129 81.0172 29.1024 81.0172ZM25.8615 67.52L37.8741 55.8664L35.8461 53.7802L25.8615 63.4737L21.3786 59.1169L19.3506 61.2032L25.8615 67.52Z" fill="url(#paint15_linear_2116_6275)"/>
<path fill-rule="evenodd" clip-rule="evenodd" d="M30.8198 117.065C30.5967 117.191 30.1503 117.404 29.5875 117.404C29.0247 117.404 28.5784 117.191 28.3552 117.065C28.0932 116.919 27.8506 116.745 27.6372 116.58C27.2199 116.24 26.7542 115.784 26.269 115.26C25.2987 114.202 24.0955 112.718 22.7661 110.903C20.0977 107.274 16.7986 102.229 13.5868 96.5036C7.2215 85.1508 0.962891 70.7026 0.962891 59.1849C0.962891 43.9119 13.3443 31.5306 28.6172 31.5306C43.8901 31.5306 57.2418 43.8246 57.2418 59.1849C57.2418 70.6832 51.2355 85.1217 45.1127 96.4842C42.0271 102.209 38.8444 107.255 36.2634 110.884C34.9728 112.698 33.8181 114.183 32.8672 115.241C32.4015 115.765 31.9454 116.221 31.5282 116.57C31.3244 116.745 31.0818 116.919 30.8198 117.065ZM29.5875 115.464C32.1492 115.464 55.3012 81.1531 55.3012 59.1849C55.3012 44.9793 42.8228 33.4712 28.6172 33.4712C14.4116 33.4712 2.90354 44.9793 2.90354 59.1849C2.90354 81.1531 27.0259 115.464 29.5875 115.464Z" fill="url(#paint16_linear_2116_6275)"/>
</g>
</g>
<defs>
<linearGradient id="paint0_linear_2116_6275" x1="100.012" y1="123.712" x2="59.7009" y2="4.80637" gradientUnits="userSpaceOnUse">
<stop stop-color="#E1B0A8"/>
<stop offset="1" stop-color="#D3A2E7"/>
</linearGradient>
<linearGradient id="paint1_linear_2116_6275" x1="100.012" y1="123.712" x2="59.7009" y2="4.80637" gradientUnits="userSpaceOnUse">
<stop stop-color="#E1B0A8"/>
<stop offset="1" stop-color="#D3A2E7"/>
</linearGradient>
<linearGradient id="paint2_linear_2116_6275" x1="100.012" y1="123.712" x2="59.7009" y2="4.80637" gradientUnits="userSpaceOnUse">
<stop stop-color="#E1B0A8"/>
<stop offset="1" stop-color="#D3A2E7"/>
</linearGradient>
<linearGradient id="paint3_linear_2116_6275" x1="100.012" y1="123.712" x2="59.7009" y2="4.80637" gradientUnits="userSpaceOnUse">
<stop stop-color="#E1B0A8"/>
<stop offset="1" stop-color="#D3A2E7"/>
</linearGradient>
<linearGradient id="paint4_linear_2116_6275" x1="100.012" y1="123.712" x2="59.7009" y2="4.80637" gradientUnits="userSpaceOnUse">
<stop stop-color="#E1B0A8"/>
<stop offset="1" stop-color="#D3A2E7"/>
</linearGradient>
<linearGradient id="paint5_linear_2116_6275" x1="100.012" y1="123.712" x2="59.7009" y2="4.80637" gradientUnits="userSpaceOnUse">
<stop stop-color="#E1B0A8"/>
<stop offset="1" stop-color="#D3A2E7"/>
</linearGradient>
<linearGradient id="paint6_linear_2116_6275" x1="100.012" y1="123.712" x2="59.7009" y2="4.80637" gradientUnits="userSpaceOnUse">
<stop stop-color="#E1B0A8"/>
<stop offset="1" stop-color="#D3A2E7"/>
</linearGradient>
<linearGradient id="paint7_linear_2116_6275" x1="100.012" y1="123.712" x2="59.7009" y2="4.80637" gradientUnits="userSpaceOnUse">
<stop stop-color="#E1B0A8"/>
<stop offset="1" stop-color="#D3A2E7"/>
</linearGradient>
<linearGradient id="paint8_linear_2116_6275" x1="100.012" y1="123.712" x2="59.7009" y2="4.80637" gradientUnits="userSpaceOnUse">
<stop stop-color="#E1B0A8"/>
<stop offset="1" stop-color="#D3A2E7"/>
</linearGradient>
<linearGradient id="paint9_linear_2116_6275" x1="100.012" y1="123.712" x2="59.7009" y2="4.80637" gradientUnits="userSpaceOnUse">
<stop stop-color="#E1B0A8"/>
<stop offset="1" stop-color="#D3A2E7"/>
</linearGradient>
<linearGradient id="paint10_linear_2116_6275" x1="100.012" y1="123.712" x2="59.7009" y2="4.80637" gradientUnits="userSpaceOnUse">
<stop stop-color="#E1B0A8"/>
<stop offset="1" stop-color="#D3A2E7"/>
</linearGradient>
<linearGradient id="paint11_linear_2116_6275" x1="100.012" y1="123.712" x2="59.7009" y2="4.80637" gradientUnits="userSpaceOnUse">
<stop stop-color="#E1B0A8"/>
<stop offset="1" stop-color="#D3A2E7"/>
</linearGradient>
<linearGradient id="paint12_linear_2116_6275" x1="100.012" y1="123.712" x2="59.7009" y2="4.80637" gradientUnits="userSpaceOnUse">
<stop stop-color="#E1B0A8"/>
<stop offset="1" stop-color="#D3A2E7"/>
</linearGradient>
<linearGradient id="paint13_linear_2116_6275" x1="100.012" y1="123.712" x2="59.7009" y2="4.80637" gradientUnits="userSpaceOnUse">
<stop stop-color="#E1B0A8"/>
<stop offset="1" stop-color="#D3A2E7"/>
</linearGradient>
<linearGradient id="paint14_linear_2116_6275" x1="100.012" y1="123.712" x2="59.7009" y2="4.80637" gradientUnits="userSpaceOnUse">
<stop stop-color="#E1B0A8"/>
<stop offset="1" stop-color="#D3A2E7"/>
</linearGradient>
<linearGradient id="paint15_linear_2116_6275" x1="100.012" y1="123.712" x2="59.7009" y2="4.80637" gradientUnits="userSpaceOnUse">
<stop stop-color="#E1B0A8"/>
<stop offset="1" stop-color="#D3A2E7"/>
</linearGradient>
<linearGradient id="paint16_linear_2116_6275" x1="100.012" y1="123.712" x2="59.7009" y2="4.80637" gradientUnits="userSpaceOnUse">
<stop stop-color="#E1B0A8"/>
<stop offset="1" stop-color="#D3A2E7"/>
</linearGradient>
<clipPath id="clip0_2116_6275">
<rect width="98.9733" height="98.9733" fill="white" transform="translate(0.962891 24.7383)"/>
</clipPath>
</defs>
</svg>
