<svg width="216" height="33" viewBox="0 0 216 33" fill="none" xmlns="http://www.w3.org/2000/svg">
<g id="STARKNET Font Medium">
<path id="Union" d="M215.578 6.00995V2.03078C215.578 1.87301 215.451 1.74512 215.293 1.74512H192.62C192.462 1.74512 192.334 1.87301 192.334 2.03078V6.00995H201.549V31.7523H206.364V6.00995H215.578Z" fill="white"/>
<path id="Union_2" d="M168.638 1.74512C168.48 1.74512 168.352 1.87301 168.352 2.03078V31.4667C168.352 31.6244 168.48 31.7523 168.638 31.7523H187.718C187.876 31.7523 188.004 31.6244 188.004 31.4667V27.5298H173.167V18.0991H185.425V13.9611H173.167V5.96768H186.947V2.03078C186.947 1.87301 186.819 1.74512 186.661 1.74512H168.638Z" fill="white"/>
<path id="Union_3" d="M157.574 31.5777L157.678 31.7523H161.376C161.534 31.7523 161.662 31.6244 161.662 31.4667V2.03078C161.662 1.87301 161.534 1.74512 161.376 1.74512H156.932V22.5267C156.161 21.2983 155.265 19.9461 154.245 18.4704C152.945 16.5498 151.548 14.6015 150.052 12.6255C148.584 10.6213 147.088 8.68748 145.563 6.82392C144.065 4.93071 142.65 3.27497 141.318 1.85763L141.212 1.74512H137.732C137.574 1.74512 137.446 1.87301 137.446 2.03078V31.4667C137.446 31.6244 137.574 31.7523 137.732 31.7523H142.176V9.48974C142.783 10.2074 143.43 11.0027 144.116 11.8758C145.043 13.0557 145.999 14.3203 146.983 15.6699L146.984 15.6713L146.985 15.6728C147.968 16.9933 148.952 18.3704 149.936 19.804L149.937 19.8059L149.939 19.8079C150.951 21.2421 151.921 22.6621 152.849 24.0679L152.85 24.0693L152.851 24.0707C153.778 25.4474 154.634 26.7813 155.42 28.0725L155.422 28.0749L155.423 28.0773C156.239 29.3716 156.956 30.5383 157.574 31.5777Z" fill="white"/>
<path id="Union_4" d="M131.631 2.34278L131.74 2.22325C131.907 2.03984 131.777 1.74512 131.529 1.74512H126.258L126.151 1.86905C125.451 2.68065 124.582 3.63438 123.542 4.73079L123.542 4.73097C122.528 5.80037 121.445 6.92628 120.29 8.10871C119.137 9.29073 117.969 10.4728 116.787 11.6548C115.841 12.5778 114.959 13.4285 114.14 14.207V1.74512H109.611C109.453 1.74512 109.326 1.87301 109.326 2.03078V31.4667C109.326 31.6244 109.453 31.7523 109.611 31.7523H114.14V18.1392C115.134 18.7901 116.15 19.5517 117.188 20.4247L117.19 20.426L117.191 20.4273C118.449 21.4613 119.679 22.5937 120.882 23.8249L120.885 23.8278L120.888 23.8307C122.118 25.0328 123.279 26.3049 124.369 27.647L124.37 27.6485L124.371 27.6499C125.462 28.964 126.425 30.2765 127.262 31.5874L127.367 31.7523H132.505C132.725 31.7523 132.862 31.5148 132.753 31.3244L132.691 31.2174C131.92 29.8755 130.952 28.4667 129.789 26.9912C128.656 25.5178 127.437 24.0732 126.135 22.6572C124.832 21.2411 123.5 19.9094 122.14 18.6624C120.908 17.5329 119.73 16.5631 118.608 15.7543C119.563 14.8226 120.575 13.8222 121.644 12.7531C122.828 11.5685 124.013 10.3699 125.197 9.15723C126.41 7.91626 127.567 6.71745 128.667 5.56081L128.668 5.55926L128.67 5.55768C129.769 4.37352 130.757 3.30186 131.631 2.34278Z" fill="white"/>
<path id="Union_5" fill-rule="evenodd" clip-rule="evenodd" d="M81.9971 1.52018C81.8394 1.52023 81.7115 1.64811 81.7115 1.80584V31.4846C81.7115 31.6424 81.8394 31.7703 81.9972 31.7703H86.0767V20.8583H92.0361C92.7064 21.6611 93.3604 22.501 93.998 23.3781L94.0004 23.3814L94.0029 23.3847C95.046 24.7523 96.0098 26.179 96.8945 27.6648L96.8954 27.6664L96.8964 27.668C97.6978 28.9829 98.397 30.2816 98.9946 31.5641L99.0907 31.7703H103.918C104.125 31.7703 104.263 31.5573 104.177 31.369C103.622 30.1523 103.02 28.9612 102.352 27.8006C101.444 26.1786 100.448 24.5728 99.3641 22.9833C98.7446 22.0748 98.1119 21.1923 97.4659 20.3357C99.2666 19.7852 100.692 18.7897 101.722 17.3448L101.723 17.3436C102.96 15.5949 103.573 13.5382 103.573 11.1892C103.573 9.57498 103.292 8.09796 102.724 6.76337C102.154 5.40935 101.296 4.28643 100.153 3.4005C99.0183 2.5099 97.6202 1.94321 95.9733 1.68908C95.5894 1.61826 95.1927 1.57586 94.7835 1.56146C94.3842 1.53402 94.0358 1.52001 93.7395 1.52001C92.4879 1.52001 91.2362 1.51988 89.9845 1.51976L89.9845 1.51976C87.322 1.51948 84.6596 1.51931 81.9971 1.52018ZM99.1256 11.1892C99.1256 11.9688 98.9958 12.736 98.7352 13.4922C98.4802 14.2184 98.0731 14.8551 97.5102 15.4052C96.9769 15.9261 96.2736 16.2955 95.3827 16.5022C95.1004 16.5663 94.7964 16.6118 94.4699 16.6379L94.4694 16.638L94.4688 16.638C94.148 16.6647 93.8641 16.6778 93.6164 16.6778H86.0767V5.70057H93.6164C93.8641 5.70057 94.148 5.71362 94.4688 5.74035L94.4764 5.74099L94.4841 5.7413C94.8016 5.754 95.0961 5.79828 95.3685 5.87258L95.3775 5.87504L95.3866 5.87702C96.2742 6.06998 96.975 6.43805 97.5072 6.97023L97.5087 6.97168L97.5101 6.97312C98.0722 7.52237 98.4795 8.16537 98.7348 8.90578L98.7352 8.90669L98.7355 8.90759C98.9957 9.64929 99.1256 10.4093 99.1256 11.1892Z" fill="white"/>
<path id="Union_6" fill-rule="evenodd" clip-rule="evenodd" d="M71.0006 27.7907L71.001 27.7919L71.0014 27.7931C71.4252 29.0079 71.8771 30.2506 72.3572 31.5214L72.4444 31.7523H77.2738C77.472 31.7523 77.61 31.5553 77.5422 31.3691C76.4873 28.4707 75.4224 25.5761 74.3361 22.6894C73.349 20.0385 72.3759 17.5281 71.4167 15.1583C70.4857 12.7884 69.5544 10.5308 68.6229 8.38558C67.6885 6.20528 66.7053 4.04663 65.6809 1.9072C65.6335 1.80811 65.5333 1.74512 65.4235 1.74512H61.5716C61.4617 1.74512 61.3616 1.80811 61.3141 1.9072C60.2897 4.04669 59.3065 6.2054 58.372 8.38576C57.4409 10.5302 56.4958 12.7871 55.5368 15.1564L55.5361 15.1581L55.5355 15.1598C54.6047 17.529 53.6459 20.0388 52.659 22.6893C51.5726 25.576 50.5078 28.4707 49.4528 31.3691C49.385 31.5553 49.523 31.7523 49.7213 31.7523H54.3444L54.3445 31.7521H54.435L54.5409 31.6384C55.6561 30.4409 56.9026 29.2659 58.2809 28.1135L58.2823 28.1123L58.2837 28.1111C59.6674 26.9297 61.11 25.834 62.6115 24.824L62.6149 24.8217L62.6183 24.8194C64.0974 23.7743 65.586 22.8364 67.084 22.0056L67.0857 22.0047L67.0874 22.0037C67.6269 21.6967 68.1581 21.4106 68.681 21.1455L69.6915 24.0322L69.6922 24.0344L69.6923 24.0345C70.1425 25.3007 70.5786 26.5528 71.0006 27.7907ZM65.8054 13.5568L65.8063 13.5593L65.8073 13.5617C66.2141 14.5914 66.6209 15.6384 67.0277 16.7027C66.9973 16.7161 66.9662 16.73 66.9347 16.7444C65.5032 17.3963 63.9647 18.2392 62.3195 19.271C60.7444 20.2589 59.1819 21.3322 57.6319 22.4907L58.288 20.6163C59.1564 18.1801 60.0247 15.8277 60.8929 13.5592C61.6913 11.5134 62.5227 9.54557 63.3871 7.65578C64.2262 9.54482 65.0323 11.5118 65.8054 13.5568Z" fill="white"/>
<path id="Union_7" d="M50.6314 6.00995V2.03078C50.6314 1.87301 50.5035 1.74512 50.3457 1.74512H27.6731C27.5153 1.74512 27.3874 1.87301 27.3874 2.03078V6.00995H36.6022V31.4667C36.6022 31.6244 36.7301 31.7523 36.8879 31.7523H41.1309C41.2887 31.7523 41.4166 31.6244 41.4166 31.4667V6.00995H50.6314Z" fill="white"/>
<path id="S (Stroke)" d="M6.58378 31.3872L6.58281 31.3867C4.83651 30.6424 3.38408 29.5798 2.23251 28.1979L2.23085 28.1959L2.22995 28.1948C1.08993 26.795 0.349678 25.1452 0.00576136 23.2537C-0.0114402 23.1591 0.0102431 23.0615 0.0659048 22.9831C0.121566 22.9047 0.206501 22.852 0.301488 22.8371L4.14181 22.2318C4.32357 22.2031 4.49735 22.3173 4.54321 22.4955C5.00988 24.3089 5.9705 25.7165 7.42705 26.7366C8.90504 27.748 10.6481 28.2592 12.6711 28.2592C13.9834 28.2592 15.1561 28.0564 16.1942 27.6574C17.2445 27.2451 18.0595 26.6667 18.6546 25.9293C19.24 25.2039 19.5355 24.3453 19.5355 23.3359C19.5355 22.7093 19.4245 22.1963 19.2184 21.7841L19.213 21.7729C19.0123 21.3338 18.732 20.9669 18.3709 20.6681L18.3608 20.6594C17.9983 20.3357 17.5821 20.0621 17.1104 19.8393C16.6277 19.6114 16.1245 19.4235 15.6005 19.2757L15.5958 19.2743L7.93511 16.9991C7.0824 16.7433 6.25782 16.4234 5.46157 16.0395L5.4594 16.0385L5.45695 16.0372C4.64847 15.633 3.92431 15.1337 3.28609 14.539L3.28405 14.5371L3.28296 14.536C2.6358 13.9183 2.12251 13.184 1.74269 12.3367L1.74177 12.3346C1.3558 11.4588 1.16879 10.4406 1.16879 9.28951C1.16879 7.44414 1.64577 5.85066 2.61543 4.5284L2.61583 4.52785C3.58981 3.20498 4.90275 2.19979 6.54251 1.50936C8.1798 0.819978 10.0168 0.486235 12.0475 0.500435C14.1059 0.514631 15.9572 0.883808 17.5948 1.6161C19.2448 2.33381 20.6135 3.37005 21.6945 4.72454C22.7917 6.08191 23.5236 7.70168 23.8953 9.5748C23.914 9.6691 23.894 9.76695 23.8396 9.84624C23.7852 9.92552 23.7012 9.97954 23.6065 9.99608L19.6618 10.6848C19.5683 10.7012 19.4721 10.6796 19.3945 10.6248C19.3169 10.5701 19.2644 10.4867 19.2484 10.3931C19.0492 9.22426 18.6068 8.2329 17.9266 7.40881L17.9228 7.40404C17.2501 6.55995 16.4065 5.91325 15.3863 5.46277L15.3827 5.46119C14.3604 4.9965 13.2342 4.75523 11.9994 4.74181L11.9992 4.74181C10.8154 4.72836 9.75749 4.91669 8.81975 5.29972C7.87932 5.68384 7.14532 6.21395 6.60406 6.88409L6.60191 6.88672C6.07097 7.53143 5.80676 8.27183 5.80676 9.12254C5.80676 9.96725 6.04744 10.6189 6.50323 11.1115C6.99523 11.6289 7.60001 12.0467 8.32309 12.3627C9.08968 12.6774 9.83396 12.9367 10.556 13.1411L10.5577 13.1415L16.2745 14.7898C16.941 14.9742 17.7021 15.2282 18.5566 15.5504C19.4512 15.8823 20.3137 16.35 21.144 16.9511C21.9987 17.5557 22.7005 18.3629 23.252 19.3639C23.8185 20.3781 24.09 21.6392 24.09 23.1272C24.09 24.6228 23.7878 25.9671 23.1741 27.1513C22.5782 28.3278 21.742 29.316 20.6691 30.1134L20.6666 30.1153C19.5999 30.8937 18.3648 31.4813 16.9661 31.8812C15.567 32.295 14.0722 32.5006 12.4833 32.5006C10.3136 32.5006 8.34517 32.1318 6.58378 31.3872Z" fill="white"/>
</g>
</svg>
