<svg width="104" height="95" viewBox="0 0 104 95" fill="none" xmlns="http://www.w3.org/2000/svg">
<path d="M11 59C11 58.4477 11.4477 58 12 58H42C42.5523 58 43 58.4477 43 59C43 59.5523 42.5523 60 42 60H12C11.4477 60 11 59.5523 11 59Z" fill="url(#paint0_linear_2305_854321)"/>
<path d="M12 64C11.4477 64 11 64.4477 11 65C11 65.5523 11.4477 66 12 66H34C34.5523 66 35 65.5523 35 65C35 64.4477 34.5523 64 34 64H12Z" fill="url(#paint1_linear_2305_854321)"/>
<path d="M11 71C11 70.4477 11.4477 70 12 70H39C39.5523 70 40 70.4477 40 71C40 71.5523 39.5523 72 39 72H12C11.4477 72 11 71.5523 11 71Z" fill="url(#paint2_linear_2305_854321)"/>
<path d="M11 46V43.75H13V46C13 47.1046 13.8954 48 15 48H17.25V50H15C12.7909 50 11 48.2091 11 46Z" fill="url(#paint3_linear_2305_854321)"/>
<path d="M21.75 50V48H26.25V50H21.75Z" fill="url(#paint4_linear_2305_854321)"/>
<path d="M30.75 50V48H35.25V50H30.75Z" fill="url(#paint5_linear_2305_854321)"/>
<path d="M39.75 50V48H42C43.1046 48 44 47.1046 44 46V43.75H46V46C46 48.2091 44.2091 50 42 50H39.75Z" fill="url(#paint6_linear_2305_854321)"/>
<path d="M46 39.25H44V34.75H46V39.25Z" fill="url(#paint7_linear_2305_854321)"/>
<path d="M46 30.25H44V25.75H46V30.25Z" fill="url(#paint8_linear_2305_854321)"/>
<path d="M46 21.25H44V19C44 17.8954 43.1046 17 42 17H39.75V15H42C44.2091 15 46 16.7909 46 19V21.25Z" fill="url(#paint9_linear_2305_854321)"/>
<path d="M35.25 15V17H30.75V15H35.25Z" fill="url(#paint10_linear_2305_854321)"/>
<path d="M26.25 15V17H21.75V15H26.25Z" fill="url(#paint11_linear_2305_854321)"/>
<path d="M17.25 15V17H15C13.8954 17 13 17.8954 13 19V21.25H11V19C11 16.7909 12.7909 15 15 15H17.25Z" fill="url(#paint12_linear_2305_854321)"/>
<path d="M11 25.75H13V30.25H11V25.75Z" fill="url(#paint13_linear_2305_854321)"/>
<path d="M11 34.75H13V39.25H11V34.75Z" fill="url(#paint14_linear_2305_854321)"/>
<path fill-rule="evenodd" clip-rule="evenodd" d="M28.5 44C22.1487 44 17 38.8513 17 32.5C17 26.1487 22.1487 21 28.5 21C34.8513 21 40 26.1487 40 32.5C40 38.8513 34.8513 44 28.5 44ZM19 32.5C19 37.7467 23.2533 42 28.5 42C33.7467 42 38 37.7467 38 32.5C38 27.2533 33.7467 23 28.5 23C23.2533 23 19 27.2533 19 32.5Z" fill="url(#paint15_linear_2305_854321)"/>
<path d="M59 17C59 16.4477 59.4477 16 60 16H90C90.5523 16 91 16.4477 91 17C91 17.5523 90.5523 18 90 18H60C59.4477 18 59 17.5523 59 17Z" fill="url(#paint16_linear_2305_854321)"/>
<path d="M59 23C59 22.4477 59.4477 22 60 22H82C82.5523 22 83 22.4477 83 23C83 23.5523 82.5523 24 82 24H60C59.4477 24 59 23.5523 59 23Z" fill="url(#paint17_linear_2305_854321)"/>
<path d="M59 29C59 28.4477 59.4477 28 60 28H87C87.5523 28 88 28.4477 88 29C88 29.5523 87.5523 30 87 30H60C59.4477 30 59 29.5523 59 29Z" fill="url(#paint18_linear_2305_854321)"/>
<path d="M58 69V66.75H60V69C60 70.1046 60.8954 71 62 71H64.25V73H62C59.7909 73 58 71.2091 58 69Z" fill="url(#paint19_linear_2305_854321)"/>
<path d="M73.25 73H68.75V71H73.25V73Z" fill="url(#paint20_linear_2305_854321)"/>
<path d="M82.25 73H77.75V71H82.25V73Z" fill="url(#paint21_linear_2305_854321)"/>
<path d="M89 73H86.75V71H89C90.1046 71 91 70.1046 91 69V66.75H93V69C93 71.2091 91.2091 73 89 73Z" fill="url(#paint22_linear_2305_854321)"/>
<path d="M93 62.25H91V57.75H93V62.25Z" fill="url(#paint23_linear_2305_854321)"/>
<path d="M93 53.25H91V48.75H93V53.25Z" fill="url(#paint24_linear_2305_854321)"/>
<path d="M93 44.25H91V42C91 40.8954 90.1046 40 89 40H86.75V38H89C91.2091 38 93 39.7909 93 42V44.25Z" fill="url(#paint25_linear_2305_854321)"/>
<path d="M82.25 38V40H77.75V38H82.25Z" fill="url(#paint26_linear_2305_854321)"/>
<path d="M73.25 38V40H68.75V38H73.25Z" fill="url(#paint27_linear_2305_854321)"/>
<path d="M64.25 38V40H62C60.8954 40 60 40.8954 60 42V44.25H58V42C58 39.7909 59.7909 38 62 38H64.25Z" fill="url(#paint28_linear_2305_854321)"/>
<path d="M58 53.25V48.75H60V53.25H58Z" fill="url(#paint29_linear_2305_854321)"/>
<path d="M64 55.5C64 61.8513 69.1487 67 75.5 67C81.8513 67 87 61.8513 87 55.5C87 49.1487 81.8513 44 75.5 44C69.1487 44 64 49.1487 64 55.5Z" fill="url(#paint30_linear_2305_854321)"/>
<path d="M58 57.75H60V62.25H58V57.75Z" fill="url(#paint31_linear_2305_854321)"/>
<path fill-rule="evenodd" clip-rule="evenodd" d="M4 87C4 89.2091 5.79086 91 8 91H96C98.2091 91 100 89.2091 100 87V6C100 3.23858 97.7614 1 95 1H61C57.0418 1 53.6207 3.2997 52 6.63588C50.3793 3.2997 46.9582 1 43 1H9C6.23857 1 4 3.23858 4 6V87ZM46.5 87C47.7095 87 48.7184 87.8589 48.95 89H8C6.89543 89 6 88.1046 6 87V86.0004C6.83566 86.6281 7.87439 87 9 87H46.5ZM44 83C45.7876 83 47.356 83.938 48.24 85.3487C47.7047 85.1241 47.1169 85 46.5 85H9C7.34327 85 6.0002 83.6571 6 82.0004C6.83566 82.6281 7.87439 83 9 83H44ZM98 82.0004C97.1643 82.6281 96.1256 83 95 83H60C58.2124 83 56.644 83.938 55.76 85.3487C56.2953 85.1241 56.8831 85 57.5 85H95C96.6567 85 97.9998 83.6571 98 82.0004ZM55.05 89C55.2816 87.8589 56.2905 87 57.5 87H95C96.1256 87 97.1643 86.6281 98 86.0004V87C98 88.1046 97.1046 89 96 89H55.05ZM6 78V6C6 4.34315 7.34315 3 9 3H43C47.4183 3 51 6.58172 51 11V88C51 86.0927 50.2372 84.3636 49 83.101C47.7295 81.8045 45.9587 81 44 81H9C7.34315 81 6 79.6569 6 78ZM98 78V6C98 4.34315 96.6569 3 95 3H61C56.5817 3 53 6.58172 53 11V88C53 86.0927 53.7628 84.3636 55 83.101C56.2705 81.8045 58.0413 81 60 81H95C96.6569 81 98 79.6569 98 78Z" fill="url(#paint32_linear_2305_854321)"/>
<path d="M0 14C0 12.5195 0.804397 11.2268 2 10.5352V91C2 92.1046 2.89543 93 4 93H100C101.105 93 102 92.1046 102 91V10.5352C103.196 11.2268 104 12.5195 104 14V91C104 93.2092 102.209 95 100 95H4C1.79086 95 0 93.2092 0 91V14Z" fill="url(#paint33_linear_2305_854321)"/>
<defs>
<linearGradient id="paint0_linear_2305_854321" x1="104" y1="-29.151" x2="-46.7203" y2="11.5517" gradientUnits="userSpaceOnUse">
<stop stop-color="#E1B0A8"/>
<stop offset="0.963542" stop-color="#D3A2E7"/>
</linearGradient>
<linearGradient id="paint1_linear_2305_854321" x1="104" y1="-29.151" x2="-46.7203" y2="11.5517" gradientUnits="userSpaceOnUse">
<stop stop-color="#E1B0A8"/>
<stop offset="0.963542" stop-color="#D3A2E7"/>
</linearGradient>
<linearGradient id="paint2_linear_2305_854321" x1="104" y1="-29.151" x2="-46.7203" y2="11.5517" gradientUnits="userSpaceOnUse">
<stop stop-color="#E1B0A8"/>
<stop offset="0.963542" stop-color="#D3A2E7"/>
</linearGradient>
<linearGradient id="paint3_linear_2305_854321" x1="104" y1="-29.151" x2="-46.7203" y2="11.5517" gradientUnits="userSpaceOnUse">
<stop stop-color="#E1B0A8"/>
<stop offset="0.963542" stop-color="#D3A2E7"/>
</linearGradient>
<linearGradient id="paint4_linear_2305_854321" x1="104" y1="-29.151" x2="-46.7203" y2="11.5517" gradientUnits="userSpaceOnUse">
<stop stop-color="#E1B0A8"/>
<stop offset="0.963542" stop-color="#D3A2E7"/>
</linearGradient>
<linearGradient id="paint5_linear_2305_854321" x1="104" y1="-29.151" x2="-46.7203" y2="11.5517" gradientUnits="userSpaceOnUse">
<stop stop-color="#E1B0A8"/>
<stop offset="0.963542" stop-color="#D3A2E7"/>
</linearGradient>
<linearGradient id="paint6_linear_2305_854321" x1="104" y1="-29.151" x2="-46.7203" y2="11.5517" gradientUnits="userSpaceOnUse">
<stop stop-color="#E1B0A8"/>
<stop offset="0.963542" stop-color="#D3A2E7"/>
</linearGradient>
<linearGradient id="paint7_linear_2305_854321" x1="104" y1="-29.151" x2="-46.7203" y2="11.5517" gradientUnits="userSpaceOnUse">
<stop stop-color="#E1B0A8"/>
<stop offset="0.963542" stop-color="#D3A2E7"/>
</linearGradient>
<linearGradient id="paint8_linear_2305_854321" x1="104" y1="-29.151" x2="-46.7203" y2="11.5517" gradientUnits="userSpaceOnUse">
<stop stop-color="#E1B0A8"/>
<stop offset="0.963542" stop-color="#D3A2E7"/>
</linearGradient>
<linearGradient id="paint9_linear_2305_854321" x1="104" y1="-29.151" x2="-46.7203" y2="11.5517" gradientUnits="userSpaceOnUse">
<stop stop-color="#E1B0A8"/>
<stop offset="0.963542" stop-color="#D3A2E7"/>
</linearGradient>
<linearGradient id="paint10_linear_2305_854321" x1="104" y1="-29.151" x2="-46.7203" y2="11.5517" gradientUnits="userSpaceOnUse">
<stop stop-color="#E1B0A8"/>
<stop offset="0.963542" stop-color="#D3A2E7"/>
</linearGradient>
<linearGradient id="paint11_linear_2305_854321" x1="104" y1="-29.151" x2="-46.7203" y2="11.5517" gradientUnits="userSpaceOnUse">
<stop stop-color="#E1B0A8"/>
<stop offset="0.963542" stop-color="#D3A2E7"/>
</linearGradient>
<linearGradient id="paint12_linear_2305_854321" x1="104" y1="-29.151" x2="-46.7203" y2="11.5517" gradientUnits="userSpaceOnUse">
<stop stop-color="#E1B0A8"/>
<stop offset="0.963542" stop-color="#D3A2E7"/>
</linearGradient>
<linearGradient id="paint13_linear_2305_854321" x1="104" y1="-29.151" x2="-46.7203" y2="11.5517" gradientUnits="userSpaceOnUse">
<stop stop-color="#E1B0A8"/>
<stop offset="0.963542" stop-color="#D3A2E7"/>
</linearGradient>
<linearGradient id="paint14_linear_2305_854321" x1="104" y1="-29.151" x2="-46.7203" y2="11.5517" gradientUnits="userSpaceOnUse">
<stop stop-color="#E1B0A8"/>
<stop offset="0.963542" stop-color="#D3A2E7"/>
</linearGradient>
<linearGradient id="paint15_linear_2305_854321" x1="104" y1="-29.151" x2="-46.7203" y2="11.5517" gradientUnits="userSpaceOnUse">
<stop stop-color="#E1B0A8"/>
<stop offset="0.963542" stop-color="#D3A2E7"/>
</linearGradient>
<linearGradient id="paint16_linear_2305_854321" x1="104" y1="-29.151" x2="-46.7203" y2="11.5517" gradientUnits="userSpaceOnUse">
<stop stop-color="#E1B0A8"/>
<stop offset="0.963542" stop-color="#D3A2E7"/>
</linearGradient>
<linearGradient id="paint17_linear_2305_854321" x1="104" y1="-29.151" x2="-46.7203" y2="11.5517" gradientUnits="userSpaceOnUse">
<stop stop-color="#E1B0A8"/>
<stop offset="0.963542" stop-color="#D3A2E7"/>
</linearGradient>
<linearGradient id="paint18_linear_2305_854321" x1="104" y1="-29.151" x2="-46.7203" y2="11.5517" gradientUnits="userSpaceOnUse">
<stop stop-color="#E1B0A8"/>
<stop offset="0.963542" stop-color="#D3A2E7"/>
</linearGradient>
<linearGradient id="paint19_linear_2305_854321" x1="104" y1="-29.151" x2="-46.7203" y2="11.5517" gradientUnits="userSpaceOnUse">
<stop stop-color="#E1B0A8"/>
<stop offset="0.963542" stop-color="#D3A2E7"/>
</linearGradient>
<linearGradient id="paint20_linear_2305_854321" x1="104" y1="-29.151" x2="-46.7203" y2="11.5517" gradientUnits="userSpaceOnUse">
<stop stop-color="#E1B0A8"/>
<stop offset="0.963542" stop-color="#D3A2E7"/>
</linearGradient>
<linearGradient id="paint21_linear_2305_854321" x1="104" y1="-29.151" x2="-46.7203" y2="11.5517" gradientUnits="userSpaceOnUse">
<stop stop-color="#E1B0A8"/>
<stop offset="0.963542" stop-color="#D3A2E7"/>
</linearGradient>
<linearGradient id="paint22_linear_2305_854321" x1="104" y1="-29.151" x2="-46.7203" y2="11.5517" gradientUnits="userSpaceOnUse">
<stop stop-color="#E1B0A8"/>
<stop offset="0.963542" stop-color="#D3A2E7"/>
</linearGradient>
<linearGradient id="paint23_linear_2305_854321" x1="104" y1="-29.151" x2="-46.7203" y2="11.5517" gradientUnits="userSpaceOnUse">
<stop stop-color="#E1B0A8"/>
<stop offset="0.963542" stop-color="#D3A2E7"/>
</linearGradient>
<linearGradient id="paint24_linear_2305_854321" x1="104" y1="-29.151" x2="-46.7203" y2="11.5517" gradientUnits="userSpaceOnUse">
<stop stop-color="#E1B0A8"/>
<stop offset="0.963542" stop-color="#D3A2E7"/>
</linearGradient>
<linearGradient id="paint25_linear_2305_854321" x1="104" y1="-29.151" x2="-46.7203" y2="11.5517" gradientUnits="userSpaceOnUse">
<stop stop-color="#E1B0A8"/>
<stop offset="0.963542" stop-color="#D3A2E7"/>
</linearGradient>
<linearGradient id="paint26_linear_2305_854321" x1="104" y1="-29.151" x2="-46.7203" y2="11.5517" gradientUnits="userSpaceOnUse">
<stop stop-color="#E1B0A8"/>
<stop offset="0.963542" stop-color="#D3A2E7"/>
</linearGradient>
<linearGradient id="paint27_linear_2305_854321" x1="104" y1="-29.151" x2="-46.7203" y2="11.5517" gradientUnits="userSpaceOnUse">
<stop stop-color="#E1B0A8"/>
<stop offset="0.963542" stop-color="#D3A2E7"/>
</linearGradient>
<linearGradient id="paint28_linear_2305_854321" x1="104" y1="-29.151" x2="-46.7203" y2="11.5517" gradientUnits="userSpaceOnUse">
<stop stop-color="#E1B0A8"/>
<stop offset="0.963542" stop-color="#D3A2E7"/>
</linearGradient>
<linearGradient id="paint29_linear_2305_854321" x1="104" y1="-29.151" x2="-46.7203" y2="11.5517" gradientUnits="userSpaceOnUse">
<stop stop-color="#E1B0A8"/>
<stop offset="0.963542" stop-color="#D3A2E7"/>
</linearGradient>
<linearGradient id="paint30_linear_2305_854321" x1="104" y1="-29.151" x2="-46.7203" y2="11.5517" gradientUnits="userSpaceOnUse">
<stop stop-color="#E1B0A8"/>
<stop offset="0.963542" stop-color="#D3A2E7"/>
</linearGradient>
<linearGradient id="paint31_linear_2305_854321" x1="104" y1="-29.151" x2="-46.7203" y2="11.5517" gradientUnits="userSpaceOnUse">
<stop stop-color="#E1B0A8"/>
<stop offset="0.963542" stop-color="#D3A2E7"/>
</linearGradient>
<linearGradient id="paint32_linear_2305_854321" x1="104" y1="-29.151" x2="-46.7203" y2="11.5517" gradientUnits="userSpaceOnUse">
<stop stop-color="#E1B0A8"/>
<stop offset="0.963542" stop-color="#D3A2E7"/>
</linearGradient>
<linearGradient id="paint33_linear_2305_854321" x1="104" y1="-29.151" x2="-46.7203" y2="11.5517" gradientUnits="userSpaceOnUse">
<stop stop-color="#E1B0A8"/>
<stop offset="0.963542" stop-color="#D3A2E7"/>
</linearGradient>
</defs>
</svg>
