<svg width="32" height="38" viewBox="0 0 32 38" fill="none" xmlns="http://www.w3.org/2000/svg">
<path fill-rule="evenodd" clip-rule="evenodd" d="M7 2C7 0.89543 7.89543 0 9 0C10.1046 0 11 0.895431 11 2V36C11 37.1046 10.1046 38 9 38C7.89543 38 7 37.1046 7 36V2ZM0 18C0 16.8954 0.895431 16 2 16C3.10457 16 4 16.8954 4 18V36C4 37.1046 3.10457 38 2 38C0.895431 38 0 37.1046 0 36V18ZM16 21C14.8954 21 14 21.8954 14 23V36C14 37.1046 14.8954 38 16 38C17.1046 38 18 37.1046 18 36V23C18 21.8954 17.1046 21 16 21ZM21 10C21 8.89543 21.8954 8 23 8C24.1046 8 25 8.89543 25 10V36C25 37.1046 24.1046 38 23 38C21.8954 38 21 37.1046 21 36V10ZM30 3C28.8954 3 28 3.89543 28 5V36C28 37.1046 28.8954 38 30 38C31.1046 38 32 37.1046 32 36V5C32 3.89543 31.1046 3 30 3Z" fill="url(#paint0_linear_6570_14969)"/>
<defs>
<linearGradient id="paint0_linear_6570_14969" x1="-12.8648" y1="-1.26132e-07" x2="49.101" y2="28.9248" gradientUnits="userSpaceOnUse">
<stop stop-color="#EC796B"/>
<stop offset="1" stop-color="#D672EF"/>
</linearGradient>
</defs>
</svg>
