<svg width="206" height="107" viewBox="0 0 206 107" fill="none" xmlns="http://www.w3.org/2000/svg">
<path d="M1.55696 23.8439C1.55696 36.2566 11.6192 46.3188 24.0319 46.3188C36.4446 46.3188 46.5075 36.2566 46.5075 23.8439C46.5075 11.4312 36.4446 1.36893 24.0319 1.36893C11.6192 1.36893 1.55696 11.4312 1.55696 23.8439Z" fill="#0C0C4F" stroke="url(#paint0_linear_4858_15101)" stroke-width="1.16755"/>
<path fill-rule="evenodd" clip-rule="evenodd" d="M13.8611 18.4099L14.4303 16.6513C14.546 16.2937 14.8283 16.0153 15.1873 15.9056L16.9545 15.3622C17.1991 15.2875 17.2011 14.9423 16.9584 14.8637L15.1992 14.2945C14.8422 14.1788 14.5639 13.8965 14.4535 13.5375L13.9107 11.7703C13.836 11.5264 13.4909 11.5237 13.4122 11.767L12.843 13.5256C12.7273 13.8826 12.445 14.1609 12.086 14.2713L10.3188 14.8141C10.0742 14.8895 10.0716 15.2339 10.3149 15.3126L12.0741 15.8818C12.4311 15.9975 12.7094 16.2804 12.8198 16.6394L13.3626 18.4059C13.4373 18.6505 13.7824 18.6532 13.8611 18.4099Z" fill="#FAFAFA"/>
<path fill-rule="evenodd" clip-rule="evenodd" d="M41.7931 17.3857C41.0646 16.571 39.9275 16.1123 38.8221 15.9242C37.7079 15.7436 36.5397 15.7603 35.4397 15.9558C33.2141 16.3322 31.1922 17.2538 29.4287 18.3907C28.5129 18.9486 27.7319 19.5942 26.9228 20.2517C26.533 20.5842 26.1776 20.9383 25.8074 21.2874L24.7959 22.2937C23.6969 23.4425 22.6136 24.4889 21.5655 25.3561C20.5132 26.2194 19.5293 26.8751 18.5597 27.333C17.5908 27.7932 16.554 28.0639 15.2026 28.1072C13.863 28.1545 12.2782 27.9127 10.583 27.5137C8.87863 27.1164 7.08892 26.5501 5.08894 26.0628C5.78678 27.9988 6.83764 29.7096 8.18682 31.2735C9.55183 32.8103 11.2563 34.211 13.4459 35.1321C15.6039 36.0737 18.3159 36.4117 20.8516 35.9017C23.394 35.4124 25.6252 34.2359 27.4287 32.8753C29.2367 31.5007 30.6995 29.935 31.9328 28.3072C32.2732 27.8575 32.4533 27.6057 32.6996 27.2542L33.3804 26.2456C33.8537 25.6217 34.2844 24.9114 34.7528 24.2933C35.6711 22.9987 36.5764 21.7056 37.6284 20.5143C38.158 19.9101 38.7161 19.3321 39.3753 18.7767C39.7041 18.5056 40.0593 18.2402 40.4527 18.0012C40.852 17.7435 41.2738 17.5417 41.7931 17.3857Z" fill="url(#paint1_linear_4858_15101)"/>
<path fill-rule="evenodd" clip-rule="evenodd" d="M41.7929 17.3879C41.0102 15.413 39.5552 13.7506 37.6023 12.5239C35.6613 11.3106 32.9652 10.6914 30.2938 11.2193C28.974 11.4745 27.6953 11.9659 26.5732 12.6203C25.4562 13.2722 24.4553 14.0568 23.5888 14.8986C23.1562 15.3209 22.7636 15.7614 22.3735 16.2044L21.3625 17.4934L19.8009 19.5684C17.8101 22.2381 15.6663 25.3669 12.1483 26.2939C8.6946 27.2041 7.19666 26.398 5.08877 26.065C5.47419 27.0601 5.95162 28.0265 6.59885 28.8766C7.23402 29.7439 7.98426 30.5586 8.91703 31.2569C9.3884 31.5923 9.88607 31.9233 10.4388 32.204C10.989 32.4752 11.5824 32.714 12.2157 32.8937C13.4755 33.239 14.8938 33.3599 16.267 33.1742C17.6409 32.9909 18.9541 32.5555 20.102 31.9772C21.2583 31.4044 22.2656 30.7068 23.1651 29.9706C24.953 28.4858 26.3438 26.8452 27.5185 25.1869C28.1094 24.3577 28.6458 23.513 29.1418 22.668L29.7257 21.6619C29.9042 21.3679 30.0847 21.072 30.2681 20.7964C31.0079 19.6893 31.7314 18.8016 32.6104 18.1353C33.4771 17.4517 34.6838 16.9467 36.2966 16.8294C37.9026 16.7107 39.7567 16.93 41.7929 17.3879Z" fill="#FAFAFA"/>
<path fill-rule="evenodd" clip-rule="evenodd" d="M33.1044 33.7949C33.1044 35.2455 34.2809 36.4219 35.7314 36.4219C37.1819 36.4219 38.3569 35.2455 38.3569 33.7949C38.3569 32.3444 37.1819 31.168 35.7314 31.168C34.2809 31.168 33.1044 32.3444 33.1044 33.7949Z" fill="url(#paint2_linear_4858_15101)"/>
<path d="M202.501 17.3937V14.7412C202.501 14.636 202.416 14.5508 202.311 14.5508H187.197C187.092 14.5508 187.007 14.636 187.007 14.7412V17.3937H193.149V34.5538H196.359V17.3937H202.501Z" fill="white"/>
<path d="M171.21 14.5508C171.105 14.5508 171.02 14.636 171.02 14.7412V34.3633C171.02 34.4685 171.105 34.5538 171.21 34.5538H183.929C184.034 34.5538 184.12 34.4685 184.12 34.3633V31.739H174.229V25.4525H182.401V22.694H174.229V17.3656H183.415V14.7412C183.415 14.636 183.33 14.5508 183.225 14.5508H171.21Z" fill="white"/>
<path d="M163.835 34.4374L163.904 34.5538H166.37C166.475 34.5538 166.56 34.4685 166.56 34.3633V14.7412C166.56 14.636 166.475 14.5508 166.37 14.5508H163.407V28.4039C162.893 27.5851 162.296 26.6837 161.616 25.6999C160.75 24.4197 159.818 23.1209 158.821 21.8037C157.842 20.4677 156.845 19.1786 155.828 17.9363C154.83 16.6743 153.887 15.5706 152.999 14.6258L152.928 14.5508H150.608C150.503 14.5508 150.417 14.636 150.417 14.7412V34.3633C150.417 34.4685 150.503 34.5538 150.608 34.5538H153.57V19.7134C153.975 20.1918 154.407 20.7219 154.864 21.304C155.482 22.0905 156.119 22.9335 156.775 23.8331L156.776 23.8341L156.776 23.835C157.432 24.7153 158.088 25.6333 158.743 26.5889L158.744 26.5902L158.745 26.5915C159.42 27.5476 160.067 28.4942 160.685 29.4313L160.686 29.4322L160.686 29.4331C161.305 30.3508 161.875 31.2401 162.399 32.1008L162.4 32.1024L162.401 32.104C162.945 32.9667 163.423 33.7445 163.835 34.4374Z" fill="white"/>
<path d="M146.541 14.9492L146.614 14.8695C146.725 14.7472 146.639 14.5508 146.473 14.5508H142.96L142.888 14.6334C142.422 15.1744 141.842 15.8102 141.149 16.541L141.149 16.5412C140.473 17.254 139.751 18.0046 138.982 18.7928C138.212 19.5807 137.434 20.3687 136.646 21.1567C136.016 21.7719 135.428 22.339 134.882 22.8579V14.5508H131.863C131.758 14.5508 131.672 14.636 131.672 14.7412V34.3633C131.672 34.4685 131.758 34.5538 131.863 34.5538H134.882V25.4792C135.544 25.9131 136.222 26.4207 136.914 27.0027L136.915 27.0036L136.916 27.0044C137.754 27.6937 138.574 28.4486 139.376 29.2693L139.378 29.2712L139.38 29.2732C140.2 30.0745 140.974 30.9225 141.7 31.8172L141.701 31.8181L141.702 31.8191C142.429 32.6951 143.071 33.57 143.629 34.4438L143.699 34.5538H147.124C147.27 34.5538 147.362 34.3954 147.289 34.2685L147.248 34.1972C146.734 33.3027 146.089 32.3636 145.313 31.38C144.558 30.3978 143.746 29.4348 142.878 28.4909C142.009 27.5469 141.121 26.6592 140.214 25.8279C139.393 25.075 138.608 24.4285 137.86 23.8894C138.497 23.2683 139.171 22.6015 139.884 21.8888C140.673 21.0991 141.463 20.3001 142.253 19.4917C143.061 18.6645 143.832 17.8654 144.565 17.0943L144.566 17.0933L144.567 17.0923C145.3 16.3029 145.958 15.5885 146.541 14.9492Z" fill="white"/>
<path fill-rule="evenodd" clip-rule="evenodd" d="M113.455 14.4028C113.35 14.4028 113.265 14.4881 113.265 14.5932V34.3773C113.265 34.4824 113.35 34.5677 113.455 34.5677H116.174V27.2937H120.147C120.594 27.8288 121.03 28.3887 121.455 28.9734L121.456 28.9756L121.458 28.9778C122.153 29.8894 122.796 30.8405 123.386 31.831L123.386 31.832L123.387 31.8331C123.921 32.7096 124.387 33.5753 124.786 34.4302L124.85 34.5677H128.068C128.206 34.5677 128.298 34.4257 128.24 34.3002C127.87 33.4891 127.469 32.6951 127.024 31.9214C126.418 30.8402 125.754 29.7698 125.032 28.7102C124.619 28.1046 124.197 27.5163 123.767 26.9453C124.967 26.5783 125.917 25.9147 126.604 24.9515L126.604 24.9508C127.429 23.7851 127.837 22.4141 127.837 20.8482C127.837 19.7722 127.65 18.7876 127.272 17.8979C126.892 16.9953 126.32 16.2468 125.558 15.6562C124.801 15.0625 123.869 14.6848 122.772 14.5154C122.516 14.4682 122.251 14.4399 121.979 14.4303C121.712 14.412 121.48 14.4027 121.283 14.4027C120.448 14.4027 119.614 14.4026 118.779 14.4025L118.779 14.4025C117.005 14.4023 115.23 14.4022 113.455 14.4028ZM124.873 20.8482C124.873 21.3679 124.786 21.8793 124.613 22.3834C124.443 22.8675 124.171 23.2919 123.796 23.6586C123.441 24.0058 122.972 24.2521 122.378 24.3899C122.19 24.4326 121.987 24.4629 121.769 24.4803L121.769 24.4804L121.769 24.4804C121.555 24.4982 121.366 24.5069 121.201 24.5069H116.174V17.1894H121.201C121.366 17.1894 121.555 17.1982 121.769 17.216L121.774 17.2164L121.779 17.2166C121.991 17.2251 122.187 17.2546 122.368 17.3041L122.374 17.3057L122.381 17.3071C122.972 17.4357 123.439 17.6811 123.794 18.0358L123.795 18.0368L123.796 18.0377C124.171 18.4039 124.442 18.8325 124.612 19.3261L124.613 19.3267L124.613 19.3273C124.786 19.8217 124.873 20.3283 124.873 20.8482Z" fill="white"/>
<path fill-rule="evenodd" clip-rule="evenodd" d="M106.125 31.9129L106.125 31.9137L106.125 31.9145C106.408 32.7243 106.709 33.5527 107.029 34.3998L107.087 34.5538H110.307C110.439 34.5538 110.531 34.4225 110.485 34.2983C109.782 32.3662 109.072 30.4366 108.348 28.5124C107.69 26.7453 107.042 25.0718 106.402 23.4921C105.782 21.9123 105.161 20.4074 104.54 18.9774C103.917 17.5239 103.262 16.085 102.579 14.6588C102.547 14.5928 102.48 14.5508 102.407 14.5508H99.8393C99.7661 14.5508 99.6993 14.5928 99.6677 14.6588C98.9848 16.085 98.3294 17.524 97.7065 18.9775C97.0858 20.407 96.4558 21.9114 95.8165 23.4908L95.8161 23.492L95.8156 23.4931C95.1952 25.0724 94.556 26.7454 93.8982 28.5123C93.174 30.4366 92.4641 32.3662 91.7609 34.2983C91.7157 34.4225 91.8077 34.5538 91.9398 34.5538H95.0217L95.0217 34.5536H95.082L95.1526 34.4778C95.8961 33.6796 96.727 32.8963 97.6458 32.1281L97.6467 32.1273L97.6476 32.1265C98.57 31.339 99.5316 30.6086 100.533 29.9353L100.535 29.9338L100.537 29.9322C101.523 29.2355 102.515 28.6104 103.514 28.0566L103.515 28.0559L103.516 28.0553C103.876 27.8506 104.23 27.6599 104.579 27.4832L105.252 29.4075L105.253 29.4089L105.253 29.409C105.553 30.2531 105.843 31.0877 106.125 31.9129ZM102.662 22.4245L102.662 22.4262L102.663 22.4278C102.934 23.1142 103.205 23.8121 103.476 24.5216C103.456 24.5305 103.435 24.5398 103.414 24.5494C102.46 24.984 101.435 25.5458 100.338 26.2337C99.2879 26.8922 98.2463 27.6076 97.2131 28.3799L97.6505 27.1304C98.2294 25.5064 98.8082 23.9383 99.3869 22.4261C99.9191 21.0623 100.473 19.7506 101.05 18.4909C101.609 19.7501 102.146 21.0613 102.662 22.4245Z" fill="white"/>
<path d="M92.5466 17.3937V14.7412C92.5466 14.636 92.4613 14.5508 92.3562 14.5508H77.2424C77.1373 14.5508 77.052 14.636 77.052 14.7412V17.3937H83.1947V34.3633C83.1947 34.4685 83.2799 34.5538 83.3851 34.5538H86.2135C86.3187 34.5538 86.4039 34.4685 86.4039 34.3633V17.3937H92.5466Z" fill="white"/>
<path d="M63.184 34.3122L63.1833 34.3119C62.0192 33.8158 61.051 33.1074 60.2834 32.1862L60.2823 32.1849L60.2817 32.1842C59.5217 31.2511 59.0283 30.1513 58.799 28.8904C58.7875 28.8273 58.802 28.7623 58.8391 28.71C58.8762 28.6578 58.9328 28.6227 58.9961 28.6127L61.5561 28.2092C61.6773 28.1901 61.7931 28.2662 61.8237 28.385C62.1348 29.5938 62.7751 30.5321 63.7461 31.2121C64.7313 31.8864 65.8933 32.2271 67.2418 32.2271C68.1166 32.2271 68.8983 32.092 69.5903 31.8259C70.2904 31.5511 70.8337 31.1655 71.2305 30.674C71.6207 30.1905 71.8177 29.6181 71.8177 28.9452C71.8177 28.5275 71.7437 28.1856 71.6063 27.9108L71.6027 27.9033C71.4689 27.6106 71.282 27.366 71.0413 27.1668L71.0346 27.161C70.7929 26.9453 70.5155 26.7629 70.201 26.6144C69.8793 26.4624 69.5438 26.3372 69.1946 26.2387L69.1914 26.2377L64.0848 24.7211C63.5163 24.5505 62.9667 24.3373 62.4359 24.0814L62.4344 24.0807L62.4328 24.0799C61.8939 23.8104 61.4111 23.4776 60.9857 23.0811L60.9843 23.0799L60.9836 23.0792C60.5522 22.6674 60.21 22.1779 59.9569 21.6131L59.9562 21.6117C59.699 21.0278 59.5743 20.3491 59.5743 19.5818C59.5743 18.3517 59.8922 17.2894 60.5386 16.408L60.5389 16.4076C61.1882 15.5258 62.0634 14.8557 63.1564 14.3955C64.2479 13.936 65.4724 13.7135 66.8261 13.7229C68.1982 13.7324 69.4323 13.9785 70.5239 14.4667C71.6239 14.9451 72.5363 15.6359 73.2569 16.5388C73.9883 17.4436 74.4761 18.5233 74.7239 19.772C74.7364 19.8348 74.723 19.9001 74.6868 19.9529C74.6505 20.0058 74.5945 20.0418 74.5314 20.0528L71.9019 20.5119C71.8395 20.5228 71.7754 20.5084 71.7237 20.4719C71.672 20.4354 71.6369 20.3798 71.6263 20.3174C71.4935 19.5383 71.1986 18.8775 70.7452 18.3281L70.7426 18.3249C70.2942 17.7623 69.7318 17.3312 69.0517 17.0309L69.0494 17.0298C68.3679 16.72 67.6172 16.5592 66.794 16.5503L66.7939 16.5503C66.0048 16.5413 65.2996 16.6669 64.6745 16.9222C64.0476 17.1782 63.5583 17.5316 63.1975 17.9783L63.196 17.9801C62.8421 18.4099 62.666 18.9034 62.666 19.4705C62.666 20.0336 62.8264 20.468 63.1303 20.7963C63.4582 21.1413 63.8614 21.4197 64.3434 21.6304C64.8544 21.8402 65.3505 22.013 65.8319 22.1493L65.833 22.1496L69.6438 23.2483C70.0881 23.3713 70.5955 23.5405 71.1651 23.7553C71.7615 23.9766 72.3364 24.2884 72.8899 24.6891C73.4596 25.0921 73.9275 25.6302 74.2951 26.2975C74.6727 26.9735 74.8537 27.8142 74.8537 28.8061C74.8537 29.8031 74.6522 30.6992 74.2431 31.4886C73.846 32.2728 73.2885 32.9316 72.5733 33.4632L72.5717 33.4644C71.8605 33.9833 71.0373 34.375 70.1048 34.6415C69.1722 34.9174 68.1757 35.0545 67.1166 35.0545C65.6703 35.0545 64.3581 34.8086 63.184 34.3122Z" fill="white"/>
<rect x="58.8242" y="46.3672" width="146.25" height="0.75" fill="url(#paint3_linear_4858_15101)"/>
<path d="M28.8086 67.4112C28.604 65.5959 27.7603 64.1896 26.2773 63.1925C24.7944 62.1825 22.9279 61.6776 20.6779 61.6776C19.0671 61.6776 17.6737 61.9332 16.4975 62.4446C15.3214 62.9432 14.4073 63.6335 13.7553 64.5156C13.1161 65.3849 12.7965 66.3757 12.7965 67.4879C12.7965 68.4212 13.0138 69.2266 13.4485 69.9041C13.896 70.5817 14.4776 71.1506 15.1935 71.6108C15.9222 72.0582 16.7021 72.4354 17.533 72.7422C18.364 73.0362 19.163 73.2791 19.93 73.4709L23.7653 74.468C25.0181 74.7749 26.3029 75.1903 27.6197 75.7145C28.9364 76.2386 30.1573 76.929 31.2823 77.7855C32.4073 78.642 33.315 79.7031 34.0053 80.9688C34.7085 82.2344 35.06 83.7493 35.06 85.5135C35.06 87.7379 34.4847 89.7131 33.3342 91.4389C32.1964 93.1648 30.5408 94.5263 28.3675 95.5234C26.207 96.5206 23.5927 97.0192 20.5245 97.0192C17.5842 97.0192 15.0401 96.5526 12.8924 95.6193C10.7447 94.6861 9.06357 93.3629 7.84908 91.6499C6.63459 89.924 5.96342 87.8786 5.83558 85.5135H11.7802C11.8952 86.9325 12.3555 88.1151 13.1609 89.0611C13.979 89.9943 15.021 90.6911 16.2866 91.1513C17.565 91.5987 18.9648 91.8224 20.4862 91.8224C22.1609 91.8224 23.6502 91.5604 24.9542 91.0362C26.271 90.4993 27.3065 89.7578 28.0607 88.8118C28.815 87.853 29.1921 86.7344 29.1921 85.456C29.1921 84.2926 28.8597 83.3402 28.195 82.5987C27.543 81.8572 26.6545 81.2436 25.5295 80.7578C24.4173 80.272 23.158 79.8438 21.7518 79.473L17.1112 78.2074C13.9663 77.3509 11.4734 76.0916 9.63246 74.4297C7.80433 72.7678 6.89027 70.5689 6.89027 67.8331C6.89027 65.5703 7.50391 63.5952 8.73118 61.9077C9.95845 60.2202 11.6204 58.9098 13.717 57.9766C15.8136 57.0305 18.1786 56.5575 20.8121 56.5575C23.4712 56.5575 25.8171 57.0241 27.8498 57.9574C29.8952 58.8906 31.506 60.1754 32.6822 61.8118C33.8583 63.4354 34.4719 65.3018 34.5231 67.4112H28.8086ZM61.419 84.152V66.9126H67.1718V96.3672H61.534V91.2663H61.2272C60.5496 92.8388 59.463 94.1491 57.9673 95.1974C56.4843 96.233 54.637 96.7507 52.4254 96.7507C50.5333 96.7507 48.8586 96.3352 47.4012 95.5043C45.9566 94.6605 44.8188 93.4141 43.9879 91.7649C43.1697 90.1158 42.7606 88.0767 42.7606 85.6477V66.9126H48.4942V84.9574C48.4942 86.9645 49.0504 88.5625 50.1626 89.7514C51.2748 90.9403 52.7194 91.5348 54.4964 91.5348C55.5702 91.5348 56.6377 91.2663 57.6988 90.7294C58.7727 90.1925 59.6611 89.3807 60.3643 88.294C61.0802 87.2074 61.4317 85.8267 61.419 84.152ZM75.9558 96.3672V66.9126H81.4594V71.7067H81.8237C82.4373 70.0831 83.4409 68.8175 84.8344 67.9098C86.2278 66.9893 87.8962 66.5291 89.8393 66.5291C91.8081 66.5291 93.4572 66.9893 94.7868 67.9098C96.1291 68.8303 97.1199 70.0959 97.7591 71.7067H98.0659C98.769 70.1342 99.8876 68.8814 101.422 67.9482C102.956 67.0021 104.784 66.5291 106.906 66.5291C109.578 66.5291 111.758 67.3665 113.445 69.0412C115.145 70.7159 115.996 73.2408 115.996 76.6158V96.3672H110.262V77.1527C110.262 75.1584 109.719 73.7138 108.632 72.8189C107.545 71.924 106.248 71.4766 104.739 71.4766C102.873 71.4766 101.422 72.0518 100.386 73.2024C99.3507 74.3402 98.8329 75.804 98.8329 77.5938V96.3672H93.1185V76.7884C93.1185 75.1903 92.6199 73.9055 91.6227 72.9339C90.6256 71.9624 89.328 71.4766 87.73 71.4766C86.6433 71.4766 85.6398 71.7642 84.7193 72.3395C83.8116 72.902 83.0766 73.6882 82.5141 74.6982C81.9643 75.7081 81.6895 76.8778 81.6895 78.2074V96.3672H75.9558ZM124.76 96.3672V66.9126H130.264V71.7067H130.628C131.242 70.0831 132.246 68.8175 133.639 67.9098C135.032 66.9893 136.701 66.5291 138.644 66.5291C140.613 66.5291 142.262 66.9893 143.591 67.9098C144.934 68.8303 145.924 70.0959 146.564 71.7067H146.871C147.574 70.1342 148.692 68.8814 150.226 67.9482C151.76 67.0021 153.589 66.5291 155.711 66.5291C158.383 66.5291 160.562 67.3665 162.25 69.0412C163.95 70.7159 164.8 73.2408 164.8 76.6158V96.3672H159.067V77.1527C159.067 75.1584 158.523 73.7138 157.437 72.8189C156.35 71.924 155.052 71.4766 153.544 71.4766C151.677 71.4766 150.226 72.0518 149.191 73.2024C148.155 74.3402 147.638 75.804 147.638 77.5938V96.3672H141.923V76.7884C141.923 75.1903 141.424 73.9055 140.427 72.9339C139.43 71.9624 138.133 71.4766 136.535 71.4766C135.448 71.4766 134.444 71.7642 133.524 72.3395C132.616 72.902 131.881 73.6882 131.319 74.6982C130.769 75.7081 130.494 76.8778 130.494 78.2074V96.3672H124.76ZM173.565 96.3672V66.9126H179.299V96.3672H173.565ZM176.461 62.3679C175.463 62.3679 174.607 62.0355 173.891 61.3707C173.188 60.6932 172.836 59.8878 172.836 58.9545C172.836 58.0085 173.188 57.2031 173.891 56.5384C174.607 55.8608 175.463 55.522 176.461 55.522C177.458 55.522 178.308 55.8608 179.011 56.5384C179.727 57.2031 180.085 58.0085 180.085 58.9545C180.085 59.8878 179.727 60.6932 179.011 61.3707C178.308 62.0355 177.458 62.3679 176.461 62.3679ZM201.842 66.9126V71.5149H185.753V66.9126H201.842ZM190.067 59.8558H195.801V87.7188C195.801 88.831 195.967 89.6683 196.3 90.2308C196.632 90.7805 197.06 91.1577 197.584 91.3622C198.121 91.554 198.703 91.6499 199.33 91.6499C199.79 91.6499 200.192 91.6179 200.538 91.554C200.883 91.4901 201.151 91.4389 201.343 91.4006L202.379 96.1371C202.046 96.2649 201.573 96.3928 200.959 96.5206C200.346 96.6612 199.579 96.7379 198.658 96.7507C197.15 96.7763 195.744 96.5078 194.44 95.9453C193.136 95.3828 192.081 94.5135 191.276 93.3374C190.47 92.1612 190.067 90.6847 190.067 88.9077V59.8558Z" fill="url(#paint4_linear_4858_15101)"/>
<defs>
<linearGradient id="paint0_linear_4858_15101" x1="44.6103" y1="12.6066" x2="2.75612" y2="20.3728" gradientUnits="userSpaceOnUse">
<stop stop-color="#EC796B"/>
<stop offset="1" stop-color="#E175B1"/>
</linearGradient>
<linearGradient id="paint1_linear_4858_15101" x1="41.5967" y1="16.6927" x2="9.29199" y2="34.6424" gradientUnits="userSpaceOnUse">
<stop stop-color="#EC796B"/>
<stop offset="1" stop-color="#E175B1"/>
</linearGradient>
<linearGradient id="paint2_linear_4858_15101" x1="38.3551" y1="31.9521" x2="33.1009" y2="32.5079" gradientUnits="userSpaceOnUse">
<stop stop-color="#EC796B"/>
<stop offset="1" stop-color="#E175B1"/>
</linearGradient>
<linearGradient id="paint3_linear_4858_15101" x1="209" y1="31.4997" x2="-7.5" y2="81.4997" gradientUnits="userSpaceOnUse">
<stop stop-color="#EC796B"/>
<stop offset="1" stop-color="#D672EF"/>
</linearGradient>
<linearGradient id="paint4_linear_4858_15101" x1="205.074" y1="106.367" x2="194.969" y2="23.084" gradientUnits="userSpaceOnUse">
<stop stop-color="#F9E8E8"/>
<stop offset="1" stop-color="#CDCDE8"/>
</linearGradient>
</defs>
</svg>
