<svg width="28" height="28" viewBox="0 0 28 28" fill="none" xmlns="http://www.w3.org/2000/svg">
    <path
        d="M24.88 13.94C24.88 16.8415 23.7274 19.6241 21.6757 21.6757C19.6241 23.7274 16.8415 24.88 13.94 24.88C11.0385 24.88 8.2559 23.7274 6.20425 21.6757C4.1526 19.6241 3 16.8415 3 13.94C3 11.0385 4.1526 8.2559 6.20425 6.20425C8.2559 4.1526 11.0385 3 13.94 3C16.8415 3 19.6241 4.1526 21.6757 6.20425C23.7274 8.2559 24.88 11.0385 24.88 13.94ZM14.3325 11.0765C13.2676 11.5195 11.1407 12.4357 7.95172 13.8251C7.4348 14.0303 7.16358 14.2317 7.13805 14.4296C7.09703 14.7619 7.51412 14.8931 8.08163 15.0723L8.32094 15.1475C8.87888 15.3294 9.63101 15.5413 10.0207 15.5495C10.3763 15.5587 10.772 15.4128 11.2077 15.1119C14.188 13.1008 15.726 12.0843 15.8217 12.0624C15.8901 12.046 15.9858 12.0269 16.0487 12.0843C16.1116 12.1417 16.1061 12.2484 16.0993 12.2771C16.0583 12.4535 14.4214 13.9742 13.5749 14.7619C13.3109 15.008 13.1236 15.1817 13.0853 15.2213C13.001 15.3075 12.9153 15.3923 12.8282 15.4757C12.3086 15.9762 11.9202 16.3509 12.8487 16.9635C13.2959 17.2589 13.6542 17.501 14.0111 17.7444C14.3995 18.0097 14.7878 18.2736 15.2911 18.6045C15.4187 18.6884 15.5418 18.7737 15.6603 18.8603C16.113 19.183 16.5218 19.4729 17.0237 19.4264C17.3164 19.3991 17.6186 19.1256 17.7717 18.3051C18.1341 16.3673 18.8466 12.1705 19.0107 10.4406C19.021 10.2968 19.015 10.1523 18.9929 10.0098C18.9797 9.89495 18.9241 9.78915 18.837 9.71306C18.7124 9.6275 18.5642 9.58303 18.4131 9.58588C18.0028 9.59272 17.3697 9.81288 14.3325 11.0765Z"
        fill="#CCCCCC" />
</svg>