<svg width="114" height="149" viewBox="0 0 114 149" fill="none" xmlns="http://www.w3.org/2000/svg">
<g opacity="0.8">
<path fill-rule="evenodd" clip-rule="evenodd" d="M97.1214 114.533C99.6034 112.029 99.6034 107.969 97.1214 105.465C94.6394 102.962 90.6152 102.962 88.1332 105.465C85.6512 107.969 85.6512 112.029 88.1332 114.533C90.6152 117.037 94.6394 117.037 97.1214 114.533ZM95.6234 106.977C97.278 108.646 97.278 111.353 95.6234 113.022C93.9687 114.691 91.2859 114.691 89.6312 113.022C87.9766 111.353 87.9765 108.646 89.6312 106.977C91.2859 105.307 93.9687 105.307 95.6234 106.977Z" fill="url(#paint0_linear_2116_7738)"/>
<path fill-rule="evenodd" clip-rule="evenodd" d="M17.7346 63.1497C12.3139 57.681 10.6318 49.8689 12.6882 42.9458C12.9111 42.1955 13.1778 41.4558 13.4885 40.7305L28.2209 55.5933C29.0482 56.4279 30.3896 56.4279 31.2169 55.5933L38.7071 48.0368C39.5344 47.2022 39.5344 45.8489 38.7071 45.0143L23.9747 30.1515C24.6936 29.8381 25.4269 29.569 26.1705 29.3442C33.0329 27.2695 40.7765 28.9665 46.1972 34.4352C51.3087 39.5919 53.096 46.8323 51.5591 53.4462L100.126 102.443C104.263 106.616 104.263 113.383 100.126 117.556C95.9896 121.729 89.2827 121.729 85.146 117.556L36.5788 68.559C30.023 70.1095 22.8461 68.3064 17.7346 63.1497ZM86.6441 116.045L37.2431 66.2067L36.0953 66.4782C30.2232 67.8669 23.8044 66.2506 19.2327 61.6384C14.6776 57.0431 13.0708 50.5954 14.4199 44.6928L26.7228 57.1046C28.3775 58.7739 31.0603 58.7739 32.7149 57.1046L40.2051 49.5481C41.8598 47.8788 41.8598 45.1723 40.2051 43.503L27.9022 31.0912C33.753 29.7302 40.1441 31.3512 44.6992 35.9465C49.2709 40.5587 50.8731 47.0343 49.4965 52.9583L49.2274 54.1164L98.6283 103.954C101.938 107.293 101.938 112.706 98.6283 116.045C95.3189 119.383 89.9534 119.383 86.6441 116.045Z" fill="url(#paint1_linear_2116_7738)"/>
<path d="M91.2992 31.7909C90.4719 30.9563 89.1305 30.9563 88.3031 31.7909L60.6964 59.642L59.1984 58.1307L86.8051 30.2796C88.4598 28.6103 91.1426 28.6103 92.7972 30.2796L101.785 39.3474C103.44 41.0167 103.44 43.7232 101.785 45.3925L74.1787 73.2436L72.6806 71.7323L100.287 43.8812C101.115 43.0466 101.115 41.6933 100.287 40.8586L91.2992 31.7909Z" fill="url(#paint2_linear_2116_7738)"/>
<path d="M41.222 76.2661L42.72 77.7774L21.9792 98.7018L15.3879 117.442L33.9635 110.792L54.7043 89.8677L56.2023 91.379L35.123 112.645L13.9999 120.206C13.1595 120.507 12.3492 119.69 12.6474 118.842L20.1427 97.532L41.222 76.2661Z" fill="url(#paint3_linear_2116_7738)"/>
<path d="M89.8002 48.4152L69.6841 68.7093L68.1861 67.198L88.3022 46.9039C88.7159 46.4865 89.3866 46.4865 89.8002 46.9039C90.2139 47.3212 90.2139 47.9978 89.8002 48.4152Z" fill="url(#paint4_linear_2116_7738)"/>
<path d="M51.7078 86.8447L50.2097 85.3334L30.628 105.088C30.2143 105.506 30.2143 106.182 30.628 106.6C31.0417 107.017 31.7123 107.017 32.126 106.6L51.7078 86.8447Z" fill="url(#paint5_linear_2116_7738)"/>
<path d="M27.6324 102.066L47.2141 82.3113L45.7161 80.8001L26.1344 100.555C25.7207 100.972 25.7207 101.649 26.1344 102.066C26.548 102.484 27.2187 102.484 27.6324 102.066Z" fill="url(#paint6_linear_2116_7738)"/>
<path d="M63.6925 62.6646L65.1905 64.1759L85.3066 43.8818C85.7203 43.4644 85.7203 42.7878 85.3066 42.3705C84.8929 41.9532 84.2222 41.9532 83.8086 42.3705L63.6925 62.6646Z" fill="url(#paint7_linear_2116_7738)"/>
</g>
<defs>
<linearGradient id="paint0_linear_2116_7738" x1="69.7291" y1="133.901" x2="39.7458" y2="22.1252" gradientUnits="userSpaceOnUse">
<stop stop-color="#E1B0A8"/>
<stop offset="1" stop-color="#D3A2E7"/>
</linearGradient>
<linearGradient id="paint1_linear_2116_7738" x1="69.7291" y1="133.901" x2="39.7458" y2="22.1252" gradientUnits="userSpaceOnUse">
<stop stop-color="#E1B0A8"/>
<stop offset="1" stop-color="#D3A2E7"/>
</linearGradient>
<linearGradient id="paint2_linear_2116_7738" x1="69.7291" y1="133.901" x2="39.7458" y2="22.1252" gradientUnits="userSpaceOnUse">
<stop stop-color="#E1B0A8"/>
<stop offset="1" stop-color="#D3A2E7"/>
</linearGradient>
<linearGradient id="paint3_linear_2116_7738" x1="69.7291" y1="133.901" x2="39.7458" y2="22.1252" gradientUnits="userSpaceOnUse">
<stop stop-color="#E1B0A8"/>
<stop offset="1" stop-color="#D3A2E7"/>
</linearGradient>
<linearGradient id="paint4_linear_2116_7738" x1="69.7291" y1="133.901" x2="39.7458" y2="22.1252" gradientUnits="userSpaceOnUse">
<stop stop-color="#E1B0A8"/>
<stop offset="1" stop-color="#D3A2E7"/>
</linearGradient>
<linearGradient id="paint5_linear_2116_7738" x1="69.7291" y1="133.901" x2="39.7458" y2="22.1252" gradientUnits="userSpaceOnUse">
<stop stop-color="#E1B0A8"/>
<stop offset="1" stop-color="#D3A2E7"/>
</linearGradient>
<linearGradient id="paint6_linear_2116_7738" x1="69.7291" y1="133.901" x2="39.7458" y2="22.1252" gradientUnits="userSpaceOnUse">
<stop stop-color="#E1B0A8"/>
<stop offset="1" stop-color="#D3A2E7"/>
</linearGradient>
<linearGradient id="paint7_linear_2116_7738" x1="69.7291" y1="133.901" x2="39.7458" y2="22.1252" gradientUnits="userSpaceOnUse">
<stop stop-color="#E1B0A8"/>
<stop offset="1" stop-color="#D3A2E7"/>
</linearGradient>
</defs>
</svg>
