<svg width="60" height="60" viewBox="0 0 60 60" fill="none" xmlns="http://www.w3.org/2000/svg">
<g id="tutorials">
<g id="Color">
<path d="M5.39485 14.238C4.81772 14.238 4.34986 14.7059 4.34986 15.283C4.34986 15.8602 4.81772 16.328 5.39485 16.328H18.9798C19.5569 16.328 20.0247 15.8602 20.0247 15.283C20.0247 14.7059 19.5569 14.238 18.9798 14.238H5.39485Z" fill="#E8E8F7"/>
<path fill-rule="evenodd" clip-rule="evenodd" d="M29.1684 30.3281L33.8709 27.6132C34.9159 27.0098 34.9159 25.5015 33.8709 24.8982L29.1684 22.1832C28.1234 21.5799 26.8172 22.3341 26.8172 23.5407V28.9707C26.8172 30.1773 28.1234 30.9315 29.1684 30.3281ZM33.3484 25.8032C33.6967 26.0043 33.6967 26.5071 33.3484 26.7082L28.6459 29.4232C28.2976 29.6243 27.8622 29.3729 27.8622 28.9707V23.5407C27.8622 23.1385 28.2976 22.8871 28.6459 23.0882L33.3484 25.8032Z" fill="#E8E8F7"/>
<path fill-rule="evenodd" clip-rule="evenodd" d="M29.9522 36.7054C35.7235 36.7054 40.4021 32.0268 40.4021 26.2555C40.4021 20.4841 35.7235 15.8055 29.9522 15.8055C24.1808 15.8055 19.5023 20.4841 19.5023 26.2555C19.5023 32.0268 24.1808 36.7054 29.9522 36.7054ZM29.9522 35.6604C35.1464 35.6604 39.3571 31.4497 39.3571 26.2555C39.3571 21.0613 35.1464 16.8505 29.9522 16.8505C24.758 16.8505 20.5472 21.0613 20.5472 26.2555C20.5472 31.4497 24.758 35.6604 29.9522 35.6604Z" fill="#E8E8F7"/>
<path fill-rule="evenodd" clip-rule="evenodd" d="M13.7261 26.2555C13.4662 23.9043 11.4728 22.0755 9.05232 22.0755C6.45522 22.0755 4.34986 24.1809 4.34986 26.778C4.34986 29.3751 6.45522 31.4804 9.05232 31.4804C11.4728 31.4804 13.4662 29.6517 13.7261 27.3005H18.196V26.2555H13.7261ZM9.05232 30.4354C7.03236 30.4354 5.39485 28.7979 5.39485 26.778C5.39485 24.758 7.03236 23.1205 9.05232 23.1205C11.0723 23.1205 12.7098 24.758 12.7098 26.778C12.7098 28.7979 11.0723 30.4354 9.05232 30.4354Z" fill="#E8E8F7"/>
<path d="M46.1783 27.3005C46.4382 29.6517 48.4315 31.4804 50.852 31.4804C53.4491 31.4804 55.5545 29.3751 55.5545 26.778C55.5545 24.1809 53.4491 22.0755 50.852 22.0755C48.4315 22.0755 46.4382 23.9043 46.1783 26.2555H41.9696V27.3005H46.1783Z" fill="#E8E8F7"/>
<path fill-rule="evenodd" clip-rule="evenodd" d="M0.692383 9.53558C0.692383 8.09274 1.86203 6.9231 3.30486 6.9231H56.5995C58.0423 6.9231 59.212 8.09274 59.212 9.53558V46.1103C59.212 47.5532 58.0423 48.7228 56.5995 48.7228H3.30487C1.86203 48.7228 0.692383 47.5532 0.692383 46.1103V9.53558ZM1.73738 12.1481V40.8854H58.167L58.167 12.1481H1.73738ZM58.167 11.1031H1.73738V9.53558C1.73738 8.66988 2.43916 7.96809 3.30486 7.96809H56.5995C57.4652 7.96809 58.167 8.66988 58.167 9.53558V11.1031ZM1.73738 46.1103V41.9304H58.167L58.167 46.1103C58.167 46.976 57.4652 47.6778 56.5995 47.6778H3.30487C2.43917 47.6778 1.73738 46.976 1.73738 46.1103Z" fill="#E8E8F7"/>
<path d="M17.9348 50.8128C17.9348 50.5242 18.1687 50.2903 18.4573 50.2903H41.4471C41.7357 50.2903 41.9696 50.5242 41.9696 50.8128V52.3803C41.9696 52.6688 41.7357 52.9028 41.4471 52.9028H18.4573C18.1687 52.9028 17.9348 52.6688 17.9348 52.3803V50.8128Z" fill="#E8E8F7"/>
</g>
</g>
</svg>
