<svg width="111" height="148" viewBox="0 0 111 148" fill="none" xmlns="http://www.w3.org/2000/svg">
<g opacity="0.8">
<g clip-path="url(#clip0_2116_6099)">
<path d="M9.98069 36.8652C8.9089 36.8652 8.04004 37.7341 8.04004 38.8059C8.04004 39.8777 8.9089 40.7465 9.98069 40.7465H35.2091C36.281 40.7465 37.1498 39.8777 37.1498 38.8059C37.1498 37.7341 36.281 36.8652 35.2091 36.8652H9.98069Z" fill="url(#paint0_linear_2116_6099)"/>
<path fill-rule="evenodd" clip-rule="evenodd" d="M54.1301 66.7468L62.8631 61.7048C64.8037 60.5844 64.8037 57.7833 62.8631 56.6629L54.1301 51.6209C52.1896 50.5005 49.7637 51.901 49.7637 54.1419V64.2258C49.7637 66.4667 52.1895 67.8673 54.1301 66.7468ZM61.8928 58.3435C62.5397 58.717 62.5397 59.6507 61.8928 60.0242L53.1598 65.0661C52.513 65.4396 51.7043 64.9728 51.7043 64.2258V54.1419C51.7043 53.3949 52.513 52.9281 53.1598 53.3016L61.8928 58.3435Z" fill="url(#paint1_linear_2116_6099)"/>
<path fill-rule="evenodd" clip-rule="evenodd" d="M55.5862 78.5904C66.3042 78.5904 74.9927 69.9018 74.9927 59.1839C74.9927 48.4659 66.3042 39.7773 55.5862 39.7773C44.8684 39.7773 36.1797 48.4659 36.1797 59.1839C36.1797 69.9018 44.8684 78.5904 55.5862 78.5904ZM55.5862 76.6497C65.2324 76.6497 73.0521 68.83 73.0521 59.1839C73.0521 49.5378 65.2324 41.718 55.5862 41.718C45.9401 41.718 38.1203 49.5378 38.1203 59.1839C38.1203 68.83 45.9401 76.6497 55.5862 76.6497Z" fill="url(#paint2_linear_2116_6099)"/>
<path fill-rule="evenodd" clip-rule="evenodd" d="M25.4526 59.1825C24.97 54.8161 21.2681 51.4199 16.7729 51.4199C11.9499 51.4199 8.04004 55.3298 8.04004 60.1529C8.04004 64.976 11.9499 68.8858 16.7729 68.8858C21.2681 68.8858 24.97 65.4897 25.4526 61.1232H33.7536V59.1825H25.4526ZM16.7729 66.9451C13.0217 66.9451 9.98069 63.9041 9.98069 60.1529C9.98069 56.4016 13.0217 53.3606 16.7729 53.3606C20.5242 53.3606 23.5652 56.4016 23.5652 60.1529C23.5652 63.9041 20.5242 66.9451 16.7729 66.9451Z" fill="url(#paint3_linear_2116_6099)"/>
<path d="M85.7193 61.1232C86.2019 65.4897 89.9038 68.8858 94.3989 68.8858C99.2217 68.8858 103.132 64.976 103.132 60.1529C103.132 55.3298 99.2217 51.4199 94.3989 51.4199C89.9038 51.4199 86.2019 54.8161 85.7193 59.1825H77.9033V61.1232H85.7193Z" fill="url(#paint4_linear_2116_6099)"/>
<path fill-rule="evenodd" clip-rule="evenodd" d="M1.24707 28.1329C1.24707 25.4534 3.41922 23.2812 6.0987 23.2812H105.072C107.751 23.2812 109.924 25.4534 109.924 28.1329V96.0557C109.924 98.7352 107.751 100.907 105.072 100.907H6.0987C3.41923 100.907 1.24707 98.7352 1.24707 96.0557V28.1329ZM3.18773 32.9845V86.3525H107.983V32.9845H3.18773ZM107.983 31.0439H3.18773V28.1329C3.18773 26.5252 4.49101 25.2219 6.0987 25.2219H105.072C106.68 25.2219 107.983 26.5252 107.983 28.1329V31.0439ZM3.18773 96.0557V88.2931H107.983V96.0557C107.983 97.6635 106.68 98.9667 105.072 98.9667H6.0987C4.49102 98.9667 3.18773 97.6635 3.18773 96.0557Z" fill="url(#paint5_linear_2116_6099)"/>
<path d="M33.2686 104.789C33.2686 104.253 33.7031 103.818 34.2389 103.818H76.9332C77.4692 103.818 77.9036 104.253 77.9036 104.789V107.7C77.9036 108.236 77.4692 108.67 76.9332 108.67H34.2389C33.7031 108.67 33.2686 108.236 33.2686 107.7V104.789Z" fill="url(#paint6_linear_2116_6099)"/>
</g>
</g>
<defs>
<linearGradient id="paint0_linear_2116_6099" x1="109.925" y1="-4.10816" x2="-44.1867" y2="43.7675" gradientUnits="userSpaceOnUse">
<stop stop-color="#E1B0A8"/>
<stop offset="0.963542" stop-color="#D3A2E7"/>
</linearGradient>
<linearGradient id="paint1_linear_2116_6099" x1="109.924" y1="-4.10748" x2="-44.187" y2="43.7682" gradientUnits="userSpaceOnUse">
<stop stop-color="#E1B0A8"/>
<stop offset="0.963542" stop-color="#D3A2E7"/>
</linearGradient>
<linearGradient id="paint2_linear_2116_6099" x1="109.925" y1="-4.10703" x2="-44.1864" y2="43.7686" gradientUnits="userSpaceOnUse">
<stop stop-color="#E1B0A8"/>
<stop offset="0.963542" stop-color="#D3A2E7"/>
</linearGradient>
<linearGradient id="paint3_linear_2116_6099" x1="109.925" y1="-4.10837" x2="-44.1867" y2="43.7672" gradientUnits="userSpaceOnUse">
<stop stop-color="#E1B0A8"/>
<stop offset="0.963542" stop-color="#D3A2E7"/>
</linearGradient>
<linearGradient id="paint4_linear_2116_6099" x1="109.924" y1="-4.10837" x2="-44.1868" y2="43.7672" gradientUnits="userSpaceOnUse">
<stop stop-color="#E1B0A8"/>
<stop offset="0.963542" stop-color="#D3A2E7"/>
</linearGradient>
<linearGradient id="paint5_linear_2116_6099" x1="109.924" y1="-4.10757" x2="-44.1873" y2="43.768" gradientUnits="userSpaceOnUse">
<stop stop-color="#E1B0A8"/>
<stop offset="0.963542" stop-color="#D3A2E7"/>
</linearGradient>
<linearGradient id="paint6_linear_2116_6099" x1="109.925" y1="-4.10756" x2="-44.1866" y2="43.7681" gradientUnits="userSpaceOnUse">
<stop stop-color="#E1B0A8"/>
<stop offset="0.963542" stop-color="#D3A2E7"/>
</linearGradient>
<clipPath id="clip0_2116_6099">
<rect width="109.647" height="101.884" fill="white" transform="translate(0.600586 23.2812)"/>
</clipPath>
</defs>
</svg>
