<svg width="28" height="28" viewBox="0 0 28 28" fill="none" xmlns="http://www.w3.org/2000/svg">
    <path
        d="M25.3748 6.95353C24.5381 7.31446 23.6275 7.57423 22.6896 7.6754C23.6634 7.09691 24.3926 6.18298 24.7404 5.10509C23.8267 5.64865 22.8257 6.02981 21.7818 6.23165C21.3456 5.76524 20.8179 5.39367 20.2317 5.14011C19.6456 4.88654 19.0135 4.75641 18.3748 4.75782C15.7908 4.75782 13.7127 6.85236 13.7127 9.42267C13.7127 9.78361 13.7564 10.1445 13.8275 10.4918C9.9584 10.2895 6.50762 8.44103 4.21348 5.61095C3.79546 6.32494 3.5764 7.13789 3.5791 7.96525C3.5791 9.584 4.40215 11.0113 5.65723 11.8508C4.91759 11.8217 4.19527 11.6184 3.54902 11.2574V11.3149C3.54902 13.5817 5.15137 15.4602 7.28691 15.8922C6.88594 15.9964 6.47346 16.0496 6.05918 16.0508C5.75566 16.0508 5.46855 16.0207 5.17871 15.9797C5.76934 17.8281 7.48926 19.1707 9.5373 19.2145C7.93496 20.4695 5.92793 21.2078 3.74863 21.2078C3.35762 21.2078 2.99668 21.1942 2.62207 21.1504C4.68926 22.4766 7.14199 23.2422 9.7834 23.2422C18.3584 23.2422 23.0506 16.1383 23.0506 9.97228C23.0506 9.76993 23.0506 9.56759 23.0369 9.36525C23.9447 8.70079 24.7404 7.87775 25.3748 6.95353Z"
        fill="#CCCCCC" />
</svg>