<svg width="108" height="105" viewBox="0 0 108 105" fill="none" xmlns="http://www.w3.org/2000/svg">
<path fill-rule="evenodd" clip-rule="evenodd" d="M74 52C74 63.0457 65.0457 72 54 72C42.9543 72 34 63.0457 34 52C34 40.9543 42.9543 32 54 32C65.0457 32 74 40.9543 74 52ZM55 43.4134L63.2933 51.7067L64.7075 50.2925L56.1208 41.7058C54.9492 40.5343 53.0498 40.5343 51.8782 41.7058L43.2915 50.2925L44.7057 51.7067L53 43.4125V61.0706H55V43.4134Z" fill="url(#paint0_linear_1645_756030)"/>
<path fill-rule="evenodd" clip-rule="evenodd" d="M94 1H14C8.47715 1 4 5.47716 4 11V88.0682C4 93.591 8.47715 98.0682 14 98.0682H94C99.5229 98.0682 104 93.591 104 88.0682V11C104 5.47715 99.5229 1 94 1ZM102 50.5004V43.7727C102 41.1368 99.8632 39 97.2273 39H72.9763C72.4992 38.3048 71.9848 37.6372 71.4361 37H97.2273C99.0892 37 100.776 37.7514 102 38.9674V25.7727C102 23.1368 99.8632 21 97.2273 21H10.7727C8.13682 21 6 23.1368 6 25.7727V38.9674C7.22431 37.7514 8.91077 37 10.7727 37H36.5639C36.0152 37.6372 35.5008 38.3048 35.0237 39H10.7727C8.13682 39 6 41.1368 6 43.7727V50.5L18.6707 50.5002C25.1508 50.5003 29.7498 55.8597 31.7688 61.1266C35.3026 70.3451 44.4136 75.9776 53.6932 75.9776C63.025 75.9776 72.7505 70.292 76.522 61.0589C78.6404 55.8729 83.2385 50.5004 89.716 50.5004H102ZM6 52.5V87.9997C6 88.552 6.05596 89.0915 6.16253 89.6123C6.9086 93.2576 10.1341 95.9997 14 95.9997L94 96C98.4183 96 102 92.4183 102 88V52.5004H89.716C84.4442 52.5004 80.367 56.9348 78.3735 61.8152C74.2619 71.8807 63.7472 77.9776 53.6932 77.9776C43.6484 77.9776 33.7536 71.8918 29.9013 61.8425C28.0143 56.92 23.9424 52.5003 18.6707 52.5002L6 52.5ZM102 20.9674V11C102 6.58172 98.4183 3 94 3H14C9.58172 3 6 6.58173 6 11V20.9674C7.22431 19.7514 8.91077 19 10.7727 19H97.2273C99.0892 19 100.776 19.7514 102 20.9674Z" fill="url(#paint1_linear_1645_756030)"/>
<defs>
<linearGradient id="paint0_linear_1645_756030" x1="104" y1="-30.1351" x2="-42.2451" y2="6.63971" gradientUnits="userSpaceOnUse">
<stop stop-color="#81D2FF"/>
<stop offset="0.963542" stop-color="#5B5F68"/>
</linearGradient>
<linearGradient id="paint1_linear_1645_756030" x1="104" y1="-30.1351" x2="-42.2451" y2="6.63971" gradientUnits="userSpaceOnUse">
<stop stop-color="#81D2FF"/>
<stop offset="0.963542" stop-color="#5B5F68"/>
</linearGradient>
</defs>
</svg>
