<svg width="201" height="231" viewBox="0 0 201 231" fill="none" xmlns="http://www.w3.org/2000/svg">
<path fill-rule="evenodd" clip-rule="evenodd" d="M92.5154 2.92416C98.4351 -0.493601 105.729 -0.493601 111.648 2.92416L143.512 21.321C148.078 23.9572 151.292 28.3178 152.523 33.3111C154.716 33.6882 156.857 34.4503 158.844 35.5974L190.708 53.9942C196.628 57.4119 200.275 63.7282 200.275 70.5637L200.275 107.357C200.275 110.138 199.671 112.833 198.557 115.281C199.671 117.73 200.275 120.425 200.275 123.205L200.275 159.999C200.275 166.834 196.628 173.151 190.708 176.568L158.844 194.965C156.294 196.437 153.49 197.275 150.65 197.479C149.379 202.377 146.194 206.646 141.697 209.242L109.833 227.638C103.913 231.056 96.6198 231.056 90.7001 227.638L58.8359 209.242C53.7825 206.324 50.3856 201.294 49.4995 195.633C46.7911 195.383 44.1239 194.556 41.6892 193.15L9.82497 174.753C3.90523 171.335 0.258514 165.019 0.258514 158.184L0.258514 121.39C0.258514 118.949 0.7236 116.574 1.59121 114.374C0.7236 112.173 0.258514 109.798 0.258514 107.357L0.258514 70.5637C0.258514 63.7282 3.90523 57.4119 9.82497 53.9942L41.6892 35.5974C44.7846 33.8102 48.2556 32.9576 51.7095 33.0394C52.9887 28.1599 56.1681 23.9092 60.6512 21.321L92.5154 2.92416ZM141.248 25.2426C144.331 27.0226 146.607 29.8326 147.741 33.0957C144.957 33.3197 142.212 34.1536 139.711 35.5974L117.949 48.1617C115.029 42.2226 108.919 38.135 101.855 38.135C94.2229 38.135 87.7053 42.9048 85.1202 49.6259L60.8221 35.5974C59.3611 34.7539 57.8164 34.1185 56.2294 33.6914C57.2852 30.1756 59.6462 27.13 62.9153 25.2426L94.7795 6.84579C99.2982 4.23693 104.865 4.23693 109.384 6.84579L141.248 25.2426ZM84.0244 54.2221L58.5579 39.519C57.6155 38.9749 56.6276 38.5443 55.613 38.2272L55.613 71.4002C59.4121 72.4028 62.7173 74.6214 65.0871 77.6145L86.4747 65.2664C84.8599 62.5751 83.9315 59.425 83.9315 56.0581C83.9315 55.4382 83.963 54.8257 84.0244 54.2221ZM89.3094 68.8586L67.428 81.4918C68.4067 83.7057 68.9503 86.155 68.9503 88.7313C68.9503 89.4142 68.9121 90.0883 68.8377 90.7514L88.6009 102.162C91.1446 100.051 94.2814 98.6298 97.7244 98.1858L97.7244 73.5029C94.4941 72.741 91.6013 71.1052 89.3094 68.8586ZM113.037 103.62C110.372 100.815 106.809 98.8709 102.809 98.2504L102.809 73.9562C106.72 73.751 110.3 72.2915 113.153 69.9724L132.743 81.283C131.705 83.5513 131.127 86.0737 131.127 88.7313C131.127 90.1647 131.295 91.5588 131.613 92.8949L113.037 103.62ZM116.274 123.564C117.357 121.256 117.962 118.679 117.962 115.961C117.962 112.823 117.156 109.873 115.739 107.308L133.249 97.1984C135.925 102.181 140.889 105.752 146.735 106.506L146.735 123.598C140.752 124.369 135.693 128.092 133.065 133.258L116.274 123.564ZM102.809 133.671C106.905 133.036 110.542 131.014 113.226 128.1L131.346 138.562C131.202 139.477 131.127 140.416 131.127 141.373C131.127 144.734 132.052 147.879 133.662 150.567L113.496 162.209C110.789 159.134 107.044 156.995 102.809 156.338L102.809 133.671ZM87.0118 128.27C89.7798 131.199 93.5243 133.194 97.7244 133.736L97.7244 156.273C93.3835 156.833 89.5293 158.946 86.7368 162.036L65.6812 149.88C67.7406 146.962 68.9503 143.401 68.9503 139.557C68.9503 139.273 68.9437 138.991 68.9306 138.71L87.0118 128.27ZM85.2879 105.778C83.2878 108.67 82.1162 112.178 82.1162 115.961C82.1162 118.76 82.7579 121.409 83.9022 123.77L67.7499 133.095C65.4776 127.219 60.1974 122.84 53.7977 121.847L53.7977 106.441C60.0614 105.47 65.2526 101.254 67.6009 95.5662L85.2879 105.778ZM116.356 66.593L135.135 77.4347C138.323 73.5118 143.137 70.9632 148.551 70.815L148.551 37.8905C148.551 37.7871 148.549 37.6837 148.547 37.5806C146.271 37.6944 144.016 38.3405 141.975 39.519L119.431 52.5346C119.658 53.6739 119.778 54.8521 119.778 56.0581C119.778 59.9952 118.508 63.6359 116.356 66.593ZM166.973 88.7313C166.973 80.2179 161.038 73.0908 153.079 71.2628L153.079 38.0654C154.289 38.3915 155.466 38.876 156.58 39.519L188.444 57.9158C192.963 60.5246 195.746 65.346 195.746 70.5637L195.746 107.357C195.746 108.413 195.632 109.453 195.413 110.461C194.077 108.965 192.496 107.668 190.708 106.636L166.537 92.6803C166.822 91.4098 166.973 90.0881 166.973 88.7313ZM151.264 106.519C157.233 105.784 162.293 102.114 164.957 96.9973L188.444 110.557C190.486 111.736 192.173 113.367 193.41 115.281C192.173 117.196 190.486 118.826 188.444 120.005L165.137 133.461C162.525 128.16 157.37 124.337 151.264 123.585L151.264 106.519ZM62.5396 153.295L84.1404 165.766C82.8473 168.243 82.1162 171.06 82.1162 174.048C82.1162 174.567 82.1383 175.081 82.1815 175.589L58.5579 189.228C57.0608 190.093 55.4487 190.671 53.7977 190.962L53.7977 157.268C57.095 156.756 60.095 155.346 62.5396 153.295ZM60.8221 193.15L83.2089 180.225C85.7256 187.08 92.3112 191.971 100.039 191.971C107.287 191.971 113.53 187.669 116.354 181.48L139.711 194.965C141.688 196.107 143.819 196.867 146.001 197.246C144.893 200.603 142.585 203.5 139.433 205.32L107.569 223.717C103.05 226.326 97.4829 226.326 92.9642 223.717L61.1 205.32C57.414 203.192 54.8825 199.591 54.0747 195.505C56.4157 195.156 58.7066 194.371 60.8221 193.15ZM141.975 191.044L117.714 177.037C117.877 176.065 117.962 175.066 117.962 174.048C117.962 171.141 117.27 168.396 116.042 165.968L136.493 154.161C139.208 156.828 142.768 158.636 146.735 159.148L146.735 192.672L146.735 192.777C145.084 192.486 143.472 191.908 141.975 191.044ZM151.264 159.161L151.264 192.672C151.264 192.736 151.263 192.801 151.263 192.865C153.107 192.612 154.915 192.005 156.58 191.044L188.444 172.647C192.963 170.038 195.746 165.217 195.746 159.999L195.746 123.205C195.746 122.149 195.632 121.11 195.413 120.101C194.077 121.597 192.496 122.894 190.708 123.927L166.624 137.832C166.853 138.977 166.973 140.161 166.973 141.373C166.973 150.522 160.118 158.07 151.264 159.161ZM33.1042 139.557C33.1042 148.863 40.1958 156.512 49.2694 157.395L49.2694 191.049C47.425 190.796 45.618 190.189 43.9533 189.228L12.0891 170.832C7.57044 168.223 4.78682 163.401 4.78682 158.184L4.78682 121.39C4.78682 120.861 4.81542 120.336 4.87153 119.817C6.25806 121.434 7.92436 122.83 9.82497 123.927L33.2281 137.439C33.1463 138.134 33.1042 138.841 33.1042 139.557ZM49.2694 121.72C42.497 122.379 36.8288 126.807 34.3893 132.88L12.0891 120.005C9.73177 118.644 7.84664 116.681 6.58259 114.374C7.84664 112.066 9.73177 110.103 12.0891 108.742L34.5427 95.7784C37.0607 101.661 42.6353 105.923 49.2694 106.569L49.2694 121.72ZM51.0847 70.8083L51.0847 37.8905C51.0847 37.7813 51.0856 37.6722 51.0875 37.5633C48.6222 37.5917 46.1624 38.2435 43.9533 39.519L12.0891 57.9158C7.57044 60.5246 4.78682 65.346 4.78682 70.5637L4.78682 107.357C4.78682 107.886 4.81542 108.411 4.87153 108.93C6.25806 107.314 7.92436 105.918 9.82497 104.82L33.2835 91.2766C33.1653 90.4451 33.1042 89.5953 33.1042 88.7313C33.1042 78.8326 41.1286 70.8082 51.0272 70.8082L51.0847 70.8083ZM37.6325 88.7313C37.6325 96.129 43.6295 102.126 51.0272 102.126C58.4249 102.126 64.422 96.129 64.422 88.7313C64.422 81.3335 58.4249 75.3365 51.0272 75.3365C43.6295 75.3365 37.6325 81.3335 37.6325 88.7313ZM51.0272 152.952C43.6295 152.952 37.6325 146.955 37.6325 139.557C37.6325 132.16 43.6295 126.163 51.0272 126.163C58.4249 126.163 64.422 132.16 64.422 139.557C64.422 146.955 58.4249 152.952 51.0272 152.952ZM135.655 141.373C135.655 148.77 141.652 154.768 149.05 154.768C156.448 154.768 162.445 148.77 162.445 141.373C162.445 133.975 156.448 127.978 149.05 127.978C141.652 127.978 135.655 133.975 135.655 141.373ZM149.05 102.126C141.652 102.126 135.655 96.129 135.655 88.7313C135.655 81.3335 141.652 75.3365 149.05 75.3365C156.448 75.3365 162.445 81.3335 162.445 88.7313C162.445 96.129 156.448 102.126 149.05 102.126ZM88.4598 56.0581C88.4598 63.4558 94.4568 69.4528 101.855 69.4528C109.252 69.4528 115.249 63.4558 115.249 56.0581C115.249 48.6603 109.252 42.6633 101.855 42.6633C94.4568 42.6633 88.4598 48.6603 88.4598 56.0581ZM100.039 187.443C92.6415 187.443 86.6445 181.446 86.6445 174.048C86.6445 166.65 92.6415 160.653 100.039 160.653C107.437 160.653 113.434 166.65 113.434 174.048C113.434 181.446 107.437 187.443 100.039 187.443Z" fill="url(#paint0_linear_41_172994)"/>
<defs>
<linearGradient id="paint0_linear_41_172994" x1="15" y1="251.5" x2="139.353" y2="-13.1253" gradientUnits="userSpaceOnUse">
<stop stop-color="#B9EBD4"/>
<stop offset="1" stop-color="#466A6F"/>
</linearGradient>
</defs>
</svg>
