<svg width="260" height="260" viewBox="0 0 260 260" fill="none" xmlns="http://www.w3.org/2000/svg">
<path d="M196.003 184.075C197.746 181.057 202.104 181.057 203.846 184.075L221.494 214.641C223.237 217.66 221.058 221.434 217.572 221.434H182.278C178.792 221.434 176.613 217.66 178.356 214.641L196.003 184.075Z" fill="#0C0C4F"/>
<path d="M161.434 202.189H180.679L180.679 197.66H161.434L161.434 202.189Z" fill="#0C0C4F"/>
<path d="M197.66 161.434L197.66 177.283H202.189L202.189 161.434H197.66Z" fill="#0C0C4F"/>
<path fill-rule="evenodd" clip-rule="evenodd" d="M247.472 163.698C247.472 157.446 242.403 152.377 236.151 152.377H163.698C157.446 152.377 152.377 157.446 152.377 163.698L152.377 236.151C152.377 242.403 157.446 247.472 163.698 247.472H236.151C242.403 247.472 247.472 242.403 247.472 236.151L247.472 163.698ZM236.151 156.906C239.902 156.906 242.943 159.947 242.943 163.698L242.943 236.151C242.943 239.902 239.902 242.943 236.151 242.943H163.698C159.947 242.943 156.906 239.902 156.906 236.151L156.906 163.698C156.906 159.947 159.947 156.906 163.698 156.906H236.151Z" fill="#0C0C4F"/>
<path d="M133.262 67.6642C133.414 67.2916 133.49 66.8899 133.49 66.459C133.49 65.9699 133.414 65.5391 133.262 65.1665C133.123 64.7822 132.896 64.4328 132.581 64.1184C132.255 63.804 131.83 63.5187 131.306 63.2626C130.794 62.9947 130.171 62.7327 129.437 62.4766C128.261 62.0574 127.19 61.6149 126.223 61.1491C125.257 60.6833 124.436 60.1418 123.76 59.5247C123.073 58.9075 122.544 58.1913 122.171 57.3762C121.798 56.5495 121.612 55.5713 121.612 54.4418C121.612 53.452 121.781 52.5495 122.119 51.7344C122.456 50.9077 122.934 50.1915 123.551 49.586C124.168 48.9805 124.913 48.4914 125.787 48.1188C126.66 47.7462 127.632 47.5074 128.704 47.4026L128.704 43.6473H131.498L131.498 47.4376C132.546 47.5773 133.49 47.8626 134.328 48.2934C135.166 48.7243 135.882 49.2832 136.476 49.9703C137.059 50.6689 137.507 51.4899 137.821 52.4331C138.147 53.3647 138.31 54.4127 138.31 55.5771H133.455C133.455 54.8319 133.361 54.1798 133.175 53.6208C132.989 53.0619 132.727 52.6019 132.389 52.241C132.086 51.9266 131.72 51.6878 131.289 51.5248C130.869 51.3618 130.404 51.2803 129.891 51.2803C129.297 51.2803 128.779 51.3618 128.337 51.5248C127.906 51.6762 127.551 51.8916 127.271 52.1711C126.992 52.4622 126.782 52.7999 126.643 53.1842C126.514 53.5684 126.45 53.9877 126.45 54.4418C126.45 54.8959 126.514 55.3035 126.643 55.6645C126.782 56.0138 127.015 56.3399 127.341 56.6426C127.656 56.9454 128.075 57.2365 128.599 57.516C129.123 57.7838 129.775 58.0574 130.555 58.3369C131.731 58.7794 132.797 59.2394 133.752 59.7168C134.706 60.1826 135.527 60.724 136.214 61.3412C136.89 61.97 137.408 62.6978 137.769 63.5246C138.142 64.3397 138.328 65.3062 138.328 66.4241C138.328 67.4488 138.159 68.3745 137.821 69.2013C137.484 70.0164 137 70.7209 136.372 71.3148C135.743 71.9087 134.986 72.3861 134.101 72.7471C133.216 73.0964 132.226 73.3235 131.132 73.4283L131.132 76.8518H128.354L128.354 73.4283C127.364 73.3351 126.404 73.1197 125.472 72.782C124.541 72.4327 123.72 71.932 123.009 71.2799C122.287 70.6278 121.711 69.8068 121.28 68.817C120.849 67.8156 120.634 66.6162 120.634 65.2188L125.507 65.2188C125.507 66.0573 125.629 66.7618 125.874 67.3323C126.119 67.8913 126.439 68.3338 126.835 68.6598C127.219 68.9975 127.661 69.2362 128.162 69.376C128.663 69.5157 129.175 69.5856 129.699 69.5856C130.363 69.5856 130.939 69.5041 131.428 69.341C131.918 69.1664 132.319 68.9277 132.634 68.6249C132.913 68.3571 133.123 68.0368 133.262 67.6642Z" fill="#0C0C4F"/>
<path fill-rule="evenodd" clip-rule="evenodd" d="M129.736 34.6415C115.981 34.6415 104.83 45.7921 104.83 59.5472C104.83 73.3022 115.981 84.4528 129.736 84.4528C143.491 84.4528 154.642 73.3022 154.642 59.5472C154.642 45.7922 143.491 34.6415 129.736 34.6415ZM109.358 59.5472C109.358 48.2931 118.482 39.1698 129.736 39.1698C140.99 39.1698 150.113 48.2931 150.113 59.5472C150.113 70.8013 140.99 79.9245 129.736 79.9245C118.482 79.9245 109.358 70.8013 109.358 59.5472Z" fill="#0C0C4F"/>
<path d="M91.2453 61.8113H101.434L101.434 57.283H91.2453L91.2453 61.8113Z" fill="#0C0C4F"/>
<path d="M159.17 61.8113L169.358 61.8113L169.358 57.283L159.17 57.283L159.17 61.8113Z" fill="#0C0C4F"/>
<path fill-rule="evenodd" clip-rule="evenodd" d="M93.5094 12C87.2572 12 82.1887 17.0685 82.1887 23.3208L82.1887 95.7736C82.1887 102.026 87.2572 107.094 93.5094 107.094L165.962 107.094C172.215 107.094 177.283 102.026 177.283 95.7736L177.283 23.3208C177.283 17.0685 172.215 12 165.962 12L93.5094 12ZM86.717 23.3208C86.717 19.5694 89.7581 16.5283 93.5094 16.5283L165.962 16.5283C169.714 16.5283 172.755 19.5694 172.755 23.3208L172.755 95.7736C172.755 99.5249 169.714 102.566 165.962 102.566L93.5094 102.566C89.7581 102.566 86.717 99.525 86.717 95.7736L86.717 23.3208Z" fill="#0C0C4F"/>
<path d="M59.5472 179.547C70.8013 179.547 79.9245 188.67 79.9245 199.925C79.9245 211.179 70.8013 220.302 59.5472 220.302C48.2931 220.302 39.1698 211.179 39.1698 199.925C39.1698 188.67 48.2931 179.547 59.5472 179.547Z" fill="#0C0C4F"/>
<path d="M96.9057 202.189H84.4528L84.4528 197.66H96.9057L96.9057 202.189Z" fill="#0C0C4F"/>
<path d="M57.283 177.283L57.283 161.434H61.8113L61.8113 177.283H57.283Z" fill="#0C0C4F"/>
<path fill-rule="evenodd" clip-rule="evenodd" d="M12 163.698C12 157.446 17.0685 152.377 23.3208 152.377H95.7736C102.026 152.377 107.094 157.446 107.094 163.698L107.094 236.151C107.094 242.403 102.026 247.472 95.7736 247.472H23.3208C17.0685 247.472 12 242.403 12 236.151L12 163.698ZM23.3208 156.906C19.5694 156.906 16.5283 159.947 16.5283 163.698L16.5283 236.151C16.5283 239.902 19.5694 242.943 23.3208 242.943H95.7736C99.5249 242.943 102.566 239.902 102.566 236.151L102.566 163.698C102.566 159.947 99.5249 156.906 95.7736 156.906H23.3208Z" fill="#0C0C4F"/>
<path d="M61.8113 77.6604C61.8113 68.9072 68.9072 61.8113 77.6604 61.8113L77.6604 57.283C66.4063 57.283 57.283 66.4063 57.283 77.6604L57.283 147.849H61.8113L61.8113 77.6604Z" fill="#0C0C4F"/>
<path d="M181.811 61.8113C190.565 61.8113 197.66 68.9072 197.66 77.6604L197.66 147.849H202.189L202.189 77.6604C202.189 66.4063 193.065 57.283 181.811 57.283L181.811 61.8113Z" fill="#0C0C4F"/>
<path d="M141.057 202.189H111.623L111.623 197.66H141.057L141.057 202.189Z" fill="#0C0C4F"/>
</svg>
