<svg width="237" height="236" viewBox="0 0 237 236" fill="none" xmlns="http://www.w3.org/2000/svg">
<path d="M184.987 172.092C186.73 169.073 191.088 169.073 192.831 172.092L210.478 202.658C212.221 205.677 210.042 209.451 206.556 209.451H171.262C167.776 209.451 165.597 205.677 167.34 202.658L184.987 172.092Z" fill="url(#paint0_linear_41_205469)"/>
<path d="M150.418 190.205H169.663L169.663 185.677H150.418L150.418 190.205Z" fill="url(#paint1_linear_41_205469)"/>
<path d="M186.645 149.451L186.645 165.3H191.173L191.173 149.451H186.645Z" fill="url(#paint2_linear_41_205469)"/>
<path fill-rule="evenodd" clip-rule="evenodd" d="M236.456 151.715C236.456 145.462 231.387 140.394 225.135 140.394H152.682C146.43 140.394 141.361 145.462 141.361 151.715L141.361 224.168C141.361 230.42 146.43 235.488 152.682 235.488H225.135C231.387 235.488 236.456 230.42 236.456 224.168L236.456 151.715ZM225.135 144.922C228.886 144.922 231.928 147.963 231.928 151.715L231.928 224.168C231.928 227.919 228.886 230.96 225.135 230.96H152.682C148.931 230.96 145.89 227.919 145.89 224.168L145.89 151.715C145.89 147.963 148.931 144.922 152.682 144.922H225.135Z" fill="url(#paint3_linear_41_205469)"/>
<path d="M122.247 55.6808C122.398 55.3082 122.474 54.9065 122.474 54.4756C122.474 53.9865 122.398 53.5557 122.247 53.1831C122.107 52.7988 121.88 52.4494 121.565 52.135C121.239 51.8206 120.814 51.5353 120.29 51.2792C119.778 51.0113 119.155 50.7493 118.421 50.4932C117.245 50.074 116.174 49.6315 115.207 49.1657C114.241 48.6999 113.42 48.1584 112.745 47.5413C112.058 46.9241 111.528 46.2079 111.155 45.3928C110.783 44.5661 110.596 43.5879 110.596 42.4584C110.596 41.4686 110.765 40.5661 111.103 39.751C111.44 38.9243 111.918 38.2081 112.535 37.6026C113.152 36.9971 113.897 36.508 114.771 36.1354C115.644 35.7628 116.616 35.524 117.688 35.4192L117.688 31.6639H120.482L120.482 35.4542C121.53 35.5939 122.474 35.8792 123.312 36.3101C124.15 36.7409 124.867 37.2998 125.461 37.9869C126.043 38.6855 126.491 39.5065 126.805 40.4497C127.131 41.3813 127.295 42.4293 127.295 43.5937H122.439C122.439 42.8485 122.346 42.1964 122.159 41.6374C121.973 41.0785 121.711 40.6185 121.373 40.2576C121.07 39.9432 120.704 39.7044 120.273 39.5414C119.854 39.3784 119.388 39.2969 118.875 39.2969C118.282 39.2969 117.763 39.3784 117.321 39.5414C116.89 39.6928 116.535 39.9082 116.255 40.1877C115.976 40.4788 115.766 40.8165 115.627 41.2008C115.499 41.585 115.435 42.0043 115.435 42.4584C115.435 42.9125 115.499 43.3201 115.627 43.6811C115.766 44.0304 115.999 44.3565 116.325 44.6592C116.64 44.962 117.059 45.2531 117.583 45.5326C118.107 45.8004 118.759 46.074 119.539 46.3535C120.715 46.796 121.781 47.256 122.736 47.7334C123.691 48.1992 124.511 48.7406 125.198 49.3578C125.874 49.9866 126.392 50.7144 126.753 51.5412C127.126 52.3563 127.312 53.3228 127.312 54.4407C127.312 55.4654 127.143 56.3911 126.805 57.2179C126.468 58.033 125.985 58.7375 125.356 59.3314C124.727 59.9253 123.97 60.4027 123.085 60.7637C122.2 61.113 121.21 61.3401 120.116 61.4449L120.116 64.8684H117.338L117.338 61.4449C116.349 61.3517 115.388 61.1363 114.456 60.7986C113.525 60.4493 112.704 59.9486 111.994 59.2965C111.272 58.6444 110.695 57.8234 110.264 56.8336C109.833 55.8322 109.618 54.6328 109.618 53.2355H114.491C114.491 54.0739 114.614 54.7784 114.858 55.3489C115.103 55.9079 115.423 56.3504 115.819 56.6764C116.203 57.0141 116.646 57.2528 117.146 57.3926C117.647 57.5323 118.159 57.6022 118.683 57.6022C119.347 57.6022 119.924 57.5207 120.413 57.3576C120.902 57.183 121.303 56.9443 121.618 56.6415C121.897 56.3737 122.107 56.0534 122.247 55.6808Z" fill="url(#paint4_linear_41_205469)"/>
<path fill-rule="evenodd" clip-rule="evenodd" d="M118.72 22.6581C104.965 22.6581 93.8143 33.8088 93.8143 47.5638C93.8143 61.3188 104.965 72.4694 118.72 72.4694C132.475 72.4694 143.626 61.3188 143.626 47.5638C143.626 33.8088 132.475 22.6581 118.72 22.6581ZM98.3426 47.5638C98.3426 36.3097 107.466 27.1864 118.72 27.1864C129.974 27.1864 139.097 36.3097 139.097 47.5638C139.097 58.8179 129.974 67.9411 118.72 67.9411C107.466 67.9411 98.3426 58.8179 98.3426 47.5638Z" fill="url(#paint5_linear_41_205469)"/>
<path d="M80.2294 49.8279H90.4181L90.4181 45.2996H80.2294L80.2294 49.8279Z" fill="url(#paint6_linear_41_205469)"/>
<path d="M148.154 49.8279H158.343L158.343 45.2996H148.154L148.154 49.8279Z" fill="url(#paint7_linear_41_205469)"/>
<path fill-rule="evenodd" clip-rule="evenodd" d="M82.4936 0.0166047C76.2413 0.016605 71.1728 5.08508 71.1728 11.3374L71.1728 83.7902C71.1728 90.0425 76.2413 95.1109 82.4936 95.1109L154.946 95.1109C161.199 95.1109 166.267 90.0425 166.267 83.7902L166.267 11.3374C166.267 5.08508 161.199 0.0166018 154.946 0.0166016L82.4936 0.0166047ZM75.7011 11.3374C75.7011 7.58599 78.7422 4.54491 82.4936 4.54491L154.946 4.5449C158.698 4.5449 161.739 7.58599 161.739 11.3374L161.739 83.7902C161.739 87.5415 158.698 90.5826 154.946 90.5826L82.4936 90.5826C78.7422 90.5826 75.7011 87.5416 75.7011 83.7902L75.7011 11.3374Z" fill="url(#paint8_linear_41_205469)"/>
<path d="M48.5313 167.564C59.7854 167.564 68.9087 176.687 68.9087 187.941C68.9087 199.195 59.7854 208.318 48.5313 208.318C37.2772 208.318 28.154 199.195 28.154 187.941C28.154 176.687 37.2772 167.564 48.5313 167.564Z" fill="url(#paint9_linear_41_205469)"/>
<path d="M85.8898 190.205H73.437L73.437 185.677H85.8898L85.8898 190.205Z" fill="url(#paint10_linear_41_205469)"/>
<path d="M46.2672 165.3L46.2672 149.451H50.7955L50.7955 165.3H46.2672Z" fill="url(#paint11_linear_41_205469)"/>
<path fill-rule="evenodd" clip-rule="evenodd" d="M0.984134 151.715C0.984134 145.462 6.05261 140.394 12.3049 140.394H84.7577C91.01 140.394 96.0785 145.462 96.0785 151.715L96.0785 224.168C96.0785 230.42 91.01 235.488 84.7577 235.488H12.3049C6.05261 235.488 0.984131 230.42 0.984131 224.168L0.984134 151.715ZM12.3049 144.922C8.55352 144.922 5.51244 147.963 5.51244 151.715L5.51243 224.168C5.51243 227.919 8.55352 230.96 12.3049 230.96H84.7577C88.5091 230.96 91.5502 227.919 91.5502 224.168L91.5502 151.715C91.5502 147.963 88.5091 144.922 84.7577 144.922H12.3049Z" fill="url(#paint12_linear_41_205469)"/>
<path d="M50.7955 65.677C50.7955 56.9238 57.8913 49.8279 66.6445 49.8279L66.6445 45.2996C55.3904 45.2996 46.2672 54.4229 46.2672 65.677L46.2672 135.866H50.7955L50.7955 65.677Z" fill="url(#paint13_linear_41_205469)"/>
<path d="M170.795 49.8279C179.549 49.8279 186.645 56.9238 186.645 65.677L186.645 135.866H191.173L191.173 65.677C191.173 54.4229 182.05 45.2996 170.795 45.2996L170.795 49.8279Z" fill="url(#paint14_linear_41_205469)"/>
<path d="M130.041 190.205H100.607L100.607 185.677H130.041L130.041 190.205Z" fill="url(#paint15_linear_41_205469)"/>
<defs>
<linearGradient id="paint0_linear_41_205469" x1="13.5" y1="265" x2="128.492" y2="-44.7825" gradientUnits="userSpaceOnUse">
<stop stop-color="#82BDBD"/>
<stop offset="1" stop-color="#6187A7"/>
</linearGradient>
<linearGradient id="paint1_linear_41_205469" x1="13.5" y1="265" x2="128.492" y2="-44.7825" gradientUnits="userSpaceOnUse">
<stop stop-color="#82BDBD"/>
<stop offset="1" stop-color="#6187A7"/>
</linearGradient>
<linearGradient id="paint2_linear_41_205469" x1="13.5" y1="265" x2="128.492" y2="-44.7825" gradientUnits="userSpaceOnUse">
<stop stop-color="#82BDBD"/>
<stop offset="1" stop-color="#6187A7"/>
</linearGradient>
<linearGradient id="paint3_linear_41_205469" x1="13.5" y1="265" x2="128.492" y2="-44.7825" gradientUnits="userSpaceOnUse">
<stop stop-color="#82BDBD"/>
<stop offset="1" stop-color="#6187A7"/>
</linearGradient>
<linearGradient id="paint4_linear_41_205469" x1="13.5" y1="265" x2="128.492" y2="-44.7825" gradientUnits="userSpaceOnUse">
<stop stop-color="#82BDBD"/>
<stop offset="1" stop-color="#6187A7"/>
</linearGradient>
<linearGradient id="paint5_linear_41_205469" x1="13.5" y1="265" x2="128.492" y2="-44.7825" gradientUnits="userSpaceOnUse">
<stop stop-color="#82BDBD"/>
<stop offset="1" stop-color="#6187A7"/>
</linearGradient>
<linearGradient id="paint6_linear_41_205469" x1="13.5" y1="265" x2="128.492" y2="-44.7825" gradientUnits="userSpaceOnUse">
<stop stop-color="#82BDBD"/>
<stop offset="1" stop-color="#6187A7"/>
</linearGradient>
<linearGradient id="paint7_linear_41_205469" x1="13.5" y1="265" x2="128.492" y2="-44.7825" gradientUnits="userSpaceOnUse">
<stop stop-color="#82BDBD"/>
<stop offset="1" stop-color="#6187A7"/>
</linearGradient>
<linearGradient id="paint8_linear_41_205469" x1="13.5" y1="265" x2="128.492" y2="-44.7825" gradientUnits="userSpaceOnUse">
<stop stop-color="#82BDBD"/>
<stop offset="1" stop-color="#6187A7"/>
</linearGradient>
<linearGradient id="paint9_linear_41_205469" x1="13.5" y1="265" x2="128.492" y2="-44.7825" gradientUnits="userSpaceOnUse">
<stop stop-color="#82BDBD"/>
<stop offset="1" stop-color="#6187A7"/>
</linearGradient>
<linearGradient id="paint10_linear_41_205469" x1="13.5" y1="265" x2="128.492" y2="-44.7825" gradientUnits="userSpaceOnUse">
<stop stop-color="#82BDBD"/>
<stop offset="1" stop-color="#6187A7"/>
</linearGradient>
<linearGradient id="paint11_linear_41_205469" x1="13.5" y1="265" x2="128.492" y2="-44.7825" gradientUnits="userSpaceOnUse">
<stop stop-color="#82BDBD"/>
<stop offset="1" stop-color="#6187A7"/>
</linearGradient>
<linearGradient id="paint12_linear_41_205469" x1="13.5" y1="265" x2="128.492" y2="-44.7825" gradientUnits="userSpaceOnUse">
<stop stop-color="#82BDBD"/>
<stop offset="1" stop-color="#6187A7"/>
</linearGradient>
<linearGradient id="paint13_linear_41_205469" x1="13.5" y1="265" x2="128.492" y2="-44.7825" gradientUnits="userSpaceOnUse">
<stop stop-color="#82BDBD"/>
<stop offset="1" stop-color="#6187A7"/>
</linearGradient>
<linearGradient id="paint14_linear_41_205469" x1="13.5" y1="265" x2="128.492" y2="-44.7825" gradientUnits="userSpaceOnUse">
<stop stop-color="#82BDBD"/>
<stop offset="1" stop-color="#6187A7"/>
</linearGradient>
<linearGradient id="paint15_linear_41_205469" x1="13.5" y1="265" x2="128.492" y2="-44.7825" gradientUnits="userSpaceOnUse">
<stop stop-color="#82BDBD"/>
<stop offset="1" stop-color="#6187A7"/>
</linearGradient>
</defs>
</svg>
