<svg width="236" height="236" viewBox="0 0 236 236" fill="none" xmlns="http://www.w3.org/2000/svg">
<path fill-rule="evenodd" clip-rule="evenodd" d="M81.7622 36.4906C81.7622 46.6557 85.9489 55.8429 92.692 62.4219C99.2209 68.792 108.146 72.717 117.989 72.717C127.831 72.717 136.756 68.792 143.285 62.4219C150.028 55.8429 154.215 46.6557 154.215 36.4906C154.215 16.4833 137.996 0.26416 117.989 0.26416C97.9813 0.26416 81.7622 16.4833 81.7622 36.4906ZM108.932 52.3396C103.471 52.3396 98.5744 54.7564 95.2535 58.5787C101.013 64.5061 109.071 68.1887 117.989 68.1887C126.906 68.1887 134.964 64.5061 140.724 58.5787C137.403 54.7564 132.506 52.3396 127.045 52.3396H108.932ZM102.14 31.9623C102.14 40.7155 109.235 47.8113 117.989 47.8113C126.742 47.8113 133.838 40.7155 133.838 31.9623C133.838 23.2091 126.742 16.1132 117.989 16.1132C109.235 16.1132 102.14 23.2091 102.14 31.9623ZM174.201 143.931C167.458 137.352 163.271 128.165 163.271 118C163.271 97.9927 179.49 81.7736 199.497 81.7736C219.505 81.7736 235.724 97.9927 235.724 118C235.724 128.165 231.537 137.352 224.794 143.931C218.265 150.301 209.34 154.226 199.497 154.226C189.655 154.226 180.73 150.301 174.201 143.931ZM176.762 140.088C180.083 136.266 184.98 133.849 190.441 133.849H208.554C214.015 133.849 218.912 136.266 222.233 140.088C216.473 146.016 208.415 149.698 199.497 149.698C190.58 149.698 182.522 146.016 176.762 140.088ZM199.497 129.321C190.744 129.321 183.648 122.225 183.648 113.472C183.648 104.718 190.744 97.6226 199.497 97.6226C208.251 97.6226 215.346 104.718 215.346 113.472C215.346 122.225 208.251 129.321 199.497 129.321ZM11.1825 143.931C4.43939 137.352 0.252686 128.165 0.252686 118C0.252686 97.9927 16.4718 81.7736 36.4791 81.7736C56.4864 81.7736 72.7055 97.9927 72.7055 118C72.7055 128.165 68.5188 137.352 61.7757 143.931C55.2468 150.301 46.3213 154.226 36.4791 154.226C26.6369 154.226 17.7114 150.301 11.1825 143.931ZM13.744 140.088C17.0649 136.266 21.9615 133.849 27.4225 133.849H45.5357C50.9967 133.849 55.8933 136.266 59.2142 140.088C53.4545 146.016 45.3969 149.698 36.4791 149.698C27.5613 149.698 19.5037 146.016 13.744 140.088ZM36.4791 129.321C27.7259 129.321 20.63 122.225 20.63 113.472C20.63 104.719 27.7259 97.6227 36.4791 97.6227C45.2323 97.6227 52.3282 104.719 52.3282 113.472C52.3282 122.225 45.2323 129.321 36.4791 129.321ZM92.692 225.441C85.9489 218.862 81.7622 209.675 81.7622 199.509C81.7622 179.502 97.9813 163.283 117.989 163.283C137.996 163.283 154.215 179.502 154.215 199.509C154.215 209.675 150.028 218.862 143.285 225.441C136.756 231.811 127.831 235.736 117.989 235.736C108.146 235.736 99.2209 231.811 92.692 225.441ZM95.2535 221.598C98.5744 217.775 103.471 215.359 108.932 215.359H127.045C132.506 215.359 137.403 217.775 140.724 221.598C134.964 227.525 126.906 231.208 117.989 231.208C109.071 231.208 101.013 227.525 95.2535 221.598ZM117.989 210.83C109.235 210.83 102.14 203.734 102.14 194.981C102.14 186.228 109.235 179.132 117.989 179.132C126.742 179.132 133.838 186.228 133.838 194.981C133.838 203.734 126.742 210.83 117.989 210.83ZM57.1113 153.154L82.8348 178.878C83.6175 177.547 84.4735 176.265 85.3974 175.036L60.9527 150.591C59.7243 151.515 58.442 152.371 57.1113 153.154ZM177.465 152.291C176.177 151.462 174.939 150.562 173.756 149.597L149.585 173.767C150.55 174.951 151.45 176.189 152.28 177.477L177.465 152.291ZM62.9937 87.0495L87.0374 63.0058C88.0211 64.1529 89.0675 65.2447 90.1712 66.2759L66.2638 90.1834C65.2326 89.0796 64.1408 88.0332 62.9937 87.0495ZM115.724 77.1834V97.7471C106.279 98.7912 98.7794 106.291 97.7353 115.736H77.1714C77.2124 116.485 77.2332 117.24 77.2332 118C77.2332 118.76 77.2124 119.515 77.1714 120.264H97.7353C98.7794 129.709 106.279 137.209 115.724 138.253V158.817C116.474 158.776 117.229 158.755 117.989 158.755C118.748 158.755 119.503 158.776 120.252 158.817V138.253C129.698 137.209 137.197 129.709 138.241 120.264H158.805C158.764 119.515 158.743 118.76 158.743 118C158.743 117.24 158.764 116.485 158.805 115.736H138.241C137.197 106.291 129.698 98.7912 120.252 97.7471V77.1835C119.503 77.2245 118.749 77.2453 117.989 77.2453C117.229 77.2453 116.474 77.2245 115.724 77.1834ZM169.122 90.827L145.161 66.8657C146.286 65.8583 147.355 64.7892 148.363 63.6638L172.324 87.625C171.199 88.6325 170.13 89.7016 169.122 90.827Z" fill="url(#paint0_linear_41_237944)"/>
<defs>
<linearGradient id="paint0_linear_41_237944" x1="203" y1="-7.40546e-05" x2="-20.2422" y2="69.287" gradientUnits="userSpaceOnUse">
<stop stop-color="#A373DC"/>
<stop offset="0.963542" stop-color="#E2A3FA"/>
</linearGradient>
</defs>
</svg>
