<svg width="260" height="260" viewBox="0 0 260 260" fill="none" xmlns="http://www.w3.org/2000/svg">
<path fill-rule="evenodd" clip-rule="evenodd" d="M93.7001 48.3246C93.7001 58.5104 97.8953 67.7163 104.652 74.3088C111.194 80.6918 120.138 84.6248 130 84.6248C139.863 84.6248 148.806 80.6918 155.349 74.3088C162.105 67.7163 166.301 58.5104 166.301 48.3246C166.301 28.2766 150.048 12.0244 130 12.0244C109.952 12.0244 93.7001 28.2766 93.7001 48.3246ZM120.925 64.2059C115.453 64.2059 110.547 66.6276 107.219 70.4577C112.99 76.3972 121.064 80.0873 130 80.0873C138.936 80.0873 147.01 76.3972 152.782 70.4577C149.454 66.6276 144.548 64.2059 139.075 64.2059H120.925ZM114.119 43.7871C114.119 52.5581 121.229 59.6684 130 59.6684C138.771 59.6684 145.882 52.5581 145.882 43.7871C145.882 35.0161 138.771 27.9058 130 27.9058C121.229 27.9058 114.119 35.0161 114.119 43.7871Z" fill="#0C0C4F"/>
<path fill-rule="evenodd" clip-rule="evenodd" d="M186.327 155.984C179.57 149.392 175.375 140.186 175.375 130C175.375 109.952 191.627 93.6998 211.675 93.6998C231.723 93.6998 247.976 109.952 247.976 130C247.976 140.186 243.78 149.392 237.023 155.984C230.481 162.367 221.538 166.3 211.675 166.3C201.813 166.3 192.869 162.367 186.327 155.984ZM188.894 152.133C192.221 148.303 197.128 145.881 202.6 145.881H220.75C226.223 145.881 231.129 148.303 234.457 152.133C228.685 158.073 220.611 161.763 211.675 161.763C202.739 161.763 194.665 158.073 188.894 152.133ZM211.675 141.344C202.904 141.344 195.794 134.233 195.794 125.462C195.794 116.691 202.904 109.581 211.675 109.581C220.446 109.581 227.557 116.691 227.557 125.462C227.557 134.233 220.446 141.344 211.675 141.344Z" fill="#0C0C4F"/>
<path fill-rule="evenodd" clip-rule="evenodd" d="M22.9765 155.984C16.2196 149.392 12.0244 140.186 12.0244 130C12.0244 109.952 28.2766 93.6998 48.3247 93.6998C68.3727 93.6998 84.6249 109.952 84.6249 130C84.6249 140.186 80.4297 149.392 73.6729 155.984C67.1306 162.367 58.1869 166.3 48.3247 166.3C38.4624 166.3 29.5187 162.367 22.9765 155.984ZM25.5432 152.133C28.8709 148.303 33.7774 145.881 39.2496 145.881H57.3997C62.8719 145.881 67.7784 148.303 71.1062 152.133C65.3347 158.073 57.2606 161.763 48.3247 161.763C39.3887 161.763 31.3147 158.073 25.5432 152.133ZM48.3247 141.344C39.5536 141.344 32.4433 134.234 32.4433 125.462C32.4433 116.691 39.5536 109.581 48.3247 109.581C57.0957 109.581 64.206 116.691 64.206 125.462C64.206 134.234 57.0957 141.344 48.3247 141.344Z" fill="#0C0C4F"/>
<path fill-rule="evenodd" clip-rule="evenodd" d="M104.652 237.66C97.8953 231.067 93.7001 221.861 93.7001 211.675C93.7001 191.627 109.952 175.375 130 175.375C150.048 175.375 166.301 191.627 166.301 211.675C166.301 221.861 162.105 231.067 155.349 237.66C148.806 244.043 139.863 247.976 130 247.976C120.138 247.976 111.194 244.043 104.652 237.66ZM107.219 233.809C110.547 229.978 115.453 227.557 120.925 227.557H139.075C144.548 227.557 149.454 229.978 152.782 233.809C147.01 239.748 138.936 243.438 130 243.438C121.064 243.438 112.99 239.748 107.219 233.809ZM130 223.019C121.229 223.019 114.119 215.909 114.119 207.138C114.119 198.367 121.229 191.257 130 191.257C138.771 191.257 145.882 198.367 145.882 207.138C145.882 215.909 138.771 223.019 130 223.019Z" fill="#0C0C4F"/>
<path d="M68.999 165.226L94.7749 191.001C95.5592 189.668 96.4169 188.383 97.3427 187.152L72.8482 162.658C71.6173 163.584 70.3323 164.441 68.999 165.226Z" fill="#0C0C4F"/>
<path d="M189.598 164.361C188.307 163.53 187.067 162.628 185.881 161.661L161.661 185.881C162.628 187.066 163.53 188.307 164.361 189.598L189.598 164.361Z" fill="#0C0C4F"/>
<path d="M74.8933 98.9865L98.986 74.8938C99.9717 76.0433 101.02 77.1373 102.126 78.1706L78.1701 102.127C77.1368 101.021 76.0427 99.9722 74.8933 98.9865Z" fill="#0C0C4F"/>
<path d="M127.731 89.1003V109.706C118.267 110.752 110.752 118.267 109.706 127.731H89.0999C89.141 128.482 89.1619 129.239 89.1619 130C89.1619 130.761 89.141 131.518 89.0999 132.269H109.706C110.752 141.733 118.267 149.248 127.731 150.294V170.9C128.482 170.859 129.239 170.838 130.001 170.838C130.762 170.838 131.518 170.859 132.269 170.9V150.294C141.733 149.248 149.248 141.733 150.294 132.269H170.9C170.858 131.518 170.838 130.761 170.838 130C170.838 129.239 170.858 128.482 170.899 127.731H150.294C149.248 118.267 141.733 110.752 132.269 109.706V89.1004C131.518 89.1415 130.762 89.1623 130.001 89.1623C129.239 89.1623 128.483 89.1414 127.731 89.1003Z" fill="#0C0C4F"/>
<path d="M181.238 102.772L157.228 78.7616C158.356 77.7521 159.427 76.6809 160.437 75.5532L184.447 99.5631C183.319 100.573 182.248 101.644 181.238 102.772Z" fill="#0C0C4F"/>
</svg>
