<svg width="196" height="220" viewBox="0 0 196 220" fill="none" xmlns="http://www.w3.org/2000/svg">
<path d="M100.107 25.77C99.215 24.3901 97.1964 24.3901 96.3043 25.77L94.0331 29.2831C93.7276 29.7557 93.2571 30.0975 92.7132 30.2421L88.6703 31.3165C87.0823 31.7385 86.4584 33.6584 87.4951 34.9332L90.1344 38.1788C90.4895 38.6154 90.6692 39.1685 90.6386 39.7304L90.4111 43.9075C90.3217 45.5482 91.9548 46.7348 93.4877 46.1428L97.39 44.6356C97.9149 44.4328 98.4965 44.4328 99.0215 44.6356L102.924 46.1428C104.457 46.7348 106.09 45.5482 106 43.9075L105.773 39.7304C105.742 39.1685 105.922 38.6154 106.277 38.1788L108.916 34.9332C109.953 33.6584 109.329 31.7385 107.741 31.3165L103.698 30.2421C103.154 30.0975 102.684 29.7557 102.378 29.2831L100.107 25.77Z" fill="url(#paint0_linear_2688_289927)"/>
<path d="M98.2057 121.454C104.458 121.454 109.527 116.385 109.527 110.133C109.527 103.88 104.458 98.8118 98.2057 98.8118C91.9533 98.8118 86.8848 103.88 86.8848 110.133C86.8848 116.385 91.9533 121.454 98.2057 121.454Z" fill="url(#paint1_linear_2688_289927)"/>
<path d="M83.7965 184.249L96.6047 171.441C97.4889 170.556 98.9225 170.556 99.8067 171.441L112.615 184.249C113.499 185.133 113.499 186.567 112.615 187.451L99.8067 200.259C98.9225 201.143 97.4889 201.143 96.6047 200.259L83.7965 187.451C82.9123 186.567 82.9123 185.133 83.7965 184.249Z" fill="url(#paint2_linear_2688_289927)"/>
<path d="M175.188 138.384V154.421H175.179C174.937 156.88 169.965 158.844 163.867 158.844C157.769 158.844 152.798 156.88 152.555 154.421H152.546V138.358C152.581 135.824 157.636 133.774 163.867 133.774C170.098 133.774 175.153 135.824 175.188 138.358L175.188 138.384Z" fill="url(#paint3_linear_2688_289927)"/>
<path d="M154.81 68.1126C153.56 68.1126 152.546 69.1263 152.546 70.3768V74.9052C152.546 76.1556 153.56 77.1693 154.81 77.1693H159.339V81.6977C159.339 82.9482 160.352 83.9619 161.603 83.9619H166.131C167.382 83.9619 168.395 82.9482 168.395 81.6977V77.1693H172.924C174.174 77.1693 175.188 76.1556 175.188 74.9052V70.3768C175.188 69.1263 174.174 68.1126 172.924 68.1126H168.395V63.5842C168.395 62.3337 167.382 61.32 166.131 61.32H161.603C160.352 61.32 159.339 62.3337 159.339 63.5842V68.1126H154.81Z" fill="url(#paint4_linear_2688_289927)"/>
<path d="M34.5052 137.17C33.6337 135.661 31.455 135.661 30.5835 137.17L20.7793 154.152C19.9078 155.661 20.9971 157.548 22.7401 157.548H42.3485C44.0915 157.548 45.1809 155.661 44.3094 154.152L34.5052 137.17Z" fill="url(#paint5_linear_2688_289927)"/>
<path d="M21.2234 63.5842C21.2234 62.3337 22.2371 61.32 23.4876 61.32H41.6011C42.8515 61.32 43.8652 62.3337 43.8652 63.5842V81.6977C43.8652 82.9482 42.8515 83.9619 41.6011 83.9619H23.4876C22.2371 83.9619 21.2234 82.9482 21.2234 81.6977V63.5842Z" fill="url(#paint6_linear_2688_289927)"/>
<path fill-rule="evenodd" clip-rule="evenodd" d="M122.96 11.0304L103.926 1.51328C100.3 -0.2997 96.0217 -0.251485 92.4375 1.64276L73.1997 11.81C69.0828 13.9858 66.5071 18.2603 66.5071 22.9168V46.6495C66.5071 51.1176 68.8803 55.2494 72.7398 57.5008L91.8758 68.6634C93.1538 69.4089 94.5305 69.9109 95.9415 70.1692V75.1299C94.7334 75.3614 93.5519 75.7719 92.4375 76.3609L73.1997 86.5281C71.5712 87.3888 70.1839 88.5778 69.1018 89.989L63.6089 86.8177C64.0232 85.564 64.2429 84.2358 64.2429 82.8764V58.4937C64.2429 53.7353 61.5545 49.3854 57.2985 47.2574L38.2643 37.7403C34.6383 35.9273 30.3603 35.9755 26.7761 37.8697L7.53831 48.037C3.42139 50.2128 0.845703 54.4873 0.845703 59.1438V82.8764C0.845703 87.3445 3.21891 91.4764 7.07836 93.7277L26.2144 104.89C30.1259 107.172 34.9627 107.172 38.8742 104.89L58.0103 93.7277C59.3409 92.9516 60.4948 91.9518 61.4357 90.7919L67.0365 94.0255C66.6901 95.1798 66.5071 96.3938 66.5071 97.635V121.368C66.5071 122.674 66.7098 123.951 67.0931 125.161L62.9082 127.577C61.7135 125.197 59.7704 123.211 57.2985 121.976L38.2643 112.458C34.6383 110.645 30.3603 110.694 26.7761 112.588L7.53831 122.755C3.42139 124.931 0.845703 129.205 0.845703 133.862V157.595C0.845703 162.063 3.21891 166.195 7.07836 168.446L26.2144 179.609C30.1259 181.89 34.9627 181.89 38.8742 179.609L58.0103 168.446C61.8697 166.195 64.2429 162.063 64.2429 157.595V133.212C64.2429 132.827 64.2253 132.444 64.1907 132.065L69.2179 129.163C70.176 130.374 71.3634 131.416 72.7398 132.219L91.8758 143.382C93.1538 144.127 94.5305 144.629 95.9415 144.887V149.848C94.7334 150.08 93.5519 150.49 92.4375 151.079L73.1997 161.246C69.0828 163.422 66.5071 167.697 66.5071 172.353V196.086C66.5071 200.554 68.8803 204.686 72.7398 206.937L91.8758 218.1C95.7873 220.381 100.624 220.381 104.536 218.1L123.672 206.937C127.531 204.686 129.904 200.554 129.904 196.086V171.703C129.904 166.945 127.216 162.595 122.96 160.467L103.926 150.95C102.822 150.397 101.657 150.018 100.47 149.811V144.887C101.881 144.629 103.258 144.127 104.536 143.382L123.672 132.219C125.048 131.416 126.235 130.374 127.193 129.163L132.292 132.106C132.21 132.683 132.168 133.269 132.168 133.862V157.595C132.168 162.063 134.542 166.195 138.401 168.446L157.537 179.609C161.449 181.89 166.285 181.89 170.197 179.609L189.333 168.446C193.192 166.195 195.566 162.063 195.566 157.595V133.212C195.566 128.453 192.877 124.104 188.621 121.976L169.587 112.458C165.961 110.645 161.683 110.694 158.099 112.588L138.861 122.755C136.679 123.909 134.929 125.652 133.767 127.729L129.318 125.161C129.702 123.951 129.904 122.674 129.904 121.368V96.9848C129.904 96.0878 129.809 95.2053 129.625 94.3495L135.24 91.1076C136.13 92.1337 137.193 93.0229 138.401 93.7277L157.537 104.89C161.449 107.172 166.285 107.172 170.197 104.89L189.333 93.7277C193.192 91.4764 195.566 87.3445 195.566 82.8764V58.4937C195.566 53.7353 192.877 49.3854 188.621 47.2574L169.587 37.7403C165.961 35.9273 161.683 35.9755 158.099 37.8697L138.861 48.037C134.744 50.2128 132.168 54.4873 132.168 59.1438V82.8764C132.168 84.3776 132.436 85.8409 132.939 87.2076L127.871 90.1332C126.675 88.2951 124.997 86.7672 122.96 85.7485L103.926 76.2314C102.822 75.6794 101.657 75.2999 100.47 75.0925V70.1692C101.881 69.9109 103.258 69.4089 104.536 68.6634L123.672 57.5008C127.531 55.2494 129.904 51.1176 129.904 46.6495V22.2667C129.904 17.5083 127.216 13.1584 122.96 11.0304ZM94.5535 5.64639C96.8457 4.43495 99.5816 4.40411 101.901 5.56358L120.935 15.0807C123.657 16.4416 125.376 19.2236 125.376 22.2667V46.6495C125.376 49.507 123.858 52.1494 121.39 53.5892L102.254 64.7519C99.7524 66.2112 96.6591 66.2112 94.1575 64.7519L75.0215 53.5892C72.5532 52.1494 71.0355 49.507 71.0355 46.6495V22.9168C71.0355 19.9388 72.6827 17.2051 75.3156 15.8136L94.5535 5.64639ZM94.5535 80.3645C96.8457 79.1531 99.5816 79.1223 101.901 80.2817L120.935 89.7988C123.657 91.1598 125.376 93.9417 125.376 96.9848V121.368C125.376 124.225 123.858 126.868 121.39 128.307L102.254 139.47C99.7524 140.929 96.6591 140.929 94.1575 139.47L75.0215 128.307C72.5532 126.868 71.0355 124.225 71.0355 121.368V97.635C71.0355 94.657 72.6827 91.9232 75.3156 90.5318L94.5535 80.3645ZM101.901 155C99.5816 153.84 96.8457 153.871 94.5535 155.083L75.3156 165.25C72.6827 166.641 71.0355 169.375 71.0355 172.353V196.086C71.0355 198.943 72.5532 201.586 75.0215 203.026L94.1575 214.188C96.6591 215.647 99.7524 215.647 102.254 214.188L121.39 203.026C123.858 201.586 125.376 198.943 125.376 196.086V171.703C125.376 168.66 123.657 165.878 120.935 164.517L101.901 155ZM160.215 116.592C162.507 115.38 165.243 115.349 167.562 116.509L186.596 126.026C189.318 127.387 191.037 130.169 191.037 133.212V157.595C191.037 160.452 189.52 163.095 187.051 164.534L167.915 175.697C165.414 177.156 162.32 177.156 159.819 175.697L140.683 164.534C138.215 163.095 136.697 160.452 136.697 157.595V133.862C136.697 130.884 138.344 128.15 140.977 126.759L160.215 116.592ZM160.215 41.8734C162.507 40.6619 165.243 40.6311 167.562 41.7906L186.596 51.3077C189.318 52.6686 191.037 55.4505 191.037 58.4937V82.8764C191.037 85.7339 189.52 88.3764 187.051 89.8162L167.915 100.979C165.414 102.438 162.32 102.438 159.819 100.979L140.683 89.8162C138.215 88.3764 136.697 85.734 136.697 82.8764V59.1438C136.697 56.1658 138.344 53.4321 140.977 52.0406L160.215 41.8734ZM28.8921 116.592C31.1843 115.38 33.9202 115.349 36.2391 116.509L55.2733 126.026C57.9952 127.387 59.7145 130.169 59.7145 133.212V157.595C59.7145 160.452 58.1968 163.095 55.7285 164.534L36.5925 175.697C34.091 177.156 30.9977 177.156 28.4961 175.697L9.36008 164.534C6.89183 163.095 5.37408 160.452 5.37408 157.595V133.862C5.37408 130.884 7.02132 128.15 9.65423 126.759L28.8921 116.592ZM36.2391 41.7906C33.9202 40.6311 31.1843 40.6619 28.8921 41.8734L9.65423 52.0406C7.02132 53.4321 5.37408 56.1658 5.37408 59.1438V82.8764C5.37408 85.734 6.89183 88.3764 9.36008 89.8162L28.4961 100.979C30.9977 102.438 34.091 102.438 36.5925 100.979L55.7285 89.8162C58.1968 88.3764 59.7145 85.7339 59.7145 82.8764V58.4937C59.7145 55.4505 57.9952 52.6686 55.2733 51.3077L36.2391 41.7906Z" fill="url(#paint7_linear_2688_289927)"/>
<defs>
<linearGradient id="paint0_linear_2688_289927" x1="-3.01047" y1="277.229" x2="166.713" y2="-189.661" gradientUnits="userSpaceOnUse">
<stop stop-color="#EC796B"/>
<stop offset="1" stop-color="#F4C9FF"/>
</linearGradient>
<linearGradient id="paint1_linear_2688_289927" x1="-3.01047" y1="277.229" x2="166.713" y2="-189.661" gradientUnits="userSpaceOnUse">
<stop stop-color="#EC796B"/>
<stop offset="1" stop-color="#F4C9FF"/>
</linearGradient>
<linearGradient id="paint2_linear_2688_289927" x1="-3.01047" y1="277.229" x2="166.713" y2="-189.661" gradientUnits="userSpaceOnUse">
<stop stop-color="#EC796B"/>
<stop offset="1" stop-color="#F4C9FF"/>
</linearGradient>
<linearGradient id="paint3_linear_2688_289927" x1="-3.01047" y1="277.229" x2="166.713" y2="-189.661" gradientUnits="userSpaceOnUse">
<stop stop-color="#EC796B"/>
<stop offset="1" stop-color="#F4C9FF"/>
</linearGradient>
<linearGradient id="paint4_linear_2688_289927" x1="-3.01047" y1="277.229" x2="166.713" y2="-189.661" gradientUnits="userSpaceOnUse">
<stop stop-color="#EC796B"/>
<stop offset="1" stop-color="#F4C9FF"/>
</linearGradient>
<linearGradient id="paint5_linear_2688_289927" x1="-3.01047" y1="277.229" x2="166.713" y2="-189.661" gradientUnits="userSpaceOnUse">
<stop stop-color="#EC796B"/>
<stop offset="1" stop-color="#F4C9FF"/>
</linearGradient>
<linearGradient id="paint6_linear_2688_289927" x1="-3.01047" y1="277.229" x2="166.713" y2="-189.661" gradientUnits="userSpaceOnUse">
<stop stop-color="#EC796B"/>
<stop offset="1" stop-color="#F4C9FF"/>
</linearGradient>
<linearGradient id="paint7_linear_2688_289927" x1="-3.01047" y1="277.229" x2="166.713" y2="-189.661" gradientUnits="userSpaceOnUse">
<stop stop-color="#EC796B"/>
<stop offset="1" stop-color="#F4C9FF"/>
</linearGradient>
</defs>
</svg>
