<svg width="260" height="260" viewBox="0 0 260 260" fill="none" xmlns="http://www.w3.org/2000/svg">
<path d="M130.358 66.5478C136.611 66.5478 141.679 61.4793 141.679 55.227C141.679 48.9747 136.611 43.9062 130.358 43.9062C124.106 43.9062 119.038 48.9747 119.038 55.227C119.038 61.4793 124.106 66.5478 130.358 66.5478Z" fill="#0C0C4F"/>
<path d="M130.358 141.265C136.611 141.265 141.679 136.196 141.679 129.944C141.679 123.692 136.611 118.623 130.358 118.623C124.106 118.623 119.038 123.692 119.038 129.944C119.038 136.196 124.106 141.265 130.358 141.265Z" fill="#0C0C4F"/>
<path d="M141.679 204.661C141.679 210.913 136.611 215.982 130.358 215.982C124.106 215.982 119.038 210.913 119.038 204.661C119.038 198.409 124.106 193.34 130.358 193.34C136.611 193.34 141.679 198.409 141.679 204.661Z" fill="#0C0C4F"/>
<path d="M196.019 177.491C202.271 177.491 207.34 172.423 207.34 166.17C207.34 159.918 202.271 154.85 196.019 154.85C189.767 154.85 184.698 159.918 184.698 166.17C184.698 172.423 189.767 177.491 196.019 177.491Z" fill="#0C0C4F"/>
<path d="M207.34 91.4534C207.34 97.7057 202.271 102.774 196.019 102.774C189.767 102.774 184.698 97.7057 184.698 91.4534C184.698 85.2011 189.767 80.1327 196.019 80.1327C202.271 80.1327 207.34 85.2011 207.34 91.4534Z" fill="#0C0C4F"/>
<path d="M64.6981 177.491C70.9504 177.491 76.0189 172.423 76.0189 166.17C76.0189 159.918 70.9504 154.85 64.6981 154.85C58.4458 154.85 53.3774 159.918 53.3774 166.17C53.3774 172.423 58.4458 177.491 64.6981 177.491Z" fill="#0C0C4F"/>
<path d="M76.0189 91.4534C76.0189 97.7057 70.9504 102.774 64.6981 102.774C58.4458 102.774 53.3774 97.7057 53.3774 91.4534C53.3774 85.2011 58.4458 80.1327 64.6981 80.1327C70.9504 80.1327 76.0189 85.2011 76.0189 91.4534Z" fill="#0C0C4F"/>
<path fill-rule="evenodd" clip-rule="evenodd" d="M155.112 30.8432L136.078 21.3262C132.452 19.5133 128.175 19.5615 124.59 21.4557L105.353 31.6228C101.236 33.7986 98.6604 38.073 98.6604 42.7295V66.4617C98.6604 70.9298 101.034 75.0615 104.893 77.3129L124.029 88.4754C125.307 89.2208 126.683 89.7228 128.094 89.9811V94.9417C126.886 95.1733 125.705 95.5837 124.59 96.1727L105.353 106.34C103.724 107.2 102.337 108.389 101.255 109.801L95.7622 106.629C96.1766 105.376 96.3962 104.047 96.3962 102.688V78.3058C96.3962 73.5475 93.7078 69.1976 89.4519 67.0696L70.418 57.5527C66.7921 55.7397 62.5142 55.7879 58.93 57.6821L39.6925 67.8492C35.5756 70.025 33 74.2994 33 78.9559V102.688C33 107.156 35.3732 111.288 39.2326 113.539L58.3683 124.702C62.2797 126.983 67.1165 126.983 71.0279 124.702L90.1637 113.539C91.4942 112.763 92.6482 111.763 93.5891 110.603L99.1897 113.837C98.8434 114.991 98.6604 116.205 98.6604 117.446V141.179C98.6604 142.485 98.8631 143.762 99.2464 144.972L95.0616 147.388C93.8669 145.008 91.9238 143.023 89.4519 141.787L70.418 132.27C66.7921 130.457 62.5142 130.505 58.93 132.399L39.6925 142.566C35.5756 144.742 33 149.016 33 153.673V177.405C33 181.873 35.3732 186.005 39.2326 188.256L58.3683 199.419C62.2797 201.7 67.1165 201.7 71.0279 199.419L90.1637 188.256C94.023 186.005 96.3962 181.873 96.3962 177.405V153.023C96.3962 152.638 96.3786 152.255 96.344 151.876L101.371 148.974C102.329 150.185 103.517 151.227 104.893 152.03L124.029 163.192C125.307 163.938 126.683 164.44 128.094 164.698V169.659C126.886 169.89 125.705 170.301 124.59 170.89L105.353 181.057C101.236 183.233 98.6604 187.507 98.6604 192.163V215.896C98.6604 220.364 101.034 224.495 104.893 226.747L124.029 237.909C127.94 240.191 132.777 240.191 136.688 237.909L155.824 226.747C159.683 224.495 162.057 220.364 162.057 215.896V191.513C162.057 186.755 159.368 182.405 155.112 180.277L136.078 170.76C134.974 170.208 133.81 169.829 132.623 169.621V164.698C134.034 164.44 135.41 163.938 136.688 163.192L155.824 152.03C157.2 151.227 158.388 150.185 159.346 148.974L164.444 151.917C164.362 152.494 164.321 153.08 164.321 153.673V177.405C164.321 181.873 166.694 186.005 170.553 188.256L189.689 199.419C193.6 201.7 198.437 201.7 202.349 199.419L221.484 188.256C225.344 186.005 227.717 181.873 227.717 177.405V153.023C227.717 148.264 225.029 143.915 220.773 141.787L201.739 132.27C198.113 130.457 193.835 130.505 190.251 132.399L171.013 142.566C168.831 143.72 167.081 145.463 165.919 147.54L161.471 144.972C161.854 143.762 162.057 142.485 162.057 141.179V116.796C162.057 115.899 161.961 115.017 161.777 114.161L167.393 110.919C168.282 111.945 169.345 112.834 170.553 113.539L189.689 124.702C193.6 126.983 198.437 126.983 202.349 124.702L221.484 113.539C225.344 111.288 227.717 107.156 227.717 102.688V78.3058C227.717 73.5475 225.029 69.1976 220.773 67.0696L201.739 57.5527C198.113 55.7397 193.835 55.7879 190.251 57.6821L171.013 67.8492C166.896 70.025 164.321 74.2994 164.321 78.9559V102.688C164.321 104.189 164.589 105.653 165.091 107.019L160.024 109.945C158.828 108.107 157.15 106.579 155.112 105.56L136.078 96.0432C134.974 95.4912 133.81 95.1117 132.623 94.9044V89.9811C134.034 89.7228 135.41 89.2208 136.688 88.4754L155.824 77.3129C159.683 75.0615 162.057 70.9298 162.057 66.4617V42.0793C162.057 37.3211 159.368 32.9712 155.112 30.8432ZM126.706 25.4593C128.998 24.2479 131.734 24.217 134.053 25.3765L153.087 34.8934C155.809 36.2544 157.528 39.0363 157.528 42.0793V66.4617C157.528 69.3192 156.011 71.9616 153.542 73.4014L134.407 84.5639C131.905 86.0231 128.812 86.0231 126.31 84.5639L107.175 73.4014C104.706 71.9616 103.189 69.3192 103.189 66.4617V42.7295C103.189 39.7515 104.836 37.0178 107.469 35.6264L126.706 25.4593ZM126.706 100.176C128.998 98.9649 131.734 98.934 134.053 100.093L153.087 109.61C155.809 110.971 157.528 113.753 157.528 116.796V141.179C157.528 144.036 156.011 146.679 153.542 148.118L134.407 159.281C131.905 160.74 128.812 160.74 126.31 159.281L107.175 148.118C104.706 146.679 103.189 144.036 103.189 141.179V117.446C103.189 114.468 104.836 111.735 107.469 110.343L126.706 100.176ZM134.053 174.81C131.734 173.651 128.998 173.682 126.706 174.893L107.469 185.06C104.836 186.452 103.189 189.185 103.189 192.163V215.896C103.189 218.753 104.706 221.396 107.175 222.835L126.31 233.998C128.812 235.457 131.905 235.457 134.407 233.998L153.542 222.835C156.011 221.396 157.528 218.753 157.528 215.896V191.513C157.528 188.47 155.809 185.688 153.087 184.327L134.053 174.81ZM192.367 136.403C194.659 135.191 197.395 135.16 199.714 136.32L218.748 145.837C221.469 147.198 223.189 149.98 223.189 153.023V177.405C223.189 180.263 221.671 182.905 219.203 184.345L200.067 195.507C197.565 196.967 194.472 196.967 191.971 195.507L172.835 184.345C170.367 182.905 168.849 180.263 168.849 177.405V153.673C168.849 150.695 170.496 147.961 173.129 146.57L192.367 136.403ZM199.714 61.6029C197.395 60.4435 194.659 60.4743 192.367 61.6857L173.129 71.8528C170.496 73.2442 168.849 75.9779 168.849 78.9559V102.688C168.849 105.546 170.367 108.188 172.835 109.628L191.971 120.79C194.472 122.25 197.565 122.25 200.067 120.79L219.203 109.628C221.671 108.188 223.189 105.546 223.189 102.688V78.3058C223.189 75.2627 221.469 72.4808 218.748 71.1199L199.714 61.6029ZM61.0459 136.403C63.3381 135.191 66.074 135.16 68.3929 136.32L87.4268 145.837C90.1486 147.198 91.8679 149.98 91.8679 153.023V177.405C91.8679 180.263 90.3502 182.905 87.882 184.345L68.7463 195.507C66.2447 196.967 63.1515 196.967 60.65 195.507L41.5142 184.345C39.046 182.905 37.5283 180.263 37.5283 177.405V153.673C37.5283 150.695 39.1755 147.961 41.8084 146.57L61.0459 136.403ZM68.3929 61.6029C66.074 60.4435 63.3381 60.4743 61.0459 61.6857L41.8084 71.8528C39.1755 73.2442 37.5283 75.9779 37.5283 78.9559V102.688C37.5283 105.546 39.046 108.188 41.5142 109.628L60.65 120.79C63.1515 122.25 66.2447 122.25 68.7463 120.79L87.882 109.628C90.3502 108.188 91.8679 105.546 91.8679 102.688V78.3058C91.8679 75.2627 90.1486 72.4808 87.4268 71.1199L68.3929 61.6029Z" fill="#0C0C4F"/>
</svg>
