<svg width="196" height="220" viewBox="0 0 196 220" fill="none" xmlns="http://www.w3.org/2000/svg">
<path d="M98.3421 46.5635C104.594 46.5635 109.663 41.495 109.663 35.2428C109.663 28.9905 104.594 23.922 98.3421 23.922C92.0898 23.922 87.0214 28.9905 87.0214 35.2428C87.0214 41.495 92.0898 46.5635 98.3421 46.5635Z" fill="url(#paint0_linear_41_75569)"/>
<path d="M98.3421 121.28C104.594 121.28 109.663 116.212 109.663 109.96C109.663 103.707 104.594 98.639 98.3421 98.639C92.0898 98.639 87.0214 103.707 87.0214 109.96C87.0214 116.212 92.0898 121.28 98.3421 121.28Z" fill="url(#paint1_linear_41_75569)"/>
<path d="M109.663 184.677C109.663 190.929 104.594 195.997 98.3421 195.997C92.0898 195.997 87.0214 190.929 87.0214 184.677C87.0214 178.424 92.0898 173.356 98.3421 173.356C104.594 173.356 109.663 178.424 109.663 184.677Z" fill="url(#paint2_linear_41_75569)"/>
<path d="M164.003 157.507C170.255 157.507 175.323 152.438 175.323 146.186C175.323 139.934 170.255 134.865 164.003 134.865C157.75 134.865 152.682 139.934 152.682 146.186C152.682 152.438 157.75 157.507 164.003 157.507Z" fill="url(#paint3_linear_41_75569)"/>
<path d="M175.323 71.4692C175.323 77.7215 170.255 82.7899 164.003 82.7899C157.75 82.7899 152.682 77.7215 152.682 71.4692C152.682 65.2169 157.75 60.1484 164.003 60.1484C170.255 60.1484 175.323 65.2169 175.323 71.4692Z" fill="url(#paint4_linear_41_75569)"/>
<path d="M32.6818 157.507C38.934 157.507 44.0025 152.438 44.0025 146.186C44.0025 139.934 38.934 134.865 32.6818 134.865C26.4295 134.865 21.361 139.934 21.361 146.186C21.361 152.438 26.4295 157.507 32.6818 157.507Z" fill="url(#paint5_linear_41_75569)"/>
<path d="M44.0025 71.4692C44.0025 77.7215 38.934 82.7899 32.6818 82.7899C26.4295 82.7899 21.361 77.7215 21.361 71.4692C21.361 65.2169 26.4295 60.1484 32.6818 60.1484C38.934 60.1484 44.0025 65.2169 44.0025 71.4692Z" fill="url(#paint6_linear_41_75569)"/>
<path fill-rule="evenodd" clip-rule="evenodd" d="M123.096 10.859L104.062 1.34199C100.436 -0.470957 96.1582 -0.422743 92.5741 1.47147L73.3365 11.6385C69.2197 13.8143 66.644 18.0888 66.644 22.7452L66.644 46.4775C66.644 50.9455 69.0172 55.0773 72.8766 57.3286L92.0123 68.4911C93.2903 69.2366 94.667 69.7385 96.078 69.9968L96.078 74.9574C94.8699 75.189 93.6884 75.5995 92.5741 76.1884L73.3365 86.3555C71.7081 87.2162 70.3208 88.4052 69.2386 89.8163L63.7459 86.6451C64.1602 85.3914 64.3799 84.0632 64.3799 82.7039L64.3799 58.3215C64.3799 53.5632 61.6915 49.2133 57.4355 47.0854L38.4016 37.5684C34.7757 35.7555 30.4978 35.8037 26.9137 37.6979L7.67614 47.865C3.55929 50.0407 0.983643 54.3152 0.983643 58.9716L0.983643 82.7039C0.983643 87.1719 3.35681 91.3037 7.2162 93.555L26.3519 104.718C30.2634 106.999 35.1001 106.999 39.0116 104.718L58.1473 93.555C59.4779 92.7788 60.6318 91.7792 61.5727 90.6192L67.1734 93.8528C66.827 95.0071 66.644 96.2211 66.644 97.4622L66.644 121.194C66.644 122.5 66.8467 123.777 67.23 124.987L63.0452 127.403C61.8505 125.024 59.9074 123.038 57.4355 121.802L38.4016 112.285C34.7757 110.472 30.4978 110.521 26.9137 112.415L7.67614 122.582C3.55929 124.758 0.983643 129.032 0.983643 133.689L0.983643 157.421C0.983643 161.889 3.35681 166.021 7.2162 168.272L26.3519 179.434C30.2634 181.716 35.1001 181.716 39.0116 179.434L58.1473 168.272C62.0067 166.021 64.3799 161.889 64.3799 157.421L64.3799 133.038C64.3799 132.653 64.3623 132.271 64.3276 131.892L69.3548 128.99C70.3129 130.201 71.5002 131.243 72.8766 132.046L92.0123 143.208C93.2903 143.954 94.667 144.455 96.078 144.714L96.078 149.674C94.8699 149.906 93.6884 150.316 92.5741 150.905L73.3365 161.072C69.2197 163.248 66.644 167.523 66.644 172.179L66.644 195.911C66.644 200.379 69.0172 204.511 72.8766 206.763L92.0123 217.925C95.9238 220.207 100.76 220.207 104.672 217.925L123.808 206.763C127.667 204.511 130.04 200.379 130.04 195.911L130.04 171.529C130.04 166.771 127.352 162.421 123.096 160.293L104.062 150.776C102.958 150.224 101.793 149.844 100.606 149.637L100.606 144.714C102.017 144.455 103.394 143.954 104.672 143.208L123.808 132.046C125.184 131.243 126.371 130.201 127.329 128.99L132.427 131.933C132.346 132.51 132.304 133.096 132.304 133.689L132.304 157.421C132.304 161.889 134.678 166.021 138.537 168.272L157.673 179.434C161.584 181.716 166.421 181.716 170.332 179.434L189.468 168.272C193.327 166.021 195.701 161.889 195.701 157.421L195.701 133.038C195.701 128.28 193.012 123.93 188.756 121.802L169.722 112.285C166.096 110.472 161.819 110.521 158.234 112.415L138.997 122.582C136.814 123.735 135.065 125.479 133.903 127.556L129.454 124.987C129.838 123.777 130.04 122.5 130.04 121.194L130.04 96.8121C130.04 95.9151 129.945 95.0326 129.761 94.1768L135.376 90.9349C136.266 91.961 137.329 92.8502 138.537 93.555L157.673 104.718C161.584 106.999 166.421 106.999 170.332 104.718L189.468 93.555C193.327 91.3037 195.701 87.1719 195.701 82.7039L195.701 58.3215C195.701 53.5632 193.012 49.2133 188.756 47.0854L169.722 37.5684C166.096 35.7555 161.819 35.8037 158.234 37.6979L138.997 47.865C134.88 50.0407 132.304 54.3152 132.304 58.9716L132.304 82.7039C132.304 84.2051 132.572 85.6683 133.074 87.035L128.007 89.9605C126.811 88.1224 125.133 86.5946 123.096 85.5759L104.062 76.059C102.958 75.5069 101.793 75.1274 100.606 74.9201L100.606 69.9968C102.017 69.7385 103.394 69.2366 104.672 68.4911L123.808 57.3286C127.667 55.0773 130.04 50.9455 130.04 46.4775L130.04 22.0951C130.04 17.3368 127.352 12.9869 123.096 10.859ZM94.6899 5.47504C96.9821 4.26362 99.718 4.23278 102.037 5.39223L121.071 14.9092C123.793 16.2701 125.512 19.052 125.512 22.0951L125.512 46.4775C125.512 49.3349 123.994 51.9774 121.526 53.4172L102.39 64.5797C99.8888 66.0389 96.7955 66.0389 94.294 64.5797L75.1583 53.4172C72.69 51.9774 71.1723 49.3349 71.1723 46.4775L71.1723 22.7452C71.1723 19.7672 72.8195 17.0336 75.4524 15.6421L94.6899 5.47504ZM94.6899 80.192C96.9821 78.9806 99.718 78.9498 102.037 80.1092L121.071 89.6262C123.793 90.9871 125.512 93.769 125.512 96.8121L125.512 121.194C125.512 124.052 123.994 126.694 121.526 128.134L102.39 139.297C99.8888 140.756 96.7955 140.756 94.294 139.297L75.1583 128.134C72.69 126.694 71.1723 124.052 71.1723 121.194L71.1723 97.4622C71.1723 94.4842 72.8195 91.7506 75.4524 90.3591L94.6899 80.192ZM102.037 154.826C99.718 153.667 96.9821 153.698 94.6899 154.909L75.4524 165.076C72.8195 166.468 71.1723 169.201 71.1723 172.179L71.1723 195.911C71.1723 198.769 72.69 201.411 75.1583 202.851L94.294 214.014C96.7955 215.473 99.8888 215.473 102.39 214.014L121.526 202.851C123.994 201.411 125.512 198.769 125.512 195.911L125.512 171.529C125.512 168.486 123.793 165.704 121.071 164.343L102.037 154.826ZM160.35 116.418C162.642 115.207 165.378 115.176 167.697 116.336L186.731 125.853C189.453 127.213 191.172 129.995 191.172 133.038L191.172 157.421C191.172 160.278 189.655 162.921 187.186 164.361L168.051 175.523C165.549 176.982 162.456 176.982 159.954 175.523L140.819 164.361C138.35 162.921 136.833 160.278 136.833 157.421L136.833 133.689C136.833 130.711 138.48 127.977 141.113 126.585L160.35 116.418ZM167.697 41.6186C165.378 40.4592 162.642 40.49 160.35 41.7015L141.113 51.8685C138.48 53.26 136.833 55.9937 136.833 58.9716L136.833 82.7039C136.833 85.5614 138.35 88.2038 140.819 89.6436L159.954 100.806C162.456 102.265 165.549 102.265 168.051 100.806L187.186 89.6436C189.655 88.2038 191.172 85.5613 191.172 82.7039L191.172 58.3215C191.172 55.2784 189.453 52.4965 186.731 51.1356L167.697 41.6186ZM29.0296 116.418C31.3217 115.207 34.0576 115.176 36.3765 116.336L55.4104 125.853C58.1323 127.213 59.8516 129.995 59.8516 133.038L59.8516 157.421C59.8516 160.278 58.3338 162.921 55.8656 164.361L36.7299 175.523C34.2284 176.982 31.1351 176.982 28.6336 175.523L9.49788 164.361C7.02967 162.921 5.51194 160.278 5.51194 157.421L5.51194 133.689C5.51194 130.711 7.15916 127.977 9.79203 126.585L29.0296 116.418ZM36.3765 41.6186C34.0576 40.4592 31.3217 40.49 29.0296 41.7015L9.79203 51.8685C7.15916 53.26 5.51194 55.9937 5.51194 58.9716L5.51194 82.7039C5.51194 85.5614 7.02967 88.2038 9.49788 89.6436L28.6336 100.806C31.1351 102.265 34.2284 102.265 36.7299 100.806L55.8656 89.6436C58.3338 88.2038 59.8516 85.5613 59.8516 82.7039L59.8516 58.3215C59.8516 55.2784 58.1323 52.4965 55.4104 51.1356L36.3765 41.6186Z" fill="url(#paint7_linear_41_75569)"/>
<defs>
<linearGradient id="paint0_linear_41_75569" x1="-2.87247" y1="277.053" x2="166.848" y2="-189.829" gradientUnits="userSpaceOnUse">
<stop stop-color="#EC796B"/>
<stop offset="1" stop-color="#F4C9FF"/>
</linearGradient>
<linearGradient id="paint1_linear_41_75569" x1="-2.87247" y1="277.053" x2="166.848" y2="-189.829" gradientUnits="userSpaceOnUse">
<stop stop-color="#EC796B"/>
<stop offset="1" stop-color="#F4C9FF"/>
</linearGradient>
<linearGradient id="paint2_linear_41_75569" x1="-2.87247" y1="277.053" x2="166.848" y2="-189.829" gradientUnits="userSpaceOnUse">
<stop stop-color="#EC796B"/>
<stop offset="1" stop-color="#F4C9FF"/>
</linearGradient>
<linearGradient id="paint3_linear_41_75569" x1="-2.87247" y1="277.053" x2="166.848" y2="-189.829" gradientUnits="userSpaceOnUse">
<stop stop-color="#EC796B"/>
<stop offset="1" stop-color="#F4C9FF"/>
</linearGradient>
<linearGradient id="paint4_linear_41_75569" x1="-2.87247" y1="277.053" x2="166.848" y2="-189.829" gradientUnits="userSpaceOnUse">
<stop stop-color="#EC796B"/>
<stop offset="1" stop-color="#F4C9FF"/>
</linearGradient>
<linearGradient id="paint5_linear_41_75569" x1="-2.87247" y1="277.053" x2="166.848" y2="-189.829" gradientUnits="userSpaceOnUse">
<stop stop-color="#EC796B"/>
<stop offset="1" stop-color="#F4C9FF"/>
</linearGradient>
<linearGradient id="paint6_linear_41_75569" x1="-2.87247" y1="277.053" x2="166.848" y2="-189.829" gradientUnits="userSpaceOnUse">
<stop stop-color="#EC796B"/>
<stop offset="1" stop-color="#F4C9FF"/>
</linearGradient>
<linearGradient id="paint7_linear_41_75569" x1="-2.87247" y1="277.053" x2="166.848" y2="-189.829" gradientUnits="userSpaceOnUse">
<stop stop-color="#EC796B"/>
<stop offset="1" stop-color="#F4C9FF"/>
</linearGradient>
</defs>
</svg>
