<svg width="239" height="146" viewBox="0 0 239 146" fill="none" xmlns="http://www.w3.org/2000/svg">
<path d="M70.1495 40.6388L46.6038 64.1845L70.1495 87.7302L66.9475 90.9322L40.1998 64.1845L66.9475 37.4368L70.1495 40.6388Z" fill="url(#paint0_linear_41_140521)"/>
<path d="M189.875 64.1845L166.329 40.6388L169.531 37.4369L196.279 64.1845L169.531 90.9322L166.329 87.7302L189.875 64.1845Z" fill="url(#paint1_linear_41_140521)"/>
<path fill-rule="evenodd" clip-rule="evenodd" d="M119.251 109.227C143.635 109.227 163.402 89.4595 163.402 65.0756C163.402 40.6917 143.635 20.9247 119.251 20.9247C94.8671 20.9247 75.1001 40.6917 75.1001 65.0756C75.1001 89.4595 94.8671 109.227 119.251 109.227ZM91.7143 67.5183C86.3641 72.8685 86.3641 81.5428 91.7143 86.893C97.0645 92.2432 105.739 92.2432 111.089 86.893L113.875 84.1069L110.673 80.905L107.887 83.691C104.305 87.2728 98.498 87.2728 94.9163 83.691C91.3345 80.1092 91.3345 74.3021 94.9163 70.7203L109.186 56.4503C112.768 52.8685 118.575 52.8685 122.157 56.4503C125.739 60.032 125.739 65.8392 122.157 69.421L117.196 74.3815L120.398 77.5835L125.359 72.623C130.709 67.2728 130.709 58.5985 125.359 53.2483C120.009 47.8981 111.335 47.8981 105.984 53.2483L91.7143 67.5183ZM148.19 47.5388C153.54 52.8889 153.54 61.5633 148.19 66.9134L133.92 81.1835C128.57 86.5337 119.896 86.5336 114.546 81.1835C109.195 75.8333 109.195 67.159 114.546 61.8088L119.506 56.8483L122.708 60.0502L117.748 65.0108C114.166 68.5925 114.166 74.3997 117.748 77.9815C121.329 81.5632 127.136 81.5632 130.718 77.9815L144.988 63.7115C148.57 60.1297 148.57 54.3225 144.988 50.7407C141.406 47.159 135.599 47.159 132.018 50.7407L129.232 53.5268L126.03 50.3248L128.816 47.5388C134.166 42.1886 142.84 42.1886 148.19 47.5388Z" fill="url(#paint2_linear_41_140521)"/>
<path fill-rule="evenodd" clip-rule="evenodd" d="M16.2329 11.8679C16.2329 5.61559 21.3014 0.547119 27.5537 0.547119H210.95C217.202 0.547119 222.271 5.61559 222.271 11.8679V125.075H238.119V134.132C238.119 140.384 233.051 145.453 226.798 145.453H11.704C5.45177 145.453 0.383301 140.384 0.383301 134.132V125.075H16.2329V11.8679ZM217.742 11.8679V125.075H20.7612V11.8679C20.7612 8.1165 23.8023 5.07542 27.5537 5.07542H210.95C214.701 5.07542 217.742 8.11651 217.742 11.8679ZM4.9116 129.604H233.591V134.132C233.591 137.883 230.55 140.924 226.798 140.924H11.704C7.95268 140.924 4.9116 137.883 4.9116 134.132V129.604Z" fill="url(#paint3_linear_41_140521)"/>
<defs>
<linearGradient id="paint0_linear_41_140521" x1="-4.32477" y1="183.337" x2="41.3073" y2="-63.4306" gradientUnits="userSpaceOnUse">
<stop stop-color="#EE9663"/>
<stop offset="0.972669" stop-color="#F9ABAE"/>
</linearGradient>
<linearGradient id="paint1_linear_41_140521" x1="-4.32477" y1="183.337" x2="41.3073" y2="-63.4306" gradientUnits="userSpaceOnUse">
<stop stop-color="#EE9663"/>
<stop offset="0.972669" stop-color="#F9ABAE"/>
</linearGradient>
<linearGradient id="paint2_linear_41_140521" x1="-4.32477" y1="183.337" x2="41.3073" y2="-63.4306" gradientUnits="userSpaceOnUse">
<stop stop-color="#EE9663"/>
<stop offset="0.972669" stop-color="#F9ABAE"/>
</linearGradient>
<linearGradient id="paint3_linear_41_140521" x1="-4.32477" y1="183.337" x2="41.3073" y2="-63.4306" gradientUnits="userSpaceOnUse">
<stop stop-color="#EE9663"/>
<stop offset="0.972669" stop-color="#F9ABAE"/>
</linearGradient>
</defs>
</svg>
