<svg width="260" height="260" viewBox="0 0 260 260" fill="none" xmlns="http://www.w3.org/2000/svg">
<path d="M69.2167 44.1972C68.364 45.0499 66.9813 45.0499 66.1286 44.1972L48.6592 26.7278C47.8064 25.875 47.8064 24.4924 48.6592 23.6396C49.512 22.7868 50.8946 22.7868 51.7474 23.6396L69.2167 41.109C70.0695 41.9617 70.0695 43.3444 69.2167 44.1972Z" fill="#0C0C4F"/>
<path d="M150.652 99.4286C150.652 110.283 141.853 119.082 130.999 119.082C120.145 119.082 111.346 110.283 111.346 99.4286C111.346 88.5745 120.145 79.7755 130.999 79.7755C141.853 79.7755 150.652 88.5745 150.652 99.4286Z" fill="#0C0C4F"/>
<path fill-rule="evenodd" clip-rule="evenodd" d="M63.3053 89.602C63.3053 52.8187 93.1241 23 129.907 23C166.691 23 196.509 52.8187 196.509 89.602C196.509 109.682 188.429 137.073 164.839 152.918C159.154 156.737 155.02 162.783 155.02 169.632V188.959H146.285V149.653C146.285 143.623 141.397 138.735 135.367 138.735H126.632C120.602 138.735 115.713 143.623 115.713 149.653V188.959H106.987V168.446C106.987 161.646 102.93 155.613 97.2351 151.897C73.5994 136.473 63.3053 110.888 63.3053 89.602ZM155.02 99.4286C155.02 112.695 144.265 123.449 130.999 123.449C117.733 123.449 106.979 112.695 106.979 99.4286C106.979 86.1625 117.733 75.4082 130.999 75.4082C144.265 75.4082 155.02 86.1625 155.02 99.4286Z" fill="#0C0C4F"/>
<path d="M141.918 149.653V188.959H120.081V149.653C120.081 146.035 123.014 143.102 126.632 143.102H135.367C138.985 143.102 141.918 146.035 141.918 149.653Z" fill="#0C0C4F"/>
<path d="M98.2441 197.694C98.2441 195.282 100.199 193.327 102.611 193.327H159.387C161.799 193.327 163.754 195.282 163.754 197.694C163.754 200.106 161.799 202.061 159.387 202.061V223.898C159.387 231.134 153.521 237 146.285 237H115.713C108.477 237 102.611 231.134 102.611 223.898V202.061C100.199 202.061 98.2441 200.106 98.2441 197.694Z" fill="#0C0C4F"/>
<path d="M75.7678 143.742C76.6205 144.594 76.6205 145.977 75.7678 146.83L58.2984 164.299C57.4456 165.152 56.063 165.152 55.2102 164.299C54.3574 163.446 54.3574 162.064 55.2102 161.211L72.6796 143.742C73.5324 142.889 74.915 142.889 75.7678 143.742Z" fill="#0C0C4F"/>
<path d="M184.047 146.83C183.194 145.977 183.194 144.594 184.047 143.742C184.9 142.889 186.282 142.889 187.135 143.742L204.604 161.211C205.457 162.064 205.457 163.446 204.604 164.299C203.752 165.152 202.369 165.152 201.516 164.299L184.047 146.83Z" fill="#0C0C4F"/>
<path d="M193.686 44.1972C192.833 45.0499 191.451 45.0499 190.598 44.1972C189.745 43.3444 189.745 41.9617 190.598 41.109L208.067 23.6396C208.92 22.7868 210.303 22.7868 211.156 23.6396C212.008 24.4924 212.008 25.875 211.156 26.7278L193.686 44.1972Z" fill="#0C0C4F"/>
<path d="M53.0728 98.6796C53.0728 99.8856 52.0951 100.863 50.8891 100.863H26.1837C24.9777 100.863 24 99.8856 24 98.6796C24 97.4736 24.9777 96.4959 26.1837 96.4959H50.8891C52.0951 96.4959 53.0728 97.4736 53.0728 98.6796Z" fill="#0C0C4F"/>
<path d="M208.926 100.863C207.72 100.863 206.742 99.8856 206.742 98.6796C206.742 97.4736 207.72 96.4959 208.926 96.4959H233.631C234.837 96.4959 235.815 97.4736 235.815 98.6796C235.815 99.8856 234.837 100.863 233.631 100.863H208.926Z" fill="#0C0C4F"/>
</svg>
