<svg width="276" height="276" viewBox="0 0 276 276" fill="none" xmlns="http://www.w3.org/2000/svg">
<path fill-rule="evenodd" clip-rule="evenodd" d="M53.1 92.2398C41.4468 92.2398 32 82.7841 32 71.1199C32 59.4557 41.4468 50 53.1 50C63.7301 50 72.5242 57.8682 73.9865 68.1037H90.1455C96.5416 68.1037 102.462 71.4854 105.716 76.9975L114.176 91.3294L126.969 83.9364C133.486 80.1702 141.515 80.1702 148.031 83.9364L158.841 90.1837L156.797 93.6474L146.022 87.4204C140.749 84.3729 134.252 84.3729 128.978 87.4204L116.221 94.7931L125.605 110.688C129.27 109.171 133.287 108.334 137.5 108.334C142.331 108.334 146.905 109.435 150.985 111.4L171.294 76.9976C174.548 71.4855 180.468 68.1038 186.864 68.1038H201.014C202.476 57.8683 211.27 50 221.9 50C233.553 50 243 59.4557 243 71.1199C243 82.7841 233.553 92.2398 221.9 92.2398C210.584 92.2398 201.349 83.3235 200.824 72.1268L186.864 72.1268C181.889 72.1268 177.285 74.7571 174.754 79.0442L154.488 113.375C162.22 118.42 167.575 126.811 168.504 136.495H181.07V140.518H168.632C168.321 150.316 163.494 158.972 156.167 164.471L174.754 195.958C177.284 200.245 181.889 202.875 186.864 202.875H200.823C201.347 191.678 210.583 182.76 221.9 182.76C233.553 182.76 243 192.216 243 203.88C243 215.544 233.553 225 221.9 225C211.271 225 202.477 217.133 201.014 206.898H186.864C180.468 206.898 174.547 203.517 171.294 198.004L152.799 166.675C148.28 169.23 143.06 170.688 137.5 170.688C132.557 170.688 127.884 169.536 123.732 167.485L116.221 180.209L128.978 187.582C134.252 190.629 140.749 190.629 146.022 187.582L156.797 181.355L158.842 184.818L148.031 191.066C141.515 194.832 133.486 194.832 126.969 191.066L114.176 183.673L105.716 198.004C102.462 203.516 96.5416 206.898 90.1455 206.898H73.9862C72.5232 217.133 63.7295 225 53.1 225C41.4468 225 32 215.544 32 203.88C32 192.216 41.4468 182.76 53.1 182.76C64.4166 182.76 73.6525 191.678 74.1765 202.875H90.1455C95.1203 202.875 99.7251 200.245 102.256 195.958L110.696 181.661L96.4234 173.413C89.9066 169.647 85.8921 162.686 85.8921 155.154V144.541H89.9112V155.154C89.9112 161.249 93.1596 166.881 98.4329 169.929L112.74 178.197L120.251 165.475C112.133 160.061 106.699 150.934 106.368 140.518L73.9862 140.518C72.523 150.753 63.7294 158.62 53.1 158.62C41.4468 158.62 32 149.164 32 137.5C32 125.836 41.4468 116.38 53.1 116.38C64.4167 116.38 73.6526 125.298 74.1765 136.495L106.496 136.495C107.483 126.206 113.466 117.378 121.988 112.469L112.74 96.8048L98.4329 105.073C93.1596 108.121 89.9112 113.753 89.9112 119.848V132.472H85.8921V119.848C85.8921 112.316 89.9066 105.356 96.4234 101.589L110.696 93.3411L102.256 79.0441C99.7251 74.7569 95.1203 72.1267 90.1455 72.1267L74.1764 72.1267C73.6515 83.3234 64.416 92.2398 53.1 92.2398ZM53.9441 59.3524C53.5482 58.7395 52.6524 58.7395 52.2566 59.3524L48.8427 64.6383C48.7071 64.8483 48.4983 65.0001 48.2569 65.0643L42.1798 66.6809C41.4751 66.8684 41.1982 67.7212 41.6583 68.2875L45.6255 73.1709C45.7831 73.3649 45.8629 73.6106 45.8493 73.8602L45.5073 80.1452C45.4676 80.874 46.1923 81.4011 46.8725 81.1381L52.7383 78.8704C52.9713 78.7803 53.2294 78.7803 53.4623 78.8704L59.3281 81.1381C60.0083 81.4011 60.7331 80.874 60.6934 80.1452L60.3514 73.8602C60.3378 73.6106 60.4176 73.3649 60.5751 73.1709L64.5424 68.2875C65.0024 67.7212 64.7256 66.8684 64.0209 66.6809L57.9437 65.0643C57.7024 65.0001 57.4936 64.8483 57.358 64.6383L53.9441 59.3524ZM45.0619 128.449C44.507 128.449 44.0571 128.899 44.0571 129.455V145.547C44.0571 146.103 44.507 146.553 45.0619 146.553H61.1381C61.693 146.553 62.1429 146.103 62.1429 145.547V129.455C62.1429 128.899 61.693 128.449 61.1381 128.449H45.0619ZM56.5164 192.818C57.0713 192.818 57.5212 193.268 57.5212 193.824V199.456H63.1476C63.7025 199.456 64.1524 199.906 64.1524 200.461V207.301C64.1524 207.856 63.7025 208.306 63.1476 208.306H57.5212V213.939C57.5212 214.494 57.0713 214.944 56.5164 214.944H49.684C49.1291 214.944 48.6792 214.494 48.6792 213.939V208.306H43.0524C42.4975 208.306 42.0476 207.856 42.0476 207.301V200.461C42.0476 199.906 42.4975 199.456 43.0524 199.456H48.6792V193.824C48.6792 193.268 49.1291 192.818 49.684 192.818H56.5164ZM233.207 67.2991C233.6 66.9063 233.6 66.2695 233.207 65.8767L228.009 60.6736C227.617 60.2808 226.981 60.2808 226.588 60.6736L222.334 64.932L218.08 60.6743C217.688 60.2815 217.052 60.2815 216.66 60.6743L211.462 65.8774C211.069 66.2702 211.069 66.907 211.462 67.2998L215.715 71.5575L211.462 75.815C211.069 76.2078 211.069 76.8446 211.462 77.2373L216.66 82.4405C217.052 82.8333 217.688 82.8333 218.081 82.4405L222.334 78.1831L226.588 82.4412C226.98 82.834 227.616 82.834 228.009 82.4412L233.207 77.238C233.599 76.8453 233.599 76.2085 233.207 75.8157L228.953 71.5575L233.207 67.2991ZM232.798 211.161L222.889 193.408C222.449 192.621 221.351 192.621 220.911 193.408L211.002 211.161C210.563 211.949 211.112 212.933 211.991 212.933H231.809C232.688 212.933 233.237 211.949 232.798 211.161Z" fill="url(#paint0_linear_4599_11722)"/>
<path fill-rule="evenodd" clip-rule="evenodd" d="M193.127 140.518V136.495H200.823C201.347 125.298 210.583 116.38 221.9 116.38C233.553 116.38 243 125.836 243 137.5C243 149.164 233.553 158.62 221.9 158.62C211.271 158.62 202.477 150.753 201.014 140.518H193.127ZM222.61 125.41L233.978 136.789C234.37 137.182 234.37 137.819 233.978 138.212L222.61 149.59C222.218 149.983 221.582 149.983 221.19 149.59L209.822 138.212C209.43 137.819 209.43 137.182 209.822 136.789L221.19 125.41C221.582 125.018 222.218 125.018 222.61 125.41Z" fill="url(#paint1_linear_4599_11722)"/>
<path d="M176.567 105.073L167.239 99.6823L169.284 96.2186L178.577 101.589C185.094 105.356 189.108 112.316 189.108 119.848V155.154C189.108 162.686 185.094 169.647 178.577 173.413L169.284 178.783L167.239 175.32L176.567 169.929C181.841 166.881 185.089 161.249 185.089 155.154V119.848C185.089 113.753 181.841 108.121 176.567 105.073Z" fill="url(#paint2_linear_4599_11722)"/>
<defs>
<linearGradient id="paint0_linear_4599_11722" x1="279.925" y1="6.24999" x2="-49.1963" y2="345.599" gradientUnits="userSpaceOnUse">
<stop stop-color="#7177FA"/>
<stop offset="1" stop-color="#EDCECB"/>
</linearGradient>
<linearGradient id="paint1_linear_4599_11722" x1="279.925" y1="6.24999" x2="-49.1963" y2="345.599" gradientUnits="userSpaceOnUse">
<stop stop-color="#7177FA"/>
<stop offset="1" stop-color="#EDCECB"/>
</linearGradient>
<linearGradient id="paint2_linear_4599_11722" x1="279.925" y1="6.24999" x2="-49.1963" y2="345.599" gradientUnits="userSpaceOnUse">
<stop stop-color="#7177FA"/>
<stop offset="1" stop-color="#EDCECB"/>
</linearGradient>
</defs>
</svg>
