<svg width="280" height="280" viewBox="0 0 280 280" fill="none" xmlns="http://www.w3.org/2000/svg">
<path d="M211.08 198.236C212.957 194.985 217.65 194.985 219.527 198.236L238.532 231.153C240.409 234.404 238.062 238.468 234.308 238.468H196.299C192.545 238.468 190.198 234.404 192.075 231.153L211.08 198.236Z" fill="#0C0C4F"/>
<path d="M173.852 217.742H194.577V212.866H173.852V217.742Z" fill="#0C0C4F"/>
<path d="M212.865 173.853V190.921H217.741V173.853H212.865Z" fill="#0C0C4F"/>
<path fill-rule="evenodd" clip-rule="evenodd" d="M266.508 176.291C266.508 169.558 261.049 164.099 254.316 164.099H176.29C169.557 164.099 164.098 169.558 164.098 176.291V254.317C164.098 261.05 169.557 266.509 176.29 266.509H254.316C261.049 266.509 266.508 261.05 266.508 254.317V176.291ZM254.316 168.976C258.356 168.976 261.631 172.251 261.631 176.291V254.317C261.631 258.357 258.356 261.632 254.316 261.632H176.29C172.25 261.632 168.975 258.357 168.975 254.317V176.291C168.975 172.251 172.25 168.976 176.29 168.976H254.316Z" fill="#0C0C4F"/>
<path d="M143.513 72.8699C143.676 72.4686 143.758 72.036 143.758 71.572C143.758 71.0453 143.676 70.5813 143.513 70.18C143.363 69.7662 143.118 69.39 142.78 69.0514C142.428 68.7128 141.971 68.4056 141.406 68.1297C140.855 67.8412 140.184 67.5591 139.394 67.2832C138.127 66.8317 136.973 66.3552 135.933 65.8536C134.892 65.352 134.008 64.7689 133.28 64.1042C132.54 63.4396 131.97 62.6684 131.569 61.7905C131.167 60.9002 130.967 59.8468 130.967 58.6304C130.967 57.5644 131.148 56.5926 131.512 55.7147C131.876 54.8244 132.39 54.0532 133.055 53.4011C133.719 52.749 134.522 52.2223 135.462 51.821C136.403 51.4197 137.45 51.1626 138.604 51.0497V47.0055H141.613V51.0874C142.742 51.2379 143.758 51.5451 144.661 52.0091C145.564 52.4731 146.335 53.075 146.974 53.8149C147.601 54.5673 148.084 55.4514 148.423 56.4672C148.774 57.4704 148.949 58.599 148.949 59.8531H143.72C143.72 59.0505 143.62 58.3482 143.419 57.7463C143.218 57.1443 142.936 56.649 142.573 56.2603C142.247 55.9217 141.852 55.6646 141.388 55.489C140.936 55.3135 140.435 55.2257 139.883 55.2257C139.243 55.2257 138.685 55.3135 138.209 55.489C137.745 55.652 137.362 55.884 137.061 56.185C136.76 56.4985 136.534 56.8622 136.384 57.276C136.246 57.6898 136.177 58.1413 136.177 58.6304C136.177 59.1194 136.246 59.5584 136.384 59.9471C136.534 60.3233 136.785 60.6744 137.136 61.0005C137.475 61.3265 137.926 61.64 138.491 61.941C139.055 62.2294 139.757 62.5241 140.598 62.8251C141.864 63.3016 143.012 63.797 144.04 64.3111C145.068 64.8128 145.952 65.3959 146.692 66.0605C147.419 66.7377 147.978 67.5215 148.366 68.4118C148.768 69.2896 148.968 70.3305 148.968 71.5344C148.968 72.6379 148.786 73.6349 148.423 74.5252C148.059 75.4031 147.539 76.1617 146.861 76.8013C146.184 77.4409 145.369 77.955 144.416 78.3438C143.463 78.72 142.397 78.9645 141.218 79.0774V82.7642H138.227V79.0774C137.162 78.977 136.127 78.745 135.124 78.3814C134.12 78.0052 133.236 77.4659 132.471 76.7637C131.694 76.0614 131.073 75.1773 130.609 74.1114C130.145 73.0329 129.913 71.7413 129.913 70.2364H135.161C135.161 71.1393 135.293 71.898 135.556 72.5125C135.82 73.1144 136.165 73.591 136.591 73.9421C137.005 74.3058 137.481 74.5628 138.021 74.7133C138.56 74.8638 139.112 74.9391 139.676 74.9391C140.391 74.9391 141.011 74.8513 141.538 74.6757C142.065 74.4876 142.497 74.2305 142.836 73.9045C143.137 73.6161 143.363 73.2712 143.513 72.8699Z" fill="#0C0C4F"/>
<path fill-rule="evenodd" clip-rule="evenodd" d="M139.715 37.307C124.902 37.307 112.894 49.3154 112.894 64.1285C112.894 78.9416 124.902 90.95 139.715 90.95C154.528 90.95 166.537 78.9416 166.537 64.1285C166.537 49.3154 154.528 37.307 139.715 37.307ZM117.77 64.1285C117.77 52.0087 127.595 42.1836 139.715 42.1836C151.835 42.1836 161.66 52.0087 161.66 64.1285C161.66 76.2483 151.835 86.0733 139.715 86.0733C127.595 86.0733 117.77 76.2483 117.77 64.1285Z" fill="#0C0C4F"/>
<path d="M98.2639 66.5668H109.236V61.6902H98.2639V66.5668Z" fill="#0C0C4F"/>
<path d="M171.413 66.5668H182.386V61.6902H171.413V66.5668Z" fill="#0C0C4F"/>
<path fill-rule="evenodd" clip-rule="evenodd" d="M100.702 12.9238C93.969 12.9238 88.5107 18.3822 88.5107 25.1154V103.142C88.5107 109.875 93.969 115.333 100.702 115.333L178.728 115.333C185.462 115.333 190.92 109.875 190.92 103.142V25.1154C190.92 18.3822 185.462 12.9238 178.728 12.9238L100.702 12.9238ZM93.3873 25.1154C93.3873 21.0755 96.6623 17.8005 100.702 17.8005L178.728 17.8005C182.768 17.8005 186.043 21.0755 186.043 25.1154V103.142C186.043 107.181 182.768 110.456 178.728 110.456L100.702 110.456C96.6623 110.456 93.3873 107.181 93.3873 103.142V25.1154Z" fill="#0C0C4F"/>
<path d="M64.1275 193.359C76.2473 193.359 86.0724 203.184 86.0724 215.304C86.0723 227.424 76.2473 237.249 64.1275 237.249C52.0077 237.249 42.1827 227.424 42.1827 215.304C42.1827 203.184 52.0077 193.359 64.1275 193.359Z" fill="#0C0C4F"/>
<path d="M104.36 217.742H90.949V212.866H104.36V217.742Z" fill="#0C0C4F"/>
<path d="M61.6892 190.921V173.853H66.5658V190.921H61.6892Z" fill="#0C0C4F"/>
<path fill-rule="evenodd" clip-rule="evenodd" d="M12.9229 176.291C12.9229 169.558 18.3812 164.099 25.1144 164.099H103.141C109.874 164.099 115.332 169.558 115.332 176.291L115.332 254.317C115.332 261.05 109.874 266.509 103.141 266.509H25.1144C18.3812 266.509 12.9229 261.05 12.9229 254.317L12.9229 176.291ZM25.1144 168.976C21.0745 168.976 17.7995 172.251 17.7995 176.291L17.7995 254.317C17.7995 258.357 21.0745 261.632 25.1144 261.632H103.141C107.18 261.632 110.456 258.357 110.456 254.317L110.455 176.291C110.455 172.251 107.18 168.976 103.141 168.976H25.1144Z" fill="#0C0C4F"/>
<path d="M66.5658 83.635C66.5658 74.2085 74.2075 66.5668 83.634 66.5668V61.6902C71.5142 61.6902 61.6892 71.5152 61.6892 83.635L61.6892 159.223H66.5658L66.5658 83.635Z" fill="#0C0C4F"/>
<path d="M195.797 66.5668C205.223 66.5668 212.865 74.2085 212.865 83.635V159.223H217.741V83.635C217.741 71.5152 207.916 61.6902 195.797 61.6902V66.5668Z" fill="#0C0C4F"/>
<path d="M151.907 217.742H120.209V212.866H151.907V217.742Z" fill="#0C0C4F"/>
</svg>
