<svg width="276" height="264" viewBox="0 0 276 264" fill="none" xmlns="http://www.w3.org/2000/svg">
<path fill-rule="evenodd" clip-rule="evenodd" d="M86.6875 42.8395H141.758V48.0843H86.6875V42.8395ZM167.981 42.8395H196.828C221.449 42.8395 241.408 62.7989 241.408 87.42C241.408 112.041 221.449 132.001 196.828 132.001H194.205V126.756H196.828C218.552 126.756 236.163 109.145 236.163 87.42C236.163 65.6955 218.552 48.0843 196.828 48.0843H167.981V42.8395ZM76.198 132.001C54.4735 132.001 36.8623 149.612 36.8623 171.336C36.8623 193.061 54.4735 210.672 76.198 210.672H103.733V215.917H76.198C51.5769 215.917 31.6175 195.957 31.6175 171.336C31.6175 146.715 51.5769 126.756 76.198 126.756H85.3764V132.001H76.198ZM167.981 132.001H110.289V126.756H167.981V132.001ZM129.957 210.672H190.272V215.917H129.957V210.672Z" fill="url(#paint0_linear_226_5966)"/>
<path fill-rule="evenodd" clip-rule="evenodd" d="M84.0652 48.0843C84.0652 35.0496 73.4984 24.4828 60.4637 24.4828C47.429 24.4828 36.8623 35.0496 36.8623 48.0843C36.8623 61.119 47.429 71.6857 60.4637 71.6857C73.4984 71.6857 84.0652 61.119 84.0652 48.0843ZM60.4637 19.2381C76.395 19.2381 89.3099 32.1529 89.3099 48.0843C89.3099 64.0156 76.395 76.9304 60.4637 76.9304C44.5324 76.9304 31.6175 64.0156 31.6175 48.0843C31.6175 32.1529 44.5324 19.2381 60.4637 19.2381Z" fill="url(#paint1_linear_226_5966)"/>
<path fill-rule="evenodd" clip-rule="evenodd" d="M72.2644 54.8974L60.4637 61.7106C55.219 64.7387 48.663 60.9536 48.663 54.8974L48.663 41.2711C48.663 35.215 55.2189 31.4299 60.4637 34.458L72.2644 41.2711C77.5092 44.2992 77.5092 51.8694 72.2644 54.8974ZM69.6421 50.3553C71.3903 49.346 71.3903 46.8226 69.6421 45.8132L57.8413 39.0001C56.0931 37.9907 53.9078 39.2524 53.9078 41.2711V54.8974C53.9078 56.9162 56.0931 58.1778 57.8413 57.1685L69.6421 50.3553Z" fill="url(#paint2_linear_226_5966)"/>
<path fill-rule="evenodd" clip-rule="evenodd" d="M126.023 213.294C126.023 207.501 121.327 202.805 115.534 202.805C109.741 202.805 105.044 207.501 105.044 213.294C105.044 219.088 109.741 223.784 115.534 223.784C121.327 223.784 126.023 219.088 126.023 213.294ZM115.534 197.56C124.224 197.56 131.268 204.605 131.268 213.294C131.268 221.984 124.224 229.029 115.534 229.029C106.844 229.029 99.7995 221.984 99.7995 213.294C99.7995 204.605 106.844 197.56 115.534 197.56Z" fill="url(#paint3_linear_226_5966)"/>
<path fill-rule="evenodd" clip-rule="evenodd" d="M107.667 129.378C107.667 123.585 102.97 118.889 97.1771 118.889C91.3839 118.889 86.6875 123.585 86.6875 129.378C86.6875 135.171 91.3839 139.868 97.1771 139.868C102.97 139.868 107.667 135.171 107.667 129.378ZM97.1771 113.644C105.867 113.644 112.911 120.688 112.911 129.378C112.911 138.068 105.867 145.112 97.1771 145.112C88.4873 145.112 81.4428 138.068 81.4428 129.378C81.4428 120.688 88.4873 113.644 97.1771 113.644Z" fill="url(#paint4_linear_226_5966)"/>
<path fill-rule="evenodd" clip-rule="evenodd" d="M165.359 45.4619C165.359 39.6687 160.663 34.9724 154.87 34.9724C149.076 34.9724 144.38 39.6687 144.38 45.4619C144.38 51.2551 149.076 55.9514 154.87 55.9514C160.663 55.9514 165.359 51.2551 165.359 45.4619ZM154.87 29.7276C163.559 29.7276 170.604 36.7721 170.604 45.4619C170.604 54.1517 163.559 61.1962 154.87 61.1962C146.18 61.1962 139.135 54.1517 139.135 45.4619C139.135 36.7721 146.18 29.7276 154.87 29.7276Z" fill="url(#paint5_linear_226_5966)"/>
<path fill-rule="evenodd" clip-rule="evenodd" d="M191.583 129.378C191.583 123.585 186.887 118.889 181.093 118.889C175.3 118.889 170.604 123.585 170.604 129.378C170.604 135.171 175.3 139.868 181.093 139.868C186.887 139.868 191.583 135.171 191.583 129.378ZM181.093 113.644C189.783 113.644 196.828 120.688 196.828 129.378C196.828 138.068 189.783 145.112 181.093 145.112C172.404 145.112 165.359 138.068 165.359 129.378C165.359 120.688 172.404 113.644 181.093 113.644Z" fill="url(#paint6_linear_226_5966)"/>
<path fill-rule="evenodd" clip-rule="evenodd" d="M215.184 239.518C229.667 239.518 241.408 227.777 241.408 213.294C241.408 198.811 229.667 187.071 215.184 187.071C200.701 187.071 188.96 198.811 188.96 213.294C188.96 227.777 200.701 239.518 215.184 239.518ZM211.209 222.939L225.964 208.618L223.473 206.052L211.209 217.955L205.7 212.608L203.209 215.174L211.209 222.939Z" fill="url(#paint7_linear_226_5966)"/>
<defs>
<linearGradient id="paint0_linear_226_5966" x1="42.7684" y1="267.126" x2="154.336" y2="-19.1176" gradientUnits="userSpaceOnUse">
<stop stop-color="#82BDBD"/>
<stop offset="1" stop-color="#4F6D87"/>
</linearGradient>
<linearGradient id="paint1_linear_226_5966" x1="42.7684" y1="267.126" x2="154.336" y2="-19.1176" gradientUnits="userSpaceOnUse">
<stop stop-color="#82BDBD"/>
<stop offset="1" stop-color="#4F6D87"/>
</linearGradient>
<linearGradient id="paint2_linear_226_5966" x1="42.7684" y1="267.126" x2="154.336" y2="-19.1176" gradientUnits="userSpaceOnUse">
<stop stop-color="#82BDBD"/>
<stop offset="1" stop-color="#4F6D87"/>
</linearGradient>
<linearGradient id="paint3_linear_226_5966" x1="42.7684" y1="267.126" x2="154.336" y2="-19.1176" gradientUnits="userSpaceOnUse">
<stop stop-color="#82BDBD"/>
<stop offset="1" stop-color="#4F6D87"/>
</linearGradient>
<linearGradient id="paint4_linear_226_5966" x1="42.7684" y1="267.126" x2="154.336" y2="-19.1176" gradientUnits="userSpaceOnUse">
<stop stop-color="#82BDBD"/>
<stop offset="1" stop-color="#4F6D87"/>
</linearGradient>
<linearGradient id="paint5_linear_226_5966" x1="42.7684" y1="267.126" x2="154.336" y2="-19.1176" gradientUnits="userSpaceOnUse">
<stop stop-color="#82BDBD"/>
<stop offset="1" stop-color="#4F6D87"/>
</linearGradient>
<linearGradient id="paint6_linear_226_5966" x1="42.7684" y1="267.126" x2="154.336" y2="-19.1176" gradientUnits="userSpaceOnUse">
<stop stop-color="#82BDBD"/>
<stop offset="1" stop-color="#4F6D87"/>
</linearGradient>
<linearGradient id="paint7_linear_226_5966" x1="42.7684" y1="267.126" x2="154.336" y2="-19.1176" gradientUnits="userSpaceOnUse">
<stop stop-color="#82BDBD"/>
<stop offset="1" stop-color="#4F6D87"/>
</linearGradient>
</defs>
</svg>
