<svg width="260" height="260" viewBox="0 0 260 260" fill="none" xmlns="http://www.w3.org/2000/svg">
<path fill-rule="evenodd" clip-rule="evenodd" d="M85.35 52.2143H134.7V56.9286H85.35V52.2143ZM158.2 52.2143H184.05C206.114 52.2143 224 70.1549 224 92.2857C224 114.417 206.114 132.357 184.05 132.357H181.7V127.643H184.05C203.518 127.643 219.3 111.813 219.3 92.2857C219.3 72.7585 203.518 56.9286 184.05 56.9286H158.2V52.2143ZM75.95 132.357C56.482 132.357 40.7 148.187 40.7 167.714C40.7 187.242 56.482 203.071 75.95 203.071H100.625V207.786H75.95C53.8862 207.786 36 189.845 36 167.714C36 145.583 53.8862 127.643 75.95 127.643H84.175V132.357H75.95ZM158.2 132.357H106.5V127.643H158.2V132.357ZM124.125 203.071H178.175V207.786H124.125V203.071Z" fill="#0C0C4F"/>
<path fill-rule="evenodd" clip-rule="evenodd" d="M83 56.9285C83 45.2122 73.5308 35.7143 61.85 35.7143C50.1692 35.7143 40.7 45.2122 40.7 56.9285C40.7 68.6449 50.1692 78.1428 61.85 78.1428C73.5308 78.1428 83 68.6449 83 56.9285ZM61.85 31C76.1266 31 87.7 42.6086 87.7 56.9285C87.7 71.2485 76.1266 82.8571 61.85 82.8571C47.5734 82.8571 36 71.2485 36 56.9285C36 42.6086 47.5734 31 61.85 31Z" fill="#0C0C4F"/>
<path fill-rule="evenodd" clip-rule="evenodd" d="M72.425 63.0526L61.85 69.1766C57.15 71.8984 51.275 68.4962 51.275 63.0526L51.275 50.8045C51.275 45.361 57.15 41.9587 61.85 44.6805L72.425 50.8045C77.125 53.5263 77.125 60.3308 72.425 63.0526ZM70.075 58.9699C71.6417 58.0627 71.6417 55.7945 70.075 54.8872L59.5 48.7632C57.9333 47.8559 55.975 48.99 55.975 50.8045V63.0526C55.975 64.8671 57.9333 66.0012 59.5 65.094L70.075 58.9699Z" fill="#0C0C4F"/>
<path fill-rule="evenodd" clip-rule="evenodd" d="M120.6 205.429C120.6 200.221 116.391 196 111.2 196C106.009 196 101.8 200.221 101.8 205.429C101.8 210.636 106.009 214.857 111.2 214.857C116.391 214.857 120.6 210.636 120.6 205.429ZM111.2 191.286C118.987 191.286 125.3 197.618 125.3 205.429C125.3 213.239 118.987 219.571 111.2 219.571C103.413 219.571 97.1 213.239 97.1 205.429C97.1 197.618 103.413 191.286 111.2 191.286Z" fill="#0C0C4F"/>
<path fill-rule="evenodd" clip-rule="evenodd" d="M104.15 130C104.15 124.793 99.9415 120.571 94.75 120.571C89.5585 120.571 85.35 124.793 85.35 130C85.35 135.207 89.5585 139.429 94.75 139.429C99.9415 139.429 104.15 135.207 104.15 130ZM94.75 115.857C102.537 115.857 108.85 122.189 108.85 130C108.85 137.811 102.537 144.143 94.75 144.143C86.9628 144.143 80.65 137.811 80.65 130C80.65 122.189 86.9628 115.857 94.75 115.857Z" fill="#0C0C4F"/>
<path fill-rule="evenodd" clip-rule="evenodd" d="M155.85 54.5714C155.85 49.3642 151.641 45.1429 146.45 45.1429C141.259 45.1429 137.05 49.3642 137.05 54.5714C137.05 59.7787 141.259 64 146.45 64C151.641 64 155.85 59.7787 155.85 54.5714ZM146.45 40.4286C154.237 40.4286 160.55 46.7605 160.55 54.5714C160.55 62.3823 154.237 68.7143 146.45 68.7143C138.663 68.7143 132.35 62.3823 132.35 54.5714C132.35 46.7605 138.663 40.4286 146.45 40.4286Z" fill="#0C0C4F"/>
<path fill-rule="evenodd" clip-rule="evenodd" d="M179.35 130C179.35 124.793 175.141 120.571 169.95 120.571C164.759 120.571 160.55 124.793 160.55 130C160.55 135.207 164.759 139.429 169.95 139.429C175.141 139.429 179.35 135.207 179.35 130ZM169.95 115.857C177.737 115.857 184.05 122.189 184.05 130C184.05 137.811 177.737 144.143 169.95 144.143C162.163 144.143 155.85 137.811 155.85 130C155.85 122.189 162.163 115.857 169.95 115.857Z" fill="#0C0C4F"/>
<path fill-rule="evenodd" clip-rule="evenodd" d="M200.5 229C213.479 229 224 218.447 224 205.429C224 192.41 213.479 181.857 200.5 181.857C187.521 181.857 177 192.41 177 205.429C177 218.447 187.521 229 200.5 229ZM196.938 214.097L210.16 201.225L207.928 198.919L196.938 209.618L192.001 204.812L189.769 207.118L196.938 214.097Z" fill="#0C0C4F"/>
</svg>
