<svg width="211" height="141" viewBox="0 0 211 141" fill="none" xmlns="http://www.w3.org/2000/svg">
<path d="M87.0189 73.8614C87.0189 84.0695 95.2942 92.3447 105.502 92.3447C115.71 92.3447 123.985 84.0695 123.985 73.8614C123.985 63.6534 115.71 55.3781 105.502 55.3781C95.2942 55.3781 87.0189 63.6534 87.0189 73.8614Z" fill="url(#paint0_linear_4769_18)"/>
<path fill-rule="evenodd" clip-rule="evenodd" d="M105.502 0.234375C91.5281 0.234375 80.2 11.5625 80.2 25.5365V41.0327H80.1106C75.3788 41.0327 71.5429 44.8686 71.5429 49.6004V100.379C71.5429 105.11 75.3788 108.946 80.1106 108.946H130.889C135.621 108.946 139.456 105.11 139.456 100.379V76.7989H173C172.935 76.1418 172.902 75.4754 172.902 74.8011C172.902 74.1287 172.935 73.464 173 72.8086H139.456V49.6004C139.456 44.8686 135.621 41.0327 130.889 41.0327H130.804V24.3002C130.804 11.009 120.03 0.234375 106.739 0.234375H105.502ZM122.237 41.0327V24.3002C122.237 15.7408 115.298 8.80209 106.739 8.80209H105.502C96.2599 8.80209 88.7677 16.2944 88.7677 25.5365V41.0327H122.237ZM80.1106 45.3166C77.7447 45.3166 75.8268 47.2345 75.8268 49.6004V100.379C75.8268 102.744 77.7447 104.662 80.1106 104.662H130.889C133.255 104.662 135.173 102.744 135.173 100.379V49.6004C135.173 47.2345 133.255 45.3166 130.889 45.3166H80.1106Z" fill="url(#paint1_linear_4769_18)"/>
<path fill-rule="evenodd" clip-rule="evenodd" d="M18.0513 43.7722C8.08186 43.7722 0 35.6903 0 25.7208C0 15.7514 8.08186 7.66949 18.0513 7.66949C27.346 7.66949 35 14.6943 35.9935 23.7243H38.1974C47.4885 23.7243 55.0204 31.2563 55.0204 40.5474L55.0204 68.8235H51.0301V40.5474C51.0301 33.4601 45.2847 27.7147 38.1974 27.7147H35.9938C35.0015 36.746 27.347 43.7722 18.0513 43.7722ZM18.0513 39.7818C10.2857 39.7818 3.99033 33.4865 3.99033 25.7208C3.99033 17.9552 10.2857 11.6598 18.0513 11.6598C25.817 11.6598 32.1124 17.9552 32.1124 25.7208C32.1124 33.4865 25.817 39.7818 18.0513 39.7818Z" fill="url(#paint2_linear_4769_18)"/>
<path fill-rule="evenodd" clip-rule="evenodd" d="M192.949 44.082C202.918 44.082 211 36.0001 211 26.0306C211 16.0611 202.918 7.97928 192.949 7.97928C183.761 7.97928 176.176 14.844 175.043 23.7243H172.803C163.512 23.7243 155.98 31.2563 155.98 40.5474V68.8065H159.971V40.5474C159.971 33.4601 165.716 27.7147 172.803 27.7147H174.975C175.824 36.8946 183.547 44.082 192.949 44.082ZM190.211 34.0181L202.574 21.6553L199.752 18.8337L190.211 28.3749L186.146 24.3097L183.324 27.1313L190.211 34.0181Z" fill="url(#paint3_linear_4769_18)"/>
<path fill-rule="evenodd" clip-rule="evenodd" d="M192.949 92.8525C202.918 92.8525 211 84.7706 211 74.8011C211 64.8317 202.918 56.7498 192.949 56.7498C182.979 56.7498 174.897 64.8317 174.897 74.8011C174.897 84.7706 182.979 92.8525 192.949 92.8525ZM190.211 82.5002L202.574 70.1374L199.752 67.3158L190.211 76.857L186.146 72.7918L183.324 75.6134L190.211 82.5002Z" fill="url(#paint4_linear_4769_18)"/>
<path fill-rule="evenodd" clip-rule="evenodd" d="M211 122.712C211 132.682 202.918 140.764 192.949 140.764C183.917 140.764 176.435 134.131 175.107 125.471H172.803C163.512 125.471 155.98 117.939 155.98 108.648V78.668L155.981 80.8107H159.971V108.648C159.971 115.736 165.716 121.481 172.803 121.481H174.939C175.572 112.086 183.393 104.661 192.949 104.661C202.918 104.661 211 112.743 211 122.712ZM190.211 130.7L183.324 123.813L186.146 120.991L190.211 125.057L199.752 115.515L202.574 118.337L190.211 130.7Z" fill="url(#paint5_linear_4769_18)"/>
<path fill-rule="evenodd" clip-rule="evenodd" d="M0 74.8011C0 84.7706 8.08186 92.8525 18.0513 92.8525C27.3456 92.8525 34.9993 85.8283 35.9934 76.7989H67.1314V72.8086H35.994C35.0022 63.7767 27.3474 56.7498 18.0513 56.7498C8.08186 56.7498 0 64.8317 0 74.8011ZM3.99033 74.8011C3.99033 82.5668 10.2857 88.8622 18.0513 88.8622C25.817 88.8622 32.1124 82.5668 32.1124 74.8011C32.1124 67.0355 25.817 60.7401 18.0513 60.7401C10.2857 60.7401 3.99033 67.0355 3.99033 74.8011Z" fill="url(#paint6_linear_4769_18)"/>
<path fill-rule="evenodd" clip-rule="evenodd" d="M0 122.712C0 132.682 8.08186 140.764 18.0513 140.764C27.0827 140.764 34.565 134.131 35.8932 125.471H38.1971C47.4882 125.471 55.0201 117.939 55.0201 108.648V78.668L55.0198 80.8107H51.0298V108.648C51.0298 115.736 45.2844 121.481 38.1971 121.481H36.0614C35.4285 112.086 27.607 104.661 18.0513 104.661C8.08186 104.661 0 112.743 0 122.712ZM3.99033 122.712C3.99033 130.478 10.2857 136.773 18.0513 136.773C25.817 136.773 32.1124 130.478 32.1124 122.712C32.1124 114.947 25.817 108.651 18.0513 108.651C10.2857 108.651 3.99033 114.947 3.99033 122.712Z" fill="url(#paint7_linear_4769_18)"/>
<defs>
<linearGradient id="paint0_linear_4769_18" x1="11.2151" y1="158.376" x2="60.2245" y2="-39.8599" gradientUnits="userSpaceOnUse">
<stop stop-color="#909BB3"/>
<stop offset="1" stop-color="#5D2E87"/>
</linearGradient>
<linearGradient id="paint1_linear_4769_18" x1="11.2151" y1="158.376" x2="60.2245" y2="-39.8599" gradientUnits="userSpaceOnUse">
<stop stop-color="#909BB3"/>
<stop offset="1" stop-color="#5D2E87"/>
</linearGradient>
<linearGradient id="paint2_linear_4769_18" x1="11.2151" y1="158.376" x2="60.2245" y2="-39.8599" gradientUnits="userSpaceOnUse">
<stop stop-color="#909BB3"/>
<stop offset="1" stop-color="#5D2E87"/>
</linearGradient>
<linearGradient id="paint3_linear_4769_18" x1="11.2151" y1="158.376" x2="60.2245" y2="-39.8599" gradientUnits="userSpaceOnUse">
<stop stop-color="#909BB3"/>
<stop offset="1" stop-color="#5D2E87"/>
</linearGradient>
<linearGradient id="paint4_linear_4769_18" x1="11.2151" y1="158.376" x2="60.2245" y2="-39.8599" gradientUnits="userSpaceOnUse">
<stop stop-color="#909BB3"/>
<stop offset="1" stop-color="#5D2E87"/>
</linearGradient>
<linearGradient id="paint5_linear_4769_18" x1="11.2151" y1="158.376" x2="60.2245" y2="-39.8599" gradientUnits="userSpaceOnUse">
<stop stop-color="#909BB3"/>
<stop offset="1" stop-color="#5D2E87"/>
</linearGradient>
<linearGradient id="paint6_linear_4769_18" x1="11.2151" y1="158.376" x2="60.2245" y2="-39.8599" gradientUnits="userSpaceOnUse">
<stop stop-color="#909BB3"/>
<stop offset="1" stop-color="#5D2E87"/>
</linearGradient>
<linearGradient id="paint7_linear_4769_18" x1="11.2151" y1="158.376" x2="60.2245" y2="-39.8599" gradientUnits="userSpaceOnUse">
<stop stop-color="#909BB3"/>
<stop offset="1" stop-color="#5D2E87"/>
</linearGradient>
</defs>
</svg>
