<svg width="260" height="261" viewBox="0 0 260 261" fill="none" xmlns="http://www.w3.org/2000/svg">
<path d="M111.019 133.315C111.019 143.523 119.294 151.798 129.502 151.798C139.71 151.798 147.985 143.523 147.985 133.315C147.985 123.107 139.71 114.831 129.502 114.831C119.294 114.831 111.019 123.107 111.019 133.315Z" fill="#0C0C4F"/>
<path fill-rule="evenodd" clip-rule="evenodd" d="M129.502 59.6877C115.528 59.6877 104.2 71.0159 104.2 84.9899V100.486H104.111C99.3788 100.486 95.5429 104.322 95.5429 109.054V159.832C95.5429 164.564 99.3788 168.4 104.111 168.4H154.889C159.621 168.4 163.456 164.564 163.456 159.832V136.252H197C196.935 135.595 196.902 134.929 196.902 134.254C196.902 133.582 196.935 132.917 197 132.262H163.456V109.054C163.456 104.322 159.621 100.486 154.889 100.486H154.804V83.7535C154.804 70.4623 144.03 59.6877 130.739 59.6877H129.502ZM146.237 100.486V83.7535C146.237 75.1941 139.298 68.2554 130.739 68.2554H129.502C120.26 68.2554 112.768 75.7477 112.768 84.9899V100.486H146.237ZM104.111 104.77C101.745 104.77 99.8268 106.688 99.8268 109.054V159.832C99.8268 162.198 101.745 164.116 104.111 164.116H154.889C157.255 164.116 159.173 162.198 159.173 159.832V109.054C159.173 106.688 157.255 104.77 154.889 104.77H104.111Z" fill="#0C0C4F"/>
<path fill-rule="evenodd" clip-rule="evenodd" d="M42.0513 103.225C32.0819 103.225 24 95.1436 24 85.1741C24 75.2047 32.0819 67.1228 42.0513 67.1228C51.346 67.1228 59 74.1476 59.9935 83.1777H62.1974C71.4885 83.1777 79.0204 90.7096 79.0204 100.001L79.0204 128.277H75.0301V100.001C75.0301 92.9134 69.2847 87.168 62.1974 87.168H59.9938C59.0015 96.1993 51.347 103.225 42.0513 103.225ZM42.0513 99.2352C34.2857 99.2352 27.9903 92.9398 27.9903 85.1741C27.9903 77.4085 34.2857 71.1131 42.0513 71.1131C49.817 71.1131 56.1124 77.4085 56.1124 85.1741C56.1124 92.9398 49.817 99.2352 42.0513 99.2352Z" fill="#0C0C4F"/>
<path fill-rule="evenodd" clip-rule="evenodd" d="M216.949 103.535C226.918 103.535 235 95.4534 235 85.4839C235 75.5145 226.918 67.4326 216.949 67.4326C207.761 67.4326 200.176 74.2973 199.043 83.1777H196.803C187.512 83.1777 179.98 90.7096 179.98 100.001V128.26H183.971V100.001C183.971 92.9134 189.716 87.168 196.803 87.168H198.975C199.824 96.3479 207.547 103.535 216.949 103.535ZM214.211 93.4714L226.574 81.1086L223.752 78.287L214.211 87.8282L210.146 83.763L207.324 86.5846L214.211 93.4714Z" fill="#0C0C4F"/>
<path fill-rule="evenodd" clip-rule="evenodd" d="M216.949 152.306C226.918 152.306 235 144.224 235 134.254C235 124.285 226.918 116.203 216.949 116.203C206.979 116.203 198.897 124.285 198.897 134.254C198.897 144.224 206.979 152.306 216.949 152.306ZM214.211 141.954L226.574 129.591L223.752 126.769L214.211 136.31L210.146 132.245L207.324 135.067L214.211 141.954Z" fill="#0C0C4F"/>
<path fill-rule="evenodd" clip-rule="evenodd" d="M235 182.166C235 192.135 226.918 200.217 216.949 200.217C207.917 200.217 200.435 193.585 199.107 184.925H196.803C187.512 184.925 179.98 177.393 179.98 168.102V138.121L179.981 140.264H183.971V168.102C183.971 175.189 189.716 180.934 196.803 180.934H198.939C199.572 171.539 207.393 164.114 216.949 164.114C226.918 164.114 235 172.196 235 182.166ZM214.211 190.153L207.324 183.266L210.146 180.445L214.211 184.51L223.752 174.969L226.574 177.79L214.211 190.153Z" fill="#0C0C4F"/>
<path fill-rule="evenodd" clip-rule="evenodd" d="M24 134.254C24 144.224 32.0819 152.306 42.0513 152.306C51.3456 152.306 58.9993 145.282 59.9934 136.252H91.1314V132.262H59.994C59.0022 123.23 51.3474 116.203 42.0513 116.203C32.0819 116.203 24 124.285 24 134.254ZM27.9903 134.254C27.9903 142.02 34.2857 148.315 42.0513 148.315C49.817 148.315 56.1124 142.02 56.1124 134.254C56.1124 126.489 49.817 120.193 42.0513 120.193C34.2857 120.193 27.9903 126.489 27.9903 134.254Z" fill="#0C0C4F"/>
<path fill-rule="evenodd" clip-rule="evenodd" d="M24 182.166C24 192.135 32.0819 200.217 42.0513 200.217C51.0827 200.217 58.565 193.585 59.8932 184.925H62.1971C71.4882 184.925 79.0201 177.393 79.0201 168.102V138.121L79.0198 140.264H75.0298V168.102C75.0298 175.189 69.2844 180.934 62.1971 180.934H60.0614C59.4285 171.539 51.607 164.114 42.0513 164.114C32.0819 164.114 24 172.196 24 182.166ZM27.9903 182.166C27.9903 189.931 34.2857 196.227 42.0513 196.227C49.817 196.227 56.1124 189.931 56.1124 182.166C56.1124 174.4 49.817 168.105 42.0513 168.105C34.2857 168.105 27.9903 174.4 27.9903 182.166Z" fill="#0C0C4F"/>
</svg>
