<svg width="260" height="260" viewBox="0 0 260 260" fill="none" xmlns="http://www.w3.org/2000/svg">
<path fill-rule="evenodd" clip-rule="evenodd" d="M175.491 135.472C175.491 160.481 155.217 180.755 130.208 180.755C105.198 180.755 84.9245 160.481 84.9245 135.472C84.9245 110.463 105.198 90.1887 130.208 90.1887C155.217 90.1887 175.491 110.463 175.491 135.472ZM132.472 116.03L151.249 134.808L154.451 131.606L135.009 112.164C132.357 109.512 128.056 109.512 125.403 112.164L105.962 131.606L109.164 134.808L127.943 116.028V156.009H132.472V116.03Z" fill="#0C0C4F"/>
<path fill-rule="evenodd" clip-rule="evenodd" d="M220.774 20H39.6415C27.1369 20 17 30.137 17 42.6415V217.136C17 229.64 27.1369 239.777 39.6415 239.777H220.774C233.278 239.777 243.415 229.64 243.415 217.136V42.6415C243.415 30.137 233.278 20 220.774 20ZM238.887 132.076V116.844C238.887 110.876 234.049 106.038 228.081 106.038H173.173C172.092 104.464 170.928 102.952 169.686 101.509H228.081C232.296 101.509 236.115 103.211 238.887 105.964V76.0892C238.887 70.1211 234.049 65.283 228.081 65.283H32.3345C26.3664 65.283 21.5283 70.1211 21.5283 76.0892V105.964C24.3003 103.211 28.1187 101.509 32.3345 101.509H90.7295C89.4872 102.952 88.3227 104.464 87.2423 106.038H32.3345C26.3664 106.038 21.5283 110.876 21.5283 116.844V132.076L50.2167 132.076C64.8886 132.076 75.3014 144.211 79.8727 156.136C87.8737 177.008 108.503 189.761 129.513 189.761C150.641 189.761 172.661 176.888 181.201 155.982C185.997 144.241 196.408 132.076 211.074 132.076H238.887ZM21.5283 136.604V216.981C21.5283 218.231 21.655 219.452 21.8963 220.632C23.5855 228.885 30.8885 235.094 39.6414 235.094L220.774 235.094C230.777 235.094 238.887 226.985 238.887 216.981V136.605H211.074C199.138 136.605 189.906 146.645 185.393 157.695C176.084 180.485 152.277 194.289 129.513 194.289C106.77 194.289 84.3665 180.51 75.6445 157.757C71.3721 146.611 62.1527 136.604 50.2166 136.604L21.5283 136.604ZM238.887 65.2093V42.6415C238.887 32.6379 230.777 24.5283 220.774 24.5283H39.6415C29.6379 24.5283 21.5283 32.6379 21.5283 42.6415V65.2093C24.3003 62.4559 28.1187 60.7547 32.3345 60.7547H228.081C232.296 60.7547 236.115 62.4559 238.887 65.2093Z" fill="#0C0C4F"/>
</svg>
