<svg width="227" height="221" viewBox="0 0 227 221" fill="none" xmlns="http://www.w3.org/2000/svg">
<path fill-rule="evenodd" clip-rule="evenodd" d="M158.531 115.752C158.531 140.761 138.257 161.035 113.248 161.035C88.2388 161.035 67.965 140.761 67.965 115.752C67.965 90.7426 88.2388 70.4687 113.248 70.4687C138.257 70.4687 158.531 90.7426 158.531 115.752ZM115.512 96.3104L134.289 115.088L137.491 111.886L118.05 92.4442C115.397 89.7916 111.096 89.7916 108.444 92.4442L89.0023 111.886L92.2043 115.088L110.984 96.3083L110.984 136.289L115.512 136.289L115.512 96.3104Z" fill="url(#paint0_linear_41_108044)"/>
<path fill-rule="evenodd" clip-rule="evenodd" d="M203.814 0.280029L22.6819 0.280029C10.1774 0.280029 0.0404358 10.417 0.0404358 22.9216L0.0404358 197.416C0.0404358 209.92 10.1774 220.057 22.6819 220.057L203.814 220.057C216.319 220.057 226.456 209.92 226.456 197.416L226.456 22.9215C226.456 10.417 216.319 0.280029 203.814 0.280029ZM221.927 112.356L221.927 97.1239C221.927 91.1559 217.089 86.3178 211.121 86.3178L156.213 86.3178C155.133 84.7438 153.968 83.2322 152.726 81.7895L211.121 81.7895C215.337 81.7895 219.155 83.4907 221.927 86.244L221.927 56.3692C221.927 50.4011 217.089 45.563 211.121 45.563L15.3749 45.563C9.40683 45.563 4.56874 50.4011 4.56874 56.3692L4.56874 86.244C7.34076 83.4907 11.1592 81.7895 15.3749 81.7895L73.77 81.7895C72.5277 83.2322 71.3631 84.7438 70.2828 86.3178L15.3749 86.3178C9.40683 86.3178 4.56874 91.1559 4.56874 97.1239L4.56874 112.356L33.2571 112.356C47.929 112.356 58.3419 124.491 62.9132 136.416C70.9142 157.288 91.543 170.041 112.553 170.041C133.682 170.041 155.702 157.168 164.241 136.262C169.037 124.521 179.448 112.356 194.114 112.356L221.927 112.356ZM4.56874 116.884L4.56874 197.261C4.56874 198.511 4.69545 199.732 4.93673 200.912C6.62595 209.165 13.9289 215.374 22.6819 215.374L203.814 215.374C213.818 215.374 221.927 207.265 221.927 197.261L221.927 116.885L194.114 116.885C182.178 116.885 172.947 126.925 168.433 137.975C159.124 160.765 135.317 174.569 112.553 174.569C89.8104 174.569 67.407 160.79 58.6849 138.037C54.4125 126.891 45.1931 116.884 33.257 116.884L4.56874 116.884ZM221.927 45.4893L221.927 22.9215C221.927 12.9179 213.818 4.80833 203.814 4.80833L22.6819 4.80833C12.6783 4.80833 4.56874 12.9179 4.56874 22.9216L4.56874 45.4893C7.34076 42.7359 11.1592 41.0347 15.3749 41.0347L211.121 41.0347C215.337 41.0347 219.155 42.736 221.927 45.4893Z" fill="url(#paint1_linear_41_108044)"/>
<defs>
<linearGradient id="paint0_linear_41_108044" x1="-1.21484e-05" y1="248.5" x2="138.6" y2="-62.1283" gradientUnits="userSpaceOnUse">
<stop stop-color="#EDC39C"/>
<stop offset="1" stop-color="#C78F6F"/>
</linearGradient>
<linearGradient id="paint1_linear_41_108044" x1="-1.21484e-05" y1="248.5" x2="138.6" y2="-62.1283" gradientUnits="userSpaceOnUse">
<stop stop-color="#EDC39C"/>
<stop offset="1" stop-color="#C78F6F"/>
</linearGradient>
</defs>
</svg>
