<svg width="108" height="120" viewBox="0 0 108 120" fill="none" xmlns="http://www.w3.org/2000/svg">
<path d="M19.2638 83.2277C13.3084 77.2722 13.3084 67.6165 19.2638 61.661L37.0455 43.8793C43.001 37.9238 52.6568 37.9238 58.6123 43.8793C64.5677 49.8348 64.5677 59.4906 58.6122 65.4461L52.431 71.6273L51.0168 70.2131L57.198 64.0319C62.3725 58.8574 62.3725 50.468 57.198 45.2935C52.0236 40.1191 43.6342 40.1191 38.4597 45.2935L20.6781 63.0752C15.5036 68.2496 15.5036 76.6391 20.6781 81.8135C25.8525 86.9879 34.2419 86.9879 39.4164 81.8135L42.888 78.3418L44.3023 79.7561L40.8306 83.2277C34.8751 89.1832 25.2193 89.1832 19.2638 83.2277Z" fill="url(#paint0_linear_29_143168)"/>
<path d="M87.0604 58.339C93.0159 52.3835 93.0159 42.7278 87.0604 36.7723C81.1049 30.8168 71.4491 30.8168 65.4936 36.7723L62.022 40.2439L63.4362 41.6582L66.9078 38.1865C72.0823 33.0121 80.4717 33.0121 85.6462 38.1865C90.8206 43.3609 90.8206 51.7504 85.6462 56.9248L67.8645 74.7065C62.6901 79.8809 54.3006 79.8809 49.1262 74.7065C43.9517 69.532 43.9517 61.1426 49.1262 55.9681L55.3074 49.7869L53.8932 48.3727L47.712 54.5539C41.7565 60.5094 41.7565 70.1652 47.712 76.1207C53.6675 82.0762 63.3232 82.0762 69.2787 76.1207L87.0604 58.339Z" fill="url(#paint1_linear_29_143168)"/>
<path fill-rule="evenodd" clip-rule="evenodd" d="M62.0002 2.61918C57.0498 -0.238946 50.9506 -0.238945 46.0002 2.61918L8.30664 24.3816C3.35622 27.2397 0.306641 32.5217 0.306641 38.238V81.7628C0.306641 87.479 3.35623 92.7611 8.30664 95.6192L46.0002 117.382C50.9506 120.24 57.0498 120.24 62.0002 117.382L99.6938 95.6192C104.644 92.7611 107.694 87.479 107.694 81.7628V38.238C107.694 32.5217 104.644 27.2397 99.6938 24.3816L62.0002 2.61918ZM98.6938 26.1136L61.0002 4.35123C56.6686 1.85037 51.3318 1.85037 47.0002 4.35123L9.30664 26.1136C4.97503 28.6145 2.30664 33.2363 2.30664 38.238V81.7628C2.30664 86.7645 4.97503 91.3863 9.30664 93.8871L47.0002 115.65C51.3318 118.15 56.6686 118.15 61.0002 115.65L98.6938 93.8871C103.025 91.3863 105.694 86.7645 105.694 81.7628V38.238C105.694 33.2363 103.025 28.6145 98.6938 26.1136Z" fill="url(#paint2_linear_29_143168)"/>
<defs>
<linearGradient id="paint0_linear_29_143168" x1="107.694" y1="-37.7101" x2="-51.5647" y2="-2.64521" gradientUnits="userSpaceOnUse">
<stop stop-color="#81D2FF"/>
<stop offset="0.963542" stop-color="#5B5F68"/>
</linearGradient>
<linearGradient id="paint1_linear_29_143168" x1="107.694" y1="-37.7101" x2="-51.5647" y2="-2.64521" gradientUnits="userSpaceOnUse">
<stop stop-color="#81D2FF"/>
<stop offset="0.963542" stop-color="#5B5F68"/>
</linearGradient>
<linearGradient id="paint2_linear_29_143168" x1="107.694" y1="-37.7101" x2="-51.5647" y2="-2.64521" gradientUnits="userSpaceOnUse">
<stop stop-color="#81D2FF"/>
<stop offset="0.963542" stop-color="#5B5F68"/>
</linearGradient>
</defs>
</svg>
