<svg width="107" height="112" viewBox="0 0 107 112" fill="none" xmlns="http://www.w3.org/2000/svg">
<path fill-rule="evenodd" clip-rule="evenodd" d="M48.3334 76C43.3628 76 39.3334 71.9706 39.3334 67C39.3334 62.0294 43.3628 58 48.3334 58C50.3496 58 52.211 58.663 53.7114 59.7829L60.7066 52.7876L57.0405 49.1215C55.1506 47.2316 56.4891 44.0001 59.1618 44.0001L68.3334 44.0001C69.9902 44.0001 71.3334 45.3433 71.3334 47.0001V56.1717C71.3334 58.8444 68.1019 60.1829 66.2121 58.293L62.1208 54.2018L55.1728 61.1498C56.5198 62.7231 57.3334 64.7665 57.3334 67C57.3334 71.9706 53.3039 76 48.3334 76ZM67.6263 56.8788C68.2562 57.5088 69.3334 57.0626 69.3334 56.1717V47.0001C69.3334 46.4479 68.8857 46.0001 68.3334 46.0001L59.1618 46.0001C58.2709 46.0001 57.8247 47.0773 58.4547 47.7072L67.6263 56.8788Z" fill="url(#paint0_linear_29_143122)"/>
<path fill-rule="evenodd" clip-rule="evenodd" d="M19.3334 41C19.3334 39.3431 20.6765 38 22.3334 38H74.3334C75.9902 38 77.3334 39.3431 77.3334 41V93C77.3334 94.6569 75.9902 96 74.3334 96H22.3334C20.6765 96 19.3334 94.6569 19.3334 93V41ZM22.3334 40C21.7811 40 21.3334 40.4477 21.3334 41V93C21.3334 93.5523 21.7811 94 22.3334 94H74.3334C74.8857 94 75.3334 93.5523 75.3334 93V41C75.3334 40.4477 74.8857 40 74.3334 40H22.3334Z" fill="url(#paint1_linear_29_143122)"/>
<path fill-rule="evenodd" clip-rule="evenodd" d="M13.3334 0C6.3211 0 0.605562 5.55201 0.342812 12.5H0.333374V102.5C0.333374 107.471 4.36281 111.5 9.33337 111.5H85.3334C86.9902 111.5 88.3334 110.157 88.3334 108.5V27.5C88.3334 25.8431 86.9902 24.5 85.3334 24.5H13.3334C7.25824 24.5 2.33337 19.5751 2.33337 13.5V13C2.33337 6.92487 7.25824 2 13.3334 2H87.3334V0H13.3334ZM2.33337 102.5V20.4314C4.63601 24.078 8.70184 26.5 13.3334 26.5H85.3334C85.8857 26.5 86.3334 26.9477 86.3334 27.5V108.5C86.3334 109.052 85.8857 109.5 85.3334 109.5H9.33337C5.46738 109.5 2.33337 106.366 2.33337 102.5Z" fill="url(#paint2_linear_29_143122)"/>
<path d="M11.8334 14H81.8334V12H11.8334V14Z" fill="url(#paint3_linear_29_143122)"/>
<path d="M90.8334 32H92.8334C93.9379 32 94.8334 32.8954 94.8334 34V54C94.8334 55.1046 93.9379 56 92.8334 56H90.8334V32Z" fill="url(#paint4_linear_29_143122)"/>
<path d="M94.8334 60H92.8334V84H94.8334C95.9379 84 96.8334 83.1046 96.8334 82V62C96.8334 60.8954 95.9379 60 94.8334 60Z" fill="url(#paint5_linear_29_143122)"/>
<defs>
<linearGradient id="paint0_linear_29_143122" x1="96.8334" y1="-35.7642" x2="-46.8067" y2="-5.42009" gradientUnits="userSpaceOnUse">
<stop stop-color="#81D2FF"/>
<stop offset="0.963542" stop-color="#5B5F68"/>
</linearGradient>
<linearGradient id="paint1_linear_29_143122" x1="96.8334" y1="-35.7642" x2="-46.8067" y2="-5.42009" gradientUnits="userSpaceOnUse">
<stop stop-color="#81D2FF"/>
<stop offset="0.963542" stop-color="#5B5F68"/>
</linearGradient>
<linearGradient id="paint2_linear_29_143122" x1="96.8334" y1="-35.7642" x2="-46.8067" y2="-5.42009" gradientUnits="userSpaceOnUse">
<stop stop-color="#81D2FF"/>
<stop offset="0.963542" stop-color="#5B5F68"/>
</linearGradient>
<linearGradient id="paint3_linear_29_143122" x1="96.8334" y1="-35.7642" x2="-46.8067" y2="-5.42009" gradientUnits="userSpaceOnUse">
<stop stop-color="#81D2FF"/>
<stop offset="0.963542" stop-color="#5B5F68"/>
</linearGradient>
<linearGradient id="paint4_linear_29_143122" x1="96.8334" y1="-35.7642" x2="-46.8067" y2="-5.42009" gradientUnits="userSpaceOnUse">
<stop stop-color="#81D2FF"/>
<stop offset="0.963542" stop-color="#5B5F68"/>
</linearGradient>
<linearGradient id="paint5_linear_29_143122" x1="96.8334" y1="-35.7642" x2="-46.8067" y2="-5.42009" gradientUnits="userSpaceOnUse">
<stop stop-color="#81D2FF"/>
<stop offset="0.963542" stop-color="#5B5F68"/>
</linearGradient>
</defs>
</svg>
