<svg width="72" height="72" viewBox="0 0 72 72" fill="none" xmlns="http://www.w3.org/2000/svg">
<path d="M18.9296 45.3526L18.2978 44.9485L18.9296 45.3526ZM53.0718 45.3546L53.7037 44.9506L53.0718 45.3546ZM56.1269 58.4938L55.3814 58.4115L56.1269 58.4938ZM55.0103 60.1985L55.3835 60.849V60.849L55.0103 60.1985ZM16.9897 60.1985L17.363 59.548H17.363L16.9897 60.1985ZM15.8731 58.4938L15.1276 58.5761L15.8731 58.4938ZM15.1391 42.928L14.5073 42.5239H14.5073L15.1391 42.928ZM15.2469 42.7611L15.8754 43.1702L16.6713 41.9476L15.2139 42.0118L15.2469 42.7611ZM11.3241 58.167L11.2115 58.9085L12.1439 59.0501L12.072 58.1098L11.3241 58.167ZM6.03128 56.846L6.28042 56.1386H6.28041L6.03128 56.846ZM5.68641 56.7246L5.43728 57.432L5.43728 57.432L5.68641 56.7246ZM4.56477 55.2667L3.81714 55.3262L4.56477 55.2667ZM4.53577 54.9022L3.78813 54.9617L4.53577 54.9022ZM56.8636 42.9305L57.4954 42.5265L57.4954 42.5265L56.8636 42.9305ZM60.6769 58.1669L59.9291 58.1096L59.8571 59.05L60.7896 58.9083L60.6769 58.1669ZM56.7542 42.7611L56.7873 42.0118L55.3297 41.9475L56.1257 43.1703L56.7542 42.7611ZM67.4642 54.9022L68.2119 54.9617L67.4642 54.9022ZM67.4352 55.2667L68.1829 55.3262V55.3262L67.4352 55.2667ZM66.3136 56.7246L66.5627 57.432L66.5627 57.432L66.3136 56.7246ZM65.9687 56.846L65.7196 56.1386L65.9687 56.846ZM36 8.25C29.3726 8.25 24 13.6226 24 20.25H25.5C25.5 14.451 30.201 9.75 36 9.75V8.25ZM48 20.25C48 13.6226 42.6274 8.25 36 8.25V9.75C41.799 9.75 46.5 14.451 46.5 20.25H48ZM36 32.25C42.6274 32.25 48 26.8774 48 20.25H46.5C46.5 26.049 41.799 30.75 36 30.75V32.25ZM24 20.25C24 26.8774 29.3726 32.25 36 32.25V30.75C30.201 30.75 25.5 26.049 25.5 20.25H24ZM56.25 19.5C50.8652 19.5 46.5 23.8652 46.5 29.25H48C48 24.6937 51.6936 21 56.25 21V19.5ZM66 29.25C66 23.8652 61.6348 19.5 56.25 19.5V21C60.8064 21 64.5 24.6937 64.5 29.25H66ZM56.25 39C61.6348 39 66 34.6348 66 29.25H64.5C64.5 33.8063 60.8064 37.5 56.25 37.5V39ZM46.5 29.25C46.5 34.6348 50.8652 39 56.25 39V37.5C51.6936 37.5 48 33.8063 48 29.25H46.5ZM15.75 19.5C10.3652 19.5 6 23.8652 6 29.25H7.5C7.5 24.6937 11.1937 21 15.75 21V19.5ZM25.5 29.25C25.5 23.8652 21.1348 19.5 15.75 19.5V21C20.3063 21 24 24.6937 24 29.25H25.5ZM15.75 39C21.1348 39 25.5 34.6348 25.5 29.25H24C24 33.8063 20.3063 37.5 15.75 37.5V39ZM6 29.25C6 34.6348 10.3652 39 15.75 39V37.5C11.1937 37.5 7.5 33.8063 7.5 29.25H6ZM36 35.25C28.5585 35.25 22.0236 39.1228 18.2978 44.9485L19.5614 45.7567C23.0234 40.3436 29.0916 36.75 36 36.75V35.25ZM53.7037 44.9506C49.978 39.1238 43.4424 35.25 36 35.25V36.75C42.9092 36.75 48.9781 40.3445 52.4399 45.7587L53.7037 44.9506ZM56.8724 58.5761C57.3952 53.8394 56.2814 48.9822 53.7037 44.9506L52.4399 45.7587C54.831 49.4983 55.867 54.0117 55.3814 58.4115L56.8724 58.5761ZM55.3835 60.849C56.2141 60.3724 56.7673 59.5279 56.8724 58.5761L55.3814 58.4115C55.3289 58.8874 55.0523 59.3097 54.637 59.548L55.3835 60.849ZM36 66C43.0497 66 49.6709 64.1268 55.3835 60.849L54.637 59.548C49.1455 62.6989 42.7808 64.5 36 64.5V66ZM16.6165 60.849C22.3291 64.1268 28.9503 66 36 66V64.5C29.2192 64.5 22.8545 62.6989 17.363 59.548L16.6165 60.849ZM15.1276 58.5761C15.2327 59.5279 15.7859 60.3724 16.6165 60.849L17.363 59.548C16.9477 59.3097 16.6711 58.8874 16.6186 58.4115L15.1276 58.5761ZM18.2978 44.9485C15.719 48.9805 14.6047 53.8385 15.1276 58.5761L16.6186 58.4115C16.1329 54.0109 17.1694 49.4967 19.5614 45.7567L18.2978 44.9485ZM15.771 43.3321C15.8056 43.278 15.8404 43.224 15.8754 43.1702L14.6183 42.3519C14.5811 42.4091 14.5441 42.4664 14.5073 42.5239L15.771 43.3321ZM12.072 58.1098C11.6773 52.9528 12.9635 47.7218 15.771 43.3321L14.5073 42.5239C11.522 47.1916 10.1572 52.7472 10.5763 58.2243L12.072 58.1098ZM5.78215 57.5534C7.52487 58.1672 9.34048 58.6243 11.2115 58.9085L11.4368 57.4255C9.65954 57.1556 7.93531 56.7214 6.28042 56.1386L5.78215 57.5534ZM5.43728 57.432L5.78215 57.5534L6.28041 56.1386L5.93554 56.0171L5.43728 57.432ZM3.81714 55.3262C3.89356 56.2866 4.52853 57.1119 5.43728 57.432L5.93554 56.0171C5.58602 55.8941 5.3418 55.5766 5.31241 55.2072L3.81714 55.3262ZM3.78813 54.9617L3.81714 55.3262L5.31241 55.2072L5.28341 54.8428L3.78813 54.9617ZM3.75 54C3.75 54.3231 3.76284 54.6439 3.78813 54.9617L5.28341 54.8428C5.26126 54.5645 5.25 54.2834 5.25 54H3.75ZM15.2139 42.0118C8.83494 42.2925 3.75 47.5522 3.75 54H5.25C5.25 48.3586 9.69933 43.7559 15.2798 43.5103L15.2139 42.0118ZM56.2317 43.3345C59.0381 47.7237 60.3236 52.9538 59.9291 58.1096L61.4247 58.2241C61.8437 52.7482 60.4796 47.1937 57.4954 42.5265L56.2317 43.3345ZM56.1257 43.1703C56.1612 43.2249 56.1966 43.2796 56.2317 43.3346L57.4954 42.5265C57.4581 42.4682 57.4206 42.41 57.3828 42.3519L56.1257 43.1703ZM68.25 54C68.25 47.5526 63.1657 42.2932 56.7873 42.0118L56.7212 43.5104C62.3012 43.7565 66.75 48.3589 66.75 54H68.25ZM68.2119 54.9617C68.2371 54.6439 68.25 54.3232 68.25 54H66.75C66.75 54.2834 66.7387 54.5645 66.7166 54.8428L68.2119 54.9617ZM68.1829 55.3262L68.2119 54.9617L66.7166 54.8428L66.6876 55.2072L68.1829 55.3262ZM66.5627 57.432C67.4715 57.1119 68.1064 56.2866 68.1829 55.3262L66.6876 55.2072C66.6582 55.5766 66.414 55.8941 66.0645 56.0171L66.5627 57.432ZM66.2178 57.5534L66.5627 57.432L66.0645 56.0171L65.7196 56.1386L66.2178 57.5534ZM60.7896 58.9083C62.6602 58.6242 64.4755 58.167 66.2178 57.5534L65.7196 56.1386C64.065 56.7213 62.3411 57.1554 60.5643 57.4254L60.7896 58.9083Z" fill="#858585"/>
</svg>
