<svg width="1280" height="747" viewBox="0 0 1280 747" fill="none" xmlns="http://www.w3.org/2000/svg">
<g style="mix-blend-mode:color-dodge">
<circle cx="396.98" cy="396.98" r="396.453" transform="matrix(-1 0 0 1 1458.96 -162)" stroke="#150E1F" stroke-width="1.05413"/>
<path d="M340.527 235C340.527 268.184 360.591 299.88 397.066 328.784C433.535 357.684 486.339 383.734 551.636 405.62C682.225 449.391 862.666 476.473 1062 476.473C1261.33 476.473 1441.77 449.391 1572.36 405.62C1637.66 383.734 1690.47 357.684 1726.93 328.784C1763.41 299.88 1783.47 268.184 1783.47 235C1783.47 201.816 1763.41 170.12 1726.93 141.216C1690.47 112.316 1637.66 86.2662 1572.36 64.3799C1441.77 20.609 1261.33 -6.47294 1062 -6.47294C862.666 -6.47294 682.225 20.609 551.636 64.3799C486.339 86.2662 433.535 112.316 397.066 141.216C360.591 170.12 340.527 201.816 340.527 235Z" stroke="#150E1F" stroke-width="1.05413"/>
<path d="M195.527 235C195.527 274.95 219.649 313.091 263.461 347.857C307.267 382.62 370.689 413.948 449.106 440.268C605.935 492.906 822.626 525.473 1062 525.473C1301.37 525.473 1518.06 492.906 1674.89 440.268C1753.31 413.948 1816.73 382.62 1860.54 347.857C1904.35 313.091 1928.47 274.95 1928.47 235C1928.47 195.05 1904.35 156.909 1860.54 122.143C1816.73 87.3802 1753.31 56.0515 1674.89 29.7316C1518.06 -22.9065 1301.37 -55.4729 1062 -55.4729C822.626 -55.4729 605.935 -22.9065 449.106 29.7316C370.689 56.0515 307.267 87.3802 263.461 122.143C219.649 156.909 195.527 195.05 195.527 235Z" stroke="#150E1F" stroke-width="1.05413"/>
<path d="M-94 556.378H633.407C703.083 556.378 759.566 499.894 759.566 430.219V230.192C759.566 62.9705 895.126 -72.5894 1062.35 -72.5894C1229.57 -72.5894 1365.13 62.9705 1365.13 230.192V480.828C1365.13 550.504 1421.61 606.987 1491.29 606.987H3168.36" stroke="#150E1F"/>
<path d="M-19.5002 600.431H633.407C726.308 600.431 801.619 525.119 801.619 432.219V230.192C801.619 86.1957 918.351 -30.5364 1062.35 -30.5364C1206.34 -30.5364 1323.08 86.1957 1323.08 230.192V480.828C1323.08 573.729 1398.39 649.04 1491.29 649.04H3166.68" stroke="#150E1F"/>
<path d="M-14.5 644.484H633.407C749.533 644.484 843.672 550.345 843.672 434.218V230.192C843.672 109.421 941.577 11.5166 1062.35 11.5166C1183.12 11.5166 1281.02 109.421 1281.02 230.192V480.828C1281.02 596.954 1375.16 691.093 1491.29 691.093H3199.48" stroke="#150E1F"/>
<path d="M-115.5 688.536H633.407C772.759 688.536 885.725 575.57 885.725 436.219V230.192C885.725 132.646 964.802 53.5696 1062.35 53.5696C1159.89 53.5696 1238.97 132.646 1238.97 230.192V480.828C1238.97 620.179 1351.94 733.146 1491.29 733.146H3172.57" stroke="#150E1F"/>
<path d="M-65 736.589H641.818C799.749 736.589 927.778 608.561 927.778 450.629V230.192C927.778 155.871 988.027 95.6226 1062.35 95.6226C1136.67 95.6226 1196.92 155.871 1196.92 230.192V480.828C1196.92 643.404 1328.71 775.199 1491.29 775.199H3182.66" stroke="#150E1F"/>
</g>
</svg>
