<svg width="262" height="292" viewBox="0 0 262 292" fill="none" xmlns="http://www.w3.org/2000/svg">
<path fill-rule="evenodd" clip-rule="evenodd" d="M123 76.6182C127.95 73.7601 134.049 73.7601 139 76.6182L187.952 104.881C192.902 107.739 195.952 113.021 195.952 118.737V175.262C195.952 180.978 192.902 186.26 187.952 189.118L139 217.381C134.049 220.239 127.95 220.239 123 217.381L74.0479 189.118C69.0974 186.26 66.0479 180.978 66.0479 175.262V118.737C66.0479 113.021 69.0974 107.739 74.0479 104.881L123 76.6182ZM138.5 77.4842L187.452 105.747C189.655 107.019 191.457 108.803 192.742 110.9L131.5 146.258V75.4829C133.922 75.5636 136.329 76.2307 138.5 77.4842ZM132 147.125L193.235 111.77C194.344 113.884 194.952 116.267 194.952 118.737V175.262C194.952 177.806 194.307 180.259 193.133 182.42L132 147.125ZM130.5 146.259V75.4829C128.078 75.5636 125.671 76.2307 123.5 77.4842L74.5479 105.747C72.3443 107.019 70.5425 108.803 69.2577 110.9L130.5 146.259ZM68.764 111.77L130 147.125L68.866 182.42C67.6923 180.259 67.0479 177.806 67.0479 175.262V118.737C67.0479 116.267 67.655 113.884 68.764 111.77ZM131.5 147.991L192.627 183.283C191.351 185.3 189.59 187.018 187.452 188.252L138.5 216.515C136.329 217.768 133.922 218.435 131.5 218.516V147.991ZM130.5 147.99L69.3722 183.283C70.6487 185.3 72.409 187.017 74.5479 188.252L123.5 216.515C125.671 217.768 128.078 218.435 130.5 218.516V147.99Z" stroke="url(#paint0_linear_3_32846)" stroke-width="0.5" stroke-linecap="round" stroke-linejoin="round"/>
<path fill-rule="evenodd" clip-rule="evenodd" d="M114.904 5.28719C124.805 -0.429062 137.003 -0.429062 146.904 5.28719L244.808 61.812C254.708 67.5282 260.808 78.0923 260.808 89.5248V202.574C260.808 214.007 254.708 224.571 244.808 230.287L146.904 286.812C137.003 292.528 124.805 292.528 114.904 286.812L17 230.287C7.09916 224.571 1 214.007 1 202.574V89.5248C1 78.0923 7.09916 67.5282 17 61.812L114.904 5.28719ZM146.404 6.15321L244.308 62.678C249.019 65.398 252.841 69.251 255.512 73.7803L131.404 145.434V2.00403C136.589 2.08757 141.757 3.47063 146.404 6.15321ZM131.904 146.3L256.006 74.6498C258.459 79.136 259.808 84.2344 259.808 89.5248V202.574C259.808 208.014 258.382 213.251 255.795 217.828L131.904 146.3ZM130.404 145.433V2.00403C125.219 2.08757 120.05 3.47063 115.404 6.15321L17.5 62.678C12.789 65.3979 8.96655 69.2507 6.29623 73.7797L130.404 145.433ZM5.80226 74.6492L129.904 146.3L6.01278 217.829C3.42551 213.251 2 208.014 2 202.574V89.5248C2 84.2342 3.34829 79.1356 5.80226 74.6492ZM131.404 147.165L255.289 218.691C252.631 223.059 248.889 226.776 244.308 229.421L146.404 285.946C141.757 288.629 136.589 290.012 131.404 290.095V147.165ZM130.404 147.166L6.51884 218.691C9.17717 223.059 12.9184 226.776 17.5 229.421L115.404 285.946C120.05 288.629 125.219 290.012 130.404 290.095V147.166Z" stroke="url(#paint1_linear_3_32846)" stroke-linecap="round" stroke-linejoin="round"/>
<defs>
<linearGradient id="paint0_linear_3_32846" x1="193.546" y1="58.2115" x2="91.1685" y2="270.877" gradientUnits="userSpaceOnUse">
<stop stop-color="#EC796B"/>
<stop offset="1" stop-color="#F4C9FF"/>
</linearGradient>
<linearGradient id="paint1_linear_3_32846" x1="255.996" y1="-31.5263" x2="51.2418" y2="393.805" gradientUnits="userSpaceOnUse">
<stop stop-color="#EC796B"/>
<stop offset="1" stop-color="#F4C9FF"/>
</linearGradient>
</defs>
</svg>
