<svg width="1440" height="1025" viewBox="0 0 1440 1025" fill="none" xmlns="http://www.w3.org/2000/svg">
<mask id="mask0_6617_106127" style="mask-type:alpha" maskUnits="userSpaceOnUse" x="0" y="0" width="1441" height="1026">
<path d="M3.71204e-05 0.000256259L1440.72 0.000564706L1440 822.001L0.000168914 1025L3.71204e-05 0.000256259Z" fill="url(#paint0_linear_6617_106127)"/>
</mask>
<g mask="url(#mask0_6617_106127)">
<path fill-rule="evenodd" clip-rule="evenodd" d="M480.75 282.998C441.814 282.998 410.25 314.562 410.25 353.498C410.25 392.434 441.814 423.998 480.75 423.998C519.686 423.998 551.25 392.434 551.25 353.498C551.25 314.562 519.686 282.998 480.75 282.998ZM480.75 283.998C442.366 283.998 411.25 315.114 411.25 353.498C411.25 391.882 442.366 422.998 480.75 422.998C519.134 422.998 550.25 391.882 550.25 353.498C550.25 315.114 519.134 283.998 480.75 283.998Z" fill="white" fill-opacity="0.32"/>
<path fill-rule="evenodd" clip-rule="evenodd" d="M467.751 859.455V770.25C467.751 748.338 470.44 727.055 475.508 706.712C477.252 706.737 479 706.75 480.751 706.75C491.883 706.75 502.896 706.236 513.766 705.231C507.576 725.819 504.251 747.646 504.251 770.25V2269.5H505.251V770.25C505.251 747.604 508.604 725.74 514.841 705.13C528.749 703.801 542.422 701.667 555.814 698.776C546.75 720.811 541.751 744.946 541.751 770.25L541.75 2293.5H542.75L542.751 770.25C542.751 744.836 547.82 720.606 557.003 698.517C574.023 694.78 590.585 689.819 606.59 683.73C589.365 708.206 579.251 738.047 579.251 770.25L579.25 2264.25H580.25L580.251 770.25C580.251 737.723 590.639 707.622 608.278 683.084C645.931 668.537 680.474 647.739 710.634 621.961C716.893 621.162 723.274 620.75 729.75 620.75H953.25C956.899 620.75 960.527 620.666 964.134 620.5H1089.2C1049.29 643.861 1002.83 657.25 953.25 657.25H729.75C667.342 657.25 616.751 707.842 616.751 770.25L616.75 2265.75H617.751V770.25C617.751 708.394 667.895 658.25 729.75 658.25H953.25C1003.62 658.25 1050.78 644.481 1091.17 620.5H1875.21V619.5H1092.84C1110.06 609.106 1126.02 596.846 1140.46 583H1877.26V582H1141.5C1153.05 570.806 1163.6 558.591 1173.01 545.5H1877.26V544.5H1173.73C1181.94 532.972 1189.27 520.773 1195.62 508H1879.31V507H1196.11C1201.88 495.286 1206.82 483.094 1210.86 470.5H1873.17V469.5H1211.18C1219.34 443.709 1223.75 416.244 1223.75 387.75C1223.75 238.357 1102.64 117.25 953.251 117.25L745.058 117.25C680.224 44.5373 585.835 -1.25002 480.751 -1.25C403.495 -1.25 332.019 23.4976 273.819 65.4978C262.697 48.1021 256.251 27.429 256.251 5.25V-107.25H255.251V5.25C255.251 27.6479 261.767 48.5239 273.007 66.0852C263.099 73.2781 253.578 80.9722 244.482 89.1304C228.24 65.2126 218.751 36.3396 218.751 5.25V-107.25H217.751V5.25C217.751 36.5969 227.334 65.7053 243.731 89.8054C234.56 98.0776 225.824 106.823 217.561 116.003C194.737 85.001 181.251 46.7004 181.251 5.25V-107.25H180.251V5.25C180.251 46.9968 193.858 85.5654 216.879 116.763C208.538 126.083 200.683 135.848 193.355 146.017C162.325 107.513 143.751 58.5508 143.751 5.25002V-107.25H142.751V5.25002C142.751 58.8877 161.478 108.151 192.75 146.859C184.716 158.078 177.321 169.785 170.618 181.928C130.578 136.961 106.251 77.6965 106.251 12.75V-107.25H105.251V12.75C105.251 78.0791 129.769 137.682 170.107 182.857C142.467 233.289 126.751 291.184 126.751 352.75C126.751 393.658 133.69 432.946 146.455 469.5H-92.3616C-154.218 469.5 -204.362 419.356 -204.362 357.5V278C-204.362 128.607 -325.469 7.50031 -474.862 7.50031C-624.255 7.50031 -745.362 128.607 -745.362 278V863C-745.362 924.856 -795.506 975 -857.362 975H-969.861V976H-857.362C-794.954 976 -744.362 925.409 -744.362 863V278C-744.362 129.16 -623.702 8.50031 -474.862 8.50031C-326.021 8.50031 -205.362 129.16 -205.362 278V357.5C-205.362 419.909 -154.77 470.5 -92.3616 470.5H146.806C151.214 483.004 156.306 495.185 162.034 507H-92.3618C-174.928 507 -241.862 440.067 -241.862 357.5V278C-241.862 149.318 -346.179 45.0003 -474.862 45.0003C-603.544 45.0003 -707.862 149.318 -707.862 278V863C-707.862 945.567 -774.795 1012.5 -857.362 1012.5H-969.862V1013.5H-857.362C-774.243 1013.5 -706.862 946.119 -706.862 863V278C-706.862 149.87 -602.992 46.0003 -474.862 46.0003C-346.732 46.0003 -242.862 149.87 -242.862 278V357.5C-242.862 440.619 -175.481 508 -92.3618 508H162.521C168.682 520.605 175.57 532.79 183.13 544.5H-92.3613C-195.639 544.5 -279.361 460.778 -279.361 357.5V278C-279.361 170.029 -366.89 82.5003 -474.861 82.5003C-582.833 82.5003 -670.361 170.029 -670.361 278V863C-670.361 966.278 -754.084 1050 -857.361 1050H-969.861V1051H-857.361C-753.532 1051 -669.361 966.83 -669.361 863V278C-669.361 170.581 -582.281 83.5003 -474.861 83.5003C-367.442 83.5003 -280.361 170.581 -280.361 278V357.5C-280.361 461.33 -196.191 545.5 -92.3613 545.5H183.778C192.076 558.259 201.174 570.449 211 582H-92.3618C-216.35 582 -316.862 481.488 -316.862 357.5V278C-316.862 190.739 -387.601 120 -474.862 120C-562.123 120 -632.862 190.739 -632.862 278V863C-632.862 986.988 -733.374 1087.5 -857.362 1087.5H-969.862V1088.5H-857.362C-732.821 1088.5 -631.862 987.54 -631.862 863V278C-631.862 191.292 -561.571 121 -474.862 121C-388.153 121 -317.862 191.292 -317.862 278V357.5C-317.862 482.041 -216.902 583 -92.3618 583H211.854C221.302 594.024 231.417 604.46 242.135 614.246C241.218 615.986 240.319 617.738 239.439 619.5H-92.3616C-237.06 619.5 -354.362 502.199 -354.362 357.5V278C-354.362 211.45 -408.311 157.5 -474.862 157.5C-541.412 157.5 -595.362 211.45 -595.362 278V870.5C-595.362 1011.06 -709.305 1125 -849.862 1125H-969.862V1126H-849.862C-708.753 1126 -594.362 1011.61 -594.362 870.5V278C-594.362 212.002 -540.86 158.5 -474.862 158.5C-408.864 158.5 -355.362 212.002 -355.362 278V357.5C-355.362 502.751 -237.613 620.5 -92.3616 620.5H238.943C221.066 656.678 211.02 697.415 211.02 740.5C211.02 885.094 324.166 1003.26 466.751 1011.29V2278.5H467.751V1011.35V1010.35V973.686V972.684V935.999V934.997V898.27C467.751 898.27 467.751 897.142 467.751 897.266V860.462V859.455ZM240.558 619.5C241.324 617.972 242.105 616.453 242.899 614.942C244.591 616.477 246.298 617.997 248.019 619.5H240.558ZM249.17 620.5H240.059C222.111 656.654 212.02 697.399 212.02 740.5C212.02 884.541 324.719 1002.26 466.751 1010.29V973.622C344.947 965.644 248.622 864.321 248.622 740.5C248.622 703.983 257 669.422 271.939 638.636C264.098 632.9 256.502 626.848 249.17 620.5ZM249.542 619.5C247.467 617.7 245.413 615.876 243.381 614.029C249.11 603.23 255.55 592.867 262.639 583H309.691C299.446 594.219 290.279 606.441 282.357 619.5H249.542ZM281.754 620.5H250.7C257.695 626.516 264.929 632.262 272.385 637.723C275.272 631.839 278.399 626.093 281.754 620.5ZM283.528 619.5C291.504 606.43 300.733 594.207 311.048 583H342.496C346.898 585.652 351.381 588.182 355.942 590.586C345.678 599.243 336.315 608.935 328.015 619.5H283.528ZM327.234 620.5H282.921C279.433 626.282 276.19 632.227 273.205 638.322C283.144 645.558 293.474 652.287 304.16 658.472C310.418 644.907 318.181 632.178 327.234 620.5ZM329.288 619.5C337.51 609.121 346.765 599.599 356.898 591.088C369.349 597.588 382.366 603.15 395.858 607.68C390.316 611.293 385.014 615.242 379.981 619.5H329.288ZM378.811 620.5H328.501C319.271 632.31 311.372 645.209 305.03 658.974C315.589 665.047 326.491 670.588 337.702 675.563C347.266 654.305 361.383 635.536 378.811 620.5ZM381.536 619.5C386.469 615.39 391.656 611.576 397.072 608.085C413.202 613.416 430.002 617.274 447.314 619.5H381.536ZM456.259 620.5H380.348C362.625 635.565 348.282 654.487 338.616 675.968C349.764 680.877 361.213 685.226 372.929 688.98C389.731 653.388 423.404 627.323 463.631 621.1C461.164 620.933 458.707 620.733 456.259 620.5ZM456.308 619.5C436.202 617.585 416.738 613.467 398.161 607.39C418.726 594.371 442.516 585.986 468.063 583.704C472.756 583.985 477.487 584.128 482.251 584.128C482.527 584.128 482.751 583.904 482.751 583.628C482.751 583.352 482.527 583.128 482.251 583.128C481.639 583.128 481.027 583.126 480.416 583.121C479.951 583.117 479.485 583.112 479.021 583.106C480.095 583.084 481.172 583.073 482.251 583.073C482.346 583.073 482.435 583.047 482.511 583H545.071C533.724 594.193 523.388 606.41 514.215 619.5H456.308ZM513.518 620.5H482.63C482.538 620.607 482.402 620.675 482.25 620.675C481.231 620.675 480.214 620.687 479.2 620.713C480.215 620.724 481.232 620.729 482.25 620.729C482.526 620.729 482.75 620.953 482.75 621.229C482.75 621.506 482.526 621.729 482.25 621.729C477.781 621.729 473.337 621.621 468.92 621.408C426.814 626.068 391.285 652.547 373.89 689.286C405.78 699.403 439.632 705.113 474.73 705.7C482.539 674.753 495.833 645.988 513.518 620.5ZM515.438 619.5C524.671 606.398 535.075 594.181 546.498 583H604.06C588.586 593.407 574.473 605.682 562.044 619.5H515.438ZM561.149 620.5H514.736C496.965 645.969 483.604 674.743 475.758 705.715C477.42 705.739 479.084 705.75 480.751 705.75C491.99 705.75 503.108 705.225 514.079 704.197C523.669 672.847 539.907 644.4 561.149 620.5ZM563.391 619.5C575.952 605.647 590.219 593.37 605.86 583H712.839C677.243 586.174 644.501 599.269 617.399 619.5H563.391ZM616.072 620.5H562.49C541.14 644.33 524.809 672.749 515.157 704.095C529.119 702.744 542.843 700.58 556.281 697.651C569.147 666.945 589.927 640.378 616.072 620.5ZM619.079 619.5C650.067 596.713 688.336 583.25 729.751 583.25H748.114C736.951 596.186 724.865 608.304 711.959 619.5H619.079ZM710.801 620.5H617.732C591.416 640.217 570.469 666.709 557.477 697.388C574.705 693.57 591.46 688.492 607.64 682.257C631.372 649.381 668.055 626.472 710.21 621.007C710.407 620.838 710.604 620.669 710.801 620.5ZM713.482 619.5C726.315 608.294 738.333 596.177 749.433 583.25H953.251C956.593 583.25 959.916 583.166 963.218 583H1078.61C1045.31 604.424 1006.17 617.562 964.111 619.5H713.482ZM714.628 620.5H712.332C712.222 620.595 712.112 620.691 712.002 620.786C712.875 620.683 713.751 620.588 714.628 620.5ZM977.529 619.5C1015.23 615.597 1050.26 602.703 1080.45 583H1139.01C1124.43 596.88 1108.29 609.142 1090.89 619.5H977.529ZM1140.06 582H1081.97C1097.66 571.581 1112.02 559.31 1124.73 545.5H1171.78C1162.31 558.602 1151.68 570.818 1140.06 582ZM1172.5 544.5H1125.64C1135.85 533.279 1144.98 521.058 1152.86 508H1194.5C1188.12 520.778 1180.75 532.978 1172.5 544.5ZM1195 507H1153.46C1160.36 495.443 1166.29 483.239 1171.13 470.5H1209.81C1205.75 483.097 1200.79 495.289 1195 507ZM1210.13 469.5H1171.51C1181.04 444.063 1186.25 416.515 1186.25 387.75C1186.25 259.068 1081.93 154.75 953.251 154.75H774.242C765.599 141.963 756.142 129.772 745.946 118.25L953.251 118.25C1102.09 118.25 1222.75 238.909 1222.75 387.75C1222.75 416.25 1218.33 443.716 1210.13 469.5ZM1170.06 470.5C1165.19 483.244 1159.23 495.449 1152.3 507H1108.18C1116.86 495.742 1124.34 483.512 1130.43 470.5H1170.06ZM1130.89 469.5H1170.44C1180.01 444.075 1185.25 416.524 1185.25 387.75C1185.25 259.62 1081.38 155.75 953.251 155.75H774.916C782.761 167.442 789.928 179.627 796.36 192.25H953.251C1061.22 192.25 1148.75 279.778 1148.75 387.75C1148.75 416.935 1142.36 444.627 1130.89 469.5ZM1129.32 470.5C1123.19 483.522 1115.66 495.754 1106.92 507H1056.9C1068.98 496.497 1079.44 484.191 1087.87 470.5H1129.32ZM1088.48 469.5H1129.79C1141.32 444.647 1147.75 416.95 1147.75 387.75C1147.75 280.331 1060.67 193.25 953.251 193.25H796.867C802.834 205.052 808.159 217.234 812.797 229.75H953.251C1040.51 229.75 1111.25 300.489 1111.25 387.75C1111.25 417.671 1102.93 445.65 1088.48 469.5ZM1086.7 470.5C1078.17 484.223 1067.59 496.533 1055.37 507H970.669C998.158 503.02 1022.64 489.761 1040.84 470.5H1086.7ZM1041.78 469.5H1087.31C1101.87 445.689 1110.25 417.699 1110.25 387.75C1110.25 301.041 1039.96 230.75 953.251 230.75H813.166C817.528 242.631 821.271 254.811 824.356 267.25H953.251C1019.8 267.25 1073.75 321.2 1073.75 387.75C1073.75 419.301 1061.62 448.02 1041.78 469.5ZM1039.46 470.5C1019.4 491.402 991.802 505.021 961.038 507H799.467C805.196 495.185 810.287 483.004 814.695 470.5H1039.46ZM815.046 469.5H1040.41C1060.47 448.126 1072.75 419.372 1072.75 387.75C1072.75 321.752 1019.25 268.25 953.251 268.25H824.603C831.234 295.328 834.75 323.628 834.75 352.75C834.75 393.658 827.812 432.946 815.046 469.5ZM813.635 470.5C809.211 483.006 804.103 495.187 798.355 507H482.586C482.497 506.92 482.38 506.871 482.251 506.871C479.629 506.871 477.018 506.915 474.418 507H465.09C440.671 504.353 417.927 496.121 398.162 483.609C420.592 476.272 444.315 471.79 468.9 470.594C473.284 471.076 477.738 471.323 482.25 471.323C482.527 471.323 482.75 471.099 482.75 470.823C482.75 470.7 482.706 470.587 482.632 470.5H813.635ZM482.671 469.5H813.987C826.789 432.956 833.75 393.666 833.75 352.75C833.75 323.625 830.223 295.324 823.573 268.25L395.112 268.25C374.849 289.71 362.426 318.654 362.426 350.499C362.426 411.9 408.609 462.514 468.133 469.5H470.97C474.711 469.347 478.472 469.27 482.25 469.27C482.427 469.27 482.582 469.362 482.671 469.5ZM456.248 470.5C435.774 472.448 415.964 476.671 397.074 482.914C391.222 479.142 385.636 474.993 380.351 470.5H456.248ZM379.186 469.5H461.225C404.519 459.55 361.426 410.057 361.426 350.499C361.426 318.726 373.69 289.818 393.742 268.25H360.751C356.536 268.25 352.345 268.148 348.181 267.946C333.37 291.948 324.825 320.225 324.825 350.499C324.825 398.027 345.887 440.635 379.186 469.5ZM378.813 470.5C384.192 475.141 389.886 479.426 395.859 483.319C382.367 487.849 369.348 493.411 356.897 499.912C346.44 491.129 336.917 481.268 328.501 470.5H378.813ZM327.725 469.5H377.666C344.656 440.467 323.825 397.916 323.825 350.499C323.825 320.229 332.314 291.942 347.042 267.889C333.735 267.185 320.698 265.464 308.008 262.8C294.712 289.164 287.224 318.958 287.224 350.5C287.224 395.3 302.329 436.572 327.725 469.5ZM327.234 470.5C335.726 481.455 345.354 491.485 355.941 500.414C351.957 502.514 348.031 504.711 344.168 507H310.134C299.926 495.781 290.801 483.559 282.922 470.5H327.234ZM282.322 469.5H326.464C301.221 436.504 286.224 395.254 286.224 350.5C286.224 318.89 293.706 289.027 306.996 262.585C294.77 259.968 282.869 256.475 271.361 252.177C257.413 282.043 249.622 315.361 249.622 350.5C249.622 393.985 261.554 434.684 282.322 469.5ZM281.755 470.5C289.581 483.548 298.645 495.769 308.784 507H261.925C253.721 495.472 246.4 483.273 240.059 470.5H281.755ZM239.566 469.5H281.158C260.489 434.647 248.622 393.959 248.622 350.5C248.622 315.238 256.434 281.8 270.422 251.824C258.929 247.479 247.832 242.33 237.198 236.444C221.042 271.097 212.02 309.745 212.02 350.5C212.02 393.204 221.926 433.595 239.566 469.5ZM238.943 470.5C245.252 483.267 252.536 495.467 260.698 507H163.146C157.398 495.187 152.29 483.006 147.867 470.5H238.943ZM147.515 469.5H238.452C220.882 433.573 211.02 393.188 211.02 350.5C211.02 309.568 220.087 270.754 236.322 235.957C211.685 222.194 189.563 204.47 170.815 183.647C143.358 233.863 127.751 291.484 127.751 352.75C127.751 393.666 134.712 432.956 147.515 469.5ZM163.635 508H261.409C270.754 521.08 281.232 533.294 292.699 544.5H184.321C176.733 532.793 169.819 520.608 163.635 508ZM184.972 545.5L293.728 545.5C282.152 556.694 271.569 568.909 262.126 582H212.314C202.444 570.454 193.306 558.263 184.972 545.5ZM213.172 583H261.409C254.508 592.659 248.225 602.789 242.618 613.333C232.212 603.818 222.377 593.688 213.172 583ZM263.361 582C272.669 569.168 283.077 557.187 294.448 546.194C303.306 554.696 312.739 562.603 322.684 569.85C318.513 573.752 314.485 577.805 310.609 582H263.361ZM311.974 582C315.683 578.017 319.531 574.164 323.509 570.449C329.131 574.513 334.915 578.368 340.849 582H311.974ZM342.775 582C336.427 578.167 330.249 574.081 324.255 569.754C333.633 561.073 343.727 553.155 354.438 546.098C366.38 553.917 379.081 560.672 392.407 566.228C383.477 570.841 374.947 576.121 366.883 582H342.775ZM368.589 582C376.509 576.31 384.874 571.2 393.62 566.73C411.595 574.105 430.693 579.305 450.587 582H368.589ZM459.151 583H367.21C363.973 585.369 360.811 587.835 357.73 590.394C370.255 596.908 383.355 602.471 396.934 606.985C416.301 594.584 438.545 586.281 462.441 583.3C461.342 583.208 460.245 583.108 459.151 583ZM459.201 582C436.631 579.78 415.009 574.335 394.801 566.131C417.033 554.96 441.696 547.915 467.785 546.002C472.561 546.35 477.385 546.527 482.251 546.527C482.527 546.527 482.751 546.303 482.751 546.027C482.751 545.751 482.527 545.527 482.251 545.527C481.34 545.527 480.431 545.521 479.524 545.509C479.34 545.506 479.157 545.503 478.974 545.5H593.088C576.053 555.881 560.291 568.144 546.09 582H459.201ZM547.525 582C561.872 568.109 577.803 555.844 595.02 545.5H711.222C672.386 548.659 636.332 561.658 605.559 582H547.525ZM607.382 582C642.582 559.073 684.61 545.75 729.751 545.75H776.366C768.076 558.423 758.992 570.529 749.187 582H607.382ZM750.501 582C760.263 570.524 769.306 558.418 777.561 545.75H953.251C956.257 545.75 959.244 545.666 962.209 545.5H1067.05C1037.57 566.809 1001.87 580.053 963.193 582H750.501ZM975.478 582C1010.12 578.08 1042.02 565.105 1068.75 545.5H1123.37C1110.52 559.344 1096.01 571.617 1080.15 582H975.478ZM1124.29 544.5H1070.1C1084.1 534.047 1096.65 521.762 1107.4 508H1151.69C1143.76 521.069 1134.57 533.291 1124.29 544.5ZM1106.13 508C1095.27 521.795 1082.58 534.083 1068.42 544.5H973.218C1004.5 540.556 1032.92 527.469 1055.74 508H1106.13ZM1054.2 508C1029.03 529.147 997.133 542.54 962.18 544.5H778.371C785.881 532.868 792.728 520.766 798.858 508.25H953.251C955.878 508.25 958.485 508.166 961.071 508H1054.2ZM709.734 508C667.915 511.147 628.824 524.074 594.743 544.5H482.414C482.363 544.483 482.308 544.473 482.251 544.473C481.152 544.473 480.056 544.482 478.962 544.5H462.114C438.12 542.039 415.414 535.228 394.799 524.869C417.637 515.597 442.28 509.849 468.055 508.297C472.732 508.713 477.466 508.925 482.251 508.925C482.527 508.925 482.751 508.701 482.751 508.425C482.751 508.246 482.656 508.089 482.515 508H709.734ZM459.138 508C436.158 510.257 414.155 515.843 393.619 524.27C384.363 519.54 375.536 514.092 367.21 508H459.138ZM365.524 508C373.987 514.282 382.973 519.899 392.406 524.772C379.309 530.233 366.815 536.851 355.053 544.5H353.832C343.345 537.545 333.456 529.762 324.255 521.245C330.772 516.541 337.508 512.12 344.443 508H365.524ZM346.14 507H364.189C361.667 505.095 359.193 503.13 356.769 501.108C353.178 502.995 349.634 504.959 346.14 507ZM342.494 508C335.983 511.923 329.649 516.111 323.509 520.551C319.199 516.526 315.042 512.339 311.049 508H342.494ZM309.692 508C313.849 512.552 318.183 516.938 322.684 521.149C312.858 528.309 303.532 536.114 294.767 544.5H294.133C282.591 533.306 272.045 521.091 262.64 508H309.692ZM296.216 544.5C304.775 536.374 313.865 528.803 323.43 521.843C332.345 530.111 341.907 537.691 352.031 544.5H296.216ZM356.897 544.5C368.464 537.087 380.729 530.67 393.574 525.37C412.185 534.827 432.509 541.4 453.956 544.5H356.897ZM462.061 545.5C437.624 548 414.516 554.99 393.575 565.63C380.157 560.093 367.37 553.337 355.352 545.5L462.061 545.5ZM353.529 545.5L295.169 545.5C304.032 554.005 313.474 561.912 323.43 569.156C332.784 560.482 342.849 552.564 353.529 545.5ZM365.855 507H457.485C435.468 503.544 414.956 495.553 396.935 484.014C383.356 488.528 370.255 494.091 357.729 500.606C360.38 502.807 363.089 504.94 365.855 507ZM596.699 544.5C635.695 521.467 681.18 508.25 729.751 508.25H797.744C791.591 520.769 784.718 532.87 777.18 544.5H596.699ZM365.524 583H344.445C348.486 585.401 352.596 587.699 356.77 589.892C359.62 587.514 362.54 585.216 365.524 583ZM823.325 267.25L396.067 267.25C416.931 245.656 445.836 231.881 477.958 230.75L812.101 230.75C816.476 242.63 820.231 254.809 823.325 267.25ZM394.682 267.25C413.187 247.791 438.111 234.493 466.06 230.75H380.055C367.888 241.144 357.324 253.359 348.786 266.974C352.751 267.157 356.74 267.25 360.751 267.25H394.682ZM482.408 229.7C482.426 229.706 482.444 229.713 482.461 229.721C482.479 229.729 482.497 229.739 482.515 229.75L811.73 229.75C807.077 217.232 801.733 205.05 795.746 193.25L474.729 193.25C439.217 194.92 406.782 208.357 381.237 229.75H477.94C479.371 229.7 480.808 229.675 482.25 229.675C482.306 229.675 482.359 229.684 482.408 229.7ZM378.522 230.75C366.509 241.165 356.079 253.357 347.641 266.918C334.289 266.241 321.208 264.534 308.477 261.876C314.716 249.667 322.204 238.202 330.772 227.65C342.962 229.689 355.482 230.75 368.251 230.75H378.522ZM462.846 193.25C431.336 197.098 402.683 210.198 379.687 229.75H368.251C355.735 229.75 343.459 228.726 331.502 226.757C341.844 214.172 353.732 202.904 366.876 193.245C367.334 193.248 367.792 193.25 368.251 193.25H462.846ZM482.632 192.25C482.54 192.142 482.403 192.073 482.251 192.073C479.721 192.073 477.206 192.133 474.705 192.25H368.242C397.658 171.021 433.23 157.791 471.769 155.75L773.71 155.75C781.586 167.439 788.78 179.624 795.237 192.25L482.632 192.25ZM307.463 261.662C313.673 249.469 321.121 238.012 329.641 227.458C316.495 225.189 303.738 221.783 291.476 217.344C284.004 228.03 277.406 239.372 271.788 251.268C283.307 255.567 295.222 259.055 307.463 261.662ZM330.365 226.567C340.567 214.079 352.278 202.873 365.22 193.226C348.693 192.965 332.685 190.571 317.457 186.308C308.175 195.624 299.677 205.722 292.072 216.495C304.373 220.932 317.173 224.325 330.365 226.567ZM366.552 192.242C393.278 172.67 425.148 159.704 459.754 155.75H368.251C364.042 155.75 359.874 155.577 355.752 155.239C342.222 164.022 329.663 174.173 318.27 185.496C333.658 189.754 349.843 192.094 366.552 192.242ZM482.698 154.75L773.034 154.75C764.352 141.958 754.852 129.767 744.609 118.25H468.861C427.883 120.575 389.742 133.507 357.141 154.344C360.809 154.613 364.514 154.75 368.251 154.75H471.743C475.222 154.566 478.726 154.473 482.251 154.473C482.447 154.473 482.617 154.586 482.698 154.75ZM290.504 216.989C283.047 227.679 276.46 239.022 270.848 250.916C259.354 246.574 248.255 241.425 237.624 235.536C243.221 223.646 249.661 212.23 256.864 201.365C267.562 207.453 278.805 212.692 290.504 216.989ZM316.356 185.996C307.123 195.307 298.669 205.39 291.098 216.141C279.384 211.855 268.127 206.62 257.42 200.53C264.281 190.264 271.827 180.495 279.991 171.287C291.457 177.395 303.63 182.349 316.356 185.996ZM354.14 155.097C340.8 163.861 328.412 173.953 317.163 185.186C304.392 181.567 292.177 176.626 280.676 170.518C289.317 160.847 298.644 151.801 308.581 143.458C322.769 149.592 338.089 153.605 354.14 155.097ZM456.72 118.25C419.694 122.274 385.264 134.95 355.495 154.213C339.267 152.842 323.777 148.879 309.441 142.739C321.257 132.899 333.926 124.049 347.32 116.315C354.103 117.585 361.099 118.25 368.251 118.25H456.72ZM482.736 117.25C482.682 117.032 482.485 116.871 482.251 116.871C477.747 116.871 473.273 116.999 468.832 117.25H368.251C361.569 117.25 355.025 116.665 348.665 115.543L347.141 115.264C316.729 109.463 290.678 91.3643 274.362 66.3391C332.406 24.4395 403.695 -0.25 480.751 -0.25C585.217 -0.250015 679.085 45.1289 743.717 117.25H482.736ZM236.748 235.049C242.35 223.156 248.791 211.737 255.994 200.867C232.005 187.07 210.793 168.988 193.404 147.665C185.386 158.878 178.009 170.58 171.324 182.718C190.033 203.554 212.13 221.287 236.748 235.049ZM256.549 200.032C263.402 189.774 270.936 180.009 279.086 170.802C254.867 157.73 233.844 139.5 217.487 117.583C209.16 126.898 201.32 136.658 194.007 146.823C211.365 168.16 232.564 186.248 256.549 200.032ZM279.768 170.033C288.377 160.381 297.665 151.349 307.558 143.011C281.927 131.702 260.047 113.45 244.302 90.6377C235.142 98.9058 226.418 107.647 218.168 116.823C234.502 138.759 255.531 156.991 279.768 170.033ZM308.413 142.294C320.091 132.532 332.603 123.736 345.827 116.025C315.643 109.948 289.813 91.8438 273.551 66.9263C263.651 74.1157 254.138 81.8071 245.051 89.9629C260.789 112.807 282.717 131.058 308.413 142.294ZM372.502 689.894C360.794 686.137 349.351 681.788 338.209 676.881C329.604 696.335 324.825 717.859 324.825 740.499C324.825 822.213 387.082 889.385 466.751 897.171V860.338C407.341 852.731 361.426 801.977 361.426 740.499C361.426 722.43 365.392 705.287 372.502 689.894ZM466.751 859.33C407.895 851.729 362.426 801.424 362.426 740.499C362.426 722.535 366.379 705.495 373.462 690.2C405.409 700.348 439.32 706.085 474.481 706.696C469.431 727.048 466.751 748.336 466.751 770.25V859.33ZM304.612 659.888C315.175 665.959 326.081 671.5 337.294 676.477C328.635 696.054 323.825 717.715 323.825 740.499C323.825 822.766 386.529 890.387 466.751 898.176V934.92C366.287 927.021 287.224 842.994 287.224 740.5C287.224 711.752 293.444 684.458 304.612 659.888ZM303.741 659.386C293.048 653.2 282.708 646.47 272.76 639.235C257.935 669.849 249.622 704.203 249.622 740.5C249.622 863.769 345.5 964.644 466.751 972.62V935.924C365.734 928.022 286.224 843.546 286.224 740.5C286.224 711.57 292.491 684.104 303.741 659.386ZM609.368 681.586C632.672 649.999 668.11 627.912 708.802 622.206C679.398 647.117 645.862 667.302 609.368 681.586Z" fill="white" fill-opacity="0.32"/>
</g>
<defs>
<linearGradient id="paint0_linear_6617_106127" x1="542" y1="949.501" x2="572.778" y2="145.578" gradientUnits="userSpaceOnUse">
<stop stop-color="#0C0C4F"/>
<stop offset="0.16584" stop-color="#0C0C4F"/>
<stop offset="1" stop-color="#060625"/>
</linearGradient>
</defs>
</svg>
