<svg width="700" height="160" viewBox="0 0 700 160" fill="none" xmlns="http://www.w3.org/2000/svg">
<path fill-rule="evenodd" clip-rule="evenodd" d="M0.457031 79.5652C0.457031 123.196 35.8256 158.564 79.4559 158.564C123.086 158.564 158.457 123.196 158.457 79.5652C158.457 35.9349 123.086 0.566406 79.4559 0.566406C35.8256 0.566406 0.457031 35.9349 0.457031 79.5652Z" fill="#0C0C4F"/>
<path fill-rule="evenodd" clip-rule="evenodd" d="M44.6122 60.954L46.5623 54.9292C46.9587 53.7038 47.9258 52.7503 49.1557 52.3743L55.21 50.5125C56.048 50.2565 56.0548 49.0742 55.2236 48.8047L49.1965 46.8545C47.9734 46.4582 47.0198 45.491 46.6416 44.2611L44.782 38.2069C44.5261 37.3711 43.3438 37.362 43.0742 38.1955L41.1241 44.2204C40.7277 45.4435 39.7606 46.397 38.5307 46.7753L32.4764 48.6348C31.6384 48.893 31.6293 50.0731 32.4628 50.3426L38.4899 52.2927C39.713 52.6891 40.6666 53.6585 41.0448 54.8884L42.9044 60.9404C43.1603 61.7784 44.3426 61.7875 44.6122 60.954Z" fill="#FAFAFA"/>
<path fill-rule="evenodd" clip-rule="evenodd" d="M140.305 57.4474C137.809 54.6564 133.914 53.085 130.127 52.4406C126.31 51.8217 122.307 51.8791 118.539 52.5486C110.914 53.8384 103.987 56.9956 97.9451 60.8905C94.8077 62.802 92.1321 65.0138 89.36 67.2664C88.0244 68.4056 86.8067 69.6188 85.5386 70.8146L82.0733 74.2624C78.3081 78.1981 74.5968 81.7829 71.0061 84.7542C67.4007 87.7118 64.03 89.9581 60.7082 91.5268C57.3885 93.1036 53.8364 94.0309 49.2065 94.1794C44.6174 94.3412 39.1877 93.5129 33.3799 92.1458C27.5409 90.7847 21.4093 88.8446 14.5575 87.1752C16.9482 93.8079 20.5485 99.6691 25.1707 105.027C29.8472 110.292 35.6868 115.091 43.1884 118.246C50.5817 121.472 59.8727 122.63 68.5601 120.883C77.2705 119.207 84.9143 115.176 91.093 110.515C97.2874 105.805 102.299 100.441 106.524 94.8644C107.69 93.3236 108.307 92.4613 109.151 91.257L111.484 87.8015C113.105 85.6641 114.581 83.2305 116.185 81.1128C119.331 76.6776 122.433 72.2475 126.037 68.1661C127.851 66.096 129.764 64.1159 132.022 62.213C133.148 61.2842 134.365 60.3752 135.713 59.5564C137.081 58.6732 138.526 57.9819 140.305 57.4474Z" fill="#EC796B"/>
<path fill-rule="evenodd" clip-rule="evenodd" d="M140.304 57.4476C137.623 50.6817 132.638 44.9863 125.947 40.7836C119.297 36.627 110.061 34.5058 100.908 36.314C96.3868 37.1885 92.0062 38.8721 88.162 41.1141C84.3351 43.3472 80.9059 46.0354 77.9372 48.9193C76.4553 50.3661 75.11 51.8753 73.7736 53.3931L70.3099 57.8092L64.9599 64.9181C58.1397 74.0645 50.7951 84.7835 38.7424 87.9596C26.91 91.0777 21.7781 88.3162 14.5565 87.1754C15.8769 90.5845 17.5126 93.8953 19.73 96.8078C21.9061 99.7793 24.4764 102.57 27.672 104.963C29.287 106.112 30.992 107.246 32.8856 108.207C34.7706 109.137 36.8035 109.955 38.9733 110.57C43.2892 111.753 48.1483 112.168 52.8531 111.531C57.56 110.903 62.0589 109.412 65.9916 107.431C69.9532 105.468 73.4041 103.078 76.4856 100.556C82.6111 95.469 87.3758 89.8484 91.4005 84.1669C93.4249 81.3263 95.2624 78.4321 96.962 75.5371L98.9623 72.0905C99.5737 71.083 100.192 70.0693 100.82 69.1252C103.355 65.3323 105.834 62.291 108.845 60.0082C111.814 57.6664 115.949 55.9362 121.474 55.5342C126.976 55.1275 133.328 55.8789 140.304 57.4476Z" fill="#FAFAFA"/>
<path fill-rule="evenodd" clip-rule="evenodd" d="M110.538 113.664C110.538 118.633 114.569 122.664 119.538 122.664C124.508 122.664 128.533 118.633 128.533 113.664C128.533 108.695 124.508 104.664 119.538 104.664C114.569 104.664 110.538 108.695 110.538 113.664Z" fill="#EC796B"/>
<path d="M314.799 57.4415V48.3846C314.799 48.0255 314.508 47.7344 314.149 47.7344H262.544C262.185 47.7344 261.894 48.0255 261.894 48.3846V57.4415H282.867V115.383C282.867 115.742 283.158 116.033 283.518 116.033H293.175C293.534 116.033 293.825 115.742 293.825 115.383V57.4415H314.799Z" fill="#0C0C4F"/>
<path d="M499.178 49.0947L499.426 48.8226C499.807 48.4052 499.511 47.7344 498.946 47.7344H486.949L486.706 48.0164C485.113 49.8637 483.134 52.0345 480.766 54.53L480.766 54.5304C478.46 56.9645 475.994 59.5272 473.366 62.2185C470.74 64.9089 468.082 67.5993 465.391 70.2898C463.239 72.3906 461.231 74.3269 459.367 76.0987V47.7344H449.059C448.7 47.7344 448.409 48.0255 448.409 48.3846V115.383C448.409 115.742 448.7 116.033 449.059 116.033H459.367V85.0489C461.629 86.5303 463.942 88.2637 466.305 90.2509L466.309 90.2538L466.312 90.2566C469.175 92.6101 471.975 95.1877 474.714 97.9899L474.72 97.9966L474.727 98.0031C477.527 100.739 480.168 103.635 482.65 106.689L482.652 106.693L482.655 106.696C485.137 109.687 487.329 112.674 489.234 115.658L489.473 116.033H501.168C501.667 116.033 501.98 115.493 501.731 115.059L501.591 114.816C499.837 111.762 497.634 108.555 494.986 105.197C492.406 101.843 489.634 98.555 486.669 95.3322C483.703 92.109 480.672 89.078 477.576 86.2396C474.771 83.6687 472.092 81.4613 469.537 79.6206C471.71 77.5 474.013 75.223 476.447 72.7895C479.143 70.0934 481.839 67.3652 484.535 64.605C487.295 61.7804 489.928 59.0518 492.432 56.4192L492.435 56.4157L492.439 56.4121C494.941 53.7168 497.188 51.2777 499.178 49.0947Z" fill="#0C0C4F"/>
<path d="M558.234 115.636L558.47 116.033H566.888C567.247 116.033 567.538 115.742 567.538 115.383V48.3846C567.538 48.0255 567.247 47.7344 566.888 47.7344H556.773V95.0352C555.017 92.2393 552.977 89.1615 550.656 85.8026C547.698 81.4311 544.517 76.9966 541.112 72.499C537.771 67.9375 534.365 63.5358 530.895 59.2942C527.486 54.9851 524.265 51.2165 521.233 47.9905L520.992 47.7344H513.07C512.711 47.7344 512.42 48.0255 512.42 48.3846V115.383C512.42 115.742 512.711 116.033 513.07 116.033H523.185V65.3618C524.569 66.9952 526.041 68.8054 527.602 70.7927C529.712 73.4782 531.887 76.3566 534.127 79.4284L534.129 79.4317L534.132 79.4349C536.37 82.4407 538.609 85.575 540.848 88.838L540.851 88.8424L540.854 88.8468C543.159 92.1113 545.367 95.3434 547.479 98.543L547.481 98.5462L547.483 98.5493C549.593 101.683 551.543 104.719 553.332 107.658L553.335 107.663L553.338 107.669C555.195 110.615 556.827 113.27 558.234 115.636Z" fill="#0C0C4F"/>
<path d="M583.422 47.7344C583.063 47.7344 582.771 48.0255 582.771 48.3846V115.383C582.771 115.742 583.063 116.033 583.422 116.033H626.849C627.208 116.033 627.499 115.742 627.499 115.383V106.423H593.729V84.9576H621.63V75.5391H593.729V57.3453H625.094V48.3846C625.094 48.0255 624.803 47.7344 624.444 47.7344H583.422Z" fill="#0C0C4F"/>
<path d="M690.271 57.4415V48.3846C690.271 48.0255 689.98 47.7344 689.621 47.7344H638.015C637.656 47.7344 637.365 48.0255 637.365 48.3846V57.4415H658.339V116.033H669.297V57.4415H690.271Z" fill="#0C0C4F"/>
<path d="M213.541 115.202L213.539 115.201C209.564 113.507 206.258 111.089 203.637 107.943L203.633 107.939L203.631 107.936C201.036 104.75 199.352 100.995 198.569 96.6898C198.53 96.4744 198.579 96.2524 198.706 96.0739C198.832 95.8955 199.026 95.7756 199.242 95.7416L207.983 94.3639C208.397 94.2987 208.792 94.5586 208.896 94.9642C209.959 99.0915 212.145 102.295 215.46 104.617C218.824 106.919 222.792 108.083 227.396 108.083C230.383 108.083 233.052 107.621 235.415 106.713C237.806 105.775 239.661 104.458 241.015 102.78C242.348 101.129 243.02 99.1744 243.02 96.8769C243.02 95.4507 242.768 94.2832 242.299 93.345C242.294 93.3365 242.29 93.328 242.286 93.3194C241.829 92.3199 241.191 91.485 240.37 90.8049C240.362 90.7984 240.354 90.7918 240.346 90.785C239.521 90.0483 238.574 89.4255 237.5 88.9184C236.402 88.3996 235.256 87.972 234.064 87.6356L234.053 87.6325L216.617 82.4538C214.676 81.8716 212.799 81.1435 210.987 80.2697L210.982 80.2673L210.976 80.2646C209.136 79.3445 207.488 78.208 206.035 76.8544L206.03 76.85L206.028 76.8477C204.555 75.4416 203.387 73.7702 202.522 71.8417L202.52 71.837C201.642 69.8435 201.216 67.5262 201.216 64.9061C201.216 60.7059 202.302 57.079 204.509 54.0694L204.51 54.0681C206.726 51.0572 209.715 48.7693 213.447 47.1978C217.174 45.6287 221.355 44.8691 225.977 44.9014C230.662 44.9337 234.876 45.774 238.603 47.4407C242.359 49.0743 245.474 51.4329 247.934 54.5158C250.432 57.6053 252.097 61.2921 252.944 65.5555C252.986 65.7701 252.94 65.9928 252.817 66.1733C252.693 66.3537 252.502 66.4767 252.286 66.5143L243.308 68.082C243.095 68.1192 242.876 68.07 242.699 67.9454C242.523 67.8208 242.403 67.631 242.367 67.4179C241.913 64.7576 240.907 62.5012 239.358 60.6255L239.35 60.6146C237.819 58.6934 235.898 57.2214 233.576 56.1961L233.568 56.1925C231.241 55.1348 228.678 54.5857 225.867 54.5551L225.867 54.5551C223.173 54.5245 220.765 54.9532 218.63 55.825C216.49 56.6993 214.819 57.9059 213.587 59.4312L213.582 59.4371C212.374 60.9046 211.772 62.5898 211.772 64.5261C211.772 66.4487 212.32 67.9318 213.358 69.053C214.477 70.2308 215.854 71.1817 217.5 71.901C219.245 72.6173 220.939 73.2074 222.582 73.6726L222.586 73.6737L235.598 77.4253C237.115 77.8451 238.847 78.423 240.792 79.1564C242.828 79.9119 244.791 80.9765 246.681 82.3446C248.627 83.7207 250.224 85.558 251.479 87.8364C252.769 90.1447 253.387 93.0151 253.387 96.4019C253.387 99.806 252.699 102.866 251.302 105.561C249.946 108.239 248.042 110.488 245.6 112.303L245.595 112.307C243.167 114.079 240.356 115.417 237.172 116.327C233.988 117.269 230.585 117.737 226.969 117.737C222.03 117.737 217.55 116.897 213.541 115.202Z" fill="#0C0C4F"/>
<path fill-rule="evenodd" clip-rule="evenodd" d="M360.171 107.016L360.172 107.019L360.173 107.022C361.137 109.787 362.166 112.616 363.258 115.508L363.457 116.033H374.449C374.9 116.033 375.214 115.585 375.06 115.161L374.981 114.943C372.414 107.886 370.008 101.373 367.762 95.4054C365.516 89.3716 363.301 83.6576 361.118 78.2635C358.999 72.8698 356.879 67.7318 354.759 62.8495C352.632 57.8867 350.394 52.9731 348.063 48.1033C347.955 47.8778 347.727 47.7344 347.477 47.7344H338.709C338.459 47.7344 338.231 47.8778 338.123 48.1033C335.792 52.973 333.554 57.8864 331.427 62.8491C329.308 67.73 327.156 72.8669 324.974 78.2597L324.972 78.2636L324.971 78.2675C322.852 83.6598 320.67 89.3724 318.424 95.4051C316.178 101.373 313.771 107.886 311.205 114.943L311.126 115.161C310.972 115.585 311.286 116.033 311.737 116.033H322.26L322.26 116.033H324.986L325.227 115.774C327.765 113.049 330.603 110.374 333.74 107.751L333.743 107.748L333.746 107.746C336.895 105.057 340.179 102.563 343.597 100.264L343.604 100.259L343.612 100.253C346.979 97.8747 350.367 95.7401 353.776 93.8491L353.78 93.8469L353.784 93.8447C354.287 93.5586 354.786 93.2805 355.283 93.0104L357.19 98.46L357.191 98.4617L357.193 98.4667L357.193 98.4671C358.217 101.349 359.21 104.199 360.171 107.016ZM348.346 74.6188L348.348 74.6245L348.35 74.6301C349.404 77.298 350.458 80.017 351.512 82.7869C348.81 84.1185 345.95 85.7318 342.932 87.6249C339.19 89.9715 335.48 92.5298 331.801 95.2994C330.791 96.0592 329.796 96.8269 328.815 97.6024L331.236 90.6869C333.212 85.1418 335.188 79.7877 337.164 74.6243C338.982 69.9678 340.874 65.4889 342.842 61.1876C344.751 65.4872 346.586 69.9642 348.346 74.6188Z" fill="#0C0C4F"/>
<path fill-rule="evenodd" clip-rule="evenodd" d="M386.202 47.2222C385.843 47.2223 385.552 47.5134 385.552 47.8724V115.424C385.552 115.783 385.843 116.074 386.202 116.074H395.487V91.2376H409.051C410.577 93.0648 412.066 94.9765 413.517 96.9728L413.522 96.9804L413.528 96.9878C415.902 100.101 418.096 103.348 420.109 106.73L420.112 106.733L420.114 106.737C421.938 109.73 423.529 112.686 424.89 115.605L425.108 116.074H436.096C436.567 116.074 436.882 115.589 436.686 115.161C435.422 112.392 434.052 109.68 432.532 107.039C430.465 103.347 428.198 99.6922 425.731 96.0741C424.321 94.0064 422.88 91.9977 421.41 90.0481C425.509 88.795 428.752 86.5291 431.097 83.2403L431.099 83.2378C433.914 79.2575 435.31 74.5764 435.31 69.2297C435.31 65.5556 434.671 62.1938 433.378 59.1562C432.081 56.0743 430.129 53.5184 427.527 51.502C424.944 49.4749 421.761 48.185 418.013 47.6066C417.139 47.4454 416.236 47.3489 415.305 47.3161C414.396 47.2537 413.603 47.2218 412.928 47.2218C410.08 47.2218 407.231 47.2215 404.382 47.2212L404.382 47.2212C398.322 47.2206 392.262 47.2202 386.202 47.2222ZM425.188 69.2297C425.188 71.0042 424.892 72.7504 424.299 74.4716C423.719 76.1245 422.792 77.5737 421.511 78.8257C420.297 80.0113 418.696 80.8521 416.668 81.3227C416.026 81.4686 415.334 81.5721 414.591 81.6315L414.59 81.6316L414.588 81.6317C413.858 81.6926 413.212 81.7223 412.648 81.7223H395.487V56.7371H412.648C413.212 56.7371 413.858 56.7668 414.588 56.8277L414.606 56.8291L414.623 56.8298C415.346 56.8587 416.016 56.9595 416.636 57.1286L416.657 57.1342L416.677 57.1387C418.698 57.5779 420.293 58.4157 421.504 59.627L421.507 59.6303L421.511 59.6336C422.79 60.8837 423.717 62.3472 424.298 64.0325L424.299 64.0345L424.3 64.0366C424.892 65.7248 425.188 67.4546 425.188 69.2297Z" fill="#0C0C4F"/>
</svg>
