<svg width="21" height="21" viewBox="0 0 21 21" fill="none" xmlns="http://www.w3.org/2000/svg">
<path d="M20.21 13.58L15.69 9.07001C15.7846 8.60938 15.8315 8.14024 15.83 7.67001C15.8297 6.38066 15.5043 5.1122 14.884 3.98189C14.2636 2.85158 13.3684 1.89588 12.2809 1.20315C11.1935 0.510412 9.94894 0.102991 8.66236 0.0185453C7.37578 -0.0659009 6.08868 0.175352 4.92001 0.720005C4.77195 0.787643 4.64264 0.890404 4.5433 1.01936C4.44397 1.14832 4.37762 1.29958 4.35001 1.46001C4.32252 1.61839 4.33361 1.78107 4.38235 1.93426C4.43109 2.08745 4.51605 2.22663 4.63001 2.34001L8.98001 6.68001L7.18001 8.48001L2.84001 4.13001C2.72568 4.01781 2.58607 3.93472 2.43293 3.88773C2.27979 3.84075 2.1176 3.83124 1.96001 3.86001C1.8006 3.8866 1.65 3.95144 1.52112 4.04897C1.39224 4.1465 1.28892 4.27381 1.22001 4.42001C0.673539 5.59251 0.432496 6.88419 0.519306 8.17487C0.606116 9.46556 1.01796 10.7133 1.71653 11.8021C2.41509 12.8908 3.37768 13.7852 4.51476 14.4021C5.65183 15.0189 6.92644 15.3381 8.22001 15.33C8.69025 15.3315 9.15939 15.2846 9.62001 15.19L14.13 19.71C14.223 19.8037 14.3336 19.8781 14.4554 19.9289C14.5773 19.9797 14.708 20.0058 14.84 20.0058C14.972 20.0058 15.1027 19.9797 15.2246 19.9289C15.3465 19.8781 15.4571 19.8037 15.55 19.71C15.6437 19.617 15.7181 19.5064 15.7689 19.3846C15.8197 19.2627 15.8458 19.132 15.8458 19C15.8458 18.868 15.8197 18.7373 15.7689 18.6154C15.7181 18.4936 15.6437 18.383 15.55 18.29L10.65 13.39C10.5276 13.2684 10.3757 13.1805 10.2092 13.1349C10.0428 13.0894 9.86734 13.0877 9.70001 13.13C9.21719 13.2593 8.71984 13.3265 8.22001 13.33C7.47206 13.3366 6.7302 13.1951 6.03715 12.9138C5.34411 12.6324 4.71359 12.2167 4.1819 11.6906C3.65022 11.1645 3.22789 10.5384 2.93923 9.84836C2.65058 9.15832 2.5013 8.41798 2.50001 7.67001C2.49872 7.33502 2.52548 7.00052 2.58001 6.67001L6.50001 10.6C6.59298 10.6937 6.70358 10.7681 6.82544 10.8189C6.9473 10.8697 7.078 10.8958 7.21001 10.8958C7.34203 10.8958 7.47273 10.8697 7.59459 10.8189C7.71645 10.7681 7.82705 10.6937 7.92001 10.6L11.1 7.39001C11.2803 7.20354 11.381 6.95434 11.381 6.695C11.381 6.43567 11.2803 6.18647 11.1 6.00001L7.21001 2.08001C7.5406 2.02602 7.87505 1.99926 8.21001 2.00001C9.71206 2.00265 11.1517 2.6012 12.2128 3.66424C13.274 4.72729 13.87 6.16796 13.87 7.67001C13.8665 8.16983 13.7993 8.66718 13.67 9.15001C13.6277 9.31733 13.6294 9.49276 13.6749 9.65924C13.7205 9.82571 13.8084 9.97756 13.93 10.1L18.83 15C19.0183 15.1883 19.2737 15.2941 19.54 15.2941C19.8063 15.2941 20.0617 15.1883 20.25 15C20.4383 14.8117 20.5441 14.5563 20.5441 14.29C20.5441 14.0237 20.4383 13.7683 20.25 13.58H20.21Z" fill="#0C0C4F"/>
</svg>
