<svg width="331" height="128" viewBox="0 0 331 128" fill="none" xmlns="http://www.w3.org/2000/svg">
    <path
        d="M71.656 31.6032C71.656 46.0952 83.4235 57.8431 97.9398 57.8431C112.456 57.8431 124.225 46.0952 124.225 31.6032C124.225 17.1112 112.456 5.36328 97.9398 5.36328C83.4235 5.36328 71.656 17.1111 71.656 31.6032Z"
        fill="#0C0C4F" stroke="#EC796B" stroke-width="2" />
    <path fill-rule="evenodd" clip-rule="evenodd"
        d="M85.9956 25.235L86.6641 23.1732C86.8 22.7538 87.1315 22.4275 87.5531 22.2989L89.6284 21.6617C89.9157 21.5741 89.918 21.1695 89.6331 21.0773L87.5671 20.4099C87.1478 20.2743 86.8209 19.9433 86.6913 19.5224L86.0538 17.4506C85.9661 17.1645 85.5608 17.1614 85.4684 17.4467L84.8 19.5085C84.6641 19.927 84.3326 20.2533 83.9109 20.3828L81.8356 21.0191C81.5484 21.1075 81.5452 21.5114 81.831 21.6036L83.897 22.2709C84.3162 22.4066 84.6431 22.7383 84.7728 23.1592L85.4102 25.2303C85.4979 25.5171 85.9032 25.5202 85.9956 25.235Z"
        fill="#FAFAFA" />
    <path fill-rule="evenodd" clip-rule="evenodd"
        d="M118.798 24.0328C117.943 23.0777 116.607 22.54 115.309 22.3194C114.001 22.1076 112.629 22.1273 111.337 22.3563C108.723 22.7977 106.349 23.8782 104.278 25.2111C103.202 25.8653 102.285 26.6222 101.335 27.393C100.877 27.7829 100.46 28.1981 100.025 28.6073L98.837 29.7872C97.5463 31.134 96.2742 32.3608 95.0433 33.3776C93.8074 34.3898 92.652 35.1585 91.5133 35.6953C90.3753 36.2349 89.1577 36.5523 87.5707 36.6031C85.9976 36.6584 84.1364 36.375 82.1455 35.9071C80.1439 35.4414 78.0421 34.7774 75.6934 34.2061C76.5129 36.4759 77.747 38.4817 79.3315 40.3153C80.9345 42.117 82.9362 43.7593 85.5077 44.8392C88.0421 45.9432 91.2269 46.3394 94.2049 45.7416C97.1907 45.1678 99.8109 43.7885 101.929 42.1933C104.052 40.5817 105.77 38.746 107.218 36.8375C107.618 36.3102 107.83 36.0151 108.119 35.603L108.919 34.4205C109.474 33.689 109.98 32.8562 110.53 32.1315C111.609 30.6137 112.672 29.0976 113.907 27.7009C114.529 26.9925 115.185 26.3149 115.959 25.6637C116.345 25.3458 116.762 25.0347 117.224 24.7545C117.693 24.4523 118.188 24.2157 118.798 24.0328Z"
        fill="url(#paint0_linear_7774_1170)" />
    <path fill-rule="evenodd" clip-rule="evenodd"
        d="M118.798 24.0365C117.879 21.7211 116.17 19.772 113.877 18.3338C111.597 16.9114 108.431 16.1854 105.294 16.8042C103.744 17.1035 102.242 17.6797 100.924 18.4469C99.6127 19.2111 98.4372 20.131 97.4196 21.118C96.9116 21.6131 96.4504 22.1296 95.9923 22.649L94.805 24.1602L92.9711 26.593C90.6332 29.723 88.1156 33.3913 83.984 34.4782C79.928 35.5452 78.1689 34.6002 75.6934 34.2098C76.146 35.3765 76.7067 36.5095 77.4668 37.5062C78.2127 38.5231 79.0938 39.4782 80.1892 40.2969C80.7428 40.6901 81.3273 41.0782 81.9764 41.4073C82.6225 41.7253 83.3194 42.0052 84.0631 42.2159C85.5426 42.6207 87.2083 42.7625 88.821 42.5448C90.4345 42.3299 91.9767 41.8194 93.3247 41.1415C94.6827 40.4699 95.8657 39.652 96.922 38.7889C99.0217 37.048 100.655 35.1245 102.035 33.1803C102.729 32.2082 103.358 31.2177 103.941 30.227L104.627 29.0475C104.836 28.7028 105.048 28.3558 105.264 28.0327C106.132 26.7347 106.982 25.694 108.014 24.9128C109.032 24.1114 110.449 23.5193 112.343 23.3817C114.23 23.2425 116.407 23.4997 118.798 24.0365Z"
        fill="#FAFAFA" />
    <path fill-rule="evenodd" clip-rule="evenodd"
        d="M108.594 43.2713C108.594 44.972 109.976 46.3513 111.68 46.3513C113.383 46.3513 114.763 44.972 114.763 43.2713C114.763 41.5707 113.383 40.1914 111.68 40.1914C109.976 40.1914 108.594 41.5707 108.594 43.2713Z"
        fill="url(#paint1_linear_7774_1170)" />
    <mask id="mask0_7774_1170" style="mask-type:luminance" maskUnits="userSpaceOnUse" x="136" y="12" width="123"
        height="39">
        <path d="M258.843 12.8164H136.036V50.3905H258.843V12.8164Z" fill="white" />
    </mask>
    <g mask="url(#mask0_7774_1170)">
        <path
            d="M256.898 14.2383H250.632L250.361 14.5535C249.563 15.4744 248.566 16.5704 247.388 17.8065C246.235 19.0176 244.987 20.3188 243.668 21.66C242.37 22.9862 241.022 24.3525 239.663 25.7087C238.906 26.4444 238.179 27.15 237.487 27.8106V14.2383H231.803C231.347 14.2383 230.976 14.6086 230.976 15.064V48.7096C230.976 49.165 231.347 49.5353 231.803 49.5353H237.487V34.4216C238.36 35.0322 239.257 35.7178 240.154 36.4735L240.169 36.4835C241.588 37.6495 242.992 38.9407 244.345 40.322V40.332L244.365 40.342C245.739 41.6832 247.062 43.1295 248.285 44.6309L248.295 44.6459L248.326 44.6759C249.549 46.1523 250.646 47.6436 251.589 49.115L251.855 49.5353H258.01C258.311 49.5353 258.577 49.3802 258.727 49.125C258.878 48.8647 258.878 48.5595 258.727 48.2992L258.657 48.1791C257.77 46.6327 256.637 44.9912 255.293 43.2897C253.995 41.6082 252.581 39.9266 251.083 38.3052C249.589 36.6836 248.04 35.1372 246.481 33.7109C245.232 32.5699 244.024 31.559 242.871 30.7032C243.839 29.7574 244.867 28.7414 245.929 27.6805C247.283 26.3293 248.651 24.943 250 23.5667C251.373 22.1605 252.712 20.7792 253.965 19.463L253.98 19.443C255.228 18.0968 256.371 16.8606 257.369 15.7647L257.494 15.6295C257.715 15.3893 257.775 15.039 257.639 14.7387C257.509 14.4384 257.208 14.2433 256.882 14.2433L256.898 14.2383Z"
            fill="white" />
        <path
            d="M205.264 13.9816H200.192C199.735 13.9816 199.365 14.3519 199.365 14.8073V48.7281C199.365 49.1835 199.735 49.5539 200.192 49.5539H205.365V37.0825H211.451C212.152 37.9333 212.854 38.8291 213.526 39.7549V39.765L213.541 39.775C214.714 41.3114 215.817 42.9378 216.814 44.6144C217.722 46.1007 218.519 47.5821 219.196 49.0284L219.306 49.2636L219.441 49.5539H225.286C225.567 49.5539 225.827 49.4137 225.983 49.1735C226.133 48.9383 226.158 48.6431 226.038 48.3878C225.357 46.8965 224.664 45.5452 223.928 44.2691C222.89 42.4174 221.732 40.5507 220.489 38.729C219.912 37.8832 219.316 37.0475 218.714 36.2368C220.574 35.5411 222.073 34.4051 223.181 32.8587C224.65 30.7868 225.391 28.3246 225.391 25.532C225.391 23.6203 225.05 21.8537 224.379 20.2773C223.697 18.6558 222.654 17.2945 221.281 16.2336C219.927 15.1726 218.243 14.482 216.263 14.1767C215.817 14.0967 215.335 14.0416 214.844 14.0266C214.393 13.9965 213.977 13.9766 213.631 13.9766H205.26L205.264 13.9816ZM213.496 19.7618C213.767 19.7618 214.082 19.7768 214.428 19.8068H214.458C214.789 19.8219 215.09 19.8669 215.366 19.942H215.38L215.406 19.9519C216.323 20.1521 217.035 20.5125 217.581 21.058L217.596 21.078L217.612 21.093C218.173 21.6485 218.579 22.2791 218.849 23.0147V23.0448L218.89 23.1249C219.16 23.9056 219.301 24.7213 219.301 25.5421C219.301 26.3628 219.16 27.2036 218.88 28.0093C218.614 28.76 218.188 29.4306 217.601 30.0011C217.055 30.5366 216.313 30.917 215.401 31.1271C215.1 31.1972 214.774 31.2422 214.428 31.2723C214.077 31.3023 213.762 31.3173 213.491 31.3173H205.36V19.7618H213.496Z"
            fill="white" />
        <path
            d="M194.176 14.2383H168.219C167.763 14.2383 167.392 14.6086 167.392 15.064V20.1136H177.939V48.7096C177.939 49.165 178.31 49.5353 178.766 49.5353H183.624C184.08 49.5353 184.451 49.165 184.451 48.7096V20.1136H194.998V15.069C194.998 14.6136 194.627 14.2433 194.171 14.2433L194.176 14.2383Z"
            fill="white" />
        <path
            d="M150.187 12.8164C147.851 12.8164 145.716 13.2168 143.831 14.0075C141.871 14.8333 140.287 16.0493 139.129 17.6208C137.966 19.2072 137.374 21.134 137.374 23.361C137.374 24.7522 137.61 25.9934 138.071 27.0444C138.532 28.0753 139.164 28.9761 139.946 29.7218C140.713 30.4374 141.59 31.043 142.557 31.5234C143.5 31.9788 144.477 32.3542 145.475 32.6544L154.247 35.2568C154.829 35.422 155.386 35.6272 155.912 35.8773C156.403 36.1076 156.844 36.3978 157.225 36.7331H157.23L157.251 36.7531C157.611 37.0484 157.882 37.4038 158.078 37.8391L158.087 37.8642C158.293 38.2745 158.399 38.8 158.399 39.4156C158.399 40.4515 158.102 41.3173 157.501 42.063C156.874 42.8387 155.992 43.4543 154.889 43.8846C153.761 44.32 152.463 44.5402 151.04 44.5402C148.849 44.5402 146.924 43.9847 145.32 42.8887C143.741 41.7877 142.728 40.2914 142.222 38.3296C142.116 37.9292 141.756 37.649 141.339 37.649C141.294 37.649 141.244 37.649 141.199 37.659L136.803 38.3496C136.562 38.3896 136.341 38.5248 136.201 38.72C136.061 38.9201 136.005 39.1704 136.046 39.4106C136.452 41.6526 137.344 43.6294 138.697 45.2859C140.066 46.9274 141.806 48.1985 143.871 49.0793C145.936 49.9501 148.272 50.3905 150.824 50.3905C152.689 50.3905 154.463 50.1453 156.098 49.6599C157.752 49.1895 159.226 48.4838 160.489 47.568C161.782 46.6071 162.795 45.4111 163.512 43.9997C164.243 42.5935 164.615 40.967 164.615 39.1753C164.615 37.3837 164.269 35.8423 163.592 34.6312C162.925 33.4201 162.063 32.4392 161.03 31.7086C160.048 30.9979 159.01 30.4374 157.952 30.0471C156.965 29.6767 156.067 29.3765 155.3 29.1663L148.758 27.2846C147.946 27.0543 147.104 26.7641 146.252 26.4138C145.505 26.0885 144.858 25.6431 144.342 25.1026C143.901 24.6271 143.681 23.9915 143.681 23.1758C143.681 22.3601 143.941 21.5894 144.477 20.9388C145.049 20.2281 145.836 19.6726 146.819 19.2723C147.796 18.8719 148.914 18.6717 150.132 18.6717H150.263C151.596 18.6868 152.829 18.947 153.932 19.4475C155.025 19.9279 155.937 20.6285 156.654 21.5243C157.386 22.4101 157.857 23.4761 158.068 24.7122C158.108 24.9524 158.243 25.1626 158.438 25.3027C158.594 25.4129 158.774 25.4679 158.965 25.4679C159.015 25.4679 159.07 25.4679 159.12 25.4529L163.637 24.6672C163.877 24.6271 164.093 24.487 164.229 24.2868C164.364 24.0867 164.419 23.8364 164.369 23.5962C163.928 21.3792 163.045 19.4374 161.747 17.836C160.469 16.2345 158.824 14.9884 156.865 14.1376C154.959 13.2768 152.759 12.8314 150.333 12.8164H150.187Z"
            fill="white" />
    </g>
    <path
        d="M21.5136 78.6016C21.4511 77.9714 21.1828 77.4818 20.7089 77.1328C20.2349 76.7839 19.5917 76.6094 18.7792 76.6094C18.2271 76.6094 17.7609 76.6875 17.3807 76.8437C17.0005 76.9948 16.7089 77.2057 16.5057 77.4766C16.3078 77.7474 16.2089 78.0547 16.2089 78.3984C16.1984 78.6849 16.2583 78.9349 16.3885 79.1484C16.524 79.362 16.7089 79.5469 16.9432 79.7031C17.1776 79.8542 17.4484 79.987 17.7557 80.1016C18.063 80.2109 18.3912 80.3047 18.7401 80.3828L20.1776 80.7266C20.8755 80.8828 21.5162 81.0911 22.0995 81.3516C22.6828 81.612 23.188 81.9323 23.6151 82.3125C24.0422 82.6927 24.3729 83.1406 24.6073 83.6562C24.8469 84.1719 24.9693 84.763 24.9745 85.4297C24.9693 86.4089 24.7193 87.2578 24.2245 87.9766C23.7349 88.6901 23.0266 89.2448 22.0995 89.6406C21.1776 90.0312 20.0656 90.2266 18.7636 90.2266C17.4719 90.2266 16.3469 90.0286 15.3885 89.6328C14.4354 89.237 13.6906 88.651 13.1542 87.875C12.6229 87.0937 12.3443 86.1276 12.3182 84.9766H15.5917C15.6281 85.513 15.7818 85.9609 16.0526 86.3203C16.3287 86.6745 16.6958 86.9427 17.1542 87.125C17.6177 87.3021 18.1412 87.3906 18.7245 87.3906C19.2974 87.3906 19.7948 87.3073 20.2167 87.1406C20.6438 86.974 20.9745 86.7422 21.2089 86.4453C21.4432 86.1484 21.5604 85.8073 21.5604 85.4219C21.5604 85.0625 21.4537 84.7604 21.2401 84.5156C21.0318 84.2708 20.7245 84.0625 20.3182 83.8906C19.9172 83.7187 19.425 83.5625 18.8417 83.4219L17.0995 82.9844C15.7505 82.6562 14.6854 82.1432 13.9042 81.4453C13.1229 80.7474 12.7349 79.8073 12.7401 78.625C12.7349 77.6562 12.9927 76.8099 13.5135 76.0859C14.0396 75.362 14.7609 74.7969 15.6776 74.3906C16.5943 73.9844 17.6359 73.7812 18.8026 73.7812C19.9901 73.7812 21.0266 73.9844 21.912 74.3906C22.8026 74.7969 23.4953 75.362 23.9901 76.0859C24.4849 76.8099 24.7401 77.6484 24.7557 78.6016H21.5136ZM33.5702 78V80.5H26.3436V78H33.5702ZM27.9843 75.125H31.3124V86.3125C31.3124 86.6198 31.3593 86.8594 31.453 87.0312C31.5468 87.1979 31.677 87.3151 31.8436 87.3828C32.0155 87.4505 32.2134 87.4844 32.4374 87.4844C32.5936 87.4844 32.7499 87.4714 32.9061 87.4453C33.0624 87.4141 33.1822 87.3906 33.2655 87.375L33.7889 89.8516C33.6223 89.9036 33.3879 89.9635 33.0858 90.0313C32.7837 90.1042 32.4165 90.1484 31.9843 90.1641C31.1822 90.1953 30.479 90.0885 29.8749 89.8437C29.2759 89.599 28.8098 89.2187 28.4764 88.7031C28.1431 88.1875 27.979 87.5365 27.9843 86.75V75.125ZM39.16 90.2266C38.3944 90.2266 37.7121 90.0938 37.1132 89.8281C36.5142 89.5573 36.0402 89.1589 35.6913 88.6328C35.3475 88.1016 35.1757 87.4401 35.1757 86.6484C35.1757 85.9818 35.2981 85.4219 35.5428 84.9687C35.7876 84.5156 36.121 84.151 36.5428 83.875C36.9647 83.599 37.4439 83.3906 37.9803 83.25C38.522 83.1094 39.0897 83.0104 39.6835 82.9531C40.3814 82.8802 40.9439 82.8125 41.371 82.75C41.7981 82.6823 42.108 82.5833 42.3007 82.4531C42.4934 82.3229 42.5897 82.1302 42.5897 81.875V81.8281C42.5897 81.3333 42.4335 80.9505 42.121 80.6797C41.8137 80.4089 41.3762 80.2734 40.8085 80.2734C40.2095 80.2734 39.733 80.4062 39.3788 80.6719C39.0246 80.9323 38.7902 81.2604 38.6757 81.6562L35.5975 81.4062C35.7538 80.6771 36.0611 80.0469 36.5194 79.5156C36.9777 78.9792 37.5689 78.5677 38.2928 78.2812C39.022 77.9896 39.8658 77.8438 40.8241 77.8438C41.4908 77.8438 42.1288 77.9219 42.7382 78.0781C43.3527 78.2344 43.897 78.4766 44.371 78.8047C44.8501 79.1328 45.2277 79.5547 45.5038 80.0703C45.7798 80.5807 45.9178 81.1927 45.9178 81.9062V90H42.7616V88.3359H42.6678C42.4751 88.7109 42.2173 89.0417 41.8944 89.3281C41.5715 89.6094 41.1835 89.8307 40.7303 89.9922C40.2772 90.1484 39.7538 90.2266 39.16 90.2266ZM40.1132 87.9297C40.6027 87.9297 41.035 87.8333 41.41 87.6406C41.785 87.4427 42.0793 87.1771 42.2928 86.8438C42.5064 86.5104 42.6132 86.1328 42.6132 85.7109V84.4375C42.509 84.5052 42.3658 84.5677 42.1835 84.625C42.0064 84.6771 41.8059 84.7266 41.5819 84.7734C41.358 84.8151 41.134 84.8542 40.91 84.8906C40.6861 84.9219 40.483 84.9505 40.3007 84.9766C39.91 85.0339 39.5689 85.125 39.2772 85.25C38.9856 85.375 38.759 85.5443 38.5975 85.7578C38.4361 85.9661 38.3553 86.2266 38.3553 86.5391C38.3553 86.9922 38.5194 87.3385 38.8475 87.5781C39.1809 87.8125 39.6027 87.9297 40.1132 87.9297ZM48.4999 90V78H51.7264V80.0937H51.8514C52.0702 79.349 52.4374 78.7865 52.953 78.4063C53.4686 78.0208 54.0624 77.8281 54.7343 77.8281C54.9009 77.8281 55.0806 77.8385 55.2733 77.8594C55.466 77.8802 55.6353 77.9089 55.7811 77.9453V80.8984C55.6249 80.8516 55.4087 80.8099 55.1327 80.7734C54.8566 80.737 54.604 80.7188 54.3749 80.7188C53.8853 80.7188 53.4478 80.8255 53.0624 81.0391C52.6822 81.2474 52.3801 81.5391 52.1561 81.9141C51.9374 82.2891 51.828 82.7214 51.828 83.2109V90H48.4999ZM60.5175 86.5469L60.5253 82.5547H61.0096L64.8534 78H68.6737L63.5096 84.0313H62.7206L60.5175 86.5469ZM57.5018 90V74H60.83V90H57.5018ZM65.0018 90L61.4706 84.7734L63.6893 82.4219L68.9003 90H65.0018ZM73.6346 83.0625V90H70.3065V78H73.4784V80.1172H73.619C73.8846 79.4193 74.33 78.8672 74.955 78.4609C75.58 78.0495 76.3378 77.8438 77.2284 77.8438C78.0617 77.8438 78.7883 78.026 79.4081 78.3906C80.0279 78.7552 80.5096 79.276 80.8534 79.9531C81.1971 80.625 81.369 81.4271 81.369 82.3594V90H78.0409V82.9531C78.0461 82.2187 77.8586 81.6458 77.4784 81.2344C77.0982 80.8177 76.5747 80.6094 75.9081 80.6094C75.4602 80.6094 75.0643 80.7057 74.7206 80.8984C74.382 81.0911 74.1164 81.3724 73.9237 81.7422C73.7362 82.1068 73.6399 82.5469 73.6346 83.0625ZM89.4608 90.2344C88.2264 90.2344 87.1639 89.9844 86.2733 89.4844C85.3879 88.9792 84.7056 88.2656 84.2264 87.3437C83.7473 86.4167 83.5077 85.3203 83.5077 84.0547C83.5077 82.8203 83.7473 81.737 84.2264 80.8047C84.7056 79.8724 85.3801 79.1458 86.2499 78.625C87.1249 78.1042 88.1509 77.8438 89.328 77.8438C90.1197 77.8438 90.8566 77.9714 91.5389 78.2266C92.2264 78.4766 92.8254 78.8542 93.3358 79.3594C93.8514 79.8646 94.2525 80.5 94.5389 81.2656C94.8254 82.026 94.9686 82.9167 94.9686 83.9375V84.8516H84.8358V82.7891H91.8358C91.8358 82.3099 91.7316 81.8854 91.5233 81.5156C91.315 81.1458 91.0259 80.8568 90.6561 80.6484C90.2915 80.4349 89.8671 80.3281 89.3827 80.3281C88.8775 80.3281 88.4296 80.4453 88.0389 80.6797C87.6535 80.9089 87.3514 81.2187 87.1327 81.6094C86.9139 81.9948 86.802 82.4245 86.7968 82.8984V84.8594C86.7968 85.4531 86.9061 85.9661 87.1249 86.3984C87.3488 86.8307 87.6639 87.1641 88.0702 87.3984C88.4764 87.6328 88.9582 87.75 89.5155 87.75C89.8853 87.75 90.2238 87.6979 90.5311 87.5938C90.8384 87.4896 91.1014 87.3333 91.3202 87.125C91.5389 86.9167 91.7056 86.6615 91.8202 86.3594L94.8983 86.5625C94.7421 87.3021 94.4218 87.9479 93.9374 88.5C93.4582 89.0469 92.8384 89.474 92.078 89.7813C91.3228 90.0833 90.4504 90.2344 89.4608 90.2344ZM103.523 78V80.5H96.2968V78H103.523ZM97.9374 75.125H101.266V86.3125C101.266 86.6198 101.312 86.8594 101.406 87.0312C101.5 87.1979 101.63 87.3151 101.797 87.3828C101.969 87.4505 102.167 87.4844 102.391 87.4844C102.547 87.4844 102.703 87.4714 102.859 87.4453C103.016 87.4141 103.135 87.3906 103.219 87.375L103.742 89.8516C103.575 89.9036 103.341 89.9635 103.039 90.0313C102.737 90.1042 102.37 90.1484 101.937 90.1641C101.135 90.1953 100.432 90.0885 99.828 89.8437C99.229 89.599 98.7629 89.2187 98.4296 88.7031C98.0962 88.1875 97.9322 87.5365 97.9374 86.75V75.125ZM110.846 90V74H117.158C118.372 74 119.405 74.2318 120.26 74.6953C121.114 75.1536 121.765 75.7917 122.213 76.6094C122.666 77.4219 122.892 78.3594 122.892 79.4219C122.892 80.4844 122.663 81.4219 122.205 82.2344C121.747 83.0469 121.083 83.6797 120.213 84.1328C119.348 84.5859 118.301 84.8125 117.072 84.8125H113.049V82.1016H116.525C117.176 82.1016 117.713 81.9896 118.135 81.7656C118.562 81.5365 118.879 81.2214 119.088 80.8203C119.301 80.4141 119.408 79.9479 119.408 79.4219C119.408 78.8906 119.301 78.4271 119.088 78.0312C118.879 77.6302 118.562 77.3203 118.135 77.1016C117.708 76.8776 117.166 76.7656 116.51 76.7656H114.228V90H110.846ZM125.027 90V78H128.254V80.0937H128.379C128.598 79.349 128.965 78.7865 129.48 78.4063C129.996 78.0208 130.59 77.8281 131.262 77.8281C131.428 77.8281 131.608 77.8385 131.801 77.8594C131.993 77.8802 132.163 77.9089 132.308 77.9453V80.8984C132.152 80.8516 131.936 80.8099 131.66 80.7734C131.384 80.737 131.131 80.7188 130.902 80.7188C130.413 80.7188 129.975 80.8255 129.59 81.0391C129.21 81.2474 128.907 81.5391 128.683 81.9141C128.465 82.2891 128.355 82.7214 128.355 83.2109V90H125.027ZM138.892 90.2344C137.679 90.2344 136.629 89.9766 135.744 89.4609C134.864 88.9401 134.184 88.2161 133.705 87.2891C133.226 86.3568 132.986 85.276 132.986 84.0469C132.986 82.8073 133.226 81.724 133.705 80.7969C134.184 79.8646 134.864 79.1406 135.744 78.625C136.629 78.1042 137.679 77.8438 138.892 77.8438C140.106 77.8438 141.153 78.1042 142.033 78.625C142.918 79.1406 143.601 79.8646 144.08 80.7969C144.559 81.724 144.799 82.8073 144.799 84.0469C144.799 85.276 144.559 86.3568 144.08 87.2891C143.601 88.2161 142.918 88.9401 142.033 89.4609C141.153 89.9766 140.106 90.2344 138.892 90.2344ZM138.908 87.6562C139.46 87.6562 139.921 87.5 140.291 87.1875C140.661 86.8698 140.939 86.4375 141.127 85.8906C141.32 85.3437 141.416 84.7214 141.416 84.0234C141.416 83.3255 141.32 82.7031 141.127 82.1562C140.939 81.6094 140.661 81.1771 140.291 80.8594C139.921 80.5417 139.46 80.3828 138.908 80.3828C138.351 80.3828 137.882 80.5417 137.502 80.8594C137.127 81.1771 136.843 81.6094 136.65 82.1562C136.463 82.7031 136.369 83.3255 136.369 84.0234C136.369 84.7214 136.463 85.3437 136.65 85.8906C136.843 86.4375 137.127 86.8698 137.502 87.1875C137.882 87.5 138.351 87.6562 138.908 87.6562ZM157.764 78L153.568 90H149.818L145.623 78H149.139L151.631 86.5859H151.756L154.24 78H157.764ZM159.467 90V78H162.795V90H159.467ZM161.139 76.4531C160.644 76.4531 160.219 76.2891 159.865 75.9609C159.516 75.6276 159.342 75.2292 159.342 74.7656C159.342 74.3073 159.516 73.9141 159.865 73.5859C160.219 73.2526 160.644 73.0859 161.139 73.0859C161.633 73.0859 162.055 73.2526 162.404 73.5859C162.758 73.9141 162.935 74.3073 162.935 74.7656C162.935 75.2292 162.758 75.6276 162.404 75.9609C162.055 76.2891 161.633 76.4531 161.139 76.4531ZM175.445 81.4219L172.398 81.6094C172.346 81.349 172.234 81.1146 172.062 80.9062C171.891 80.6927 171.664 80.5234 171.383 80.3984C171.107 80.2682 170.776 80.2031 170.391 80.2031C169.875 80.2031 169.44 80.3125 169.086 80.5312C168.732 80.7448 168.555 81.0312 168.555 81.3906C168.555 81.6771 168.669 81.9193 168.898 82.1172C169.127 82.3151 169.521 82.474 170.078 82.5937L172.25 83.0312C173.417 83.2708 174.286 83.6562 174.859 84.1875C175.432 84.7187 175.719 85.4167 175.719 86.2812C175.719 87.0677 175.487 87.7578 175.023 88.3516C174.565 88.9453 173.935 89.4089 173.133 89.7422C172.336 90.0703 171.417 90.2344 170.375 90.2344C168.786 90.2344 167.521 89.9036 166.578 89.2422C165.641 88.5755 165.091 87.6693 164.93 86.5234L168.203 86.3516C168.302 86.8359 168.542 87.2057 168.922 87.4609C169.302 87.7109 169.789 87.8359 170.383 87.8359C170.966 87.8359 171.435 87.724 171.789 87.5C172.148 87.2708 172.331 86.9766 172.336 86.6172C172.331 86.3151 172.203 86.0677 171.953 85.875C171.703 85.6771 171.318 85.526 170.797 85.4219L168.719 85.0078C167.547 84.7734 166.674 84.3672 166.101 83.7891C165.534 83.2109 165.25 82.474 165.25 81.5781C165.25 80.8073 165.458 80.1432 165.875 79.5859C166.297 79.0286 166.888 78.599 167.648 78.2969C168.414 77.9948 169.31 77.8438 170.336 77.8438C171.851 77.8438 173.044 78.1641 173.914 78.8047C174.789 79.4453 175.299 80.3177 175.445 81.4219ZM177.814 90V78H181.142V90H177.814ZM179.486 76.4531C178.991 76.4531 178.567 76.2891 178.213 75.9609C177.864 75.6276 177.689 75.2292 177.689 74.7656C177.689 74.3073 177.864 73.9141 178.213 73.5859C178.567 73.2526 178.991 73.0859 179.486 73.0859C179.981 73.0859 180.403 73.2526 180.752 73.5859C181.106 73.9141 181.283 74.3073 181.283 74.7656C181.283 75.2292 181.106 75.6276 180.752 75.9609C180.403 76.2891 179.981 76.4531 179.486 76.4531ZM189.23 90.2344C188.017 90.2344 186.967 89.9766 186.082 89.4609C185.202 88.9401 184.522 88.2161 184.043 87.2891C183.564 86.3568 183.324 85.276 183.324 84.0469C183.324 82.8073 183.564 81.724 184.043 80.7969C184.522 79.8646 185.202 79.1406 186.082 78.625C186.967 78.1042 188.017 77.8438 189.23 77.8438C190.444 77.8438 191.491 78.1042 192.371 78.625C193.256 79.1406 193.939 79.8646 194.418 80.7969C194.897 81.724 195.137 82.8073 195.137 84.0469C195.137 85.276 194.897 86.3568 194.418 87.2891C193.939 88.2161 193.256 88.9401 192.371 89.4609C191.491 89.9766 190.444 90.2344 189.23 90.2344ZM189.246 87.6562C189.798 87.6562 190.259 87.5 190.629 87.1875C190.999 86.8698 191.277 86.4375 191.465 85.8906C191.657 85.3437 191.754 84.7214 191.754 84.0234C191.754 83.3255 191.657 82.7031 191.465 82.1562C191.277 81.6094 190.999 81.1771 190.629 80.8594C190.259 80.5417 189.798 80.3828 189.246 80.3828C188.689 80.3828 188.22 80.5417 187.84 80.8594C187.465 81.1771 187.181 81.6094 186.988 82.1562C186.801 82.7031 186.707 83.3255 186.707 84.0234C186.707 84.7214 186.801 85.3437 186.988 85.8906C187.181 86.4375 187.465 86.8698 187.84 87.1875C188.22 87.5 188.689 87.6562 189.246 87.6562ZM200.629 83.0625V90H197.301V78H200.473V80.1172H200.613C200.879 79.4193 201.324 78.8672 201.949 78.4609C202.574 78.0495 203.332 77.8438 204.223 77.8438C205.056 77.8438 205.782 78.026 206.402 78.3906C207.022 78.7552 207.504 79.276 207.848 79.9531C208.191 80.625 208.363 81.4271 208.363 82.3594V90H205.035V82.9531C205.04 82.2187 204.853 81.6458 204.473 81.2344C204.092 80.8177 203.569 80.6094 202.902 80.6094C202.454 80.6094 202.058 80.7057 201.715 80.8984C201.376 81.0911 201.111 81.3724 200.918 81.7422C200.73 82.1068 200.634 82.5469 200.629 83.0625ZM220.971 81.4219L217.924 81.6094C217.872 81.349 217.76 81.1146 217.588 80.9062C217.416 80.6927 217.189 80.5234 216.908 80.3984C216.632 80.2682 216.301 80.2031 215.916 80.2031C215.4 80.2031 214.965 80.3125 214.611 80.5312C214.257 80.7448 214.08 81.0312 214.08 81.3906C214.08 81.6771 214.195 81.9193 214.424 82.1172C214.653 82.3151 215.046 82.474 215.603 82.5937L217.775 83.0312C218.942 83.2708 219.812 83.6562 220.385 84.1875C220.958 84.7187 221.244 85.4167 221.244 86.2812C221.244 87.0677 221.012 87.7578 220.549 88.3516C220.09 88.9453 219.46 89.4089 218.658 89.7422C217.861 90.0703 216.942 90.2344 215.9 90.2344C214.312 90.2344 213.046 89.9036 212.103 89.2422C211.166 88.5755 210.616 87.6693 210.455 86.5234L213.728 86.3516C213.827 86.8359 214.067 87.2057 214.447 87.4609C214.827 87.7109 215.314 87.8359 215.908 87.8359C216.491 87.8359 216.96 87.724 217.314 87.5C217.674 87.2708 217.856 86.9766 217.861 86.6172C217.856 86.3151 217.728 86.0677 217.478 85.875C217.228 85.6771 216.843 85.526 216.322 85.4219L214.244 85.0078C213.072 84.7734 212.2 84.3672 211.627 83.7891C211.059 83.2109 210.775 82.474 210.775 81.5781C210.775 80.8073 210.984 80.1432 211.4 79.5859C211.822 79.0286 212.413 78.599 213.174 78.2969C213.939 77.9948 214.835 77.8438 215.861 77.8438C217.377 77.8438 218.57 78.1641 219.439 78.8047C220.314 79.4453 220.825 80.3177 220.971 81.4219ZM228.494 90V74H234.807C236.02 74 237.054 74.2318 237.908 74.6953C238.762 75.1536 239.413 75.7917 239.861 76.6094C240.314 77.4219 240.541 78.3594 240.541 79.4219C240.541 80.4844 240.312 81.4219 239.853 82.2344C239.395 83.0469 238.731 83.6797 237.861 84.1328C236.997 84.5859 235.95 84.8125 234.721 84.8125H230.697V82.1016H234.174C234.825 82.1016 235.361 81.9896 235.783 81.7656C236.21 81.5365 236.528 81.2214 236.736 80.8203C236.95 80.4141 237.057 79.9479 237.057 79.4219C237.057 78.8906 236.95 78.4271 236.736 78.0312C236.528 77.6302 236.21 77.3203 235.783 77.1016C235.356 76.8776 234.814 76.7656 234.158 76.7656H231.877V90H228.494ZM242.676 90V78H245.902V80.0937H246.027C246.246 79.349 246.613 78.7865 247.129 78.4063C247.644 78.0208 248.238 77.8281 248.91 77.8281C249.077 77.8281 249.256 77.8385 249.449 77.8594C249.642 77.8802 249.811 77.9089 249.957 77.9453V80.8984C249.801 80.8516 249.585 80.8099 249.308 80.7734C249.032 80.737 248.78 80.7188 248.551 80.7188C248.061 80.7188 247.624 80.8255 247.238 81.0391C246.858 81.2474 246.556 81.5391 246.332 81.9141C246.113 82.2891 246.004 82.7214 246.004 83.2109V90H242.676ZM256.541 90.2344C255.327 90.2344 254.278 89.9766 253.392 89.4609C252.512 88.9401 251.833 88.2161 251.353 87.2891C250.874 86.3568 250.635 85.276 250.635 84.0469C250.635 82.8073 250.874 81.724 251.353 80.7969C251.833 79.8646 252.512 79.1406 253.392 78.625C254.278 78.1042 255.327 77.8438 256.541 77.8438C257.754 77.8438 258.801 78.1042 259.682 78.625C260.567 79.1406 261.249 79.8646 261.728 80.7969C262.208 81.724 262.447 82.8073 262.447 84.0469C262.447 85.276 262.208 86.3568 261.728 87.2891C261.249 88.2161 260.567 88.9401 259.682 89.4609C258.801 89.9766 257.754 90.2344 256.541 90.2344ZM256.557 87.6562C257.109 87.6562 257.57 87.5 257.939 87.1875C258.309 86.8698 258.588 86.4375 258.775 85.8906C258.968 85.3437 259.064 84.7214 259.064 84.0234C259.064 83.3255 258.968 82.7031 258.775 82.1562C258.588 81.6094 258.309 81.1771 257.939 80.8594C257.57 80.5417 257.109 80.3828 256.557 80.3828C255.999 80.3828 255.53 80.5417 255.15 80.8594C254.775 81.1771 254.491 81.6094 254.299 82.1562C254.111 82.7031 254.017 83.3255 254.017 84.0234C254.017 84.7214 254.111 85.3437 254.299 85.8906C254.491 86.4375 254.775 86.8698 255.15 87.1875C255.53 87.5 255.999 87.6562 256.557 87.6562ZM270.017 94.75C268.939 94.75 268.015 94.6016 267.244 94.3047C266.478 94.013 265.869 93.6146 265.416 93.1094C264.963 92.6042 264.668 92.0365 264.533 91.4062L267.611 90.9922C267.705 91.2318 267.853 91.4557 268.057 91.6641C268.26 91.8724 268.528 92.0391 268.861 92.1641C269.2 92.2943 269.611 92.3594 270.096 92.3594C270.82 92.3594 271.416 92.1823 271.885 91.8281C272.359 91.4792 272.596 90.8932 272.596 90.0703V87.875H272.455C272.309 88.2083 272.09 88.5234 271.799 88.8203C271.507 89.1172 271.132 89.3594 270.674 89.5469C270.215 89.7344 269.668 89.8281 269.033 89.8281C268.132 89.8281 267.312 89.6198 266.572 89.2031C265.838 88.7812 265.252 88.138 264.814 87.2734C264.382 86.4036 264.166 85.3047 264.166 83.9766C264.166 82.6172 264.387 81.4818 264.83 80.5703C265.273 79.6589 265.861 78.9766 266.596 78.5234C267.335 78.0703 268.145 77.8438 269.025 77.8438C269.697 77.8438 270.26 77.9583 270.713 78.1875C271.166 78.4115 271.53 78.6927 271.807 79.0312C272.088 79.3646 272.304 79.6927 272.455 80.0156H272.58V78H275.885V90.1172C275.885 91.138 275.635 91.9922 275.135 92.6797C274.635 93.3672 273.942 93.8828 273.057 94.2266C272.176 94.5755 271.163 94.75 270.017 94.75ZM270.088 87.3281C270.624 87.3281 271.077 87.1953 271.447 86.9297C271.822 86.6589 272.109 86.2734 272.307 85.7734C272.51 85.2682 272.611 84.6641 272.611 83.9609C272.611 83.2578 272.512 82.6484 272.314 82.1328C272.116 81.612 271.83 81.2083 271.455 80.9219C271.08 80.6354 270.624 80.4922 270.088 80.4922C269.541 80.4922 269.08 80.6406 268.705 80.9375C268.33 81.2292 268.046 81.6354 267.853 82.1562C267.661 82.6771 267.564 83.2786 267.564 83.9609C267.564 84.6536 267.661 85.2526 267.853 85.7578C268.051 86.2578 268.335 86.6458 268.705 86.9219C269.08 87.1927 269.541 87.3281 270.088 87.3281ZM278.533 90V78H281.76V80.0937H281.885C282.103 79.349 282.471 78.7865 282.986 78.4063C283.502 78.0208 284.096 77.8281 284.767 77.8281C284.934 77.8281 285.114 77.8385 285.307 77.8594C285.499 77.8802 285.668 77.9089 285.814 77.9453V80.8984C285.658 80.8516 285.442 80.8099 285.166 80.7734C284.89 80.737 284.637 80.7188 284.408 80.7188C283.918 80.7188 283.481 80.8255 283.096 81.0391C282.715 81.2474 282.413 81.5391 282.189 81.9141C281.971 82.2891 281.861 82.7214 281.861 83.2109V90H278.533ZM290.613 90.2266C289.848 90.2266 289.165 90.0938 288.566 89.8281C287.967 89.5573 287.493 89.1589 287.144 88.6328C286.801 88.1016 286.629 87.4401 286.629 86.6484C286.629 85.9818 286.751 85.4219 286.996 84.9687C287.241 84.5156 287.574 84.151 287.996 83.875C288.418 83.599 288.897 83.3906 289.433 83.25C289.975 83.1094 290.543 83.0104 291.137 82.9531C291.835 82.8802 292.397 82.8125 292.824 82.75C293.251 82.6823 293.561 82.5833 293.754 82.4531C293.946 82.3229 294.043 82.1302 294.043 81.875V81.8281C294.043 81.3333 293.887 80.9505 293.574 80.6797C293.267 80.4089 292.829 80.2734 292.262 80.2734C291.663 80.2734 291.186 80.4062 290.832 80.6719C290.478 80.9323 290.243 81.2604 290.129 81.6562L287.051 81.4062C287.207 80.6771 287.514 80.0469 287.973 79.5156C288.431 78.9792 289.022 78.5677 289.746 78.2812C290.475 77.9896 291.319 77.8438 292.277 77.8438C292.944 77.8438 293.582 77.9219 294.191 78.0781C294.806 78.2344 295.35 78.4766 295.824 78.8047C296.303 79.1328 296.681 79.5547 296.957 80.0703C297.233 80.5807 297.371 81.1927 297.371 81.9062V90H294.215V88.3359H294.121C293.928 88.7109 293.67 89.0417 293.348 89.3281C293.025 89.6094 292.637 89.8307 292.183 89.9922C291.73 90.1484 291.207 90.2266 290.613 90.2266ZM291.566 87.9297C292.056 87.9297 292.488 87.8333 292.863 87.6406C293.238 87.4427 293.532 87.1771 293.746 86.8438C293.96 86.5104 294.066 86.1328 294.066 85.7109V84.4375C293.962 84.5052 293.819 84.5677 293.637 84.625C293.46 84.6771 293.259 84.7266 293.035 84.7734C292.811 84.8151 292.587 84.8542 292.363 84.8906C292.139 84.9219 291.936 84.9505 291.754 84.9766C291.363 85.0339 291.022 85.125 290.73 85.25C290.439 85.375 290.212 85.5443 290.051 85.7578C289.889 85.9661 289.808 86.2266 289.808 86.5391C289.808 86.9922 289.973 87.3385 290.301 87.5781C290.634 87.8125 291.056 87.9297 291.566 87.9297ZM299.953 90V78H303.125V80.1172H303.266C303.516 79.4141 303.932 78.8594 304.516 78.4531C305.099 78.0469 305.797 77.8438 306.609 77.8438C307.432 77.8438 308.133 78.0495 308.711 78.4609C309.289 78.8672 309.674 79.4193 309.867 80.1172H309.992C310.237 79.4297 310.68 78.8802 311.32 78.4687C311.966 78.0521 312.729 77.8438 313.609 77.8438C314.729 77.8438 315.638 78.2005 316.336 78.9141C317.039 79.6224 317.391 80.6276 317.391 81.9297V90H314.07V82.5859C314.07 81.9193 313.893 81.4193 313.539 81.0859C313.185 80.7526 312.742 80.5859 312.211 80.5859C311.607 80.5859 311.135 80.7786 310.797 81.1641C310.458 81.5443 310.289 82.0469 310.289 82.6719V90H307.062V82.5156C307.062 81.9271 306.893 81.4583 306.555 81.1094C306.221 80.7604 305.781 80.5859 305.234 80.5859C304.864 80.5859 304.531 80.6797 304.234 80.8672C303.943 81.0495 303.711 81.3073 303.539 81.6406C303.367 81.9687 303.281 82.3542 303.281 82.7969V90H299.953Z"
        fill="#EFEFEF" />
    <path
        d="M38.2611 106.707V104.806H47.2206V106.707H43.8807V115.715H41.6009V106.707H38.2611ZM50.9226 110.985V115.715H48.6535V104.806H50.8587V108.977H50.9546C51.1393 108.494 51.4376 108.115 51.8495 107.842C52.2614 107.565 52.7781 107.426 53.3996 107.426C53.9677 107.426 54.4631 107.551 54.8857 107.799C55.3118 108.044 55.6421 108.398 55.8765 108.859C56.1144 109.317 56.2316 109.866 56.228 110.505V115.715H53.9589V110.91C53.9624 110.406 53.8346 110.013 53.5753 109.733C53.3197 109.452 52.961 109.312 52.4993 109.312C52.1904 109.312 51.917 109.378 51.679 109.509C51.4447 109.641 51.26 109.832 51.1251 110.085C50.9937 110.333 50.9262 110.633 50.9226 110.985ZM61.7425 115.875C60.9009 115.875 60.1765 115.704 59.5692 115.363C58.9655 115.019 58.5003 114.532 58.1736 113.904C57.8469 113.272 57.6836 112.524 57.6836 111.661C57.6836 110.82 57.8469 110.081 58.1736 109.445C58.5003 108.81 58.9602 108.314 59.5532 107.959C60.1498 107.604 60.8494 107.426 61.652 107.426C62.1917 107.426 62.6942 107.513 63.1594 107.688C63.6282 107.858 64.0365 108.115 64.3846 108.46C64.7361 108.804 65.0096 109.238 65.2049 109.76C65.4002 110.278 65.4978 110.885 65.4978 111.581V112.205H58.5891V110.798H63.3618C63.3618 110.472 63.2908 110.182 63.1488 109.93C63.0067 109.678 62.8096 109.481 62.5575 109.339C62.3089 109.193 62.0195 109.12 61.6892 109.12C61.3448 109.12 61.0394 109.2 60.773 109.36C60.5103 109.516 60.3043 109.728 60.1552 109.994C60.006 110.257 59.9297 110.55 59.9261 110.873V112.21C59.9261 112.615 60.0007 112.964 60.1498 113.259C60.3025 113.554 60.5174 113.781 60.7944 113.941C61.0713 114.101 61.3998 114.181 61.7798 114.181C62.0319 114.181 62.2628 114.145 62.4723 114.074C62.6818 114.003 62.8611 113.897 63.0103 113.755C63.1594 113.613 63.273 113.439 63.3512 113.233L65.4499 113.371C65.3434 113.875 65.125 114.316 64.7947 114.692C64.468 115.065 64.0454 115.356 63.527 115.566C63.012 115.772 62.4172 115.875 61.7425 115.875ZM72.7195 110.985V115.715H70.4503V107.533H72.613V108.977H72.7089C72.89 108.501 73.1936 108.124 73.6197 107.847C74.0459 107.567 74.5626 107.426 75.1698 107.426C75.738 107.426 76.2334 107.551 76.656 107.799C77.0785 108.048 77.407 108.403 77.6414 108.865C77.8758 109.323 77.993 109.87 77.993 110.505V115.715H75.7238V110.91C75.7273 110.409 75.5995 110.019 75.3403 109.738C75.081 109.454 74.7241 109.312 74.2696 109.312C73.9642 109.312 73.6943 109.378 73.4599 109.509C73.2291 109.641 73.048 109.832 72.9166 110.085C72.7888 110.333 72.7231 110.633 72.7195 110.985ZM83.5101 115.875C82.6685 115.875 81.944 115.704 81.3368 115.363C80.7331 115.019 80.2679 114.532 79.9412 113.904C79.6145 113.272 79.4511 112.524 79.4511 111.661C79.4511 110.82 79.6145 110.081 79.9412 109.445C80.2679 108.81 80.7278 108.314 81.3208 107.959C81.9174 107.604 82.617 107.426 83.4195 107.426C83.9593 107.426 84.4618 107.513 84.927 107.688C85.3957 107.858 85.8041 108.115 86.1521 108.46C86.5037 108.804 86.7771 109.238 86.9724 109.76C87.1678 110.278 87.2654 110.885 87.2654 111.581V112.205H80.3567V110.798H85.1294C85.1294 110.472 85.0584 110.182 84.9163 109.93C84.7743 109.678 84.5772 109.481 84.3251 109.339C84.0765 109.193 83.7871 109.12 83.4568 109.12C83.1124 109.12 82.807 109.2 82.5406 109.36C82.2778 109.516 82.0719 109.728 81.9227 109.994C81.7736 110.257 81.6972 110.55 81.6937 110.873V112.21C81.6937 112.615 81.7683 112.964 81.9174 113.259C82.0701 113.554 82.2849 113.781 82.5619 113.941C82.8389 114.101 83.1674 114.181 83.5474 114.181C83.7995 114.181 84.0303 114.145 84.2398 114.074C84.4494 114.003 84.6287 113.897 84.7778 113.755C84.927 113.613 85.0406 113.439 85.1188 113.233L87.2175 113.371C87.1109 113.875 86.8925 114.316 86.5623 114.692C86.2356 115.065 85.813 115.356 85.2945 115.566C84.7796 115.772 84.1848 115.875 83.5101 115.875ZM90.4961 107.533L91.9982 110.393L93.5376 107.533H95.8654L93.495 111.624L95.9293 115.715H93.6122L91.9982 112.886L90.4108 115.715H88.0671L90.4961 111.624L88.1523 107.533H90.4961ZM101.565 107.533V109.238H96.6378V107.533H101.565ZM97.7564 105.573H100.026V113.201C100.026 113.41 100.057 113.574 100.121 113.691C100.185 113.804 100.274 113.884 100.388 113.93C100.505 113.977 100.64 114 100.793 114C100.899 114 101.006 113.991 101.112 113.973C101.219 113.952 101.3 113.936 101.357 113.925L101.714 115.614C101.6 115.649 101.441 115.69 101.235 115.736C101.029 115.786 100.778 115.816 100.484 115.827C99.9368 115.848 99.4574 115.775 99.0454 115.608C98.637 115.441 98.3192 115.182 98.0919 114.831C97.8647 114.479 97.7528 114.035 97.7564 113.499V105.573ZM106.515 118.783V107.533H108.752V108.907H108.853C108.953 108.687 109.096 108.463 109.285 108.236C109.476 108.005 109.725 107.814 110.03 107.661C110.339 107.505 110.723 107.426 111.181 107.426C111.778 107.426 112.328 107.583 112.832 107.895C113.337 108.204 113.74 108.671 114.041 109.296C114.343 109.918 114.494 110.697 114.494 111.635C114.494 112.547 114.347 113.318 114.052 113.946C113.761 114.571 113.363 115.045 112.859 115.369C112.358 115.688 111.797 115.848 111.176 115.848C110.735 115.848 110.361 115.775 110.052 115.63C109.746 115.484 109.496 115.301 109.301 115.081C109.105 114.857 108.956 114.632 108.853 114.404H108.784V118.783H106.515ZM108.736 111.624C108.736 112.11 108.804 112.535 108.938 112.897C109.073 113.259 109.269 113.542 109.524 113.744C109.78 113.943 110.091 114.042 110.457 114.042C110.826 114.042 111.138 113.941 111.394 113.739C111.65 113.533 111.843 113.249 111.975 112.886C112.11 112.521 112.177 112.1 112.177 111.624C112.177 111.152 112.111 110.736 111.98 110.377C111.849 110.019 111.655 109.738 111.399 109.536C111.144 109.333 110.829 109.232 110.457 109.232C110.087 109.232 109.775 109.33 109.519 109.525C109.267 109.721 109.073 109.998 108.938 110.356C108.804 110.715 108.736 111.137 108.736 111.624ZM118.276 110.985V115.715H116.007V104.806H118.212V108.977H118.308C118.493 108.494 118.791 108.115 119.203 107.842C119.615 107.565 120.132 107.426 120.753 107.426C121.321 107.426 121.817 107.551 122.239 107.799C122.665 108.044 122.996 108.398 123.23 108.859C123.468 109.317 123.585 109.866 123.582 110.505V115.715H121.312V110.91C121.316 110.406 121.188 110.013 120.929 109.733C120.673 109.452 120.315 109.312 119.853 109.312C119.544 109.312 119.27 109.378 119.033 109.509C118.798 109.641 118.614 109.832 118.479 110.085C118.347 110.333 118.28 110.633 118.276 110.985ZM127.7 115.869C127.178 115.869 126.713 115.779 126.305 115.598C125.896 115.413 125.573 115.141 125.335 114.783C125.101 114.42 124.984 113.969 124.984 113.43C124.984 112.975 125.067 112.593 125.234 112.284C125.401 111.975 125.628 111.727 125.916 111.539C126.204 111.35 126.53 111.208 126.896 111.113C127.265 111.017 127.652 110.949 128.057 110.91C128.533 110.86 128.917 110.814 129.208 110.772C129.499 110.725 129.71 110.658 129.842 110.569C129.973 110.48 130.039 110.349 130.039 110.175V110.143C130.039 109.806 129.932 109.545 129.719 109.36C129.51 109.175 129.211 109.083 128.824 109.083C128.416 109.083 128.091 109.174 127.85 109.355C127.608 109.532 127.448 109.756 127.37 110.026L125.271 109.855C125.378 109.358 125.588 108.929 125.9 108.566C126.213 108.201 126.616 107.92 127.109 107.725C127.606 107.526 128.182 107.426 128.835 107.426C129.29 107.426 129.725 107.48 130.14 107.586C130.559 107.693 130.93 107.858 131.253 108.082C131.58 108.305 131.838 108.593 132.026 108.945C132.214 109.293 132.308 109.71 132.308 110.196V115.715H130.156V114.58H130.092C129.961 114.836 129.785 115.061 129.565 115.257C129.345 115.449 129.08 115.599 128.771 115.71C128.462 115.816 128.105 115.869 127.7 115.869ZM128.35 114.303C128.684 114.303 128.979 114.238 129.235 114.106C129.49 113.971 129.691 113.79 129.836 113.563C129.982 113.336 130.055 113.078 130.055 112.79V111.922C129.984 111.968 129.886 112.011 129.762 112.05C129.641 112.086 129.504 112.119 129.352 112.151C129.199 112.18 129.046 112.206 128.894 112.231C128.741 112.252 128.602 112.272 128.478 112.29C128.212 112.329 127.979 112.391 127.78 112.476C127.581 112.561 127.427 112.677 127.317 112.822C127.207 112.964 127.152 113.142 127.152 113.355C127.152 113.664 127.264 113.9 127.487 114.064C127.715 114.223 128.002 114.303 128.35 114.303ZM140.876 109.866L138.799 109.994C138.763 109.816 138.687 109.657 138.57 109.515C138.452 109.369 138.298 109.254 138.106 109.168C137.918 109.08 137.692 109.035 137.43 109.035C137.078 109.035 136.782 109.11 136.54 109.259C136.299 109.404 136.178 109.6 136.178 109.845C136.178 110.04 136.256 110.205 136.412 110.34C136.569 110.475 136.837 110.583 137.217 110.665L138.697 110.963C139.493 111.127 140.086 111.39 140.477 111.752C140.867 112.114 141.062 112.59 141.062 113.179C141.062 113.716 140.904 114.186 140.588 114.591C140.276 114.996 139.846 115.312 139.299 115.539C138.756 115.763 138.129 115.875 137.419 115.875C136.336 115.875 135.473 115.649 134.83 115.198C134.191 114.744 133.816 114.126 133.706 113.344L135.938 113.227C136.006 113.558 136.169 113.81 136.428 113.984C136.687 114.154 137.019 114.239 137.424 114.239C137.822 114.239 138.142 114.163 138.383 114.01C138.628 113.854 138.752 113.653 138.756 113.408C138.752 113.202 138.665 113.034 138.495 112.902C138.325 112.767 138.062 112.664 137.707 112.593L136.29 112.311C135.491 112.151 134.896 111.874 134.505 111.48C134.118 111.086 133.925 110.583 133.925 109.973C133.925 109.447 134.067 108.994 134.351 108.614C134.638 108.234 135.042 107.941 135.56 107.735C136.082 107.529 136.693 107.426 137.392 107.426C138.426 107.426 139.239 107.645 139.832 108.082C140.429 108.518 140.777 109.113 140.876 109.866ZM146.22 115.875C145.378 115.875 144.654 115.704 144.047 115.363C143.443 115.019 142.978 114.532 142.651 113.904C142.324 113.272 142.161 112.524 142.161 111.661C142.161 110.82 142.324 110.081 142.651 109.445C142.978 108.81 143.438 108.314 144.031 107.959C144.627 107.604 145.327 107.426 146.129 107.426C146.669 107.426 147.172 107.513 147.637 107.688C148.106 107.858 148.514 108.115 148.862 108.46C149.214 108.804 149.487 109.238 149.682 109.76C149.878 110.278 149.975 110.885 149.975 111.581V112.205H143.067V110.798H147.839C147.839 110.472 147.768 110.182 147.626 109.93C147.484 109.678 147.287 109.481 147.035 109.339C146.786 109.193 146.497 109.12 146.167 109.12C145.822 109.12 145.517 109.2 145.251 109.36C144.988 109.516 144.782 109.728 144.633 109.994C144.484 110.257 144.407 110.55 144.404 110.873V112.21C144.404 112.615 144.478 112.964 144.627 113.259C144.78 113.554 144.995 113.781 145.272 113.941C145.549 114.101 145.877 114.181 146.257 114.181C146.509 114.181 146.74 114.145 146.95 114.074C147.159 114.003 147.339 113.897 147.488 113.755C147.637 113.613 147.751 113.439 147.829 113.233L149.927 113.371C149.821 113.875 149.603 114.316 149.272 114.692C148.946 115.065 148.523 115.356 148.004 115.566C147.49 115.772 146.895 115.875 146.22 115.875ZM158.625 115.875C157.797 115.875 157.082 115.699 156.478 115.347C155.878 114.992 155.414 114.499 155.088 113.866C154.761 113.231 154.598 112.494 154.598 111.656C154.598 110.811 154.761 110.072 155.088 109.44C155.414 108.804 155.878 108.311 156.478 107.959C157.082 107.604 157.797 107.426 158.625 107.426C159.452 107.426 160.166 107.604 160.766 107.959C161.37 108.311 161.835 108.804 162.162 109.44C162.488 110.072 162.652 110.811 162.652 111.656C162.652 112.494 162.488 113.231 162.162 113.866C161.835 114.499 161.37 114.992 160.766 115.347C160.166 115.699 159.452 115.875 158.625 115.875ZM158.635 114.117C159.012 114.117 159.326 114.01 159.578 113.797C159.83 113.581 160.02 113.286 160.148 112.913C160.279 112.54 160.345 112.116 160.345 111.64C160.345 111.164 160.279 110.74 160.148 110.367C160.02 109.994 159.83 109.699 159.578 109.483C159.326 109.266 159.012 109.158 158.635 109.158C158.255 109.158 157.936 109.266 157.676 109.483C157.421 109.699 157.227 109.994 157.096 110.367C156.968 110.74 156.904 111.164 156.904 111.64C156.904 112.116 156.968 112.54 157.096 112.913C157.227 113.286 157.421 113.581 157.676 113.797C157.936 114.01 158.255 114.117 158.635 114.117ZM168.527 107.533V109.238H163.477V107.533H168.527ZM164.633 115.715V106.942C164.633 106.349 164.749 105.857 164.979 105.466C165.214 105.076 165.533 104.783 165.938 104.587C166.343 104.392 166.803 104.294 167.318 104.294C167.666 104.294 167.984 104.321 168.271 104.374C168.562 104.428 168.779 104.475 168.921 104.518L168.516 106.223C168.428 106.194 168.317 106.168 168.186 106.143C168.058 106.118 167.927 106.105 167.792 106.105C167.458 106.105 167.225 106.184 167.094 106.34C166.963 106.493 166.897 106.707 166.897 106.984V115.715H164.633ZM176.4 115.848C175.778 115.848 175.216 115.688 174.711 115.369C174.211 115.045 173.813 114.571 173.518 113.946C173.227 113.318 173.081 112.547 173.081 111.635C173.081 110.697 173.232 109.918 173.534 109.296C173.836 108.671 174.237 108.204 174.738 107.895C175.242 107.583 175.794 107.426 176.394 107.426C176.853 107.426 177.234 107.505 177.54 107.661C177.849 107.814 178.097 108.005 178.285 108.236C178.477 108.463 178.623 108.687 178.722 108.907H178.792V104.806H181.055V115.715H178.818V114.404H178.722C178.616 114.632 178.465 114.857 178.269 115.081C178.078 115.301 177.827 115.484 177.518 115.63C177.213 115.775 176.84 115.848 176.4 115.848ZM177.119 114.042C177.485 114.042 177.794 113.943 178.046 113.744C178.301 113.542 178.497 113.259 178.632 112.897C178.77 112.535 178.839 112.11 178.839 111.624C178.839 111.137 178.772 110.715 178.637 110.356C178.502 109.998 178.307 109.721 178.051 109.525C177.795 109.33 177.485 109.232 177.119 109.232C176.746 109.232 176.432 109.333 176.176 109.536C175.92 109.738 175.727 110.019 175.595 110.377C175.464 110.736 175.398 111.152 175.398 111.624C175.398 112.1 175.464 112.521 175.595 112.886C175.73 113.249 175.924 113.533 176.176 113.739C176.432 113.941 176.746 114.042 177.119 114.042ZM186.65 115.875C185.808 115.875 185.084 115.704 184.476 115.363C183.873 115.019 183.408 114.532 183.081 113.904C182.754 113.272 182.591 112.524 182.591 111.661C182.591 110.82 182.754 110.081 183.081 109.445C183.408 108.81 183.867 108.314 184.46 107.959C185.057 107.604 185.757 107.426 186.559 107.426C187.099 107.426 187.601 107.513 188.067 107.688C188.535 107.858 188.944 108.115 189.292 108.46C189.643 108.804 189.917 109.238 190.112 109.76C190.307 110.278 190.405 110.885 190.405 111.581V112.205H183.496V110.798H188.269C188.269 110.472 188.198 110.182 188.056 109.93C187.914 109.678 187.717 109.481 187.465 109.339C187.216 109.193 186.927 109.12 186.596 109.12C186.252 109.12 185.947 109.2 185.68 109.36C185.417 109.516 185.212 109.728 185.062 109.994C184.913 110.257 184.837 110.55 184.833 110.873V112.21C184.833 112.615 184.908 112.964 185.057 113.259C185.21 113.554 185.425 113.781 185.702 113.941C185.979 114.101 186.307 114.181 186.687 114.181C186.939 114.181 187.17 114.145 187.379 114.074C187.589 114.003 187.768 113.897 187.917 113.755C188.067 113.613 188.18 113.439 188.258 113.233L190.357 113.371C190.251 113.875 190.032 114.316 189.702 114.692C189.375 115.065 188.953 115.356 188.434 115.566C187.919 115.772 187.324 115.875 186.65 115.875ZM195.583 115.875C194.745 115.875 194.024 115.697 193.42 115.342C192.82 114.983 192.358 114.486 192.035 113.85C191.715 113.215 191.556 112.483 191.556 111.656C191.556 110.818 191.717 110.083 192.04 109.451C192.367 108.815 192.83 108.32 193.431 107.964C194.031 107.606 194.745 107.426 195.572 107.426C196.286 107.426 196.911 107.556 197.447 107.815C197.983 108.075 198.408 108.439 198.72 108.907C199.033 109.376 199.205 109.926 199.237 110.559H197.095C197.035 110.15 196.875 109.822 196.616 109.573C196.36 109.321 196.025 109.195 195.609 109.195C195.258 109.195 194.951 109.291 194.688 109.483C194.429 109.671 194.226 109.946 194.08 110.308C193.935 110.67 193.862 111.109 193.862 111.624C193.862 112.146 193.933 112.59 194.075 112.956C194.221 113.321 194.425 113.6 194.688 113.792C194.951 113.984 195.258 114.08 195.609 114.08C195.868 114.08 196.101 114.026 196.307 113.92C196.517 113.813 196.689 113.659 196.824 113.456C196.962 113.25 197.053 113.004 197.095 112.716H199.237C199.201 113.341 199.031 113.891 198.725 114.367C198.424 114.839 198.006 115.209 197.474 115.475C196.941 115.741 196.311 115.875 195.583 115.875ZM204.418 115.875C203.577 115.875 202.852 115.704 202.245 115.363C201.641 115.019 201.176 114.532 200.849 113.904C200.523 113.272 200.359 112.524 200.359 111.661C200.359 110.82 200.523 110.081 200.849 109.445C201.176 108.81 201.636 108.314 202.229 107.959C202.826 107.604 203.525 107.426 204.328 107.426C204.868 107.426 205.37 107.513 205.835 107.688C206.304 107.858 206.712 108.115 207.06 108.46C207.412 108.804 207.685 109.238 207.881 109.76C208.076 110.278 208.174 110.885 208.174 111.581V112.205H201.265V110.798H206.038C206.038 110.472 205.967 110.182 205.825 109.93C205.682 109.678 205.485 109.481 205.233 109.339C204.985 109.193 204.695 109.12 204.365 109.12C204.021 109.12 203.715 109.2 203.449 109.36C203.186 109.516 202.98 109.728 202.831 109.994C202.682 110.257 202.605 110.55 202.602 110.873V112.21C202.602 112.615 202.676 112.964 202.826 113.259C202.978 113.554 203.193 113.781 203.47 113.941C203.747 114.101 204.076 114.181 204.456 114.181C204.708 114.181 204.939 114.145 205.148 114.074C205.358 114.003 205.537 113.897 205.686 113.755C205.835 113.613 205.949 113.439 206.027 113.233L208.126 113.371C208.019 113.875 207.801 114.316 207.47 114.692C207.144 115.065 206.721 115.356 206.203 115.566C205.688 115.772 205.093 115.875 204.418 115.875ZM211.924 110.985V115.715H209.654V107.533H211.817V108.977H211.913C212.094 108.501 212.398 108.124 212.824 107.847C213.25 107.567 213.767 107.426 214.374 107.426C214.942 107.426 215.437 107.551 215.86 107.799C216.283 108.048 216.611 108.403 216.845 108.865C217.08 109.323 217.197 109.87 217.197 110.505V115.715H214.928V110.91C214.931 110.409 214.804 110.019 214.544 109.738C214.285 109.454 213.928 109.312 213.474 109.312C213.168 109.312 212.898 109.378 212.664 109.509C212.433 109.641 212.252 109.832 212.121 110.085C211.993 110.333 211.927 110.633 211.924 110.985ZM223.337 107.533V109.238H218.41V107.533H223.337ZM219.529 105.573H221.798V113.201C221.798 113.41 221.83 113.574 221.894 113.691C221.958 113.804 222.047 113.884 222.16 113.93C222.277 113.977 222.412 114 222.565 114C222.672 114 222.778 113.991 222.885 113.973C222.991 113.952 223.073 113.936 223.13 113.925L223.487 115.614C223.373 115.649 223.213 115.69 223.007 115.736C222.801 115.786 222.551 115.816 222.256 115.827C221.709 115.848 221.23 115.775 220.818 115.608C220.41 115.441 220.092 115.182 219.864 114.831C219.637 114.479 219.525 114.035 219.529 113.499V105.573ZM224.816 115.715V107.533H227.016V108.961H227.101C227.25 108.453 227.5 108.069 227.852 107.81C228.203 107.547 228.608 107.416 229.066 107.416C229.18 107.416 229.302 107.423 229.434 107.437C229.565 107.451 229.681 107.471 229.78 107.496V109.509C229.674 109.477 229.526 109.449 229.338 109.424C229.15 109.399 228.978 109.387 228.821 109.387C228.487 109.387 228.189 109.46 227.926 109.605C227.667 109.747 227.461 109.946 227.308 110.202C227.159 110.457 227.085 110.752 227.085 111.086V115.715H224.816ZM233.052 115.869C232.53 115.869 232.065 115.779 231.656 115.598C231.248 115.413 230.925 115.141 230.687 114.783C230.453 114.42 230.335 113.969 230.335 113.43C230.335 112.975 230.419 112.593 230.586 112.284C230.753 111.975 230.98 111.727 231.268 111.539C231.555 111.35 231.882 111.208 232.248 111.113C232.617 111.017 233.004 110.949 233.409 110.91C233.885 110.86 234.268 110.814 234.559 110.772C234.851 110.725 235.062 110.658 235.193 110.569C235.325 110.48 235.39 110.349 235.39 110.175V110.143C235.39 109.806 235.284 109.545 235.071 109.36C234.861 109.175 234.563 109.083 234.176 109.083C233.768 109.083 233.443 109.174 233.201 109.355C232.96 109.532 232.8 109.756 232.722 110.026L230.623 109.855C230.73 109.358 230.939 108.929 231.252 108.566C231.564 108.201 231.967 107.92 232.461 107.725C232.958 107.526 233.533 107.426 234.187 107.426C234.641 107.426 235.076 107.48 235.492 107.586C235.911 107.693 236.282 107.858 236.605 108.082C236.932 108.305 237.189 108.593 237.377 108.945C237.565 109.293 237.66 109.71 237.66 110.196V115.715H235.508V114.58H235.444C235.312 114.836 235.137 115.061 234.916 115.257C234.696 115.449 234.432 115.599 234.123 115.71C233.814 115.816 233.457 115.869 233.052 115.869ZM233.702 114.303C234.036 114.303 234.33 114.238 234.586 114.106C234.842 113.971 235.042 113.79 235.188 113.563C235.334 113.336 235.406 113.078 235.406 112.79V111.922C235.335 111.968 235.238 112.011 235.113 112.05C234.993 112.086 234.856 112.119 234.703 112.151C234.551 112.18 234.398 112.206 234.245 112.231C234.092 112.252 233.954 112.272 233.83 112.29C233.563 112.329 233.331 112.391 233.132 112.476C232.933 112.561 232.779 112.677 232.668 112.822C232.558 112.964 232.503 113.142 232.503 113.355C232.503 113.664 232.615 113.9 232.839 114.064C233.066 114.223 233.354 114.303 233.702 114.303ZM241.689 104.806V115.715H239.42V104.806H241.689ZM243.507 115.715V107.533H245.776V115.715H243.507ZM244.647 106.478C244.31 106.478 244.02 106.366 243.779 106.143C243.541 105.915 243.422 105.644 243.422 105.328C243.422 105.015 243.541 104.747 243.779 104.523C244.02 104.296 244.31 104.183 244.647 104.183C244.984 104.183 245.272 104.296 245.51 104.523C245.751 104.747 245.872 105.015 245.872 105.328C245.872 105.644 245.751 105.915 245.51 106.143C245.272 106.366 244.984 106.478 244.647 106.478ZM247.551 115.715V114.362L251.557 109.403V109.344H247.69V107.533H254.29V109.009L250.529 113.845V113.904H254.428V115.715H247.551ZM258.496 115.869C257.974 115.869 257.509 115.779 257.101 115.598C256.692 115.413 256.369 115.141 256.131 114.783C255.897 114.42 255.78 113.969 255.78 113.43C255.78 112.975 255.863 112.593 256.03 112.284C256.197 111.975 256.424 111.727 256.712 111.539C257 111.35 257.326 111.208 257.692 111.113C258.061 111.017 258.448 110.949 258.853 110.91C259.329 110.86 259.713 110.814 260.004 110.772C260.295 110.725 260.506 110.658 260.638 110.569C260.769 110.48 260.835 110.349 260.835 110.175V110.143C260.835 109.806 260.728 109.545 260.515 109.36C260.306 109.175 260.007 109.083 259.62 109.083C259.212 109.083 258.887 109.174 258.645 109.355C258.404 109.532 258.244 109.756 258.166 110.026L256.067 109.855C256.174 109.358 256.383 108.929 256.696 108.566C257.008 108.201 257.411 107.92 257.905 107.725C258.402 107.526 258.978 107.426 259.631 107.426C260.085 107.426 260.52 107.48 260.936 107.586C261.355 107.693 261.726 107.858 262.049 108.082C262.376 108.305 262.633 108.593 262.822 108.945C263.01 109.293 263.104 109.71 263.104 110.196V115.715H260.952V114.58H260.888C260.757 114.836 260.581 115.061 260.361 115.257C260.141 115.449 259.876 115.599 259.567 115.71C259.258 115.816 258.901 115.869 258.496 115.869ZM259.146 114.303C259.48 114.303 259.775 114.238 260.03 114.106C260.286 113.971 260.487 113.79 260.632 113.563C260.778 113.336 260.851 113.078 260.851 112.79V111.922C260.78 111.968 260.682 112.011 260.558 112.05C260.437 112.086 260.3 112.119 260.148 112.151C259.995 112.18 259.842 112.206 259.69 112.231C259.537 112.252 259.398 112.272 259.274 112.29C259.008 112.329 258.775 112.391 258.576 112.476C258.377 112.561 258.223 112.677 258.113 112.822C258.003 112.964 257.948 113.142 257.948 113.355C257.948 113.664 258.06 113.9 258.283 114.064C258.511 114.223 258.798 114.303 259.146 114.303ZM269.216 107.533V109.238H264.289V107.533H269.216ZM265.408 105.573H267.677V113.201C267.677 113.41 267.709 113.574 267.773 113.691C267.837 113.804 267.925 113.884 268.039 113.93C268.156 113.977 268.291 114 268.444 114C268.55 114 268.657 113.991 268.764 113.973C268.87 113.952 268.952 113.936 269.009 113.925L269.365 115.614C269.252 115.649 269.092 115.69 268.886 115.736C268.68 115.786 268.43 115.816 268.135 115.827C267.588 115.848 267.109 115.775 266.697 115.608C266.288 115.441 265.971 115.182 265.743 114.831C265.516 114.479 265.404 114.035 265.408 113.499V105.573ZM270.694 115.715V107.533H272.964V115.715H270.694ZM271.834 106.478C271.497 106.478 271.208 106.366 270.966 106.143C270.728 105.915 270.609 105.644 270.609 105.328C270.609 105.015 270.728 104.747 270.966 104.523C271.208 104.296 271.497 104.183 271.834 104.183C272.172 104.183 272.459 104.296 272.697 104.523C272.939 104.747 273.06 105.015 273.06 105.328C273.06 105.644 272.939 105.915 272.697 106.143C272.459 106.366 272.172 106.478 271.834 106.478ZM278.478 115.875C277.651 115.875 276.935 115.699 276.331 115.347C275.731 114.992 275.268 114.499 274.941 113.866C274.614 113.231 274.451 112.494 274.451 111.656C274.451 110.811 274.614 110.072 274.941 109.44C275.268 108.804 275.731 108.311 276.331 107.959C276.935 107.604 277.651 107.426 278.478 107.426C279.306 107.426 280.019 107.604 280.619 107.959C281.223 108.311 281.688 108.804 282.015 109.44C282.342 110.072 282.505 110.811 282.505 111.656C282.505 112.494 282.342 113.231 282.015 113.866C281.688 114.499 281.223 114.992 280.619 115.347C280.019 115.699 279.306 115.875 278.478 115.875ZM278.489 114.117C278.865 114.117 279.179 114.01 279.432 113.797C279.684 113.581 279.874 113.286 280.002 112.913C280.133 112.54 280.199 112.116 280.199 111.64C280.199 111.164 280.133 110.74 280.002 110.367C279.874 109.994 279.684 109.699 279.432 109.483C279.179 109.266 278.865 109.158 278.489 109.158C278.109 109.158 277.789 109.266 277.53 109.483C277.274 109.699 277.081 109.994 276.949 110.367C276.822 110.74 276.758 111.164 276.758 111.64C276.758 112.116 276.822 112.54 276.949 112.913C277.081 113.286 277.274 113.581 277.53 113.797C277.789 114.01 278.109 114.117 278.489 114.117ZM286.25 110.985V115.715H283.981V107.533H286.143V108.977H286.239C286.42 108.501 286.724 108.124 287.15 107.847C287.576 107.567 288.093 107.426 288.7 107.426C289.268 107.426 289.764 107.551 290.186 107.799C290.609 108.048 290.937 108.403 291.172 108.865C291.406 109.323 291.523 109.87 291.523 110.505V115.715H289.254V110.91C289.258 110.409 289.13 110.019 288.871 109.738C288.611 109.454 288.254 109.312 287.8 109.312C287.494 109.312 287.225 109.378 286.99 109.509C286.759 109.641 286.578 109.832 286.447 110.085C286.319 110.333 286.253 110.633 286.25 110.985Z"
        fill="#EFEFEF" />
    <defs>
        <linearGradient id="paint0_linear_7774_1170" x1="118.568" y1="23.2204" x2="48.174" y2="59.9063"
            gradientUnits="userSpaceOnUse">
            <stop stop-color="#EC796B" />
            <stop offset="1" stop-color="#D672EF" />
        </linearGradient>
        <linearGradient id="paint1_linear_7774_1170" x1="114.761" y1="41.1107" x2="103.519" y2="42.1664"
            gradientUnits="userSpaceOnUse">
            <stop stop-color="#EC796B" />
            <stop offset="1" stop-color="#D672EF" />
        </linearGradient>
    </defs>
</svg>