<svg width="331" height="96" viewBox="0 0 331 96" fill="none" xmlns="http://www.w3.org/2000/svg">
    <path
        d="M71.6561 31.6035C71.6561 46.0956 83.4236 57.8435 97.9399 57.8435C112.456 57.8435 124.225 46.0955 124.225 31.6035C124.225 17.1115 112.456 5.36362 97.9399 5.36362C83.4236 5.36362 71.6561 17.1115 71.6561 31.6035Z"
        fill="#0C0C4F" stroke="#EC796B" stroke-width="2" />
    <path fill-rule="evenodd" clip-rule="evenodd"
        d="M85.9956 25.2338L86.664 23.172C86.7999 22.7526 87.1314 22.4263 87.553 22.2977L89.6284 21.6605C89.9156 21.5729 89.918 21.1683 89.633 21.0761L87.567 20.4087C87.1477 20.2731 86.8209 19.9421 86.6912 19.5212L86.0538 17.4494C85.966 17.1633 85.5608 17.1602 85.4684 17.4455L84.7999 19.5073C84.664 19.9258 84.3325 20.2521 83.9109 20.3816L81.8356 21.0179C81.5483 21.1063 81.5452 21.5102 81.8309 21.6024L83.8969 22.2698C84.3162 22.4054 84.6431 22.7371 84.7727 23.158L85.4101 25.2291C85.4979 25.5159 85.9032 25.519 85.9956 25.2338Z"
        fill="#FAFAFA" />
    <path fill-rule="evenodd" clip-rule="evenodd"
        d="M118.798 24.0338C117.943 23.0787 116.607 22.541 115.309 22.3204C114.001 22.1086 112.629 22.1283 111.337 22.3573C108.723 22.7988 106.349 23.8792 104.278 25.2121C103.202 25.8663 102.285 26.6232 101.335 27.394C100.877 27.7839 100.46 28.1991 100.025 28.6083L98.837 29.7882C97.5463 31.135 96.2741 32.3618 95.0432 33.3786C93.8074 34.3908 92.652 35.1595 91.5133 35.6963C90.3753 36.2359 89.1577 36.5533 87.5706 36.6041C85.9975 36.6594 84.1363 36.376 82.1454 35.9081C80.1439 35.4424 78.042 34.7784 75.6933 34.2071C76.5128 36.4769 77.747 38.4827 79.3314 40.3163C80.9345 42.118 82.9362 43.7603 85.5077 44.8402C88.042 45.9442 91.2268 46.3404 94.2048 45.7426C97.1906 45.1688 99.8108 43.7895 101.929 42.1943C104.052 40.5827 105.77 38.747 107.218 36.8385C107.618 36.3112 107.83 36.0161 108.119 35.604L108.918 34.4215C109.474 33.69 109.98 32.8572 110.53 32.1325C111.609 30.6147 112.672 29.0987 113.907 27.7019C114.529 26.9935 115.185 26.3159 115.959 25.6647C116.345 25.3468 116.762 25.0357 117.224 24.7555C117.693 24.4533 118.188 24.2167 118.798 24.0338Z"
        fill="url(#paint0_linear_1_584)" />
    <path fill-rule="evenodd" clip-rule="evenodd"
        d="M118.798 24.0362C117.879 21.7208 116.17 19.7717 113.877 18.3335C111.597 16.911 108.431 16.1851 105.294 16.8039C103.744 17.1032 102.242 17.6793 100.924 18.4466C99.6127 19.2108 98.4371 20.1307 97.4195 21.1176C96.9115 21.6128 96.4504 22.1292 95.9922 22.6486L94.8049 24.1599L92.971 26.5927C90.6331 29.7227 88.1155 33.3909 83.984 34.4778C79.9279 35.5449 78.1688 34.5999 75.6933 34.2095C76.1459 35.3761 76.7066 36.5091 77.4668 37.5058C78.2127 38.5227 79.0937 39.4779 80.1892 40.2966C80.7427 40.6898 81.3272 41.0778 81.9763 41.407C82.6225 41.7249 83.3193 42.0049 84.0631 42.2156C85.5426 42.6204 87.2082 42.7622 88.8209 42.5445C90.4344 42.3296 91.9766 41.8191 93.3247 41.1411C94.6827 40.4695 95.8656 39.6517 96.9219 38.7885C99.0217 37.0477 100.655 35.1242 102.035 33.1799C102.728 32.2078 103.358 31.2174 103.941 30.2267L104.627 29.0472C104.836 28.7024 105.048 28.3555 105.264 28.0324C106.132 26.7344 106.982 25.6937 108.014 24.9124C109.032 24.111 110.449 23.5189 112.343 23.3814C114.23 23.2422 116.407 23.4993 118.798 24.0362Z"
        fill="#FAFAFA" />
    <path fill-rule="evenodd" clip-rule="evenodd"
        d="M108.595 43.2714C108.595 44.972 109.976 46.3513 111.68 46.3513C113.383 46.3513 114.763 44.972 114.763 43.2714C114.763 41.5708 113.383 40.1914 111.68 40.1914C109.976 40.1914 108.595 41.5708 108.595 43.2714Z"
        fill="url(#paint1_linear_1_584)" />
    <mask id="mask0_1_584" style="mask-type:luminance" maskUnits="userSpaceOnUse" x="136" y="12" width="123"
        height="39">
        <path d="M258.843 12.8156H136.036V50.3897H258.843V12.8156Z" fill="white" />
    </mask>
    <g mask="url(#mask0_1_584)">
        <path
            d="M256.898 14.239H250.632L250.361 14.5543C249.564 15.4751 248.566 16.5711 247.388 17.8072C246.235 19.0184 244.987 20.3195 243.668 21.6607C242.37 22.987 241.022 24.3532 239.663 25.7094C238.906 26.4451 238.179 27.1507 237.488 27.8113V14.239H231.803C231.347 14.239 230.976 14.6093 230.976 15.0648V48.7103C230.976 49.1657 231.347 49.5361 231.803 49.5361H237.488V34.4223C238.36 35.0329 239.257 35.7185 240.154 36.4742L240.17 36.4842C241.588 37.6503 242.992 38.9414 244.345 40.3227V40.3327L244.366 40.3427C245.739 41.6839 247.062 43.1303 248.285 44.6316L248.295 44.6466L248.326 44.6767C249.549 46.153 250.646 47.6443 251.589 49.1157L251.855 49.5361H258.01C258.311 49.5361 258.577 49.3809 258.727 49.1257C258.878 48.8655 258.878 48.5602 258.727 48.3L258.657 48.1798C257.77 46.6334 256.637 44.9919 255.294 43.2904C253.995 41.6089 252.581 39.9273 251.083 38.3059C249.589 36.6844 248.04 35.138 246.481 33.7117C245.233 32.5707 244.025 31.5597 242.872 30.704C243.839 29.7581 244.867 28.7422 245.929 27.6812C247.283 26.33 248.652 24.9437 250 23.5675C251.373 22.1612 252.712 20.7799 253.965 19.4637L253.98 19.4437C255.228 18.0975 256.371 16.8614 257.369 15.7654L257.494 15.6303C257.715 15.3901 257.775 15.0398 257.64 14.7394C257.509 14.4392 257.209 14.244 256.883 14.244L256.898 14.239Z"
            fill="white" />
        <path
            d="M205.264 13.9807H200.192C199.735 13.9807 199.365 14.3511 199.365 14.8065V48.7273C199.365 49.1827 199.735 49.553 200.192 49.553H205.365V37.0817H211.451C212.152 37.9325 212.854 38.8283 213.526 39.7541V39.7641L213.541 39.7741C214.714 41.3106 215.817 42.937 216.814 44.6135C217.722 46.0999 218.519 47.5813 219.196 49.0275L219.306 49.2628L219.441 49.553H225.286C225.567 49.553 225.828 49.4129 225.983 49.1727C226.133 48.9375 226.159 48.6422 226.038 48.387C225.357 46.8956 224.665 45.5444 223.928 44.2682C222.89 42.4166 221.732 40.5499 220.489 38.7282C219.913 37.8824 219.316 37.0467 218.714 36.2359C220.574 35.5403 222.073 34.4043 223.181 32.8579C224.65 30.786 225.392 28.3237 225.392 25.5312C225.392 23.6195 225.051 21.8529 224.379 20.2765C223.697 18.655 222.655 17.2937 221.281 16.2328C219.927 15.1718 218.243 14.4812 216.263 14.1759C215.817 14.0958 215.336 14.0408 214.844 14.0258C214.393 13.9957 213.977 13.9757 213.631 13.9757H205.26L205.264 13.9807ZM213.496 19.761C213.767 19.761 214.083 19.776 214.428 19.806H214.458C214.789 19.821 215.09 19.8661 215.366 19.9411H215.381L215.406 19.9511C216.323 20.1513 217.035 20.5117 217.581 21.0571L217.597 21.0772L217.612 21.0922C218.173 21.6477 218.579 22.2782 218.85 23.0139V23.0439L218.89 23.124C219.16 23.9047 219.301 24.7205 219.301 25.5412C219.301 26.362 219.16 27.2027 218.88 28.0085C218.614 28.7591 218.188 29.4297 217.602 30.0003C217.055 30.5358 216.313 30.9161 215.401 31.1263C215.1 31.1964 214.774 31.2414 214.428 31.2714C214.077 31.3014 213.762 31.3165 213.491 31.3165H205.36V19.761H213.496Z"
            fill="white" />
        <path
            d="M194.176 14.239H168.219C167.763 14.239 167.392 14.6093 167.392 15.0648V20.1143H177.939V48.7103C177.939 49.1657 178.31 49.5361 178.766 49.5361H183.624C184.08 49.5361 184.451 49.1657 184.451 48.7103V20.1143H194.998V15.0698C194.998 14.6143 194.627 14.244 194.171 14.244L194.176 14.239Z"
            fill="white" />
        <path
            d="M150.187 12.8156C147.851 12.8156 145.716 13.2159 143.831 14.0067C141.871 14.8324 140.287 16.0485 139.129 17.6199C137.966 19.2064 137.374 21.1331 137.374 23.3601C137.374 24.7514 137.61 25.9925 138.071 27.0435C138.532 28.0744 139.164 28.9752 139.946 29.7209C140.713 30.4366 141.59 31.0421 142.558 31.5226C143.5 31.9779 144.477 32.3533 145.475 32.6536L154.248 35.256C154.829 35.4211 155.386 35.6263 155.912 35.8765C156.403 36.1067 156.844 36.397 157.225 36.7323H157.23L157.251 36.7523C157.611 37.0476 157.882 37.4029 158.078 37.8383L158.087 37.8633C158.293 38.2737 158.399 38.7992 158.399 39.4147C158.399 40.4507 158.103 41.3165 157.501 42.0621C156.874 42.8378 155.992 43.4534 154.889 43.8838C153.761 44.3192 152.463 44.5394 151.04 44.5394C148.849 44.5394 146.924 43.9839 145.32 42.8879C143.741 41.7869 142.728 40.2905 142.222 38.3288C142.116 37.9284 141.756 37.6481 141.339 37.6481C141.294 37.6481 141.244 37.6481 141.199 37.6581L136.803 38.3488C136.562 38.3888 136.341 38.5239 136.201 38.7191C136.061 38.9193 136.005 39.1695 136.046 39.4097C136.452 41.6518 137.344 43.6285 138.697 45.2851C140.066 46.9265 141.806 48.1977 143.871 49.0785C145.936 49.9493 148.272 50.3897 150.824 50.3897C152.689 50.3897 154.463 50.1445 156.098 49.6591C157.752 49.1886 159.226 48.483 160.489 47.5671C161.782 46.6062 162.795 45.4102 163.512 43.9989C164.243 42.5926 164.615 40.9661 164.615 39.1745C164.615 37.3829 164.269 35.8415 163.592 34.6304C162.925 33.4193 162.063 32.4384 161.03 31.7077C160.048 30.9971 159.01 30.4366 157.952 30.0462C156.965 29.6759 156.067 29.3756 155.3 29.1654L148.758 27.2837C147.947 27.0535 147.104 26.7633 146.252 26.4129C145.505 26.0876 144.858 25.6422 144.342 25.1017C143.901 24.6263 143.681 23.9907 143.681 23.175C143.681 22.3592 143.941 21.5885 144.477 20.9379C145.049 20.2273 145.836 19.6718 146.819 19.2714C147.796 18.8711 148.914 18.6709 150.132 18.6709H150.263C151.596 18.6859 152.829 18.9461 153.932 19.4466C155.025 19.927 155.937 20.6277 156.654 21.5235C157.386 22.4093 157.857 23.4752 158.068 24.7114C158.108 24.9516 158.243 25.1618 158.439 25.3019C158.594 25.412 158.774 25.467 158.965 25.467C159.015 25.467 159.07 25.467 159.12 25.4521L163.637 24.6663C163.878 24.6263 164.093 24.4862 164.229 24.286C164.364 24.0858 164.419 23.8356 164.369 23.5953C163.928 21.3783 163.045 19.4366 161.747 17.8351C160.469 16.2337 158.825 14.9875 156.865 14.1367C154.959 13.276 152.759 12.8306 150.333 12.8156H150.187Z"
            fill="white" />
    </g>
    <path
        d="M22.2465 78.1894C22.1527 77.2441 21.7504 76.5097 21.0394 75.9863C20.3285 75.4628 19.3636 75.2011 18.1449 75.2011C17.3168 75.2011 16.6176 75.3183 16.0472 75.5527C15.4769 75.7792 15.0394 76.0956 14.7347 76.5019C14.4379 76.9081 14.2894 77.3691 14.2894 77.8847C14.2738 78.3144 14.3636 78.6894 14.559 79.0097C14.7621 79.33 15.0394 79.6074 15.391 79.8417C15.7426 80.0683 16.1488 80.2675 16.6097 80.4394C17.0707 80.6035 17.5629 80.7441 18.0863 80.8613L20.2426 81.3769C21.2894 81.6113 22.2504 81.9238 23.1254 82.3144C24.0004 82.705 24.7582 83.1855 25.3988 83.7558C26.0394 84.3261 26.5355 84.998 26.8871 85.7714C27.2465 86.5449 27.4301 87.4316 27.4379 88.4316C27.4301 89.9003 27.0551 91.1738 26.3129 92.2519C25.5785 93.3222 24.516 94.1542 23.1254 94.748C21.7426 95.3339 20.0746 95.6269 18.1215 95.6269C16.184 95.6269 14.4965 95.33 13.059 94.7363C11.6293 94.1425 10.5121 93.2636 9.7074 92.0995C8.91052 90.9277 8.49255 89.4785 8.45349 87.7519H13.3636C13.4183 88.5566 13.6488 89.2285 14.0551 89.7675C14.4691 90.2988 15.0199 90.7011 15.7074 90.9745C16.4027 91.2402 17.1879 91.373 18.0629 91.373C18.9222 91.373 19.6683 91.248 20.3011 90.998C20.9418 90.748 21.4379 90.4003 21.7894 89.955C22.141 89.5097 22.3168 88.998 22.3168 88.4199C22.3168 87.8808 22.1566 87.4277 21.8363 87.0605C21.5238 86.6933 21.0629 86.3808 20.4535 86.123C19.8519 85.8652 19.1136 85.6308 18.2386 85.4199L15.6254 84.7636C13.6019 84.2714 12.0043 83.5019 10.8324 82.455C9.66052 81.4081 9.07849 79.998 9.0863 78.2245C9.07849 76.7714 9.46521 75.5019 10.2465 74.416C11.0355 73.33 12.1176 72.4824 13.4926 71.873C14.8676 71.2636 16.4301 70.9589 18.1801 70.9589C19.9613 70.9589 21.516 71.2636 22.8441 71.873C24.1801 72.4824 25.2191 73.33 25.9613 74.416C26.7035 75.5019 27.0863 76.7597 27.1097 78.1894H22.2465ZM40.3314 77.287V81.037H29.4916V77.287H40.3314ZM31.9525 72.9745H36.9447V89.7558C36.9447 90.2167 37.015 90.5761 37.1556 90.8339C37.2963 91.0839 37.4916 91.2597 37.7416 91.3613C37.9994 91.4628 38.2963 91.5136 38.6322 91.5136C38.8666 91.5136 39.101 91.4941 39.3353 91.455C39.5697 91.4081 39.7494 91.373 39.8744 91.3495L40.6595 95.0644C40.4095 95.1425 40.058 95.2324 39.6049 95.3339C39.1517 95.4433 38.601 95.5097 37.9525 95.5331C36.7494 95.58 35.6947 95.4199 34.7885 95.0527C33.89 94.6855 33.1908 94.1152 32.6908 93.3417C32.1908 92.5683 31.9447 91.5917 31.9525 90.412V72.9745ZM48.7162 95.6269C47.5677 95.6269 46.5443 95.4277 45.6459 95.0292C44.7474 94.623 44.0365 94.0253 43.5131 93.2363C42.9974 92.4394 42.7396 91.4472 42.7396 90.2597C42.7396 89.2597 42.9232 88.4199 43.2904 87.7402C43.6576 87.0605 44.1576 86.5136 44.7904 86.0995C45.4232 85.6855 46.142 85.373 46.9467 85.162C47.7592 84.9511 48.6107 84.8027 49.5013 84.7167C50.5482 84.6074 51.392 84.5058 52.0326 84.412C52.6732 84.3105 53.1381 84.162 53.4271 83.9667C53.7162 83.7714 53.8607 83.4824 53.8607 83.0995V83.0292C53.8607 82.287 53.6263 81.7128 53.1576 81.3066C52.6967 80.9003 52.0404 80.6972 51.1888 80.6972C50.2904 80.6972 49.5756 80.8964 49.0443 81.2949C48.5131 81.6855 48.1615 82.1777 47.9896 82.7714L43.3724 82.3964C43.6068 81.3027 44.0677 80.3574 44.7552 79.5605C45.4427 78.7558 46.3295 78.1386 47.4154 77.7089C48.5092 77.2714 49.7748 77.0527 51.2123 77.0527C52.2123 77.0527 53.1693 77.1699 54.0834 77.4042C55.0052 77.6386 55.8217 78.0019 56.5326 78.4941C57.2513 78.9863 57.8177 79.6191 58.2318 80.3925C58.6459 81.1581 58.8529 82.0761 58.8529 83.1464V95.287H54.1185V92.791H53.9779C53.6888 93.3535 53.3021 93.8495 52.8177 94.2792C52.3334 94.7011 51.7513 95.0331 51.0717 95.2753C50.392 95.5097 49.6068 95.6269 48.7162 95.6269ZM50.1459 92.1816C50.8802 92.1816 51.5287 92.037 52.0912 91.748C52.6537 91.4511 53.0951 91.0527 53.4154 90.5527C53.7357 90.0527 53.8959 89.4863 53.8959 88.8535V86.9433C53.7396 87.0449 53.5248 87.1386 53.2513 87.2245C52.9857 87.3027 52.6849 87.3769 52.349 87.4472C52.0131 87.5097 51.6771 87.5683 51.3412 87.623C51.0052 87.6699 50.7006 87.7128 50.4271 87.7519C49.8412 87.8378 49.3295 87.9745 48.892 88.162C48.4545 88.3495 48.1146 88.6035 47.8724 88.9238C47.6302 89.2363 47.5092 89.6269 47.5092 90.0956C47.5092 90.7753 47.7552 91.2949 48.2474 91.6542C48.7474 92.0058 49.3802 92.1816 50.1459 92.1816ZM62.726 95.287V77.287H67.5658V80.4277H67.7533C68.0814 79.3105 68.6322 78.4667 69.4056 77.8964C70.1791 77.3183 71.0697 77.0292 72.0775 77.0292C72.3275 77.0292 72.597 77.0449 72.8861 77.0761C73.1752 77.1074 73.4291 77.1503 73.6478 77.205V81.6347C73.4135 81.5644 73.0892 81.5019 72.6752 81.4472C72.2611 81.3925 71.8822 81.3652 71.5385 81.3652C70.8041 81.3652 70.1478 81.5253 69.5697 81.8456C68.9994 82.1581 68.5463 82.5956 68.2103 83.1581C67.8822 83.7206 67.7181 84.3691 67.7181 85.1035V95.287H62.726ZM80.7523 90.1074L80.764 84.1191H81.4906L87.2562 77.287H92.9867L85.2406 86.3339H84.057L80.7523 90.1074ZM76.2289 95.287V71.287H81.2211V95.287H76.2289ZM87.4789 95.287L82.182 87.4472L85.5101 83.9199L93.3265 95.287H87.4789ZM100.428 84.8808V95.287H95.4359V77.287H100.194V80.4628H100.405C100.803 79.416 101.471 78.5878 102.409 77.9785C103.346 77.3613 104.483 77.0527 105.819 77.0527C107.069 77.0527 108.159 77.3261 109.088 77.873C110.018 78.4199 110.741 79.2011 111.256 80.2167C111.772 81.2245 112.03 82.4277 112.03 83.8261V95.287H107.037V84.7167C107.045 83.6152 106.764 82.7558 106.194 82.1386C105.623 81.5136 104.838 81.2011 103.838 81.2011C103.166 81.2011 102.573 81.3456 102.057 81.6347C101.549 81.9238 101.151 82.3456 100.862 82.9003C100.58 83.4472 100.436 84.1074 100.428 84.8808ZM124.167 95.6386C122.316 95.6386 120.722 95.2636 119.386 94.5136C118.058 93.7558 117.035 92.6855 116.316 91.3027C115.597 89.912 115.238 88.2675 115.238 86.3691C115.238 84.5175 115.597 82.8925 116.316 81.4941C117.035 80.0956 118.046 79.0058 119.351 78.2245C120.663 77.4433 122.203 77.0527 123.968 77.0527C125.156 77.0527 126.261 77.2441 127.285 77.6269C128.316 78.0019 129.214 78.5683 129.98 79.3261C130.753 80.0839 131.355 81.037 131.785 82.1855C132.214 83.3261 132.429 84.662 132.429 86.1933V87.5644H117.23V84.4706H127.73C127.73 83.7519 127.574 83.1152 127.261 82.5605C126.949 82.0058 126.515 81.5722 125.96 81.2597C125.413 80.9394 124.777 80.7792 124.05 80.7792C123.292 80.7792 122.62 80.955 122.035 81.3066C121.456 81.6503 121.003 82.1152 120.675 82.7011C120.347 83.2792 120.179 83.9238 120.171 84.6347V87.5761C120.171 88.4667 120.335 89.2363 120.663 89.8847C120.999 90.5331 121.472 91.0331 122.081 91.3847C122.691 91.7363 123.413 91.912 124.249 91.912C124.804 91.912 125.312 91.8339 125.773 91.6777C126.234 91.5214 126.628 91.287 126.956 90.9745C127.285 90.662 127.535 90.2792 127.706 89.8261L132.324 90.1308C132.089 91.2402 131.609 92.2089 130.882 93.037C130.163 93.8574 129.234 94.498 128.093 94.9589C126.96 95.412 125.652 95.6386 124.167 95.6386ZM145.261 77.287V81.037H134.421V77.287H145.261ZM136.882 72.9745H141.874V89.7558C141.874 90.2167 141.945 90.5761 142.085 90.8339C142.226 91.0839 142.421 91.2597 142.671 91.3613C142.929 91.4628 143.226 91.5136 143.562 91.5136C143.796 91.5136 144.031 91.4941 144.265 91.455C144.499 91.4081 144.679 91.373 144.804 91.3495L145.589 95.0644C145.339 95.1425 144.988 95.2324 144.535 95.3339C144.081 95.4433 143.531 95.5097 142.882 95.5331C141.679 95.58 140.624 95.4199 139.718 95.0527C138.82 94.6855 138.12 94.1152 137.62 93.3417C137.12 92.5683 136.874 91.5917 136.882 90.412V72.9745ZM156.245 95.287V71.287H165.713C167.534 71.287 169.084 71.6347 170.366 72.33C171.647 73.0175 172.623 73.9745 173.295 75.2011C173.975 76.4199 174.315 77.8261 174.315 79.4199C174.315 81.0136 173.971 82.4199 173.284 83.6386C172.596 84.8574 171.6 85.8066 170.295 86.4863C168.998 87.166 167.428 87.5058 165.584 87.5058H159.549V83.4394H164.764C165.741 83.4394 166.545 83.2714 167.178 82.9355C167.819 82.5917 168.295 82.1191 168.608 81.5175C168.928 80.9081 169.088 80.2089 169.088 79.4199C169.088 78.623 168.928 77.9277 168.608 77.3339C168.295 76.7324 167.819 76.2675 167.178 75.9394C166.537 75.6035 165.725 75.4355 164.741 75.4355H161.319V95.287H156.245ZM177.517 95.287V77.287H182.357V80.4277H182.544C182.872 79.3105 183.423 78.4667 184.197 77.8964C184.97 77.3183 185.861 77.0292 186.869 77.0292C187.119 77.0292 187.388 77.0449 187.677 77.0761C187.966 77.1074 188.22 77.1503 188.439 77.205V81.6347C188.204 81.5644 187.88 81.5019 187.466 81.4472C187.052 81.3925 186.673 81.3652 186.329 81.3652C185.595 81.3652 184.939 81.5253 184.361 81.8456C183.79 82.1581 183.337 82.5956 183.001 83.1581C182.673 83.7206 182.509 84.3691 182.509 85.1035V95.287H177.517ZM198.315 95.6386C196.495 95.6386 194.92 95.2519 193.592 94.4785C192.272 93.6972 191.252 92.6113 190.534 91.2206C189.815 89.8222 189.455 88.2011 189.455 86.3574C189.455 84.498 189.815 82.873 190.534 81.4824C191.252 80.0839 192.272 78.998 193.592 78.2245C194.92 77.4433 196.495 77.0527 198.315 77.0527C200.135 77.0527 201.705 77.4433 203.026 78.2245C204.354 78.998 205.377 80.0839 206.096 81.4824C206.815 82.873 207.174 84.498 207.174 86.3574C207.174 88.2011 206.815 89.8222 206.096 91.2206C205.377 92.6113 204.354 93.6972 203.026 94.4785C201.705 95.2519 200.135 95.6386 198.315 95.6386ZM198.338 91.7714C199.166 91.7714 199.858 91.537 200.412 91.0683C200.967 90.5917 201.385 89.9433 201.666 89.123C201.955 88.3027 202.1 87.3691 202.1 86.3222C202.1 85.2753 201.955 84.3417 201.666 83.5214C201.385 82.7011 200.967 82.0527 200.412 81.5761C199.858 81.0995 199.166 80.8613 198.338 80.8613C197.502 80.8613 196.799 81.0995 196.229 81.5761C195.666 82.0527 195.241 82.7011 194.952 83.5214C194.67 84.3417 194.53 85.2753 194.53 86.3222C194.53 87.3691 194.67 88.3027 194.952 89.123C195.241 89.9433 195.666 90.5917 196.229 91.0683C196.799 91.537 197.502 91.7714 198.338 91.7714ZM226.621 77.287L220.328 95.287H214.703L208.411 77.287H213.684L217.422 90.166H217.61L221.336 77.287H226.621ZM229.176 95.287V77.287H234.168V95.287H229.176ZM231.684 74.9667C230.942 74.9667 230.305 74.7206 229.774 74.2285C229.25 73.7285 228.989 73.1308 228.989 72.4355C228.989 71.748 229.25 71.1581 229.774 70.666C230.305 70.166 230.942 69.916 231.684 69.916C232.426 69.916 233.059 70.166 233.582 70.666C234.114 71.1581 234.379 71.748 234.379 72.4355C234.379 73.1308 234.114 73.7285 233.582 74.2285C233.059 74.7206 232.426 74.9667 231.684 74.9667ZM253.144 82.4199L248.574 82.7011C248.495 82.3105 248.328 81.9589 248.07 81.6464C247.812 81.3261 247.472 81.0722 247.05 80.8847C246.636 80.6894 246.14 80.5917 245.562 80.5917C244.788 80.5917 244.136 80.7558 243.605 81.0839C243.074 81.4042 242.808 81.8339 242.808 82.373C242.808 82.8027 242.98 83.166 243.324 83.4628C243.667 83.7597 244.257 83.998 245.093 84.1777L248.351 84.8339C250.101 85.1933 251.406 85.7714 252.265 86.5683C253.124 87.3652 253.554 88.412 253.554 89.7089C253.554 90.8886 253.206 91.9238 252.511 92.8144C251.824 93.705 250.878 94.4003 249.675 94.9003C248.48 95.3925 247.101 95.6386 245.538 95.6386C243.156 95.6386 241.257 95.1425 239.843 94.1503C238.437 93.1503 237.613 91.791 237.37 90.0722L242.281 89.8144C242.429 90.541 242.788 91.0956 243.359 91.4785C243.929 91.8535 244.66 92.041 245.55 92.041C246.425 92.041 247.128 91.873 247.66 91.537C248.199 91.1933 248.472 90.7519 248.48 90.2128C248.472 89.7597 248.281 89.3886 247.906 89.0995C247.531 88.8027 246.953 88.5761 246.171 88.4199L243.054 87.7988C241.296 87.4472 239.988 86.8378 239.128 85.9706C238.277 85.1035 237.851 83.998 237.851 82.6542C237.851 81.498 238.163 80.5019 238.788 79.666C239.421 78.83 240.308 78.1855 241.449 77.7324C242.597 77.2792 243.941 77.0527 245.48 77.0527C247.753 77.0527 249.542 77.5331 250.847 78.4941C252.16 79.455 252.925 80.7636 253.144 82.4199ZM256.698 95.287V77.287H261.69V95.287H256.698ZM259.205 74.9667C258.463 74.9667 257.827 74.7206 257.295 74.2285C256.772 73.7285 256.51 73.1308 256.51 72.4355C256.51 71.748 256.772 71.1581 257.295 70.666C257.827 70.166 258.463 69.916 259.205 69.916C259.948 69.916 260.58 70.166 261.104 70.666C261.635 71.1581 261.901 71.748 261.901 72.4355C261.901 73.1308 261.635 73.7285 261.104 74.2285C260.58 74.7206 259.948 74.9667 259.205 74.9667ZM273.822 95.6386C272.001 95.6386 270.427 95.2519 269.099 94.4785C267.779 93.6972 266.759 92.6113 266.04 91.2206C265.322 89.8222 264.962 88.2011 264.962 86.3574C264.962 84.498 265.322 82.873 266.04 81.4824C266.759 80.0839 267.779 78.998 269.099 78.2245C270.427 77.4433 272.001 77.0527 273.822 77.0527C275.642 77.0527 277.212 77.4433 278.533 78.2245C279.861 78.998 280.884 80.0839 281.603 81.4824C282.322 82.873 282.681 84.498 282.681 86.3574C282.681 88.2011 282.322 89.8222 281.603 91.2206C280.884 92.6113 279.861 93.6972 278.533 94.4785C277.212 95.2519 275.642 95.6386 273.822 95.6386ZM273.845 91.7714C274.673 91.7714 275.365 91.537 275.919 91.0683C276.474 90.5917 276.892 89.9433 277.173 89.123C277.462 88.3027 277.607 87.3691 277.607 86.3222C277.607 85.2753 277.462 84.3417 277.173 83.5214C276.892 82.7011 276.474 82.0527 275.919 81.5761C275.365 81.0995 274.673 80.8613 273.845 80.8613C273.009 80.8613 272.306 81.0995 271.736 81.5761C271.173 82.0527 270.747 82.7011 270.458 83.5214C270.177 84.3417 270.036 85.2753 270.036 86.3222C270.036 87.3691 270.177 88.3027 270.458 89.123C270.747 89.9433 271.173 90.5917 271.736 91.0683C272.306 91.537 273.009 91.7714 273.845 91.7714ZM290.919 84.8808V95.287H285.927V77.287H290.685V80.4628H290.896C291.294 79.416 291.962 78.5878 292.9 77.9785C293.837 77.3613 294.974 77.0527 296.31 77.0527C297.56 77.0527 298.65 77.3261 299.579 77.873C300.509 78.4199 301.232 79.2011 301.747 80.2167C302.263 81.2245 302.521 82.4277 302.521 83.8261V95.287H297.529V84.7167C297.536 83.6152 297.255 82.7558 296.685 82.1386C296.115 81.5136 295.329 81.2011 294.329 81.2011C293.658 81.2011 293.064 81.3456 292.548 81.6347C292.04 81.9238 291.642 82.3456 291.353 82.9003C291.072 83.4472 290.927 84.1074 290.919 84.8808ZM321.432 82.4199L316.862 82.7011C316.784 82.3105 316.616 81.9589 316.358 81.6464C316.1 81.3261 315.76 81.0722 315.338 80.8847C314.924 80.6894 314.428 80.5917 313.85 80.5917C313.077 80.5917 312.424 80.7558 311.893 81.0839C311.362 81.4042 311.096 81.8339 311.096 82.373C311.096 82.8027 311.268 83.166 311.612 83.4628C311.955 83.7597 312.545 83.998 313.381 84.1777L316.639 84.8339C318.389 85.1933 319.694 85.7714 320.553 86.5683C321.412 87.3652 321.842 88.412 321.842 89.7089C321.842 90.8886 321.495 91.9238 320.799 92.8144C320.112 93.705 319.166 94.4003 317.963 94.9003C316.768 95.3925 315.389 95.6386 313.827 95.6386C311.444 95.6386 309.545 95.1425 308.131 94.1503C306.725 93.1503 305.901 91.791 305.659 90.0722L310.569 89.8144C310.717 90.541 311.077 91.0956 311.647 91.4785C312.217 91.8535 312.948 92.041 313.838 92.041C314.713 92.041 315.416 91.873 315.948 91.537C316.487 91.1933 316.76 90.7519 316.768 90.2128C316.76 89.7597 316.569 89.3886 316.194 89.0995C315.819 88.8027 315.241 88.5761 314.459 88.4199L311.342 87.7988C309.584 87.4472 308.276 86.8378 307.416 85.9706C306.565 85.1035 306.139 83.998 306.139 82.6542C306.139 81.498 306.452 80.5019 307.077 79.666C307.709 78.83 308.596 78.1855 309.737 77.7324C310.885 77.2792 312.229 77.0527 313.768 77.0527C316.041 77.0527 317.83 77.5331 319.135 78.4941C320.448 79.455 321.213 80.7636 321.432 82.4199Z"
        fill="#EFEFEF" />
    <defs>
        <linearGradient id="paint0_linear_1_584" x1="118.568" y1="23.2214" x2="48.174" y2="59.9073"
            gradientUnits="userSpaceOnUse">
            <stop stop-color="#EC796B" />
            <stop offset="1" stop-color="#D672EF" />
        </linearGradient>
        <linearGradient id="paint1_linear_1_584" x1="114.761" y1="41.1108" x2="103.519" y2="42.1664"
            gradientUnits="userSpaceOnUse">
            <stop stop-color="#EC796B" />
            <stop offset="1" stop-color="#D672EF" />
        </linearGradient>
    </defs>
</svg>