<svg width="331" height="128" viewBox="0 0 331 128" fill="none" xmlns="http://www.w3.org/2000/svg">
    <path
        d="M71.656 31.6032C71.656 46.0952 83.4235 57.8431 97.9398 57.8431C112.456 57.8431 124.225 46.0952 124.225 31.6032C124.225 17.1112 112.456 5.36328 97.9398 5.36328C83.4235 5.36328 71.656 17.1111 71.656 31.6032Z"
        fill="#0C0C4F" stroke="#EC796B" stroke-width="2" />
    <path fill-rule="evenodd" clip-rule="evenodd"
        d="M85.9956 25.235L86.6641 23.1732C86.8 22.7538 87.1315 22.4275 87.5531 22.2989L89.6284 21.6617C89.9157 21.5741 89.918 21.1695 89.6331 21.0773L87.5671 20.4099C87.1478 20.2743 86.8209 19.9433 86.6913 19.5224L86.0538 17.4506C85.9661 17.1645 85.5608 17.1614 85.4684 17.4467L84.8 19.5085C84.6641 19.927 84.3326 20.2533 83.9109 20.3828L81.8356 21.0191C81.5484 21.1075 81.5452 21.5114 81.831 21.6036L83.897 22.2709C84.3162 22.4066 84.6431 22.7383 84.7728 23.1592L85.4102 25.2303C85.4979 25.5171 85.9032 25.5202 85.9956 25.235Z"
        fill="#FAFAFA" />
    <path fill-rule="evenodd" clip-rule="evenodd"
        d="M118.798 24.0328C117.943 23.0777 116.607 22.54 115.309 22.3194C114.001 22.1076 112.629 22.1273 111.337 22.3563C108.723 22.7977 106.349 23.8782 104.278 25.2111C103.202 25.8653 102.285 26.6222 101.335 27.393C100.877 27.7829 100.46 28.1981 100.025 28.6073L98.837 29.7872C97.5463 31.134 96.2742 32.3608 95.0433 33.3776C93.8074 34.3898 92.652 35.1585 91.5133 35.6953C90.3753 36.2349 89.1577 36.5523 87.5707 36.6031C85.9976 36.6584 84.1364 36.375 82.1455 35.9071C80.1439 35.4414 78.0421 34.7774 75.6934 34.2061C76.5129 36.4759 77.747 38.4817 79.3315 40.3153C80.9345 42.117 82.9362 43.7593 85.5077 44.8392C88.0421 45.9432 91.2269 46.3394 94.2049 45.7416C97.1907 45.1678 99.8109 43.7885 101.929 42.1933C104.052 40.5817 105.77 38.746 107.218 36.8375C107.618 36.3102 107.83 36.0151 108.119 35.603L108.919 34.4205C109.474 33.689 109.98 32.8562 110.53 32.1315C111.609 30.6137 112.672 29.0976 113.907 27.7009C114.529 26.9925 115.185 26.3149 115.959 25.6637C116.345 25.3458 116.762 25.0347 117.224 24.7545C117.693 24.4523 118.188 24.2157 118.798 24.0328Z"
        fill="url(#paint0_linear_7774_1170)" />
    <path fill-rule="evenodd" clip-rule="evenodd"
        d="M118.798 24.0365C117.879 21.7211 116.17 19.772 113.877 18.3338C111.597 16.9114 108.431 16.1854 105.294 16.8042C103.744 17.1035 102.242 17.6797 100.924 18.4469C99.6127 19.2111 98.4372 20.131 97.4196 21.118C96.9116 21.6131 96.4504 22.1296 95.9923 22.649L94.805 24.1602L92.9711 26.593C90.6332 29.723 88.1156 33.3913 83.984 34.4782C79.928 35.5452 78.1689 34.6002 75.6934 34.2098C76.146 35.3765 76.7067 36.5095 77.4668 37.5062C78.2127 38.5231 79.0938 39.4782 80.1892 40.2969C80.7428 40.6901 81.3273 41.0782 81.9764 41.4073C82.6225 41.7253 83.3194 42.0052 84.0631 42.2159C85.5426 42.6207 87.2083 42.7625 88.821 42.5448C90.4345 42.3299 91.9767 41.8194 93.3247 41.1415C94.6827 40.4699 95.8657 39.652 96.922 38.7889C99.0217 37.048 100.655 35.1245 102.035 33.1803C102.729 32.2082 103.358 31.2177 103.941 30.227L104.627 29.0475C104.836 28.7028 105.048 28.3558 105.264 28.0327C106.132 26.7347 106.982 25.694 108.014 24.9128C109.032 24.1114 110.449 23.5193 112.343 23.3817C114.23 23.2425 116.407 23.4997 118.798 24.0365Z"
        fill="#FAFAFA" />
    <path fill-rule="evenodd" clip-rule="evenodd"
        d="M108.594 43.2713C108.594 44.972 109.976 46.3513 111.68 46.3513C113.383 46.3513 114.763 44.972 114.763 43.2713C114.763 41.5707 113.383 40.1914 111.68 40.1914C109.976 40.1914 108.594 41.5707 108.594 43.2713Z"
        fill="url(#paint1_linear_7774_1170)" />
    <mask id="mask0_7774_1170" style="mask-type:luminance" maskUnits="userSpaceOnUse" x="136" y="12" width="123"
        height="39">
        <path d="M258.843 12.8164H136.036V50.3905H258.843V12.8164Z" fill="white" />
    </mask>
    <g mask="url(#mask0_7774_1170)">
        <path
            d="M256.898 14.2383H250.632L250.361 14.5535C249.563 15.4744 248.566 16.5704 247.388 17.8065C246.235 19.0176 244.987 20.3188 243.668 21.66C242.37 22.9862 241.022 24.3525 239.663 25.7087C238.906 26.4444 238.179 27.15 237.487 27.8106V14.2383H231.803C231.347 14.2383 230.976 14.6086 230.976 15.064V48.7096C230.976 49.165 231.347 49.5353 231.803 49.5353H237.487V34.4216C238.36 35.0322 239.257 35.7178 240.154 36.4735L240.169 36.4835C241.588 37.6495 242.992 38.9407 244.345 40.322V40.332L244.365 40.342C245.739 41.6832 247.062 43.1295 248.285 44.6309L248.295 44.6459L248.326 44.6759C249.549 46.1523 250.646 47.6436 251.589 49.115L251.855 49.5353H258.01C258.311 49.5353 258.577 49.3802 258.727 49.125C258.878 48.8647 258.878 48.5595 258.727 48.2992L258.657 48.1791C257.77 46.6327 256.637 44.9912 255.293 43.2897C253.995 41.6082 252.581 39.9266 251.083 38.3052C249.589 36.6836 248.04 35.1372 246.481 33.7109C245.232 32.5699 244.024 31.559 242.871 30.7032C243.839 29.7574 244.867 28.7414 245.929 27.6805C247.283 26.3293 248.651 24.943 250 23.5667C251.373 22.1605 252.712 20.7792 253.965 19.463L253.98 19.443C255.228 18.0968 256.371 16.8606 257.369 15.7647L257.494 15.6295C257.715 15.3893 257.775 15.039 257.639 14.7387C257.509 14.4384 257.208 14.2433 256.882 14.2433L256.898 14.2383Z"
            fill="white" />
        <path
            d="M205.264 13.9816H200.192C199.735 13.9816 199.365 14.3519 199.365 14.8073V48.7281C199.365 49.1835 199.735 49.5539 200.192 49.5539H205.365V37.0825H211.451C212.152 37.9333 212.854 38.8291 213.526 39.7549V39.765L213.541 39.775C214.714 41.3114 215.817 42.9378 216.814 44.6144C217.722 46.1007 218.519 47.5821 219.196 49.0284L219.306 49.2636L219.441 49.5539H225.286C225.567 49.5539 225.827 49.4137 225.983 49.1735C226.133 48.9383 226.158 48.6431 226.038 48.3878C225.357 46.8965 224.664 45.5452 223.928 44.2691C222.89 42.4174 221.732 40.5507 220.489 38.729C219.912 37.8832 219.316 37.0475 218.714 36.2368C220.574 35.5411 222.073 34.4051 223.181 32.8587C224.65 30.7868 225.391 28.3246 225.391 25.532C225.391 23.6203 225.05 21.8537 224.379 20.2773C223.697 18.6558 222.654 17.2945 221.281 16.2336C219.927 15.1726 218.243 14.482 216.263 14.1767C215.817 14.0967 215.335 14.0416 214.844 14.0266C214.393 13.9965 213.977 13.9766 213.631 13.9766H205.26L205.264 13.9816ZM213.496 19.7618C213.767 19.7618 214.082 19.7768 214.428 19.8068H214.458C214.789 19.8219 215.09 19.8669 215.366 19.942H215.38L215.406 19.9519C216.323 20.1521 217.035 20.5125 217.581 21.058L217.596 21.078L217.612 21.093C218.173 21.6485 218.579 22.2791 218.849 23.0147V23.0448L218.89 23.1249C219.16 23.9056 219.301 24.7213 219.301 25.5421C219.301 26.3628 219.16 27.2036 218.88 28.0093C218.614 28.76 218.188 29.4306 217.601 30.0011C217.055 30.5366 216.313 30.917 215.401 31.1271C215.1 31.1972 214.774 31.2422 214.428 31.2723C214.077 31.3023 213.762 31.3173 213.491 31.3173H205.36V19.7618H213.496Z"
            fill="white" />
        <path
            d="M194.176 14.2383H168.219C167.763 14.2383 167.392 14.6086 167.392 15.064V20.1136H177.939V48.7096C177.939 49.165 178.31 49.5353 178.766 49.5353H183.624C184.08 49.5353 184.451 49.165 184.451 48.7096V20.1136H194.998V15.069C194.998 14.6136 194.627 14.2433 194.171 14.2433L194.176 14.2383Z"
            fill="white" />
        <path
            d="M150.187 12.8164C147.851 12.8164 145.716 13.2168 143.831 14.0075C141.871 14.8333 140.287 16.0493 139.129 17.6208C137.966 19.2072 137.374 21.134 137.374 23.361C137.374 24.7522 137.61 25.9934 138.071 27.0444C138.532 28.0753 139.164 28.9761 139.946 29.7218C140.713 30.4374 141.59 31.043 142.557 31.5234C143.5 31.9788 144.477 32.3542 145.475 32.6544L154.247 35.2568C154.829 35.422 155.386 35.6272 155.912 35.8773C156.403 36.1076 156.844 36.3978 157.225 36.7331H157.23L157.251 36.7531C157.611 37.0484 157.882 37.4038 158.078 37.8391L158.087 37.8642C158.293 38.2745 158.399 38.8 158.399 39.4156C158.399 40.4515 158.102 41.3173 157.501 42.063C156.874 42.8387 155.992 43.4543 154.889 43.8846C153.761 44.32 152.463 44.5402 151.04 44.5402C148.849 44.5402 146.924 43.9847 145.32 42.8887C143.741 41.7877 142.728 40.2914 142.222 38.3296C142.116 37.9292 141.756 37.649 141.339 37.649C141.294 37.649 141.244 37.649 141.199 37.659L136.803 38.3496C136.562 38.3896 136.341 38.5248 136.201 38.72C136.061 38.9201 136.005 39.1704 136.046 39.4106C136.452 41.6526 137.344 43.6294 138.697 45.2859C140.066 46.9274 141.806 48.1985 143.871 49.0793C145.936 49.9501 148.272 50.3905 150.824 50.3905C152.689 50.3905 154.463 50.1453 156.098 49.6599C157.752 49.1895 159.226 48.4838 160.489 47.568C161.782 46.6071 162.795 45.4111 163.512 43.9997C164.243 42.5935 164.615 40.967 164.615 39.1753C164.615 37.3837 164.269 35.8423 163.592 34.6312C162.925 33.4201 162.063 32.4392 161.03 31.7086C160.048 30.9979 159.01 30.4374 157.952 30.0471C156.965 29.6767 156.067 29.3765 155.3 29.1663L148.758 27.2846C147.946 27.0543 147.104 26.7641 146.252 26.4138C145.505 26.0885 144.858 25.6431 144.342 25.1026C143.901 24.6271 143.681 23.9915 143.681 23.1758C143.681 22.3601 143.941 21.5894 144.477 20.9388C145.049 20.2281 145.836 19.6726 146.819 19.2723C147.796 18.8719 148.914 18.6717 150.132 18.6717H150.263C151.596 18.6868 152.829 18.947 153.932 19.4475C155.025 19.9279 155.937 20.6285 156.654 21.5243C157.386 22.4101 157.857 23.4761 158.068 24.7122C158.108 24.9524 158.243 25.1626 158.438 25.3027C158.594 25.4129 158.774 25.4679 158.965 25.4679C159.015 25.4679 159.07 25.4679 159.12 25.4529L163.637 24.6672C163.877 24.6271 164.093 24.487 164.229 24.2868C164.364 24.0867 164.419 23.8364 164.369 23.5962C163.928 21.3792 163.045 19.4374 161.747 17.836C160.469 16.2345 158.824 14.9884 156.865 14.1376C154.959 13.2768 152.759 12.8314 150.333 12.8164H150.187Z"
            fill="white" />
    </g>
    <path
        d="M14.9884 79.0835C14.923 78.4246 14.6426 77.9128 14.1471 77.5479C13.6516 77.1831 12.9791 77.0007 12.1297 77.0007C11.5525 77.0007 11.0652 77.0824 10.6677 77.2457C10.2702 77.4036 9.9653 77.6242 9.75294 77.9073C9.54603 78.1905 9.44257 78.5117 9.44257 78.8711C9.43168 79.1706 9.4943 79.4319 9.63043 79.6552C9.772 79.8784 9.9653 80.0717 10.2103 80.2351C10.4554 80.393 10.7385 80.5318 11.0598 80.6516C11.381 80.766 11.7241 80.864 12.0889 80.9457L13.5917 81.305C14.3214 81.4684 14.9911 81.6862 15.601 81.9585C16.2108 82.2307 16.739 82.5656 17.1855 82.9631C17.632 83.3606 17.9777 83.8288 18.2228 84.3679C18.4732 84.907 18.6012 85.525 18.6066 86.2219C18.6012 87.2456 18.3398 88.1332 17.8225 88.8846C17.3107 89.6306 16.5702 90.2105 15.601 90.6243C14.6372 91.0327 13.4747 91.2369 12.1134 91.2369C10.763 91.2369 9.58687 91.0299 8.58497 90.6161C7.58852 90.2023 6.80988 89.5897 6.24903 88.7784C5.69364 87.9616 5.40233 86.9516 5.3751 85.7482H8.79733C8.83545 86.3091 8.99608 86.7773 9.27922 87.1531C9.56781 87.5233 9.95169 87.8037 10.4309 87.9943C10.9155 88.1795 11.4627 88.272 12.0725 88.272C12.6715 88.272 13.1915 88.1849 13.6326 88.0107C14.0791 87.8364 14.4248 87.5941 14.6698 87.2837C14.9149 86.9734 15.0374 86.6167 15.0374 86.2138C15.0374 85.8381 14.9258 85.5223 14.7025 85.2663C14.4847 85.0104 14.1635 84.7926 13.7387 84.6129C13.3195 84.4332 12.8049 84.2699 12.1951 84.1229L10.3737 83.6655C8.9634 83.3224 7.84989 82.7861 7.03313 82.0565C6.21636 81.3268 5.81071 80.344 5.81615 79.108C5.81071 78.0952 6.08024 77.2103 6.62474 76.4535C7.1747 75.6966 7.92884 75.1058 8.88717 74.6811C9.84551 74.2564 10.9345 74.044 12.1542 74.044C13.3957 74.044 14.4793 74.2564 15.4049 74.6811C16.336 75.1058 17.0602 75.6966 17.5775 76.4535C18.0948 77.2103 18.3616 78.087 18.3779 79.0835H14.9884ZM27.5931 78.4545V81.0682H20.038V78.4545H27.5931ZM21.7532 75.4489H25.2326V87.1449C25.2326 87.4661 25.2816 87.7166 25.3796 87.8963C25.4776 88.0705 25.6138 88.1931 25.788 88.2638C25.9677 88.3346 26.1746 88.37 26.4087 88.37C26.5721 88.37 26.7355 88.3564 26.8988 88.3292C27.0622 88.2965 27.1874 88.272 27.2745 88.2557L27.8217 90.8448C27.6475 90.8993 27.4025 90.9619 27.0867 91.0327C26.7708 91.1089 26.387 91.1552 25.935 91.1715C25.0965 91.2042 24.3614 91.0926 23.7298 90.8366C23.1036 90.5807 22.6163 90.1832 22.2678 89.6442C21.9193 89.1051 21.7478 88.4245 21.7532 87.6023V75.4489ZM33.437 91.2369C32.6366 91.2369 31.9232 91.098 31.2971 90.8203C30.6709 90.5372 30.1754 90.1206 29.8106 89.5707C29.4512 89.0153 29.2715 88.3237 29.2715 87.4961C29.2715 86.7991 29.3995 86.2138 29.6554 85.7401C29.9113 85.2663 30.2598 84.8852 30.7008 84.5966C31.1419 84.308 31.6428 84.0902 32.2037 83.9432C32.77 83.7962 33.3635 83.6927 33.9842 83.6328C34.7138 83.5566 35.3019 83.4858 35.7484 83.4205C36.1949 83.3497 36.5189 83.2462 36.7204 83.1101C36.9218 82.974 37.0226 82.7725 37.0226 82.5057V82.4567C37.0226 81.9394 36.8592 81.5392 36.5325 81.256C36.2112 80.9729 35.7539 80.8313 35.1603 80.8313C34.5342 80.8313 34.0359 80.9702 33.6657 81.2479C33.2954 81.5201 33.0504 81.8632 32.9306 82.277L29.7125 82.0156C29.8759 81.2533 30.1972 80.5945 30.6763 80.0391C31.1555 79.4782 31.7735 79.0481 32.5304 78.7486C33.2927 78.4437 34.1748 78.2912 35.1767 78.2912C35.8736 78.2912 36.5407 78.3729 37.1777 78.5362C37.8203 78.6996 38.3893 78.9528 38.8848 79.2958C39.3857 79.6388 39.7805 80.0799 40.0691 80.619C40.3577 81.1526 40.502 81.7924 40.502 82.5384V91H37.2022V89.2603H37.1042C36.9028 89.6523 36.6332 89.9981 36.2956 90.2976C35.958 90.5916 35.5524 90.823 35.0787 90.9918C34.6049 91.1552 34.0577 91.2369 33.437 91.2369ZM34.4334 88.8356C34.9453 88.8356 35.3972 88.7348 35.7893 88.5334C36.1813 88.3265 36.4889 88.0488 36.7122 87.7003C36.9354 87.3518 37.0471 86.957 37.0471 86.516V85.1847C36.9382 85.2554 36.7884 85.3208 36.5978 85.3807C36.4127 85.4351 36.2031 85.4869 35.9689 85.5359C35.7348 85.5794 35.5007 85.6203 35.2665 85.6584C35.0324 85.6911 34.82 85.721 34.6295 85.7482C34.2211 85.8081 33.8644 85.9034 33.5595 86.0341C33.2546 86.1648 33.0177 86.3417 32.8489 86.565C32.6801 86.7828 32.5957 87.055 32.5957 87.3817C32.5957 87.8555 32.7672 88.2176 33.1103 88.468C33.4588 88.7131 33.8998 88.8356 34.4334 88.8356ZM43.2014 91V78.4545H46.5746V80.6435H46.7053C46.934 79.8648 47.3178 79.2768 47.8569 78.8793C48.396 78.4763 49.0167 78.2749 49.7191 78.2749C49.8934 78.2749 50.0812 78.2857 50.2827 78.3075C50.4841 78.3293 50.6611 78.3593 50.8136 78.3974V81.4847C50.6502 81.4357 50.4243 81.3922 50.1357 81.354C49.8471 81.3159 49.583 81.2969 49.3434 81.2969C48.8316 81.2969 48.3742 81.4085 47.9712 81.6317C47.5738 81.8495 47.2579 82.1545 47.0238 82.5465C46.7951 82.9386 46.6808 83.3905 46.6808 83.9023V91H43.2014ZM55.7652 87.3899L55.7734 83.2163H56.2798L60.2982 78.4545H64.2922L58.8934 84.7599H58.0685L55.7652 87.3899ZM52.6125 91V74.2727H56.0919V91H52.6125ZM60.4534 91L56.7616 85.5359L59.0812 83.0774L64.529 91H60.4534ZM69.4786 83.7472V91H65.9992V78.4545H69.3153V80.668H69.4623C69.74 79.9383 70.2055 79.3611 70.8589 78.9364C71.5124 78.5063 72.3046 78.2912 73.2357 78.2912C74.1069 78.2912 74.8665 78.4818 75.5145 78.8629C76.1624 79.2441 76.6661 79.7886 77.0255 80.4964C77.3849 81.1989 77.5646 82.0374 77.5646 83.0121V91H74.0852V83.6328C74.0906 82.8651 73.8946 82.2661 73.4971 81.8359C73.0996 81.4003 72.5524 81.1825 71.8554 81.1825C71.3871 81.1825 70.9733 81.2833 70.6139 81.4847C70.26 81.6862 69.9823 81.9802 69.7808 82.3668C69.5848 82.748 69.4841 83.2081 69.4786 83.7472ZM86.0242 91.245C84.7337 91.245 83.6229 90.9837 82.6918 90.4609C81.7661 89.9328 81.0528 89.1868 80.5519 88.223C80.0509 87.2538 79.8004 86.1076 79.8004 84.7844C79.8004 83.494 80.0509 82.3614 80.5519 81.3867C81.0528 80.4121 81.7579 79.6525 82.6673 79.108C83.582 78.5634 84.6547 78.2912 85.8853 78.2912C86.713 78.2912 87.4834 78.4246 88.1967 78.6914C88.9155 78.9528 89.5417 79.3475 90.0753 79.8757C90.6144 80.4039 91.0336 81.0682 91.3331 81.8686C91.6326 82.6636 91.7823 83.5947 91.7823 84.6619V85.6175H81.1889V83.4613H88.5071C88.5071 82.9603 88.3982 82.5166 88.1804 82.13C87.9626 81.7434 87.6604 81.4412 87.2738 81.2234C86.8926 81.0001 86.4489 80.8885 85.9425 80.8885C85.4143 80.8885 84.946 81.011 84.5377 81.256C84.1347 81.4956 83.8189 81.8196 83.5902 82.228C83.3615 82.6309 83.2444 83.0801 83.239 83.5756V85.6257C83.239 86.2464 83.3533 86.7828 83.582 87.2347C83.8162 87.6867 84.1456 88.0352 84.5703 88.2802C84.995 88.5252 85.4987 88.6477 86.0813 88.6477C86.4679 88.6477 86.8219 88.5933 87.1431 88.4844C87.4644 88.3755 87.7394 88.2121 87.9681 87.9943C88.1967 87.7765 88.371 87.5097 88.4908 87.1939L91.7088 87.4062C91.5455 88.1795 91.2106 88.8546 90.7042 89.4318C90.2033 90.0036 89.5553 90.45 88.7603 90.7713C87.9708 91.0871 87.0587 91.245 86.0242 91.245ZM100.726 78.4545V81.0682H93.1708V78.4545H100.726ZM94.886 75.4489H98.3654V87.1449C98.3654 87.4661 98.4144 87.7166 98.5124 87.8963C98.6105 88.0705 98.7466 88.1931 98.9208 88.2638C99.1005 88.3346 99.3074 88.37 99.5416 88.37C99.7049 88.37 99.8683 88.3564 100.032 88.3292C100.195 88.2965 100.32 88.272 100.407 88.2557L100.955 90.8448C100.78 90.8993 100.535 90.9619 100.219 91.0327C99.9037 91.1089 99.5198 91.1552 99.0678 91.1715C98.2293 91.2042 97.4942 91.0926 96.8626 90.8366C96.2364 90.5807 95.7491 90.1832 95.4006 89.6442C95.0521 89.1051 94.8806 88.4245 94.886 87.6023V75.4489ZM108.381 91V74.2727H114.98C116.249 74.2727 117.33 74.515 118.223 74.9996C119.116 75.4788 119.797 76.1458 120.265 77.0007C120.739 77.8501 120.975 78.8303 120.975 79.9411C120.975 81.0518 120.736 82.032 120.257 82.8814C119.778 83.7308 119.083 84.3924 118.174 84.8661C117.27 85.3398 116.176 85.5767 114.891 85.5767H110.684V82.7425H114.319C114.999 82.7425 115.56 82.6255 116.001 82.3913C116.448 82.1518 116.78 81.8223 116.998 81.4031C117.221 80.9783 117.333 80.491 117.333 79.9411C117.333 79.3857 117.221 78.901 116.998 78.4872C116.78 78.0679 116.448 77.744 116.001 77.5153C115.555 77.2811 114.989 77.1641 114.302 77.1641H111.918V91H108.381ZM123.207 91V78.4545H126.58V80.6435H126.711C126.94 79.8648 127.324 79.2768 127.863 78.8793C128.402 78.4763 129.023 78.2749 129.725 78.2749C129.899 78.2749 130.087 78.2857 130.289 78.3075C130.49 78.3293 130.667 78.3593 130.819 78.3974V81.4847C130.656 81.4357 130.43 81.3922 130.142 81.354C129.853 81.3159 129.589 81.2969 129.349 81.2969C128.837 81.2969 128.38 81.4085 127.977 81.6317C127.58 81.8495 127.264 82.1545 127.03 82.5465C126.801 82.9386 126.687 83.3905 126.687 83.9023V91H123.207ZM137.703 91.245C136.434 91.245 135.337 90.9755 134.411 90.4364C133.491 89.8919 132.78 89.1351 132.279 88.1658C131.778 87.1912 131.528 86.0613 131.528 84.7763C131.528 83.4804 131.778 82.3478 132.279 81.3786C132.78 80.4039 133.491 79.647 134.411 79.108C135.337 78.5634 136.434 78.2912 137.703 78.2912C138.971 78.2912 140.066 78.5634 140.986 79.108C141.912 79.647 142.625 80.4039 143.126 81.3786C143.627 82.3478 143.877 83.4804 143.877 84.7763C143.877 86.0613 143.627 87.1912 143.126 88.1658C142.625 89.1351 141.912 89.8919 140.986 90.4364C140.066 90.9755 138.971 91.245 137.703 91.245ZM137.719 88.5497C138.296 88.5497 138.778 88.3864 139.165 88.0597C139.551 87.7275 139.843 87.2756 140.039 86.7038C140.24 86.1321 140.341 85.4814 140.341 84.7518C140.341 84.0221 140.24 83.3714 140.039 82.7997C139.843 82.228 139.551 81.776 139.165 81.4439C138.778 81.1117 138.296 80.9457 137.719 80.9457C137.136 80.9457 136.646 81.1117 136.249 81.4439C135.857 81.776 135.56 82.228 135.359 82.7997C135.163 83.3714 135.065 84.0221 135.065 84.7518C135.065 85.4814 135.163 86.1321 135.359 86.7038C135.56 87.2756 135.857 87.7275 136.249 88.0597C136.646 88.3864 137.136 88.5497 137.719 88.5497ZM157.432 78.4545L153.046 91H149.125L144.739 78.4545H148.415L151.02 87.4308H151.151L153.748 78.4545H157.432ZM159.212 91V78.4545H162.692V91H159.212ZM160.96 76.8374C160.443 76.8374 159.999 76.6658 159.629 76.3228C159.264 75.9743 159.081 75.5578 159.081 75.0732C159.081 74.594 159.264 74.1829 159.629 73.8398C159.999 73.4914 160.443 73.3171 160.96 73.3171C161.477 73.3171 161.918 73.4914 162.283 73.8398C162.653 74.1829 162.839 74.594 162.839 75.0732C162.839 75.5578 162.653 75.9743 162.283 76.3228C161.918 76.6658 161.477 76.8374 160.96 76.8374ZM175.917 82.032L172.732 82.228C172.677 81.9557 172.56 81.7107 172.38 81.4929C172.201 81.2696 171.964 81.0927 171.67 80.962C171.381 80.8259 171.035 80.7578 170.632 80.7578C170.093 80.7578 169.639 80.8722 169.268 81.1009C168.898 81.3241 168.713 81.6236 168.713 81.9993C168.713 82.2988 168.833 82.552 169.072 82.7589C169.312 82.9658 169.723 83.1319 170.306 83.2571L172.576 83.7145C173.796 83.965 174.705 84.3679 175.304 84.9233C175.903 85.4787 176.203 86.2083 176.203 87.1122C176.203 87.9344 175.96 88.6559 175.476 89.2766C174.997 89.8974 174.338 90.382 173.499 90.7305C172.666 91.0735 171.705 91.245 170.616 91.245C168.955 91.245 167.632 90.8993 166.647 90.2077C165.667 89.5108 165.092 88.5633 164.923 87.3654L168.346 87.1857C168.449 87.6921 168.699 88.0787 169.097 88.3455C169.494 88.6069 170.004 88.7376 170.624 88.7376C171.234 88.7376 171.724 88.6205 172.094 88.3864C172.47 88.1468 172.661 87.8391 172.666 87.4634C172.661 87.1476 172.527 86.889 172.266 86.6875C172.005 86.4806 171.602 86.3227 171.057 86.2138L168.885 85.7809C167.659 85.5359 166.747 85.1112 166.148 84.5067C165.555 83.9023 165.258 83.1319 165.258 82.1953C165.258 81.3894 165.476 80.6952 165.912 80.1126C166.353 79.5299 166.971 79.0807 167.766 78.7649C168.566 78.4491 169.503 78.2912 170.575 78.2912C172.16 78.2912 173.407 78.6261 174.316 79.2958C175.231 79.9656 175.764 80.8776 175.917 82.032ZM178.394 91V78.4545H181.873V91H178.394ZM180.142 76.8374C179.624 76.8374 179.181 76.6658 178.81 76.3228C178.445 75.9743 178.263 75.5578 178.263 75.0732C178.263 74.594 178.445 74.1829 178.81 73.8398C179.181 73.4914 179.624 73.3171 180.142 73.3171C180.659 73.3171 181.1 73.4914 181.465 73.8398C181.835 74.1829 182.02 74.594 182.02 75.0732C182.02 75.5578 181.835 75.9743 181.465 76.3228C181.1 76.6658 180.659 76.8374 180.142 76.8374ZM190.329 91.245C189.06 91.245 187.963 90.9755 187.037 90.4364C186.117 89.8919 185.406 89.1351 184.905 88.1658C184.404 87.1912 184.154 86.0613 184.154 84.7763C184.154 83.4804 184.404 82.3478 184.905 81.3786C185.406 80.4039 186.117 79.647 187.037 79.108C187.963 78.5634 189.06 78.2912 190.329 78.2912C191.597 78.2912 192.692 78.5634 193.612 79.108C194.538 79.647 195.251 80.4039 195.752 81.3786C196.253 82.3478 196.503 83.4804 196.503 84.7763C196.503 86.0613 196.253 87.1912 195.752 88.1658C195.251 89.1351 194.538 89.8919 193.612 90.4364C192.692 90.9755 191.597 91.245 190.329 91.245ZM190.345 88.5497C190.922 88.5497 191.404 88.3864 191.791 88.0597C192.177 87.7275 192.469 87.2756 192.665 86.7038C192.866 86.1321 192.967 85.4814 192.967 84.7518C192.967 84.0221 192.866 83.3714 192.665 82.7997C192.469 82.228 192.177 81.776 191.791 81.4439C191.404 81.1117 190.922 80.9457 190.345 80.9457C189.762 80.9457 189.272 81.1117 188.875 81.4439C188.483 81.776 188.186 82.228 187.985 82.7997C187.789 83.3714 187.691 84.0221 187.691 84.7518C187.691 85.4814 187.789 86.1321 187.985 86.7038C188.186 87.2756 188.483 87.7275 188.875 88.0597C189.272 88.3864 189.762 88.5497 190.345 88.5497ZM202.245 83.7472V91H198.766V78.4545H202.082V80.668H202.229C202.507 79.9383 202.972 79.3611 203.626 78.9364C204.279 78.5063 205.071 78.2912 206.002 78.2912C206.874 78.2912 207.633 78.4818 208.281 78.8629C208.929 79.2441 209.433 79.7886 209.792 80.4964C210.151 81.1989 210.331 82.0374 210.331 83.0121V91H206.852V83.6328C206.857 82.8651 206.661 82.2661 206.264 81.8359C205.866 81.4003 205.319 81.1825 204.622 81.1825C204.154 81.1825 203.74 81.2833 203.381 81.4847C203.027 81.6862 202.749 81.9802 202.547 82.3668C202.351 82.748 202.251 83.2081 202.245 83.7472ZM223.512 82.032L220.326 82.228C220.272 81.9557 220.155 81.7107 219.975 81.4929C219.795 81.2696 219.559 81.0927 219.264 80.962C218.976 80.8259 218.63 80.7578 218.227 80.7578C217.688 80.7578 217.233 80.8722 216.863 81.1009C216.493 81.3241 216.308 81.6236 216.308 81.9993C216.308 82.2988 216.428 82.552 216.667 82.7589C216.907 82.9658 217.318 83.1319 217.9 83.2571L220.171 83.7145C221.391 83.965 222.3 84.3679 222.899 84.9233C223.498 85.4787 223.798 86.2083 223.798 87.1122C223.798 87.9344 223.555 88.6559 223.071 89.2766C222.591 89.8974 221.933 90.382 221.094 90.7305C220.261 91.0735 219.3 91.245 218.211 91.245C216.55 91.245 215.227 90.8993 214.241 90.2077C213.261 89.5108 212.687 88.5633 212.518 87.3654L215.94 87.1857C216.044 87.6921 216.294 88.0787 216.692 88.3455C217.089 88.6069 217.598 88.7376 218.219 88.7376C218.829 88.7376 219.319 88.6205 219.689 88.3864C220.065 88.1468 220.255 87.8391 220.261 87.4634C220.255 87.1476 220.122 86.889 219.861 86.6875C219.599 86.4806 219.196 86.3227 218.652 86.2138L216.479 85.7809C215.254 85.5359 214.342 85.1112 213.743 84.5067C213.15 83.9023 212.853 83.1319 212.853 82.1953C212.853 81.3894 213.071 80.6952 213.506 80.1126C213.947 79.5299 214.565 79.0807 215.36 78.7649C216.161 78.4491 217.097 78.2912 218.17 78.2912C219.755 78.2912 221.001 78.6261 221.911 79.2958C222.826 79.9656 223.359 80.8776 223.512 82.032ZM231.377 91V74.2727H237.976C239.245 74.2727 240.326 74.515 241.219 74.9996C242.112 75.4788 242.793 76.1458 243.261 77.0007C243.735 77.8501 243.972 78.8303 243.972 79.9411C243.972 81.0518 243.732 82.032 243.253 82.8814C242.774 83.7308 242.079 84.3924 241.17 84.8661C240.266 85.3398 239.172 85.5767 237.887 85.5767H233.68V82.7425H237.315C237.996 82.7425 238.556 82.6255 238.997 82.3913C239.444 82.1518 239.776 81.8223 239.994 81.4031C240.217 80.9783 240.329 80.491 240.329 79.9411C240.329 79.3857 240.217 78.901 239.994 78.4872C239.776 78.0679 239.444 77.744 238.997 77.5153C238.551 77.2811 237.985 77.1641 237.299 77.1641H234.914V91H231.377ZM246.203 91V78.4545H249.577V80.6435H249.707C249.936 79.8648 250.32 79.2768 250.859 78.8793C251.398 78.4763 252.019 78.2749 252.721 78.2749C252.895 78.2749 253.083 78.2857 253.285 78.3075C253.486 78.3293 253.663 78.3593 253.816 78.3974V81.4847C253.652 81.4357 253.426 81.3922 253.138 81.354C252.849 81.3159 252.585 81.2969 252.345 81.2969C251.834 81.2969 251.376 81.4085 250.973 81.6317C250.576 81.8495 250.26 82.1545 250.026 82.5465C249.797 82.9386 249.683 83.3905 249.683 83.9023V91H246.203ZM260.699 91.245C259.43 91.245 258.333 90.9755 257.407 90.4364C256.487 89.8919 255.776 89.1351 255.275 88.1658C254.775 87.1912 254.524 86.0613 254.524 84.7763C254.524 83.4804 254.775 82.3478 255.275 81.3786C255.776 80.4039 256.487 79.647 257.407 79.108C258.333 78.5634 259.43 78.2912 260.699 78.2912C261.967 78.2912 263.062 78.5634 263.982 79.108C264.908 79.647 265.621 80.4039 266.122 81.3786C266.623 82.3478 266.874 83.4804 266.874 84.7763C266.874 86.0613 266.623 87.1912 266.122 88.1658C265.621 89.1351 264.908 89.8919 263.982 90.4364C263.062 90.9755 261.967 91.245 260.699 91.245ZM260.715 88.5497C261.292 88.5497 261.774 88.3864 262.161 88.0597C262.547 87.7275 262.839 87.2756 263.035 86.7038C263.236 86.1321 263.337 85.4814 263.337 84.7518C263.337 84.0221 263.236 83.3714 263.035 82.7997C262.839 82.228 262.547 81.776 262.161 81.4439C261.774 81.1117 261.292 80.9457 260.715 80.9457C260.132 80.9457 259.642 81.1117 259.245 81.4439C258.853 81.776 258.556 82.228 258.355 82.7997C258.159 83.3714 258.061 84.0221 258.061 84.7518C258.061 85.4814 258.159 86.1321 258.355 86.7038C258.556 87.2756 258.853 87.7275 259.245 88.0597C259.642 88.3864 260.132 88.5497 260.715 88.5497ZM274.788 95.9659C273.661 95.9659 272.694 95.8107 271.888 95.5004C271.088 95.1954 270.451 94.7789 269.977 94.2507C269.503 93.7225 269.196 93.129 269.054 92.4702L272.272 92.0373C272.37 92.2878 272.525 92.5219 272.738 92.7397C272.95 92.9575 273.231 93.1317 273.579 93.2624C273.933 93.3986 274.363 93.4666 274.87 93.4666C275.626 93.4666 276.25 93.2815 276.74 92.9112C277.235 92.5464 277.483 91.9338 277.483 91.0735V88.7784H277.336C277.184 89.1269 276.955 89.4563 276.65 89.7667C276.345 90.0771 275.953 90.3303 275.474 90.5263C274.995 90.7223 274.423 90.8203 273.759 90.8203C272.817 90.8203 271.959 90.6025 271.186 90.1669C270.418 89.7259 269.806 89.0534 269.348 88.1495C268.896 87.2402 268.67 86.0913 268.67 84.7028C268.67 83.2816 268.902 82.0946 269.365 81.1417C269.827 80.1888 270.443 79.4755 271.211 79.0018C271.984 78.5281 272.83 78.2912 273.751 78.2912C274.453 78.2912 275.041 78.411 275.515 78.6506C275.989 78.8847 276.37 79.1787 276.658 79.5327C276.952 79.8812 277.178 80.2242 277.336 80.5618H277.467V78.4545H280.922V91.1225C280.922 92.1897 280.66 93.0827 280.138 93.8015C279.615 94.5202 278.891 95.0593 277.965 95.4187C277.045 95.7835 275.986 95.9659 274.788 95.9659ZM274.861 88.2067C275.422 88.2067 275.896 88.0678 276.283 87.7901C276.675 87.507 276.974 87.104 277.181 86.5813C277.393 86.0531 277.5 85.4215 277.5 84.6864C277.5 83.9513 277.396 83.3143 277.189 82.7752C276.982 82.2307 276.683 81.8087 276.291 81.5092C275.899 81.2098 275.422 81.06 274.861 81.06C274.29 81.06 273.808 81.2152 273.416 81.5256C273.024 81.8305 272.727 82.2552 272.525 82.7997C272.324 83.3442 272.223 83.9731 272.223 84.6864C272.223 85.4106 272.324 86.0368 272.525 86.565C272.732 87.0877 273.029 87.4934 273.416 87.782C273.808 88.0651 274.29 88.2067 274.861 88.2067ZM283.691 91V78.4545H287.064V80.6435H287.195C287.423 79.8648 287.807 79.2768 288.346 78.8793C288.885 78.4763 289.506 78.2749 290.208 78.2749C290.383 78.2749 290.57 78.2857 290.772 78.3075C290.973 78.3293 291.15 78.3593 291.303 78.3974V81.4847C291.139 81.4357 290.914 81.3922 290.625 81.354C290.336 81.3159 290.072 81.2969 289.833 81.2969C289.321 81.2969 288.863 81.4085 288.461 81.6317C288.063 81.8495 287.747 82.1545 287.513 82.5465C287.284 82.9386 287.17 83.3905 287.17 83.9023V91H283.691ZM296.32 91.2369C295.519 91.2369 294.806 91.098 294.18 90.8203C293.554 90.5372 293.058 90.1206 292.693 89.5707C292.334 89.0153 292.154 88.3237 292.154 87.4961C292.154 86.7991 292.282 86.2138 292.538 85.7401C292.794 85.2663 293.143 84.8852 293.584 84.5966C294.025 84.308 294.526 84.0902 295.086 83.9432C295.653 83.7962 296.246 83.6927 296.867 83.6328C297.597 83.5566 298.185 83.4858 298.631 83.4205C299.078 83.3497 299.402 83.2462 299.603 83.1101C299.805 82.974 299.905 82.7725 299.905 82.5057V82.4567C299.905 81.9394 299.742 81.5392 299.415 81.256C299.094 80.9729 298.637 80.8313 298.043 80.8313C297.417 80.8313 296.919 80.9702 296.548 81.2479C296.178 81.5201 295.933 81.8632 295.813 82.277L292.595 82.0156C292.759 81.2533 293.08 80.5945 293.559 80.0391C294.038 79.4782 294.656 79.0481 295.413 78.7486C296.175 78.4437 297.058 78.2912 298.059 78.2912C298.756 78.2912 299.423 78.3729 300.061 78.5362C300.703 78.6996 301.272 78.9528 301.768 79.2958C302.269 79.6388 302.663 80.0799 302.952 80.619C303.24 81.1526 303.385 81.7924 303.385 82.5384V91H300.085V89.2603H299.987C299.786 89.6523 299.516 89.9981 299.178 90.2976C298.841 90.5916 298.435 90.823 297.961 90.9918C297.488 91.1552 296.941 91.2369 296.32 91.2369ZM297.316 88.8356C297.828 88.8356 298.28 88.7348 298.672 88.5334C299.064 88.3265 299.372 88.0488 299.595 87.7003C299.818 87.3518 299.93 86.957 299.93 86.516V85.1847C299.821 85.2554 299.671 85.3208 299.481 85.3807C299.296 85.4351 299.086 85.4869 298.852 85.5359C298.618 85.5794 298.383 85.6203 298.149 85.6584C297.915 85.6911 297.703 85.721 297.512 85.7482C297.104 85.8081 296.747 85.9034 296.442 86.0341C296.137 86.1648 295.901 86.3417 295.732 86.565C295.563 86.7828 295.479 87.055 295.479 87.3817C295.479 87.8555 295.65 88.2176 295.993 88.468C296.342 88.7131 296.783 88.8356 297.316 88.8356ZM306.084 91V78.4545H309.4V80.668H309.547C309.809 79.9329 310.244 79.353 310.854 78.9283C311.464 78.5036 312.194 78.2912 313.043 78.2912C313.903 78.2912 314.636 78.5063 315.24 78.9364C315.844 79.3611 316.247 79.9383 316.449 80.668H316.58C316.835 79.9492 317.298 79.3748 317.968 78.9446C318.643 78.509 319.441 78.2912 320.361 78.2912C321.532 78.2912 322.482 78.6642 323.212 79.4102C323.947 80.1507 324.314 81.2016 324.314 82.5629V91H320.843V83.2489C320.843 82.552 320.658 82.0292 320.288 81.6808C319.917 81.3323 319.455 81.158 318.899 81.158C318.268 81.158 317.775 81.3595 317.421 81.7624C317.067 82.1599 316.89 82.6854 316.89 83.3388V91H313.517V83.1754C313.517 82.5601 313.34 82.0701 312.986 81.7053C312.637 81.3404 312.177 81.158 311.605 81.158C311.219 81.158 310.87 81.256 310.56 81.4521C310.255 81.6426 310.013 81.9122 309.833 82.2607C309.653 82.6037 309.564 83.0066 309.564 83.4695V91H306.084Z"
        fill="#EFEFEF" />
    <path
        d="M29.8073 107.107V105.078H39.3641V107.107H35.8016V116.715H33.3698V107.107H29.8073ZM43.313 111.669V116.715H40.8925V105.078H43.2448V109.527H43.3471C43.5441 109.012 43.8622 108.609 44.3016 108.317C44.741 108.022 45.2922 107.874 45.955 107.874C46.5611 107.874 47.0895 108.007 47.5403 108.272C47.9948 108.533 48.3471 108.91 48.5971 109.402C48.8509 109.891 48.9759 110.476 48.9721 111.158V116.715H46.5516V111.59C46.5554 111.052 46.4191 110.633 46.1425 110.334C45.8698 110.035 45.4872 109.885 44.9948 109.885C44.6653 109.885 44.3736 109.955 44.1198 110.096C43.8698 110.236 43.6728 110.44 43.5289 110.709C43.3888 110.974 43.3168 111.294 43.313 111.669ZM54.8542 116.885C53.9565 116.885 53.1837 116.703 52.536 116.34C51.8921 115.972 51.3959 115.453 51.0474 114.783C50.6989 114.109 50.5246 113.311 50.5246 112.391C50.5246 111.493 50.6989 110.705 51.0474 110.027C51.3959 109.349 51.8864 108.821 52.519 108.442C53.1553 108.063 53.9015 107.874 54.7576 107.874C55.3334 107.874 55.8693 107.967 56.3656 108.152C56.8656 108.334 57.3012 108.609 57.6724 108.976C58.0474 109.344 58.339 109.806 58.5474 110.363C58.7557 110.916 58.8599 111.563 58.8599 112.306V112.971H51.4906V111.471H56.5815C56.5815 111.122 56.5057 110.813 56.3542 110.544C56.2027 110.275 55.9925 110.065 55.7235 109.914C55.4584 109.758 55.1496 109.681 54.7974 109.681C54.43 109.681 54.1042 109.766 53.8201 109.936C53.5398 110.103 53.3201 110.328 53.161 110.613C53.0019 110.893 52.9205 111.205 52.9167 111.55V112.976C52.9167 113.408 52.9962 113.781 53.1553 114.096C53.3182 114.41 53.5474 114.652 53.8428 114.823C54.1383 114.993 54.4887 115.078 54.894 115.078C55.1629 115.078 55.4091 115.041 55.6326 114.965C55.8561 114.889 56.0474 114.775 56.2065 114.624C56.3656 114.472 56.4868 114.287 56.5701 114.067L58.8087 114.215C58.6951 114.753 58.4621 115.222 58.1099 115.624C57.7614 116.022 57.3106 116.332 56.7576 116.556C56.2084 116.775 55.5739 116.885 54.8542 116.885ZM66.563 111.669V116.715H64.1425V107.988H66.4494V109.527H66.5516C66.7448 109.02 67.0687 108.618 67.5232 108.323C67.9778 108.024 68.5289 107.874 69.1766 107.874C69.7827 107.874 70.3111 108.007 70.7619 108.272C71.2126 108.537 71.563 108.916 71.813 109.408C72.063 109.897 72.188 110.48 72.188 111.158V116.715H69.7675V111.59C69.7713 111.056 69.635 110.639 69.3585 110.34C69.0819 110.037 68.7013 109.885 68.2164 109.885C67.8907 109.885 67.6028 109.955 67.3528 110.096C67.1066 110.236 66.9134 110.44 66.7732 110.709C66.6369 110.974 66.5668 111.294 66.563 111.669ZM78.0729 116.885C77.1752 116.885 76.4025 116.703 75.7548 116.34C75.1108 115.972 74.6146 115.453 74.2661 114.783C73.9176 114.109 73.7434 113.311 73.7434 112.391C73.7434 111.493 73.9176 110.705 74.2661 110.027C74.6146 109.349 75.1051 108.821 75.7377 108.442C76.3741 108.063 77.1203 107.874 77.9764 107.874C78.5521 107.874 79.0881 107.967 79.5843 108.152C80.0843 108.334 80.5199 108.609 80.8911 108.976C81.2661 109.344 81.5578 109.806 81.7661 110.363C81.9745 110.916 82.0786 111.563 82.0786 112.306V112.971H74.7093V111.471H79.8002C79.8002 111.122 79.7245 110.813 79.5729 110.544C79.4214 110.275 79.2112 110.065 78.9423 109.914C78.6771 109.758 78.3684 109.681 78.0161 109.681C77.6487 109.681 77.3229 109.766 77.0389 109.936C76.7585 110.103 76.5389 110.328 76.3798 110.613C76.2207 110.893 76.1392 111.205 76.1354 111.55V112.976C76.1354 113.408 76.215 113.781 76.3741 114.096C76.537 114.41 76.7661 114.652 77.0616 114.823C77.357 114.993 77.7074 115.078 78.1127 115.078C78.3817 115.078 78.6279 115.041 78.8514 114.965C79.0748 114.889 79.2661 114.775 79.4252 114.624C79.5843 114.472 79.7055 114.287 79.7889 114.067L82.0275 114.215C81.9139 114.753 81.6809 115.222 81.3286 115.624C80.9801 116.022 80.5294 116.332 79.9764 116.556C79.4271 116.775 78.7926 116.885 78.0729 116.885ZM85.5246 107.988L87.1269 111.039L88.769 107.988H91.2519L88.7235 112.351L91.3201 116.715H88.8485L87.1269 113.698L85.4337 116.715H82.9337L85.5246 112.351L83.0246 107.988H85.5246ZM97.3315 107.988V109.806H92.0758V107.988H97.3315ZM93.269 105.897H95.6894V114.033C95.6894 114.257 95.7235 114.431 95.7917 114.556C95.8599 114.677 95.9546 114.762 96.0758 114.811C96.2008 114.861 96.3447 114.885 96.5076 114.885C96.6212 114.885 96.7349 114.876 96.8485 114.857C96.9621 114.834 97.0493 114.817 97.1099 114.806L97.4906 116.607C97.3693 116.645 97.1989 116.688 96.9792 116.738C96.7595 116.791 96.4925 116.823 96.1781 116.834C95.5947 116.857 95.0834 116.779 94.644 116.601C94.2084 116.423 93.8693 116.147 93.6269 115.772C93.3845 115.397 93.2652 114.923 93.269 114.351V105.897ZM102.611 119.988V107.988H104.998V109.453H105.106C105.212 109.219 105.365 108.98 105.566 108.738C105.77 108.491 106.036 108.287 106.361 108.124C106.691 107.957 107.1 107.874 107.589 107.874C108.225 107.874 108.812 108.041 109.35 108.374C109.888 108.703 110.318 109.202 110.64 109.868C110.962 110.531 111.123 111.363 111.123 112.363C111.123 113.336 110.965 114.158 110.651 114.828C110.34 115.495 109.916 116.001 109.378 116.346C108.844 116.686 108.246 116.857 107.583 116.857C107.113 116.857 106.714 116.779 106.384 116.624C106.058 116.469 105.791 116.274 105.583 116.039C105.375 115.8 105.215 115.56 105.106 115.317H105.032V119.988H102.611ZM104.981 112.351C104.981 112.87 105.053 113.323 105.197 113.709C105.34 114.096 105.549 114.397 105.822 114.613C106.094 114.825 106.426 114.931 106.816 114.931C107.21 114.931 107.543 114.823 107.816 114.607C108.089 114.387 108.295 114.084 108.435 113.698C108.579 113.308 108.651 112.859 108.651 112.351C108.651 111.847 108.581 111.404 108.441 111.022C108.301 110.639 108.094 110.34 107.822 110.124C107.549 109.908 107.214 109.8 106.816 109.8C106.422 109.8 106.089 109.904 105.816 110.113C105.547 110.321 105.34 110.616 105.197 110.999C105.053 111.382 104.981 111.832 104.981 112.351ZM115.157 111.669V116.715H112.736V105.078H115.089V109.527H115.191C115.388 109.012 115.706 108.609 116.145 108.317C116.585 108.022 117.136 107.874 117.799 107.874C118.405 107.874 118.933 108.007 119.384 108.272C119.839 108.533 120.191 108.91 120.441 109.402C120.695 109.891 120.82 110.476 120.816 111.158V116.715H118.395V111.59C118.399 111.052 118.263 110.633 117.986 110.334C117.714 110.035 117.331 109.885 116.839 109.885C116.509 109.885 116.217 109.955 115.964 110.096C115.714 110.236 115.517 110.44 115.373 110.709C115.233 110.974 115.161 111.294 115.157 111.669ZM125.209 116.88C124.652 116.88 124.156 116.783 123.721 116.59C123.285 116.393 122.94 116.103 122.687 115.721C122.437 115.334 122.312 114.853 122.312 114.277C122.312 113.792 122.401 113.385 122.579 113.056C122.757 112.726 122.999 112.461 123.306 112.26C123.613 112.06 123.961 111.908 124.351 111.806C124.745 111.703 125.158 111.632 125.59 111.59C126.098 111.537 126.507 111.488 126.817 111.442C127.128 111.393 127.353 111.321 127.493 111.226C127.634 111.132 127.704 110.991 127.704 110.806V110.772C127.704 110.412 127.59 110.133 127.363 109.936C127.139 109.739 126.821 109.641 126.408 109.641C125.973 109.641 125.626 109.738 125.368 109.931C125.111 110.12 124.94 110.359 124.857 110.647L122.618 110.465C122.732 109.935 122.956 109.476 123.289 109.09C123.622 108.7 124.052 108.4 124.579 108.192C125.109 107.98 125.723 107.874 126.42 107.874C126.904 107.874 127.368 107.931 127.812 108.044C128.259 108.158 128.654 108.334 128.999 108.573C129.348 108.811 129.622 109.118 129.823 109.493C130.024 109.864 130.124 110.31 130.124 110.828V116.715H127.829V115.505H127.76C127.62 115.777 127.433 116.018 127.198 116.226C126.963 116.431 126.681 116.592 126.351 116.709C126.022 116.823 125.641 116.88 125.209 116.88ZM125.902 115.209C126.259 115.209 126.573 115.139 126.846 114.999C127.118 114.855 127.332 114.662 127.488 114.419C127.643 114.177 127.721 113.902 127.721 113.596V112.669C127.645 112.719 127.541 112.764 127.408 112.806C127.279 112.844 127.134 112.88 126.971 112.914C126.808 112.944 126.645 112.972 126.482 112.999C126.319 113.022 126.171 113.042 126.039 113.061C125.755 113.103 125.507 113.169 125.295 113.26C125.082 113.351 124.918 113.474 124.8 113.63C124.683 113.781 124.624 113.971 124.624 114.198C124.624 114.527 124.743 114.779 124.982 114.953C125.224 115.124 125.531 115.209 125.902 115.209ZM139.263 110.476L137.047 110.613C137.009 110.423 136.928 110.253 136.803 110.101C136.678 109.946 136.513 109.823 136.309 109.732C136.108 109.637 135.867 109.59 135.587 109.59C135.212 109.59 134.896 109.669 134.638 109.828C134.381 109.984 134.252 110.192 134.252 110.453C134.252 110.662 134.335 110.838 134.502 110.982C134.669 111.126 134.955 111.241 135.36 111.328L136.939 111.647C137.788 111.821 138.42 112.101 138.837 112.488C139.254 112.874 139.462 113.382 139.462 114.01C139.462 114.582 139.294 115.084 138.956 115.516C138.623 115.948 138.165 116.285 137.581 116.527C137.002 116.766 136.333 116.885 135.576 116.885C134.42 116.885 133.5 116.645 132.814 116.164C132.133 115.679 131.733 115.02 131.616 114.186L133.996 114.061C134.068 114.414 134.242 114.683 134.519 114.868C134.795 115.05 135.15 115.141 135.581 115.141C136.006 115.141 136.347 115.06 136.604 114.897C136.866 114.73 136.998 114.516 137.002 114.255C136.998 114.035 136.905 113.855 136.724 113.715C136.542 113.571 136.261 113.461 135.883 113.385L134.371 113.084C133.519 112.914 132.884 112.618 132.468 112.198C132.055 111.777 131.849 111.241 131.849 110.59C131.849 110.029 132 109.546 132.303 109.141C132.61 108.736 133.04 108.423 133.593 108.203C134.15 107.984 134.801 107.874 135.547 107.874C136.65 107.874 137.517 108.107 138.15 108.573C138.786 109.039 139.157 109.673 139.263 110.476ZM144.964 116.885C144.066 116.885 143.293 116.703 142.645 116.34C142.001 115.972 141.505 115.453 141.157 114.783C140.808 114.109 140.634 113.311 140.634 112.391C140.634 111.493 140.808 110.705 141.157 110.027C141.505 109.349 141.996 108.821 142.628 108.442C143.265 108.063 144.011 107.874 144.867 107.874C145.443 107.874 145.979 107.967 146.475 108.152C146.975 108.334 147.411 108.609 147.782 108.976C148.157 109.344 148.448 109.806 148.657 110.363C148.865 110.916 148.969 111.563 148.969 112.306V112.971H141.6V111.471H146.691C146.691 111.122 146.615 110.813 146.464 110.544C146.312 110.275 146.102 110.065 145.833 109.914C145.568 109.758 145.259 109.681 144.907 109.681C144.539 109.681 144.214 109.766 143.929 109.936C143.649 110.103 143.429 110.328 143.27 110.613C143.111 110.893 143.03 111.205 143.026 111.55V112.976C143.026 113.408 143.106 113.781 143.265 114.096C143.428 114.41 143.657 114.652 143.952 114.823C144.248 114.993 144.598 115.078 145.003 115.078C145.272 115.078 145.518 115.041 145.742 114.965C145.965 114.889 146.157 114.775 146.316 114.624C146.475 114.472 146.596 114.287 146.679 114.067L148.918 114.215C148.804 114.753 148.572 115.222 148.219 115.624C147.871 116.022 147.42 116.332 146.867 116.556C146.318 116.775 145.683 116.885 144.964 116.885ZM158.195 116.885C157.313 116.885 156.549 116.698 155.905 116.323C155.265 115.944 154.771 115.417 154.422 114.743C154.074 114.065 153.9 113.279 153.9 112.385C153.9 111.484 154.074 110.696 154.422 110.022C154.771 109.344 155.265 108.817 155.905 108.442C156.549 108.063 157.313 107.874 158.195 107.874C159.078 107.874 159.839 108.063 160.479 108.442C161.123 108.817 161.619 109.344 161.968 110.022C162.316 110.696 162.491 111.484 162.491 112.385C162.491 113.279 162.316 114.065 161.968 114.743C161.619 115.417 161.123 115.944 160.479 116.323C159.839 116.698 159.078 116.885 158.195 116.885ZM158.206 115.01C158.608 115.01 158.943 114.897 159.212 114.669C159.481 114.438 159.684 114.124 159.82 113.726C159.96 113.328 160.03 112.876 160.03 112.368C160.03 111.861 159.96 111.408 159.82 111.01C159.684 110.613 159.481 110.298 159.212 110.067C158.943 109.836 158.608 109.721 158.206 109.721C157.801 109.721 157.46 109.836 157.184 110.067C156.911 110.298 156.705 110.613 156.564 111.01C156.428 111.408 156.36 111.861 156.36 112.368C156.36 112.876 156.428 113.328 156.564 113.726C156.705 114.124 156.911 114.438 157.184 114.669C157.46 114.897 157.801 115.01 158.206 115.01ZM168.758 107.988V109.806H163.371V107.988H168.758ZM164.604 116.715V107.357C164.604 106.724 164.727 106.2 164.974 105.783C165.224 105.366 165.564 105.054 165.996 104.846C166.428 104.637 166.919 104.533 167.468 104.533C167.839 104.533 168.178 104.561 168.485 104.618C168.795 104.675 169.027 104.726 169.178 104.772L168.746 106.59C168.652 106.56 168.534 106.531 168.394 106.505C168.258 106.478 168.117 106.465 167.974 106.465C167.617 106.465 167.369 106.548 167.229 106.715C167.089 106.878 167.019 107.107 167.019 107.402V116.715H164.604ZM177.155 116.857C176.492 116.857 175.892 116.686 175.354 116.346C174.82 116.001 174.396 115.495 174.081 114.828C173.771 114.158 173.616 113.336 173.616 112.363C173.616 111.363 173.777 110.531 174.099 109.868C174.42 109.202 174.849 108.703 175.383 108.374C175.92 108.041 176.509 107.874 177.15 107.874C177.638 107.874 178.045 107.957 178.371 108.124C178.701 108.287 178.966 108.491 179.167 108.738C179.371 108.98 179.527 109.219 179.633 109.453H179.706V105.078H182.121V116.715H179.735V115.317H179.633C179.519 115.56 179.358 115.8 179.15 116.039C178.945 116.274 178.678 116.469 178.349 116.624C178.023 116.779 177.625 116.857 177.155 116.857ZM177.922 114.931C178.313 114.931 178.642 114.825 178.911 114.613C179.184 114.397 179.392 114.096 179.536 113.709C179.684 113.323 179.758 112.87 179.758 112.351C179.758 111.832 179.686 111.382 179.542 110.999C179.398 110.616 179.189 110.321 178.917 110.113C178.644 109.904 178.313 109.8 177.922 109.8C177.525 109.8 177.189 109.908 176.917 110.124C176.644 110.34 176.438 110.639 176.297 111.022C176.157 111.404 176.087 111.847 176.087 112.351C176.087 112.859 176.157 113.308 176.297 113.698C176.441 114.084 176.648 114.387 176.917 114.607C177.189 114.823 177.525 114.931 177.922 114.931ZM188.089 116.885C187.191 116.885 186.418 116.703 185.77 116.34C185.126 115.972 184.63 115.453 184.282 114.783C183.933 114.109 183.759 113.311 183.759 112.391C183.759 111.493 183.933 110.705 184.282 110.027C184.63 109.349 185.121 108.821 185.753 108.442C186.39 108.063 187.136 107.874 187.992 107.874C188.568 107.874 189.104 107.967 189.6 108.152C190.1 108.334 190.536 108.609 190.907 108.976C191.282 109.344 191.573 109.806 191.782 110.363C191.99 110.916 192.094 111.563 192.094 112.306V112.971H184.725V111.471H189.816C189.816 111.122 189.74 110.813 189.589 110.544C189.437 110.275 189.227 110.065 188.958 109.914C188.693 109.758 188.384 109.681 188.032 109.681C187.664 109.681 187.339 109.766 187.054 109.936C186.774 110.103 186.554 110.328 186.395 110.613C186.236 110.893 186.155 111.205 186.151 111.55V112.976C186.151 113.408 186.231 113.781 186.39 114.096C186.553 114.41 186.782 114.652 187.077 114.823C187.373 114.993 187.723 115.078 188.128 115.078C188.397 115.078 188.643 115.041 188.867 114.965C189.09 114.889 189.282 114.775 189.441 114.624C189.6 114.472 189.721 114.287 189.804 114.067L192.043 114.215C191.929 114.753 191.697 115.222 191.344 115.624C190.996 116.022 190.545 116.332 189.992 116.556C189.443 116.775 188.808 116.885 188.089 116.885ZM197.617 116.885C196.723 116.885 195.954 116.696 195.31 116.317C194.67 115.935 194.178 115.404 193.833 114.726C193.492 114.048 193.322 113.268 193.322 112.385C193.322 111.491 193.494 110.707 193.839 110.033C194.187 109.355 194.681 108.827 195.322 108.448C195.962 108.065 196.723 107.874 197.606 107.874C198.367 107.874 199.034 108.012 199.606 108.289C200.178 108.565 200.63 108.953 200.964 109.453C201.297 109.953 201.481 110.541 201.515 111.215H199.231C199.166 110.779 198.996 110.429 198.719 110.164C198.447 109.895 198.089 109.76 197.645 109.76C197.27 109.76 196.943 109.863 196.662 110.067C196.386 110.268 196.17 110.561 196.015 110.948C195.859 111.334 195.782 111.802 195.782 112.351C195.782 112.908 195.858 113.382 196.009 113.772C196.164 114.162 196.382 114.459 196.662 114.664C196.943 114.868 197.27 114.971 197.645 114.971C197.922 114.971 198.17 114.914 198.39 114.8C198.613 114.686 198.797 114.522 198.941 114.306C199.089 114.086 199.185 113.823 199.231 113.516H201.515C201.477 114.183 201.295 114.77 200.969 115.277C200.647 115.781 200.202 116.175 199.634 116.459C199.066 116.743 198.393 116.885 197.617 116.885ZM207.042 116.885C206.144 116.885 205.371 116.703 204.724 116.34C204.08 115.972 203.583 115.453 203.235 114.783C202.886 114.109 202.712 113.311 202.712 112.391C202.712 111.493 202.886 110.705 203.235 110.027C203.583 109.349 204.074 108.821 204.706 108.442C205.343 108.063 206.089 107.874 206.945 107.874C207.521 107.874 208.057 107.967 208.553 108.152C209.053 108.334 209.489 108.609 209.86 108.976C210.235 109.344 210.527 109.806 210.735 110.363C210.943 110.916 211.047 111.563 211.047 112.306V112.971H203.678V111.471H208.769C208.769 111.122 208.693 110.813 208.542 110.544C208.39 110.275 208.18 110.065 207.911 109.914C207.646 109.758 207.337 109.681 206.985 109.681C206.617 109.681 206.292 109.766 206.008 109.936C205.727 110.103 205.508 110.328 205.349 110.613C205.189 110.893 205.108 111.205 205.104 111.55V112.976C205.104 113.408 205.184 113.781 205.343 114.096C205.506 114.41 205.735 114.652 206.03 114.823C206.326 114.993 206.676 115.078 207.081 115.078C207.35 115.078 207.597 115.041 207.82 114.965C208.044 114.889 208.235 114.775 208.394 114.624C208.553 114.472 208.674 114.287 208.758 114.067L210.996 114.215C210.883 114.753 210.65 115.222 210.297 115.624C209.949 116.022 209.498 116.332 208.945 116.556C208.396 116.775 207.761 116.885 207.042 116.885ZM215.047 111.669V116.715H212.627V107.988H214.934V109.527H215.036C215.229 109.02 215.553 108.618 216.008 108.323C216.462 108.024 217.013 107.874 217.661 107.874C218.267 107.874 218.795 108.007 219.246 108.272C219.697 108.537 220.047 108.916 220.297 109.408C220.547 109.897 220.672 110.48 220.672 111.158V116.715H218.252V111.59C218.256 111.056 218.119 110.639 217.843 110.34C217.566 110.037 217.186 109.885 216.701 109.885C216.375 109.885 216.087 109.955 215.837 110.096C215.591 110.236 215.398 110.44 215.258 110.709C215.121 110.974 215.051 111.294 215.047 111.669ZM227.222 107.988V109.806H221.966V107.988H227.222ZM223.16 105.897H225.58V114.033C225.58 114.257 225.614 114.431 225.682 114.556C225.75 114.677 225.845 114.762 225.966 114.811C226.091 114.861 226.235 114.885 226.398 114.885C226.512 114.885 226.625 114.876 226.739 114.857C226.853 114.834 226.94 114.817 227 114.806L227.381 116.607C227.26 116.645 227.09 116.688 226.87 116.738C226.65 116.791 226.383 116.823 226.069 116.834C225.485 116.857 224.974 116.779 224.535 116.601C224.099 116.423 223.76 116.147 223.518 115.772C223.275 115.397 223.156 114.923 223.16 114.351V105.897ZM228.799 116.715V107.988H231.145V109.51H231.236C231.395 108.969 231.662 108.56 232.037 108.283C232.412 108.003 232.844 107.863 233.333 107.863C233.454 107.863 233.585 107.87 233.725 107.885C233.865 107.9 233.988 107.921 234.094 107.948V110.096C233.981 110.061 233.823 110.031 233.623 110.005C233.422 109.978 233.238 109.965 233.072 109.965C232.715 109.965 232.397 110.042 232.117 110.198C231.84 110.349 231.621 110.561 231.458 110.834C231.299 111.107 231.219 111.421 231.219 111.777V116.715H228.799ZM237.584 116.88C237.027 116.88 236.531 116.783 236.096 116.59C235.66 116.393 235.315 116.103 235.062 115.721C234.812 115.334 234.687 114.853 234.687 114.277C234.687 113.792 234.776 113.385 234.954 113.056C235.132 112.726 235.374 112.461 235.681 112.26C235.988 112.06 236.336 111.908 236.726 111.806C237.12 111.703 237.533 111.632 237.965 111.59C238.473 111.537 238.882 111.488 239.192 111.442C239.503 111.393 239.728 111.321 239.868 111.226C240.009 111.132 240.079 110.991 240.079 110.806V110.772C240.079 110.412 239.965 110.133 239.738 109.936C239.514 109.739 239.196 109.641 238.783 109.641C238.348 109.641 238.001 109.738 237.743 109.931C237.486 110.12 237.315 110.359 237.232 110.647L234.993 110.465C235.107 109.935 235.331 109.476 235.664 109.09C235.997 108.7 236.427 108.4 236.954 108.192C237.484 107.98 238.098 107.874 238.795 107.874C239.279 107.874 239.743 107.931 240.187 108.044C240.634 108.158 241.029 108.334 241.374 108.573C241.723 108.811 241.997 109.118 242.198 109.493C242.399 109.864 242.499 110.31 242.499 110.828V116.715H240.204V115.505H240.135C239.995 115.777 239.808 116.018 239.573 116.226C239.338 116.431 239.056 116.592 238.726 116.709C238.397 116.823 238.016 116.88 237.584 116.88ZM238.277 115.209C238.634 115.209 238.948 115.139 239.221 114.999C239.493 114.855 239.707 114.662 239.863 114.419C240.018 114.177 240.096 113.902 240.096 113.596V112.669C240.02 112.719 239.916 112.764 239.783 112.806C239.654 112.844 239.509 112.88 239.346 112.914C239.183 112.944 239.02 112.972 238.857 112.999C238.694 113.022 238.546 113.042 238.414 113.061C238.13 113.103 237.882 113.169 237.67 113.26C237.457 113.351 237.293 113.474 237.175 113.63C237.058 113.781 236.999 113.971 236.999 114.198C236.999 114.527 237.118 114.779 237.357 114.953C237.599 115.124 237.906 115.209 238.277 115.209ZM246.797 105.078V116.715H244.377V105.078H246.797ZM248.736 116.715V107.988H251.157V116.715H248.736ZM249.952 106.863C249.592 106.863 249.284 106.743 249.026 106.505C248.772 106.262 248.645 105.972 248.645 105.635C248.645 105.302 248.772 105.016 249.026 104.777C249.284 104.535 249.592 104.414 249.952 104.414C250.312 104.414 250.619 104.535 250.873 104.777C251.13 105.016 251.259 105.302 251.259 105.635C251.259 105.972 251.13 106.262 250.873 106.505C250.619 106.743 250.312 106.863 249.952 106.863ZM253.05 116.715V115.272L257.323 109.982V109.919H253.198V107.988H260.238V109.561L256.226 114.721V114.783H260.385V116.715H253.05ZM264.725 116.88C264.168 116.88 263.672 116.783 263.236 116.59C262.801 116.393 262.456 116.103 262.202 115.721C261.952 115.334 261.827 114.853 261.827 114.277C261.827 113.792 261.916 113.385 262.094 113.056C262.272 112.726 262.515 112.461 262.822 112.26C263.128 112.06 263.477 111.908 263.867 111.806C264.261 111.703 264.674 111.632 265.106 111.59C265.613 111.537 266.022 111.488 266.333 111.442C266.643 111.393 266.869 111.321 267.009 111.226C267.149 111.132 267.219 110.991 267.219 110.806V110.772C267.219 110.412 267.106 110.133 266.878 109.936C266.655 109.739 266.337 109.641 265.924 109.641C265.488 109.641 265.142 109.738 264.884 109.931C264.626 110.12 264.456 110.359 264.373 110.647L262.134 110.465C262.248 109.935 262.471 109.476 262.804 109.09C263.138 108.7 263.568 108.4 264.094 108.192C264.625 107.98 265.238 107.874 265.935 107.874C266.42 107.874 266.884 107.931 267.327 108.044C267.774 108.158 268.17 108.334 268.515 108.573C268.863 108.811 269.138 109.118 269.339 109.493C269.539 109.864 269.64 110.31 269.64 110.828V116.715H267.344V115.505H267.276C267.136 115.777 266.948 116.018 266.714 116.226C266.479 116.431 266.197 116.592 265.867 116.709C265.537 116.823 265.157 116.88 264.725 116.88ZM265.418 115.209C265.774 115.209 266.089 115.139 266.361 114.999C266.634 114.855 266.848 114.662 267.003 114.419C267.159 114.177 267.236 113.902 267.236 113.596V112.669C267.161 112.719 267.056 112.764 266.924 112.806C266.795 112.844 266.649 112.88 266.486 112.914C266.323 112.944 266.161 112.972 265.998 112.999C265.835 113.022 265.687 113.042 265.554 113.061C265.27 113.103 265.022 113.169 264.81 113.26C264.598 113.351 264.433 113.474 264.316 113.63C264.198 113.781 264.14 113.971 264.14 114.198C264.14 114.527 264.259 114.779 264.498 114.953C264.74 115.124 265.047 115.209 265.418 115.209ZM276.16 107.988V109.806H270.904V107.988H276.16ZM272.097 105.897H274.518V114.033C274.518 114.257 274.552 114.431 274.62 114.556C274.688 114.677 274.783 114.762 274.904 114.811C275.029 114.861 275.173 114.885 275.336 114.885C275.449 114.885 275.563 114.876 275.677 114.857C275.79 114.834 275.877 114.817 275.938 114.806L276.319 116.607C276.197 116.645 276.027 116.688 275.807 116.738C275.588 116.791 275.321 116.823 275.006 116.834C274.423 116.857 273.911 116.779 273.472 116.601C273.036 116.423 272.697 116.147 272.455 115.772C272.213 115.397 272.093 114.923 272.097 114.351V105.897ZM277.736 116.715V107.988H280.157V116.715H277.736ZM278.952 106.863C278.592 106.863 278.284 106.743 278.026 106.505C277.772 106.262 277.645 105.972 277.645 105.635C277.645 105.302 277.772 105.016 278.026 104.777C278.284 104.535 278.592 104.414 278.952 104.414C279.312 104.414 279.619 104.535 279.873 104.777C280.13 105.016 280.259 105.302 280.259 105.635C280.259 105.972 280.13 106.262 279.873 106.505C279.619 106.743 279.312 106.863 278.952 106.863ZM286.039 116.885C285.156 116.885 284.393 116.698 283.749 116.323C283.109 115.944 282.615 115.417 282.266 114.743C281.918 114.065 281.743 113.279 281.743 112.385C281.743 111.484 281.918 110.696 282.266 110.022C282.615 109.344 283.109 108.817 283.749 108.442C284.393 108.063 285.156 107.874 286.039 107.874C286.921 107.874 287.683 108.063 288.323 108.442C288.967 108.817 289.463 109.344 289.812 110.022C290.16 110.696 290.334 111.484 290.334 112.385C290.334 113.279 290.16 114.065 289.812 114.743C289.463 115.417 288.967 115.944 288.323 116.323C287.683 116.698 286.921 116.885 286.039 116.885ZM286.05 115.01C286.452 115.01 286.787 114.897 287.056 114.669C287.325 114.438 287.527 114.124 287.664 113.726C287.804 113.328 287.874 112.876 287.874 112.368C287.874 111.861 287.804 111.408 287.664 111.01C287.527 110.613 287.325 110.298 287.056 110.067C286.787 109.836 286.452 109.721 286.05 109.721C285.645 109.721 285.304 109.836 285.027 110.067C284.755 110.298 284.548 110.613 284.408 111.01C284.272 111.408 284.204 111.861 284.204 112.368C284.204 112.876 284.272 113.328 284.408 113.726C284.548 114.124 284.755 114.438 285.027 114.669C285.304 114.897 285.645 115.01 286.05 115.01ZM294.329 111.669V116.715H291.908V107.988H294.215V109.527H294.317C294.51 109.02 294.834 108.618 295.289 108.323C295.743 108.024 296.295 107.874 296.942 107.874C297.548 107.874 298.077 108.007 298.527 108.272C298.978 108.537 299.329 108.916 299.579 109.408C299.829 109.897 299.954 110.48 299.954 111.158V116.715H297.533V111.59C297.537 111.056 297.401 110.639 297.124 110.34C296.848 110.037 296.467 109.885 295.982 109.885C295.656 109.885 295.368 109.955 295.118 110.096C294.872 110.236 294.679 110.44 294.539 110.709C294.402 110.974 294.332 111.294 294.329 111.669Z"
        fill="#EFEFEF" />
    <defs>
        <linearGradient id="paint0_linear_7774_1170" x1="118.568" y1="23.2204" x2="48.174" y2="59.9063"
            gradientUnits="userSpaceOnUse">
            <stop stop-color="#EC796B" />
            <stop offset="1" stop-color="#D672EF" />
        </linearGradient>
        <linearGradient id="paint1_linear_7774_1170" x1="114.761" y1="41.1107" x2="103.519" y2="42.1664"
            gradientUnits="userSpaceOnUse">
            <stop stop-color="#EC796B" />
            <stop offset="1" stop-color="#D672EF" />
        </linearGradient>
    </defs>
</svg>