<svg width="25" height="25" viewBox="0 0 25 25" fill="none" xmlns="http://www.w3.org/2000/svg">
<g clip-path="url(#clip0_23_1234)">
<path d="M20.7415 6.18331C19.2257 5.4878 17.6003 4.97538 15.9007 4.6819C15.8698 4.67623 15.8389 4.69039 15.8229 4.7187C15.6139 5.09051 15.3823 5.57556 15.2202 5.95681C13.3922 5.68315 11.5736 5.68315 9.78318 5.95681C9.62099 5.56709 9.38103 5.09051 9.17104 4.7187C9.1551 4.69133 9.12418 4.67718 9.09323 4.6819C7.39465 4.97444 5.76918 5.48687 4.25245 6.18331C4.23932 6.18898 4.22807 6.19842 4.2206 6.21068C1.13744 10.8169 0.292831 15.3098 0.707167 19.7471C0.709041 19.7688 0.721228 19.7895 0.738101 19.8027C2.77228 21.2966 4.74273 22.2035 6.67659 22.8046C6.70754 22.8141 6.74034 22.8027 6.76003 22.7772C7.21749 22.1525 7.62527 21.4938 7.9749 20.8011C7.99553 20.7606 7.97584 20.7125 7.93366 20.6964C7.28686 20.451 6.67097 20.1519 6.07852 19.8122C6.03166 19.7848 6.02791 19.7178 6.07102 19.6857C6.19569 19.5923 6.3204 19.4951 6.43944 19.3969C6.46098 19.379 6.49099 19.3752 6.51631 19.3865C10.4084 21.1635 14.6221 21.1635 18.4683 19.3865C18.4936 19.3743 18.5236 19.3781 18.5461 19.396C18.6652 19.4941 18.7898 19.5923 18.9154 19.6857C18.9585 19.7178 18.9557 19.7848 18.9089 19.8122C18.3164 20.1585 17.7005 20.451 17.0528 20.6955C17.0106 20.7115 16.9919 20.7606 17.0125 20.8011C17.3696 21.4929 17.7774 22.1516 18.2264 22.7763C18.2452 22.8027 18.2789 22.8141 18.3099 22.8046C20.2531 22.2035 22.2235 21.2966 24.2577 19.8027C24.2755 19.7895 24.2868 19.7697 24.2887 19.748C24.7845 14.6181 23.4581 10.1619 20.7724 6.21162C20.7659 6.19842 20.7546 6.18898 20.7415 6.18331ZM8.55612 17.0452C7.38433 17.0452 6.41881 15.9694 6.41881 14.6483C6.41881 13.3271 7.36561 12.2513 8.55612 12.2513C9.75598 12.2513 10.7122 13.3365 10.6934 14.6483C10.6934 15.9694 9.7466 17.0452 8.55612 17.0452ZM16.4585 17.0452C15.2867 17.0452 14.3212 15.9694 14.3212 14.6483C14.3212 13.3271 15.268 12.2513 16.4585 12.2513C17.6584 12.2513 18.6145 13.3365 18.5958 14.6483C18.5958 15.9694 17.6584 17.0452 16.4585 17.0452Z" fill="#fff"/>
</g>
<defs>
<clipPath id="clip0_23_1234">
<rect x="0.5" y="0.997681" width="24" height="24" rx="6" fill="white"/>
</clipPath>
</defs>
</svg>
