<svg width="25" height="25" viewBox="0 0 25 25" fill="none" xmlns="http://www.w3.org/2000/svg">
<g clip-path="url(#clip0_23_1243)">
<path fill-rule="evenodd" clip-rule="evenodd" d="M12.4957 1.59766C9.66469 1.59913 6.9265 2.60182 4.77075 4.42644C2.61501 6.25107 1.18228 8.77864 0.728769 11.5572C0.275254 14.3358 0.830513 17.1841 2.29527 19.593C3.76003 22.0019 6.03877 23.8141 8.72402 24.7057C9.31643 24.8157 9.53958 24.4485 9.53958 24.1363C9.53958 23.8241 9.52773 22.919 9.52378 21.9294C6.20628 22.6461 5.50526 20.5294 5.50526 20.5294C4.96419 19.155 4.18221 18.7937 4.18221 18.7937C3.10007 18.0594 4.26318 18.0731 4.26318 18.0731C5.46182 18.1576 6.09175 19.2964 6.09175 19.2964C7.15414 21.1087 8.882 20.5844 9.5613 20.2781C9.66793 19.5104 9.97796 18.9881 10.3196 18.6916C7.66954 18.3932 4.8852 17.3761 4.8852 12.8326C4.86878 11.6543 5.30853 10.5148 6.11347 9.64985C5.99104 9.3514 5.58227 8.14583 6.22997 6.5083C6.22997 6.5083 7.23116 6.19022 9.50996 7.72369C11.4646 7.1922 13.5268 7.1922 15.4815 7.72369C17.7583 6.19022 18.7575 6.5083 18.7575 6.5083C19.4072 8.14191 18.9984 9.34748 18.876 9.64985C19.6835 10.5149 20.1241 11.6564 20.1062 12.8366C20.1062 17.3899 17.316 18.3932 14.662 18.6857C15.0885 19.0549 15.4696 19.7755 15.4696 20.8829C15.4696 22.4693 15.4558 23.7456 15.4558 24.1363C15.4558 24.4525 15.671 24.8216 16.2753 24.7057C18.9609 23.814 21.2398 22.0014 22.7046 19.5922C24.1693 17.1829 24.7243 14.3341 24.2702 11.5553C23.8162 8.77645 22.3828 6.24885 20.2263 4.42454C18.0698 2.60023 15.331 1.59819 12.4997 1.59766H12.4957Z" fill="#fff"/>
<path d="M5.08655 18.6229C5.06088 18.6818 4.9661 18.6995 4.88908 18.6583C4.81207 18.617 4.75481 18.5405 4.78245 18.4796C4.8101 18.4187 4.90291 18.403 4.97992 18.4443C5.05694 18.4855 5.11617 18.564 5.08655 18.6229Z" fill="#fff"/>
<path d="M5.57027 19.1589C5.52938 19.1794 5.48259 19.1852 5.43792 19.1751C5.39326 19.1651 5.35349 19.1399 5.32541 19.104C5.2484 19.0215 5.23259 18.9076 5.29183 18.8566C5.35107 18.8055 5.45772 18.8291 5.53473 18.9116C5.61174 18.994 5.62951 19.1079 5.57027 19.1589Z" fill="#fff"/>
<path d="M6.03991 19.8402C5.96685 19.8913 5.84244 19.8402 5.77332 19.7381C5.75421 19.7198 5.73901 19.6978 5.72863 19.6735C5.71825 19.6493 5.71289 19.6231 5.71289 19.5967C5.71289 19.5704 5.71825 19.5442 5.72863 19.5199C5.73901 19.4957 5.75421 19.4737 5.77332 19.4554C5.84639 19.4063 5.9708 19.4554 6.03991 19.5555C6.10903 19.6556 6.111 19.7892 6.03991 19.8402Z" fill="#fff"/>
<path d="M6.67821 20.5C6.61304 20.5726 6.48074 20.553 6.37213 20.4548C6.26352 20.3567 6.23785 20.2231 6.30301 20.1525C6.36818 20.0818 6.50048 20.1014 6.61304 20.1976C6.7256 20.2938 6.74732 20.4293 6.67821 20.5Z" fill="#fff"/>
<path d="M7.57234 20.8848C7.54271 20.9771 7.40843 21.0183 7.27415 20.979C7.13987 20.9398 7.05101 20.8298 7.07668 20.7356C7.10235 20.6413 7.23861 20.5981 7.37487 20.6413C7.51112 20.6845 7.59801 20.7886 7.57234 20.8848Z" fill="#fff"/>
<path d="M8.54806 20.9516C8.54806 21.0478 8.43749 21.1302 8.29531 21.1322C8.15313 21.1342 8.03662 21.0556 8.03662 20.9594C8.03662 20.8632 8.1472 20.7807 8.28938 20.7788C8.43156 20.7768 8.54806 20.8534 8.54806 20.9516Z" fill="#fff"/>
<path d="M9.45628 20.8004C9.47405 20.8966 9.37532 20.9968 9.23314 21.0203C9.09096 21.0439 8.96655 20.9869 8.94878 20.8927C8.93101 20.7984 9.03369 20.6963 9.17192 20.6708C9.31015 20.6453 9.43851 20.7042 9.45628 20.8004Z" fill="#fff"/>
</g>
<defs>
<clipPath id="clip0_23_1243">
<rect x="0.5" y="0.997681" width="24" height="24" rx="6" fill="white"/>
</clipPath>
</defs>
</svg>
