<svg width="25" height="25" viewBox="0 0 25 25" fill="none" xmlns="http://www.w3.org/2000/svg">
<path d="M21.5571 8.17846C21.5664 8.38966 21.5664 8.59126 21.5664 8.80246C21.5756 15.2057 16.8712 22.5977 8.26793 22.5977C5.73048 22.5977 3.23933 21.8393 1.1001 20.4185C1.47053 20.4665 1.84096 20.4857 2.21139 20.4857C4.31358 20.4857 6.36021 19.7561 8.01789 18.4025C6.01756 18.3641 4.25802 17.0105 3.64681 15.0329C4.35063 15.1769 5.07297 15.1481 5.75826 14.9465C3.58198 14.5049 2.01691 12.5177 2.00765 10.2041C2.00765 10.1849 2.00765 10.1657 2.00765 10.1465C2.65591 10.5209 3.38751 10.7321 4.12837 10.7513C2.08174 9.33046 1.44275 6.49845 2.68369 4.28085C5.0637 7.31446 8.56427 9.14806 12.3241 9.34966C11.9445 7.66966 12.4631 5.90325 13.6762 4.71285C15.5561 2.87924 18.5196 2.97524 20.2977 4.92405C21.3441 4.71285 22.3535 4.30965 23.2704 3.74324C22.9185 4.86645 22.1869 5.81685 21.2145 6.42165C22.1406 6.30645 23.0481 6.04725 23.9001 5.66325C23.2704 6.64245 22.4739 7.48726 21.5571 8.17846Z" fill="#fff"/>
</svg>
