<svg width="25" height="25" viewBox="0 0 25 25" fill="none" xmlns="http://www.w3.org/2000/svg">
<g clip-path="url(#clip0_23_1256)">
<path d="M24.0057 7.22697C23.7289 6.19897 22.9184 5.38843 21.8904 5.11166C20.0123 4.59766 12.4999 4.59766 12.4999 4.59766C12.4999 4.59766 4.98762 4.59766 3.10954 5.09189C2.10131 5.36866 1.271 6.19897 0.994232 7.22697C0.5 9.10505 0.5 12.9996 0.5 12.9996C0.5 12.9996 0.5 16.9139 0.994232 18.7722C1.271 19.8002 2.08154 20.6108 3.10954 20.8875C5.00739 21.4015 12.4999 21.4015 12.4999 21.4015C12.4999 21.4015 20.0123 21.4015 21.8904 20.9073C22.9184 20.6305 23.7289 19.82 24.0057 18.792C24.4999 16.9139 24.4999 13.0194 24.4999 13.0194C24.4999 13.0194 24.5197 9.10505 24.0057 7.22697Z" fill="#fff"/>
<path d="M10.1079 16.5976L16.355 12.9996L10.1079 9.40155V16.5976Z" fill="#000"/>
</g>
<defs>
<clipPath id="clip0_23_1256">
<rect x="0.5" y="0.997681" width="24" height="24" rx="6" fill="red"/>
</clipPath>
</defs>
</svg>
