<svg width="24" height="25" viewBox="0 0 24 25" fill="none" xmlns="http://www.w3.org/2000/svg">
<path fill-rule="evenodd" clip-rule="evenodd" d="M2.25 12.9977C2.25 7.6129 6.61522 3.24768 12 3.24768C17.3848 3.24768 21.75 7.6129 21.75 12.9977C21.75 18.3825 17.3848 22.7477 12 22.7477C6.61522 22.7477 2.25 18.3825 2.25 12.9977ZM15.6103 11.1836C15.8511 10.8465 15.773 10.3781 15.4359 10.1374C15.0989 9.89662 14.6305 9.97469 14.3897 10.3118L11.1543 14.8413L9.53033 13.2174C9.23744 12.9245 8.76256 12.9245 8.46967 13.2174C8.17678 13.5102 8.17678 13.9851 8.46967 14.278L10.7197 16.528C10.8756 16.6839 11.0921 16.7633 11.3119 16.7451C11.5316 16.7269 11.7322 16.613 11.8603 16.4336L15.6103 11.1836Z" fill="#2DA4A1"/>
</svg>
