<svg width="25" height="25" viewBox="0 0 25 25" fill="none" xmlns="http://www.w3.org/2000/svg">
<g clip-path="url(#clip0_23_1238)">
<path d="M12.603 0.997681C19.166 0.997681 24.5 6.48268 24.5 12.9947C24.5 19.5047 19.17 24.9847 12.6 24.9847L0.5 24.9977V12.7877C0.5 6.27768 6.032 0.997681 12.603 0.997681ZM12.719 5.56068C11.4446 5.55929 10.1915 5.88725 9.08126 6.51274C7.97096 7.13823 7.04115 8.04003 6.382 9.13068C5.72828 10.2162 5.3706 11.4541 5.34463 12.7209C5.31866 13.9878 5.62531 15.2393 6.234 16.3507L4.9 20.6077L9.694 19.5337C11.0355 20.1331 12.5247 20.321 13.973 20.0736C15.4213 19.8261 16.7636 19.1545 17.83 18.1437C18.8905 17.1402 19.6235 15.8401 19.9334 14.4134C20.2433 12.9867 20.1156 11.4997 19.567 10.1467C19.0121 8.78887 18.0649 7.62738 16.8465 6.81065C15.6281 5.99393 14.1938 5.55908 12.727 5.56168L12.719 5.56068Z" fill="#fff"/>
</g>
<defs>
<clipPath id="clip0_23_1238">
<rect width="24" height="24" fill="white" transform="translate(0.5 0.997681)"/>
</clipPath>
</defs>
</svg>
