<svg width="178" height="40" viewBox="0 0 178 40" fill="none" xmlns="http://www.w3.org/2000/svg">
<path fill-rule="evenodd" clip-rule="evenodd" d="M9.53674e-05 20C9.53674e-05 31.0458 8.93397 40 19.9547 40C30.9755 40 39.9099 31.0458 39.9099 20C39.9099 8.95419 30.9755 0 19.9547 0C8.93397 0 9.53674e-05 8.95419 9.53674e-05 20Z" fill="#0C0C4F"/>
<path fill-rule="evenodd" clip-rule="evenodd" d="M19.9547 38.9873C9.49198 38.9873 1.01047 30.4865 1.01047 20C1.01047 9.51348 9.49198 1.01267 19.9547 1.01267C30.4175 1.01267 38.8995 9.51351 38.8995 20C38.8995 30.4865 30.4175 38.9873 19.9547 38.9873ZM19.9547 40C8.93397 40 9.53674e-05 31.0458 9.53674e-05 20C9.53674e-05 8.95419 8.93397 0 19.9547 0C30.9755 0 39.9099 8.95419 39.9099 20C39.9099 31.0458 30.9755 40 19.9547 40Z" fill="#EC796B"/>
<path fill-rule="evenodd" clip-rule="evenodd" d="M35.3249 14.4007C34.6945 13.6941 33.7105 13.2962 32.7539 13.1331C31.7896 12.9764 30.7787 12.9909 29.8268 13.1604C27.9008 13.487 26.1511 14.2863 24.625 15.2723C23.8325 15.7563 23.1566 16.3162 22.4564 16.8865C22.1191 17.1749 21.8115 17.482 21.4912 17.7848L20.6159 18.6577C19.6648 19.6541 18.7273 20.5616 17.8203 21.3139C16.9097 22.0626 16.0582 22.6313 15.2192 23.0285C14.3806 23.4276 13.4834 23.6624 12.3139 23.7C11.1547 23.741 9.78322 23.5313 8.3162 23.1852C6.8413 22.8406 5.29251 22.3494 3.56177 21.9268C4.16566 23.606 5.07506 25.0898 6.24262 26.4463C7.42387 27.7792 8.8989 28.9941 10.7938 29.793C12.6613 30.6097 15.0081 30.9029 17.2025 30.4606C19.4027 30.0362 21.3335 29.0157 22.8942 27.8356C24.4588 26.6434 25.7247 25.2853 26.7919 23.8734C27.0865 23.4834 27.2424 23.265 27.4555 22.9602L28.0447 22.0853C28.4543 21.5442 28.827 20.9281 29.2324 20.392C30.027 19.2691 30.8104 18.1476 31.7209 17.1143C32.1791 16.5902 32.6621 16.0889 33.2326 15.6071C33.5171 15.372 33.8245 15.1419 34.165 14.9346C34.5105 14.711 34.8755 14.536 35.3249 14.4007Z" fill="#EC796B"/>
<path fill-rule="evenodd" clip-rule="evenodd" d="M27.8059 28.6328C27.8059 29.8909 28.824 30.9113 30.0793 30.9113C31.3345 30.9113 32.3514 29.8909 32.3514 28.6328C32.3514 27.3747 31.3345 26.3543 30.0793 26.3543C28.824 26.3543 27.8059 27.3747 27.8059 28.6328Z" fill="#EC796B"/>
<path fill-rule="evenodd" clip-rule="evenodd" d="M35.3249 14.4005C34.6475 12.6876 33.3885 11.2457 31.6984 10.1817C30.0187 9.12937 27.6856 8.59234 25.3737 9.05013C24.2316 9.27151 23.1251 9.69775 22.1541 10.2654C21.1874 10.8307 20.3212 11.5113 19.5714 12.2414C19.197 12.6077 18.8572 12.9898 18.5196 13.374L17.6447 14.492L16.2934 16.2918C14.5706 18.6073 12.7154 21.3211 9.67098 22.1252C6.68219 22.9146 5.3859 22.2154 3.56177 21.9266C3.8953 22.7897 4.30846 23.6279 4.86857 24.3652C5.41824 25.1175 6.06748 25.8241 6.87468 26.4298C7.2826 26.7207 7.71327 27.0078 8.19159 27.2513C8.66773 27.4865 9.18122 27.6936 9.7293 27.8495C10.8195 28.1489 12.0469 28.2538 13.2352 28.0928C14.4242 27.9338 15.5606 27.5561 16.554 27.0546C17.5546 26.5577 18.4263 25.9527 19.2047 25.3142C20.752 24.0263 21.9555 22.6033 22.9721 21.165C23.4834 20.4458 23.9476 19.7131 24.3769 18.9802L24.8821 18.1076C25.0366 17.8525 25.1928 17.5959 25.3515 17.3569C25.9917 16.3966 26.6179 15.6267 27.3785 15.0487C28.1285 14.4559 29.1728 14.0178 30.5685 13.9161C31.9583 13.8131 33.5628 14.0033 35.3249 14.4005Z" fill="#FAFAFA"/>
<path fill-rule="evenodd" clip-rule="evenodd" d="M11.1532 15.2883L11.6457 13.763C11.7459 13.4528 11.9902 13.2114 12.3008 13.1162L13.8301 12.6449C14.0418 12.5801 14.0435 12.2807 13.8335 12.2125L12.3111 11.7188C12.0022 11.6184 11.7613 11.3736 11.6658 11.0622L11.1961 9.52946C11.1314 9.31787 10.8328 9.31558 10.7647 9.5266L10.2721 11.0519C10.172 11.3615 9.92767 11.6029 9.61701 11.6987L8.08774 12.1695C7.87606 12.2349 7.87377 12.5336 8.08431 12.6018L9.60671 13.0956C9.91566 13.1959 10.1565 13.4413 10.2521 13.7527L10.7218 15.2849C10.7864 15.497 11.0851 15.4993 11.1532 15.2883Z" fill="#FAFAFA"/>
<path d="M174.374 13.9449V11.6443C174.374 11.553 174.3 11.4791 174.209 11.4791H161.13C161.039 11.4791 160.965 11.553 160.965 11.6443V13.9449H166.281V28.8287H169.058V13.9449H174.374Z" fill="white"/>
<path d="M147.296 11.4791C147.205 11.4791 147.131 11.553 147.131 11.6443V28.6635C147.131 28.7548 147.205 28.8287 147.296 28.8287H158.302C158.393 28.8287 158.467 28.7548 158.467 28.6635V26.3873H149.908V20.9347H156.98V18.5422H149.908V13.9205H157.858V11.6443C157.858 11.553 157.784 11.4791 157.693 11.4791H147.296Z" fill="white"/>
<path d="M140.913 28.7278L140.973 28.8287H143.107C143.198 28.8287 143.272 28.7548 143.272 28.6635V11.6443C143.272 11.553 143.198 11.4791 143.107 11.4791H140.543V23.4946C140.098 22.7844 139.581 22.0026 138.993 21.1493C138.243 20.0389 137.437 18.9124 136.574 17.7699C135.727 16.6112 134.864 15.493 133.984 14.4156C133.12 13.321 132.304 12.3636 131.536 11.5442L131.475 11.4791H129.467C129.376 11.4791 129.302 11.553 129.302 11.6443V28.6635C129.302 28.7548 129.376 28.8287 129.467 28.8287H132.03V15.9569C132.381 16.3718 132.754 16.8316 133.15 17.3365C133.685 18.0186 134.236 18.7498 134.804 19.5301L134.804 19.531L134.805 19.5318C135.372 20.2953 135.94 21.0915 136.507 21.9204L136.508 21.9215L136.509 21.9226C137.093 22.7519 137.652 23.5729 138.188 24.3857L138.188 24.3865L138.189 24.3873C138.723 25.1833 139.218 25.9546 139.671 26.7011L139.672 26.7025L139.673 26.7039C140.143 27.4522 140.557 28.1268 140.913 28.7278Z" fill="white"/>
<path d="M125.948 11.8247L126.01 11.7555C126.107 11.6495 126.032 11.4791 125.889 11.4791H122.848L122.786 11.5508C122.383 12.02 121.881 12.5714 121.281 13.2054C120.697 13.8237 120.071 14.4747 119.406 15.1584C118.74 15.8418 118.066 16.5253 117.384 17.2087C116.839 17.7424 116.33 18.2342 115.857 18.6843V11.4791H113.245C113.154 11.4791 113.08 11.553 113.08 11.6443V28.6635C113.08 28.7548 113.154 28.8287 113.245 28.8287H115.857V20.9579C116.431 21.3342 117.017 21.7745 117.616 22.2793L117.617 22.28L117.618 22.2808C118.343 22.8786 119.053 23.5334 119.747 24.2452L119.749 24.2469L119.75 24.2486C120.46 24.9436 121.129 25.6791 121.758 26.4551L121.759 26.4559L121.76 26.4567C122.389 27.2165 122.944 27.9754 123.427 28.7333L123.488 28.8287H126.452C126.578 28.8287 126.658 28.6914 126.595 28.5813L126.559 28.5194C126.114 27.7436 125.556 26.929 124.885 26.0759C124.231 25.224 123.528 24.3888 122.777 23.5701C122.025 22.7513 121.257 21.9814 120.472 21.2604C119.762 20.6073 119.082 20.0466 118.435 19.5789C118.986 19.0403 119.57 18.4619 120.186 17.8437C120.87 17.1588 121.553 16.4658 122.236 15.7646C122.936 15.0471 123.603 14.354 124.238 13.6853L124.239 13.6844L124.239 13.6835C124.874 12.9988 125.443 12.3792 125.948 11.8247Z" fill="white"/>
<path fill-rule="evenodd" clip-rule="evenodd" d="M97.3153 11.3491C97.2243 11.3491 97.1505 11.423 97.1505 11.5142V28.6739C97.1505 28.7652 97.2243 28.8391 97.3153 28.8391H99.6687V22.53H103.106C103.493 22.9942 103.87 23.4798 104.238 23.9869L104.24 23.9888L104.241 23.9907C104.843 24.7814 105.399 25.6063 105.909 26.4654L105.91 26.4663L105.91 26.4672C106.372 27.2275 106.776 27.9784 107.121 28.7199L107.176 28.8391H109.961C110.08 28.8391 110.16 28.7159 110.11 28.6071C109.79 27.9036 109.443 27.2149 109.057 26.5439C108.534 25.6061 107.959 24.6777 107.334 23.7586C106.976 23.2334 106.611 22.7231 106.239 22.2279C107.278 21.9095 108.1 21.334 108.694 20.4985L108.694 20.4979C109.408 19.4868 109.762 18.2977 109.762 16.9395C109.762 16.0062 109.6 15.1522 109.272 14.3806C108.943 13.5977 108.448 12.9485 107.789 12.4362C107.134 11.9213 106.328 11.5936 105.378 11.4467C105.156 11.4058 104.927 11.3813 104.691 11.3729C104.461 11.3571 104.26 11.349 104.089 11.349C103.367 11.349 102.645 11.3489 101.923 11.3488C100.387 11.3487 98.8512 11.3486 97.3153 11.3491ZM107.196 16.9395C107.196 17.3903 107.121 17.8338 106.971 18.2711C106.824 18.6909 106.589 19.0591 106.264 19.3771C105.957 19.6783 105.551 19.8919 105.037 20.0114C104.874 20.0485 104.699 20.0747 104.51 20.0898L104.51 20.0899L104.51 20.0899C104.325 20.1054 104.161 20.1129 104.018 20.1129H99.6687V13.7661H104.018C104.161 13.7661 104.325 13.7736 104.51 13.7891L104.514 13.7895L104.519 13.7896C104.702 13.797 104.872 13.8226 105.029 13.8655L105.034 13.867L105.039 13.8681C105.551 13.9797 105.956 14.1925 106.263 14.5002L106.263 14.501L106.264 14.5018C106.588 14.8194 106.823 15.1912 106.971 15.6193L106.971 15.6198L106.971 15.6203C107.121 16.0492 107.196 16.4886 107.196 16.9395Z" fill="white"/>
<path fill-rule="evenodd" clip-rule="evenodd" d="M90.9717 26.5382L90.972 26.5389L90.9722 26.5396C91.2167 27.2419 91.4774 27.9605 91.7543 28.6952L91.8046 28.8287H94.5905C94.7049 28.8287 94.7845 28.7148 94.7454 28.6071C94.1368 26.9314 93.5226 25.2577 92.8959 23.5887C92.3265 22.056 91.7651 20.6045 91.2118 19.2343C90.6747 17.8641 90.1375 16.5588 89.6001 15.3185C89.0611 14.0579 88.4939 12.8098 87.903 11.5728C87.8756 11.5155 87.8178 11.4791 87.7545 11.4791H85.5324C85.469 11.4791 85.4113 11.5155 85.3839 11.5728C84.7929 12.8098 84.2258 14.058 83.6867 15.3186C83.1496 16.5585 82.6044 17.8634 82.0512 19.2333L82.0508 19.2343L82.0504 19.2352C81.5135 20.605 80.9604 22.0562 80.3911 23.5886C79.7643 25.2577 79.15 26.9313 78.5415 28.6071C78.5024 28.7148 78.582 28.8287 78.6963 28.8287H81.3633L81.4155 28.8286L81.4766 28.7628C82.12 28.0705 82.839 27.3911 83.6341 26.7248L83.635 26.7241L83.6358 26.7234C84.434 26.0404 85.2661 25.4069 86.1323 24.8229L86.1343 24.8216L86.1362 24.8202C86.9895 24.2159 87.8482 23.6737 88.7124 23.1933L88.7134 23.1928L88.7143 23.1922C89.0255 23.0147 89.332 22.8493 89.6336 22.696L90.2165 24.3651L90.217 24.3663C90.4767 25.0984 90.7283 25.8224 90.9717 26.5382ZM87.9748 18.3084L87.9753 18.3098L87.9759 18.3112C88.2105 18.9066 88.4452 19.5119 88.6799 20.1273C88.6623 20.135 88.6444 20.1431 88.6262 20.1514C87.8005 20.5283 86.9129 21.0156 85.9639 21.6123C85.0552 22.1834 84.1539 22.804 83.2597 23.4738L83.6382 22.3901C84.1392 20.9815 84.6401 19.6214 85.1409 18.3098C85.6015 17.1269 86.0811 15.9892 86.5797 14.8965C87.0638 15.9887 87.5288 17.126 87.9748 18.3084Z" fill="white"/>
<path d="M79.2214 13.9449V11.6443C79.2214 11.553 79.1476 11.4791 79.0566 11.4791H65.9774C65.8864 11.4791 65.8126 11.553 65.8126 11.6443V13.9449H71.1284V28.6635C71.1284 28.7548 71.2022 28.8287 71.2932 28.8287H73.7408C73.8318 28.8287 73.9056 28.7548 73.9056 28.6635V13.9449H79.2214Z" fill="white"/>
<path d="M53.8117 28.6176L53.8111 28.6174C52.8037 28.1871 51.9658 27.5727 51.3015 26.7737L51.3006 26.7725L51.3001 26.7719C50.6424 25.9626 50.2154 25.0087 50.017 23.915C50.0071 23.8603 50.0196 23.8039 50.0517 23.7586C50.0838 23.7132 50.1328 23.6828 50.1876 23.6741L52.403 23.3242C52.5078 23.3076 52.6081 23.3736 52.6345 23.4767C52.9037 24.5251 53.4579 25.339 54.2981 25.9288C55.1507 26.5136 56.1562 26.8091 57.3233 26.8091C58.0803 26.8091 58.7567 26.6919 59.3556 26.4612C59.9615 26.2228 60.4316 25.8884 60.775 25.462C61.1126 25.0426 61.2831 24.5462 61.2831 23.9626C61.2831 23.6003 61.2191 23.3037 61.1002 23.0654C61.0991 23.0632 61.0981 23.061 61.0971 23.0589C60.9813 22.805 60.8196 22.5929 60.6113 22.4201C60.6093 22.4185 60.6074 22.4168 60.6054 22.4151C60.3963 22.2279 60.1563 22.0697 59.8841 21.9409C59.6057 21.8091 59.3154 21.7005 59.0131 21.615L59.0104 21.6142L54.5912 20.2987C54.0993 20.1508 53.6236 19.9659 53.1643 19.7439L53.163 19.7433L53.1616 19.7426C52.6952 19.5089 52.2775 19.2202 51.9093 18.8764L51.9081 18.8752L51.9075 18.8747C51.5342 18.5175 51.2381 18.0929 51.019 17.603L51.0184 17.6018C50.7958 17.0954 50.6879 16.5068 50.6879 15.8412C50.6879 14.7743 50.9631 13.8529 51.5224 13.0884L51.5227 13.0881C52.0845 12.3232 52.8419 11.7421 53.7878 11.3429C54.7323 10.9443 55.7921 10.7513 56.9635 10.7595C58.1509 10.7677 59.2189 10.9812 60.1636 11.4046C61.1154 11.8195 61.905 12.4187 62.5286 13.2018C63.1615 13.9866 63.5837 14.9232 63.7982 16.0062C63.8089 16.0607 63.7974 16.1173 63.766 16.1631C63.7346 16.2089 63.6862 16.2402 63.6315 16.2497L61.356 16.648C61.302 16.6574 61.2465 16.6449 61.2018 16.6133C61.157 16.5816 61.1267 16.5334 61.1175 16.4793C61.0026 15.8035 60.7474 15.2303 60.355 14.7538L60.3528 14.7511C59.9647 14.263 59.4781 13.8891 58.8895 13.6287L58.8875 13.6277C58.2978 13.3591 57.6481 13.2196 56.9357 13.2118C56.2529 13.204 55.6425 13.3129 55.1015 13.5344C54.559 13.7565 54.1356 14.063 53.8233 14.4504L53.8221 14.452C53.5158 14.8247 53.3634 15.2528 53.3634 15.7447C53.3634 16.2331 53.5023 16.6098 53.7652 16.8946C54.049 17.1938 54.3979 17.4353 54.815 17.6181C55.2572 17.8 55.6866 17.9499 56.1031 18.0681L56.1041 18.0684L59.4019 19.0214C59.7864 19.128 60.2254 19.2748 60.7184 19.4611C61.2345 19.653 61.732 19.9235 62.211 20.271C62.704 20.6206 63.1089 21.0873 63.427 21.666C63.7538 22.2524 63.9105 22.9816 63.9105 23.8419C63.9105 24.7066 63.7361 25.4839 63.3821 26.1685C63.0384 26.8488 62.556 27.4202 61.9371 27.8812L61.9356 27.8823C61.3202 28.3324 60.6078 28.6721 59.8009 28.9033C58.9938 29.1425 58.1315 29.2614 57.2149 29.2614C55.9633 29.2614 54.8277 29.0482 53.8117 28.6176Z" fill="white"/>
</svg>
