<svg width="179" height="42" viewBox="0 0 179 42" fill="none" xmlns="http://www.w3.org/2000/svg">
<path fill-rule="evenodd" clip-rule="evenodd" d="M1.04125 20.9174C1.04125 32.0213 10.0426 41.0226 21.1465 41.0226C32.2504 41.0226 41.2523 32.0213 41.2523 20.9174C41.2523 9.81344 32.2504 0.812134 21.1465 0.812134C10.0426 0.812134 1.04125 9.81344 1.04125 20.9174Z" fill="#0C0C4F" stroke="url(#paint0_linear_56_2100)" stroke-width="1.5"/>
<path fill-rule="evenodd" clip-rule="evenodd" d="M12.2785 16.1807L12.7748 14.6474C12.8757 14.3356 13.1218 14.0929 13.4349 13.9972L14.9757 13.5234C15.189 13.4582 15.1907 13.1573 14.9791 13.0887L13.4452 12.5924C13.134 12.4916 12.8913 12.2454 12.795 11.9324L12.3218 10.3916C12.2566 10.1789 11.9557 10.1766 11.8871 10.3887L11.3908 11.922C11.2899 12.2333 11.0438 12.476 10.7308 12.5723L9.18997 13.0455C8.97669 13.1112 8.97439 13.4115 9.18652 13.4801L10.7204 13.9765C11.0317 14.0773 11.2744 14.324 11.3706 14.6371L11.8439 16.1773C11.909 16.3906 12.2099 16.3929 12.2785 16.1807Z" fill="#FAFAFA"/>
<path fill-rule="evenodd" clip-rule="evenodd" d="M36.6327 15.2884C35.9975 14.578 35.0061 14.1781 34.0423 14.0141C33.0708 13.8566 32.0522 13.8712 31.0931 14.0416C29.1526 14.3698 27.3896 15.1734 25.852 16.1646C25.0535 16.6511 24.3726 17.214 23.6671 17.7873C23.3272 18.0772 23.0173 18.386 22.6945 18.6903L21.8126 19.5678C20.8544 20.5694 19.9099 21.4817 18.996 22.2379C18.0785 22.9907 17.2206 23.5623 16.3752 23.9616C15.5303 24.3629 14.6263 24.5989 13.448 24.6366C12.2801 24.6778 10.8982 24.467 9.42015 24.1191C7.93412 23.7727 6.37363 23.2789 4.62983 22.8541C5.23828 24.5421 6.15454 26.0338 7.33091 27.3974C8.52108 28.7373 10.0072 29.9586 11.9164 30.7617C13.798 31.5827 16.1626 31.8774 18.3735 31.4328C20.5903 31.0061 22.5357 29.9803 24.1081 28.794C25.6846 27.5955 26.9601 26.2303 28.0353 24.811C28.3322 24.4189 28.4892 24.1994 28.7039 23.8929L29.2976 23.0135C29.7102 22.4695 30.0858 21.8502 30.4942 21.3112C31.2949 20.1824 32.0842 19.055 33.0015 18.0163C33.4632 17.4894 33.9498 16.9855 34.5246 16.5012C34.8113 16.2648 35.121 16.0335 35.464 15.8251C35.8122 15.6003 36.1799 15.4244 36.6327 15.2884Z" fill="url(#paint1_linear_56_2100)"/>
<path fill-rule="evenodd" clip-rule="evenodd" d="M36.6327 15.2883C35.9502 13.5664 34.6816 12.1169 32.9789 11.0473C31.2864 9.98945 28.9357 9.44959 26.6064 9.90979C25.4557 10.1323 24.3408 10.5608 23.3625 11.1314C22.3885 11.6997 21.5158 12.3839 20.7603 13.1178C20.3831 13.4861 20.0407 13.8701 19.7006 14.2564L18.8191 15.3803L17.4575 17.1895C15.7218 19.5173 13.8526 22.2453 10.7851 23.0536C7.7738 23.8472 6.46773 23.1444 4.62983 22.854C4.96588 23.7217 5.38216 24.5642 5.94649 25.3055C6.50031 26.0617 7.15445 26.7721 7.96774 27.3809C8.37874 27.6733 8.81266 27.9619 9.29459 28.2067C9.77433 28.4432 10.2917 28.6513 10.8439 28.808C11.9423 29.1091 13.179 29.2146 14.3763 29.0526C15.5742 28.8928 16.7192 28.5132 17.7201 28.009C18.7283 27.5095 19.6066 26.9013 20.3908 26.2594C21.9498 24.9648 23.1624 23.5343 24.1867 22.0884C24.7019 21.3654 25.1695 20.6289 25.6021 19.8921L26.1111 19.0149C26.2668 18.7585 26.4242 18.5005 26.584 18.2603C27.2291 17.295 27.86 16.5209 28.6263 15.94C29.382 15.344 30.4342 14.9036 31.8404 14.8013C33.2407 14.6978 34.8573 14.8891 36.6327 15.2883Z" fill="#FAFAFA"/>
<path fill-rule="evenodd" clip-rule="evenodd" d="M29.057 29.5954C29.057 30.8601 30.0827 31.8859 31.3475 31.8859C32.6122 31.8859 33.6367 30.8601 33.6367 29.5954C33.6367 28.3307 32.6122 27.3049 31.3475 27.3049C30.0827 27.3049 29.057 28.3307 29.057 29.5954Z" fill="url(#paint2_linear_56_2100)"/>
<path d="M176.757 15.2955V12.9827C176.757 12.891 176.683 12.8167 176.591 12.8167H163.413C163.321 12.8167 163.247 12.891 163.247 12.9827V15.2955H168.603V30.2575H171.401V15.2955H176.757Z" fill="white"/>
<path d="M149.474 12.8167C149.382 12.8167 149.308 12.891 149.308 12.9827V30.0915C149.308 30.1832 149.382 30.2575 149.474 30.2575H160.564C160.655 30.2575 160.73 30.1832 160.73 30.0915V27.8033H152.106V22.322H159.231V19.9169H152.106V15.2709H160.116V12.9827C160.116 12.891 160.041 12.8167 159.95 12.8167H149.474Z" fill="white"/>
<path d="M143.044 30.1561L143.104 30.2575H145.254C145.345 30.2575 145.42 30.1832 145.42 30.0915V12.9827C145.42 12.891 145.345 12.8167 145.254 12.8167H142.67V24.8954C142.222 24.1814 141.701 23.3955 141.108 22.5378C140.353 21.4215 139.541 20.2891 138.671 19.1406C137.818 17.9757 136.948 16.8517 136.062 15.7686C135.192 14.6682 134.369 13.7058 133.595 12.882L133.534 12.8167H131.511C131.419 12.8167 131.344 12.891 131.344 12.9827V30.0915C131.344 30.1832 131.419 30.2575 131.511 30.2575H134.094V17.318C134.447 17.7351 134.823 18.1974 135.221 18.7048C135.76 19.3906 136.316 20.1256 136.888 20.91L136.888 20.9109L136.889 20.9117C137.46 21.6793 138.032 22.4797 138.604 23.3129L138.605 23.314L138.606 23.3151C139.194 24.1488 139.758 24.9741 140.297 25.7912L140.298 25.792L140.298 25.7928C140.837 26.593 141.335 27.3683 141.792 28.1187L141.793 28.1201L141.793 28.1215C142.268 28.8738 142.684 29.5519 143.044 30.1561Z" fill="white"/>
<path d="M127.965 13.164L128.028 13.0946C128.125 12.988 128.05 12.8167 127.905 12.8167H124.842L124.78 12.8887C124.373 13.3604 123.868 13.9147 123.263 14.552L123.263 14.5521C122.674 15.1737 122.044 15.8281 121.373 16.5153C120.703 17.2023 120.024 17.8894 119.337 18.5764C118.787 19.1129 118.275 19.6073 117.799 20.0598V12.8167H115.166C115.075 12.8167 115 12.891 115 12.9827V30.0915C115 30.1832 115.075 30.2575 115.166 30.2575H117.799V22.3453C118.376 22.7236 118.967 23.1662 119.57 23.6737L119.571 23.6744L119.572 23.6752C120.303 24.2761 121.018 24.9343 121.717 25.6499L121.719 25.6516L121.721 25.6533C122.436 26.352 123.11 27.0914 123.744 27.8715L123.745 27.8723L123.745 27.8731C124.379 28.6369 124.939 29.3998 125.425 30.1617L125.486 30.2575H128.473C128.6 30.2575 128.68 30.1195 128.617 30.0088L128.581 29.9466C128.133 29.1667 127.57 28.3479 126.894 27.4903C126.235 26.6339 125.527 25.7942 124.77 24.9713C124.013 24.1482 123.239 23.3742 122.448 22.6494C121.732 21.9929 121.048 21.4292 120.396 20.9591C120.95 20.4176 121.539 19.8362 122.16 19.2147C122.848 18.5263 123.537 17.8296 124.225 17.1247C124.93 16.4035 125.602 15.7067 126.242 15.0344L126.243 15.0335L126.244 15.0326C126.883 14.3443 127.456 13.7215 127.965 13.164Z" fill="white"/>
<path fill-rule="evenodd" clip-rule="evenodd" d="M99.1164 12.6859C99.0247 12.686 98.9504 12.7603 98.9504 12.852V30.102C98.9504 30.1937 99.0247 30.268 99.1164 30.268H101.488V23.9257H104.951C105.341 24.3923 105.721 24.8805 106.092 25.3903L106.093 25.3922L106.094 25.3941C106.701 26.189 107.261 27.0182 107.775 27.8818L107.776 27.8827L107.776 27.8836C108.242 28.6479 108.648 29.4028 108.996 30.1482L109.052 30.268H111.857C111.978 30.268 112.058 30.1442 112.008 30.0348C111.685 29.3276 111.336 28.6353 110.947 27.9607C110.419 27.018 109.84 26.0847 109.21 25.1608C108.85 24.6328 108.483 24.1198 108.107 23.622C109.154 23.302 109.982 22.7234 110.581 21.8835L110.581 21.8829C111.3 20.8665 111.657 19.6711 111.657 18.3058C111.657 17.3676 111.493 16.5091 111.163 15.7334C110.832 14.9464 110.334 14.2937 109.669 13.7788C109.01 13.2612 108.197 12.9318 107.24 12.7841C107.017 12.7429 106.786 12.7183 106.548 12.7099C106.316 12.694 106.114 12.6858 105.941 12.6858C105.214 12.6858 104.486 12.6858 103.759 12.6857L103.759 12.6857C102.211 12.6855 100.664 12.6854 99.1164 12.6859ZM109.072 18.3058C109.072 18.7589 108.996 19.2048 108.845 19.6443C108.697 20.0664 108.46 20.4365 108.133 20.7562C107.823 21.059 107.414 21.2737 106.896 21.3938C106.732 21.4311 106.556 21.4575 106.366 21.4727L106.366 21.4727L106.365 21.4728C106.179 21.4883 106.014 21.4959 105.87 21.4959H101.488V15.1157H105.87C106.014 15.1157 106.179 15.1233 106.365 15.1388L106.37 15.1392L106.374 15.1393C106.559 15.1467 106.73 15.1725 106.888 15.2156L106.893 15.2171L106.899 15.2182C107.415 15.3304 107.822 15.5443 108.131 15.8536L108.132 15.8545L108.133 15.8553C108.46 16.1745 108.696 16.5483 108.845 16.9786L108.845 16.9791L108.845 16.9797C108.996 17.4108 109.072 17.8525 109.072 18.3058Z" fill="white"/>
<path fill-rule="evenodd" clip-rule="evenodd" d="M92.7249 27.955L92.7252 27.9557L92.7254 27.9564C92.9717 28.6624 93.2344 29.3847 93.5134 30.1233L93.5641 30.2575H96.3711C96.4863 30.2575 96.5665 30.1431 96.5271 30.0348C95.9139 28.3502 95.295 26.6678 94.6636 24.99C94.0899 23.4492 93.5243 21.9901 92.9668 20.6127C92.4256 19.2352 91.8844 17.9231 91.343 16.6762C90.7999 15.409 90.2284 14.1543 89.633 12.9109C89.6054 12.8533 89.5472 12.8167 89.4834 12.8167H87.2446C87.1807 12.8167 87.1225 12.8533 87.0949 12.9109C86.4995 14.1544 85.928 15.4091 85.3849 16.6763C84.8437 17.9227 84.2944 19.2345 83.737 20.6116L83.7366 20.6126L83.7362 20.6136C83.1953 21.9906 82.638 23.4494 82.0644 24.9899C81.4329 26.6677 80.814 28.3502 80.2009 30.0348C80.1615 30.1431 80.2417 30.2575 80.3569 30.2575H83.044L83.044 30.2574H83.0966L83.1581 30.1913C83.8064 29.4953 84.5309 28.8124 85.332 28.1426L85.3328 28.1419L85.3336 28.1412C86.1378 27.4545 86.9763 26.8177 87.849 26.2307L87.851 26.2293L87.8529 26.2279C88.7126 25.6205 89.5778 25.0754 90.4485 24.5925L90.4495 24.592L90.4505 24.5914C90.7641 24.413 91.0728 24.2467 91.3768 24.0926L91.964 25.7704L91.9645 25.7717L91.9645 25.7718C92.2262 26.5077 92.4797 27.2354 92.7249 27.955ZM89.7054 19.6819L89.7059 19.6833L89.7065 19.6847C89.9429 20.2832 90.1794 20.8918 90.4158 21.5103C90.3981 21.5181 90.3801 21.5262 90.3617 21.5346C89.5297 21.9135 88.6355 22.4034 87.6793 23.0031C86.7638 23.5773 85.8556 24.2011 84.9547 24.8745L85.3361 23.785C85.8408 22.369 86.3455 21.0018 86.8501 19.6833C87.3141 18.4942 87.7974 17.3505 88.2998 16.2521C88.7875 17.35 89.256 18.4933 89.7054 19.6819Z" fill="white"/>
<path d="M80.8859 15.2955V12.9827C80.8859 12.891 80.8115 12.8167 80.7199 12.8167H67.5419C67.4503 12.8167 67.3759 12.891 67.3759 12.9827V15.2955H72.7318V30.0915C72.7318 30.1832 72.8061 30.2575 72.8978 30.2575H75.364C75.4557 30.2575 75.53 30.1832 75.53 30.0915V15.2955H80.8859Z" fill="white"/>
<path d="M55.2844 30.0454L55.2838 30.0451C54.2688 29.6125 53.4246 28.9949 52.7553 28.1917L52.7543 28.1905L52.7538 28.1899C52.0912 27.3763 51.6609 26.4174 51.4611 25.318C51.4511 25.263 51.4637 25.2063 51.496 25.1607C51.5284 25.1151 51.5777 25.0845 51.6329 25.0758L53.865 24.724C53.9707 24.7074 54.0717 24.7738 54.0983 24.8773C54.3696 25.9313 54.9279 26.7494 55.7745 27.3423C56.6335 27.9302 57.6466 28.2273 58.8225 28.2273C59.5852 28.2273 60.2668 28.1095 60.8701 27.8775C61.4806 27.6379 61.9543 27.3017 62.3002 26.8731C62.6404 26.4515 62.8122 25.9525 62.8122 25.3658C62.8122 25.0016 62.7477 24.7034 62.6279 24.4639L62.6248 24.4573C62.5081 24.2021 62.3452 23.9889 62.1353 23.8152L62.1294 23.8101C61.9187 23.622 61.6769 23.463 61.4026 23.3335C61.1221 23.201 60.8296 23.0918 60.5251 23.0059L60.5224 23.0051L56.0698 21.6827C55.5742 21.534 55.0949 21.3481 54.6321 21.1249L54.6308 21.1243L54.6294 21.1236C54.1595 20.8887 53.7386 20.5985 53.3677 20.2528L53.3665 20.2517L53.3658 20.2511C52.9897 19.892 52.6914 19.4652 52.4706 18.9728L52.4701 18.9716C52.2457 18.4625 52.137 17.8707 52.137 17.2017C52.137 16.1291 52.4143 15.2029 52.9779 14.4344L52.9781 14.4341C53.5442 13.6652 54.3073 13.081 55.2604 12.6797C56.212 12.279 57.2797 12.085 58.46 12.0933C59.6564 12.1015 60.7324 12.3161 61.6842 12.7417C62.6432 13.1589 63.4388 13.7612 64.0671 14.5484C64.7048 15.3374 65.1302 16.2788 65.3462 17.3675C65.3571 17.4223 65.3454 17.4792 65.3138 17.5253C65.2822 17.5714 65.2334 17.6028 65.1784 17.6124L62.8856 18.0127C62.8313 18.0222 62.7753 18.0096 62.7303 17.9778C62.6852 17.946 62.6546 17.8975 62.6453 17.8431C62.5295 17.1638 62.2724 16.5876 61.8771 16.1086L61.8748 16.1058C61.4839 15.6152 60.9935 15.2393 60.4006 14.9775L60.3985 14.9766C59.8043 14.7065 59.1497 14.5663 58.432 14.5585L58.4319 14.5585C57.7439 14.5506 57.129 14.6601 56.5839 14.8827C56.0373 15.106 55.6107 15.4141 55.2961 15.8036L55.2949 15.8051C54.9863 16.1799 54.8327 16.6102 54.8327 17.1046C54.8327 17.5956 54.9726 17.9743 55.2375 18.2607C55.5235 18.5614 55.875 18.8042 56.2953 18.9879C56.7408 19.1708 57.1734 19.3215 57.5931 19.4403L57.5941 19.4406L60.9168 20.3986C61.3042 20.5058 61.7466 20.6534 62.2433 20.8406C62.7632 21.0336 63.2645 21.3054 63.7471 21.6548C64.2439 22.0062 64.6518 22.4754 64.9723 23.0572C65.3016 23.6466 65.4594 24.3796 65.4594 25.2445C65.4594 26.1138 65.2837 26.8951 64.927 27.5834C64.5807 28.2672 64.0947 28.8416 63.4711 29.3051L63.4696 29.3061C62.8496 29.7586 62.1318 30.1001 61.3188 30.3325C60.5056 30.573 59.6368 30.6926 58.7133 30.6926C57.4522 30.6926 56.3081 30.4782 55.2844 30.0454Z" fill="white"/>
<defs>
<linearGradient id="paint0_linear_56_2100" x1="39.0891" y1="11.1194" x2="2.59581" y2="17.8909" gradientUnits="userSpaceOnUse">
<stop stop-color="#EC796B"/>
<stop offset="1" stop-color="#E175B1"/>
</linearGradient>
<linearGradient id="paint1_linear_56_2100" x1="36.4615" y1="14.6842" x2="8.29452" y2="30.3348" gradientUnits="userSpaceOnUse">
<stop stop-color="#EC796B"/>
<stop offset="1" stop-color="#E175B1"/>
</linearGradient>
<linearGradient id="paint2_linear_56_2100" x1="33.6351" y1="27.9886" x2="29.0539" y2="28.4732" gradientUnits="userSpaceOnUse">
<stop stop-color="#EC796B"/>
<stop offset="1" stop-color="#E175B1"/>
</linearGradient>
</defs>
</svg>
