<svg width="178" height="41" viewBox="0 0 178 41" fill="none" xmlns="http://www.w3.org/2000/svg">
<path fill-rule="evenodd" clip-rule="evenodd" d="M0.0409241 20.8131C0.0409241 31.8589 8.99512 40.8131 20.0409 40.8131C31.0867 40.8131 40.0415 31.8589 40.0415 20.8131C40.0415 9.76727 31.0867 0.81308 20.0409 0.81308C8.99512 0.81308 0.0409241 9.76727 0.0409241 20.8131Z" fill="#0C0C4F"/>
<path fill-rule="evenodd" clip-rule="evenodd" d="M11.2193 16.1013L11.713 14.576C11.8133 14.2658 12.0582 14.0244 12.3695 13.9292L13.9023 13.4578C14.1145 13.3931 14.1162 13.0937 13.9057 13.0255L12.3799 12.5318C12.0702 12.4314 11.8288 12.1866 11.7331 11.8752L11.2623 10.3425C11.1975 10.1309 10.8982 10.1286 10.8299 10.3396L10.3362 11.8649C10.2359 12.1745 9.991 12.4159 9.67964 12.5117L8.14688 12.9825C7.93472 13.0479 7.93243 13.3466 8.14344 13.4148L9.66931 13.9086C9.97896 14.0089 10.2204 14.2543 10.3161 14.5657L10.7869 16.0979C10.8517 16.31 11.151 16.3123 11.2193 16.1013Z" fill="#FAFAFA"/>
<path fill-rule="evenodd" clip-rule="evenodd" d="M35.4461 15.2136C34.8142 14.507 33.828 14.1091 32.8693 13.946C31.9028 13.7893 30.8896 13.8038 29.9355 13.9733C28.0051 14.2999 26.2514 15.0992 24.7219 16.0852C23.9275 16.5692 23.2502 17.1291 22.5484 17.6994C22.2103 17.9878 21.902 18.295 21.5809 18.5977L20.7036 19.4706C19.7504 20.467 18.8108 21.3745 17.9017 22.1268C16.989 22.8755 16.1356 23.4442 15.2947 23.8414C14.4542 24.2406 13.5549 24.4753 12.3828 24.5129C11.221 24.5539 9.84635 24.3442 8.376 23.9981C6.89774 23.6535 5.34543 23.1623 3.61075 22.7397C4.21602 24.4189 5.12749 25.9027 6.2977 27.2592C7.48164 28.5921 8.96002 29.807 10.8592 30.6059C12.7309 31.4226 15.0831 31.7158 17.2825 31.2735C19.4877 30.8491 21.4229 29.8286 22.9871 28.6485C24.5553 27.4563 25.8241 26.0982 26.8937 24.6863C27.189 24.2963 27.3452 24.0779 27.5589 23.7731L28.1494 22.8982C28.5599 22.3571 28.9335 21.741 29.3397 21.2049C30.1362 20.082 30.9214 18.9605 31.8339 17.9272C32.2932 17.4031 32.7773 16.9018 33.349 16.42C33.6342 16.1849 33.9423 15.9548 34.2835 15.7475C34.6299 15.5239 34.9957 15.3489 35.4461 15.2136Z" fill="url(#paint0_linear_23_889)"/>
<path fill-rule="evenodd" clip-rule="evenodd" d="M35.446 15.2135C34.7671 13.5006 33.5051 12.0587 31.8113 10.9947C30.1277 9.94237 27.7893 9.40533 25.4722 9.86313C24.3274 10.0845 23.2184 10.5107 22.2452 11.0784C21.2764 11.6437 20.4082 12.3243 19.6566 13.0544C19.2814 13.4207 18.9408 13.8027 18.6025 14.187L17.7256 15.305L16.3712 17.1048C14.6445 19.4203 12.7851 22.1341 9.73372 22.9382C6.73813 23.7276 5.4389 23.0284 3.61061 22.7396C3.94491 23.6027 4.35901 24.4409 4.92039 25.1782C5.4713 25.9305 6.12202 26.6371 6.93106 27.2428C7.3399 27.5337 7.77156 27.8208 8.25096 28.0643C8.72819 28.2995 9.24284 28.5066 9.79217 28.6625C10.8848 28.9619 12.115 29.0668 13.3061 28.9058C14.4977 28.7468 15.6367 28.3691 16.6323 27.8676C17.6353 27.3707 18.509 26.7657 19.2891 26.1272C20.8399 24.8393 22.0461 23.4163 23.0651 21.978C23.5776 21.2588 24.0428 20.5261 24.4731 19.7932L24.9795 18.9206C25.1343 18.6655 25.2909 18.4089 25.4499 18.1699C26.0916 17.2096 26.7191 16.4397 27.4815 15.8617C28.2332 15.2689 29.2799 14.8308 30.6788 14.7291C32.0717 14.6261 33.6798 14.8163 35.446 15.2135Z" fill="#FAFAFA"/>
<path fill-rule="evenodd" clip-rule="evenodd" d="M27.91 29.4457C27.91 30.7038 28.9304 31.7242 30.1885 31.7242C31.4466 31.7242 32.4658 30.7038 32.4658 29.4457C32.4658 28.1876 31.4466 27.1672 30.1885 27.1672C28.9304 27.1672 27.91 28.1876 27.91 29.4457Z" fill="#EC796B"/>
<path d="M174.837 15.2206V12.9199C174.837 12.8287 174.763 12.7548 174.672 12.7548H161.563C161.472 12.7548 161.398 12.8287 161.398 12.9199V15.2206H166.726V30.1044H169.509V15.2206H174.837Z" fill="#0C0C4F"/>
<path d="M147.697 12.7548C147.606 12.7548 147.532 12.8287 147.532 12.9199V29.9392C147.532 30.0304 147.606 30.1044 147.697 30.1044H158.728C158.82 30.1044 158.894 30.0304 158.894 29.9392V27.663H150.315V22.2104H157.403V19.8178H150.315V15.1962H158.283V12.9199C158.283 12.8287 158.209 12.7548 158.117 12.7548H147.697Z" fill="#0C0C4F"/>
<path d="M141.3 30.0034L141.36 30.1044H143.498C143.59 30.1044 143.663 30.0304 143.663 29.9392V12.9199C143.663 12.8287 143.59 12.7548 143.498 12.7548H140.929V24.7703C140.483 24.0601 139.965 23.2783 139.375 22.425C138.624 21.3146 137.816 20.1881 136.951 19.0456C136.102 17.8868 135.237 16.7687 134.355 15.6912C133.489 14.5966 132.671 13.6393 131.901 12.8198L131.84 12.7548H129.827C129.736 12.7548 129.662 12.8287 129.662 12.9199V29.9392C129.662 30.0304 129.736 30.1044 129.827 30.1044H132.397V17.2326C132.748 17.6475 133.122 18.1073 133.519 18.6121C134.055 19.2943 134.607 20.0255 135.176 20.8058L135.177 20.8066L135.177 20.8075C135.746 21.571 136.315 22.3672 136.884 23.1961L136.884 23.1972L136.885 23.1983C137.471 24.0276 138.031 24.8486 138.568 25.6614L138.568 25.6622L138.569 25.663C139.105 26.459 139.6 27.2302 140.055 27.9768L140.055 27.9782L140.056 27.9795C140.528 28.7279 140.943 29.4025 141.3 30.0034Z" fill="#0C0C4F"/>
<path d="M126.3 13.1003L126.363 13.0312C126.46 12.9252 126.385 12.7548 126.241 12.7548H123.194L123.132 12.8264C122.727 13.2957 122.225 13.8471 121.623 14.481L121.623 14.4811C121.037 15.0994 120.411 15.7504 119.743 16.4341C119.076 17.1175 118.401 17.8009 117.717 18.4844C117.171 19.018 116.661 19.5099 116.187 19.96V12.7548H113.569C113.478 12.7548 113.404 12.8287 113.404 12.9199V29.9392C113.404 30.0304 113.478 30.1044 113.569 30.1044H116.187V22.2335C116.762 22.6099 117.349 23.0502 117.95 23.555L117.95 23.5557L117.951 23.5564C118.678 24.1543 119.39 24.809 120.086 25.5209L120.087 25.5226L120.089 25.5242C120.8 26.2193 121.471 26.9548 122.101 27.7308L122.102 27.7316L122.103 27.7324C122.733 28.4922 123.29 29.2511 123.774 30.009L123.835 30.1044H126.805C126.932 30.1044 127.012 29.967 126.949 29.8569L126.913 29.7951C126.467 29.0192 125.908 28.2047 125.235 27.3516C124.58 26.4997 123.876 25.6644 123.122 24.8458C122.369 24.027 121.599 23.257 120.813 22.536C120.1 21.883 119.419 21.3222 118.771 20.8546C119.323 20.316 119.908 19.7375 120.526 19.1194C121.211 18.4345 121.896 17.7415 122.58 17.0403C123.282 16.3228 123.95 15.6297 124.586 14.9609L124.587 14.96L124.588 14.9591C125.224 14.2745 125.795 13.6549 126.3 13.1003Z" fill="#0C0C4F"/>
<path fill-rule="evenodd" clip-rule="evenodd" d="M97.6029 12.6247C97.5117 12.6248 97.4377 12.6987 97.4377 12.7899V29.9496C97.4377 30.0408 97.5117 30.1148 97.6029 30.1148H99.9616V23.8057H103.407C103.795 24.2698 104.173 24.7555 104.542 25.2626L104.543 25.2645L104.544 25.2664C105.147 26.0571 105.705 26.882 106.216 27.7411L106.217 27.742L106.217 27.7429C106.681 28.5032 107.085 29.2541 107.43 29.9956L107.486 30.1148H110.277C110.397 30.1148 110.477 29.9916 110.427 29.8828C110.106 29.1793 109.758 28.4906 109.372 27.8196C108.847 26.8818 108.271 25.9534 107.644 25.0343C107.286 24.509 106.92 23.9988 106.547 23.5035C107.588 23.1852 108.412 22.6096 109.007 21.7742L109.008 21.7736C109.723 20.7625 110.077 19.5733 110.077 18.2152C110.077 17.2819 109.915 16.4279 109.587 15.6562C109.257 14.8734 108.761 14.2241 108.101 13.7119C107.444 13.197 106.636 12.8693 105.684 12.7224C105.462 12.6814 105.232 12.6569 104.996 12.6486C104.765 12.6327 104.563 12.6246 104.392 12.6246C103.668 12.6246 102.945 12.6246 102.221 12.6245L102.221 12.6245C100.682 12.6243 99.1422 12.6242 97.6029 12.6247ZM107.506 18.2152C107.506 18.6659 107.431 19.1095 107.28 19.5467C107.133 19.9666 106.898 20.3347 106.572 20.6528C106.264 20.9539 105.857 21.1675 105.342 21.2871C105.179 21.3241 105.003 21.3504 104.814 21.3655L104.814 21.3655L104.814 21.3656C104.628 21.381 104.464 21.3886 104.321 21.3886H99.9616V15.0418H104.321C104.464 15.0418 104.628 15.0493 104.814 15.0648L104.818 15.0651L104.823 15.0653C105.006 15.0727 105.176 15.0983 105.334 15.1412L105.339 15.1426L105.344 15.1438C105.858 15.2553 106.263 15.4682 106.57 15.7759L106.571 15.7767L106.572 15.7775C106.897 16.0951 107.133 16.4669 107.28 16.8949L107.28 16.8955L107.281 16.896C107.431 17.3248 107.506 17.7642 107.506 18.2152Z" fill="#0C0C4F"/>
<path fill-rule="evenodd" clip-rule="evenodd" d="M91.2447 27.8138L91.2449 27.8145L91.2452 27.8152C91.4902 28.5176 91.7515 29.2361 92.029 29.9709L92.0795 30.1044H94.8717C94.9864 30.1044 95.0661 29.9905 95.0269 29.8828C94.417 28.207 93.8013 26.5334 93.1732 24.8644C92.6025 23.3317 92.0399 21.8802 91.4853 20.51C90.947 19.1398 90.4085 17.8345 89.87 16.5942C89.3297 15.3336 88.7612 14.0855 88.169 12.8485C88.1415 12.7912 88.0836 12.7548 88.0201 12.7548H85.793C85.7295 12.7548 85.6716 12.7912 85.6442 12.8485C85.0519 14.0855 84.4834 15.3336 83.9431 16.5943C83.4047 17.8341 82.8583 19.139 82.3038 20.5089L82.3034 20.5099L82.303 20.5109C81.7649 21.8807 81.2105 23.3318 80.6399 24.8643C80.0118 26.5333 79.3961 28.207 78.7862 29.8828C78.747 29.9905 78.8268 30.1044 78.9414 30.1044H81.6144L81.6144 30.1042H81.6667L81.728 30.0385C82.3728 29.3461 83.0935 28.6668 83.8904 28.0005L83.8912 27.9998L83.892 27.9991C84.692 27.316 85.5261 26.6825 86.3943 26.0986L86.3962 26.0972L86.3982 26.0959C87.2534 25.4916 88.1141 24.9494 88.9802 24.469L88.9812 24.4685L88.9822 24.4679C89.2941 24.2904 89.6012 24.125 89.9036 23.9717L90.4878 25.6407L90.4882 25.642L90.4883 25.6421C90.7485 26.3742 91.0007 27.0981 91.2447 27.8138ZM88.2409 19.5841L88.2415 19.5855L88.242 19.5869C88.4772 20.1823 88.7124 20.7876 88.9477 21.403C88.93 21.4107 88.9121 21.4188 88.8939 21.4271C88.0662 21.804 87.1767 22.2913 86.2254 22.8879C85.3147 23.4591 84.4113 24.0796 83.5151 24.7495L83.8945 23.6657C84.3966 22.2572 84.8986 20.8971 85.4006 19.5855C85.8622 18.4026 86.3429 17.2648 86.8427 16.1722C87.3278 17.2644 87.7939 18.4017 88.2409 19.5841Z" fill="#0C0C4F"/>
<path d="M79.4678 15.2206V12.9199C79.4678 12.8287 79.3939 12.7548 79.3027 12.7548H66.1937C66.1025 12.7548 66.0286 12.8287 66.0286 12.9199V15.2206H71.3564V29.9392C71.3564 30.0304 71.4304 30.1044 71.5216 30.1044H73.9748C74.066 30.1044 74.14 30.0304 74.14 29.9392V15.2206H79.4678Z" fill="#0C0C4F"/>
<path d="M54.0002 29.8933L53.9997 29.8931C52.99 29.4627 52.1502 28.8483 51.4844 28.0494L51.4834 28.0482L51.4829 28.0476C50.8238 27.2382 50.3958 26.2843 50.1969 25.1907C50.187 25.136 50.1995 25.0796 50.2317 25.0342C50.2639 24.9889 50.313 24.9585 50.3679 24.9498L52.5883 24.5999C52.6934 24.5833 52.7939 24.6493 52.8204 24.7523C53.0902 25.8008 53.6456 26.6146 54.4878 27.2044C55.3423 27.7892 56.3501 28.0848 57.5198 28.0848C58.2785 28.0848 58.9566 27.9676 59.5568 27.7368C60.164 27.4985 60.6353 27.164 60.9794 26.7377C61.3178 26.3183 61.4887 25.8218 61.4887 25.2382C61.4887 24.8759 61.4245 24.5794 61.3053 24.341L61.3022 24.3345C61.1862 24.0806 61.0241 23.8685 60.8153 23.6958L60.8095 23.6907C60.5999 23.5036 60.3593 23.3454 60.0865 23.2166C59.8074 23.0848 59.5165 22.9761 59.2135 22.8907L59.2108 22.8899L54.7815 21.5744C54.2885 21.4265 53.8118 21.2416 53.3514 21.0196L53.3501 21.019L53.3487 21.0183C52.8813 20.7846 52.4626 20.4959 52.0936 20.152L52.0924 20.1509L52.0918 20.1503C51.7176 19.7931 51.4208 19.3686 51.2012 18.8787L51.2007 18.8775C50.9775 18.3711 50.8694 17.7824 50.8694 17.1169C50.8694 16.0499 51.1452 15.1286 51.7058 14.3641L51.706 14.3638C52.2692 13.5989 53.0283 13.0177 53.9764 12.6185C54.923 12.2199 55.9851 12.027 57.1592 12.0352C58.3494 12.0434 59.4197 12.2569 60.3666 12.6802C61.3206 13.0952 62.112 13.6944 62.737 14.4775C63.3714 15.2623 63.7945 16.1988 64.0094 17.2818C64.0203 17.3363 64.0086 17.3929 63.9772 17.4388C63.9458 17.4846 63.8972 17.5158 63.8424 17.5254L61.5617 17.9236C61.5076 17.9331 61.452 17.9206 61.4071 17.8889C61.3623 17.8573 61.3319 17.809 61.3227 17.7549C61.2075 17.0791 60.9517 16.506 60.5585 16.0295L60.5562 16.0267C60.1673 15.5387 59.6795 15.1648 59.0897 14.9043L59.0876 14.9034C58.4965 14.6347 57.8454 14.4952 57.1314 14.4875L57.1313 14.4875C56.4469 14.4797 55.8352 14.5886 55.293 14.81C54.7493 15.0321 54.3249 15.3386 54.0119 15.7261L54.0107 15.7276C53.7037 16.1004 53.551 16.5285 53.551 17.0203C53.551 17.5087 53.6901 17.8855 53.9536 18.1703C54.2381 18.4695 54.5878 18.711 55.0059 18.8937C55.4491 19.0757 55.8794 19.2256 56.2969 19.3438L56.2979 19.344L59.6032 20.297C59.9886 20.4037 60.4286 20.5505 60.9227 20.7368C61.4399 20.9287 61.9386 21.1991 62.4187 21.5467C62.9128 21.8962 63.3186 22.3629 63.6375 22.9417C63.965 23.5281 64.122 24.2572 64.122 25.1175C64.122 25.9823 63.9473 26.7595 63.5924 27.4442C63.2479 28.1244 62.7644 28.6958 62.1441 29.1569L62.1427 29.158C61.5259 29.608 60.8118 29.9478 60.0031 30.1789C59.1942 30.4182 58.3299 30.5371 57.4112 30.5371C56.1567 30.5371 55.0186 30.3239 54.0002 29.8933Z" fill="#0C0C4F"/>
<defs>
<linearGradient id="paint0_linear_23_889" x1="35.2758" y1="14.6125" x2="-16.7509" y2="41.681" gradientUnits="userSpaceOnUse">
<stop stop-color="#EC796B"/>
<stop offset="1" stop-color="#D672EF"/>
</linearGradient>
</defs>
</svg>
