<svg width="158" height="158" viewBox="0 0 158 158" fill="none" xmlns="http://www.w3.org/2000/svg">
<path fill-rule="evenodd" clip-rule="evenodd" d="M0 78.9988C0 122.629 35.3685 157.998 78.9988 157.998C122.629 157.998 158 122.629 158 78.9988C158 35.3685 122.629 0 78.9988 0C35.3685 0 0 35.3685 0 78.9988Z" fill="#0C0C4F"/>
<path fill-rule="evenodd" clip-rule="evenodd" d="M78.9988 153.998C37.5777 153.998 4 120.42 4 78.9988C4 37.5777 37.5777 4 78.9988 4C120.42 4 154 37.5778 154 78.9988C154 120.42 120.42 153.998 78.9988 153.998ZM78.9988 157.998C35.3685 157.998 0 122.629 0 78.9988C0 35.3685 35.3685 0 78.9988 0C122.629 0 158 35.3685 158 78.9988C158 122.629 122.629 157.998 78.9988 157.998Z" fill="url(#paint0_linear_1_1211)"/>
<path fill-rule="evenodd" clip-rule="evenodd" d="M139.848 56.881C137.352 54.09 133.457 52.5186 129.67 51.8742C125.852 51.2553 121.85 51.3127 118.081 51.9822C110.457 53.272 103.53 56.4292 97.488 60.3241C94.3505 62.2356 91.6749 64.4474 88.9029 66.7C87.5673 67.8392 86.3496 69.0524 85.0814 70.2482L81.6162 73.696C77.851 77.6317 74.1397 81.2165 70.5489 84.1878C66.9436 87.1454 63.5729 89.3917 60.2511 90.9604C56.9314 92.5372 53.3793 93.4645 48.7494 93.6129C44.1602 93.7748 38.7306 92.9465 32.9228 91.5794C27.0838 90.2183 20.9522 88.2782 14.1003 86.6088C16.4911 93.2414 20.0913 99.1027 24.7136 104.461C29.3901 109.726 35.2297 114.524 42.7313 117.68C50.1246 120.906 59.4156 122.064 68.103 120.317C76.8134 118.64 84.4572 114.61 90.6358 109.948C96.8303 105.239 101.842 99.8748 106.067 94.298C107.233 92.7572 107.85 91.8949 108.694 90.6906L111.027 87.2351C112.648 85.0977 114.124 82.6641 115.728 80.5464C118.874 76.1112 121.976 71.6811 125.58 67.5997C127.394 65.5296 129.307 63.5495 131.565 61.6466C132.691 60.7178 133.908 59.8088 135.256 58.99C136.624 58.1068 138.069 57.4155 139.848 56.881Z" fill="url(#paint1_linear_1_1211)"/>
<path fill-rule="evenodd" clip-rule="evenodd" d="M110.081 113.097C110.081 118.067 114.112 122.097 119.081 122.097C124.051 122.097 128.076 118.067 128.076 113.097C128.076 108.128 124.051 104.097 119.081 104.097C114.112 104.097 110.081 108.128 110.081 113.097Z" fill="url(#paint2_linear_1_1211)"/>
<path fill-rule="evenodd" clip-rule="evenodd" d="M139.848 56.8808C137.167 50.1148 132.182 44.4194 125.491 40.2167C118.841 36.0601 109.605 33.9389 100.452 35.7471C95.9307 36.6216 91.55 38.3052 87.7059 40.5472C83.879 42.7803 80.4498 45.4685 77.4811 48.3524C75.9991 49.7992 74.6539 51.3084 73.3175 52.8262L69.8537 57.2423L64.5038 64.3512C57.6835 73.4976 50.339 84.2166 38.2862 87.3927C26.4539 90.5108 21.322 87.7493 14.1003 86.6085C15.4208 90.0176 17.0565 93.3284 19.2739 96.2409C21.45 99.2124 24.0203 102.003 27.2159 104.396C28.8308 105.545 30.5358 106.679 32.4295 107.641C34.3145 108.57 36.3473 109.388 38.5171 110.003C42.8331 111.186 47.6922 111.601 52.3969 110.964C57.1038 110.336 61.6028 108.845 65.5354 106.864C69.497 104.901 72.948 102.511 76.0295 99.9891C82.155 94.9021 86.9196 89.2815 90.9443 83.6C92.9687 80.7594 94.8063 77.8652 96.5058 74.9702L98.5061 71.5236C99.1176 70.5161 99.7362 69.5024 100.364 68.5584C102.899 64.7654 105.378 61.7241 108.389 59.4413C111.358 57.0995 115.493 55.3693 121.018 54.9674C126.52 54.5606 132.872 55.312 139.848 56.8808Z" fill="#FAFAFA"/>
<path fill-rule="evenodd" clip-rule="evenodd" d="M44.1541 60.3876L46.1042 54.3628C46.5006 53.1374 47.4677 52.1839 48.6976 51.8079L54.7519 49.9461C55.5899 49.6901 55.5967 48.5078 54.7655 48.2383L48.7384 46.2881C47.5153 45.8918 46.5617 44.9246 46.1835 43.6947L44.3239 37.6405C44.068 36.8047 42.8857 36.7956 42.6161 37.6291L40.666 43.654C40.2696 44.877 39.3025 45.8306 38.0726 46.2089L32.0183 48.0684C31.1803 48.3266 31.1712 49.5067 32.0047 49.7762L38.0318 51.7263C39.2549 52.1227 40.2085 53.0921 40.5867 54.322L42.4463 60.374C42.7022 61.212 43.8845 61.2211 44.1541 60.3876Z" fill="#FAFAFA"/>
<defs>
<linearGradient id="paint0_linear_1_1211" x1="157.944" y1="23.5807" x2="-130.009" y2="50.5817" gradientUnits="userSpaceOnUse">
<stop stop-color="#EC796B"/>
<stop offset="1" stop-color="#D672EF"/>
</linearGradient>
<linearGradient id="paint1_linear_1_1211" x1="14.1448" y1="61.988" x2="239.07" y2="99.5244" gradientUnits="userSpaceOnUse">
<stop stop-color="#EC796B"/>
<stop offset="1" stop-color="#D672EF"/>
</linearGradient>
<linearGradient id="paint2_linear_1_1211" x1="14.1448" y1="61.988" x2="239.07" y2="99.5244" gradientUnits="userSpaceOnUse">
<stop stop-color="#EC796B"/>
<stop offset="1" stop-color="#D672EF"/>
</linearGradient>
</defs>
</svg>
